<?xml version="1.0" encoding="UTF-8" standalone="no"?>
<svg
   xmlns:dc="http://purl.org/dc/elements/1.1/"
   xmlns:cc="http://creativecommons.org/ns#"
   xmlns:rdf="http://www.w3.org/1999/02/22-rdf-syntax-ns#"
   xmlns:svg="http://www.w3.org/2000/svg"
   xmlns="http://www.w3.org/2000/svg"
   xmlns:xlink="http://www.w3.org/1999/xlink"
   xmlns:sodipodi="http://sodipodi.sourceforge.net/DTD/sodipodi-0.dtd"
   xmlns:inkscape="http://www.inkscape.org/namespaces/inkscape"
   width="30.48mm"
   height="128.5mm"
   viewBox="0 0 30.48 128.5"
   version="1.1"
   id="svg1206"
   inkscape:version="1.0.2-2 (e86c870879, 2021-01-15)"
   sodipodi:docname="Kickall.svg">
  <defs
     id="defs1200">
    <clipPath
       clipPathUnits="userSpaceOnUse"
       id="clipPath11862-0-0">
      <path
         d="m 60.766635,11.233205 h 12.23872 v 16.111456 h -12.23872 z"
         id="path11864-3-6"
         inkscape:connector-curvature="0"
         style="stroke-width:1.06667" />
    </clipPath>
    <linearGradient
       inkscape:collect="always"
       xlink:href="#linearGradient15150"
       id="linearGradient15156"
       x1="44.487099"
       y1="73.830711"
       x2="61.382893"
       y2="73.830711"
       gradientUnits="userSpaceOnUse"
       gradientTransform="matrix(0.32393032,0,0,0.2382677,-1.7286361,3.316612)" />
    <linearGradient
       inkscape:collect="always"
       id="linearGradient15150">
      <stop
         style="stop-color:#000000;stop-opacity:1;"
         offset="0"
         id="stop15152" />
      <stop
         style="stop-color:#000000;stop-opacity:0;"
         offset="1"
         id="stop15154" />
    </linearGradient>
  </defs>
  <sodipodi:namedview
     id="base"
     pagecolor="#ffffff"
     bordercolor="#666666"
     borderopacity="1.0"
     inkscape:pageopacity="0.0"
     inkscape:pageshadow="2"
     inkscape:zoom="0.70710678"
     inkscape:cx="351.72203"
     inkscape:cy="612.83889"
     inkscape:document-units="mm"
     inkscape:current-layer="layer2"
     inkscape:document-rotation="0"
     showgrid="false"
     inkscape:window-width="2542"
     inkscape:window-height="1343"
     inkscape:window-x="32"
     inkscape:window-y="32"
     inkscape:window-maximized="1" />
  <metadata
     id="metadata1203">
    <rdf:RDF>
      <cc:Work
         rdf:about="">
        <dc:format>image/svg+xml</dc:format>
        <dc:type
           rdf:resource="http://purl.org/dc/dcmitype/StillImage" />
        <dc:title />
      </cc:Work>
    </rdf:RDF>
  </metadata>
  <g
     inkscape:groupmode="layer"
     id="layer2"
     inkscape:label="background">
    <g
       transform="matrix(0.26458333,0,0,0.26458333,15.228595,0.89132061)"
       inkscape:export-ydpi="300"
       inkscape:export-xdpi="300"
       inkscape:export-filename="/home/diego/Escritorio/Miniaturas_modulos_web/ADSR.png"
       id="g31619"
       style="font-style:normal;font-variant:normal;font-weight:bold;font-stretch:condensed;font-size:24px;line-height:125%;font-family:Miso;-inkscape-font-specification:'Miso Bold Condensed';letter-spacing:-0.06px;word-spacing:0px;display:inline;fill:#ffffff;fill-opacity:1;stroke:none" />
    <rect
       style="fill:#171717;fill-opacity:1;stroke-width:3.02746;stroke-linejoin:round"
       id="rect1079"
       width="30.488516"
       height="128.50266"
       x="0"
       y="-2.7755576e-17" />
    <g
       aria-label="KICKALL"
       id="text47556"
       style="font-style:normal;font-variant:normal;font-weight:bold;font-stretch:condensed;font-size:3.38667px;line-height:0%;font-family:Miso;-inkscape-font-specification:'Miso Bold Condensed';text-align:center;letter-spacing:0.153268px;word-spacing:0px;text-anchor:middle;display:inline;fill:#ffffff;fill-opacity:1;stroke:none;stroke-width:0.282223">
      <path
         d="m 15.809416,4.4168895 q 0.04233,0.09525 0.0053,0.1957918 -0.03175,0.1005417 -0.127,0.1428751 -0.09525,0.047625 -0.195792,0.010583 -0.09525,-0.03175 -0.142875,-0.1270001 L 14.655832,3.1945138 14.454749,3.4696806 v 1.058334 q 0,0.1058334 -0.07408,0.1799167 -0.07408,0.074083 -0.179916,0.074083 -0.105834,0 -0.179917,-0.074083 -0.07408,-0.074083 -0.07408,-0.1799167 V 1.4588461 q 0,-0.1058334 0.07408,-0.1799168 0.07408,-0.074083 0.179917,-0.074083 0.105833,0 0.179916,0.074083 0.07408,0.074083 0.07408,0.1799168 v 1.137709 l 0.915459,-1.2858758 q 0.0635,-0.084667 0.164041,-0.1005417 0.105834,-0.015875 0.190501,0.042333 0.08996,0.058208 0.105833,0.1640418 0.01587,0.1005417 -0.04763,0.1905001 l -0.793751,1.1165423 z"
         style="font-size:5.29167px;line-height:0.84;stroke-width:0.282223"
         id="path1004" />
      <path
         d="m 16.581807,4.7820147 q -0.105833,0 -0.179916,-0.074083 -0.07408,-0.074083 -0.07408,-0.1799167 V 1.4588461 q 0,-0.1058334 0.07408,-0.1799168 0.07408,-0.074083 0.179916,-0.074083 0.105834,0 0.179917,0.074083 0.07408,0.074083 0.07408,0.1799168 v 3.0691685 q 0,0.1058334 -0.07408,0.1799167 -0.07408,0.074083 -0.179917,0.074083 z"
         style="font-size:5.29167px;line-height:0.84;stroke-width:0.282223"
         id="path1006" />
      <path
         d="M 18.13207,4.7502647 Q 17.989195,4.713223 17.867486,4.633848 17.745778,4.5491812 17.65582,4.4380562 17.571153,4.3216394 17.523528,4.184056 17.475903,4.0464726 17.475903,3.8930142 V 2.0938464 q 0,-0.1481667 0.04763,-0.2857501 0.04763,-0.1428751 0.132292,-0.2540002 0.08996,-0.1164167 0.211666,-0.1957918 0.121709,-0.084667 0.264584,-0.1217084 0.296333,-0.079375 0.5715,0.037042 0.275167,0.1111251 0.428626,0.3757086 0.05821,0.089958 0.02646,0.1905001 -0.02646,0.1005417 -0.116417,0.1587501 -0.08996,0.052917 -0.1905,0.026458 -0.100542,-0.03175 -0.15875,-0.1217084 -0.0635,-0.111125 -0.185209,-0.1587501 -0.116416,-0.052917 -0.243416,-0.015875 -0.121709,0.03175 -0.201084,0.1375834 -0.07937,0.1005418 -0.07937,0.2275418 v 1.7991678 q 0,0.1322917 0.07937,0.2328335 0.07937,0.1005417 0.201084,0.1375834 0.127,0.03175 0.243416,-0.015875 0.121709,-0.052917 0.185209,-0.1640418 0.05821,-0.089958 0.15875,-0.1164167 0.100542,-0.03175 0.1905,0.021167 0.08996,0.058208 0.116417,0.1587501 0.03175,0.1005418 -0.02646,0.1905001 -0.153459,0.2645835 -0.428626,0.3757086 -0.275167,0.1164167 -0.5715,0.037042 z"
         style="font-size:5.29167px;line-height:0.84;stroke-width:0.282223"
         id="path1008" />
      <path
         d="m 21.592623,4.4168895 q 0.04233,0.09525 0.0053,0.1957918 -0.03175,0.1005417 -0.127,0.1428751 -0.09525,0.047625 -0.195791,0.010583 -0.09525,-0.03175 -0.142876,-0.1270001 L 20.439039,3.1945138 20.237955,3.4696806 v 1.058334 q 0,0.1058334 -0.07408,0.1799167 -0.07408,0.074083 -0.179917,0.074083 -0.105833,0 -0.179917,-0.074083 -0.07408,-0.074083 -0.07408,-0.1799167 V 1.4588461 q 0,-0.1058334 0.07408,-0.1799168 0.07408,-0.074083 0.179917,-0.074083 0.105833,0 0.179917,0.074083 0.07408,0.074083 0.07408,0.1799168 v 1.137709 l 0.915459,-1.2858758 q 0.0635,-0.084667 0.164042,-0.1005417 0.105833,-0.015875 0.1905,0.042333 0.08996,0.058208 0.105833,0.1640418 0.01587,0.1005417 -0.04763,0.1905001 l -0.79375,1.1165423 z"
         style="font-size:5.29167px;line-height:0.84;stroke-width:0.282223"
         id="path1010" />
      <path
         d="m 24.068931,4.4592229 q 0.02646,0.1058333 -0.02646,0.1957917 -0.04763,0.089958 -0.148167,0.1164168 -0.105834,0.026458 -0.195792,-0.026458 -0.08996,-0.047625 -0.116417,-0.1481667 -0.02117,-0.0635 -0.04233,-0.1534585 -0.02117,-0.074083 -0.05292,-0.1746251 -0.02646,-0.1058334 -0.05821,-0.2275418 h -0.899584 q -0.03704,0.1217084 -0.0635,0.2275418 -0.02646,0.1005418 -0.04763,0.1746251 -0.02117,0.089958 -0.04233,0.1534585 -0.02646,0.1005417 -0.116417,0.1481667 -0.08996,0.052917 -0.195792,0.026458 Q 21.962846,4.744973 21.90993,4.6550146 21.862305,4.5650562 21.888763,4.4592229 L 22.73543,1.3900543 q 0.02117,-0.084667 0.08467,-0.1322917 0.06879,-0.052917 0.15875,-0.052917 0.08996,0 0.153458,0.052917 0.06879,0.047625 0.08996,0.1322917 z M 23.285764,3.5331806 Q 23.21168,3.2580138 23.132305,2.966972 23.05293,2.6759301 22.978847,2.4166383 22.904764,2.6759301 22.825389,2.966972 22.746014,3.2580138 22.67193,3.5331806 Z"
         style="font-size:5.29167px;line-height:0.84;stroke-width:0.282223"
         id="path1012" />
      <path
         d="m 24.804279,4.760848 q -0.105834,0 -0.179917,-0.074083 -0.07408,-0.074083 -0.07408,-0.1799168 V 1.4588461 q 0,-0.1058334 0.07408,-0.1799168 0.07408,-0.074083 0.179917,-0.074083 0.105833,0 0.179916,0.074083 0.07408,0.074083 0.07408,0.1799168 v 2.7940016 h 0.804333 q 0.105834,0 0.179917,0.074083 0.07408,0.074083 0.07408,0.1799168 0,0.1058334 -0.07408,0.1799168 -0.07408,0.074083 -0.179917,0.074083 h -1.058333 z"
         style="font-size:5.29167px;line-height:0.84;stroke-width:0.282223"
         id="path1014" />
      <path
         d="m 26.799046,4.760848 q -0.105834,0 -0.179917,-0.074083 -0.07408,-0.074083 -0.07408,-0.1799168 V 1.4588461 q 0,-0.1058334 0.07408,-0.1799168 0.07408,-0.074083 0.179917,-0.074083 0.105833,0 0.179916,0.074083 0.07408,0.074083 0.07408,0.1799168 v 2.7940016 h 0.804334 q 0.105833,0 0.179916,0.074083 0.07408,0.074083 0.07408,0.1799168 0,0.1058334 -0.07408,0.1799168 -0.07408,0.074083 -0.179916,0.074083 h -1.058334 z"
         style="font-size:5.29167px;line-height:0.84;stroke-width:0.282223"
         id="path1016" />
    </g>
    <g
       transform="matrix(-0.26458333,0,0,0.26458333,45.127127,7.6819361)"
       id="g47560"
       inkscape:export-filename="/home/diego/Escritorio/tirar kick all"
       inkscape:export-xdpi="600"
       inkscape:export-ydpi="600"
       style="display:inline">
      <g
         inkscape:export-ydpi="300"
         inkscape:export-xdpi="300"
         inkscape:export-filename="/home/diego/Escritorio/Miniaturas_modulos_web/Slew_limiter.png"
         transform="matrix(0.02706272,0,0,0.71152623,71.369463,120.74178)"
         id="g47562"
         style="display:inline;stroke:#ffffff;stroke-width:1;stroke-opacity:1">
        <path
           sodipodi:nodetypes="cc"
           style="display:inline;fill:none;stroke:#ffffff;stroke-width:1.98572;stroke-linecap:round;stroke-linejoin:miter;stroke-miterlimit:4;stroke-dasharray:none;stroke-opacity:1"
           d="M 9.0167297,311.52386 198.6963,311.52423"
           id="path47564"
           inkscape:connector-curvature="0" />
        <path
           inkscape:connector-curvature="0"
           id="path47566"
           d="M 9.0167297,307.25719 H 198.6963"
           style="display:inline;fill:none;stroke:#ffffff;stroke-width:1.98572;stroke-linecap:round;stroke-linejoin:miter;stroke-miterlimit:4;stroke-dasharray:none;stroke-opacity:1" />
        <path
           style="display:inline;fill:none;stroke:#ffffff;stroke-width:1.98572;stroke-linecap:round;stroke-linejoin:miter;stroke-miterlimit:4;stroke-dasharray:none;stroke-opacity:1"
           d="M 9.0167297,300.85719 H 198.6963"
           id="path47568"
           inkscape:connector-curvature="0" />
        <path
           inkscape:connector-curvature="0"
           id="path47570"
           d="M 9.0167297,290.19053 H 198.6963"
           style="display:inline;fill:none;stroke:#ffffff;stroke-width:1.98572;stroke-linecap:round;stroke-linejoin:miter;stroke-miterlimit:4;stroke-dasharray:none;stroke-opacity:1" />
        <path
           style="display:inline;fill:none;stroke:#ffffff;stroke-width:1.98572;stroke-linecap:round;stroke-linejoin:miter;stroke-miterlimit:4;stroke-dasharray:none;stroke-opacity:1"
           d="M 9.0167297,273.12386 H 198.6963"
           id="path47572"
           inkscape:connector-curvature="0" />
        <path
           inkscape:connector-curvature="0"
           id="path47574"
           d="M 9.0167297,247.52386 H 198.6963"
           style="display:inline;fill:none;stroke:#ffffff;stroke-width:1.98572;stroke-linecap:round;stroke-linejoin:miter;stroke-miterlimit:4;stroke-dasharray:none;stroke-opacity:1" />
        <path
           style="display:inline;fill:none;stroke:#ffffff;stroke-width:1.98572;stroke-linecap:round;stroke-linejoin:miter;stroke-miterlimit:4;stroke-dasharray:none;stroke-opacity:1"
           d="M 9.0167297,209.12386 H 198.6963"
           id="path47576"
           inkscape:connector-curvature="0" />
        <path
           inkscape:connector-curvature="0"
           id="path47578"
           d="M 9.0167297,151.52386 H 198.6963"
           style="display:inline;fill:none;stroke:#ffffff;stroke-width:1.98572;stroke-linecap:butt;stroke-linejoin:miter;stroke-miterlimit:4;stroke-dasharray:none;stroke-opacity:1" />
      </g>
      <g
         style="display:inline;stroke:#ffffff;stroke-width:1;stroke-opacity:1"
         id="g47580"
         transform="matrix(0.02706272,0,0,0.71152623,94.83613,120.74178)"
         inkscape:export-filename="/home/diego/Escritorio/Miniaturas_modulos_web/Slew_limiter.png"
         inkscape:export-xdpi="300"
         inkscape:export-ydpi="300">
        <path
           inkscape:connector-curvature="0"
           id="path47582"
           d="M 9.0167297,311.52386 198.6963,311.52423"
           style="display:inline;fill:none;stroke:#ffffff;stroke-width:1.98572;stroke-linecap:round;stroke-linejoin:miter;stroke-miterlimit:4;stroke-dasharray:none;stroke-opacity:1"
           sodipodi:nodetypes="cc" />
        <path
           style="display:inline;fill:none;stroke:#ffffff;stroke-width:1.98572;stroke-linecap:round;stroke-linejoin:miter;stroke-miterlimit:4;stroke-dasharray:none;stroke-opacity:1"
           d="M 9.0167297,307.25719 H 198.6963"
           id="path47584"
           inkscape:connector-curvature="0" />
        <path
           inkscape:connector-curvature="0"
           id="path47586"
           d="M 9.0167297,300.85719 H 198.6963"
           style="display:inline;fill:none;stroke:#ffffff;stroke-width:1.98572;stroke-linecap:round;stroke-linejoin:miter;stroke-miterlimit:4;stroke-dasharray:none;stroke-opacity:1" />
        <path
           style="display:inline;fill:none;stroke:#ffffff;stroke-width:1.98572;stroke-linecap:round;stroke-linejoin:miter;stroke-miterlimit:4;stroke-dasharray:none;stroke-opacity:1"
           d="M 9.0167297,290.19053 H 198.6963"
           id="path47588"
           inkscape:connector-curvature="0" />
        <path
           inkscape:connector-curvature="0"
           id="path47590"
           d="M 9.0167297,273.12386 H 198.6963"
           style="display:inline;fill:none;stroke:#ffffff;stroke-width:1.98572;stroke-linecap:round;stroke-linejoin:miter;stroke-miterlimit:4;stroke-dasharray:none;stroke-opacity:1" />
        <path
           style="display:inline;fill:none;stroke:#ffffff;stroke-width:1.98572;stroke-linecap:round;stroke-linejoin:miter;stroke-miterlimit:4;stroke-dasharray:none;stroke-opacity:1"
           d="M 9.0167297,247.52386 H 198.6963"
           id="path47592"
           inkscape:connector-curvature="0" />
        <path
           inkscape:connector-curvature="0"
           id="path47594"
           d="M 9.0167297,209.12386 H 198.6963"
           style="display:inline;fill:none;stroke:#ffffff;stroke-width:1.98572;stroke-linecap:round;stroke-linejoin:miter;stroke-miterlimit:4;stroke-dasharray:none;stroke-opacity:1" />
        <path
           style="display:inline;fill:none;stroke:#ffffff;stroke-width:1.98572;stroke-linecap:butt;stroke-linejoin:miter;stroke-miterlimit:4;stroke-dasharray:none;stroke-opacity:1"
           d="M 9.0167297,151.52386 H 198.6963"
           id="path47596"
           inkscape:connector-curvature="0" />
      </g>
    </g>
    <g
       transform="matrix(-0.20182325,0,0,0.20182325,197.56083,-46.433532)"
       id="g47598"
       inkscape:label="Capa 1"
       inkscape:export-filename="/home/diego/Escritorio/tirar kick all"
       inkscape:export-xdpi="600"
       inkscape:export-ydpi="600"
       style="display:inline;enable-background:new">
      <g
         transform="matrix(1.4349548,0,0,1.4349548,-276.94874,-296.6147)"
         id="g47600">
        <g
           style="fill:#ffffff"
           id="g47602">
          <g
             id="g47604">
            <path
               sodipodi:open="true"
               sodipodi:end="1.0646776"
               sodipodi:start="2.0832953"
               transform="scale(-1,1)"
               sodipodi:ry="19.50185"
               sodipodi:rx="19.499994"
               sodipodi:cy="614.89569"
               sodipodi:cx="-845.87158"
               id="path47606"
               style="display:inline;fill:none;stroke:#ffffff;stroke-width:1.15325px;stroke-linecap:butt;stroke-linejoin:miter;stroke-opacity:1;enable-background:new"
               sodipodi:type="arc"
               sodipodi:arc-type="arc"
               d="m -855.43353,631.89198 a 19.499994,19.50185 0 0 1 -9.29341,-21.9692 19.499994,19.50185 0 0 1 18.91757,-14.52884 19.499994,19.50185 0 0 1 18.82449,14.64925 19.499994,19.50185 0 0 1 -9.43337,21.90946" />
            <path
               inkscape:connector-curvature="0"
               d="m 835.73596,630.70064 c 0.56677,-0.3272 1.29157,-0.13299 1.61882,0.43376 0.32724,0.56682 0.13302,1.29165 -0.43377,1.61884 -0.5668,0.32727 -1.29159,0.13306 -1.61881,-0.43376 -0.32726,-0.56674 -0.13305,-1.29157 0.43376,-1.61884"
               style="display:inline;fill:#ffffff;fill-opacity:1;fill-rule:nonzero;stroke:none;stroke-width:1.06667;enable-background:new"
               id="path47608" />
            <path
               inkscape:connector-curvature="0"
               d="m 854.34316,631.72691 c 3e-5,-0.65454 0.5307,-1.1852 1.18525,-1.18524 0.6546,4e-5 1.1853,0.53072 1.18526,1.18527 3e-5,0.65461 -0.53064,1.18527 -1.18524,1.18524 -0.65455,3e-5 -1.18524,-0.53065 -1.18527,-1.18527"
               style="display:inline;fill:#ffffff;fill-opacity:1;fill-rule:nonzero;stroke:none;stroke-width:1.06667;enable-background:new"
               id="path47610" />
          </g>
        </g>
      </g>
    </g>
    <g
       style="display:inline;enable-background:new"
       inkscape:export-ydpi="600"
       inkscape:export-xdpi="600"
       inkscape:export-filename="/home/diego/Escritorio/tirar kick all"
       inkscape:label="Capa 1"
       id="g47612"
       transform="matrix(0.20182325,0,0,0.20182325,-180.54134,-24.723211)">
      <g
         id="g47614"
         transform="matrix(1.4349548,0,0,1.4349548,-276.94874,-296.6147)">
        <g
           id="g47616"
           style="fill:#ffffff">
          <g
             id="g47618">
            <path
               sodipodi:type="arc"
               style="display:inline;fill:none;stroke:#ffffff;stroke-width:1.15325px;stroke-linecap:butt;stroke-linejoin:miter;stroke-opacity:1;enable-background:new"
               id="path47620"
               sodipodi:cx="-845.87158"
               sodipodi:cy="614.89569"
               sodipodi:rx="19.499994"
               sodipodi:ry="19.50185"
               transform="scale(-1,1)"
               sodipodi:start="2.0832953"
               sodipodi:end="1.0646776"
               sodipodi:open="true"
               sodipodi:arc-type="arc"
               d="m -855.43353,631.89198 a 19.499994,19.50185 0 0 1 -9.29341,-21.9692 19.499994,19.50185 0 0 1 18.91757,-14.52884 19.499994,19.50185 0 0 1 18.82449,14.64925 19.499994,19.50185 0 0 1 -9.43337,21.90946" />
            <path
               id="path47622"
               style="display:inline;fill:#ffffff;fill-opacity:1;fill-rule:nonzero;stroke:none;stroke-width:1.06667;enable-background:new"
               d="m 835.73596,630.70064 c 0.56677,-0.3272 1.29157,-0.13299 1.61882,0.43376 0.32724,0.56682 0.13302,1.29165 -0.43377,1.61884 -0.5668,0.32727 -1.29159,0.13306 -1.61881,-0.43376 -0.32726,-0.56674 -0.13305,-1.29157 0.43376,-1.61884"
               inkscape:connector-curvature="0" />
            <path
               id="path47624"
               style="display:inline;fill:#ffffff;fill-opacity:1;fill-rule:nonzero;stroke:none;stroke-width:1.06667;enable-background:new"
               d="m 854.34316,631.72691 c 3e-5,-0.65454 0.5307,-1.1852 1.18525,-1.18524 0.6546,4e-5 1.1853,0.53072 1.18526,1.18527 3e-5,0.65461 -0.53064,1.18527 -1.18524,1.18524 -0.65455,3e-5 -1.18524,-0.53065 -1.18527,-1.18527"
               inkscape:connector-curvature="0" />
          </g>
        </g>
      </g>
    </g>
    <g
       style="display:inline;enable-background:new"
       inkscape:export-ydpi="600"
       inkscape:export-xdpi="600"
       inkscape:export-filename="/home/diego/Escritorio/tirar kick all"
       inkscape:label="Capa 1"
       id="g47626"
       transform="matrix(0.20182325,0,0,0.20182325,-180.54097,-89.269933)">
      <g
         id="g47628"
         transform="matrix(1.4349548,0,0,1.4349548,-276.94874,-296.6147)">
        <g
           id="g47630"
           style="fill:#ffffff">
          <g
             id="g47632">
            <path
               sodipodi:type="arc"
               style="display:inline;fill:none;stroke:#ffffff;stroke-width:1.15325px;stroke-linecap:butt;stroke-linejoin:miter;stroke-opacity:1;enable-background:new"
               id="path47634"
               sodipodi:cx="-845.87158"
               sodipodi:cy="614.89569"
               sodipodi:rx="19.499994"
               sodipodi:ry="19.50185"
               transform="scale(-1,1)"
               sodipodi:start="2.0832953"
               sodipodi:end="1.0646776"
               sodipodi:open="true"
               sodipodi:arc-type="arc"
               d="m -855.43353,631.89198 a 19.499994,19.50185 0 0 1 -9.29341,-21.9692 19.499994,19.50185 0 0 1 18.91757,-14.52884 19.499994,19.50185 0 0 1 18.82449,14.64925 19.499994,19.50185 0 0 1 -9.43337,21.90946" />
            <path
               id="path47636"
               style="display:inline;fill:#ffffff;fill-opacity:1;fill-rule:nonzero;stroke:none;stroke-width:1.06667;enable-background:new"
               d="m 835.73596,630.70064 c 0.56677,-0.3272 1.29157,-0.13299 1.61882,0.43376 0.32724,0.56682 0.13302,1.29165 -0.43377,1.61884 -0.5668,0.32727 -1.29159,0.13306 -1.61881,-0.43376 -0.32726,-0.56674 -0.13305,-1.29157 0.43376,-1.61884"
               inkscape:connector-curvature="0" />
            <path
               id="path47638"
               style="display:inline;fill:#ffffff;fill-opacity:1;fill-rule:nonzero;stroke:none;stroke-width:1.06667;enable-background:new"
               d="m 854.34316,631.72691 c 3e-5,-0.65454 0.5307,-1.1852 1.18525,-1.18524 0.6546,4e-5 1.1853,0.53072 1.18526,1.18527 3e-5,0.65461 -0.53064,1.18527 -1.18524,1.18524 -0.65455,3e-5 -1.18524,-0.53065 -1.18527,-1.18527"
               inkscape:connector-curvature="0" />
          </g>
        </g>
      </g>
    </g>
    <g
       transform="matrix(0.40395286,0,0,0.40395286,-362.9033,-187.25149)"
       id="g48183"
       inkscape:label="Capa 1"
       inkscape:export-filename="/home/diego/Escritorio/tirar kick all"
       inkscape:export-xdpi="600"
       inkscape:export-ydpi="600"
       style="display:inline;stroke:#ffffff;stroke-width:0.696245;stroke-linecap:round;stroke-miterlimit:4;stroke-dasharray:none;stroke-opacity:1;enable-background:new">
      <g
         transform="matrix(1.4349548,0,0,1.4349548,-276.94874,-296.6147)"
         id="g48185"
         style="stroke:#ffffff;stroke-width:0.485203;stroke-linecap:round;stroke-miterlimit:4;stroke-dasharray:none;stroke-opacity:1">
        <g
           style="fill:#ffffff;stroke:#ffffff;stroke-width:0.485203;stroke-linecap:round;stroke-miterlimit:4;stroke-dasharray:none;stroke-opacity:1"
           id="g48187">
          <g
             id="g48189"
             style="stroke:#ffffff;stroke-width:0.485203;stroke-linecap:round;stroke-miterlimit:4;stroke-dasharray:none;stroke-opacity:1">
            <path
               sodipodi:type="arc"
               style="display:inline;fill:none;stroke:#ffffff;stroke-width:0.51755;stroke-linecap:round;stroke-linejoin:miter;stroke-miterlimit:4;stroke-dasharray:none;stroke-opacity:1;enable-background:new"
               id="path34324"
               sodipodi:cx="-845.87158"
               sodipodi:cy="614.89569"
               sodipodi:rx="19.499994"
               sodipodi:ry="19.50185"
               transform="scale(-1,1)"
               sodipodi:start="2.3683393"
               sodipodi:end="0.76932519"
               sodipodi:open="true"
               sodipodi:arc-type="arc"
               d="m -859.8266,628.51709 a 19.499994,19.50185 0 0 1 0.20426,-27.44901 19.499994,19.50185 0 0 1 27.4471,-0.0539 19.499994,19.50185 0 0 1 0.31207,27.448" />
          </g>
        </g>
      </g>
    </g>
    <path
       sodipodi:nodetypes="ssssssssssssssssss"
       inkscape:connector-curvature="0"
       id="path47488"
       d="m 26.057023,61.692756 c 1.305757,0 2.361973,1.056201 2.361973,2.361957 v 37.943457 c 0,1.30575 -1.056216,2.36196 -2.361973,2.36196 h -7.321776 c -1.305758,0 -2.362511,-1.05621 -2.362511,-2.36196 V 64.054713 c 0,-1.305756 1.056753,-2.361957 2.362511,-2.361957 z m 0,0.334037 h -7.321776 c -1.126518,0 -2.028472,0.901425 -2.028472,2.02792 v 37.943457 c 0,1.12649 0.901954,2.02792 2.028472,2.02792 h 7.321776 c 1.126488,0 2.027934,-0.90143 2.027934,-2.02792 V 64.054713 c 0,-1.126495 -0.901446,-2.02792 -2.027934,-2.02792 z"
       style="color:#000000;font-style:normal;font-variant:normal;font-weight:normal;font-stretch:normal;font-size:medium;line-height:normal;font-family:sans-serif;text-indent:0;text-align:start;text-decoration:none;text-decoration-line:none;text-decoration-style:solid;text-decoration-color:#000000;letter-spacing:normal;word-spacing:normal;text-transform:none;writing-mode:lr-tb;direction:ltr;baseline-shift:baseline;text-anchor:start;white-space:normal;clip-rule:nonzero;display:inline;overflow:visible;visibility:visible;isolation:auto;mix-blend-mode:normal;color-interpolation:sRGB;color-interpolation-filters:linearRGB;solid-color:#000000;solid-opacity:1;fill:#ffffff;fill-opacity:1;fill-rule:nonzero;stroke:#ffffff;stroke-width:0;stroke-linecap:round;stroke-linejoin:miter;stroke-miterlimit:4;stroke-dasharray:none;stroke-dashoffset:0;stroke-opacity:1;color-rendering:auto;image-rendering:auto;shape-rendering:auto;text-rendering:auto;enable-background:accumulate"
       inkscape:export-filename="/home/diego/Escritorio/tirar kick all"
       inkscape:export-xdpi="600"
       inkscape:export-ydpi="600" />
    <g
       transform="matrix(0.22493746,0,0,0.22493746,-39.646317,5.6782709)"
       id="g14402"
       inkscape:label="Layer 1"
       inkscape:export-filename="/home/diego/Escritorio/tirar kick all"
       inkscape:export-xdpi="600"
       inkscape:export-ydpi="600"
       style="display:inline">
      <g
         style="fill:#ffffff"
         transform="matrix(0.1065142,0,0,0.1065142,218.82155,498.26861)"
         id="g14404">
        <g
           style="fill:#ffffff"
           id="g14406">
          <polygon
             style="fill:#ffffff"
             points="571.691,289.29 606.315,289.29 606.316,298.069 640.94,298.069 640.94,259.056 537.067,259.056 537.067,362.929 640.94,362.929 640.94,328.304 606.315,328.304 571.691,328.304 571.691,305.222 "
             id="polygon14408"
             transform="scale(1.0666667)" />
          <path
             style="fill:#ffffff;stroke-width:1.06667"
             inkscape:connector-curvature="0"
             d="m 443.5392,321.0592 v 66.06507 h 36.864 V 354.8768 h 36.93333 v 32.24747 h 37.00054 V 276.3264 h -66.0672 z m 73.81973,10.66667 -36.9792,-0.002 36.9792,-33.68746 z"
             id="path14410" />
          <path
             style="fill:#ffffff;stroke-width:1.06667"
             inkscape:connector-curvature="0"
             d="M 111.09547,276.3264 V 257.59467 H 74.116267 l 0.1664,129.5296 H 185.08053 V 276.3264 Z m 55.03786,60.33707 H 147.648 v 16.06826 h -10.00853 v -16.06826 h -3.51574 L 110.9248,352.73173 V 336.66347 H 92.747733 V 327.2992 H 110.9248 V 311.232 l 23.19787,16.0672 h 3.5168 V 311.232 H 147.648 v 16.0672 h 18.48533 z"
             id="path14412" />
          <path
             style="fill:#ffffff;stroke-width:1.06667"
             inkscape:connector-curvature="0"
             d="M 702.13547,276.3264 V 387.12427 H 812.93333 V 276.3264 Z m 73.7312,73.86453 H 738.9344 v -36.9312 h 36.93227 z"
             id="path14414" />
          <polygon
             style="fill:#ffffff"
             points="294.698,362.929 294.698,332.696 272.366,311.113 294.698,289.29 294.698,259.056 190.825,259.056 190.825,289.29 253.516,289.29 231.128,310.993 254.394,332.696 190.825,332.696 190.825,362.929 "
             id="polygon14416"
             transform="scale(1.0666667)" />
          <polygon
             style="fill:#ffffff"
             points="312.344,332.865 312.344,363.049 355.542,363.289 355.542,332.559 375.968,311.113 355.542,289.273 405.684,289.41 436.556,259.176 312.344,259.176 312.344,289.41 333.836,311.113 "
             id="polygon14418"
             transform="scale(1.0666667)" />
        </g>
        <g
           style="fill:#ffffff"
           id="g14420" />
      </g>
    </g>
    <path
       inkscape:export-ydpi="600"
       inkscape:export-xdpi="600"
       inkscape:export-filename="/home/diego/Escritorio/tirar kick all"
       sodipodi:end="0.66040173"
       sodipodi:start="5.6126822"
       sodipodi:ry="5.3831697"
       sodipodi:rx="5.3831697"
       sodipodi:cy="29.158743"
       sodipodi:cx="22.535067"
       id="path47948"
       style="display:inline;fill:none;fill-opacity:1;stroke:#ffffff;stroke-width:0.282001;stroke-linecap:butt;stroke-miterlimit:4;stroke-dasharray:none;stroke-dashoffset:0;stroke-opacity:1"
       sodipodi:type="arc"
       sodipodi:open="true"
       sodipodi:arc-type="arc"
       d="m 26.752829,25.813748 a 5.3831697,5.3831697 0 0 1 0.03357,6.647215" />
    <path
       inkscape:export-ydpi="600"
       inkscape:export-xdpi="600"
       inkscape:export-filename="/home/diego/Escritorio/tirar kick all"
       inkscape:transform-center-x="-12.457147"
       sodipodi:type="arc"
       style="display:inline;fill:none;stroke:#ffffff;stroke-width:0.282001;stroke-linecap:butt;stroke-miterlimit:4;stroke-dasharray:none;stroke-dashoffset:0;stroke-opacity:1"
       id="path47950"
       sodipodi:cx="22.466806"
       sodipodi:cy="29.158743"
       sodipodi:rx="6.3932548"
       sodipodi:ry="6.3903112"
       sodipodi:start="5.5962571"
       sodipodi:end="0.6814731"
       sodipodi:open="true"
       sodipodi:arc-type="arc"
       d="m 27.410056,25.106231 a 6.3932548,6.3903112 0 0 1 0.02204,8.07801" />
    <path
       inkscape:export-ydpi="600"
       inkscape:export-xdpi="600"
       inkscape:export-filename="/home/diego/Escritorio/tirar kick all"
       sodipodi:end="0.7012579"
       sodipodi:start="5.5772643"
       sodipodi:ry="7.2719922"
       sodipodi:rx="7.2719922"
       sodipodi:cy="29.158743"
       sodipodi:cx="22.535067"
       id="path47952"
       style="display:inline;fill:none;stroke:#ffffff;stroke-width:0.282001;stroke-linecap:butt;stroke-miterlimit:4;stroke-dasharray:none;stroke-dashoffset:0;stroke-opacity:1"
       sodipodi:type="arc"
       sodipodi:open="true"
       sodipodi:arc-type="arc"
       d="m 28.069157,24.441147 a 7.2719922,7.2719922 0 0 1 0.02194,9.409335" />
    <path
       style="color:#000000;font-style:normal;font-variant:normal;font-weight:normal;font-stretch:normal;font-size:medium;line-height:normal;font-family:sans-serif;text-indent:0;text-align:start;text-decoration:none;text-decoration-line:none;text-decoration-style:solid;text-decoration-color:#000000;letter-spacing:normal;word-spacing:normal;text-transform:none;writing-mode:lr-tb;direction:ltr;baseline-shift:baseline;text-anchor:start;white-space:normal;clip-rule:nonzero;display:inline;overflow:visible;visibility:visible;isolation:auto;mix-blend-mode:normal;color-interpolation:sRGB;color-interpolation-filters:linearRGB;solid-color:#000000;solid-opacity:1;fill:#ffffff;fill-opacity:1;fill-rule:nonzero;stroke:none;stroke-width:0.2256;stroke-linecap:butt;stroke-linejoin:miter;stroke-miterlimit:4;stroke-dasharray:none;stroke-dashoffset:0;stroke-opacity:1;color-rendering:auto;image-rendering:auto;shape-rendering:auto;text-rendering:auto;enable-background:accumulate"
       d="m 28.87145,23.60161 -0.211529,0.186034 c 0.948253,1.081222 1.592876,2.39414 1.86931,3.805451 l -7.94e-4,-1.107002 C 30.174401,25.427511 29.612291,24.446252 28.871521,23.60161 Z"
       id="path47954"
       inkscape:connector-curvature="0"
       sodipodi:nodetypes="ccccc"
       inkscape:export-filename="/home/diego/Escritorio/tirar kick all"
       inkscape:export-xdpi="600"
       inkscape:export-ydpi="600" />
    <path
       style="color:#000000;font-style:normal;font-variant:normal;font-weight:normal;font-stretch:normal;font-size:medium;line-height:normal;font-family:sans-serif;text-indent:0;text-align:start;text-decoration:none;text-decoration-line:none;text-decoration-style:solid;text-decoration-color:#000000;letter-spacing:normal;word-spacing:normal;text-transform:none;writing-mode:lr-tb;direction:ltr;baseline-shift:baseline;text-anchor:start;white-space:normal;clip-rule:nonzero;display:inline;overflow:visible;visibility:visible;isolation:auto;mix-blend-mode:normal;color-interpolation:sRGB;color-interpolation-filters:linearRGB;solid-color:#000000;solid-opacity:1;fill:#ffffff;fill-opacity:1;fill-rule:nonzero;stroke:none;stroke-width:0.2256;stroke-linecap:butt;stroke-linejoin:miter;stroke-miterlimit:4;stroke-dasharray:none;stroke-dashoffset:0;stroke-opacity:1;color-rendering:auto;image-rendering:auto;shape-rendering:auto;text-rendering:auto;enable-background:accumulate"
       d="m 30.52994,30.73089 c -0.276632,1.406395 -0.921115,2.715233 -1.865196,3.793741 l 0.21222,0.185343 c 0.736782,-0.84169 1.29822,-1.818767 1.651431,-2.872581 z"
       id="path47956"
       inkscape:connector-curvature="0"
       sodipodi:nodetypes="ccccc"
       inkscape:export-filename="/home/diego/Escritorio/tirar kick all"
       inkscape:export-xdpi="600"
       inkscape:export-ydpi="600" />
    <g
       aria-label="TRIGG"
       id="text47494"
       style="font-style:normal;font-variant:normal;font-weight:bold;font-stretch:condensed;font-size:3.38667px;line-height:0%;font-family:Miso;-inkscape-font-specification:'Miso Bold Condensed';letter-spacing:-0.0142462px;word-spacing:0px;display:inline;fill:#ffffff;fill-opacity:1;stroke:none;stroke-width:0.282223;enable-background:new">
      <path
         d="m 3.6195308,19.797462 q 0.066482,0 0.1130201,0.04654 0.046538,0.04654 0.046538,0.11302 0,0.06648 -0.046538,0.11302 -0.046538,0.04654 -0.1130201,0.04654 H 3.3469529 v 1.755135 q 0,0.06648 -0.046538,0.11302 -0.046538,0.04654 -0.11302,0.04654 -0.066482,0 -0.1130201,-0.04654 -0.046538,-0.04654 -0.046538,-0.11302 V 20.116578 H 2.7552596 q -0.066482,0 -0.1130201,-0.04654 -0.046538,-0.04654 -0.046538,-0.11302 0,-0.06648 0.046538,-0.11302 0.046538,-0.04654 0.1130201,-0.04654 z"
         style="font-size:3.32412px;line-height:1.25;fill:#ffffff;fill-opacity:1;stroke-width:0.282223"
         id="path986" />
      <path
         d="m 5.0944876,20.542065 q 0,0.162882 -0.083103,0.295847 -0.079779,0.12964 -0.2160678,0.199447 l 0.2891984,0.777844 q 0.026593,0.06316 -0.00332,0.122992 -0.026593,0.05983 -0.089751,0.0831 -0.063158,0.02327 -0.1229924,-0.0033 -0.05651,-0.02659 -0.083103,-0.08975 L 4.4762012,21.100517 H 4.2966988 v 0.771196 q 0,0.06648 -0.046538,0.11302 -0.046538,0.04654 -0.1130201,0.04654 -0.066482,0 -0.1130201,-0.04654 -0.046538,-0.04654 -0.046538,-0.11302 V 19.95702 q 0,-0.06648 0.046538,-0.11302 0.046538,-0.04654 0.1130201,-0.04654 h 0.3988944 q 0.1163442,0 0.2160678,0.04321 0.1030477,0.04321 0.1795025,0.119668 0.076455,0.07645 0.1196683,0.179503 0.043214,0.09972 0.043214,0.216067 v 0.186151 z m -0.7977888,0.239337 h 0.2393366 q 0.099724,0 0.1695301,-0.06981 0.069807,-0.06981 0.069807,-0.16953 v -0.186151 q 0,-0.09972 -0.069807,-0.16953 -0.069806,-0.06981 -0.1695301,-0.06981 H 4.2966988 Z"
         style="font-size:3.32412px;line-height:1.25;fill:#ffffff;fill-opacity:1;stroke-width:0.282223"
         id="path988" />
      <path
         d="m 5.5057237,22.031271 q -0.066482,0 -0.1130201,-0.04654 -0.046538,-0.04654 -0.046538,-0.11302 v -1.92799 q 0,-0.06648 0.046538,-0.11302 0.046538,-0.04654 0.1130201,-0.04654 0.066482,0 0.1130201,0.04654 0.046538,0.04654 0.046538,0.11302 v 1.92799 q 0,0.06648 -0.046538,0.11302 -0.046538,0.04654 -0.1130201,0.04654 z"
         style="font-size:3.32412px;line-height:1.25;fill:#ffffff;fill-opacity:1;stroke-width:0.282223"
         id="path990" />
      <path
         d="m 6.9141971,20.781402 q 0.066482,0 0.11302,0.04654 0.046538,0.04654 0.046538,0.11302 v 0.53186 q 0,0.116344 -0.043213,0.219392 -0.043214,0.09972 -0.1196684,0.176178 -0.076455,0.07645 -0.1795024,0.119668 -0.099724,0.04321 -0.2160679,0.04321 -0.1163442,0 -0.2193919,-0.04321 -0.099724,-0.04321 -0.1761783,-0.119668 -0.073131,-0.07645 -0.1196684,-0.176178 -0.043214,-0.103048 -0.043214,-0.219392 v -1.130201 q 0,-0.09308 0.029917,-0.179503 0.029917,-0.08975 0.083103,-0.159557 0.05651,-0.07313 0.1329648,-0.122993 0.076455,-0.05319 0.1695301,-0.07645 0.089751,-0.02327 0.1828266,-0.01662 0.093075,0.0033 0.1761784,0.03989 0.083103,0.03324 0.1529095,0.09308 0.069806,0.05983 0.1163442,0.142937 0.033241,0.05651 0.013297,0.119668 -0.016621,0.06316 -0.073131,0.09972 -0.05651,0.03324 -0.1196683,0.01662 -0.063158,-0.01994 -0.096399,-0.07645 -0.043214,-0.06981 -0.1196683,-0.09972 -0.073131,-0.03324 -0.1495854,-0.01 -0.079779,0.01994 -0.1296407,0.08643 -0.049862,0.06316 -0.049862,0.142937 v 1.130201 q 0,0.09972 0.069806,0.16953 0.073131,0.06981 0.1695301,0.06981 0.099724,0 0.1695302,-0.06981 0.069807,-0.06981 0.069807,-0.16953 V 21.100517 H 6.581785 q -0.066482,0 -0.11302,-0.04654 -0.046538,-0.04654 -0.046538,-0.113021 0,-0.06648 0.046538,-0.11302 0.046538,-0.04654 0.11302,-0.04654 h 0.3324121 z"
         style="font-size:3.32412px;line-height:1.25;fill:#ffffff;fill-opacity:1;stroke-width:0.282223"
         id="path992" />
      <path
         d="m 8.2694839,20.781402 q 0.066482,0 0.1130201,0.04654 0.046538,0.04654 0.046538,0.11302 v 0.53186 q 0,0.116344 -0.043214,0.219392 -0.043214,0.09972 -0.1196683,0.176178 -0.076455,0.07645 -0.1795025,0.119668 -0.099724,0.04321 -0.2160678,0.04321 -0.1163442,0 -0.2193919,-0.04321 -0.099724,-0.04321 -0.1761784,-0.119668 -0.073131,-0.07645 -0.1196683,-0.176178 -0.043214,-0.103048 -0.043214,-0.219392 v -1.130201 q 0,-0.09308 0.029917,-0.179503 0.029917,-0.08975 0.083103,-0.159557 0.05651,-0.07313 0.1329648,-0.122993 0.076455,-0.05319 0.1695301,-0.07645 0.089751,-0.02327 0.1828266,-0.01662 0.093075,0.0033 0.1761784,0.03989 0.083103,0.03324 0.1529095,0.09308 0.069807,0.05983 0.1163442,0.142937 0.033241,0.05651 0.013296,0.119668 -0.016621,0.06316 -0.073131,0.09972 -0.05651,0.03324 -0.1196684,0.01662 -0.063158,-0.01994 -0.0964,-0.07645 -0.043214,-0.06981 -0.1196683,-0.09972 -0.073131,-0.03324 -0.1495854,-0.01 -0.079779,0.01994 -0.1296407,0.08643 -0.049862,0.06316 -0.049862,0.142937 v 1.130201 q 0,0.09972 0.069807,0.16953 0.073131,0.06981 0.1695301,0.06981 0.099724,0 0.1695301,-0.06981 0.069806,-0.06981 0.069806,-0.16953 V 21.100517 H 7.9370719 q -0.066482,0 -0.1130201,-0.04654 -0.046538,-0.04654 -0.046538,-0.113021 0,-0.06648 0.046538,-0.11302 0.046538,-0.04654 0.1130201,-0.04654 h 0.332412 z"
         style="font-size:3.32412px;line-height:1.25;fill:#ffffff;fill-opacity:1;stroke-width:0.282223"
         id="path994" />
    </g>
    <g
       aria-label="OUT"
       id="text47502"
       style="font-style:normal;font-variant:normal;font-weight:bold;font-stretch:condensed;font-size:3.38667px;line-height:0%;font-family:Miso;-inkscape-font-specification:'Miso Bold Condensed';letter-spacing:-0.0142462px;word-spacing:0px;display:inline;fill:#ffffff;fill-opacity:1;stroke:none;stroke-width:0.282223;enable-background:new">
      <path
         d="m 24.170364,22.031271 q -0.116345,0 -0.219392,-0.04321 -0.09972,-0.04321 -0.176179,-0.119668 -0.07645,-0.07645 -0.119668,-0.176178 -0.04321,-0.103048 -0.04321,-0.219392 v -1.130201 q 0,-0.116344 0.04321,-0.216068 0.04321,-0.103048 0.119668,-0.179502 0.07645,-0.07645 0.176179,-0.119669 0.103047,-0.04321 0.219392,-0.04321 0.116344,0 0.216067,0.04321 0.103048,0.04321 0.179503,0.119669 0.07646,0.07645 0.119668,0.179502 0.04321,0.09972 0.04321,0.216068 v 1.130201 q 0,0.116344 -0.04321,0.219392 -0.04321,0.09972 -0.119668,0.176178 -0.07645,0.07645 -0.179503,0.119668 -0.09972,0.04321 -0.216067,0.04321 z m 0,-1.92799 q -0.09972,0 -0.16953,0.06981 -0.06981,0.06981 -0.06981,0.16953 v 1.130201 q 0,0.09972 0.06981,0.16953 0.06981,0.06981 0.16953,0.06981 0.09972,0 0.16953,-0.06981 0.06981,-0.06981 0.06981,-0.16953 v -1.130201 q 0,-0.09972 -0.06981,-0.16953 -0.06981,-0.06981 -0.16953,-0.06981 z"
         style="font-size:3.32412px;line-height:1.25;fill:#ffffff;fill-opacity:1;stroke-width:0.282223"
         id="path997" />
      <path
         d="m 25.312906,21.472819 q 0,0.09972 0.06981,0.16953 0.06981,0.06981 0.16953,0.06981 0.0964,0 0.166206,-0.06981 0.07313,-0.06981 0.07313,-0.16953 v -1.529096 q 0,-0.06648 0.04654,-0.11302 0.04654,-0.04654 0.11302,-0.04654 0.06648,0 0.11302,0.04654 0.04654,0.04654 0.04654,0.11302 v 1.529096 q 0,0.116344 -0.04654,0.219392 -0.04321,0.09972 -0.119668,0.176178 -0.07313,0.07645 -0.176178,0.119668 -0.103048,0.04321 -0.216068,0.04321 -0.116344,0 -0.219392,-0.04321 -0.09972,-0.04321 -0.176179,-0.119668 -0.07645,-0.07645 -0.119668,-0.176178 -0.04321,-0.103048 -0.04321,-0.219392 v -1.529096 q 0,-0.06648 0.04654,-0.11302 0.04654,-0.04654 0.11302,-0.04654 0.06648,0 0.11302,0.04654 0.04654,0.04654 0.04654,0.11302 v 1.529096 z"
         style="font-size:3.32412px;line-height:1.25;fill:#ffffff;fill-opacity:1;stroke-width:0.282223"
         id="path999" />
      <path
         d="m 27.306428,19.797462 q 0.06648,0 0.11302,0.04654 0.04654,0.04654 0.04654,0.11302 0,0.06648 -0.04654,0.11302 -0.04654,0.04654 -0.11302,0.04654 H 27.03385 v 1.755135 q 0,0.06648 -0.04654,0.11302 -0.04654,0.04654 -0.11302,0.04654 -0.06648,0 -0.11302,-0.04654 -0.04654,-0.04654 -0.04654,-0.11302 v -1.755135 h -0.272577 q -0.06648,0 -0.11302,-0.04654 -0.04654,-0.04654 -0.04654,-0.11302 0,-0.06648 0.04654,-0.11302 0.04654,-0.04654 0.11302,-0.04654 z"
         style="font-size:3.32412px;line-height:1.25;fill:#ffffff;fill-opacity:1;stroke-width:0.282223"
         id="path1001" />
    </g>
    <g
       style="display:inline;fill:none;stroke:#ffffff;stroke-width:0.879661;stroke-opacity:1"
       transform="matrix(0.22464321,0,0,0.22621051,-108.34228,-108.33115)"
       id="g9524"
       inkscape:export-filename="/home/diego/Escritorio/tirar kick all"
       inkscape:export-xdpi="600"
       inkscape:export-ydpi="600">
      <title
         id="title9526">Lienzo 1</title>
      <g
         id="g9528"
         style="stroke:#ffffff;stroke-width:1.80908;stroke-miterlimit:4;stroke-dasharray:none;stroke-opacity:1">
        <title
           id="title9530">Capa 1</title>
        <path
           style="stroke:#ffffff;stroke-width:1.92968;stroke-linecap:round;stroke-linejoin:miter;stroke-miterlimit:4;stroke-dasharray:none;stroke-opacity:1"
           inkscape:connector-curvature="0"
           d="m 514.8485,739.71781 1.67975,-3.69894 c 0.4945,-1.08895 1.79767,-1.57919 2.91036,-1.09515 0.50261,0.21867 0.90353,0.61333 1.1241,1.10639 l 3.22352,7.20609 c 0.48832,1.09162 1.78847,1.58921 2.90396,1.11132 0.50268,-0.21535 0.9052,-0.60649 1.12902,-1.09679 l 1.61277,-3.53292"
           id="path9532"
           sodipodi:nodetypes="cscsscsc" />
      </g>
    </g>
    <g
       transform="matrix(0.37523417,0,0,-0.37794165,0.4328503,192.27663)"
       id="g10138"
       style="display:inline;stroke:#ffffff;stroke-width:0.99579;stroke-miterlimit:4;stroke-dasharray:none;stroke-opacity:1"
       inkscape:export-filename="/home/diego/Escritorio/tirar kick all"
       inkscape:export-xdpi="600"
       inkscape:export-ydpi="600">
      <path
         style="fill:none;fill-opacity:1;stroke:#ffffff;stroke-width:1.06218;stroke-linecap:round;stroke-linejoin:round;stroke-miterlimit:4;stroke-dasharray:none;stroke-dashoffset:0;stroke-opacity:1"
         d="m 55.400908,352.63602 v 2.79345 h 3.987133 v -5.48557 h 3.886806 l -0.02483,2.69212"
         id="path10136"
         inkscape:connector-curvature="0"
         sodipodi:nodetypes="cccccc" />
    </g>
    <g
       aria-label="TUNE"
       id="text47490"
       style="font-style:normal;font-variant:normal;font-weight:bold;font-stretch:condensed;font-size:3.38667px;line-height:0%;font-family:Miso;-inkscape-font-specification:'Miso Bold Condensed';letter-spacing:-0.0142462px;word-spacing:0px;display:inline;fill:#ffffff;fill-opacity:1;stroke:none;stroke-width:0.282223;enable-background:new">
      <path
         d="m 6.843907,34.625288 q 0.066482,0 0.1130201,0.04654 0.046538,0.04654 0.046538,0.11302 0,0.06648 -0.046538,0.113021 -0.046538,0.04654 -0.1130201,0.04654 H 6.5713291 v 1.755136 q 0,0.06648 -0.046538,0.11302 -0.046538,0.04654 -0.1130201,0.04654 -0.066482,0 -0.1130201,-0.04654 -0.046538,-0.04654 -0.046538,-0.11302 V 34.944403 H 5.9796358 q -0.066482,0 -0.1130201,-0.04654 -0.046538,-0.04654 -0.046538,-0.113021 0,-0.06648 0.046538,-0.11302 0.046538,-0.04654 0.1130201,-0.04654 z"
         style="font-size:3.32412px;line-height:1.25;fill:#ffffff;fill-opacity:1;stroke-width:0.282223"
         id="path1068" />
      <path
         d="m 7.494482,36.300644 q 0,0.09972 0.069807,0.16953 0.069807,0.06981 0.1695301,0.06981 0.096399,0 0.166206,-0.06981 0.073131,-0.06981 0.073131,-0.16953 v -1.529095 q 0,-0.06648 0.046538,-0.11302 0.046538,-0.04654 0.11302,-0.04654 0.066482,0 0.1130201,0.04654 0.046538,0.04654 0.046538,0.11302 v 1.529095 q 0,0.116344 -0.046538,0.219392 -0.043214,0.09972 -0.1196683,0.176179 -0.073131,0.07645 -0.1761784,0.119668 -0.1030477,0.04321 -0.2160678,0.04321 -0.1163442,0 -0.2193919,-0.04321 Q 7.4147031,36.772669 7.3382484,36.696215 7.2617936,36.61976 7.21858,36.520036 7.1753665,36.416988 7.1753665,36.300644 v -1.529095 q 0,-0.06648 0.046538,-0.11302 0.046538,-0.04654 0.1130201,-0.04654 0.066482,0 0.1130201,0.04654 0.046538,0.04654 0.046538,0.11302 v 1.529095 z"
         style="font-size:3.32412px;line-height:1.25;fill:#ffffff;fill-opacity:1;stroke-width:0.282223"
         id="path1070" />
      <path
         d="m 9.7240161,36.855772 q -0.05651,0.0133 -0.1063718,-0.0133 -0.049862,-0.02327 -0.073131,-0.07313 Q 9.44479,36.556601 9.3350941,36.333885 9.2420187,36.144411 9.1289986,35.915046 9.0193027,35.685682 8.9162549,35.469614 v 1.229925 q 0,0.06648 -0.046538,0.11302 -0.046538,0.04654 -0.1130201,0.04654 -0.066482,0 -0.1130201,-0.04654 -0.046538,-0.04654 -0.046538,-0.11302 v -1.92799 q 0,-0.05651 0.033241,-0.09972 0.033241,-0.04321 0.089751,-0.05651 0.05651,-0.0133 0.1030477,0.0133 0.049862,0.02327 0.076455,0.07313 0.099724,0.212744 0.2094196,0.43546 0.093075,0.189475 0.2027713,0.418839 0.109696,0.229365 0.2160678,0.445432 v -1.229924 q 0,-0.06648 0.046538,-0.11302 0.046538,-0.04654 0.1130201,-0.04654 0.066482,0 0.1130201,0.04654 0.046538,0.04654 0.046538,0.11302 v 1.92799 q 0,0.05651 -0.036565,0.09972 -0.033241,0.04321 -0.086427,0.05651 z"
         style="font-size:3.32412px;line-height:1.25;fill:#ffffff;fill-opacity:1;stroke-width:0.282223"
         id="path1072" />
      <path
         d="m 10.178469,34.784845 q 0,-0.06648 0.04654,-0.11302 0.04654,-0.04654 0.11302,-0.04654 h 0.664824 q 0.06648,0 0.11302,0.04654 0.04654,0.04654 0.04654,0.11302 0,0.06648 -0.04654,0.113021 -0.04654,0.04654 -0.11302,0.04654 h -0.505266 v 0.598342 h 0.438784 q 0.06648,0 0.11302,0.04654 0.04654,0.04654 0.04654,0.11302 0,0.06648 -0.04654,0.11302 -0.04654,0.04654 -0.11302,0.04654 h -0.438784 v 0.664824 h 0.505266 q 0.06648,0 0.11302,0.04654 0.04654,0.04654 0.04654,0.11302 0,0.06648 -0.04654,0.11302 -0.04654,0.04654 -0.11302,0.04654 h -0.664824 q -0.06648,0 -0.11302,-0.04654 -0.04654,-0.04654 -0.04654,-0.11302 v -1.901397 z"
         style="font-size:3.32412px;line-height:1.25;fill:#ffffff;fill-opacity:1;stroke-width:0.282223"
         id="path1074" />
    </g>
    <g
       aria-label="TIME"
       id="text47476"
       style="font-style:normal;font-variant:normal;font-weight:bold;font-stretch:condensed;font-size:3.38667px;line-height:0%;font-family:Miso;-inkscape-font-specification:'Miso Bold Condensed';text-align:center;letter-spacing:-0.0142462px;word-spacing:0px;text-anchor:middle;display:inline;fill:#ffffff;fill-opacity:1;stroke:none;stroke-width:0.282223;enable-background:new">
      <path
         d="m 7.1916326,77.685487 q 0.066482,0 0.11302,0.04654 0.046538,0.04654 0.046538,0.11302 0,0.06648 -0.046538,0.11302 -0.046538,0.04654 -0.11302,0.04654 H 6.9190547 v 1.755135 q 0,0.06648 -0.046538,0.11302 -0.046538,0.04654 -0.1130201,0.04654 -0.066482,0 -0.11302,-0.04654 -0.046538,-0.04654 -0.046538,-0.11302 V 78.004603 H 6.3273613 q -0.066482,0 -0.11302,-0.04654 -0.046538,-0.04654 -0.046538,-0.11302 0,-0.06648 0.046538,-0.11302 0.046538,-0.04654 0.11302,-0.04654 z"
         style="font-size:3.32412px;line-height:81%;text-align:center;text-anchor:middle;fill:#ffffff;fill-opacity:1;stroke-width:0.282223"
         id="path1059" />
      <path
         d="m 7.7092428,79.919296 q -0.066482,0 -0.1130201,-0.04654 -0.046538,-0.04654 -0.046538,-0.11302 v -1.927989 q 0,-0.06648 0.046538,-0.11302 0.046538,-0.04654 0.1130201,-0.04654 0.066482,0 0.11302,0.04654 0.046538,0.04654 0.046538,0.11302 v 1.927989 q 0,0.06648 -0.046538,0.11302 -0.046538,0.04654 -0.11302,0.04654 z"
         style="font-size:3.32412px;line-height:81%;text-align:center;text-anchor:middle;fill:#ffffff;fill-opacity:1;stroke-width:0.282223"
         id="path1061" />
      <path
         d="m 8.3598167,79.919296 q -0.066482,0 -0.11302,-0.04654 -0.046538,-0.04654 -0.046538,-0.11302 v -1.927989 q 0,-0.05651 0.033241,-0.09972 0.033241,-0.04321 0.089751,-0.05651 0.05651,-0.0133 0.1063719,0.0133 0.049862,0.02327 0.073131,0.07645 0.066482,0.146262 0.1362889,0.289199 0.05651,0.126316 0.1263166,0.269254 0.069807,0.139613 0.1263165,0.262605 0.05651,-0.122992 0.1229925,-0.262605 0.069807,-0.142938 0.1263165,-0.269254 0.066482,-0.142937 0.136289,-0.289199 0.026593,-0.05319 0.073131,-0.07645 0.049862,-0.02659 0.1063719,-0.0133 0.05651,0.0133 0.089751,0.05651 0.036565,0.04321 0.036565,0.09972 v 1.927989 q 0,0.06648 -0.046538,0.11302 -0.046538,0.04654 -0.11302,0.04654 -0.066482,0 -0.1130201,-0.04654 -0.046538,-0.04654 -0.046538,-0.11302 v -1.213303 q -0.043214,0.08975 -0.083103,0.176178 -0.03989,0.08643 -0.073131,0.152909 -0.036565,0.07978 -0.073131,0.15291 -0.019945,0.04321 -0.059834,0.06981 -0.036565,0.02327 -0.083103,0.02327 -0.1030477,0 -0.1462612,-0.09307 -0.036565,-0.07313 -0.073131,-0.15291 -0.033241,-0.06648 -0.073131,-0.152909 -0.03989,-0.08643 -0.079779,-0.176178 v 1.213303 q 0,0.06648 -0.046538,0.11302 -0.046538,0.04654 -0.1130201,0.04654 z"
         style="font-size:3.32412px;line-height:81%;text-align:center;text-anchor:middle;fill:#ffffff;fill-opacity:1;stroke-width:0.282223"
         id="path1063" />
      <path
         d="m 9.9145503,77.845045 q 0,-0.06648 0.046538,-0.11302 0.046538,-0.04654 0.11302,-0.04654 h 0.664824 q 0.06648,0 0.11302,0.04654 0.04654,0.04654 0.04654,0.11302 0,0.06648 -0.04654,0.11302 -0.04654,0.04654 -0.11302,0.04654 h -0.505266 v 0.598342 h 0.438784 q 0.06648,0 0.11302,0.04654 0.04654,0.04654 0.04654,0.11302 0,0.06648 -0.04654,0.11302 -0.04654,0.04654 -0.11302,0.04654 h -0.438784 v 0.664824 h 0.505266 q 0.06648,0 0.11302,0.04654 0.04654,0.04654 0.04654,0.11302 0,0.06648 -0.04654,0.11302 -0.04654,0.04654 -0.11302,0.04654 h -0.664824 q -0.06648,0 -0.11302,-0.04654 -0.046538,-0.04654 -0.046538,-0.11302 v -1.901397 z"
         style="font-size:3.32412px;line-height:81%;text-align:center;text-anchor:middle;fill:#ffffff;fill-opacity:1;stroke-width:0.282223"
         id="path1065" />
    </g>
    <path
       style="display:inline;fill:none;fill-rule:evenodd;stroke:#ffffff;stroke-width:0.282001;stroke-linecap:butt;stroke-linejoin:miter;stroke-miterlimit:4;stroke-dasharray:none;stroke-opacity:1"
       d="m 8.540601,80.646646 v 7.219913"
       id="path34899"
       inkscape:connector-curvature="0"
       inkscape:export-filename="/home/diego/Escritorio/tirar kick all"
       inkscape:export-xdpi="600"
       inkscape:export-ydpi="600" />
    <path
       style="display:inline;fill:none;fill-rule:evenodd;stroke:#000000;stroke-width:0.282223px;stroke-linecap:butt;stroke-linejoin:miter;stroke-opacity:1"
       d="m 22.480902,104.2535 v 1.49671"
       id="path46530"
       inkscape:connector-curvature="0"
       inkscape:export-filename="/home/diego/Escritorio/tirar kick all"
       inkscape:export-xdpi="600"
       inkscape:export-ydpi="600" />
    <path
       style="display:inline;fill:none;fill-rule:evenodd;stroke:#000000;stroke-width:0.282223px;stroke-linecap:butt;stroke-linejoin:miter;stroke-opacity:1"
       d="M 22.480902,105.00185 Z"
       id="path46534"
       inkscape:connector-curvature="0"
       inkscape:export-filename="/home/diego/Escritorio/tirar kick all"
       inkscape:export-xdpi="600"
       inkscape:export-ydpi="600" />
    <path
       style="display:inline;fill:none;fill-opacity:1;stroke:#ffffff;stroke-width:0.3;stroke-linecap:round;stroke-miterlimit:4;stroke-dasharray:none;stroke-opacity:1"
       d="m 25.538093,111.99572 v -3.96235 c 0.01356,-0.78632 -0.610898,-1.43576 -1.397144,-1.45303 l -0.3218,-0.0103 c -0.786246,-0.0173 -1.448117,-0.66671 -1.434562,-1.45303 v -0.72363"
       id="path14434"
       inkscape:connector-curvature="0"
       sodipodi:nodetypes="cccccc"
       inkscape:export-filename="/home/diego/Escritorio/tirar kick all"
       inkscape:export-xdpi="600"
       inkscape:export-ydpi="600" />
    <g
       aria-label="DECAY"
       id="text47468"
       style="font-style:normal;font-variant:normal;font-weight:bold;font-stretch:condensed;font-size:3.38667px;line-height:0%;font-family:Miso;-inkscape-font-specification:'Miso Bold Condensed';letter-spacing:-0.0142462px;word-spacing:0px;display:inline;fill:#ffffff;fill-opacity:1;stroke:none;stroke-width:0.282223;enable-background:new">
      <path
         d="m 22.971661,118.54236 q 0.116344,0 0.216068,0.0432 0.103047,0.0432 0.179502,0.11967 0.07645,0.0765 0.119669,0.1795 0.04321,0.0997 0.04321,0.21607 v 1.10361 q 0,0.11634 -0.04321,0.21939 -0.04321,0.0997 -0.119669,0.17618 -0.07645,0.0765 -0.179502,0.11967 -0.09972,0.0432 -0.216068,0.0432 h -0.398894 q -0.06648,0 -0.113021,-0.0465 -0.04654,-0.0465 -0.04654,-0.11302 v -1.90139 q 0,-0.0665 0.04654,-0.11302 0.04654,-0.0465 0.113021,-0.0465 z m 0.239337,0.55845 q 0,-0.0997 -0.06981,-0.16953 -0.06981,-0.0698 -0.16953,-0.0698 h -0.239337 v 1.58228 h 0.239337 q 0.09972,0 0.16953,-0.0698 0.06981,-0.0698 0.06981,-0.16953 v -1.10361 z"
         style="font-size:3.32412px;line-height:1.25;fill:#ffffff;fill-opacity:1;stroke-width:0.282223"
         id="path1030" />
      <path
         d="m 23.821684,118.70192 q 0,-0.0665 0.04654,-0.11302 0.04654,-0.0465 0.11302,-0.0465 h 0.664824 q 0.06648,0 0.11302,0.0465 0.04654,0.0465 0.04654,0.11302 0,0.0665 -0.04654,0.11302 -0.04654,0.0465 -0.11302,0.0465 H 24.1408 v 0.59834 h 0.438784 q 0.06648,0 0.11302,0.0465 0.04654,0.0465 0.04654,0.11302 0,0.0665 -0.04654,0.11302 -0.04654,0.0465 -0.11302,0.0465 H 24.1408 v 0.66483 h 0.505266 q 0.06648,0 0.11302,0.0465 0.04654,0.0465 0.04654,0.11302 0,0.0665 -0.04654,0.11302 -0.04654,0.0465 -0.11302,0.0465 h -0.664824 q -0.06648,0 -0.11302,-0.0465 -0.04654,-0.0465 -0.04654,-0.11302 v -1.90139 z"
         style="font-size:3.32412px;line-height:1.25;fill:#ffffff;fill-opacity:1;stroke-width:0.282223"
         id="path1032" />
      <path
         d="m 25.40301,120.75622 q -0.08975,-0.0233 -0.166206,-0.0731 -0.07645,-0.0532 -0.132965,-0.12299 -0.05319,-0.0731 -0.0831,-0.15956 -0.02992,-0.0864 -0.02992,-0.18282 v -1.1302 q 0,-0.0931 0.02992,-0.17951 0.02992,-0.0898 0.0831,-0.15955 0.05651,-0.0731 0.132965,-0.123 0.07645,-0.0532 0.166206,-0.0765 0.18615,-0.0499 0.359005,0.0233 0.172854,0.0698 0.269253,0.23601 0.03657,0.0565 0.01662,0.11967 -0.01662,0.0632 -0.07313,0.0997 -0.05651,0.0332 -0.119668,0.0166 -0.06316,-0.0199 -0.09972,-0.0765 -0.03989,-0.0698 -0.116344,-0.0997 -0.07313,-0.0332 -0.152909,-0.01 -0.07645,0.02 -0.126317,0.0864 -0.04986,0.0632 -0.04986,0.14294 v 1.1302 q 0,0.0831 0.04986,0.14626 0.04986,0.0632 0.126317,0.0864 0.07978,0.0199 0.152909,-0.01 0.07645,-0.0332 0.116344,-0.10305 0.03657,-0.0565 0.09972,-0.0731 0.06316,-0.0199 0.119668,0.0133 0.05651,0.0366 0.07313,0.0997 0.01994,0.0632 -0.01662,0.11967 -0.0964,0.16621 -0.269253,0.23602 -0.172855,0.0731 -0.359005,0.0233 z"
         style="font-size:3.32412px;line-height:1.25;fill:#ffffff;fill-opacity:1;stroke-width:0.282223"
         id="path1034" />
      <path
         d="m 27.526167,120.5734 q 0.01662,0.0665 -0.01662,0.12299 -0.02992,0.0565 -0.09307,0.0731 -0.06648,0.0166 -0.122992,-0.0166 -0.05651,-0.0299 -0.07313,-0.0931 -0.0133,-0.0399 -0.02659,-0.0964 -0.0133,-0.0465 -0.03324,-0.10969 -0.01662,-0.0665 -0.03657,-0.14294 h -0.5651 q -0.02327,0.0765 -0.03989,0.14294 -0.01662,0.0632 -0.02992,0.10969 -0.0133,0.0565 -0.02659,0.0964 -0.01662,0.0632 -0.07313,0.0931 -0.05651,0.0332 -0.122993,0.0166 -0.06316,-0.0166 -0.0964,-0.0731 -0.02992,-0.0565 -0.0133,-0.12299 l 0.53186,-1.92799 q 0.0133,-0.0532 0.05319,-0.0831 0.04321,-0.0332 0.09972,-0.0332 0.05651,0 0.0964,0.0332 0.04321,0.0299 0.05651,0.0831 z m -0.49197,-0.58172 q -0.04654,-0.17286 -0.0964,-0.35568 -0.04986,-0.18283 -0.0964,-0.34571 -0.04654,0.16288 -0.0964,0.34571 -0.04986,0.18282 -0.0964,0.35568 z"
         style="font-size:3.32412px;line-height:1.25;fill:#ffffff;fill-opacity:1;stroke-width:0.282223"
         id="path1036" />
      <path
         d="m 28.047098,120.77617 q -0.06648,0 -0.11302,-0.0465 -0.04654,-0.0465 -0.04654,-0.11302 v -0.96067 l -0.448756,-0.89419 q -0.02992,-0.0598 -0.01,-0.12299 0.02327,-0.0632 0.0831,-0.0931 0.05651,-0.0299 0.119669,-0.007 0.06316,0.0199 0.09308,0.0798 l 0.109696,0.2194 q 0.04654,0.0964 0.103048,0.20942 0.05651,0.11302 0.109696,0.21606 0.04986,-0.10304 0.106372,-0.21606 0.05983,-0.11302 0.106371,-0.20942 l 0.109696,-0.2194 q 0.02992,-0.0598 0.09308,-0.0798 0.06316,-0.0233 0.119668,0.007 0.05983,0.0299 0.07978,0.0931 0.02327,0.0632 -0.0066,0.12299 l -0.448756,0.89419 v 0.96067 q 0,0.0665 -0.04654,0.11302 -0.04654,0.0465 -0.11302,0.0465 z"
         style="font-size:3.32412px;line-height:1.25;fill:#ffffff;fill-opacity:1;stroke-width:0.282223"
         id="path1038" />
    </g>
    <g
       aria-label="TUNE"
       id="text47472"
       style="font-style:normal;font-variant:normal;font-weight:bold;font-stretch:condensed;font-size:3.38667px;line-height:0%;font-family:Miso;-inkscape-font-specification:'Miso Bold Condensed';letter-spacing:-0.0142462px;word-spacing:0px;display:inline;fill:#ffffff;fill-opacity:1;stroke:none;stroke-width:0.282223;enable-background:new">
      <path
         d="m 3.8634566,118.54222 q 0.066482,0 0.1130201,0.0465 0.046538,0.0465 0.046538,0.11302 0,0.0665 -0.046538,0.11302 -0.046538,0.0465 -0.1130201,0.0465 H 3.5908787 v 1.75514 q 0,0.0665 -0.046538,0.11302 -0.046538,0.0465 -0.1130201,0.0465 -0.066482,0 -0.1130201,-0.0465 -0.046538,-0.0465 -0.046538,-0.11302 v -1.75514 H 2.9991854 q -0.066482,0 -0.1130201,-0.0465 -0.046538,-0.0465 -0.046538,-0.11302 0,-0.0665 0.046538,-0.11302 0.046538,-0.0465 0.1130201,-0.0465 z"
         style="font-size:3.32412px;line-height:1.25;fill:#ffffff;fill-opacity:1;stroke-width:0.282223"
         id="path1041" />
      <path
         d="m 4.5140316,120.21757 q 0,0.0997 0.069807,0.16953 0.069806,0.0698 0.1695301,0.0698 0.0964,0 0.166206,-0.0698 0.073131,-0.0698 0.073131,-0.16953 v -1.52909 q 0,-0.0665 0.046538,-0.11302 0.046538,-0.0465 0.11302,-0.0465 0.066482,0 0.1130201,0.0465 0.046538,0.0465 0.046538,0.11302 v 1.52909 q 0,0.11635 -0.046538,0.21939 -0.043214,0.0997 -0.1196683,0.17618 -0.073131,0.0765 -0.1761784,0.11967 -0.1030477,0.0432 -0.2160678,0.0432 -0.1163442,0 -0.2193919,-0.0432 -0.099724,-0.0432 -0.1761783,-0.11967 -0.076455,-0.0765 -0.1196684,-0.17618 -0.043213,-0.10304 -0.043213,-0.21939 v -1.52909 q 0,-0.0665 0.046538,-0.11302 0.046538,-0.0465 0.11302,-0.0465 0.066482,0 0.1130201,0.0465 0.046538,0.0465 0.046538,0.11302 v 1.52909 z"
         style="font-size:3.32412px;line-height:1.25;fill:#ffffff;fill-opacity:1;stroke-width:0.282223"
         id="path1043" />
      <path
         d="m 6.7435657,120.7727 q -0.05651,0.0133 -0.1063718,-0.0133 -0.049862,-0.0233 -0.073131,-0.0731 -0.099724,-0.21274 -0.2094195,-0.43546 -0.093075,-0.18947 -0.2060955,-0.41884 -0.1096959,-0.22936 -0.2127437,-0.44543 v 1.22993 q 0,0.0665 -0.046538,0.11302 -0.046538,0.0465 -0.1130201,0.0465 -0.066482,0 -0.1130201,-0.0465 -0.046538,-0.0465 -0.046538,-0.11302 v -1.92799 q 0,-0.0565 0.033241,-0.0997 0.033241,-0.0432 0.089751,-0.0565 0.05651,-0.0133 0.1030477,0.0133 0.049862,0.0233 0.076455,0.0731 0.099724,0.21274 0.2094196,0.43546 0.093075,0.18947 0.2027713,0.41884 0.109696,0.22936 0.2160678,0.44543 v -1.22992 q 0,-0.0665 0.046538,-0.11302 0.046538,-0.0465 0.1130201,-0.0465 0.066482,0 0.1130201,0.0465 0.046538,0.0465 0.046538,0.11302 v 1.92799 q 0,0.0565 -0.036565,0.0997 -0.033241,0.0432 -0.086427,0.0565 z"
         style="font-size:3.32412px;line-height:1.25;fill:#ffffff;fill-opacity:1;stroke-width:0.282223"
         id="path1045" />
      <path
         d="m 7.1980191,118.70177 q 0,-0.0665 0.046538,-0.11302 0.046538,-0.0465 0.11302,-0.0465 h 0.6648241 q 0.066482,0 0.11302,0.0465 0.046538,0.0465 0.046538,0.11302 0,0.0665 -0.046538,0.11302 -0.046538,0.0465 -0.11302,0.0465 H 7.5171346 v 0.59834 h 0.4387839 q 0.066482,0 0.11302,0.0465 0.046538,0.0465 0.046538,0.11302 0,0.0665 -0.046538,0.11302 -0.046538,0.0465 -0.11302,0.0465 H 7.5171346 v 0.66482 h 0.5052663 q 0.066482,0 0.11302,0.0465 0.046538,0.0465 0.046538,0.11302 0,0.0665 -0.046538,0.11302 -0.046538,0.0465 -0.11302,0.0465 H 7.3575768 q -0.066482,0 -0.11302,-0.0465 -0.046538,-0.0465 -0.046538,-0.11302 v -1.9014 z"
         style="font-size:3.32412px;line-height:1.25;fill:#ffffff;fill-opacity:1;stroke-width:0.282223"
         id="path1047" />
    </g>
    <g
       aria-label="SHAPE"
       id="text47484"
       style="font-style:normal;font-variant:normal;font-weight:bold;font-stretch:condensed;font-size:3.38667px;line-height:0%;font-family:Miso;-inkscape-font-specification:'Miso Bold Condensed';letter-spacing:-0.0142462px;word-spacing:0px;display:inline;fill:#ffffff;fill-opacity:1;stroke:none;stroke-width:0.282223;enable-background:new">
      <path
         d="m 12.91975,120.40374 q 0.04654,-0.0332 0.06981,-0.0798 0.02327,-0.0465 0.02992,-0.10305 0.01,-0.11302 -0.06981,-0.19945 l -0.531859,-0.54515 q -0.08643,-0.0864 -0.126317,-0.19945 -0.03989,-0.11302 -0.02992,-0.23269 0.01,-0.11967 0.06648,-0.22271 0.05651,-0.10638 0.152909,-0.17951 0.0964,-0.0731 0.212744,-0.0997 0.119668,-0.0266 0.236012,-0.003 0.116345,0.0266 0.212744,0.0964 0.09972,0.0665 0.159558,0.17285 0.03324,0.0565 0.0133,0.11967 -0.01662,0.0632 -0.07313,0.0997 -0.05651,0.0332 -0.119669,0.0166 -0.06316,-0.0199 -0.0964,-0.0764 -0.05651,-0.0897 -0.159558,-0.11635 -0.106372,-0.0199 -0.192799,0.0465 -0.08643,0.0632 -0.09307,0.17286 -0.01,0.10637 0.06648,0.18282 l 0.528535,0.54516 q 0.08643,0.0897 0.129641,0.20609 0.04321,0.11635 0.03324,0.23934 -0.01,0.12632 -0.06981,0.23269 -0.05983,0.10637 -0.156234,0.18282 -0.09972,0.0765 -0.219392,0.10305 -0.119668,0.0266 -0.242661,0.003 -0.122992,-0.0266 -0.222716,-0.0964 -0.09972,-0.0731 -0.159557,-0.17951 -0.03657,-0.0565 -0.01994,-0.11966 0.01994,-0.0665 0.07645,-0.0997 0.05651,-0.0332 0.119668,-0.0133 0.06316,0.0166 0.09972,0.0731 0.05651,0.0964 0.16953,0.12299 0.116344,0.0199 0.206095,-0.0499 z"
         style="font-size:3.32412px;line-height:1.25;fill:#ffffff;fill-opacity:1;stroke-width:0.282223"
         id="path1019" />
      <path
         d="m 14.378089,118.68849 q 0,-0.0665 0.04654,-0.11302 0.04654,-0.0465 0.11302,-0.0465 0.06648,0 0.11302,0.0465 0.04654,0.0465 0.04654,0.11302 v 1.92799 q 0,0.0665 -0.04654,0.11302 -0.04654,0.0465 -0.11302,0.0465 -0.06648,0 -0.11302,-0.0465 -0.04654,-0.0465 -0.04654,-0.11302 v -0.83768 h -0.478673 v 0.83768 q 0,0.0665 -0.04654,0.11302 -0.04654,0.0465 -0.11302,0.0465 -0.06648,0 -0.11302,-0.0465 -0.04654,-0.0465 -0.04654,-0.11302 v -1.92799 q 0,-0.0665 0.04654,-0.11302 0.04654,-0.0465 0.11302,-0.0465 0.06648,0 0.11302,0.0465 0.04654,0.0465 0.04654,0.11302 v 0.7712 h 0.478673 v -0.7712 z"
         style="font-size:3.32412px;line-height:1.25;fill:#ffffff;fill-opacity:1;stroke-width:0.282223"
         id="path1021" />
      <path
         d="m 16.258587,120.57327 q 0.01662,0.0665 -0.01662,0.12299 -0.02992,0.0565 -0.09308,0.0731 -0.06648,0.0166 -0.122993,-0.0166 -0.05651,-0.0299 -0.07313,-0.0931 -0.0133,-0.0399 -0.02659,-0.0964 -0.0133,-0.0465 -0.03324,-0.1097 -0.01662,-0.0665 -0.03656,-0.14294 h -0.5651 q -0.02327,0.0765 -0.03989,0.14294 -0.01662,0.0632 -0.02992,0.1097 -0.0133,0.0565 -0.02659,0.0964 -0.01662,0.0632 -0.07313,0.0931 -0.05651,0.0332 -0.122993,0.0166 -0.06316,-0.0166 -0.0964,-0.0731 -0.02992,-0.0565 -0.0133,-0.12299 l 0.531859,-1.92799 q 0.0133,-0.0532 0.05319,-0.0831 0.04321,-0.0332 0.09972,-0.0332 0.05651,0 0.0964,0.0332 0.04321,0.0299 0.05651,0.0831 z m -0.49197,-0.58172 q -0.04654,-0.17286 -0.0964,-0.35568 -0.04986,-0.18283 -0.0964,-0.34571 -0.04654,0.16288 -0.0964,0.34571 -0.04986,0.18282 -0.0964,0.35568 z"
         style="font-size:3.32412px;line-height:1.25;fill:#ffffff;fill-opacity:1;stroke-width:0.282223"
         id="path1023" />
      <path
         d="m 16.450433,118.70179 q 0,-0.0665 0.04654,-0.11302 0.04654,-0.0465 0.11302,-0.0465 h 0.398894 q 0.116344,0 0.216068,0.0432 0.103048,0.0432 0.179503,0.11967 0.07645,0.0765 0.119668,0.1795 0.04321,0.0997 0.04321,0.21607 v 0.18615 q 0,0.11635 -0.04321,0.2194 -0.04321,0.0997 -0.119668,0.17617 -0.07645,0.0765 -0.179503,0.11967 -0.09972,0.0432 -0.216068,0.0432 h -0.239336 v 0.77119 q 0,0.0665 -0.04654,0.11302 -0.04654,0.0465 -0.11302,0.0465 -0.06648,0 -0.11302,-0.0465 -0.04654,-0.0465 -0.04654,-0.11302 v -1.91469 z m 0.797789,0.39889 q 0,-0.0997 -0.06981,-0.16953 -0.06981,-0.0698 -0.16953,-0.0698 h -0.239336 v 0.66482 h 0.239336 q 0.09972,0 0.16953,-0.0698 0.06981,-0.0698 0.06981,-0.16953 v -0.18615 z"
         style="font-size:3.32412px;line-height:1.25;fill:#ffffff;fill-opacity:1;stroke-width:0.282223"
         id="path1025" />
      <path
         d="m 17.765834,118.70179 q 0,-0.0665 0.04654,-0.11302 0.04654,-0.0465 0.11302,-0.0465 h 0.664824 q 0.06648,0 0.113021,0.0465 0.04654,0.0465 0.04654,0.11302 0,0.0665 -0.04654,0.11302 -0.04654,0.0465 -0.113021,0.0465 h -0.505266 v 0.59834 h 0.438784 q 0.06648,0 0.11302,0.0465 0.04654,0.0465 0.04654,0.11302 0,0.0665 -0.04654,0.11302 -0.04654,0.0465 -0.11302,0.0465 h -0.438784 v 0.66483 h 0.505266 q 0.06648,0 0.113021,0.0465 0.04654,0.0465 0.04654,0.11302 0,0.0665 -0.04654,0.11302 -0.04654,0.0465 -0.113021,0.0465 h -0.664824 q -0.06648,0 -0.11302,-0.0465 -0.04654,-0.0465 -0.04654,-0.11302 v -1.90139 z"
         style="font-size:3.32412px;line-height:1.25;fill:#ffffff;fill-opacity:1;stroke-width:0.282223"
         id="path1027" />
    </g>
    <g
       aria-label="BEND"
       id="text34891"
       style="font-style:normal;font-variant:normal;font-weight:bold;font-stretch:condensed;font-size:3.38667px;line-height:0%;font-family:Miso;-inkscape-font-specification:'Miso Bold Condensed';letter-spacing:-0.0142462px;word-spacing:0px;display:inline;fill:#ffffff;fill-opacity:1;stroke:none;stroke-width:0.282223;enable-background:new"
       inkscape:transform-center-x="0.5333985"
       inkscape:transform-center-y="12.800003">
      <path
         d="m 6.9945449,100.02622 q 0,0.11635 -0.046538,0.21939 -0.046538,0.10305 -0.1229924,0.17951 0.076455,0.0764 0.1229924,0.1795 0.046538,0.10305 0.046538,0.21939 v 0.18615 q 0,0.11634 -0.046538,0.21939 -0.043214,0.0997 -0.1196683,0.17618 -0.073131,0.0765 -0.1761784,0.11967 -0.1030477,0.0432 -0.2160678,0.0432 H 6.0371983 q -0.066482,0 -0.1130201,-0.0465 -0.046538,-0.0465 -0.046538,-0.11302 v -1.901392 q 0,-0.06648 0.046538,-0.11302 0.046538,-0.04654 0.1130201,-0.04654 h 0.3988944 q 0.1130201,0 0.2160678,0.04321 0.1030477,0.04321 0.1761784,0.119668 0.076455,0.07645 0.1196683,0.179503 0.046538,0.09972 0.046538,0.216068 v 0.119667 z m -0.3191155,0.79779 q 0,-0.0997 -0.069807,-0.16953 -0.069807,-0.0698 -0.1695301,-0.0698 H 6.1967561 v 0.66483 h 0.2393366 q 0.099724,0 0.1695301,-0.0698 0.069807,-0.0698 0.069807,-0.16953 v -0.18615 z m -0.2393367,-0.55845 q 0.099724,0 0.1695301,-0.0698 0.069807,-0.0698 0.069807,-0.16953 v -0.119667 q 0,-0.09972 -0.069807,-0.169531 -0.069807,-0.06981 -0.1695301,-0.06981 H 6.1967561 v 0.598344 z"
         style="font-size:3.32412px;line-height:1.25;fill:#ffffff;fill-opacity:1;stroke-width:0.282223"
         id="path1050" />
      <path
         d="m 7.2861161,99.507658 q 0,-0.06648 0.046538,-0.11302 0.046538,-0.04654 0.1130201,-0.04654 h 0.664824 q 0.066482,0 0.1130201,0.04654 0.046538,0.04654 0.046538,0.11302 0,0.06648 -0.046538,0.11302 -0.046538,0.04654 -0.1130201,0.04654 H 7.6052316 v 0.598344 h 0.4387838 q 0.066482,0 0.1130201,0.0465 0.046538,0.0465 0.046538,0.11302 0,0.0665 -0.046538,0.11302 -0.046538,0.0465 -0.1130201,0.0465 H 7.6052316 v 0.66483 h 0.5052662 q 0.066482,0 0.1130201,0.0465 0.046538,0.0465 0.046538,0.11302 0,0.0665 -0.046538,0.11302 -0.046538,0.0465 -0.1130201,0.0465 h -0.664824 q -0.066482,0 -0.1130201,-0.0465 -0.046538,-0.0465 -0.046538,-0.11302 v -1.901392 z"
         style="font-size:3.32412px;line-height:1.25;fill:#ffffff;fill-opacity:1;stroke-width:0.282223"
         id="path1052" />
      <path
         d="m 9.6220166,101.57858 q -0.05651,0.0133 -0.1063719,-0.0133 -0.049862,-0.0233 -0.073131,-0.0731 -0.099724,-0.21275 -0.2094196,-0.43546 -0.093075,-0.18948 -0.2060954,-0.41884 -0.109696,-0.22937 -0.2127437,-0.44543 v 1.22992 q 0,0.0665 -0.046538,0.11302 -0.046538,0.0465 -0.11302,0.0465 -0.066482,0 -0.1130201,-0.0465 -0.046538,-0.0465 -0.046538,-0.11302 v -1.927988 q 0,-0.05651 0.033241,-0.09972 0.033241,-0.04321 0.089751,-0.05651 0.05651,-0.0133 0.1030478,0.0133 0.049862,0.02327 0.076455,0.07313 0.099724,0.212744 0.2094196,0.43546 0.093075,0.189475 0.2027713,0.418835 0.109696,0.22937 0.2160678,0.44544 v -1.229928 q 0,-0.06648 0.046538,-0.11302 0.046538,-0.04654 0.1130201,-0.04654 0.066482,0 0.1130201,0.04654 0.046538,0.04654 0.046538,0.11302 v 1.927988 q 0,0.0565 -0.036565,0.0997 -0.033241,0.0432 -0.086427,0.0565 z"
         style="font-size:3.32412px;line-height:1.25;fill:#ffffff;fill-opacity:1;stroke-width:0.282223"
         id="path1054" />
      <path
         d="m 10.634922,99.3481 q 0.116344,0 0.216068,0.04321 0.103047,0.04321 0.179502,0.119668 0.07645,0.07645 0.119668,0.179503 0.04321,0.09972 0.04321,0.216068 v 1.103607 q 0,0.11634 -0.04321,0.21939 -0.04321,0.0997 -0.119668,0.17618 -0.07646,0.0765 -0.179502,0.11967 -0.09972,0.0432 -0.216068,0.0432 h -0.398895 q -0.06648,0 -0.11302,-0.0465 -0.04654,-0.0465 -0.04654,-0.11302 v -1.901392 q 0,-0.06648 0.04654,-0.11302 0.04654,-0.04654 0.11302,-0.04654 z m 0.239337,0.558453 q 0,-0.09972 -0.06981,-0.169531 -0.06981,-0.06981 -0.16953,-0.06981 h -0.239337 v 1.582284 h 0.239337 q 0.09972,0 0.16953,-0.0698 0.06981,-0.0698 0.06981,-0.16953 v -1.103607 z"
         style="font-size:3.32412px;line-height:1.25;fill:#ffffff;fill-opacity:1;stroke-width:0.282223"
         id="path1056" />
    </g>
    <path
       style="display:inline;fill:#ffffff;fill-opacity:1;stroke:url(#linearGradient15156);stroke-width:0.05842;stroke-linecap:round;stroke-miterlimit:4;stroke-dasharray:none;stroke-dashoffset:0;stroke-opacity:1"
       d="m 12.695786,21.820763 c 1.808612,-0.0039 3.617215,-0.01247 5.425832,-0.01247 v -1.787008 z"
       id="path15148"
       inkscape:connector-curvature="0"
       sodipodi:nodetypes="cccc" />
    <text
       xml:space="preserve"
       style="font-style:normal;font-variant:normal;font-weight:bold;font-stretch:condensed;font-size:3.38667px;line-height:0%;font-family:Miso;-inkscape-font-specification:'Miso Bold Condensed';letter-spacing:-0.0142462px;word-spacing:0px;display:inline;fill:#ffffff;fill-opacity:1;stroke:none;stroke-width:0.282223;enable-background:new"
       x="18.465151"
       y="107.12875"
       id="text34911"
       inkscape:export-filename="/home/diego/Escritorio/Miniaturas_modulos_web/Hexa_VCA.png"
       inkscape:export-xdpi="300"
       inkscape:export-ydpi="300"><tspan
         sodipodi:role="line"
         id="tspan34913"
         x="18.465151"
         y="107.12875"
         style="font-size:3.32412px;line-height:1.25;fill:#ffffff;fill-opacity:1;stroke-width:0.282223"></tspan></text>
  </g>
  <g
     inkscape:label="components"
     inkscape:groupmode="layer"
     id="layer1"
     sodipodi:insensitive="true"
     style="display:none">
    <circle
       style="display:inline;fill:#ff0000;fill-opacity:1;stroke:none;stroke-width:0.759486;stroke-linejoin:round"
       id="path2614-1"
       cx="8.4716816"
       cy="28.970201"
       r="3.3208234"
       inkscape:label="tune" />
    <g
       id="g11860"
       clip-path="url(#clipPath11862-0-0)"
       transform="matrix(0.33072917,0,0,-0.33072917,0.5293393,128.38496)"
       style="display:inline">
      <g
         id="g11866"
         transform="matrix(11.4738,0,0,15.1045,60.766635,11.233205)" />
    </g>
    <g
       style="display:inline;stroke:#ffffff;stroke-opacity:1"
       id="g8514"
       transform="matrix(0.33072917,0,0,-0.4394969,-257.46623,106.48985)" />
    <g
       transform="matrix(0.27560115,0,0,-0.27560115,-184.40907,78.953784)"
       id="g8496"
       style="display:inline;stroke:#ffffff;stroke-width:1.20003;stroke-opacity:1">
      <g
         id="g8502"
         transform="matrix(1,0,0,1.3288725,0,-51.057184)"
         style="stroke:#ffffff;stroke-width:1.20003;stroke-opacity:1" />
    </g>
    <path
       style="display:inline;opacity:0.96;fill:none;fill-opacity:1;stroke:#ffffff;stroke-width:0.277909;stroke-linecap:round;stroke-linejoin:miter;stroke-miterlimit:4;stroke-dasharray:none;stroke-dashoffset:0;stroke-opacity:1"
       id="path18731"
       r="35.279495"
       cy="-304.39343"
       cx="84.399498"
       d=""
       inkscape:connector-curvature="0" />
    <rect
       rx="1.1484466"
       ry="1.5800653"
       style="display:inline;fill:#333333;fill-opacity:1;stroke:#000000;stroke-width:0.0889959;stroke-linecap:butt;stroke-linejoin:miter;stroke-miterlimit:4;stroke-dasharray:none;stroke-dashoffset:0;stroke-opacity:1"
       id="rect47642"
       width="2.2968931"
       height="39.463577"
       x="-23.526278"
       y="63.471554"
       inkscape:export-filename="/home/diego/Escritorio/Miniaturas_modulos_web/Slew_limiter.png"
       inkscape:export-xdpi="300"
       inkscape:export-ydpi="300"
       transform="scale(-1,1)" />
    <g
       style="display:inline"
       transform="matrix(-0.26458334,0,0,0.26458334,73.081113,-37.992461)"
       id="g47644"
       inkscape:label="Layer 1"
       inkscape:export-filename="/home/diego/Escritorio/Miniaturas_modulos_web/Slew_limiter.png"
       inkscape:export-xdpi="300"
       inkscape:export-ydpi="300">
      <g
         id="g47646"
         style="display:inline"
         transform="translate(219.29845,-487.66016)">
        <path
           style="fill:#ff0000;stroke:none;stroke-width:1.06667"
           d="m -21.299966,979.85633 c -0.07691,5.91938 -1.382194,10.57539 -6.171689,10.59681 -4.90447,0.022 -6.695612,-4.52925 -6.69522,-10.49864 3.85e-4,-5.86954 1.593615,-10.69498 6.590513,-10.69498 4.716293,0 6.352555,4.73484 6.276396,10.59681 z"
           id="path47648"
           inkscape:connector-curvature="0"
           sodipodi:nodetypes="sssss" />
        <path
           style="fill:#ff8383;fill-opacity:1;stroke:#ff5252;stroke-width:0.333333;stroke-linecap:round;stroke-linejoin:round;stroke-opacity:1"
           d="m -22.27786,976.13184 c 0,1.33242 -0.849961,2.41252 -2.537756,2.41252 -1.687795,0 -2.537756,-1.0107 -2.537756,-2.3431 0,-1.33241 0.849961,-2.48194 2.537756,-2.48194 1.687795,0 2.537756,1.08013 2.537756,2.41252 z"
           id="path47650"
           inkscape:connector-curvature="0"
           sodipodi:nodetypes="sssss" />
      </g>
    </g>
    <g
       id="g47772"
       transform="matrix(-0.26458334,0,0,0.26458334,51.177062,-92.402129)"
       style="display:inline" />
    <g
       transform="matrix(0,-0.33072917,0.33072917,0,-108.12761,94.478142)"
       id="g25549"
       style="display:inline" />
    <circle
       r="0.99999994"
       cy="34.943321"
       cx="15.535396"
       inkscape:export-ydpi="300"
       inkscape:export-xdpi="300"
       inkscape:export-filename="/home/diego/Escritorio/Miniaturas_modulos_web/ADSR.png"
       id="circle47828"
       style="display:inline;fill:#ff00ff;fill-opacity:1;stroke:none;stroke-width:0.352779"
       inkscape:label="env" />
    <g
       id="g47840"
       transform="matrix(0.26458334,0,0,0.26458334,-66.303201,-136.33149)"
       style="display:inline">
      <g
         id="g47842">
        <g
           id="g47844"
           transform="matrix(0.81171594,0,0,0.81171594,2.8756554,-151.64204)"
           style="fill:none;stroke:none">
          <title
             id="title47846">Lienzo 1</title>
          <g
             id="g47848">
            <title
               id="title47850">Capa 1</title>
            <g
               id="g47852"
               transform="matrix(0.88336807,-0.3387424,0.3387424,0.88336807,-347.70926,256.20738)" />
          </g>
        </g>
      </g>
    </g>
    <g
       transform="matrix(0.22501904,0,0,0.22501904,59.093987,-189.22289)"
       id="g47878"
       style="display:inline" />
    <g
       style="display:inline;fill:none;stroke:#ffffff;stroke-width:1.03586;stroke-opacity:1"
       id="g34352"
       transform="matrix(0.19143102,0,0,0.19143667,-115.93452,-104.60644)">
      <title
         id="title34354">Capa 1</title>
    </g>
    <rect
       style="display:inline;fill:#ff0000;fill-opacity:1;stroke:none;stroke-width:0.130819;stroke-linejoin:round"
       id="rect7997-8"
       width="0.66339201"
       height="2.6763091"
       x="19.667498"
       y="61.897118"
       inkscape:label="decay" />
    <circle
       style="display:inline;fill:#00ff00;fill-opacity:1;stroke:none;stroke-width:0.759486;stroke-linejoin:round"
       id="path2614-2"
       cx="15.501266"
       cy="14.508389"
       r="3.3208234"
       inkscape:label="volume" />
    <circle
       style="display:inline;fill:#0000ff;fill-opacity:1;stroke:none;stroke-width:0.759486;stroke-linejoin:round"
       id="path2614-3"
       cx="25.525389"
       cy="14.519523"
       r="3.3208234"
       inkscape:label="out" />
    <circle
       style="display:inline;fill:#ff0000;fill-opacity:1;stroke:none;stroke-width:0.759486;stroke-linejoin:round"
       id="path2614-14"
       cx="22.409164"
       cy="29.158617"
       r="3.3208234"
       inkscape:label="trigg_button" />
    <circle
       style="display:inline;fill:#ff0000;fill-opacity:1;stroke:none;stroke-width:0.759486;stroke-linejoin:round"
       id="path2614-6"
       cx="15.526131"
       cy="49.292126"
       r="3.3208234"
       inkscape:label="shape" />
    <circle
       style="display:inline;fill:#ff0000;fill-opacity:1;stroke:none;stroke-width:0.759486;stroke-linejoin:round"
       id="path2614-8"
       cx="8.5211983"
       cy="71.802925"
       r="3.3208234"
       inkscape:label="time" />
    <circle
       style="display:inline;fill:#ff0000;fill-opacity:1;stroke:none;stroke-width:0.759486;stroke-linejoin:round"
       id="path2614-4"
       cx="8.5211983"
       cy="93.516922"
       r="3.3208234"
       inkscape:label="bend" />
    <circle
       style="display:inline;fill:#00ff00;fill-opacity:1;stroke:none;stroke-width:0.759486;stroke-linejoin:round"
       id="path2614-5"
       cx="5.4994144"
       cy="113.2076"
       r="3.3208234"
       inkscape:label="tune" />
    <circle
       style="display:inline;fill:#00ff00;fill-opacity:1;stroke:none;stroke-width:0.759486;stroke-linejoin:round"
       id="path2614-85"
       cx="15.484678"
       cy="113.2076"
       r="3.3208234"
       inkscape:label="shape" />
    <circle
       style="display:inline;fill:#00ff00;fill-opacity:1;stroke:none;stroke-width:0.759486;stroke-linejoin:round"
       id="path2614-23"
       cx="25.525389"
       cy="113.19146"
       r="3.3208234"
       inkscape:label="decay" />
    <circle
       style="display:inline;fill:#00ff00;fill-opacity:1;stroke:none;stroke-width:0.759486;stroke-linejoin:round"
       id="path2614"
       cx="5.4994144"
       cy="14.535661"
       inkscape:label="trigg"
       r="3.3208234" />
  </g>
</svg>
