<?xml version="1.0" encoding="utf-8"?>
<!-- Generator: Adobe Illustrator 25.2.3, SVG Export Plug-In . SVG Version: 6.00 Build 0)  -->
<svg version="1.0"
	 id="svg15246" xmlns:cc="http://creativecommons.org/ns#" xmlns:dc="http://purl.org/dc/elements/1.1/" xmlns:inkscape="http://www.inkscape.org/namespaces/inkscape" xmlns:rdf="http://www.w3.org/1999/02/22-rdf-syntax-ns#" xmlns:sodipodi="http://sodipodi.sourceforge.net/DTD/sodipodi-0.dtd" xmlns:svg="http://www.w3.org/2000/svg"
	 xmlns="http://www.w3.org/2000/svg" xmlns:xlink="http://www.w3.org/1999/xlink" x="0px" y="0px" width="23.68522px"
	 height="23.68525px" viewBox="0 0 23.68522 23.68525" enable-background="new 0 0 23.68522 23.68525" xml:space="preserve">
<sodipodi:namedview  bordercolor="#666666" borderopacity="1.0" fit-margin-bottom="0" fit-margin-left="0" fit-margin-right="0" fit-margin-top="0" id="base" inkscape:current-layer="layer1" inkscape:cx="8.7220802" inkscape:cy="-10.120793" inkscape:document-rotation="0" inkscape:document-units="mm" inkscape:pageopacity="0.0" inkscape:pageshadow="2" inkscape:window-height="1361" inkscape:window-maximized="1" inkscape:window-width="2560" inkscape:window-x="2551" inkscape:window-y="-9" inkscape:zoom="11.2" pagecolor="#ffffff" showgrid="false" units="px">
	</sodipodi:namedview>
<g>
	
		<linearGradient id="SVGID_1_" gradientUnits="userSpaceOnUse" x1="-478.62964" y1="-1638.17969" x2="-455.2547" y2="-1638.17969" gradientTransform="matrix(0 1 -1 0 -1626.33704 478.78479)">
		<stop  offset="0" style="stop-color:#595959"/>
		<stop  offset="1" style="stop-color:#000000"/>
	</linearGradient>
	<path fill="url(#SVGID_1_)" d="M11.84286,23.53009c-6.44467,0-11.68796-5.24279-11.68796-11.68697
		c0-6.44518,5.24329-11.68796,11.68796-11.68796s11.68747,5.24279,11.68747,11.68797
		C23.53033,18.2873,18.28754,23.53009,11.84286,23.53009z"/>
</g>
<circle fill="#212121" cx="11.84261" cy="11.85433" r="11.0402"/>
<linearGradient id="SVGID_2_" gradientUnits="userSpaceOnUse" x1="11.84261" y1="23.0757" x2="11.84261" y2="0.9953" gradientTransform="matrix(1 0 0 -1 0 23.88983)">
	<stop  offset="0.01117" style="stop-color:#5E5E5E"/>
	<stop  offset="1" style="stop-color:#171717"/>
</linearGradient>
<circle opacity="0.22" fill="url(#SVGID_2_)" enable-background="new    " cx="11.84261" cy="11.85433" r="11.0402"/>
<linearGradient id="SVGID_3_" gradientUnits="userSpaceOnUse" x1="58.84886" y1="895.67395" x2="58.84886" y2="892.90118" gradientTransform="matrix(1 0 0 1 -47.00625 -882.44495)">
	<stop  offset="0.01117" style="stop-color:#5E5E5E"/>
	<stop  offset="1" style="stop-color:#171717"/>
</linearGradient>
<path fill="url(#SVGID_3_)" d="M0.91239,10.45626l-0.42968,0.41685c-0.43993,0.57897-0.43678,1.38106,0.00767,1.95656
	l0.39828,0.36948l21.89204,0.02984l0.40244-0.38429c0.45989-0.57286,0.46323-1.38741,0.00805-1.96402l-0.41049-0.40101
	L0.91239,10.45626z"/>
<linearGradient id="SVGID_4_" gradientUnits="userSpaceOnUse" x1="-1934.32141" y1="1099.39404" x2="-1916.84448" y2="1099.39404" gradientTransform="matrix(0 -1 1 0 -1087.55127 -1913.74036)">
	<stop  offset="0" style="stop-color:#595959"/>
	<stop  offset="1" style="stop-color:#000000"/>
</linearGradient>
<circle fill="url(#SVGID_4_)" cx="11.84276" cy="11.84259" r="8.73843"/>
<g>
	<circle fill="#1F1F1F" cx="11.84276" cy="11.84259" r="8.16656"/>
	<path opacity="0.22" enable-background="new    " d="M11.84276,4.21146c4.21318,0,7.62864,3.78218,7.62864,8.44773
		s-3.41546,9.28764-7.62864,9.28764s-7.62864-4.62209-7.62864-9.28764S7.62958,4.21146,11.84276,4.21146z"/>
	
		<linearGradient id="SVGID_5_" gradientUnits="userSpaceOnUse" x1="-2454.8562" y1="819.55017" x2="-2454.8562" y2="834.81256" gradientTransform="matrix(-1 0 0 1 -2443.01343 -815.33868)">
		<stop  offset="0" style="stop-color:#FFFEFE"/>
		<stop  offset="1" style="stop-color:#545454"/>
	</linearGradient>
	<circle fill="url(#SVGID_5_)" cx="11.84276" cy="11.84266" r="7.6312"/>
	<circle fill="#E0E0E0" cx="11.84276" cy="11.84266" r="6.79996"/>
	<g opacity="0.43">
		<path fill="#404040" d="M11.84277,4.66046c4.17474,0,7.56128,3.25714,7.62286,7.29614
			c0.00055-0.03833,0.00574-0.0755,0.00574-0.11395c0-4.2146-3.41541-7.63116-7.6286-7.63116s-7.62866,3.41656-7.62866,7.63116
			c0,0.03845,0.00519,0.07562,0.00574,0.11395C4.28143,7.9176,7.66803,4.66046,11.84277,4.66046z"/>
		<path opacity="0.28" fill="#404040" enable-background="new    " d="M4.21984,11.9566
			c-0.00055,0.03723-0.00574,0.07324-0.00574,0.1106c0,4.09058,3.41547,7.40668,7.62866,7.40668
			C7.66803,19.47388,4.28143,16.1181,4.21984,11.9566z"/>
		<path opacity="0.28" fill="#404040" enable-background="new    " d="M11.84277,19.47388c4.2132,0,7.6286-3.3161,7.6286-7.40668
			c0-0.03735-0.00519-0.07336-0.00574-0.1106C19.40405,16.1181,16.01751,19.47388,11.84277,19.47388z"/>
	</g>
	
		<linearGradient id="SVGID_6_" gradientUnits="userSpaceOnUse" x1="-2454.8562" y1="832.6955" x2="-2454.8562" y2="821.66724" gradientTransform="matrix(-1 0 0 1 -2443.01343 -815.33868)">
		<stop  offset="0" style="stop-color:#FFFEFE"/>
		<stop  offset="1" style="stop-color:#706C6C"/>
	</linearGradient>
	<circle fill="url(#SVGID_6_)" cx="11.84276" cy="11.84266" r="5.51413"/>
	<circle cx="11.84276" cy="11.84259" r="4.86733"/>
</g>
</svg>
