<?xml version="1.0" encoding="utf-8"?>
<!-- Generator: Adobe Illustrator 25.2.3, SVG Export Plug-In . SVG Version: 6.00 Build 0)  -->
<svg version="1.0"
	 id="svg113936" xmlns:cc="http://creativecommons.org/ns#" xmlns:dc="http://purl.org/dc/elements/1.1/" xmlns:inkscape="http://www.inkscape.org/namespaces/inkscape" xmlns:rdf="http://www.w3.org/1999/02/22-rdf-syntax-ns#" xmlns:sodipodi="http://sodipodi.sourceforge.net/DTD/sodipodi-0.dtd" xmlns:svg="http://www.w3.org/2000/svg"
	 xmlns="http://www.w3.org/2000/svg" xmlns:xlink="http://www.w3.org/1999/xlink" x="0px" y="0px" width="25.51182px"
	 height="25.51204px" viewBox="0 0 25.51182 25.51204" enable-background="new 0 0 25.51182 25.51204" xml:space="preserve">
<sodipodi:namedview  bordercolor="#666666" borderopacity="1.0" fit-margin-bottom="0" fit-margin-left="0" fit-margin-right="0" fit-margin-top="0" id="base" inkscape:current-layer="layer1" inkscape:cx="-34.401622" inkscape:cy="38.846852" inkscape:document-rotation="0" inkscape:document-units="mm" inkscape:pageopacity="0.0" inkscape:pageshadow="2" inkscape:window-height="1393" inkscape:window-maximized="0" inkscape:window-width="2560" inkscape:window-x="2473" inkscape:window-y="40" inkscape:zoom="7.919596" pagecolor="#ffffff" showgrid="false">
	</sodipodi:namedview>
<g>
	
		<linearGradient id="SVGID_1_" gradientUnits="userSpaceOnUse" x1="-602.38562" y1="1786.60327" x2="-576.87433" y2="1786.60327" gradientTransform="matrix(0 1 1 0 -1773.84119 602.39905)">
		<stop  offset="0" style="stop-color:#828181"/>
		<stop  offset="1" style="stop-color:#575757"/>
	</linearGradient>
	<path fill="url(#SVGID_1_)" d="M12.76238,25.52469c-7.03367,0-12.75617-5.72195-12.75617-12.75508
		c0-7.03422,5.7225-12.75617,12.75617-12.75617s12.75563,5.72195,12.75563,12.75618
		C25.51802,19.80274,19.79607,25.52469,12.76238,25.52469z"/>
</g>
<linearGradient id="SVGID_2_" gradientUnits="userSpaceOnUse" x1="1061.6449" y1="-4090.60205" x2="1086.38281" y2="-4090.60205" gradientTransform="matrix(0 1 -1 0 -4077.83984 -1061.23169)">
	<stop  offset="0.00559" style="stop-color:#FFFFFF"/>
	<stop  offset="1" style="stop-color:#7A7A7A"/>
</linearGradient>
<circle fill="url(#SVGID_2_)" cx="12.76211" cy="12.78211" r="12.36893"/>
<circle fill="#E0E0E0" cx="12.76211" cy="12.78211" r="11.63479"/>
<linearGradient id="SVGID_3_" gradientUnits="userSpaceOnUse" x1="59.77456" y1="-53.64016" x2="59.77456" y2="-50.55113" gradientTransform="matrix(1 0 0 -1 -47.00625 -39.32658)">
	<stop  offset="0" style="stop-color:#FFFBFD"/>
	<stop  offset="1" style="stop-color:#808080"/>
</linearGradient>
<path fill="url(#SVGID_3_)" d="M1.25524,11.22455l-0.47869,0.46441c-0.49011,0.64501-0.48661,1.53861,0.00855,2.17976
	l0.44371,0.41163l23.06135,0.03324l0.44834-0.42812c0.51235-0.63821,0.51607-1.54568,0.00897-2.18806l-0.45732-0.44676
	L1.25524,11.22455z"/>
<path opacity="0.3" d="M12.76228,4.26738c5.88124,0,10.64893,4.45357,10.64893,9.94733s-4.76769,10.93634-10.64893,10.93634
	S2.11335,19.70846,2.11335,14.2147S6.88104,4.26738,12.76228,4.26738z"/>
<linearGradient id="path109732_1_" gradientUnits="userSpaceOnUse" x1="1347.18567" y1="-3657.9375" x2="1368.48328" y2="-3657.9375" gradientTransform="matrix(0 1 -1 0 -3645.17529 -1345.05237)">
	<stop  offset="0" style="stop-color:#FFFBFD"/>
	<stop  offset="1" style="stop-color:#2E2E2E"/>
</linearGradient>
<path id="path109732_6_" inkscape:connector-curvature="0" fill="url(#path109732_1_)" d="M10.38671,23.16032
	c-5.73177-1.31189-9.31452-7.02186-8.00263-12.75361C3.69599,4.67492,9.4059,1.09212,15.13767,2.4041
	c5.72866,1.31189,9.31452,7.02178,8.00263,12.75359C21.82839,20.8863,16.11848,24.47217,10.38671,23.16032"/>
<path id="path109732_5_" inkscape:connector-curvature="0" opacity="0.4" d="M10.38671,23.16032
	c-5.73177-1.31189-9.31452-7.02186-8.00263-12.75361C3.69599,4.67492,9.4059,1.09212,15.13767,2.4041
	c5.72866,1.31189,9.31452,7.02178,8.00263,12.75359C21.82839,20.8863,16.11848,24.47217,10.38671,23.16032"/>
<path id="path109732_4_" inkscape:connector-curvature="0" opacity="0.72" fill="#0D0D0D" d="M10.51771,22.58799
	c-5.41568-1.23955-8.80085-6.63463-7.56131-12.05028c1.23957-5.4157,6.63458-8.80091,12.05026-7.56129
	c5.41274,1.23955,8.80085,6.63454,7.56131,12.05026C21.32841,20.43938,15.93339,23.82749,10.51771,22.58799"/>
<linearGradient id="SVGID_4_" gradientUnits="userSpaceOnUse" x1="107.21342" y1="216.74957" x2="107.21342" y2="233.91093" gradientTransform="matrix(-1 0 0 0.50871 119.93398 -106.68469)">
	<stop  offset="0" style="stop-color:#FDFDFF"/>
	<stop  offset="1" style="stop-color:#FCFEFF;stop-opacity:0"/>
</linearGradient>
<ellipse opacity="0.07" fill="url(#SVGID_4_)" cx="12.72056" cy="7.94382" rx="7.1674" ry="4.36511"/>
</svg>
