<?xml version="1.0" encoding="UTF-8" standalone="no"?>
<!-- Generator: Adobe Illustrator 25.2.3, SVG Export Plug-In . SVG Version: 6.00 Build 0)  -->

<svg
   version="1.0"
   id="svg64581"
   x="0px"
   y="0px"
   width="26.456694"
   height="26.456694"
   viewBox="0 0 26.456694 26.456694"
   enable-background="new 0 0 36.02325 36.0188"
   xml:space="preserve"
   sodipodi:docname="VCVBezel.svg"
   inkscape:version="1.3.2 (091e20e, 2023-11-25)"
   xmlns:inkscape="http://www.inkscape.org/namespaces/inkscape"
   xmlns:sodipodi="http://sodipodi.sourceforge.net/DTD/sodipodi-0.dtd"
   xmlns="http://www.w3.org/2000/svg"
   xmlns:svg="http://www.w3.org/2000/svg"><defs
   id="defs7" />
<sodipodi:namedview
   bordercolor="#666666"
   borderopacity="1.0"
   fit-margin-bottom="0"
   fit-margin-left="0"
   fit-margin-right="0"
   fit-margin-top="0"
   id="base"
   inkscape:current-layer="svg64581"
   inkscape:cx="-100.76272"
   inkscape:cy="10.101525"
   inkscape:document-units="mm"
   inkscape:pageopacity="0.0"
   inkscape:pageshadow="2"
   inkscape:window-height="1301"
   inkscape:window-maximized="0"
   inkscape:window-width="2560"
   inkscape:window-x="0"
   inkscape:window-y="25"
   inkscape:zoom="1.979899"
   pagecolor="#ffffff"
   showgrid="false"
   inkscape:showpageshadow="2"
   inkscape:pagecheckerboard="0"
   inkscape:deskcolor="#d1d1d1">
	</sodipodi:namedview>
<g
   id="g7"
   transform="matrix(0.73438775,0,0,0.73438592,2.7906735e-4,7.3438592e-5)">
	<g
   id="g5959-5_106_"
   transform="translate(301.93513,1189.951)">
		<path
   id="path5961-3_112_"
   inkscape:connector-curvature="0"
   d="m -265.91,-1171.937 c 0,9.9474 -8.06683,18.0115 -18.01407,18.0115 -9.94595,0 -18.01144,-8.0641 -18.01144,-18.0115 0,-9.9513 8.06549,-18.0141 18.01141,-18.0141 9.94726,10e-5 18.0141,8.0628 18.0141,18.0141" />
	</g>
	<g
   id="g5959-5_105_"
   transform="translate(301.93513,1189.951)">
		
			<linearGradient
   id="path5961-3_1_"
   gradientUnits="userSpaceOnUse"
   x1="-590.1001"
   y1="-2191.8545"
   x2="-557.04907"
   y2="-2191.8545"
   gradientTransform="rotate(90,-938.70655,-1537.0705)">
			<stop
   offset="0"
   style="stop-color:#787878"
   id="stop1" />
			<stop
   offset="1"
   style="stop-color:#474747"
   id="stop2" />
		</linearGradient>
		<path
   id="path5961-3_111_"
   inkscape:connector-curvature="0"
   fill="url(#path5961-3_1_)"
   d="m -300.44827,-1171.9395 c 0,-9.1261 7.40079,-16.5244 16.52676,-16.5244 9.12473,0 16.52429,7.3984 16.52429,16.5244 0,9.1297 -7.39957,16.5268 -16.52432,16.5268 -9.12595,0 -16.52673,-7.3971 -16.52673,-16.5268"
   style="fill:url(#path5961-3_1_)" />
	</g>
	<g
   opacity="0.21"
   id="g4">
		<g
   id="g5959-5_104_"
   transform="translate(301.93513,1189.951)">
			
				<linearGradient
   id="path5961-3_2_"
   gradientUnits="userSpaceOnUse"
   x1="-299.58844"
   y1="-1111.948"
   x2="-268.70374"
   y2="-1111.948"
   gradientTransform="rotate(-90,-314.02952,-1142.0548)">
				<stop
   offset="0.00559"
   style="stop-color:#6B6B6B"
   id="stop3" />
				<stop
   offset="1"
   style="stop-color:#DEDEDE"
   id="stop4" />
			</linearGradient>
			<path
   id="path5961-3_110_"
   inkscape:connector-curvature="0"
   fill="url(#path5961-3_2_)"
   d="m -283.92389,-1156.496 c -8.52792,0 -15.44122,-6.9156 -15.44122,-15.4434 0,-8.5267 6.9133,-15.4412 15.44122,-15.4412 8.53131,0 15.44348,6.9145 15.44348,15.4412 0,8.5278 -6.91214,15.4434 -15.44348,15.4434"
   style="fill:url(#path5961-3_2_)" />
		</g>
	</g>
	<g
   id="g6">
		<g
   id="g5959-5_103_"
   transform="translate(301.93513,1189.951)">
			
				<linearGradient
   id="path5961-3_3_"
   gradientUnits="userSpaceOnUse"
   x1="-298.98605"
   y1="-1111.948"
   x2="-269.30612"
   y2="-1111.948"
   gradientTransform="rotate(-90,-314.02952,-1142.0548)">
				<stop
   offset="0.00559"
   style="stop-color:#5B5B5B"
   id="stop5" />
				<stop
   offset="1"
   style="stop-color:#6C6C6C"
   id="stop6" />
			</linearGradient>
			<path
   id="path5961-3_109_"
   inkscape:connector-curvature="0"
   fill="url(#path5961-3_3_)"
   d="m -283.92386,-1157.0984 c -8.19525,0 -14.83887,-6.6459 -14.83887,-14.8409 0,-8.1941 6.64362,-14.839 14.83887,-14.839 8.19852,0 14.84106,6.6449 14.84106,14.8388 1e-5,8.1952 -6.64251,14.8411 -14.84106,14.8411"
   style="fill:url(#path5961-3_3_)" />
		</g>
	</g>
</g>
</svg>
