<?xml version="1.0" encoding="utf-8"?>
<!-- Generator: Adobe Illustrator 25.2.3, SVG Export Plug-In . SVG Version: 6.00 Build 0)  -->
<svg version="1.0"
	 id="svg10799" xmlns:cc="http://creativecommons.org/ns#" xmlns:dc="http://purl.org/dc/elements/1.1/" xmlns:inkscape="http://www.inkscape.org/namespaces/inkscape" xmlns:rdf="http://www.w3.org/1999/02/22-rdf-syntax-ns#" xmlns:sodipodi="http://sodipodi.sourceforge.net/DTD/sodipodi-0.dtd" xmlns:svg="http://www.w3.org/2000/svg"
	 xmlns="http://www.w3.org/2000/svg" xmlns:xlink="http://www.w3.org/1999/xlink" x="0px" y="0px" width="31.5642px" height="28px"
	 viewBox="0 0 31.5642 28" enable-background="new 0 0 31.5642 28" xml:space="preserve">
<sodipodi:namedview  bordercolor="#666666" borderopacity="1.0" fit-margin-bottom="0" fit-margin-left="0" fit-margin-right="0" fit-margin-top="0" id="base" inkscape:current-layer="g3201" inkscape:cx="17.077398" inkscape:cy="24.7434" inkscape:document-rotation="0" inkscape:document-units="mm" inkscape:pageopacity="0.0" inkscape:pageshadow="2" inkscape:window-height="1208" inkscape:window-maximized="0" inkscape:window-width="1431" inkscape:window-x="1343" inkscape:window-y="142" inkscape:zoom="7.919596" pagecolor="#ffffff" showgrid="false" units="px">
	</sodipodi:namedview>
<g>
	<g>
		
			<linearGradient id="SVGID_1_" gradientUnits="userSpaceOnUse" x1="-598.47284" y1="1787.60962" x2="-574.27472" y2="1787.60962" gradientTransform="matrix(0 1 1 0 -1771.84119 600.39905)">
			<stop  offset="0" style="stop-color:#595959"/>
			<stop  offset="1" style="stop-color:#000000"/>
		</linearGradient>
		<path fill="url(#SVGID_1_)" d="M15.76875,26.12431c-6.67163,0-12.09957-5.42742-12.09957-12.09853
			c0-6.67215,5.42794-12.09957,12.09957-12.09957S27.8678,7.35363,27.8678,14.02578
			C27.8678,20.69689,22.44038,26.12431,15.76875,26.12431z"/>
	</g>
	<circle fill="#212121" cx="15.76849" cy="14.03738" r="11.42899"/>
	<linearGradient id="SVGID_2_" gradientUnits="userSpaceOnUse" x1="15.76849" y1="2.60839" x2="15.76849" y2="25.46637">
		<stop  offset="0.01117" style="stop-color:#5E5E5E"/>
		<stop  offset="1" style="stop-color:#171717"/>
	</linearGradient>
	<circle opacity="0.22" fill="url(#SVGID_2_)" cx="15.76849" cy="14.03738" r="11.42899"/>
	
		<linearGradient id="SVGID_3_" gradientUnits="userSpaceOnUse" x1="62.77474" y1="-52.78703" x2="62.77474" y2="-49.91665" gradientTransform="matrix(1 0 0 -1 -47.00625 -37.32658)">
		<stop  offset="0.01117" style="stop-color:#5E5E5E"/>
		<stop  offset="1" style="stop-color:#171717"/>
	</linearGradient>
	<path fill="url(#SVGID_3_)" d="M4.45336,12.59007L4.00855,13.0216c-0.45542,0.59936-0.45217,1.4297,0.00794,2.02547l0.4123,0.38249
		l22.66298,0.03089l0.41661-0.39782c0.47608-0.59303,0.47954-1.43627,0.00833-2.03318l-0.42495-0.41514L4.45336,12.59007z"/>
	
		<linearGradient id="SVGID_4_" gradientUnits="userSpaceOnUse" x1="-1237.19751" y1="-379.81583" x2="-1219.10522" y2="-379.81583" gradientTransform="matrix(0 -1 -1 0 -364.04718 -1214.1261)">
		<stop  offset="0" style="stop-color:#595959"/>
		<stop  offset="1" style="stop-color:#000000"/>
	</linearGradient>
	<circle fill="url(#SVGID_4_)" cx="15.76864" cy="14.02522" r="9.04616"/>
	<g>
		<circle fill="#1F1F1F" cx="15.76865" cy="14.02522" r="8.45416"/>
		<path opacity="0.22" d="M15.76865,6.12535c4.36155,0,7.89729,3.91537,7.89729,8.74522s-3.53574,9.61471-7.89729,9.61471
			s-7.89729-4.78486-7.89729-9.61471S11.40709,6.12535,15.76865,6.12535z"/>
		
			<linearGradient id="SVGID_5_" gradientUnits="userSpaceOnUse" x1="-1880.7821" y1="23.65431" x2="-1880.7821" y2="7.85443" gradientTransform="matrix(-1 0 0 -1 -1865.01343 29.77966)">
			<stop  offset="0" style="stop-color:#FFFEFE"/>
			<stop  offset="1" style="stop-color:#545454"/>
		</linearGradient>
		<circle fill="url(#SVGID_5_)" cx="15.76865" cy="14.02529" r="7.89994"/>
		<circle fill="#E0E0E0" cx="15.76865" cy="14.02529" r="7.03943"/>
		<g opacity="0.43">
			<path fill="#404040" d="M15.76865,6.59017c4.32176,0,7.82756,3.37184,7.89131,7.55308
				c0.00057-0.03968,0.00594-0.07816,0.00594-0.11797c0-4.36302-3.53568-7.8999-7.89725-7.8999s-7.89731,3.53688-7.89731,7.8999
				c0,0.03981,0.00537,0.07829,0.00594,0.11797C7.94103,9.96201,11.44689,6.59017,15.76865,6.59017z"/>
			<path opacity="0.28" fill="#404040" d="M7.87728,14.14325c-0.00057,0.03854-0.00594,0.07582-0.00594,0.11449
				c0,4.23463,3.53575,7.66751,7.89731,7.66751C11.44689,21.92525,7.94103,18.4513,7.87728,14.14325z"/>
			<path opacity="0.28" fill="#404040" d="M15.76865,21.92525c4.36157,0,7.89725-3.43288,7.89725-7.66751
				c0-0.03867-0.00537-0.07595-0.00594-0.11449C23.59621,18.4513,20.09041,21.92525,15.76865,21.92525z"/>
		</g>
		
			<linearGradient id="SVGID_6_" gradientUnits="userSpaceOnUse" x1="-1880.7821" y1="10.04605" x2="-1880.7821" y2="21.46269" gradientTransform="matrix(-1 0 0 -1 -1865.01343 29.77966)">
			<stop  offset="0" style="stop-color:#FFFEFE"/>
			<stop  offset="1" style="stop-color:#706C6C"/>
		</linearGradient>
		<circle fill="url(#SVGID_6_)" cx="15.76865" cy="14.02529" r="5.70832"/>
		<circle cx="15.76865" cy="14.02522" r="5.03874"/>
	</g>
</g>
<path opacity="0.28" d="M15.76258,25.04786c-3.62677,0-6.56685-3.30703-6.56685-7.38647s2.94008-8.12086,6.56685-8.12086
	s6.56685,4.04143,6.56685,8.12086S19.38935,25.04786,15.76258,25.04786z"/>
<g id="g5959-5_00000170995713031882418020000004908213592592228759_" transform="translate(301.93513,1189.951)">
	
		<linearGradient id="path5961-3_1_" gradientUnits="userSpaceOnUse" x1="852.9314" y1="-5060.40576" x2="865.47662" y2="-5060.40576" gradientTransform="matrix(0 1 -1 0 -5346.57812 -2035.00537)">
		<stop  offset="0" style="stop-color:#C40D0D"/>
		<stop  offset="1" style="stop-color:#730000"/>
	</linearGradient>
	
		<path id="path5961-3_00000098184121052982549500000015386937442825303688_" inkscape:connector-curvature="0" fill="url(#path5961-3_1_)" d="
		M-286.17206-1182.07397c3.46399,0,6.27213,2.80908,6.27213,6.27307c0,3.46338-2.80814,6.27209-6.27216,6.27209
		c-3.46536,0-6.27307-2.80872-6.27307-6.27209C-292.44516-1179.26489-289.63745-1182.07397-286.17206-1182.07397"/>
</g>
<g id="g5959-5_00000110467777809225810530000016302487659863728029_" transform="translate(301.93513,1189.951)">
	
		<linearGradient id="path5961-3_2_" gradientUnits="userSpaceOnUse" x1="853.59491" y1="-5060.40576" x2="864.81305" y2="-5060.40576" gradientTransform="matrix(0 1 -1 0 -5346.57812 -2035.00537)">
		<stop  offset="0" style="stop-color:#ED0000"/>
		<stop  offset="1" style="stop-color:#A10000"/>
	</linearGradient>
	
		<path id="path5961-3_00000031187681983590957270000013594382986680798105_" inkscape:connector-curvature="0" fill="url(#path5961-3_2_)" d="
		M-286.17212-1181.41052c3.09756,0,5.60867,2.51196,5.60867,5.6095c0,3.09717-2.51111,5.60864-5.60867,5.60864
		c-3.09882,0-5.6095-2.51147-5.6095-5.60864C-291.78162-1178.89856-289.27094-1181.41052-286.17212-1181.41052"/>
</g>
<linearGradient id="SVGID_7_" gradientUnits="userSpaceOnUse" x1="110.17155" y1="225.87537" x2="110.17155" y2="232.56082" gradientTransform="matrix(-1 0 0 0.50871 125.93398 -106.19341)">
	<stop  offset="0" style="stop-color:#FDFDFF"/>
	<stop  offset="1" style="stop-color:#FCFEFF;stop-opacity:0"/>
</linearGradient>
<ellipse opacity="0.3" fill="url(#SVGID_7_)" cx="15.76243" cy="10.4129" rx="3.24645" ry="1.70049"/>
</svg>
