<?xml version="1.0" encoding="UTF-8" standalone="no"?>
<svg
   xmlns:dc="http://purl.org/dc/elements/1.1/"
   xmlns:cc="http://creativecommons.org/ns#"
   xmlns:rdf="http://www.w3.org/1999/02/22-rdf-syntax-ns#"
   xmlns:svg="http://www.w3.org/2000/svg"
   xmlns="http://www.w3.org/2000/svg"
   xmlns:sodipodi="http://sodipodi.sourceforge.net/DTD/sodipodi-0.dtd"
   xmlns:inkscape="http://www.inkscape.org/namespaces/inkscape"
   version="1.0"
   id="svg56722"
   inkscape:version="1.0.2-2 (e86c870879, 2021-01-15)"
   x="0px"
   y="0px"
   width="20.64102"
   height="10"
   viewBox="0 0 20.64102 10"
   enable-background="new 0 0 10 20.64111"
   xml:space="preserve"
   sodipodi:docname="SwitchNarrowHoriz_1.svg"><metadata
   id="metadata919"><rdf:RDF><cc:Work
       rdf:about=""><dc:format>image/svg+xml</dc:format><dc:type
         rdf:resource="http://purl.org/dc/dcmitype/StillImage" /><dc:title></dc:title></cc:Work></rdf:RDF></metadata><defs
   id="defs917" />
<sodipodi:namedview
   bordercolor="#666666"
   borderopacity="1.0"
   fit-margin-bottom="0"
   fit-margin-left="0"
   fit-margin-right="0"
   fit-margin-top="0"
   id="base"
   inkscape:current-layer="svg56722"
   inkscape:cx="17.685308"
   inkscape:cy="15.724034"
   inkscape:document-rotation="0"
   inkscape:document-units="mm"
   inkscape:pageopacity="0.0"
   inkscape:pageshadow="2"
   inkscape:window-height="1393"
   inkscape:window-maximized="0"
   inkscape:window-width="2560"
   inkscape:window-x="0"
   inkscape:window-y="0"
   inkscape:zoom="15.839192"
   pagecolor="#ffffff"
   showgrid="false"
   units="px">
	</sodipodi:namedview>




<path
   id="path5785"
   inkscape:connector-curvature="0"
   d="m 19.16594,0 c 0.81043,0 1.47508,0.66471 1.47508,1.47514 V 8.52486 C 20.64102,9.33523 19.97624,10 19.16594,10 H 1.47406 C 0.66363,10 0,9.33529 0,8.52486 V 1.47514 C 0,0.66477 0.66363,0 1.47406,0 Z" /><g
   id="g5795"
   opacity="0.54"
   transform="rotate(90,10.32053,10.32053)">
	<g
   id="g5797">
		
			<linearGradient
   id="path5805_00000083768858156117840380000007545053210476265646_"
   gradientUnits="userSpaceOnUse"
   x1="4.9991698"
   y1="1.33289"
   x2="4.9991698"
   y2="19.459579">
			<stop
   offset="0"
   style="stop-color:#3B3B3B"
   id="stop891" />
			<stop
   offset="1"
   style="stop-color:#242424"
   id="stop893" />
		</linearGradient>
		
			<path
   id="path5805"
   inkscape:connector-curvature="0"
   fill="url(#path5805_00000083768858156117840380000007545053210476265646_)"
   d="m 2.19312,1.33289 c -0.48687,0 -0.88421,0.39734 -0.88421,0.88421 v 0 16.35726 c 0,0.48687 0.3974,0.88522 0.88421,0.88522 v 0 h 5.61312 c 0.48477,0 0.88319,-0.39848 0.88319,-0.88522 v 0 V 2.2171 c 0,-0.48687 -0.39842,-0.88421 -0.88319,-0.88421 v 0 z"
   style="fill:url(#path5805_00000083768858156117840380000007545053210476265646_)" />
	</g>
</g><rect
   x="1.30993"
   y="-2.0567706"
   fill="none"
   width="0.68290001"
   height="0.89523"
   id="rect899"
   transform="rotate(90)" /><g
   id="g914"
   transform="rotate(90,10.32053,10.32053)">
	
		<linearGradient
   id="path5815_00000170964631234716849240000010152055143087385985_"
   gradientUnits="userSpaceOnUse"
   x1="5.0001898"
   y1="1.33289"
   x2="5.0001898"
   y2="10.17941">
		<stop
   offset="0.00559"
   style="stop-color:#3D3B3B"
   id="stop903" />
		<stop
   offset="1"
   style="stop-color:#2D2C2C"
   id="stop905" />
	</linearGradient>
	
		<path
   id="path5815"
   inkscape:connector-curvature="0"
   fill="url(#path5815_00000170964631234716849240000010152055143087385985_)"
   d="M 1.30993,1.33289 H 8.69045 V 10.1794 H 1.30993 Z"
   style="fill:url(#path5815_00000170964631234716849240000010152055143087385985_)" />
	<path
   id="path5817"
   inkscape:connector-curvature="0"
   fill="#5e5e5e"
   d="M 1.30993,4.87982 H 8.69045 V 5.7572 H 1.30993 Z" />
	<path
   id="path5819"
   inkscape:connector-curvature="0"
   fill="#5e5e5e"
   d="M 1.30993,8.42674 H 8.69045 V 9.30412 H 1.30993 Z" />
	<path
   id="path5821"
   inkscape:connector-curvature="0"
   fill="#5e5e5e"
   d="M 1.30993,6.65414 H 8.69045 V 7.53152 H 1.30993 Z" />
	<path
   id="path5823"
   inkscape:connector-curvature="0"
   fill="#5e5e5e"
   d="M 1.30993,3.10641 H 8.69045 V 3.98379 H 1.30993 Z" />
	<path
   id="path5825"
   inkscape:connector-curvature="0"
   fill="#797979"
   d="M 1.30993,1.33289 H 8.69045 V 2.21027 H 1.30993 Z"
   style="fill:#5e5e5e;fill-opacity:1" />
</g>
</svg>
