<?xml version="1.0" encoding="UTF-8" standalone="no"?>
<svg
   xmlns:dc="http://purl.org/dc/elements/1.1/"
   xmlns:cc="http://creativecommons.org/ns#"
   xmlns:rdf="http://www.w3.org/1999/02/22-rdf-syntax-ns#"
   xmlns:svg="http://www.w3.org/2000/svg"
   xmlns="http://www.w3.org/2000/svg"
   xmlns:sodipodi="http://sodipodi.sourceforge.net/DTD/sodipodi-0.dtd"
   xmlns:inkscape="http://www.inkscape.org/namespaces/inkscape"
   version="1.0"
   id="svg56722"
   inkscape:version="1.0.2-2 (e86c870879, 2021-01-15)"
   x="0px"
   y="0px"
   width="20.641029"
   height="10"
   viewBox="0 0 20.641029 10"
   enable-background="new 0 0 10 20.64111"
   xml:space="preserve"
   sodipodi:docname="SwitchNarrowHoriz_0.svg"><metadata
   id="metadata32"><rdf:RDF><cc:Work
       rdf:about=""><dc:format>image/svg+xml</dc:format><dc:type
         rdf:resource="http://purl.org/dc/dcmitype/StillImage" /><dc:title></dc:title></cc:Work></rdf:RDF></metadata><defs
   id="defs30" />
<sodipodi:namedview
   bordercolor="#666666"
   borderopacity="1.0"
   fit-margin-bottom="0"
   fit-margin-left="0"
   fit-margin-right="0"
   fit-margin-top="0"
   id="base"
   inkscape:current-layer="svg56722"
   inkscape:cx="3.4909301"
   inkscape:cy="3.9708842"
   inkscape:document-rotation="0"
   inkscape:document-units="mm"
   inkscape:pageopacity="0.0"
   inkscape:pageshadow="2"
   inkscape:window-height="1292"
   inkscape:window-maximized="0"
   inkscape:window-width="2559"
   inkscape:window-x="0"
   inkscape:window-y="101"
   inkscape:zoom="31.678384"
   pagecolor="#ffffff"
   showgrid="false"
   units="px">
	</sodipodi:namedview>




<g
   id="g1501"
   transform="rotate(90,10.353775,10.353775)"><path
     id="path5785_1_"
     inkscape:connector-curvature="0"
     d="M 0,1.5416 C 0,0.73117 0.66471,0.06652 1.47514,0.06652 H 8.52486 C 9.33523,0.06652 10,0.7313 10,1.5416 v 17.69189 c 0,0.81043 -0.66471,1.47406 -1.47514,1.47406 H 1.47514 C 0.66477,20.70754 0,20.04391 0,19.23348 Z" /><g
     id="g5795_1_"
     opacity="0.54">
	<g
   id="g5797_1_">
		
			<linearGradient
   id="path5805_00000026147093842360495760000000346361381535047831_"
   gradientUnits="userSpaceOnUse"
   x1="4.9991698"
   y1="1.39937"
   x2="4.9991698"
   y2="19.52606">
			<stop
   offset="0"
   style="stop-color:#3B3B3B"
   id="stop4" />
			<stop
   offset="1"
   style="stop-color:#242424"
   id="stop6" />
		</linearGradient>
		
			<path
   id="path5805_1_"
   inkscape:connector-curvature="0"
   fill="url(#path5805_00000026147093842360495760000000346361381535047831_)"
   d="m 2.19312,1.39937 c -0.48687,0 -0.88421,0.39734 -0.88421,0.88421 v 0 16.35726 c 0,0.48687 0.3974,0.88522 0.88421,0.88522 v 0 h 5.61312 c 0.48477,0 0.88319,-0.39848 0.88319,-0.88522 v 0 -16.35726 c 0,-0.48687 -0.39842,-0.88421 -0.88319,-0.88421 v 0 z"
   style="fill:url(#path5805_00000026147093842360495760000000346361381535047831_)" />
	</g>
</g><rect
     x="1.30993"
     y="18.65077"
     fill="none"
     width="0.68290001"
     height="0.89523"
     id="rect12" /><rect
     x="0.99908"
     y="0.88112998"
     opacity="0.3"
     width="8.0001898"
     height="1.71664"
     id="rect14" /><g
     id="g27">
	
		<linearGradient
   id="path5815_00000176018740175221449750000008623012870990731937_"
   gradientUnits="userSpaceOnUse"
   x1="4.9991698"
   y1="10.67955"
   x2="4.9991698"
   y2="19.52606">
		<stop
   offset="0.00559"
   style="stop-color:#3D3B3B"
   id="stop16" />
		<stop
   offset="1"
   style="stop-color:#2D2C2C"
   id="stop18" />
	</linearGradient>
	
		<path
   id="path5815_4_"
   inkscape:connector-curvature="0"
   fill="url(#path5815_00000176018740175221449750000008623012870990731937_)"
   d="m 1.30891,10.67955 h 7.38052 v 8.84651 H 1.30891 Z"
   style="fill:url(#path5815_00000176018740175221449750000008623012870990731937_)" />
	<path
   id="path5817_4_"
   inkscape:connector-curvature="0"
   fill="#5e5e5e"
   d="m 1.30891,14.22647 h 7.38052 v 0.87738 H 1.30891 Z" />
	<path
   id="path5819_4_"
   inkscape:connector-curvature="0"
   fill="#5e5e5e"
   d="m 1.30891,17.77339 h 7.38052 v 0.87738 H 1.30891 Z" />
	<path
   id="path5821_4_"
   inkscape:connector-curvature="0"
   fill="#5e5e5e"
   d="m 1.30891,16.00079 h 7.38052 v 0.87738 H 1.30891 Z" />
	<path
   id="path5823_4_"
   inkscape:connector-curvature="0"
   fill="#5e5e5e"
   d="m 1.30891,12.45307 h 7.38052 v 0.87738 H 1.30891 Z" />
	<path
   id="path5825_4_"
   inkscape:connector-curvature="0"
   fill="#797979"
   d="m 1.30891,10.67955 h 7.38052 v 0.87738 H 1.30891 Z"
   style="fill:#5e5e5e;fill-opacity:1" />
</g></g>
</svg>
