<?xml version="1.0" encoding="UTF-8"?>
<!-- Created with Inkscape (http://www.inkscape.org/) -->
<svg width="90" height="380" version="1.1" xmlns="http://www.w3.org/2000/svg" xmlns:cc="http://creativecommons.org/ns#" xmlns:dc="http://purl.org/dc/elements/1.1/" xmlns:rdf="http://www.w3.org/1999/02/22-rdf-syntax-ns#">
 <metadata>
  <rdf:RDF>
   <cc:Work rdf:about="">
    <dc:format>image/svg+xml</dc:format>
    <dc:type rdf:resource="http://purl.org/dc/dcmitype/StillImage"/>
   </cc:Work>
  </rdf:RDF>
 </metadata>
 <g transform="translate(0 -74.961)">
  <g transform="matrix(.84667 0 0 .83785 0 73.773)" stroke-width="1.1873">
   <path d="m0 1.4173h106.3v453.54h-106.3z" fill="#171717" style="paint-order:normal"/>
   <g fill="none">
    <path d="m43.019 439.46v10.181h10.475v-8.3679h-7.0375v-1.7433z"/>
    <path d="m58.976 443.76h-4.1807v-2.4871h8.5007v2.1385l-2.0671 2.092 2.0671 2.092-0.04644 2.092h-8.4543v-2.6266h4.0646l-1.5794-1.5574z"/>
    <path d="m64.573 449.67h2.9729v-2.4174h1.3007l1.7884-1.7433-1.7652-1.7666h4.2271v-2.4639h-8.5007v2.1152l1.9974 2.0455h-2.0207z"/>
    <path d="m75.28 449.67v-1.2784h2.6478v1.3017h2.9033v-8.4376h-4.4129l-4.0878 3.5796v4.858z"/>
    <path d="m75.373 445.81h2.462v-2.0687z"/>
    <path d="m82.085 441.28h8.5239v3.4634h-2.9729v-0.97625h-2.6013v3.3007h5.5742v2.6498h-8.5239z"/>
    <path d="m91.817 442v6.9268h2.8103v0.76706h2.88v-0.76706h2.8468v-6.9414h-2.8386v-0.69397h-2.8677v0.69397z"/>
    <path d="m94.789 444.16h2.5856v2.5406h-2.5856z"/>
    <path d="m46.454 443.74h3.7726v3.3811h-3.7726z"/>
   </g>
   <g fill="#fff">
    <g stroke-width="0">
     <path d="m43.271 438.46v10.193h10.488v-8.3789h-7.0469v-1.7441zm3.4414 4.2812h3.7207v1.2812h-0.55859v-0.9082h-0.90625v0.97656h-0.18555l-1.5352-1.0469v1.002h-0.53516zm3.1172 2.1191h0.62695v1.209h-3.7676v-1.1641h0.55859v0.97851l1.5586-1h0.23242v0.92969h0.79102z"/>
     <path d="m59.247 442.76h-4.1856v-2.4901h8.5108v2.141l-2.0696 2.0944 2.0696 2.0944-0.04649 2.0944h-8.4643v-2.6297h4.0694l-1.5812-1.5592z"/>
     <path d="m64.851 448.67h2.9764v-2.4202h1.3022l1.7905-1.7454-1.7673-1.7686h4.2321v-2.4668h-8.5108v2.1177l1.9998 2.0479h-2.0231z"/>
     <path d="m76.711 440.25-4.0938 3.584v4.8652l2.9531-0.0234v-1.2812h2.6523v1.3047h2.9062v-8.4492zm1.418 2.4902v2.0723h-2.4648z"/>
     <path d="m82.384 440.27h8.534v3.4675h-2.9764v-0.97741h-2.6044v3.3046h5.5808v2.653h-8.534z"/>
     <path d="m94.961 440.28v0.69336l-2.834 0.0156v6.9336h2.8145v0.76953h2.8828v-0.76953h2.8496v-6.9492h-2.8418v-0.69336zm0.14258 2.873h2.5879v2.543h-2.5879z"/>
    </g>
    <path d="m20.647 119.68v-0.504c0-1.302-1.064-2.352-2.352-2.352h-1.68c-0.378 0-0.672 0.308-0.672 0.672v8.008c0 0.378 0.294 0.672 0.672 0.672h1.68c1.288 0 2.352-1.05 2.352-2.352v-0.784c0-0.658-0.28-1.246-0.714-1.68 0.434-0.42 0.714-1.022 0.714-1.68zm-1.344 3.36v0.784c0 0.56-0.448 1.008-1.008 1.008h-1.008v-2.8h1.008c0.56 0 1.008 0.448 1.008 1.008zm-2.016-2.352v-2.52h1.008c0.56 0 1.008 0.448 1.008 1.008v0.504c0 0.56-0.448 1.008-1.008 1.008z"/>
    <path d="m25.927 119.59s0.294-0.308 0.532-0.532v6.496c0 0.378 0.294 0.672 0.672 0.672 0.364 0 0.672-0.294 0.672-0.672v-8.12c0-0.266-0.168-0.518-0.42-0.616-0.252-0.112-0.532-0.056-0.728 0.14l-1.68 1.68c-0.266 0.266-0.266 0.686 0 0.952s0.686 0.266 0.952 0z"/>
    <path d="m12.66 226.37c1.302 0 2.352-1.05 2.352-2.352v-4.76c0-1.302-1.05-2.352-2.352-2.352s-2.352 1.05-2.352 2.352v4.76c0 1.302 1.05 2.352 2.352 2.352zm0-8.12c0.56 0 1.008 0.448 1.008 1.008v4.76c0 0.56-0.448 1.008-1.008 1.008s-1.008-0.448-1.008-1.008v-4.76c0-0.56 0.448-1.008 1.008-1.008z"/>
    <path d="m17.532 224.02v-6.44c0-0.364-0.308-0.672-0.672-0.672-0.378 0-0.672 0.308-0.672 0.672v6.44c0 1.302 1.05 2.352 2.352 2.352 1.288 0 2.352-1.05 2.352-2.352v-6.44c0-0.364-0.308-0.672-0.672-0.672-0.378 0-0.672 0.308-0.672 0.672v6.44c0 0.56-0.462 1.008-1.008 1.008-0.56 0-1.008-0.448-1.008-1.008z"/>
    <path d="m22.346 216.96c-0.364 0-0.672 0.308-0.672 0.672 0 0.378 0.308 0.672 0.672 0.672h1.148v7.392c0 0.378 0.308 0.672 0.672 0.672 0.378 0 0.672-0.294 0.672-0.672v-7.392h1.148c0.378 0 0.672-0.294 0.672-0.672 0-0.364-0.294-0.672-0.672-0.672z"/>
    <path d="m31.562 219.73s0.294-0.308 0.532-0.532v6.496c0 0.378 0.294 0.672 0.672 0.672 0.364 0 0.672-0.294 0.672-0.672v-8.12c0-0.266-0.168-0.518-0.42-0.616-0.252-0.112-0.532-0.056-0.728 0.14l-1.68 1.68c-0.266 0.266-0.266 0.686 0 0.952s0.686 0.266 0.952 0z"/>
    <path d="m17.896 176.22c1.036 0.28 2.114-0.168 2.646-1.092 0.196-0.322 0.084-0.728-0.238-0.924-0.322-0.182-0.728-0.07-0.924 0.252-0.224 0.392-0.686 0.588-1.134 0.476-0.434-0.126-0.742-0.518-0.742-0.98v-4.76c0-0.448 0.308-0.854 0.742-0.966 0.448-0.126 0.91 0.07 1.134 0.462 0.196 0.322 0.602 0.434 0.924 0.252 0.322-0.196 0.434-0.602 0.238-0.924-0.532-0.924-1.61-1.372-2.646-1.092-1.022 0.266-1.736 1.204-1.736 2.268v4.76c0 1.064 0.714 2.002 1.736 2.268z"/>
    <path d="m25.71 169.66s0.294-0.308 0.532-0.532v6.496c0 0.378 0.294 0.672 0.672 0.672 0.364 0 0.672-0.294 0.672-0.672v-8.12c0-0.266-0.168-0.518-0.42-0.616-0.252-0.112-0.532-0.056-0.728 0.14l-1.68 1.68c-0.266 0.266-0.266 0.686 0 0.952s0.686 0.266 0.952 0z"/>
    <path d="m20.059 319.4v-0.504c0-1.302-1.064-2.352-2.352-2.352h-1.68c-0.378 0-0.672 0.308-0.672 0.672v8.008c0 0.378 0.294 0.672 0.672 0.672h1.68c1.288 0 2.352-1.05 2.352-2.352v-0.784c0-0.658-0.28-1.246-0.714-1.68 0.434-0.42 0.714-1.022 0.714-1.68zm-1.344 3.36v0.784c0 0.56-0.448 1.008-1.008 1.008h-1.008v-2.8h1.008c0.56 0 1.008 0.448 1.008 1.008zm-2.016-2.352v-2.52h1.008c0.56 0 1.008 0.448 1.008 1.008v0.504c0 0.56-0.448 1.008-1.008 1.008z"/>
    <path d="m24.247 318.58c0.322 0.182 0.728 0.07 0.91-0.252 0.14-0.224 0.35-0.392 0.602-0.462 0.266-0.07 0.532-0.042 0.77 0.084 0.224 0.126 0.392 0.336 0.476 0.588 0.07 0.252 0.042 0.532-0.07 0.77l-2.954 5.6c-0.098 0.21-0.098 0.448 0.028 0.658 0.126 0.196 0.336 0.322 0.574 0.322h3.136c0.364 0 0.672-0.294 0.672-0.672 0-0.364-0.308-0.672-0.672-0.672h-2.03c0.714-1.344 2.436-4.62 2.436-4.62 0.28-0.546 0.336-1.176 0.168-1.764-0.182-0.602-0.574-1.092-1.12-1.386s-1.176-0.378-1.764-0.21c-0.602 0.168-1.106 0.56-1.414 1.092-0.182 0.322-0.07 0.728 0.252 0.924z"/>
    <path d="m12.072 426.26c1.302 0 2.352-1.05 2.352-2.352v-4.76c0-1.302-1.05-2.352-2.352-2.352s-2.352 1.05-2.352 2.352v4.76c0 1.302 1.05 2.352 2.352 2.352zm0-8.12c0.56 0 1.008 0.448 1.008 1.008v4.76c0 0.56-0.448 1.008-1.008 1.008s-1.008-0.448-1.008-1.008v-4.76c0-0.56 0.448-1.008 1.008-1.008z"/>
    <path d="m16.944 423.91v-6.44c0-0.364-0.308-0.672-0.672-0.672-0.378 0-0.672 0.308-0.672 0.672v6.44c0 1.302 1.05 2.352 2.352 2.352 1.288 0 2.352-1.05 2.352-2.352v-6.44c0-0.364-0.308-0.672-0.672-0.672-0.378 0-0.672 0.308-0.672 0.672v6.44c0 0.56-0.462 1.008-1.008 1.008-0.56 0-1.008-0.448-1.008-1.008z"/>
    <path d="m21.758 416.86c-0.364 0-0.672 0.308-0.672 0.672 0 0.378 0.308 0.672 0.672 0.672h1.148v7.392c0 0.378 0.308 0.672 0.672 0.672 0.378 0 0.672-0.294 0.672-0.672v-7.392h1.148c0.378 0 0.672-0.294 0.672-0.672 0-0.364-0.294-0.672-0.672-0.672z"/>
    <path d="m29.882 418.9c0.322 0.182 0.728 0.07 0.91-0.252 0.14-0.224 0.35-0.392 0.602-0.462 0.266-0.07 0.532-0.042 0.77 0.084 0.224 0.126 0.392 0.336 0.476 0.588 0.07 0.252 0.042 0.532-0.07 0.77l-2.954 5.6c-0.098 0.21-0.098 0.448 0.028 0.658 0.126 0.196 0.336 0.322 0.574 0.322h3.136c0.364 0 0.672-0.294 0.672-0.672 0-0.364-0.308-0.672-0.672-0.672h-2.03c0.714-1.344 2.436-4.62 2.436-4.62 0.28-0.546 0.336-1.176 0.168-1.764-0.182-0.602-0.574-1.092-1.12-1.386s-1.176-0.378-1.764-0.21c-0.602 0.168-1.106 0.56-1.414 1.092-0.182 0.322-0.07 0.728 0.252 0.924z"/>
    <path d="m55.869 187.4c1.036 0.28 2.114-0.168 2.646-1.092 0.196-0.322 0.084-0.728-0.238-0.924-0.322-0.182-0.728-0.07-0.924 0.252-0.224 0.392-0.686 0.588-1.134 0.476-0.434-0.126-0.742-0.518-0.742-0.98v-4.76c0-0.448 0.308-0.854 0.742-0.966 0.448-0.126 0.91 0.07 1.134 0.462 0.196 0.322 0.602 0.434 0.924 0.252 0.322-0.196 0.434-0.602 0.238-0.924-0.532-0.924-1.61-1.372-2.646-1.092-1.022 0.266-1.736 1.204-1.736 2.268v4.76c0 1.064 0.714 2.002 1.736 2.268z"/>
    <path d="m61.004 180.85s0.294-0.308 0.532-0.532v6.496c0 0.378 0.294 0.672 0.672 0.672 0.364 0 0.672-0.294 0.672-0.672v-8.12c0-0.266-0.168-0.518-0.42-0.616-0.252-0.112-0.532-0.056-0.728 0.14l-1.68 1.68c-0.266 0.266-0.266 0.686 0 0.952s0.686 0.266 0.952 0z"/>
    <path d="m68.864 187.43h2.8c0.364 0 0.672-0.294 0.672-0.672 0-0.364-0.308-0.672-0.672-0.672h-2.128v-7.392c0-0.364-0.308-0.672-0.672-0.672-0.378 0-0.672 0.308-0.672 0.672v8.064c0 0.378 0.294 0.672 0.672 0.672z"/>
    <path d="m73.059 178.75v8.008c0 0.378 0.308 0.672 0.672 0.672h2.8c0.378 0 0.672-0.294 0.672-0.672 0-0.364-0.294-0.672-0.672-0.672h-2.128v-2.8h1.848c0.378 0 0.672-0.294 0.672-0.672 0-0.364-0.294-0.672-0.672-0.672h-1.848v-2.52h2.128c0.378 0 0.672-0.294 0.672-0.672 0-0.364-0.294-0.672-0.672-0.672h-2.8c-0.364 0-0.672 0.308-0.672 0.672z"/>
    <path d="m79.964 187c0.084 0.294 0.35 0.49 0.658 0.49 0.294 0 0.56-0.196 0.644-0.49l2.24-8.12c0.098-0.364-0.112-0.728-0.476-0.826-0.35-0.098-0.728 0.112-0.826 0.462 0 0-0.938 3.402-1.582 5.782-0.658-2.38-1.596-5.782-1.596-5.782-0.098-0.35-0.476-0.56-0.826-0.462-0.364 0.098-0.574 0.462-0.476 0.826z"/>
    <path d="m84.461 178.75v8.008c0 0.378 0.308 0.672 0.672 0.672h2.8c0.378 0 0.672-0.294 0.672-0.672 0-0.364-0.294-0.672-0.672-0.672h-2.128v-2.8h1.848c0.378 0 0.672-0.294 0.672-0.672 0-0.364-0.294-0.672-0.672-0.672h-1.848v-2.52h2.128c0.378 0 0.672-0.294 0.672-0.672 0-0.364-0.294-0.672-0.672-0.672h-2.8c-0.364 0-0.672 0.308-0.672 0.672z"/>
    <path d="m90.274 187.43h2.8c0.364 0 0.672-0.294 0.672-0.672 0-0.364-0.308-0.672-0.672-0.672h-2.128v-7.392c0-0.364-0.308-0.672-0.672-0.672-0.378 0-0.672 0.308-0.672 0.672v8.064c0 0.378 0.294 0.672 0.672 0.672z"/>
    <path d="m17.308 376.46c1.036 0.28 2.114-0.168 2.646-1.092 0.196-0.322 0.084-0.728-0.238-0.924-0.322-0.182-0.728-0.07-0.924 0.252-0.224 0.392-0.686 0.588-1.134 0.476-0.434-0.126-0.742-0.518-0.742-0.98v-4.76c0-0.448 0.308-0.854 0.742-0.966 0.448-0.126 0.91 0.07 1.134 0.462 0.196 0.322 0.602 0.434 0.924 0.252 0.322-0.196 0.434-0.602 0.238-0.924-0.532-0.924-1.61-1.372-2.646-1.092-1.022 0.266-1.736 1.204-1.736 2.268v4.76c0 1.064 0.714 2.002 1.736 2.268z"/>
    <path d="m24.03 369.18c0.322 0.182 0.728 0.07 0.91-0.252 0.14-0.224 0.35-0.392 0.602-0.462 0.266-0.07 0.532-0.042 0.77 0.084 0.224 0.126 0.392 0.336 0.476 0.588 0.07 0.252 0.042 0.532-0.07 0.77l-2.954 5.6c-0.098 0.21-0.098 0.448 0.028 0.658 0.126 0.196 0.336 0.322 0.574 0.322h3.136c0.364 0 0.672-0.294 0.672-0.672 0-0.364-0.308-0.672-0.672-0.672h-2.03c0.714-1.344 2.436-4.62 2.436-4.62 0.28-0.546 0.336-1.176 0.168-1.764-0.182-0.602-0.574-1.092-1.12-1.386s-1.176-0.378-1.764-0.21c-0.602 0.168-1.106 0.56-1.414 1.092-0.182 0.322-0.07 0.728 0.252 0.924z"/>
    <path d="m55.865 387.15c1.036 0.28 2.114-0.168 2.646-1.092 0.196-0.322 0.084-0.728-0.238-0.924-0.322-0.182-0.728-0.07-0.924 0.252-0.224 0.392-0.686 0.588-1.134 0.476-0.434-0.126-0.742-0.518-0.742-0.98v-4.76c0-0.448 0.308-0.854 0.742-0.966 0.448-0.126 0.91 0.07 1.134 0.462 0.196 0.322 0.602 0.434 0.924 0.252 0.322-0.196 0.434-0.602 0.238-0.924-0.532-0.924-1.61-1.372-2.646-1.092-1.022 0.266-1.736 1.204-1.736 2.268v4.76c0 1.064 0.714 2.002 1.736 2.268z"/>
    <path d="m59.908 379.87c0.322 0.182 0.728 0.07 0.91-0.252 0.14-0.224 0.35-0.392 0.602-0.462 0.266-0.07 0.532-0.042 0.77 0.084 0.224 0.126 0.392 0.336 0.476 0.588 0.07 0.252 0.042 0.532-0.07 0.77l-2.954 5.6c-0.098 0.21-0.098 0.448 0.028 0.658 0.126 0.196 0.336 0.322 0.574 0.322h3.136c0.364 0 0.672-0.294 0.672-0.672 0-0.364-0.308-0.672-0.672-0.672h-2.03c0.714-1.344 2.436-4.62 2.436-4.62 0.28-0.546 0.336-1.176 0.168-1.764-0.182-0.602-0.574-1.092-1.12-1.386s-1.176-0.378-1.764-0.21c-0.602 0.168-1.106 0.56-1.414 1.092-0.182 0.322-0.07 0.728 0.252 0.924z"/>
    <path d="m68.86 387.18h2.8c0.364 0 0.672-0.294 0.672-0.672 0-0.364-0.308-0.672-0.672-0.672h-2.128v-7.392c0-0.364-0.308-0.672-0.672-0.672-0.378 0-0.672 0.308-0.672 0.672v8.064c0 0.378 0.294 0.672 0.672 0.672z"/>
    <path d="m73.055 378.5v8.008c0 0.378 0.308 0.672 0.672 0.672h2.8c0.378 0 0.672-0.294 0.672-0.672 0-0.364-0.294-0.672-0.672-0.672h-2.128v-2.8h1.848c0.378 0 0.672-0.294 0.672-0.672 0-0.364-0.294-0.672-0.672-0.672h-1.848v-2.52h2.128c0.378 0 0.672-0.294 0.672-0.672 0-0.364-0.294-0.672-0.672-0.672h-2.8c-0.364 0-0.672 0.308-0.672 0.672z"/>
    <path d="m79.959 386.75c0.084 0.294 0.35 0.49 0.658 0.49 0.294 0 0.56-0.196 0.644-0.49l2.24-8.12c0.098-0.364-0.112-0.728-0.476-0.826-0.35-0.098-0.728 0.112-0.826 0.462 0 0-0.938 3.402-1.582 5.782-0.658-2.38-1.596-5.782-1.596-5.782-0.098-0.35-0.476-0.56-0.826-0.462-0.364 0.098-0.574 0.462-0.476 0.826z"/>
    <path d="m84.457 378.5v8.008c0 0.378 0.308 0.672 0.672 0.672h2.8c0.378 0 0.672-0.294 0.672-0.672 0-0.364-0.294-0.672-0.672-0.672h-2.128v-2.8h1.848c0.378 0 0.672-0.294 0.672-0.672 0-0.364-0.294-0.672-0.672-0.672h-1.848v-2.52h2.128c0.378 0 0.672-0.294 0.672-0.672 0-0.364-0.294-0.672-0.672-0.672h-2.8c-0.364 0-0.672 0.308-0.672 0.672z"/>
    <path d="m90.27 387.18h2.8c0.364 0 0.672-0.294 0.672-0.672 0-0.364-0.308-0.672-0.672-0.672h-2.128v-7.392c0-0.364-0.308-0.672-0.672-0.672-0.378 0-0.672 0.308-0.672 0.672v8.064c0 0.378 0.294 0.672 0.672 0.672z"/>
    <path d="m58.41 15.55q-0.154 0-0.238-0.042-0.084-0.028-0.154-0.196l-0.882-2.31h-4.354l-0.882 2.31q-0.07 0.168-0.154 0.196-0.07 0.042-0.224 0.042h-1.358q-0.224 0-0.294-0.084-0.07-0.07 0.014-0.266l4.074-10.192q0.098-0.238 0.336-0.238h1.358q0.182 0 0.238 0.056 0.056 0.042 0.126 0.196l4.046 10.178q0.084 0.21 0.014 0.28-0.056 0.07-0.294 0.07zm-4.97-4.27h3.038l-1.512-3.962z"/>
    <path d="m69.193 15.55q-0.126 0-0.196-0.028t-0.07-0.224v-10.22q0-0.154 0.028-0.224 0.042-0.084 0.238-0.084h2.492q0.784 0 1.414 0.182 0.644 0.168 1.092 0.518t0.686 0.896q0.252 0.532 0.252 1.246 0 0.35-0.112 0.7-0.098 0.336-0.294 0.644-0.196 0.294-0.476 0.546-0.28 0.238-0.63 0.406 0.42 0.154 0.742 0.406 0.336 0.252 0.56 0.574 0.238 0.308 0.35 0.658 0.126 0.35 0.126 0.7 0 1.596-1.008 2.45t-3.052 0.854zm1.638-9.086v2.702h0.616q0.504 0 0.84-0.112t0.532-0.308q0.21-0.196 0.294-0.448 0.084-0.266 0.084-0.574 0-0.252-0.07-0.476-0.07-0.238-0.252-0.406-0.168-0.168-0.462-0.266-0.294-0.112-0.728-0.112zm-0.028 4.27v3.122h0.56q0.63 0 1.036-0.112 0.406-0.126 0.644-0.322 0.252-0.21 0.35-0.49 0.098-0.294 0.098-0.63t-0.112-0.616q-0.098-0.294-0.364-0.504-0.252-0.21-0.7-0.322-0.434-0.126-1.092-0.126z"/>
    <path d="m81.393 11.309v2.613q0 0.156-0.065 0.208-0.052 0.039-0.182 0.039h-1.144q-0.13 0-0.195-0.039-0.052-0.052-0.052-0.208v-2.613h-2.6q-0.247 0-0.247-0.247v-1.053q0-0.247 0.247-0.247h2.6v-2.587q0-0.247 0.247-0.247h1.144q0.247 0 0.247 0.247v2.587h2.587q0.156 0 0.195 0.065 0.052 0.052 0.052 0.182v1.053q0 0.13-0.052 0.195-0.039 0.052-0.195 0.052z"/>
    <path d="m93.287 15.41q-0.406 0.14-0.966 0.238-0.546 0.098-1.302 0.098-1.204 0-2.212-0.406-0.994-0.392-1.708-1.12-0.714-0.742-1.12-1.764-0.392-1.036-0.392-2.296 0-1.232 0.392-2.254 0.406-1.036 1.12-1.764 0.714-0.742 1.708-1.148 1.008-0.406 2.212-0.406 0.63 0 1.218 0.084 0.588 0.07 1.092 0.224 0.196 0.07 0.196 0.168 0.014 0.098 0.014 0.238l-0.028 1.204q0 0.238-0.112 0.266t-0.364-0.042q-0.63-0.182-1.134-0.238-0.49-0.07-1.022-0.07-0.784 0-1.414 0.28-0.616 0.266-1.05 0.77-0.434 0.49-0.672 1.176-0.224 0.686-0.224 1.512 0 0.812 0.252 1.498 0.252 0.672 0.7 1.176 0.448 0.49 1.05 0.798 0.616 0.294 1.344 0.364 0.672 0.07 1.288-0.042 0.616-0.126 1.008-0.266 0.182-0.07 0.238-0.028 0.056 0.028 0.07 0.168l0.07 1.26q0.014 0.154-0.042 0.21t-0.21 0.112z"/>
    <path d="m66.04 12.154c0.27191 0.1748 0.64094 0.07769 0.79632-0.21365 0.1748-0.27191 0.07769-0.64094-0.21365-0.79632l-1.6315-0.9517 1.6315-0.9517c0.29134-0.15538 0.38845-0.5244 0.21365-0.79632-0.15538-0.29134-0.5244-0.38845-0.79632-0.21365l-1.6315 0.93227v-1.884c0-0.33018-0.27191-0.58267-0.60209-0.58267s-0.58267 0.25249-0.58267 0.58267v1.884l-1.6509-0.93227c-0.27191-0.1748-0.64094-0.077689-0.79632 0.21365-0.1748 0.27191-0.07769 0.64094 0.21365 0.79632l1.6315 0.9517-1.6315 0.9517c-0.29134 0.15538-0.38845 0.5244-0.21365 0.79632 0.15538 0.29134 0.5244 0.38845 0.79632 0.21365l1.6509-0.93227v1.884c0 0.33018 0.25249 0.60209 0.58267 0.60209s0.60209-0.27191 0.60209-0.60209v-1.884z"/>
    <path d="m49.367 210.75h49.103c1.8796 0 3.3929 1.5132 3.3929 3.3929v9.8013c0 1.8796-1.5132 3.3929-3.3929 3.3929h-49.103c-1.8796 0-3.3929-1.5132-3.3929-3.3929v-9.8013c0-1.8796 1.5132-3.3929 3.3929-3.3929z" stroke="#fff" stroke-width=".76567"/>
   </g>
   <g>
    <path d="m50.783 223.77c1.302 0 2.352-1.05 2.352-2.352v-4.76c0-1.302-1.05-2.352-2.352-2.352s-2.352 1.05-2.352 2.352v4.76c0 1.302 1.05 2.352 2.352 2.352zm0-8.12c0.56 0 1.008 0.448 1.008 1.008v4.76c0 0.56-0.448 1.008-1.008 1.008s-1.008-0.448-1.008-1.008v-4.76c0-0.56 0.448-1.008 1.008-1.008z"/>
    <path d="m55.655 221.42v-6.44c0-0.364-0.308-0.672-0.672-0.672-0.378 0-0.672 0.308-0.672 0.672v6.44c0 1.302 1.05 2.352 2.352 2.352 1.288 0 2.352-1.05 2.352-2.352v-6.44c0-0.364-0.308-0.672-0.672-0.672-0.378 0-0.672 0.308-0.672 0.672v6.44c0 0.56-0.462 1.008-1.008 1.008-0.56 0-1.008-0.448-1.008-1.008z"/>
    <path d="m60.469 214.37c-0.364 0-0.672 0.308-0.672 0.672 0 0.378 0.308 0.672 0.672 0.672h1.148v7.392c0 0.378 0.308 0.672 0.672 0.672 0.378 0 0.672-0.294 0.672-0.672v-7.392h1.148c0.378 0 0.672-0.294 0.672-0.672 0-0.364-0.294-0.672-0.672-0.672z"/>
    <path d="m69.553 219.91h-3.36c-0.364 0-0.672 0.308-0.672 0.672 0 0.378 0.308 0.672 0.672 0.672h3.36c0.378 0 0.672-0.294 0.672-0.672 0-0.364-0.294-0.672-0.672-0.672zm0-2.24h-3.36c-0.364 0-0.672 0.308-0.672 0.672 0 0.378 0.308 0.672 0.672 0.672h3.36c0.378 0 0.672-0.294 0.672-0.672 0-0.364-0.294-0.672-0.672-0.672z"/>
    <path d="m74.453 214.8c-0.07-0.294-0.336-0.49-0.644-0.49s-0.574 0.196-0.644 0.49l-2.24 8.12c-0.098 0.364 0.112 0.728 0.462 0.826 0.364 0.098 0.728-0.112 0.826-0.462 0 0 0.168-0.602 0.406-1.47h2.38c0.238 0.868 0.406 1.47 0.406 1.47 0.098 0.35 0.462 0.56 0.826 0.462 0.35-0.098 0.56-0.462 0.462-0.826zm-1.456 5.67c0.266-0.966 0.56-2.044 0.812-2.954 0.252 0.91 0.546 1.988 0.812 2.954z"/>
    <path d="m81.238 218.68c0.308 0.182 0.7 0.084 0.868-0.224 0.182-0.308 0.07-0.7-0.224-0.868l-0.868-0.504 0.868-0.504c0.294-0.168 0.406-0.56 0.224-0.868-0.168-0.294-0.56-0.406-0.868-0.224l-0.854 0.49v-0.994c0-0.35-0.294-0.63-0.644-0.63s-0.63 0.28-0.63 0.63v0.994l-0.868-0.49c-0.308-0.182-0.7-0.07-0.868 0.224-0.182 0.308-0.07 0.7 0.224 0.868l0.868 0.504-0.868 0.504c-0.294 0.168-0.406 0.56-0.224 0.868 0.168 0.308 0.56 0.406 0.868 0.224l0.868-0.49v0.994c0 0.35 0.28 0.644 0.63 0.644s0.644-0.294 0.644-0.644v-0.994z"/>
    <path d="m88.084 217.22v-0.504c0-1.302-1.064-2.352-2.352-2.352h-1.68c-0.378 0-0.672 0.308-0.672 0.672v8.008c0 0.378 0.294 0.672 0.672 0.672h1.68c1.288 0 2.352-1.05 2.352-2.352v-0.784c0-0.658-0.28-1.246-0.714-1.68 0.434-0.42 0.714-1.022 0.714-1.68zm-1.344 3.36v0.784c0 0.56-0.448 1.008-1.008 1.008h-1.008v-2.8h1.008c0.56 0 1.008 0.448 1.008 1.008zm-2.016-2.352v-2.52h1.008c0.56 0 1.008 0.448 1.008 1.008v0.504c0 0.56-0.448 1.008-1.008 1.008z"/>
    <path d="m93.232 218.79h-1.008v-1.008c0-0.364-0.308-0.672-0.672-0.672-0.378 0-0.672 0.308-0.672 0.672v1.008h-1.008c-0.378 0-0.672 0.308-0.672 0.672 0 0.378 0.294 0.672 0.672 0.672h1.008v1.008c0 0.378 0.294 0.672 0.672 0.672 0.364 0 0.672-0.294 0.672-0.672v-1.008h1.008c0.364 0 0.672-0.294 0.672-0.672 0-0.364-0.308-0.672-0.672-0.672z"/>
    <path d="m96.761 223.69c1.036 0.28 2.114-0.168 2.646-1.092 0.196-0.322 0.084-0.728-0.238-0.924-0.322-0.182-0.728-0.07-0.924 0.252-0.224 0.392-0.686 0.588-1.134 0.476-0.434-0.126-0.742-0.518-0.742-0.98v-4.76c0-0.448 0.308-0.854 0.742-0.966 0.448-0.126 0.91 0.07 1.134 0.462 0.196 0.322 0.602 0.434 0.924 0.252 0.322-0.196 0.434-0.602 0.238-0.924-0.532-0.924-1.61-1.372-2.646-1.092-1.022 0.266-1.736 1.204-1.736 2.268v4.76c0 1.064 0.714 2.002 1.736 2.268z"/>
   </g>
   <g fill="#fff">
    <path d="m19.15 67.685c-0.07-0.294-0.336-0.49-0.644-0.49s-0.574 0.196-0.644 0.49l-2.24 8.12c-0.098 0.364 0.112 0.728 0.462 0.826 0.364 0.098 0.728-0.112 0.826-0.462 0 0 0.168-0.602 0.406-1.47h2.38c0.238 0.868 0.406 1.47 0.406 1.47 0.098 0.35 0.462 0.56 0.826 0.462 0.35-0.098 0.56-0.462 0.462-0.826zm-1.456 5.67c0.266-0.966 0.56-2.044 0.812-2.954 0.252 0.91 0.546 1.988 0.812 2.954z"/>
    <path d="m26.248 70.023s0.294-0.308 0.532-0.532v6.496c0 0.378 0.294 0.672 0.672 0.672 0.364 0 0.672-0.294 0.672-0.672v-8.12c0-0.266-0.168-0.518-0.42-0.616-0.252-0.112-0.532-0.056-0.728 0.14l-1.68 1.68c-0.266 0.266-0.266 0.686 0 0.952s0.686 0.266 0.952 0z"/>
    <path d="m58.606 99.095v-0.504c0-1.302-1.064-2.352-2.352-2.352h-1.68c-0.378 0-0.672 0.308-0.672 0.672v8.008c0 0.378 0.294 0.672 0.672 0.672h1.68c1.288 0 2.352-1.05 2.352-2.352v-0.784c0-0.658-0.28-1.246-0.714-1.68 0.434-0.42 0.714-1.022 0.714-1.68zm-1.344 3.36v0.784c0 0.56-0.448 1.008-1.008 1.008h-1.008v-2.8h1.008c0.56 0 1.008 0.448 1.008 1.008zm-2.016-2.352v-2.52h1.008c0.56 0 1.008 0.448 1.008 1.008v0.504c0 0.56-0.448 1.008-1.008 1.008z"/>
    <path d="m61.207 99.011s0.294-0.308 0.532-0.532v6.496c0 0.378 0.294 0.672 0.672 0.672 0.364 0 0.672-0.294 0.672-0.672v-8.12c0-0.266-0.168-0.518-0.42-0.616-0.252-0.112-0.532-0.056-0.728 0.14l-1.68 1.68c-0.266 0.266-0.266 0.686 0 0.952s0.686 0.266 0.952 0z"/>
    <path d="m69.067 105.59h2.8c0.364 0 0.672-0.294 0.672-0.672 0-0.364-0.308-0.672-0.672-0.672h-2.128v-7.392c0-0.364-0.308-0.672-0.672-0.672-0.378 0-0.672 0.308-0.672 0.672v8.064c0 0.378 0.294 0.672 0.672 0.672z"/>
    <path d="m73.262 96.911v8.008c0 0.378 0.308 0.672 0.672 0.672h2.8c0.378 0 0.672-0.294 0.672-0.672 0-0.364-0.294-0.672-0.672-0.672h-2.128v-2.8h1.848c0.378 0 0.672-0.294 0.672-0.672 0-0.364-0.294-0.672-0.672-0.672h-1.848v-2.52h2.128c0.378 0 0.672-0.294 0.672-0.672 0-0.364-0.294-0.672-0.672-0.672h-2.8c-0.364 0-0.672 0.308-0.672 0.672z"/>
    <path d="m80.166 105.16c0.084 0.294 0.35 0.49 0.658 0.49 0.294 0 0.56-0.196 0.644-0.49l2.24-8.12c0.098-0.364-0.112-0.728-0.476-0.826-0.35-0.098-0.728 0.112-0.826 0.462 0 0-0.938 3.402-1.582 5.782-0.658-2.38-1.596-5.782-1.596-5.782-0.098-0.35-0.476-0.56-0.826-0.462-0.364 0.098-0.574 0.462-0.476 0.826z"/>
    <path d="m84.664 96.911v8.008c0 0.378 0.308 0.672 0.672 0.672h2.8c0.378 0 0.672-0.294 0.672-0.672 0-0.364-0.294-0.672-0.672-0.672h-2.128v-2.8h1.848c0.378 0 0.672-0.294 0.672-0.672 0-0.364-0.294-0.672-0.672-0.672h-1.848v-2.52h2.128c0.378 0 0.672-0.294 0.672-0.672 0-0.364-0.294-0.672-0.672-0.672h-2.8c-0.364 0-0.672 0.308-0.672 0.672z"/>
    <path d="m90.477 105.59h2.8c0.364 0 0.672-0.294 0.672-0.672 0-0.364-0.308-0.672-0.672-0.672h-2.128v-7.392c0-0.364-0.308-0.672-0.672-0.672-0.378 0-0.672 0.308-0.672 0.672v8.064c0 0.378 0.294 0.672 0.672 0.672z"/>
    <path d="m18.562 267.59c-0.07-0.294-0.336-0.49-0.644-0.49s-0.574 0.196-0.644 0.49l-2.24 8.12c-0.098 0.364 0.112 0.728 0.462 0.826 0.364 0.098 0.728-0.112 0.826-0.462 0 0 0.168-0.602 0.406-1.47h2.38c0.238 0.868 0.406 1.47 0.406 1.47 0.098 0.35 0.462 0.56 0.826 0.462 0.35-0.098 0.56-0.462 0.462-0.826zm-1.456 5.67c0.266-0.966 0.56-2.044 0.812-2.954 0.252 0.91 0.546 1.988 0.812 2.954z"/>
    <path d="m24.568 269.2c0.322 0.182 0.728 0.07 0.91-0.252 0.14-0.224 0.35-0.392 0.602-0.462 0.266-0.07 0.532-0.042 0.77 0.084 0.224 0.126 0.392 0.336 0.476 0.588 0.07 0.252 0.042 0.532-0.07 0.77l-2.954 5.6c-0.098 0.21-0.098 0.448 0.028 0.658 0.126 0.196 0.336 0.322 0.574 0.322h3.136c0.364 0 0.672-0.294 0.672-0.672 0-0.364-0.308-0.672-0.672-0.672h-2.03c0.714-1.344 2.436-4.62 2.436-4.62 0.28-0.546 0.336-1.176 0.168-1.764-0.182-0.602-0.574-1.092-1.12-1.386s-1.176-0.378-1.764-0.21c-0.602 0.168-1.106 0.56-1.414 1.092-0.182 0.322-0.07 0.728 0.252 0.924z"/>
    <path d="m58.607 299.04v-0.504c0-1.302-1.064-2.352-2.352-2.352h-1.68c-0.378 0-0.672 0.308-0.672 0.672v8.008c0 0.378 0.294 0.672 0.672 0.672h1.68c1.288 0 2.352-1.05 2.352-2.352v-0.784c0-0.658-0.28-1.246-0.714-1.68 0.434-0.42 0.714-1.022 0.714-1.68zm-1.344 3.36v0.784c0 0.56-0.448 1.008-1.008 1.008h-1.008v-2.8h1.008c0.56 0 1.008 0.448 1.008 1.008zm-2.016-2.352v-2.52h1.008c0.56 0 1.008 0.448 1.008 1.008v0.504c0 0.56-0.448 1.008-1.008 1.008z"/>
    <path d="m60.116 298.23c0.322 0.182 0.728 0.07 0.91-0.252 0.14-0.224 0.35-0.392 0.602-0.462 0.266-0.07 0.532-0.042 0.77 0.084 0.224 0.126 0.392 0.336 0.476 0.588 0.07 0.252 0.042 0.532-0.07 0.77l-2.954 5.6c-0.098 0.21-0.098 0.448 0.028 0.658 0.126 0.196 0.336 0.322 0.574 0.322h3.136c0.364 0 0.672-0.294 0.672-0.672 0-0.364-0.308-0.672-0.672-0.672h-2.03c0.714-1.344 2.436-4.62 2.436-4.62 0.28-0.546 0.336-1.176 0.168-1.764-0.182-0.602-0.574-1.092-1.12-1.386s-1.176-0.378-1.764-0.21c-0.602 0.168-1.106 0.56-1.414 1.092-0.182 0.322-0.07 0.728 0.252 0.924z"/>
    <path d="m69.068 305.54h2.8c0.364 0 0.672-0.294 0.672-0.672 0-0.364-0.308-0.672-0.672-0.672h-2.128v-7.392c0-0.364-0.308-0.672-0.672-0.672-0.378 0-0.672 0.308-0.672 0.672v8.064c0 0.378 0.294 0.672 0.672 0.672z"/>
    <path d="m73.263 296.86v8.008c0 0.378 0.308 0.672 0.672 0.672h2.8c0.378 0 0.672-0.294 0.672-0.672 0-0.364-0.294-0.672-0.672-0.672h-2.128v-2.8h1.848c0.378 0 0.672-0.294 0.672-0.672 0-0.364-0.294-0.672-0.672-0.672h-1.848v-2.52h2.128c0.378 0 0.672-0.294 0.672-0.672 0-0.364-0.294-0.672-0.672-0.672h-2.8c-0.364 0-0.672 0.308-0.672 0.672z"/>
    <path d="m80.167 305.1c0.084 0.294 0.35 0.49 0.658 0.49 0.294 0 0.56-0.196 0.644-0.49l2.24-8.12c0.098-0.364-0.112-0.728-0.476-0.826-0.35-0.098-0.728 0.112-0.826 0.462 0 0-0.938 3.402-1.582 5.782-0.658-2.38-1.596-5.782-1.596-5.782-0.098-0.35-0.476-0.56-0.826-0.462-0.364 0.098-0.574 0.462-0.476 0.826z"/>
    <path d="m84.665 296.86v8.008c0 0.378 0.308 0.672 0.672 0.672h2.8c0.378 0 0.672-0.294 0.672-0.672 0-0.364-0.294-0.672-0.672-0.672h-2.128v-2.8h1.848c0.378 0 0.672-0.294 0.672-0.672 0-0.364-0.294-0.672-0.672-0.672h-1.848v-2.52h2.128c0.378 0 0.672-0.294 0.672-0.672 0-0.364-0.294-0.672-0.672-0.672h-2.8c-0.364 0-0.672 0.308-0.672 0.672z"/>
    <path d="m90.478 305.54h2.8c0.364 0 0.672-0.294 0.672-0.672 0-0.364-0.308-0.672-0.672-0.672h-2.128v-7.392c0-0.364-0.308-0.672-0.672-0.672-0.378 0-0.672 0.308-0.672 0.672v8.064c0 0.378 0.294 0.672 0.672 0.672z"/>
   </g>
   <g stroke="#fff">
    <path d="m33.237 199.9h41.156" fill="none" stroke-width="1.1873px"/>
    <path d="m73.889 210.51v-10.58" fill="none" stroke-width="1.1873px"/>
    <path d="m49.367 410.75h49.103c1.8796 0 3.3929 1.5132 3.3929 3.3929v9.8013c0 1.8796-1.5132 3.3929-3.3929 3.3929h-49.103c-1.8796 0-3.3929-1.5132-3.3929-3.3929v-9.8013c0-1.8796 1.5132-3.3929 3.3929-3.3929z" fill="#fff" stroke-width=".76567"/>
   </g>
   <g>
    <path d="m50.783 423.77c1.302 0 2.352-1.05 2.352-2.352v-4.76c0-1.302-1.05-2.352-2.352-2.352s-2.352 1.05-2.352 2.352v4.76c0 1.302 1.05 2.352 2.352 2.352zm0-8.12c0.56 0 1.008 0.448 1.008 1.008v4.76c0 0.56-0.448 1.008-1.008 1.008s-1.008-0.448-1.008-1.008v-4.76c0-0.56 0.448-1.008 1.008-1.008z"/>
    <path d="m55.655 421.42v-6.44c0-0.364-0.308-0.672-0.672-0.672-0.378 0-0.672 0.308-0.672 0.672v6.44c0 1.302 1.05 2.352 2.352 2.352 1.288 0 2.352-1.05 2.352-2.352v-6.44c0-0.364-0.308-0.672-0.672-0.672-0.378 0-0.672 0.308-0.672 0.672v6.44c0 0.56-0.462 1.008-1.008 1.008-0.56 0-1.008-0.448-1.008-1.008z"/>
    <path d="m60.469 414.37c-0.364 0-0.672 0.308-0.672 0.672 0 0.378 0.308 0.672 0.672 0.672h1.148v7.392c0 0.378 0.308 0.672 0.672 0.672 0.378 0 0.672-0.294 0.672-0.672v-7.392h1.148c0.378 0 0.672-0.294 0.672-0.672 0-0.364-0.294-0.672-0.672-0.672z"/>
    <path d="m69.553 419.91h-3.36c-0.364 0-0.672 0.308-0.672 0.672 0 0.378 0.308 0.672 0.672 0.672h3.36c0.378 0 0.672-0.294 0.672-0.672 0-0.364-0.294-0.672-0.672-0.672zm0-2.24h-3.36c-0.364 0-0.672 0.308-0.672 0.672 0 0.378 0.308 0.672 0.672 0.672h3.36c0.378 0 0.672-0.294 0.672-0.672 0-0.364-0.294-0.672-0.672-0.672z"/>
    <path d="m74.453 414.8c-0.07-0.294-0.336-0.49-0.644-0.49s-0.574 0.196-0.644 0.49l-2.24 8.12c-0.098 0.364 0.112 0.728 0.462 0.826 0.364 0.098 0.728-0.112 0.826-0.462 0 0 0.168-0.602 0.406-1.47h2.38c0.238 0.868 0.406 1.47 0.406 1.47 0.098 0.35 0.462 0.56 0.826 0.462 0.35-0.098 0.56-0.462 0.462-0.826zm-1.456 5.67c0.266-0.966 0.56-2.044 0.812-2.954 0.252 0.91 0.546 1.988 0.812 2.954z"/>
    <path d="m81.238 418.68c0.308 0.182 0.7 0.084 0.868-0.224 0.182-0.308 0.07-0.7-0.224-0.868l-0.868-0.504 0.868-0.504c0.294-0.168 0.406-0.56 0.224-0.868-0.168-0.294-0.56-0.406-0.868-0.224l-0.854 0.49v-0.994c0-0.35-0.294-0.63-0.644-0.63s-0.63 0.28-0.63 0.63v0.994l-0.868-0.49c-0.308-0.182-0.7-0.07-0.868 0.224-0.182 0.308-0.07 0.7 0.224 0.868l0.868 0.504-0.868 0.504c-0.294 0.168-0.406 0.56-0.224 0.868 0.168 0.308 0.56 0.406 0.868 0.224l0.868-0.49v0.994c0 0.35 0.28 0.644 0.63 0.644s0.644-0.294 0.644-0.644v-0.994z"/>
    <path d="m88.084 417.22v-0.504c0-1.302-1.064-2.352-2.352-2.352h-1.68c-0.378 0-0.672 0.308-0.672 0.672v8.008c0 0.378 0.294 0.672 0.672 0.672h1.68c1.288 0 2.352-1.05 2.352-2.352v-0.784c0-0.658-0.28-1.246-0.714-1.68 0.434-0.42 0.714-1.022 0.714-1.68zm-1.344 3.36v0.784c0 0.56-0.448 1.008-1.008 1.008h-1.008v-2.8h1.008c0.56 0 1.008 0.448 1.008 1.008zm-2.016-2.352v-2.52h1.008c0.56 0 1.008 0.448 1.008 1.008v0.504c0 0.56-0.448 1.008-1.008 1.008z"/>
    <path d="m93.232 418.79h-1.008v-1.008c0-0.364-0.308-0.672-0.672-0.672-0.378 0-0.672 0.308-0.672 0.672v1.008h-1.008c-0.378 0-0.672 0.308-0.672 0.672 0 0.378 0.294 0.672 0.672 0.672h1.008v1.008c0 0.378 0.294 0.672 0.672 0.672 0.364 0 0.672-0.294 0.672-0.672v-1.008h1.008c0.364 0 0.672-0.294 0.672-0.672 0-0.364-0.308-0.672-0.672-0.672z"/>
    <path d="m96.761 423.69c1.036 0.28 2.114-0.168 2.646-1.092 0.196-0.322 0.084-0.728-0.238-0.924-0.322-0.182-0.728-0.07-0.924 0.252-0.224 0.392-0.686 0.588-1.134 0.476-0.434-0.126-0.742-0.518-0.742-0.98v-4.76c0-0.448 0.308-0.854 0.742-0.966 0.448-0.126 0.91 0.07 1.134 0.462 0.196 0.322 0.602 0.434 0.924 0.252 0.322-0.196 0.434-0.602 0.238-0.924-0.532-0.924-1.61-1.372-2.646-1.092-1.022 0.266-1.736 1.204-1.736 2.268v4.76c0 1.064 0.714 2.002 1.736 2.268z"/>
   </g>
   <g fill="#fff">
    <path d="m33.237 399.73h41.156" stroke="#fff" stroke-width="1.1873px"/>
    <path d="m73.889 410.34v-10.58" stroke="#fff" stroke-width="1.1873px"/>
    <g>
     <path d="m48.949 265.34c0.76244 0.44023 1.0237 1.4153 0.58352 2.1778-0.44027 0.76251-1.4154 1.0238-2.1778 0.58352-0.76254-0.4402-1.0238-1.4152-0.58352-2.1777 0.44016-0.76248 1.4153-1.0238 2.1778-0.58354" enable-background="new"/>
     <path d="m100.61 265.34c0.76243 0.44023 1.0237 1.4153 0.58352 2.1778-0.44027 0.76251-1.4154 1.0238-2.1778 0.58352-0.76254-0.4402-1.0238-1.4152-0.58352-2.1777 0.44016-0.76248 1.4153-1.0238 2.1778-0.58354" enable-background="new"/>
     <path d="m49.445 271.87c0.8503 0.22787 1.355 1.102 1.1272 1.9523-0.22791 0.85039-1.1021 1.3551-1.9524 1.1272-0.85043-0.22784-1.3551-1.102-1.1272-1.9523 0.2278-0.85035 1.1019-1.3551 1.9524-1.1272" enable-background="new"/>
     <path d="m99.343 258.5c0.8503 0.22788 1.355 1.102 1.1272 1.9523-0.22791 0.85041-1.1021 1.3551-1.9524 1.1272-0.85043-0.22785-1.3551-1.102-1.1272-1.9524 0.22778-0.85034 1.1019-1.355 1.9524-1.1272" enable-background="new"/>
     <path d="m51.613 278.04c0.88053 5e-5 1.5944 0.71394 1.5945 1.5945-4.3e-5 0.88062-0.71396 1.5946-1.5945 1.5945-0.88062 3e-5 -1.5945-0.71386-1.5945-1.5945-4.3e-5 -0.88054 0.71388-1.5945 1.5945-1.5945" enable-background="new"/>
     <path d="m96.35 252.21c0.88053 4e-5 1.5944 0.71393 1.5945 1.5945-4.3e-5 0.88061-0.71396 1.5946-1.5945 1.5945-0.88062 3e-5 -1.5945-0.71386-1.5945-1.5945-2.8e-5 -0.88054 0.71389-1.5945 1.5945-1.5945" enable-background="new"/>
     <path d="m55.305 283.45c0.85032-0.2278 1.7245 0.27688 1.9523 1.1272 0.22783 0.85041-0.27688 1.7246-1.1272 1.9524-0.8504 0.2279-1.7245-0.27676-1.9523-1.1272-0.2279-0.85031 0.2768-1.7245 1.1272-1.9524" enable-background="new"/>
     <path d="m91.833 246.92c0.85033-0.2278 1.7245 0.27686 1.9523 1.1272 0.22783 0.85041-0.27688 1.7246-1.1272 1.9524-0.8504 0.22791-1.7245-0.27678-1.9523-1.1272-0.2279-0.8503 0.2768-1.7245 1.1272-1.9524" enable-background="new"/>
     <path d="m86.099 242.97c0.76246-0.44017 1.7375-0.17891 2.1778 0.58353 0.44022 0.76252 0.17894 1.7376-0.58354 2.1778-0.76251 0.44027-1.7375 0.17901-2.1777-0.58352-0.44024-0.76242-0.17898-1.7375 0.58352-2.1778" enable-background="new"/>
     <path d="m79.539 240.64c0.62268-0.62261 1.6323-0.62262 2.255 0 0.62267 0.62272 0.62267 1.6324 0 2.255-0.62268 0.62271-1.6323 0.62271-2.255 0-0.62267-0.6226-0.62267-1.6323 0-2.255" enable-background="new"/>
     <path d="m65.756 241.36c0.22788-0.8503 1.102-1.355 1.9523-1.1272 0.85041 0.22792 1.3551 1.1021 1.1272 1.9524-0.22784 0.85043-1.102 1.3551-1.9523 1.1272-0.85034-0.22778-1.355-1.1019-1.1272-1.9524" enable-background="new"/>
     <path d="m59.472 244.35c4.3e-5 -0.88054 0.71393-1.5944 1.5945-1.5945 0.88062 4e-5 1.5946 0.71396 1.5945 1.5945 2.9e-5 0.88062-0.71386 1.5945-1.5945 1.5945-0.88055 3e-5 -1.5945-0.71389-1.5945-1.5945" enable-background="new"/>
     <path d="m90.705 285.4c-0.2278-0.85032 0.27687-1.7244 1.1272-1.9523 0.85041-0.22783 1.7246 0.27688 1.9524 1.1272 0.2279 0.85039-0.27676 1.7245-1.1272 1.9523-0.85031 0.2279-1.7245-0.27681-1.9524-1.1272" enable-background="new"/>
     <path d="m54.177 248.87c-0.2278-0.85032 0.27686-1.7244 1.1272-1.9523 0.85041-0.22783 1.7246 0.27688 1.9524 1.1272 0.22791 0.85039-0.27677 1.7245-1.1272 1.9523-0.8503 0.2279-1.7245-0.27681-1.9524-1.1272" enable-background="new"/>
     <path d="m94.969 280.43c-0.44017-0.76246-0.17891-1.7375 0.58352-2.1778 0.76252-0.44021 1.7376-0.17893 2.1778 0.58354 0.44027 0.76251 0.17901 1.7376-0.58352 2.1778-0.76242 0.44024-1.7375 0.17898-2.1778-0.58353" enable-background="new"/>
     <path d="m50.232 254.6c-0.44017-0.76247-0.17891-1.7375 0.58352-2.1778 0.76252-0.44022 1.7376-0.17894 2.1778 0.58354 0.44027 0.7625 0.17901 1.7375-0.58352 2.1777-0.76242 0.44025-1.7375 0.17898-2.1778-0.58352" enable-background="new"/>
     <path d="m97.803 274.53c-0.62261-0.62269-0.62263-1.6323 0-2.255 0.62271-0.62267 1.6324-0.62267 2.255 0 0.62272 0.62268 0.62272 1.6323 0 2.255-0.62259 0.62267-1.6323 0.62267-2.255 0" enable-background="new"/>
     <path d="m47.905 261.16c-0.62261-0.62268-0.62263-1.6323 0-2.255 0.62271-0.62267 1.6324-0.62267 2.255 0 0.62271 0.62268 0.62271 1.6323 0 2.255-0.6226 0.62267-1.6323 0.62267-2.255 0" enable-background="new"/>
    </g>
   </g>
   <path d="m73.981 243.27c0.84164 0 1.5369-0.68666 1.5369-1.5381v-3.1128c0-0.85145-0.69527-1.5381-1.5369-1.5381-0.85079 0-1.5369 0.68666-1.5369 1.5381v3.1128c0 0.85145 0.68612 1.5381 1.5369 1.5381m0-5.3101c0.35678 0 0.65867 0.29297 0.65867 0.65918v3.1128c0 0.36621-0.30189 0.65919-0.65867 0.65919-0.36593 0-0.65867-0.29298-0.65867-0.65919v-3.1128c0-0.36621 0.29274-0.65918 0.65867-0.65918" fill="#fffafa"/>
   <g fill="#fff">
    <path d="m54.635 293.7c0.216 0.108 0.477 0.018 0.585-0.189l0.963-1.935 0.963 1.935c0.108 0.207 0.369 0.297 0.576 0.189 0.216-0.108 0.306-0.369 0.198-0.576l-1.251-2.511 1.161-2.322c0.108-0.216 0.018-0.477-0.198-0.585-0.207-0.108-0.468-0.018-0.576 0.198l-0.873 1.746-0.873-1.746c-0.108-0.216-0.369-0.306-0.585-0.198-0.207 0.108-0.297 0.369-0.189 0.585l1.161 2.322-1.251 2.511c-0.108 0.207-0.018 0.468 0.189 0.576z"/>
    <path d="m58.873 291.4h2.16c0.234 0 0.432-0.189 0.432-0.432 0-0.234-0.198-0.432-0.432-0.432h-2.16c-0.243 0-0.432 0.198-0.432 0.432 0 0.243 0.189 0.432 0.432 0.432z"/>
    <path d="m62.437 289.01c0.207 0.117 0.468 0.045 0.585-0.162 0.09-0.144 0.225-0.252 0.387-0.297 0.171-0.045 0.342-0.027 0.495 0.054 0.144 0.081 0.252 0.216 0.306 0.378 0.045 0.162 0.027 0.342-0.045 0.495l-1.899 3.6c-0.063 0.135-0.063 0.288 0.018 0.423 0.081 0.126 0.216 0.207 0.369 0.207h2.016c0.234 0 0.432-0.189 0.432-0.432 0-0.234-0.198-0.432-0.432-0.432h-1.305c0.459-0.864 1.566-2.97 1.566-2.97 0.18-0.351 0.216-0.756 0.108-1.134-0.117-0.387-0.369-0.702-0.72-0.891s-0.756-0.243-1.134-0.135c-0.387 0.108-0.711 0.36-0.909 0.702-0.117 0.207-0.045 0.468 0.162 0.594z"/>
    <path d="m85.536 293.7c0.216 0.108 0.477 0.018 0.585-0.189l0.963-1.935 0.963 1.935c0.108 0.207 0.369 0.297 0.576 0.189 0.216-0.108 0.306-0.369 0.198-0.576l-1.251-2.511 1.161-2.322c0.108-0.216 0.018-0.477-0.198-0.585-0.207-0.108-0.468-0.018-0.576 0.198l-0.873 1.746-0.873-1.746c-0.108-0.216-0.369-0.306-0.585-0.198-0.207 0.108-0.297 0.369-0.189 0.585l1.161 2.322-1.251 2.511c-0.108 0.207-0.018 0.468 0.189 0.576z"/>
    <path d="m91.317 289.01c0.207 0.117 0.468 0.045 0.585-0.162 0.09-0.144 0.225-0.252 0.387-0.297 0.171-0.045 0.342-0.027 0.495 0.054 0.144 0.081 0.252 0.216 0.306 0.378 0.045 0.162 0.027 0.342-0.045 0.495l-1.899 3.6c-0.063 0.135-0.063 0.288 0.018 0.423 0.081 0.126 0.216 0.207 0.369 0.207h2.016c0.234 0 0.432-0.189 0.432-0.432 0-0.234-0.198-0.432-0.432-0.432h-1.305c0.459-0.864 1.566-2.97 1.566-2.97 0.18-0.351 0.216-0.756 0.108-1.134-0.117-0.387-0.369-0.702-0.72-0.891s-0.756-0.243-1.134-0.135c-0.387 0.108-0.711 0.36-0.909 0.702-0.117 0.207-0.045 0.468 0.162 0.594z"/>
    <g>
     <path d="m48.949 65.591c0.76244 0.44023 1.0237 1.4153 0.58352 2.1778-0.44027 0.76251-1.4154 1.0238-2.1778 0.58352-0.76254-0.4402-1.0238-1.4153-0.58352-2.1777 0.44016-0.76248 1.4153-1.0238 2.1778-0.58354" enable-background="new"/>
     <path d="m100.61 65.591c0.76243 0.44023 1.0237 1.4153 0.58352 2.1778-0.44027 0.76251-1.4154 1.0238-2.1778 0.58352-0.76254-0.4402-1.0238-1.4153-0.58352-2.1777 0.44016-0.76248 1.4153-1.0238 2.1778-0.58354" enable-background="new"/>
     <path d="m49.445 72.117c0.8503 0.22787 1.355 1.102 1.1272 1.9523-0.22791 0.8504-1.1021 1.3551-1.9524 1.1272-0.85043-0.22784-1.3551-1.102-1.1272-1.9523 0.2278-0.85035 1.1019-1.3551 1.9524-1.1272" enable-background="new"/>
     <path d="m99.343 58.747c0.8503 0.22788 1.355 1.102 1.1272 1.9523-0.22791 0.85041-1.1021 1.3551-1.9524 1.1272-0.85043-0.22784-1.3551-1.102-1.1272-1.9523 0.22778-0.85034 1.1019-1.355 1.9524-1.1272" enable-background="new"/>
     <path d="m51.613 78.292c0.88053 4.3e-5 1.5944 0.71393 1.5945 1.5945-4.3e-5 0.88062-0.71396 1.5946-1.5945 1.5945-0.88062 2.9e-5 -1.5945-0.71386-1.5945-1.5945-4.3e-5 -0.88054 0.71388-1.5945 1.5945-1.5945" enable-background="new"/>
     <path d="m96.35 52.462c0.88053 4.4e-5 1.5944 0.71393 1.5945 1.5945-4.3e-5 0.88062-0.71396 1.5946-1.5945 1.5945-0.88062 2.8e-5 -1.5945-0.71386-1.5945-1.5945-2.8e-5 -0.88055 0.71389-1.5945 1.5945-1.5945" enable-background="new"/>
     <path d="m55.305 83.696c0.85032-0.2278 1.7245 0.27688 1.9523 1.1272 0.22783 0.85041-0.27688 1.7246-1.1272 1.9524-0.8504 0.2279-1.7245-0.27676-1.9523-1.1272-0.2279-0.85031 0.2768-1.7245 1.1272-1.9524" enable-background="new"/>
     <path d="m91.833 47.168c0.85033-0.2278 1.7245 0.27686 1.9523 1.1272 0.22783 0.85041-0.27688 1.7246-1.1272 1.9524-0.8504 0.22791-1.7245-0.27677-1.9523-1.1272-0.2279-0.8503 0.2768-1.7245 1.1272-1.9524" enable-background="new"/>
     <path d="m86.099 43.222c0.76246-0.44017 1.7375-0.17891 2.1778 0.58352 0.44022 0.76252 0.17894 1.7376-0.58354 2.1778-0.76251 0.44027-1.7375 0.17901-2.1777-0.58352-0.44024-0.76242-0.17898-1.7375 0.58352-2.1778" enable-background="new"/>
     <path d="m79.539 40.895c0.62268-0.62261 1.6323-0.62263 2.255 0 0.62267 0.62271 0.62267 1.6324 0 2.255-0.62268 0.62271-1.6323 0.62271-2.255 0-0.62267-0.6226-0.62267-1.6323 0-2.255" enable-background="new"/>
     <path d="m65.756 41.61c0.22788-0.8503 1.102-1.355 1.9523-1.1272 0.85041 0.22791 1.3551 1.1021 1.1272 1.9524-0.22784 0.85043-1.102 1.3551-1.9523 1.1272-0.85034-0.22778-1.355-1.1019-1.1272-1.9524" enable-background="new"/>
     <path d="m59.472 44.603c4.3e-5 -0.88053 0.71393-1.5944 1.5945-1.5945 0.88062 4.3e-5 1.5946 0.71396 1.5945 1.5945 2.9e-5 0.88062-0.71386 1.5945-1.5945 1.5945-0.88055 2.8e-5 -1.5945-0.71389-1.5945-1.5945" enable-background="new"/>
     <path d="m90.705 85.648c-0.2278-0.85032 0.27687-1.7245 1.1272-1.9523 0.85041-0.22783 1.7246 0.27688 1.9524 1.1272 0.2279 0.8504-0.27676 1.7245-1.1272 1.9523-0.85031 0.2279-1.7245-0.2768-1.9524-1.1272" enable-background="new"/>
     <path d="m54.177 49.12c-0.2278-0.85032 0.27686-1.7245 1.1272-1.9523 0.85041-0.22783 1.7246 0.27688 1.9524 1.1272 0.22791 0.8504-0.27677 1.7245-1.1272 1.9523-0.8503 0.2279-1.7245-0.2768-1.9524-1.1272" enable-background="new"/>
     <path d="m94.969 80.683c-0.44017-0.76246-0.17891-1.7375 0.58352-2.1778 0.76252-0.44022 1.7376-0.17894 2.1778 0.58354 0.44027 0.76251 0.17901 1.7375-0.58352 2.1777-0.76242 0.44024-1.7375 0.17898-2.1778-0.58352" enable-background="new"/>
     <path d="m50.232 54.854c-0.44017-0.76246-0.17891-1.7375 0.58352-2.1778 0.76252-0.44022 1.7376-0.17894 2.1778 0.58354 0.44027 0.76251 0.17901 1.7375-0.58352 2.1777-0.76242 0.44024-1.7375 0.17898-2.1778-0.58352" enable-background="new"/>
     <path d="m97.803 74.784c-0.62261-0.62268-0.62263-1.6323 0-2.255 0.62271-0.62267 1.6324-0.62267 2.255 0 0.62272 0.62268 0.62272 1.6323 0 2.255-0.62259 0.62267-1.6323 0.62267-2.255 0" enable-background="new"/>
     <path d="m47.905 61.414c-0.62261-0.62268-0.62263-1.6323 0-2.255 0.62271-0.62267 1.6324-0.62267 2.255 0 0.62271 0.62268 0.62271 1.6323 0 2.255-0.6226 0.62267-1.6323 0.62267-2.255 0" enable-background="new"/>
    </g>
   </g>
   <path d="m73.981 43.523c0.84164 0 1.5369-0.68666 1.5369-1.5381v-3.1128c0-0.85145-0.69527-1.5381-1.5369-1.5381-0.85079 0-1.5369 0.68666-1.5369 1.5381v3.1128c0 0.85145 0.68612 1.5381 1.5369 1.5381m0-5.3101c0.35678 0 0.65867 0.29297 0.65867 0.65918v3.1128c0 0.36622-0.30189 0.65919-0.65867 0.65919-0.36593 0-0.65867-0.29298-0.65867-0.65919v-3.1128c0-0.36622 0.29274-0.65918 0.65867-0.65918" fill="#fffafa"/>
   <g fill="#fff">
    <path d="m54.635 93.949c0.216 0.108 0.477 0.018 0.585-0.189l0.963-1.935 0.963 1.935c0.108 0.207 0.369 0.297 0.576 0.189 0.216-0.108 0.306-0.369 0.198-0.576l-1.251-2.511 1.161-2.322c0.108-0.216 0.018-0.477-0.198-0.585-0.207-0.108-0.468-0.018-0.576 0.198l-0.873 1.746-0.873-1.746c-0.108-0.216-0.369-0.306-0.585-0.198-0.207 0.108-0.297 0.369-0.189 0.585l1.161 2.322-1.251 2.511c-0.108 0.207-0.018 0.468 0.189 0.576z"/>
    <path d="m58.873 91.654h2.16c0.234 0 0.432-0.189 0.432-0.432 0-0.234-0.198-0.432-0.432-0.432h-2.16c-0.243 0-0.432 0.198-0.432 0.432 0 0.243 0.189 0.432 0.432 0.432z"/>
    <path d="m62.437 89.26c0.207 0.117 0.468 0.045 0.585-0.162 0.09-0.144 0.225-0.252 0.387-0.297 0.171-0.045 0.342-0.027 0.495 0.054 0.144 0.081 0.252 0.216 0.306 0.378 0.045 0.162 0.027 0.342-0.045 0.495l-1.899 3.6c-0.063 0.135-0.063 0.288 0.018 0.423 0.081 0.126 0.216 0.207 0.369 0.207h2.016c0.234 0 0.432-0.189 0.432-0.432 0-0.234-0.198-0.432-0.432-0.432h-1.305c0.459-0.864 1.566-2.97 1.566-2.97 0.18-0.351 0.216-0.756 0.108-1.134-0.117-0.387-0.369-0.702-0.72-0.891s-0.756-0.243-1.134-0.135c-0.387 0.108-0.711 0.36-0.909 0.702-0.117 0.207-0.045 0.468 0.162 0.594z"/>
    <path d="m85.536 93.949c0.216 0.108 0.477 0.018 0.585-0.189l0.963-1.935 0.963 1.935c0.108 0.207 0.369 0.297 0.576 0.189 0.216-0.108 0.306-0.369 0.198-0.576l-1.251-2.511 1.161-2.322c0.108-0.216 0.018-0.477-0.198-0.585-0.207-0.108-0.468-0.018-0.576 0.198l-0.873 1.746-0.873-1.746c-0.108-0.216-0.369-0.306-0.585-0.198-0.207 0.108-0.297 0.369-0.189 0.585l1.161 2.322-1.251 2.511c-0.108 0.207-0.018 0.468 0.189 0.576z"/>
    <path d="m91.317 89.26c0.207 0.117 0.468 0.045 0.585-0.162 0.09-0.144 0.225-0.252 0.387-0.297 0.171-0.045 0.342-0.027 0.495 0.054 0.144 0.081 0.252 0.216 0.306 0.378 0.045 0.162 0.027 0.342-0.045 0.495l-1.899 3.6c-0.063 0.135-0.063 0.288 0.018 0.423 0.081 0.126 0.216 0.207 0.369 0.207h2.016c0.234 0 0.432-0.189 0.432-0.432 0-0.234-0.198-0.432-0.432-0.432h-1.305c0.459-0.864 1.566-2.97 1.566-2.97 0.18-0.351 0.216-0.756 0.108-1.134-0.117-0.387-0.369-0.702-0.72-0.891s-0.756-0.243-1.134-0.135c-0.387 0.108-0.711 0.36-0.909 0.702-0.117 0.207-0.045 0.468 0.162 0.594z"/>
    <path d="m54.681 177.06c0.216 0.10808 0.477 0.018 0.585-0.18915l0.963-1.9365 0.963 1.9365c0.108 0.20716 0.369 0.29723 0.576 0.18915 0.216-0.10809 0.306-0.36929 0.198-0.57645l-1.251-2.513 1.161-2.3238c0.108-0.21617 0.018-0.47737-0.198-0.58546-0.207-0.10808-0.468-0.018-0.576 0.19816l-0.873 1.7474-0.873-1.7474c-0.108-0.21617-0.369-0.30624-0.585-0.19816-0.207 0.10809-0.297 0.36929-0.189 0.58546l1.161 2.3238-1.251 2.513c-0.108 0.20716-0.018 0.46836 0.189 0.57645"/>
    <path d="m58.919 174.76h2.16c0.234 0 0.432-0.18915 0.432-0.43234 0-0.23418-0.198-0.43234-0.432-0.43234h-2.16c-0.243 0-0.432 0.19816-0.432 0.43234 0 0.24319 0.189 0.43234 0.432 0.43234"/>
    <path d="m63.185 172.83s0.189-0.19816 0.342-0.34227v4.1793c0 0.24319 0.189 0.43233 0.432 0.43233 0.234 0 0.432-0.18914 0.432-0.43233v-5.2241c0-0.17114-0.108-0.33326-0.27-0.39631-0.162-0.0721-0.342-0.036-0.468 0.0901l-1.08 1.0808c-0.171 0.17113-0.171 0.44134 0 0.61248 0.171 0.17113 0.441 0.17113 0.612 0"/>
    <path d="m85.431 177.06c0.216 0.10808 0.477 0.018 0.585-0.18915l0.963-1.9365 0.963 1.9365c0.108 0.20716 0.369 0.29723 0.576 0.18915 0.216-0.10809 0.306-0.36929 0.198-0.57645l-1.251-2.513 1.161-2.3238c0.108-0.21617 0.018-0.47737-0.198-0.58546-0.207-0.10808-0.468-0.018-0.576 0.19816l-0.873 1.7474-0.873-1.7474c-0.108-0.21617-0.369-0.30624-0.585-0.19816-0.207 0.10809-0.297 0.36929-0.189 0.58546l1.161 2.3238-1.251 2.513c-0.108 0.20716-0.018 0.46836 0.189 0.57645"/>
    <path d="m91.914 172.83s0.189-0.19816 0.342-0.34227v4.1793c0 0.24319 0.189 0.43233 0.432 0.43233 0.234 0 0.432-0.18914 0.432-0.43233v-5.2241c0-0.17114-0.108-0.33326-0.27-0.39631-0.162-0.0721-0.342-0.036-0.468 0.0901l-1.08 1.0808c-0.171 0.17113-0.171 0.44134 0 0.61248 0.171 0.17113 0.441 0.17113 0.612 0"/>
    <g>
     <path d="m48.949 148.68c0.76244 0.44023 1.0237 1.4153 0.58352 2.1778-0.44027 0.76251-1.4154 1.0238-2.1778 0.58352-0.76254-0.4402-1.0238-1.4152-0.58352-2.1777 0.44016-0.76248 1.4153-1.0238 2.1778-0.58354" enable-background="new"/>
     <path d="m100.61 148.68c0.76243 0.44023 1.0237 1.4153 0.58352 2.1778-0.44027 0.76251-1.4154 1.0238-2.1778 0.58352-0.76254-0.4402-1.0238-1.4152-0.58352-2.1777 0.44016-0.76248 1.4153-1.0238 2.1778-0.58354" enable-background="new"/>
     <path d="m49.445 155.21c0.8503 0.22787 1.355 1.102 1.1272 1.9523-0.22791 0.85039-1.1021 1.3551-1.9524 1.1272-0.85043-0.22784-1.3551-1.102-1.1272-1.9523 0.2278-0.85035 1.1019-1.3551 1.9524-1.1272" enable-background="new"/>
     <path d="m99.343 141.84c0.8503 0.22788 1.355 1.102 1.1272 1.9523-0.22791 0.85041-1.1021 1.3551-1.9524 1.1272-0.85043-0.22785-1.3551-1.102-1.1272-1.9524 0.22778-0.85034 1.1019-1.355 1.9524-1.1272" enable-background="new"/>
     <path d="m51.613 161.38c0.88053 5e-5 1.5944 0.71394 1.5945 1.5945-4.3e-5 0.88062-0.71396 1.5946-1.5945 1.5945-0.88062 3e-5 -1.5945-0.71386-1.5945-1.5945-4.3e-5 -0.88054 0.71388-1.5945 1.5945-1.5945" enable-background="new"/>
     <path d="m96.35 135.55c0.88053 4e-5 1.5944 0.71393 1.5945 1.5945-4.3e-5 0.88061-0.71396 1.5946-1.5945 1.5945-0.88062 3e-5 -1.5945-0.71386-1.5945-1.5945-2.8e-5 -0.88054 0.71389-1.5945 1.5945-1.5945" enable-background="new"/>
     <path d="m55.305 166.79c0.85032-0.2278 1.7245 0.27688 1.9523 1.1272 0.22783 0.85041-0.27688 1.7246-1.1272 1.9524-0.8504 0.2279-1.7245-0.27676-1.9523-1.1272-0.2279-0.85031 0.2768-1.7245 1.1272-1.9524" enable-background="new"/>
     <path d="m91.833 130.26c0.85033-0.2278 1.7245 0.27686 1.9523 1.1272 0.22783 0.85041-0.27688 1.7246-1.1272 1.9524-0.8504 0.22791-1.7245-0.27678-1.9523-1.1272-0.2279-0.8503 0.2768-1.7245 1.1272-1.9524" enable-background="new"/>
     <path d="m86.099 126.31c0.76246-0.44017 1.7375-0.17891 2.1778 0.58353 0.44022 0.76252 0.17894 1.7376-0.58354 2.1778-0.76251 0.44027-1.7375 0.17901-2.1777-0.58352-0.44024-0.76242-0.17898-1.7375 0.58352-2.1778" enable-background="new"/>
     <path d="m79.539 123.99c0.62268-0.62261 1.6323-0.62262 2.255 0 0.62267 0.62272 0.62267 1.6324 0 2.255-0.62268 0.62271-1.6323 0.62271-2.255 0-0.62267-0.6226-0.62267-1.6323 0-2.255" enable-background="new"/>
     <path d="m65.756 124.7c0.22788-0.8503 1.102-1.355 1.9523-1.1272 0.85041 0.22792 1.3551 1.1021 1.1272 1.9524-0.22784 0.85043-1.102 1.3551-1.9523 1.1272-0.85034-0.22778-1.355-1.1019-1.1272-1.9524" enable-background="new"/>
     <path d="m59.472 127.69c4.3e-5 -0.88054 0.71393-1.5944 1.5945-1.5945 0.88062 4e-5 1.5946 0.71396 1.5945 1.5945 2.9e-5 0.88062-0.71386 1.5945-1.5945 1.5945-0.88055 3e-5 -1.5945-0.71389-1.5945-1.5945" enable-background="new"/>
     <path d="m90.705 168.74c-0.2278-0.85032 0.27687-1.7244 1.1272-1.9523 0.85041-0.22783 1.7246 0.27688 1.9524 1.1272 0.2279 0.85039-0.27676 1.7245-1.1272 1.9523-0.85031 0.2279-1.7245-0.27681-1.9524-1.1272" enable-background="new"/>
     <path d="m54.177 132.21c-0.2278-0.85032 0.27686-1.7244 1.1272-1.9523 0.85041-0.22783 1.7246 0.27688 1.9524 1.1272 0.22791 0.85039-0.27677 1.7245-1.1272 1.9523-0.8503 0.2279-1.7245-0.27681-1.9524-1.1272" enable-background="new"/>
     <path d="m94.969 163.77c-0.44017-0.76246-0.17891-1.7375 0.58352-2.1778 0.76252-0.44021 1.7376-0.17893 2.1778 0.58354 0.44027 0.76251 0.17901 1.7376-0.58352 2.1778-0.76242 0.44024-1.7375 0.17898-2.1778-0.58353" enable-background="new"/>
     <path d="m50.232 137.95c-0.44017-0.76247-0.17891-1.7375 0.58352-2.1778 0.76252-0.44022 1.7376-0.17894 2.1778 0.58354 0.44027 0.7625 0.17901 1.7375-0.58352 2.1777-0.76242 0.44025-1.7375 0.17898-2.1778-0.58352" enable-background="new"/>
     <path d="m97.803 157.88c-0.62261-0.62269-0.62263-1.6323 0-2.255 0.62271-0.62267 1.6324-0.62267 2.255 0 0.62272 0.62268 0.62272 1.6323 0 2.255-0.62259 0.62267-1.6323 0.62267-2.255 0" enable-background="new"/>
     <path d="m47.905 144.51c-0.62261-0.62268-0.62263-1.6323 0-2.255 0.62271-0.62267 1.6324-0.62267 2.255 0 0.62271 0.62268 0.62271 1.6323 0 2.255-0.6226 0.62267-1.6323 0.62267-2.255 0" enable-background="new"/>
    </g>
   </g>
   <path d="m73.981 126.61c0.84164 0 1.5369-0.68665 1.5369-1.5381v-3.1128c0-0.85145-0.69527-1.5381-1.5369-1.5381-0.85079 0-1.5369 0.68666-1.5369 1.5381v3.1128c0 0.85146 0.68612 1.5381 1.5369 1.5381m0-5.3101c0.35678 0 0.65867 0.29296 0.65867 0.65918v3.1128c0 0.36622-0.30189 0.6592-0.65867 0.6592-0.36593 0-0.65867-0.29298-0.65867-0.6592v-3.1128c0-0.36622 0.29274-0.65918 0.65867-0.65918" fill="#fffafa"/>
   <g fill="#fff">
    <path d="m54.681 376.68c0.216 0.10808 0.477 0.018 0.585-0.18915l0.963-1.9365 0.963 1.9365c0.108 0.20716 0.369 0.29723 0.576 0.18915 0.216-0.10809 0.306-0.36929 0.198-0.57645l-1.251-2.513 1.161-2.3238c0.108-0.21617 0.018-0.47737-0.198-0.58546-0.207-0.10808-0.468-0.018-0.576 0.19816l-0.873 1.7474-0.873-1.7474c-0.108-0.21617-0.369-0.30624-0.585-0.19816-0.207 0.10809-0.297 0.36929-0.189 0.58546l1.161 2.3238-1.251 2.513c-0.108 0.20716-0.018 0.46836 0.189 0.57645"/>
    <path d="m58.919 374.39h2.16c0.234 0 0.432-0.18915 0.432-0.43234 0-0.23418-0.198-0.43234-0.432-0.43234h-2.16c-0.243 0-0.432 0.19816-0.432 0.43234 0 0.24319 0.189 0.43234 0.432 0.43234"/>
    <path d="m63.185 372.46s0.189-0.19816 0.342-0.34227v4.1793c0 0.24319 0.189 0.43233 0.432 0.43233 0.234 0 0.432-0.18914 0.432-0.43233v-5.2241c0-0.17114-0.108-0.33326-0.27-0.39631-0.162-0.0721-0.342-0.036-0.468 0.0901l-1.08 1.0808c-0.171 0.17113-0.171 0.44134 0 0.61248 0.171 0.17113 0.441 0.17113 0.612 0"/>
    <path d="m85.431 376.68c0.216 0.10808 0.477 0.018 0.585-0.18915l0.963-1.9365 0.963 1.9365c0.108 0.20716 0.369 0.29723 0.576 0.18915 0.216-0.10809 0.306-0.36929 0.198-0.57645l-1.251-2.513 1.161-2.3238c0.108-0.21617 0.018-0.47737-0.198-0.58546-0.207-0.10808-0.468-0.018-0.576 0.19816l-0.873 1.7474-0.873-1.7474c-0.108-0.21617-0.369-0.30624-0.585-0.19816-0.207 0.10809-0.297 0.36929-0.189 0.58546l1.161 2.3238-1.251 2.513c-0.108 0.20716-0.018 0.46836 0.189 0.57645"/>
    <path d="m91.914 372.46s0.189-0.19816 0.342-0.34227v4.1793c0 0.24319 0.189 0.43233 0.432 0.43233 0.234 0 0.432-0.18914 0.432-0.43233v-5.2241c0-0.17114-0.108-0.33326-0.27-0.39631-0.162-0.0721-0.342-0.036-0.468 0.0901l-1.08 1.0808c-0.171 0.17113-0.171 0.44134 0 0.61248 0.171 0.17113 0.441 0.17113 0.612 0"/>
    <g>
     <path d="m48.949 348.31c0.76244 0.44023 1.0237 1.4153 0.58352 2.1778-0.44027 0.76251-1.4154 1.0238-2.1778 0.58352-0.76254-0.4402-1.0238-1.4152-0.58352-2.1777 0.44016-0.76248 1.4153-1.0238 2.1778-0.58354" enable-background="new"/>
     <path d="m100.61 348.31c0.76243 0.44023 1.0237 1.4153 0.58352 2.1778-0.44027 0.76251-1.4154 1.0238-2.1778 0.58352-0.76254-0.4402-1.0238-1.4152-0.58352-2.1777 0.44016-0.76248 1.4153-1.0238 2.1778-0.58354" enable-background="new"/>
     <path d="m49.445 354.83c0.8503 0.22787 1.355 1.102 1.1272 1.9523-0.22791 0.85039-1.1021 1.3551-1.9524 1.1272-0.85043-0.22784-1.3551-1.102-1.1272-1.9523 0.2278-0.85035 1.1019-1.3551 1.9524-1.1272" enable-background="new"/>
     <path d="m99.343 341.46c0.8503 0.22788 1.355 1.102 1.1272 1.9523-0.22791 0.85041-1.1021 1.3551-1.9524 1.1272-0.85043-0.22785-1.3551-1.102-1.1272-1.9524 0.22778-0.85034 1.1019-1.355 1.9524-1.1272" enable-background="new"/>
     <path d="m51.613 361.01c0.88053 5e-5 1.5944 0.71394 1.5945 1.5945-4.3e-5 0.88062-0.71396 1.5946-1.5945 1.5945-0.88062 3e-5 -1.5945-0.71386-1.5945-1.5945-4.3e-5 -0.88054 0.71388-1.5945 1.5945-1.5945" enable-background="new"/>
     <path d="m96.35 335.18c0.88053 4e-5 1.5944 0.71393 1.5945 1.5945-4.3e-5 0.88061-0.71396 1.5946-1.5945 1.5945-0.88062 3e-5 -1.5945-0.71386-1.5945-1.5945-2.8e-5 -0.88054 0.71389-1.5945 1.5945-1.5945" enable-background="new"/>
     <path d="m55.305 366.41c0.85032-0.2278 1.7245 0.27688 1.9523 1.1272 0.22783 0.85041-0.27688 1.7246-1.1272 1.9524-0.8504 0.2279-1.7245-0.27676-1.9523-1.1272-0.2279-0.85031 0.2768-1.7245 1.1272-1.9524" enable-background="new"/>
     <path d="m91.833 329.88c0.85033-0.2278 1.7245 0.27686 1.9523 1.1272 0.22783 0.85041-0.27688 1.7246-1.1272 1.9524-0.8504 0.22791-1.7245-0.27678-1.9523-1.1272-0.2279-0.8503 0.2768-1.7245 1.1272-1.9524" enable-background="new"/>
     <path d="m86.099 325.94c0.76246-0.44017 1.7375-0.17891 2.1778 0.58353 0.44022 0.76252 0.17894 1.7376-0.58354 2.1778-0.76251 0.44027-1.7375 0.17901-2.1777-0.58352-0.44024-0.76242-0.17898-1.7375 0.58352-2.1778" enable-background="new"/>
     <path d="m79.539 323.61c0.62268-0.62261 1.6323-0.62262 2.255 0 0.62267 0.62272 0.62267 1.6324 0 2.255-0.62268 0.62271-1.6323 0.62271-2.255 0-0.62267-0.6226-0.62267-1.6323 0-2.255" enable-background="new"/>
     <path d="m65.756 324.33c0.22788-0.8503 1.102-1.355 1.9523-1.1272 0.85041 0.22792 1.3551 1.1021 1.1272 1.9524-0.22784 0.85043-1.102 1.3551-1.9523 1.1272-0.85034-0.22778-1.355-1.1019-1.1272-1.9524" enable-background="new"/>
     <path d="m59.472 327.32c4.3e-5 -0.88054 0.71393-1.5944 1.5945-1.5945 0.88062 4e-5 1.5946 0.71396 1.5945 1.5945 2.9e-5 0.88062-0.71386 1.5945-1.5945 1.5945-0.88055 3e-5 -1.5945-0.71389-1.5945-1.5945" enable-background="new"/>
     <path d="m90.705 368.36c-0.2278-0.85032 0.27687-1.7244 1.1272-1.9523 0.85041-0.22783 1.7246 0.27688 1.9524 1.1272 0.2279 0.85039-0.27676 1.7245-1.1272 1.9523-0.85031 0.2279-1.7245-0.27681-1.9524-1.1272" enable-background="new"/>
     <path d="m54.177 331.84c-0.2278-0.85032 0.27686-1.7244 1.1272-1.9523 0.85041-0.22783 1.7246 0.27688 1.9524 1.1272 0.22791 0.85039-0.27677 1.7245-1.1272 1.9523-0.8503 0.2279-1.7245-0.27681-1.9524-1.1272" enable-background="new"/>
     <path d="m94.969 363.4c-0.44017-0.76246-0.17891-1.7375 0.58352-2.1778 0.76252-0.44021 1.7376-0.17893 2.1778 0.58354 0.44027 0.76251 0.17901 1.7376-0.58352 2.1778-0.76242 0.44024-1.7375 0.17898-2.1778-0.58353" enable-background="new"/>
     <path d="m50.232 337.57c-0.44017-0.76247-0.17891-1.7375 0.58352-2.1778 0.76252-0.44022 1.7376-0.17894 2.1778 0.58354 0.44027 0.7625 0.17901 1.7375-0.58352 2.1777-0.76242 0.44025-1.7375 0.17898-2.1778-0.58352" enable-background="new"/>
     <path d="m97.803 357.5c-0.62261-0.62269-0.62263-1.6323 0-2.255 0.62271-0.62267 1.6324-0.62267 2.255 0 0.62272 0.62268 0.62272 1.6323 0 2.255-0.62259 0.62267-1.6323 0.62267-2.255 0" enable-background="new"/>
     <path d="m47.905 344.13c-0.62261-0.62268-0.62263-1.6323 0-2.255 0.62271-0.62267 1.6324-0.62267 2.255 0 0.62271 0.62268 0.62271 1.6323 0 2.255-0.6226 0.62267-1.6323 0.62267-2.255 0" enable-background="new"/>
    </g>
   </g>
   <path d="m73.981 326.24c0.84164 0 1.5369-0.68666 1.5369-1.5381v-3.1128c0-0.85145-0.69527-1.5381-1.5369-1.5381-0.85079 0-1.5369 0.68666-1.5369 1.5381v3.1128c0 0.85145 0.68612 1.5381 1.5369 1.5381m0-5.3101c0.35678 0 0.65867 0.29297 0.65867 0.65918v3.1128c0 0.36621-0.30189 0.65919-0.65867 0.65919-0.36593 0-0.65867-0.29298-0.65867-0.65919v-3.1128c0-0.36621 0.29274-0.65918 0.65867-0.65918" fill="#fffafa"/>
  </g>
 </g>
</svg>
