<?xml version="1.0" encoding="UTF-8"?>
<svg width="40.64mm" height="128.5mm" version="1.1" viewBox="0 0 40.64 128.5" xmlns="http://www.w3.org/2000/svg" xmlns:cc="http://creativecommons.org/ns#" xmlns:dc="http://purl.org/dc/elements/1.1/" xmlns:rdf="http://www.w3.org/1999/02/22-rdf-syntax-ns#">
 <defs>
  <clipPath id="clipPath11862-7">
   <path d="m56.969 10.531h11.474v15.104h-11.474z"/>
  </clipPath>
 </defs>
 <metadata>
  <rdf:RDF>
   <cc:Work rdf:about="">
    <dc:format>image/svg+xml</dc:format>
    <dc:type rdf:resource="http://purl.org/dc/dcmitype/StillImage"/>
   </cc:Work>
  </rdf:RDF>
 </metadata>
 <path d="m0.10049 0.098288v128.3h40.44v-128.3z" fill="#171717" stroke="#000" stroke-linejoin="round" stroke-width=".20035"/>
 <circle cx="28.873" cy="32.529" r="3.7007" fill="none" opacity=".96" stroke="#000" stroke-width=".1"/>
 <g fill="#fff">
  <g transform="matrix(.28222 0 0 .28222 -13.847 -.96314)">
   <path d="m163.36 87.403c1.302 0 2.352-1.05 2.352-2.352v-4.76c0-1.302-1.05-2.352-2.352-2.352s-2.352 1.05-2.352 2.352v4.76c0 1.302 1.05 2.352 2.352 2.352m0-8.12c0.56 0 1.008 0.448 1.008 1.008v4.76c0 0.56-0.448 1.008-1.008 1.008s-1.008-0.448-1.008-1.008v-4.76c0-0.56 0.448-1.008 1.008-1.008"/>
   <path d="m168.17 85.051v-6.44c0-0.364-0.308-0.672-0.672-0.672-0.378 0-0.672 0.308-0.672 0.672v6.44c0 1.302 1.05 2.352 2.352 2.352 1.288 0 2.352-1.05 2.352-2.352v-6.44c0-0.364-0.308-0.672-0.672-0.672-0.378 0-0.672 0.308-0.672 0.672v6.44c0 0.56-0.462 1.008-1.008 1.008-0.56 0-1.008-0.448-1.008-1.008"/>
   <path d="m172.93 77.995c-0.364 0-0.672 0.308-0.672 0.672 0 0.378 0.308 0.672 0.672 0.672h1.148v7.392c0 0.378 0.308 0.672 0.672 0.672 0.378 0 0.672-0.294 0.672-0.672v-7.392h1.148c0.378 0 0.672-0.294 0.672-0.672 0-0.364-0.294-0.672-0.672-0.672h-3.64"/>
  </g>
  <g transform="matrix(.22578 0 0 .22578 -.8393 12.02)">
   <path d="m26.971 330.75c-0.12-0.504-0.576-0.84-1.104-0.84-0.528 0-0.984 0.336-1.104 0.84l-3.84 13.92c-0.168 0.624 0.192 1.248 0.792 1.416 0.624 0.168 1.248-0.192 1.416-0.792 0 0 0.288-1.032 0.696-2.52h4.08c0.408 1.488 0.696 2.52 0.696 2.52 0.168 0.6 0.792 0.96 1.416 0.792 0.6-0.168 0.96-0.792 0.792-1.416l-3.84-13.92m-2.496 9.72c0.456-1.656 0.96-3.504 1.392-5.064 0.432 1.56 0.936 3.408 1.392 5.064h-2.784" fill="#fff"/>
  </g>
  <g transform="matrix(.22578 0 0 .22578 -1.4355 11.994)">
   <path d="m70.686 330.12c-0.648 0-1.152 0.528-1.152 1.152v13.728c0 0.648 0.504 1.152 1.152 1.152h2.88c2.232 0 4.032-1.8 4.032-4.032v-7.968c0-2.232-1.8-4.032-4.032-4.032h-2.88m4.608 4.032v7.968c0 0.96-0.768 1.728-1.728 1.728h-1.728v-11.424h1.728c0.96 0 1.728 0.768 1.728 1.728" fill="#fff"/>
  </g>
  <g transform="matrix(.22578 0 0 .22578 -2.4385 12.014)">
   <path d="m123.98 343.47c-0.432 0.336-0.96 0.456-1.488 0.36-0.528-0.12-0.96-0.432-1.224-0.888-0.336-0.552-1.032-0.744-1.584-0.432s-0.744 1.032-0.408 1.584c0.576 1.008 1.584 1.752 2.76 1.992 1.176 0.216 2.376-0.048 3.336-0.768 0.936-0.72 1.536-1.8 1.632-3 0.096-1.176-0.336-2.352-1.176-3.216l-3.816-3.936c-0.36-0.36-0.528-0.84-0.48-1.32 0.024-0.504 0.264-0.96 0.672-1.248 0.408-0.312 0.888-0.432 1.392-0.336 0.48 0.12 0.888 0.408 1.152 0.84 0.312 0.552 1.008 0.744 1.56 0.432 0.552-0.336 0.744-1.032 0.432-1.584-0.576-1.008-1.56-1.704-2.688-1.944-1.128-0.216-2.328 0.048-3.24 0.744s-1.488 1.752-1.584 2.904 0.312 2.304 1.128 3.12l3.84 3.936c0.36 0.384 0.552 0.912 0.504 1.44s-0.288 1.008-0.72 1.32" fill="#fff"/>
  </g>
  <g transform="matrix(.22578 0 0 .22578 -2.7257 12.023)">
   <path d="m173.42 335.31v-1.344c0-2.232-1.8-4.032-4.032-4.032h-2.88c-0.624 0-1.152 0.528-1.152 1.152v13.824c0 0.648 0.528 1.152 1.152 1.152 0.648 0 1.152-0.504 1.152-1.152v-5.568h1.296l2.232 5.976c0.24 0.6 0.888 0.888 1.488 0.672s0.912-0.888 0.672-1.488l-2.088-5.616c1.296-0.672 2.16-2.016 2.16-3.576m-5.76-3.072h1.728c0.96 0 1.728 0.768 1.728 1.728v1.344c0 0.96-0.768 1.728-1.728 1.728h-1.728v-4.8" fill="#fff"/>
  </g>
  <g stroke-width=".28222" aria-label="CV INs">
   <path d="m16.635 121.35q-0.10668-0.0277-0.19756-0.0869-0.09088-0.0632-0.15804-0.14619-0.06322-0.0869-0.09878-0.18966-0.03556-0.10273-0.03556-0.21731v-1.3434q0-0.11063 0.03556-0.21335 0.03556-0.10668 0.09878-0.18966 0.06717-0.0869 0.15804-0.14619 0.09088-0.0632 0.19756-0.0909 0.22126-0.0593 0.42672 0.0276 0.20546 0.083 0.32004 0.28053 0.04346 0.0672 0.01976 0.14224-0.01976 0.0751-0.08692 0.11854-0.06717 0.0395-0.14224 0.0198-0.07507-0.0237-0.11853-0.0909-0.04741-0.083-0.13829-0.11854-0.08692-0.0395-0.18175-0.0119-0.09088 0.0237-0.15014 0.10273-0.05927 0.0751-0.05927 0.16989v1.3434q0 0.0988 0.05927 0.17385 0.05927 0.0751 0.15014 0.10273 0.09483 0.0237 0.18175-0.0119 0.09088-0.0395 0.13829-0.12249 0.04346-0.0672 0.11853-0.0869 0.07507-0.0237 0.14224 0.0158 0.06717 0.0435 0.08692 0.11854 0.02371 0.0751-0.01976 0.14224-0.11458 0.19755-0.32004 0.28052-0.20546 0.0869-0.42672 0.0277z"/>
   <path d="m17.562 118.94q-0.01976-0.079 0.0158-0.14619 0.03951-0.0672 0.11853-0.0869 0.07507-0.0198 0.14224 0.0198 0.07112 0.0356 0.09088 0.11063 0.07507 0.28053 0.15409 0.56501 0.06717 0.24496 0.14619 0.52944 0.07902 0.28448 0.15014 0.53736 0.06717-0.25288 0.14619-0.53736 0.07902-0.28448 0.14619-0.52944 0.07507-0.28448 0.15409-0.56501 0.01975-0.0751 0.08692-0.11063 0.07112-0.0395 0.14619-0.0198 0.07902 0.0198 0.11458 0.0869 0.03951 0.0672 0.01976 0.14619l-0.63218 2.2916q-0.01976 0.0632-0.07112 0.0988-0.04741 0.0395-0.11063 0.0395-0.06717 0-0.11853-0.0395-0.04741-0.0356-0.06717-0.0988z"/>
   <path d="m20.381 121.37q-0.07902 0-0.13434-0.0553-0.05532-0.0553-0.05532-0.13433v-2.2916q0-0.079 0.05532-0.13434 0.05532-0.0553 0.13434-0.0553 0.07902 0 0.13434 0.0553 0.05532 0.0553 0.05532 0.13434v2.2916q0 0.079-0.05532 0.13433-0.05532 0.0553-0.13434 0.0553z"/>
   <path d="m22.304 121.37q-0.06717 0.0158-0.12644-0.0158-0.05927-0.0276-0.08693-0.0869-0.11853-0.25287-0.24892-0.5176-0.11063-0.22521-0.24497-0.49784-0.13039-0.27262-0.25287-0.52945v1.4619q0 0.079-0.05532 0.13433-0.05532 0.0553-0.13434 0.0553-0.07902 0-0.13434-0.0553-0.05532-0.0553-0.05532-0.13433v-2.2916q0-0.0672 0.03951-0.11853 0.03951-0.0514 0.10668-0.0672t0.12248 0.0158q0.05927 0.0277 0.09088 0.0869 0.11853 0.25287 0.24892 0.51759 0.11063 0.22522 0.24102 0.49784 0.13039 0.27263 0.25682 0.52945v-1.4619q0-0.079 0.05532-0.13434 0.05532-0.0553 0.13434-0.0553 0.07902 0 0.13434 0.0553 0.05532 0.0553 0.05532 0.13434v2.2916q0 0.0672-0.04346 0.11853-0.03951 0.0514-0.10273 0.0672z"/>
   <path d="m23.394 120.95q0.07112-0.0593 0.06322-0.15409-0.0079-0.0988-0.07902-0.14619l-0.3714-0.25683q-0.09878-0.0711-0.15804-0.17384-0.05927-0.10668-0.06717-0.22917-0.0079-0.12248 0.03556-0.23311 0.04741-0.11459 0.13829-0.19756 0.09088-0.079 0.20546-0.11458 0.11458-0.0356 0.23707-0.0158 0.11853 0.0198 0.21731 0.0869 0.09878 0.0672 0.162 0.17385 0.03556 0.0632 0.01581 0.13433-0.01581 0.0711-0.08297 0.10668-0.06322 0.0356-0.13434 0.0198-0.07112-0.0198-0.10668-0.083-0.04346-0.0751-0.12644-0.0869-0.07902-0.0158-0.14619 0.0435-0.06717 0.0553-0.05927 0.14224 0.0079 0.083 0.07507 0.13434l0.36745 0.25682q0.10273 0.0751 0.162 0.18176 0.06322 0.10668 0.07112 0.23311 0.0079 0.12644-0.03951 0.24102-0.04346 0.11458-0.13829 0.20151-0.09088 0.083-0.20941 0.11853-0.11853 0.0356-0.24497 0.0158-0.12644-0.0198-0.22916-0.0869-0.09878-0.0711-0.162-0.18175-0.03556-0.0632-0.01976-0.13434 0.01976-0.0711 0.08297-0.10668 0.06717-0.0356 0.13829-0.0158 0.07112 0.0158 0.10668 0.079 0.04346 0.083 0.13829 0.0948 0.08693 0.0158 0.15804-0.0474z"/>
  </g>
  <g stroke-width=".28222" aria-label="STATE GATES">
   <path d="m13.164 108.04q0.05532-0.0395 0.08297-0.0948 0.02766-0.0553 0.03556-0.12248 0.01185-0.13434-0.08297-0.23707l-0.63218-0.64798q-0.10273-0.10273-0.15014-0.23707-0.04741-0.13433-0.03556-0.27657t0.07902-0.26473q0.06717-0.12643 0.18175-0.21336 0.11458-0.0869 0.25287-0.11853 0.14224-0.0316 0.28053-4e-3 0.13829 0.0316 0.25287 0.11458 0.11853 0.079 0.18965 0.20546 0.03951 0.0672 0.01581 0.14224-0.01976 0.0751-0.08692 0.11853-0.06717 0.0395-0.14224 0.0198-0.07507-0.0237-0.11458-0.0909-0.06717-0.10668-0.18965-0.13829-0.12644-0.0237-0.22916 0.0553-0.10273 0.0751-0.11063 0.20545-0.01185 0.12644 0.07902 0.21732l0.62823 0.64798q0.10273 0.10668 0.15409 0.24497 0.05137 0.13828 0.03951 0.28448-0.01185 0.15014-0.08297 0.27657-0.07112 0.12644-0.1857 0.21731-0.11853 0.0909-0.26077 0.12249-0.14224 0.0316-0.28843 4e-3 -0.14619-0.0316-0.26472-0.11458-0.11853-0.0869-0.18965-0.21336-0.04346-0.0672-0.02371-0.14224 0.02371-0.079 0.09088-0.11854 0.06717-0.0395 0.14224-0.0158 0.07507 0.0198 0.11853 0.0869 0.06717 0.11459 0.20151 0.1462 0.13829 0.0237 0.24497-0.0593z"/>
   <path d="m15.008 105.83q0.07902 0 0.13434 0.0553 0.05532 0.0553 0.05532 0.13434 0 0.079-0.05532 0.13434-0.05532 0.0553-0.13434 0.0553h-0.32399v2.0862q0 0.079-0.05532 0.13434-0.05532 0.0553-0.13434 0.0553-0.07902 0-0.13434-0.0553-0.05532-0.0553-0.05532-0.13434v-2.0862h-0.32399q-0.07902 0-0.13434-0.0553-0.05532-0.0553-0.05532-0.13434 0-0.079 0.05532-0.13434 0.05532-0.0553 0.13434-0.0553z"/>
   <path d="m16.698 108.24q0.01976 0.079-0.01975 0.14619-0.03556 0.0672-0.11063 0.0869-0.07902 0.0198-0.14619-0.0198-0.06717-0.0356-0.08692-0.11064-0.0158-0.0474-0.03161-0.11458-0.0158-0.0553-0.03951-0.13038-0.01975-0.079-0.04346-0.1699h-0.67169q-0.02766 0.0909-0.04741 0.1699-0.01976 0.0751-0.03556 0.13038-0.01581 0.0672-0.03161 0.11458-0.01976 0.0751-0.08692 0.11064-0.06717 0.0395-0.14619 0.0198-0.07507-0.0198-0.11458-0.0869-0.03556-0.0672-0.0158-0.14619l0.63218-2.2916q0.01581-0.0632 0.06322-0.0988 0.05137-0.0395 0.11853-0.0395 0.06717 0 0.11458 0.0395 0.05136 0.0356 0.06717 0.0988zm-0.58476-0.69145q-0.05532-0.20546-0.11458-0.42277-0.05927-0.21731-0.11458-0.41091-0.05532 0.1936-0.11458 0.41091-0.05927 0.21731-0.11458 0.42277z"/>
   <path d="m17.788 105.83q0.07902 0 0.13434 0.0553 0.05532 0.0553 0.05532 0.13434 0 0.079-0.05532 0.13434-0.05532 0.0553-0.13434 0.0553h-0.32399v2.0862q0 0.079-0.05532 0.13434-0.05531 0.0553-0.13434 0.0553-0.07902 0-0.13434-0.0553-0.05532-0.0553-0.05532-0.13434v-2.0862h-0.32399q-0.07902 0-0.13434-0.0553-0.05532-0.0553-0.05532-0.13434 0-0.079 0.05532-0.13434 0.05532-0.0553 0.13434-0.0553z"/>
   <path d="m18.213 106.02q0-0.079 0.05532-0.13434 0.05532-0.0553 0.13434-0.0553h0.79022q0.07902 0 0.13434 0.0553 0.05532 0.0553 0.05532 0.13434 0 0.079-0.05532 0.13434-0.05532 0.0553-0.13434 0.0553h-0.60057v0.7112h0.52155q0.07902 0 0.13434 0.0553 0.05532 0.0553 0.05532 0.13434 0 0.079-0.05532 0.13433-0.05532 0.0553-0.13434 0.0553h-0.52155v0.79022h0.60057q0.07902 0 0.13434 0.0553 0.05532 0.0553 0.05532 0.13434 0 0.079-0.05532 0.13433-0.05532 0.0553-0.13434 0.0553h-0.79022q-0.07902 0-0.13434-0.0553-0.05532-0.0553-0.05532-0.13433v-2.26z"/>
   <path d="m21.483 107q0.07902 0 0.13434 0.0553 0.05532 0.0553 0.05532 0.13434v0.63218q0 0.13829-0.05136 0.26077-0.05136 0.11853-0.14224 0.20941-0.09088 0.0909-0.21336 0.14224-0.11853 0.0514-0.25682 0.0514-0.13829 0-0.26077-0.0514-0.11853-0.0514-0.20941-0.14224-0.08692-0.0909-0.14224-0.20941-0.05137-0.12248-0.05137-0.26077v-1.3434q0-0.11063 0.03556-0.21336 0.03556-0.10668 0.09878-0.18965 0.06717-0.0869 0.15804-0.14619 0.09088-0.0632 0.20151-0.0909 0.10668-0.0277 0.21731-0.0198 0.11063 4e-3 0.20941 0.0474 0.09878 0.0395 0.18175 0.11063 0.08297 0.0711 0.13829 0.1699 0.03951 0.0672 0.0158 0.14224-0.01976 0.0751-0.08692 0.11853-0.06717 0.0395-0.14224 0.0198-0.07507-0.0237-0.11458-0.0909-0.05136-0.083-0.14224-0.11853-0.08693-0.0395-0.1778-0.0119-0.09483 0.0237-0.15409 0.10273-0.05927 0.0751-0.05927 0.1699v1.3434q0 0.11853 0.08297 0.2015 0.08692 0.083 0.20151 0.083 0.11853 0 0.20151-0.083 0.08297-0.083 0.08297-0.2015v-0.44253h-0.20546q-0.07902 0-0.13434-0.0553-0.05532-0.0553-0.05532-0.13434 0-0.079 0.05532-0.13434 0.05532-0.0553 0.13434-0.0553h0.39511z"/>
   <path d="m23.465 108.24q0.01975 0.079-0.01976 0.14619-0.03556 0.0672-0.11063 0.0869-0.07902 0.0198-0.14619-0.0198-0.06717-0.0356-0.08692-0.11064-0.0158-0.0474-0.03161-0.11458-0.01581-0.0553-0.03951-0.13038-0.01975-0.079-0.04346-0.1699h-0.67169q-0.02766 0.0909-0.04741 0.1699-0.01975 0.0751-0.03556 0.13038-0.0158 0.0672-0.03161 0.11458-0.01975 0.0751-0.08692 0.11064-0.06717 0.0395-0.14619 0.0198-0.07507-0.0198-0.11458-0.0869-0.03556-0.0672-0.01581-0.14619l0.63218-2.2916q0.0158-0.0632 0.06322-0.0988 0.05136-0.0395 0.11853-0.0395 0.06717 0 0.11458 0.0395 0.05137 0.0356 0.06717 0.0988zm-0.58476-0.69145q-0.05531-0.20546-0.11458-0.42277-0.05927-0.21731-0.11458-0.41091-0.05532 0.1936-0.11458 0.41091-0.05927 0.21731-0.11458 0.42277z"/>
   <path d="m24.554 105.83q0.07902 0 0.13434 0.0553 0.05532 0.0553 0.05532 0.13434 0 0.079-0.05532 0.13434-0.05532 0.0553-0.13434 0.0553h-0.32399v2.0862q0 0.079-0.05532 0.13434-0.05532 0.0553-0.13434 0.0553-0.07902 0-0.13434-0.0553-0.05532-0.0553-0.05532-0.13434v-2.0862h-0.32399q-0.07902 0-0.13434-0.0553-0.05532-0.0553-0.05532-0.13434 0-0.079 0.05532-0.13434 0.05532-0.0553 0.13434-0.0553z"/>
   <path d="m24.98 106.02q0-0.079 0.05532-0.13434 0.05532-0.0553 0.13434-0.0553h0.79022q0.07902 0 0.13434 0.0553 0.05532 0.0553 0.05532 0.13434 0 0.079-0.05532 0.13434-0.05532 0.0553-0.13434 0.0553h-0.60057v0.7112h0.52155q0.07902 0 0.13434 0.0553 0.05532 0.0553 0.05532 0.13434 0 0.079-0.05532 0.13433-0.05532 0.0553-0.13434 0.0553h-0.52155v0.79022h0.60057q0.07902 0 0.13434 0.0553 0.05532 0.0553 0.05532 0.13434 0 0.079-0.05532 0.13433-0.05532 0.0553-0.13434 0.0553h-0.79022q-0.07902 0-0.13434-0.0553-0.05532-0.0553-0.05532-0.13433v-2.26z"/>
   <path d="m27.124 108.04q0.05532-0.0395 0.08297-0.0948 0.02766-0.0553 0.03556-0.12248 0.01185-0.13434-0.08297-0.23707l-0.63218-0.64801q-0.10273-0.10273-0.15014-0.23707-0.04741-0.13433-0.03556-0.27657t0.07902-0.26473q0.06717-0.12643 0.18175-0.21336 0.11458-0.0869 0.25287-0.11853 0.14224-0.0316 0.28053-4e-3 0.13829 0.0316 0.25287 0.11458 0.11853 0.079 0.18965 0.20546 0.03951 0.0672 0.0158 0.14224-0.01975 0.0751-0.08692 0.11853-0.06717 0.0395-0.14224 0.0198-0.07507-0.0237-0.11458-0.0909-0.06717-0.10668-0.18965-0.13829-0.12644-0.0237-0.22916 0.0553-0.10273 0.0751-0.11063 0.20545-0.01185 0.12644 0.07902 0.21732l0.62823 0.64798q0.10273 0.10668 0.15409 0.24497 0.05136 0.13828 0.03951 0.28448-0.01185 0.15014-0.08297 0.27657-0.07112 0.12644-0.1857 0.21731-0.11853 0.0909-0.26077 0.12249-0.14224 0.0316-0.28843 4e-3 -0.14619-0.0316-0.26472-0.11458-0.11853-0.0869-0.18965-0.21336-0.04346-0.0672-0.02371-0.14224 0.02371-0.079 0.09088-0.11854 0.06717-0.0395 0.14224-0.0158 0.07507 0.0198 0.11853 0.0869 0.06717 0.11459 0.20151 0.1462 0.13829 0.0237 0.24497-0.0593z"/>
  </g>
 </g>
 <g fill="none" stroke="#fff" stroke-width=".28222px">
  <path d="m5.0019 107.15h6.9566"/>
  <path d="m28.079 107.15h6.9566"/>
  <path d="m7.0071 120.03h8.764"/>
  <path d="m24.228 120.03h8.8015"/>
 </g>
 <g fill="#fff" stroke-width=".28222" aria-label="TRIGG">
  <path d="m17.997 8.8937q0.07902 0 0.13434 0.055316 0.05532 0.055316 0.05532 0.13434 0 0.079022-0.05532 0.13434-0.05532 0.055315-0.13434 0.055315h-0.32399v2.0862q0 0.07902-0.05532 0.13434-0.05532 0.05532-0.13434 0.05532-0.07902 0-0.13434-0.05532-0.05532-0.05532-0.05532-0.13434v-2.0862h-0.32399q-0.07902 0-0.13434-0.055315-0.05532-0.055316-0.05532-0.13434 0-0.079022 0.05532-0.13434 0.05532-0.055316 0.13434-0.055316z"/>
  <path d="m19.75 9.7787q0 0.1936-0.09878 0.35165-0.09483 0.15409-0.25682 0.23707l0.34375 0.92456q0.03161 0.07507-4e-3 0.14619-0.03161 0.07112-0.10668 0.09878t-0.14619-4e-3q-0.06717-0.03161-0.09878-0.10668l-0.3674-0.98378h-0.21336v0.91666q0 0.07902-0.05532 0.13434-0.05532 0.05532-0.13434 0.05532-0.07902 0-0.13434-0.05532-0.05532-0.05532-0.05532-0.13434v-2.2758q0-0.079022 0.05532-0.13434 0.05532-0.055316 0.13434-0.055316h0.47413q0.13829 0 0.25682 0.051364 0.12248 0.051365 0.21336 0.14224 0.09088 0.090876 0.14224 0.21336 0.05136 0.11853 0.05136 0.25682v0.22126zm-0.94827 0.28448h0.28448q0.11853 0 0.20151-0.082973 0.08297-0.082973 0.08297-0.20151v-0.22126q0-0.11853-0.08297-0.20151-0.08297-0.082973-0.20151-0.082973h-0.28448z"/>
  <path d="m20.239 11.549q-0.07902 0-0.13434-0.05532-0.05532-0.05532-0.05532-0.13434v-2.2916q0-0.079022 0.05532-0.13434 0.05532-0.055315 0.13434-0.055315 0.07902 0 0.13434 0.055315 0.05532 0.055316 0.05532 0.13434v2.2916q0 0.07902-0.05532 0.13434-0.05532 0.05532-0.13434 0.05532z"/>
  <path d="m21.913 10.063q0.07902 0 0.13434 0.05531 0.05532 0.05532 0.05532 0.13434v0.63218q0 0.13829-0.05136 0.26077-0.05136 0.11853-0.14224 0.20941-0.09088 0.09088-0.21336 0.14224-0.11853 0.05136-0.25682 0.05136t-0.26077-0.05136q-0.11853-0.05137-0.20941-0.14224-0.08693-0.09088-0.14224-0.20941-0.05136-0.12248-0.05136-0.26077v-1.3434q0-0.11063 0.03556-0.21336 0.03556-0.10668 0.09878-0.18965 0.06717-0.086924 0.15804-0.14619 0.09088-0.063218 0.20151-0.090876 0.10668-0.027658 0.21731-0.019755 0.11063 0.00395 0.20941 0.047413 0.09878 0.039511 0.18175 0.11063 0.08297 0.07112 0.13829 0.1699 0.03951 0.067169 0.0158 0.14224-0.01975 0.075071-0.08692 0.11853-0.06717 0.039511-0.14224 0.019756-0.07507-0.023707-0.11458-0.090875-0.05137-0.082973-0.14224-0.11853-0.08692-0.039511-0.1778-0.011853-0.09483 0.023707-0.15409 0.10273-0.05927 0.075071-0.05927 0.1699v1.3434q0 0.11853 0.08297 0.20151 0.08693 0.08297 0.20151 0.08297 0.11853 0 0.20151-0.08297 0.08297-0.08297 0.08297-0.20151v-0.44253h-0.20546q-0.07902 0-0.13434-0.05532-0.05532-0.05532-0.05532-0.13434 0-0.07902 0.05532-0.13434 0.05532-0.05531 0.13434-0.05531h0.39511z"/>
  <path d="m23.524 10.063q0.07902 0 0.13434 0.05531 0.05532 0.05532 0.05532 0.13434v0.63218q0 0.13829-0.05137 0.26077-0.05136 0.11853-0.14224 0.20941-0.09088 0.09088-0.21336 0.14224-0.11853 0.05136-0.25682 0.05136t-0.26077-0.05136q-0.11853-0.05137-0.20941-0.14224-0.08692-0.09088-0.14224-0.20941-0.05136-0.12248-0.05136-0.26077v-1.3434q0-0.11063 0.03556-0.21336 0.03556-0.10668 0.09878-0.18965 0.06717-0.086924 0.15804-0.14619 0.09088-0.063218 0.20151-0.090876 0.10668-0.027658 0.21731-0.019755 0.11063 0.00395 0.20941 0.047413 0.09878 0.039511 0.18175 0.11063 0.08297 0.07112 0.13829 0.1699 0.03951 0.067169 0.01581 0.14224-0.01976 0.075071-0.08693 0.11853-0.06717 0.039511-0.14224 0.019756-0.07507-0.023707-0.11458-0.090875-0.05136-0.082973-0.14224-0.11853-0.08692-0.039511-0.1778-0.011853-0.09483 0.023707-0.15409 0.10273-0.05927 0.075071-0.05927 0.1699v1.3434q0 0.11853 0.08297 0.20151 0.08692 0.08297 0.20151 0.08297 0.11853 0 0.20151-0.08297 0.08297-0.08297 0.08297-0.20151v-0.44253h-0.20546q-0.07902 0-0.13434-0.05532-0.05532-0.05532-0.05532-0.13434 0-0.07902 0.05532-0.13434 0.05532-0.05531 0.13434-0.05531h0.39511z"/>
 </g>
 <g fill="#fff" stroke-width=".28222" aria-label="GATE">
  <path d="m18.49 24.022q0.07902 0 0.13434 0.05532 0.05531 0.05532 0.05531 0.13434v0.63218q0 0.13829-0.05136 0.26077-0.05136 0.11853-0.14224 0.20941-0.09088 0.09088-0.21336 0.14224-0.11853 0.05136-0.25682 0.05136t-0.26077-0.05136q-0.11853-0.05136-0.20941-0.14224-0.08692-0.09088-0.14224-0.20941-0.05136-0.12248-0.05136-0.26077v-1.3434q0-0.11063 0.03556-0.21336 0.03556-0.10668 0.09878-0.18965 0.06717-0.08692 0.15804-0.14619 0.09087-0.06322 0.20151-0.09088 0.10668-0.02766 0.21731-0.01976 0.11063 4e-3 0.20941 0.04741 0.09878 0.03951 0.18175 0.11063 0.08297 0.07112 0.13829 0.1699 0.03951 0.06717 0.0158 0.14224-0.01975 0.07507-0.08692 0.11853-0.06717 0.03951-0.14224 0.01976-0.07507-0.02371-0.11458-0.09088-0.05136-0.08297-0.14224-0.11853-0.08692-0.03951-0.1778-0.01185-0.09483 0.02371-0.15409 0.10273-0.05927 0.07507-0.05927 0.1699v1.3434q0 0.11853 0.08297 0.20151 0.08693 0.08297 0.20151 0.08297 0.11853 0 0.20151-0.08297 0.08297-0.08297 0.08297-0.20151v-0.44252h-0.20546q-0.07902 0-0.13434-0.05532-0.05532-0.05532-0.05532-0.13434 0-0.07902 0.05532-0.13434 0.05532-0.05532 0.13434-0.05532h0.39511z"/>
  <path d="m20.473 25.266q0.01976 0.07902-0.01975 0.14619-0.03556 0.06717-0.11063 0.08692-0.07902 0.01976-0.14619-0.01976-0.06717-0.03556-0.08693-0.11063-0.0158-0.04741-0.03161-0.11458-0.01581-0.05532-0.03951-0.13039-0.01975-0.07902-0.04346-0.1699h-0.67169q-0.02766 0.09087-0.04741 0.1699-0.01975 0.07507-0.03556 0.13039-0.0158 0.06717-0.03161 0.11458-0.01975 0.07507-0.08692 0.11063-0.06717 0.03951-0.14619 0.01976-0.07507-0.01976-0.11458-0.08692-0.03556-0.06717-0.01581-0.14619l0.63218-2.2916q0.0158-0.06322 0.06322-0.09878 0.05136-0.03951 0.11853-0.03951 0.06717 0 0.11458 0.03951 0.05136 0.03556 0.06717 0.09878zm-0.58476-0.69144q-0.05532-0.20546-0.11458-0.42277-0.05927-0.21731-0.11458-0.41092-0.05532 0.1936-0.11458 0.41092-0.05927 0.21731-0.11458 0.42277z"/>
  <path d="m21.562 22.852q0.07902 0 0.13434 0.05532 0.05532 0.05532 0.05532 0.13434 0 0.07902-0.05532 0.13434-0.05532 0.05532-0.13434 0.05532h-0.32399v2.0862q0 0.07902-0.05532 0.13434-0.05532 0.05531-0.13434 0.05531-0.07902 0-0.13434-0.05531-0.05532-0.05532-0.05532-0.13434v-2.0862h-0.32399q-0.07902 0-0.13434-0.05532-0.05532-0.05532-0.05532-0.13434 0-0.07902 0.05532-0.13434 0.05532-0.05532 0.13434-0.05532z"/>
  <path d="m21.988 23.042q0-0.07902 0.05532-0.13434 0.05532-0.05532 0.13434-0.05532h0.79022q0.07902 0 0.13434 0.05532 0.05532 0.05532 0.05532 0.13434 0 0.07902-0.05532 0.13434-0.05532 0.05532-0.13434 0.05532h-0.60057v0.7112h0.52155q0.07902 0 0.13434 0.05532 0.05532 0.05532 0.05532 0.13434 0 0.07902-0.05532 0.13434-0.05532 0.05531-0.13434 0.05531h-0.52155v0.79022h0.60057q0.07902 0 0.13434 0.05532 0.05532 0.05532 0.05532 0.13434 0 0.07902-0.05532 0.13434-0.05532 0.05532-0.13434 0.05532h-0.79022q-0.07902 0-0.13434-0.05532-0.05532-0.05532-0.05532-0.13434v-2.26z"/>
 </g>
 <g transform="matrix(.23993 0 0 .23993 -39.859 5.4874)">
  <g transform="matrix(.10651 0 0 .10651 205.15 467.13)" fill="#fff">
   <g fill="#fff">
    <polygon points="606.32 298.07 640.94 298.07 640.94 259.06 537.07 259.06 537.07 362.93 640.94 362.93 640.94 328.3 606.32 328.3 571.69 328.3 571.69 305.22 571.69 289.29 606.32 289.29"/>
    <path d="m415.82 300.99v61.936h34.56v-30.232h34.625v30.232h34.688v-103.87h-61.938zm69.206 10-34.668-2e-3 34.668-31.582z"/>
    <path d="m104.15 259.06v-17.561h-34.668l0.156 121.43h103.87v-103.87zm51.598 56.566h-17.33v15.064h-9.383v-15.064h-3.296l-21.749 15.064v-15.064h-17.041v-8.779h17.041v-15.063l21.748 15.063h3.297v-15.063h9.383v15.063h17.33z"/>
    <path d="m658.25 259.06v103.87h103.87v-103.87zm69.123 69.248h-34.624v-34.623h34.624z"/>
    <polygon points="272.37 311.11 294.7 289.29 294.7 259.06 190.82 259.06 190.82 289.29 253.52 289.29 231.13 310.99 254.39 332.7 190.82 332.7 190.82 362.93 294.7 362.93 294.7 332.7"/>
    <polygon points="312.34 363.05 355.54 363.29 355.54 332.56 375.97 311.11 355.54 289.27 405.68 289.41 436.56 259.18 312.34 259.18 312.34 289.41 333.84 311.11 312.34 332.86"/>
   </g>
  </g>
 </g>
 <g transform="matrix(.048219 .27807 -.27807 .048219 29.314 8.3268)" fill="#fff" stroke="#fff">
  <path d="m49.541 78.821-18.334 1.826" stroke-width=".99921"/>
  <path transform="matrix(1.6875 -.17855 .17555 1.6591 -391.06 -20.77)" d="m239.86 87.252 2.2675-1.3091v2.6183z" enable-background="new" stroke-linecap="square" stroke-width=".59385"/>
 </g>
 <g transform="matrix(.048219 .27807 -.27807 .048219 36.158 10.796)">
  <path d="m5.1621 85.971 3.7681-12.404" fill="#fff" stroke="#fff" stroke-width="1.3535"/>
 </g>
 <g fill="#fff" stroke="#fff" stroke-width=".28222px">
  <path d="m5.001 93.465v3.0236"/>
  <path d="m15.174 93.465v3.0236"/>
  <path d="m25.347 93.465v3.0236"/>
  <path d="m35.52 93.465v3.0236"/>
 </g>
 <g fill="none" stroke="#fff">
  <g>
   <path transform="scale(-1,1)" d="m-34.626 36.176a6.733 6.7323 0 0 1 1.2594-8.7453 6.733 6.7323 0 0 1 8.8363 0.03319 6.733 6.7323 0 0 1 1.1937 8.7545" stroke-linejoin="round" stroke-width=".3"/>
   <g>
    <path d="m33.106 36.408c-0.79601-0.04181-1.2627 0.68084-1.2199 1.9195" stroke-width=".3"/>
    <path d="m34.579 37.249c-0.02778 0.62977 0.28414 0.99463 1.1074 0.96078" stroke-width=".3"/>
    <path d="m32.977 36.333c-0.01729 0.67454 0.17685 1.0653 0.68924 1.0291" stroke-width=".3"/>
   </g>
  </g>
  <g stroke-linejoin="round">
   <path d="m33.598 37.366h0.98632" stroke-linecap="square" stroke-width=".3"/>
   <path d="m23.133 38.249 1.1079-1.8375v0l0.4864 0.97281h1.1079l0.59449 0.86472" stroke-linecap="square" stroke-width=".3"/>
   <ellipse transform="scale(-1,1)" cx="-11.535" cy="32.527" rx="6.733" ry="6.7323" stroke-width=".3"/>
   <path transform="scale(-1,1)" d="m-4.1039 32.483a7.4315 7.4308 0 0 1-3.703 6.4715 7.4315 7.4308 0 0 1-7.4566 1.55e-4 7.4315 7.4308 0 0 1-3.7032-6.4713" stroke-width=".3"/>
  </g>
 </g>
 <g stroke="#fff">
  <g transform="matrix(.21188 0 0 .19872 -.39335 21.383)" fill="none" stroke-width="1.8616">
   <g stroke-linecap="round">
    <path d="m8.4532 292.05 177.82 3.5e-4"/>
    <path d="m8.4532 288.05h177.82"/>
    <path d="m8.4532 282.05h177.82"/>
    <path d="m8.4532 272.05h177.82"/>
    <path d="m8.4532 256.05h177.82"/>
    <path d="m8.4532 232.05h177.82"/>
    <path d="m8.4532 196.05h177.82"/>
   </g>
   <path d="m8.4532 142.05h177.82"/>
  </g>
  <ellipse transform="scale(-1,1)" cx="-6.8456" cy="15.465" rx="5.6597" ry="5.6591" fill="none" stroke-linejoin="round" stroke-width=".3"/>
  <ellipse transform="scale(-1,1)" cx="-20.264" cy="40.832" rx="1.9261" ry="1.9259" stroke-linejoin="round" stroke-width=".286"/>
 </g>
 <g fill="#fff" stroke-width=".26458" aria-label="VC ADSR">
  <path d="m13.811 2.9413q-0.02469-0.098778 0.01975-0.18274 0.04939-0.083961 0.14817-0.10866 0.09384-0.024694 0.1778 0.024694 0.0889 0.04445 0.1136 0.13829 0.09384 0.35066 0.19262 0.70626 0.08396 0.30621 0.18274 0.66181 0.09878 0.3556 0.18768 0.67169 0.08396-0.31609 0.18274-0.67169 0.09878-0.3556 0.18274-0.66181 0.09384-0.3556 0.19262-0.70626 0.02469-0.093839 0.10866-0.13829 0.0889-0.049389 0.18274-0.024694 0.09878 0.024694 0.14323 0.10866 0.04939 0.083961 0.02469 0.18274l-0.79022 2.8646q-0.02469 0.079022-0.0889 0.12347-0.05927 0.049389-0.13829 0.049389-0.08396 0-0.14817-0.049389-0.05927-0.04445-0.08396-0.12347z"/>
  <path d="m16.745 5.9491q-0.13335-0.034572-0.24694-0.10866-0.1136-0.079022-0.19756-0.18274-0.079022-0.10866-0.12347-0.23707-0.04445-0.12841-0.04445-0.27164v-1.6792q0-0.13829 0.04445-0.2667 0.04445-0.13335 0.12347-0.23707 0.08396-0.10866 0.19756-0.18274 0.11359-0.079022 0.24694-0.11359 0.27658-0.074083 0.5334 0.034572 0.25682 0.10372 0.40005 0.35066 0.05433 0.083961 0.02469 0.1778-0.02469 0.093839-0.10866 0.14817-0.08396 0.049389-0.1778 0.024694-0.09384-0.029633-0.14817-0.11359-0.05927-0.10372-0.17286-0.14817-0.10866-0.049389-0.22719-0.014817-0.11359 0.029633-0.18768 0.12841-0.07408 0.093839-0.07408 0.21237v1.6792q0 0.12347 0.07408 0.21731 0.07408 0.093839 0.18768 0.12841 0.11853 0.029633 0.22719-0.014817 0.1136-0.049389 0.17286-0.15311 0.05433-0.083961 0.14817-0.10866 0.09384-0.029633 0.1778 0.019755 0.08396 0.054328 0.10866 0.14817 0.02963 0.093839-0.02469 0.1778-0.14323 0.24694-0.40005 0.35066-0.25682 0.10866-0.5334 0.034572z"/>
  <path d="m20.869 5.6774q0.0247 0.098778-0.02469 0.18274-0.04445 0.083961-0.13829 0.10866-0.09878 0.024694-0.18274-0.024695-0.08396-0.04445-0.10866-0.13829-0.01975-0.059267-0.03951-0.14323-0.01975-0.069145-0.04939-0.16298-0.02469-0.098778-0.05433-0.21237h-0.83961q-0.03457 0.11359-0.05927 0.21237-0.0247 0.093839-0.04445 0.16298-0.01976 0.083961-0.03951 0.14323-0.02469 0.093839-0.10866 0.13829-0.08396 0.049389-0.18274 0.024695-0.09384-0.024695-0.14323-0.10866-0.04445-0.083961-0.01975-0.18274l0.79022-2.8646q0.01975-0.079022 0.07902-0.12347 0.06421-0.049389 0.14817-0.049389 0.08396 0 0.14323 0.049389 0.06421 0.04445 0.08396 0.12347zm-0.73096-0.86431q-0.069144-0.25682-0.14323-0.52846-0.074084-0.27164-0.14323-0.51364-0.069145 0.24201-0.14323 0.51364-0.074083 0.27164-0.14323 0.52846z"/>
  <path d="m22.005 2.6598q0.17286 0 0.32103 0.064205 0.15311 0.064206 0.2667 0.1778 0.1136 0.11359 0.1778 0.2667 0.06421 0.14817 0.06421 0.32103v1.6397q0 0.17286-0.06421 0.32597-0.06421 0.14817-0.1778 0.26176-0.11359 0.11359-0.2667 0.1778-0.14817 0.064206-0.32103 0.064206h-0.59267q-0.09878 0-0.16792-0.069145-0.06914-0.069144-0.06914-0.16792v-2.825q0-0.098778 0.06914-0.16792 0.06915-0.069144 0.16792-0.069144zm0.3556 0.82973q0-0.14817-0.10372-0.25188-0.10372-0.10372-0.25188-0.10372h-0.3556v2.3509h0.3556q0.14817 0 0.25188-0.10372 0.10372-0.10372 0.10372-0.25188v-1.6397z"/>
  <path d="m24.173 5.4256q0.06914-0.049389 0.10372-0.11853 0.03457-0.069145 0.04445-0.15311 0.01482-0.16792-0.10372-0.29633l-0.79022-0.80998q-0.12841-0.12841-0.18768-0.29633-0.05927-0.16792-0.04445-0.34572 0.01482-0.1778 0.09878-0.33091 0.08396-0.15804 0.22719-0.2667 0.14323-0.10866 0.31609-0.14817 0.1778-0.039511 0.35066-0.00494 0.17286 0.039511 0.31609 0.14323 0.14817 0.098778 0.23707 0.25682 0.04939 0.083961 0.01976 0.1778-0.02469 0.093839-0.10866 0.14817-0.08396 0.049389-0.1778 0.024694-0.09384-0.029633-0.14323-0.11359-0.08396-0.13335-0.23707-0.17286-0.15804-0.029633-0.28646 0.069145-0.12841 0.093839-0.13829 0.25682-0.01482 0.15804 0.09878 0.27164l0.78528 0.80998q0.12841 0.13335 0.19262 0.30621 0.06421 0.17286 0.04939 0.3556-0.01482 0.18768-0.10372 0.34572-0.0889 0.15804-0.23213 0.27164-0.14817 0.11359-0.32597 0.15311-0.1778 0.039511-0.36054 0.00494-0.18274-0.039511-0.33091-0.14323-0.14817-0.10866-0.23707-0.2667-0.05433-0.083961-0.02963-0.1778 0.02963-0.098778 0.1136-0.14817 0.08396-0.049389 0.1778-0.019756 0.09384 0.024695 0.14817 0.10866 0.08396 0.14323 0.25188 0.18274 0.17286 0.029633 0.30621-0.074083z"/>
  <path d="m26.835 3.7661q0 0.24201-0.12347 0.43956-0.11853 0.19262-0.32103 0.29633l0.42968 1.1557q0.03951 0.093839-0.0049 0.18274-0.03951 0.0889-0.13335 0.12347-0.09384 0.034572-0.18274-0.00494-0.08396-0.039511-0.12347-0.13335l-0.45936-1.2298h-0.2667v1.1458q0 0.098778-0.06914 0.16792-0.06915 0.069144-0.16792 0.069144-0.09878 0-0.16792-0.069144-0.06914-0.069145-0.06914-0.16792v-2.8448q0-0.098778 0.06914-0.16792 0.06915-0.069144 0.16792-0.069144h0.59267q0.17286 0 0.32103 0.064205 0.15311 0.064206 0.2667 0.1778 0.1136 0.11359 0.1778 0.2667 0.06421 0.14817 0.06421 0.32103v0.27658zm-1.1853 0.3556h0.3556q0.14817 0 0.25188-0.10372 0.10372-0.10372 0.10372-0.25188v-0.27658q0-0.14817-0.10372-0.25188-0.10372-0.10372-0.25188-0.10372h-0.3556z"/>
 </g>
 <g display="none">
  <g transform="matrix(.35278 0 0 -.35278 .00017191 128.38)" display="inline">
   <g clip-path="url(#clipPath11862-7)"></g>
  </g>
  <circle cx="5.001" cy="92.893" r="1" display="inline" fill="#f0f"/>
  <g transform="matrix(.35278 0 0 -.35278 -251.97 88.493)" display="inline" stroke="#fff"></g>
  <g transform="matrix(.35278 0 0 -.35278 17.398 128.5)" display="inline">
   <g transform="matrix(.83331 0 0 .83331 -573.55 140.44)" stroke="#fff" stroke-width="1.2"></g>
  </g>
  <g fill="#00f">
   <circle cx="5.0221" cy="100.86" r="2.1199" display="inline"/>
   <circle cx="15.195" cy="100.86" r="2.1199" display="inline"/>
   <circle cx="25.368" cy="100.86" r="2.1199" display="inline"/>
   <circle cx="35.541" cy="100.86" r="2.1199" display="inline"/>
  </g>
  <g fill="#f0f">
   <circle cx="15.174" cy="92.893" r="1" display="inline"/>
   <circle cx="25.347" cy="92.893" r="1" display="inline"/>
   <circle cx="35.52" cy="92.893" r="1" display="inline"/>
  </g>
  <circle cx="6.8414" cy="15.5" r="2.2679" fill="#0f0" stroke-linejoin="round" stroke-width=".353"/>
  <circle cx="20.254" cy="40.864" r="1" display="inline" fill="#f0f"/>
  <g fill="#0f0">
   <circle cx="5.0221" cy="113.51" r="2.1199" display="inline"/>
   <circle cx="15.195" cy="113.51" r="2.1199" display="inline"/>
   <circle cx="25.368" cy="113.51" r="2.1199" display="inline"/>
   <circle cx="35.541" cy="113.51" r="2.1199" display="inline"/>
  </g>
  <circle cx="33.721" cy="15.479" r="2.2679" fill="#00f" stroke-linejoin="round" stroke-width=".353"/>
  <g fill="#f00">
   <g stroke-linejoin="round" stroke-width=".353">
    <circle cx="20.263" cy="17.128" r="2.2679"/>
    <circle cx="11.581" cy="32.473" r="2.2679"/>
    <circle cx="29.063" cy="32.573" r="2.2679"/>
   </g>
   <g fill-rule="evenodd">
    <rect x="2.2937" y="44.632" width="6.5081" height="35.61" display="inline" style="paint-order:normal"/>
    <rect x="12.422" y="44.632" width="6.5081" height="35.61" display="inline" style="paint-order:normal"/>
    <rect x="22.551" y="44.632" width="6.5081" height="35.61" display="inline" style="paint-order:normal"/>
    <rect x="32.68" y="44.632" width="6.5081" height="35.61" display="inline" style="paint-order:normal"/>
   </g>
  </g>
 </g>
</svg>
