<?xml version="1.0" encoding="UTF-8"?>
<!-- Created with Inkscape (http://www.inkscape.org/) -->
<svg width="40.64mm" height="128.5mm" version="1.1" viewBox="0 0 40.64 128.5" xmlns="http://www.w3.org/2000/svg" xmlns:cc="http://creativecommons.org/ns#" xmlns:dc="http://purl.org/dc/elements/1.1/" xmlns:rdf="http://www.w3.org/1999/02/22-rdf-syntax-ns#">
 <metadata>
  <rdf:RDF>
   <cc:Work rdf:about="">
    <dc:format>image/svg+xml</dc:format>
    <dc:type rdf:resource="http://purl.org/dc/dcmitype/StillImage"/>
   </cc:Work>
  </rdf:RDF>
 </metadata>
 <g transform="translate(0,-168.5)">
  <path d="m0 168.5h40.64v128.5h-40.64z" fill="#171717"/>
  <path transform="translate(0,168.5)" d="m12.801 108.66h24.895c1.3993 0 2.5257 1.1265 2.5257 2.5257v4.6005c0 1.3993-1.1265 2.5257-2.5257 2.5257h-24.895c-1.3993 0-2.5257-1.1265-2.5257-2.5257v-4.6005c0-1.3993 1.1265-2.5257 2.5257-2.5257z" fill="#fff"/>
  <g fill="none" stroke="#fff" stroke-linecap="square" stroke-width=".282">
   <path transform="translate(0,168.5)" d="m36.824 30.441a5.3832 5.3832 0 0 1 0.3037 7.605 5.3832 5.3832 0 0 1-7.6049 0.30746 5.3832 5.3832 0 0 1-0.31122-7.6047 5.3832 5.3832 0 0 1 7.6046-0.31497"/>
   <path transform="translate(0,168.5)" d="m33.186 28.006a6.3933 6.3903 0 0 1 6.3099 6.3812 6.3933 6.3903 0 0 1-6.2927 6.3981"/>
   <path transform="translate(0,168.5)" d="m33.171 27.123a7.272 7.272 0 0 1 7.272 7.272 7.272 7.272 0 0 1-7.272 7.272"/>
   <path transform="translate(0,168.5)" d="m33.171 26.108a8.2872 8.2872 0 0 1 7.382 4.521"/>
   <path transform="translate(0,168.5)" d="m33.171 25.173a9.2222 9.2222 0 0 1 7.3359 3.6335"/>
  </g>
  <g fill="#fff">
   <g stroke-width=".025556">
    <path d="m23.902 293.46h0.88486l2.5e-5 0.22436h0.88486v-0.99703h-2.6546v2.6546h2.6546v-0.88488h-1.7697v-0.5899z"/>
    <path d="m19.919 293.76v1.5828h0.88323v-0.77262h0.88489v0.77262h0.8865v-2.6546h-1.5829zm1.7686 0.25556-0.88599-5e-5 0.88599-0.80712z"/>
    <path d="m11.954 292.69v-0.44879h-0.88599l4e-3 3.1034h2.6546v-2.6546zm1.3187 1.4456h-0.44289v0.38498h-0.2398v-0.38498h-0.08423l-0.55582 0.38498v-0.38498h-0.4355v-0.22436h0.4355v-0.38495l0.5558 0.38495h0.08426v-0.38495h0.2398v0.38495h0.44289z"/>
    <path d="m26.114 292.69v2.6546h2.6546v-2.6546zm1.7665 1.7697h-0.88486v-0.88484h0.88486z"/>
    <path d="m16.823 295.34v-0.77264l-0.57072-0.55158 0.57072-0.55772v-0.77267h-2.6546v0.77267h1.6022l-0.57216 0.55465 0.59459 0.55465h-1.6246v0.77264z"/>
    <path d="m18.378 294.57 0.52201-0.54808-0.52201-0.55815 1.2814 4e-3 0.78897-0.77267h-3.1744v0.77267l0.54926 0.55465-0.54926 0.5559v0.77139l1.104 6e-3z"/>
   </g>
   <g>
    <path d="m16.569 170.64v-0.20478c0-0.52902-0.43232-0.95565-0.95565-0.95565h-0.68261c-0.15359 0-0.27304 0.12515-0.27304 0.27305v3.2538c0 0.15359 0.11946 0.27304 0.27304 0.27304h0.68261c0.52333 0 0.95565-0.42663 0.95565-0.95565v-0.31854c0-0.26736-0.11377-0.50627-0.29011-0.68261 0.17634-0.17065 0.29011-0.41525 0.29011-0.68261zm-0.54608 1.3652v0.31854c0 0.22754-0.18203 0.40957-0.40956 0.40957h-0.40956v-1.1377h0.40956c0.22754 0 0.40956 0.18203 0.40956 0.40957zm-0.81913-0.95565v-1.0239h0.40956c0.22754 0 0.40956 0.18203 0.40956 0.40956v0.20478c0 0.22754-0.18203 0.40957-0.40956 0.40957z"/>
    <path d="m17.591 172.35v-2.6167c0-0.14789-0.12514-0.27304-0.27304-0.27304-0.15359 0-0.27304 0.12515-0.27304 0.27304v2.6167c0 0.52902 0.42663 0.95565 0.95565 0.95565 0.52333 0 0.95565-0.42663 0.95565-0.95565v-2.6167c0-0.14789-0.12514-0.27304-0.27304-0.27304-0.15359 0-0.27304 0.12515-0.27304 0.27304v2.6167c0 0.22753-0.18772 0.40956-0.40956 0.40956-0.22754 0-0.40956-0.18203-0.40956-0.40956z"/>
    <path d="m21.413 170.76v-0.31855c0-0.52902-0.42663-0.95565-0.95565-0.95565h-0.68261c-0.1479 0-0.27304 0.12515-0.27304 0.27305v3.2765c0 0.15359 0.12514 0.27305 0.27304 0.27305 0.15359 0 0.27304-0.11946 0.27304-0.27305v-1.3197h0.30717l0.52902 1.4164c0.05688 0.14221 0.21047 0.21047 0.35268 0.15927 0.14221-0.0512 0.21616-0.21047 0.15928-0.35268l-0.49489-1.3311c0.30717-0.15927 0.51195-0.47782 0.51195-0.84757zm-1.3652-0.72811h0.40956c0.22754 0 0.40956 0.18203 0.40956 0.40956v0.31855c0 0.22754-0.18203 0.40957-0.40956 0.40957h-0.40956z"/>
    <path d="m22.886 172.67c-0.10239 0.0796-0.22754 0.10808-0.35268 0.0853-0.12514-0.0284-0.22754-0.10239-0.29011-0.21047-0.07964-0.13083-0.2446-0.17634-0.37543-0.10239-0.13083 0.0739-0.17634 0.2446-0.0967 0.37544 0.13652 0.23891 0.37543 0.41525 0.65416 0.47213 0.27873 0.0512 0.56315-0.0114 0.79068-0.18203 0.22185-0.17065 0.36406-0.42663 0.38681-0.71104 0.02275-0.27874-0.07964-0.55747-0.27873-0.76225l-0.90446-0.93289c-0.08533-0.0853-0.12514-0.1991-0.11377-0.31286 0.0057-0.11946 0.06257-0.22754 0.15927-0.2958 0.0967-0.0739 0.21047-0.10239 0.32993-0.0796 0.11377 0.0285 0.21047 0.0967 0.27304 0.1991 0.07395 0.13083 0.23891 0.17634 0.36974 0.10239 0.13083-0.0796 0.17634-0.2446 0.10239-0.37543-0.13652-0.23892-0.36974-0.40388-0.6371-0.46076-0.26735-0.0512-0.55177 0.0114-0.76793 0.17634-0.21616 0.16496-0.35268 0.41525-0.37543 0.68829-0.02275 0.27304 0.07395 0.54608 0.26735 0.73949l0.91014 0.93289c0.08533 0.091 0.13083 0.21616 0.11946 0.34131-0.01138 0.12514-0.06826 0.23891-0.17065 0.31286z"/>
    <path d="m24.091 169.48c-0.1479 0-0.27304 0.12515-0.27304 0.27305 0 0.15358 0.12514 0.27304 0.27304 0.27304h0.46645v3.0035c0 0.15359 0.12514 0.27305 0.27304 0.27305 0.15359 0 0.27304-0.11946 0.27304-0.27305v-3.0035h0.46645c0.15359 0 0.27304-0.11946 0.27304-0.27304 0-0.1479-0.11946-0.27305-0.27304-0.27305z"/>
   </g>
  </g>
  <g fill="none" stroke="#fff">
   <path transform="translate(0,168.5)" d="m15.269 110.97v-5.1769" stroke-width=".582"/>
   <path transform="translate(0,168.5)" d="m35.202 110.33v-4.5349" stroke-width=".582"/>
   <path transform="translate(0,168.5)" d="m22.971 22.342a7.8473 7.8473 0 0 1-7.8473 7.8473 7.8473 7.8473 0 0 1-7.8473-7.8473 7.8473 7.8473 0 0 1 7.8473-7.8473 7.8473 7.8473 0 0 1 7.8473 7.8473z" stroke-width=".9"/>
  </g>
  <g fill="#fff">
   <path d="m11.478 287.47c-0.10273 0-0.18965 0.0869-0.18965 0.18965 0 0.10668 0.08693 0.18965 0.18965 0.18965h0.32399v2.0862c0 0.10668 0.08692 0.18965 0.18965 0.18965 0.10668 0 0.18965-0.083 0.18965-0.18965v-2.0862h0.32399c0.10668 0 0.18965-0.083 0.18965-0.18965 0-0.10273-0.08297-0.18965-0.18965-0.18965z"/>
   <path d="m12.935 287.66v2.26c0 0.10668 0.08692 0.18966 0.18965 0.18966h0.79022c0.10668 0 0.18965-0.083 0.18965-0.18966 0-0.10272-0.08297-0.18965-0.18965-0.18965h-0.60057v-0.79022h0.52155c0.10668 0 0.18965-0.083 0.18965-0.18965 0-0.10273-0.08297-0.18966-0.18965-0.18966h-0.52155v-0.7112h0.60057c0.10668 0 0.18965-0.083 0.18965-0.18965 0-0.10273-0.08297-0.18965-0.18965-0.18965h-0.79022c-0.10273 0-0.18965 0.0869-0.18965 0.18965z"/>
   <path d="m14.558 290.13c0.10273 0 0.18965-0.083 0.18965-0.18965v-1.4422c0.13039 0.28053 0.26868 0.57291 0.26868 0.57291 0.03161 0.0672 0.09878 0.11064 0.17385 0.11064 0.07112 0 0.13829-0.0435 0.1699-0.11064 0 0 0.13829-0.29238 0.27263-0.57291v1.4422c0 0.10668 0.08297 0.18965 0.18965 0.18965 0.10273 0 0.18965-0.083 0.18965-0.18965v-2.2916c0-0.0869-0.06322-0.16594-0.15014-0.1857-0.08692-0.0197-0.17385 0.0237-0.21336 0.10668 0 0-0.27658 0.58872-0.45833 0.97593-0.18175-0.38721-0.46228-0.97593-0.46228-0.97593-0.03556-0.083-0.12644-0.12643-0.21336-0.10668-0.08692 0.0198-0.14619 0.0988-0.14619 0.1857v2.2916c0 0.10668 0.08297 0.18965 0.18965 0.18965z"/>
   <path d="m16.404 287.66v2.2758c0 0.10668 0.08297 0.18965 0.18965 0.18965 0.10273 0 0.18965-0.083 0.18965-0.18965v-0.91666h0.28448c0.36745 0 0.66379-0.29633 0.66379-0.66379v-0.22126c0-0.36745-0.29633-0.66378-0.66379-0.66378h-0.47413c-0.10668 0-0.18965 0.0869-0.18965 0.18965zm0.94827 0.47413v0.22126c0 0.15805-0.12644 0.28448-0.28448 0.28448h-0.28448v-0.79022h0.28448c0.15804 0 0.28448 0.12644 0.28448 0.28448z"/>
   <path d="m18.586 290.13c0.36745 0 0.66379-0.29633 0.66379-0.66378v-1.3434c0-0.36746-0.29633-0.66379-0.66379-0.66379-0.36745 0-0.66379 0.29633-0.66379 0.66379v1.3434c0 0.36745 0.29633 0.66378 0.66379 0.66378zm0-2.2916c0.15804 0 0.28448 0.12643 0.28448 0.28448v1.3434c0 0.15804-0.12644 0.28448-0.28448 0.28448-0.15804 0-0.28448-0.12644-0.28448-0.28448v-1.3434c0-0.15805 0.12644-0.28448 0.28448-0.28448z"/>
   <path d="m13.429 269.64v2.032c0 0.0952 0.07408 0.16933 0.16933 0.16933 0.09172 0 0.16933-0.0741 0.16933-0.16933v-0.81845h0.254c0.32808 0 0.59267-0.26458 0.59267-0.59266v-0.19756c0-0.32808-0.26458-0.59266-0.59267-0.59266h-0.42333c-0.09525 0-0.16933 0.0776-0.16933 0.16933zm0.84667 0.42333v0.19756c0 0.14111-0.11289 0.254-0.254 0.254h-0.254v-0.70556h0.254c0.14111 0 0.254 0.11289 0.254 0.254z"/>
   <path d="m16.012 270.26v-0.19756c0-0.32808-0.26458-0.59266-0.59267-0.59266h-0.42333c-0.09172 0-0.16933 0.0776-0.16933 0.16933v2.032c0 0.0952 0.07761 0.16933 0.16933 0.16933 0.09525 0 0.16933-0.0741 0.16933-0.16933v-0.81845h0.1905l0.32808 0.87842c0.03528 0.0882 0.13053 0.13053 0.21872 0.0988 0.08819-0.0318 0.13406-0.13053 0.09878-0.21872l-0.30692-0.8255c0.1905-0.0988 0.3175-0.29634 0.3175-0.52564zm-0.84667-0.45156h0.254c0.14111 0 0.254 0.11289 0.254 0.254v0.19756c0 0.14111-0.11289 0.254-0.254 0.254h-0.254z"/>
   <path d="m16.829 271.84c0.32808 0 0.59267-0.26458 0.59267-0.59266v-1.1994c0-0.32808-0.26458-0.59267-0.59267-0.59267-0.32808 0-0.59267 0.26459-0.59267 0.59267v1.1994c0 0.32808 0.26458 0.59266 0.59267 0.59266zm0-2.0461c0.14111 0 0.254 0.11289 0.254 0.254v1.1994c0 0.14111-0.11289 0.254-0.254 0.254-0.14111 0-0.254-0.11289-0.254-0.254v-1.1994c0-0.14111 0.11289-0.254 0.254-0.254z"/>
   <path d="m18.917 270.19v-0.127c0-0.32808-0.26811-0.59266-0.59267-0.59266h-0.42333c-0.09525 0-0.16933 0.0776-0.16933 0.16933v2.0179c0 0.0952 0.07408 0.16933 0.16933 0.16933h0.42333c0.32456 0 0.59267-0.26458 0.59267-0.59267v-0.19755c0-0.16581-0.07056-0.31397-0.17992-0.42333 0.10936-0.10584 0.17992-0.25753 0.17992-0.42334zm-0.33867 0.84667v0.19755c0 0.14112-0.11289 0.254-0.254 0.254h-0.254v-0.70555h0.254c0.14111 0 0.254 0.11289 0.254 0.254zm-0.508-0.59267v-0.635h0.254c0.14111 0 0.254 0.11289 0.254 0.254v0.127c0 0.14111-0.11289 0.254-0.254 0.254z"/>
   <path d="m19.932 269.58c-0.01764-0.0741-0.08467-0.12348-0.16228-0.12348-0.07761 0-0.14464 0.0494-0.16228 0.12348l-0.56444 2.0461c-0.02469 0.0917 0.02822 0.18344 0.11642 0.20814 0.09172 0.0247 0.18344-0.0282 0.20814-0.11642 0 0 0.04233-0.15169 0.10231-0.37042h0.59972c0.05997 0.21873 0.10231 0.37042 0.10231 0.37042 0.02469 0.0882 0.11642 0.14111 0.20814 0.11642 0.08819-0.0247 0.14111-0.11642 0.11642-0.20814zm-0.36689 1.4288c0.06703-0.24342 0.14111-0.51506 0.20461-0.74436 0.0635 0.2293 0.13758 0.50094 0.20461 0.74436z"/>
   <path d="m21.885 270.19v-0.127c0-0.32808-0.26811-0.59266-0.59267-0.59266h-0.42333c-0.09525 0-0.16933 0.0776-0.16933 0.16933v2.0179c0 0.0952 0.07408 0.16933 0.16933 0.16933h0.42333c0.32456 0 0.59267-0.26458 0.59267-0.59267v-0.19755c0-0.16581-0.07056-0.31397-0.17992-0.42333 0.10936-0.10584 0.17992-0.25753 0.17992-0.42334zm-0.33867 0.84667v0.19755c0 0.14112-0.11289 0.254-0.254 0.254h-0.254v-0.70555h0.254c0.14111 0 0.254 0.11289 0.254 0.254zm-0.508-0.59267v-0.635h0.254c0.14111 0 0.254 0.11289 0.254 0.254v0.127c0 0.14111-0.11289 0.254-0.254 0.254z"/>
   <path d="m22.363 271.84c0.09525 0 0.16933-0.0741 0.16933-0.16933v-2.0461c0-0.0917-0.07408-0.16934-0.16933-0.16934-0.09172 0-0.16933 0.0776-0.16933 0.16934v2.0461c0 0.0952 0.07761 0.16933 0.16933 0.16933z"/>
   <path d="m23.051 271.82h0.70556c0.09172 0 0.16933-0.0741 0.16933-0.16933 0-0.0917-0.07761-0.16934-0.16933-0.16934h-0.53622v-1.8627c0-0.0917-0.07761-0.16934-0.16933-0.16934-0.09525 0-0.16933 0.0776-0.16933 0.16934v2.032c0 0.0952 0.07408 0.16933 0.16933 0.16933z"/>
   <path d="m24.262 271.84c0.09525 0 0.16933-0.0741 0.16933-0.16933v-2.0461c0-0.0917-0.07408-0.16934-0.16933-0.16934-0.09172 0-0.16933 0.0776-0.16933 0.16934v2.0461c0 0.0952 0.07761 0.16933 0.16933 0.16933z"/>
   <path d="m24.809 269.47c-0.09172 0-0.16933 0.0776-0.16933 0.16933 0 0.0953 0.07761 0.16933 0.16933 0.16933h0.28928v1.8627c0 0.0952 0.07761 0.16933 0.16933 0.16933 0.09525 0 0.16933-0.0741 0.16933-0.16933v-1.8627h0.28928c0.09525 0 0.16933-0.0741 0.16933-0.16933 0-0.0917-0.07408-0.16933-0.16933-0.16933z"/>
   <path d="m26.635 271.84c0.09172 0 0.16933-0.0741 0.16933-0.16933v-1.0195l0.47625-0.94897c0.04233-0.0847 0.0071-0.18697-0.07761-0.22931-0.08114-0.0423-0.18344-7e-3 -0.22578 0.0776 0 0-0.19756 0.39159-0.34219 0.68439-0.14464-0.2928-0.34219-0.68439-0.34219-0.68439-0.04233-0.0847-0.14464-0.11994-0.22578-0.0776-0.08467 0.0423-0.11994 0.14464-0.07761 0.22931l0.47625 0.94897v1.0195c0 0.0952 0.07408 0.16933 0.16933 0.16933z"/>
   <path d="m18.284 253.64c-0.09172 0-0.16933 0.0776-0.16933 0.16934 0 0.0952 0.07761 0.16933 0.16933 0.16933h0.28928v1.8627c0 0.0952 0.07761 0.16933 0.16933 0.16933 0.09525 0 0.16933-0.0741 0.16933-0.16933v-1.8627h0.28928c0.09525 0 0.16933-0.0741 0.16933-0.16933 0-0.0917-0.07408-0.16934-0.16933-0.16934z"/>
   <path d="m19.751 256.02c0.09525 0 0.16933-0.0741 0.16933-0.16933v-2.0461c0-0.0917-0.07408-0.16934-0.16933-0.16934-0.09172 0-0.16933 0.0776-0.16933 0.16934v2.0461c0 0.0952 0.07761 0.16933 0.16933 0.16933z"/>
   <path d="m20.437 256.02c0.09172 0 0.16933-0.0741 0.16933-0.16933v-1.2876c0.11642 0.25047 0.23989 0.51152 0.23989 0.51152 0.02822 0.06 0.08819 0.0988 0.15522 0.0988 0.0635 0 0.12347-0.0388 0.1517-0.0988 0 0 0.12347-0.26105 0.24342-0.51152v1.2876c0 0.0952 0.07408 0.16933 0.16933 0.16933 0.09172 0 0.16933-0.0741 0.16933-0.16933v-2.0461c0-0.0776-0.05645-0.14817-0.13406-0.16581-0.07761-0.0176-0.15522 0.0212-0.1905 0.0953 0 0-0.24694 0.52564-0.40922 0.87136-0.16228-0.34572-0.41275-0.87136-0.41275-0.87136-0.03175-0.0741-0.11289-0.11289-0.1905-0.0953-0.07761 0.0176-0.13053 0.0882-0.13053 0.16581v2.0461c0 0.0952 0.07408 0.16933 0.16933 0.16933z"/>
   <path d="m22.084 253.81v2.0179c0 0.0953 0.07761 0.16934 0.16933 0.16934h0.70556c0.09525 0 0.16933-0.0741 0.16933-0.16934 0-0.0917-0.07408-0.16933-0.16933-0.16933h-0.53622v-0.70555h0.46567c0.09525 0 0.16933-0.0741 0.16933-0.16934 0-0.0917-0.07408-0.16933-0.16933-0.16933h-0.46567v-0.635h0.53622c0.09525 0 0.16933-0.0741 0.16933-0.16933 0-0.0917-0.07408-0.16934-0.16933-0.16934h-0.70556c-0.09172 0-0.16933 0.0776-0.16933 0.16934z"/>
   <path d="m24.19 253.64c-0.09525 0-0.16933 0.0776-0.16933 0.16934v2.0179c0 0.0953 0.07408 0.16934 0.16933 0.16934h0.42333c0.32808 0 0.59267-0.26459 0.59267-0.59267v-1.1712c0-0.32808-0.26458-0.59267-0.59267-0.59267zm0.67733 0.59267v1.1712c0 0.14111-0.11289 0.254-0.254 0.254h-0.254v-1.6792h0.254c0.14111 0 0.254 0.11289 0.254 0.254z"/>
   <path d="m25.682 256.02c0.09525 0 0.16933-0.0741 0.16933-0.16933v-2.0461c0-0.0917-0.07408-0.16934-0.16933-0.16934-0.09172 0-0.16933 0.0776-0.16933 0.16934v2.0461c0 0.0952 0.07761 0.16933 0.16933 0.16933z"/>
   <path d="m26.643 255.89c0.02117 0.0741 0.0882 0.12347 0.16581 0.12347 0.07408 0 0.14111-0.0494 0.16228-0.12347l0.56444-2.0461c0.02469-0.0917-0.02822-0.18345-0.11994-0.20814-0.0882-0.0247-0.18344 0.0282-0.20814 0.11641 0 0-0.23636 0.85725-0.39864 1.457-0.16581-0.59973-0.40217-1.457-0.40217-1.457-0.02469-0.0882-0.11994-0.14111-0.20814-0.11641-0.09172 0.0247-0.14464 0.11641-0.11994 0.20814z"/>
   <path d="m28.793 253.5c-0.08819-0.0318-0.18697 0.0141-0.21872 0.10231l-0.84667 2.3283c-0.03175 0.0882 0.01411 0.18345 0.1023 0.2152 0.08819 0.0318 0.18344-0.0141 0.2152-0.10231l0.84667-2.3283c0.03528-0.0847-0.01058-0.18345-0.09878-0.2152z"/>
   <path d="m29.379 256.02c0.09172 0 0.16933-0.0741 0.16933-0.16933v-1.2876c0.11642 0.25047 0.23989 0.51152 0.23989 0.51152 0.02822 0.06 0.08819 0.0988 0.15522 0.0988 0.0635 0 0.12347-0.0388 0.1517-0.0988 0 0 0.12347-0.26105 0.24342-0.51152v1.2876c0 0.0952 0.07408 0.16933 0.16933 0.16933 0.09172 0 0.16933-0.0741 0.16933-0.16933v-2.0461c0-0.0776-0.05644-0.14817-0.13406-0.16581-0.07761-0.0176-0.15522 0.0212-0.1905 0.0953 0 0-0.24694 0.52564-0.40922 0.87136-0.16228-0.34572-0.41275-0.87136-0.41275-0.87136-0.03175-0.0741-0.11289-0.11289-0.1905-0.0953-0.07761 0.0176-0.13053 0.0882-0.13053 0.16581v2.0461c0 0.0952 0.07408 0.16933 0.16933 0.16933z"/>
   <path d="m31.336 255.42v-1.6228c0-0.0917-0.07761-0.16934-0.16933-0.16934-0.09525 0-0.16933 0.0776-0.16933 0.16934v1.6228c0 0.32809 0.26458 0.59267 0.59267 0.59267 0.32456 0 0.59267-0.26458 0.59267-0.59267v-1.6228c0-0.0917-0.07761-0.16934-0.16933-0.16934-0.09525 0-0.16933 0.0776-0.16933 0.16934v1.6228c0 0.14111-0.11642 0.254-0.254 0.254-0.14111 0-0.254-0.11289-0.254-0.254z"/>
   <path d="m32.673 256h0.70556c0.09172 0 0.16933-0.0741 0.16933-0.16934 0-0.0917-0.07761-0.16933-0.16933-0.16933h-0.53622v-1.8627c0-0.0917-0.07761-0.16933-0.16933-0.16933-0.09525 0-0.16933 0.0776-0.16933 0.16933v2.032c0 0.0953 0.07408 0.16934 0.16933 0.16934z"/>
   <path d="m33.528 253.64c-0.09172 0-0.16933 0.0776-0.16933 0.16934 0 0.0952 0.07761 0.16933 0.16933 0.16933h0.28928v1.8627c0 0.0952 0.07761 0.16933 0.16933 0.16933 0.09525 0 0.16933-0.0741 0.16933-0.16933v-1.8627h0.28928c0.09525 0 0.16933-0.0741 0.16933-0.16933 0-0.0917-0.07408-0.16934-0.16933-0.16934z"/>
   <path d="m2.0251 287.47c-0.10273 0-0.18965 0.0869-0.18965 0.18965 0 0.10668 0.086924 0.18965 0.18965 0.18965h0.32399v2.0862c0 0.10668 0.086924 0.18965 0.18965 0.18965 0.10668 0 0.18965-0.083 0.18965-0.18965v-2.0862h0.32399c0.10668 0 0.18965-0.083 0.18965-0.18965 0-0.10273-0.082973-0.18965-0.18965-0.18965z"/>
   <path d="m4.8089 288.36v-0.22127c0-0.36745-0.29633-0.66378-0.66379-0.66378h-0.47413c-0.10273 0-0.18965 0.0869-0.18965 0.18965v2.2758c0 0.10668 0.086924 0.18965 0.18965 0.18965 0.10668 0 0.18965-0.083 0.18965-0.18965v-0.91666h0.21336l0.36745 0.98383c0.039511 0.0988 0.14619 0.14619 0.24497 0.11063 0.098778-0.0356 0.15014-0.14619 0.11063-0.24497l-0.34375-0.92456c0.21336-0.11063 0.3556-0.33189 0.3556-0.58871zm-0.94827-0.50575h0.28448c0.15804 0 0.28448 0.12644 0.28448 0.28448v0.22127c0 0.15804-0.12644 0.28448-0.28448 0.28448h-0.28448z"/>
   <path d="m5.2978 290.13c0.10668 0 0.18965-0.083 0.18965-0.18965v-2.2916c0-0.10273-0.082973-0.18966-0.18965-0.18966-0.10273 0-0.18965 0.0869-0.18965 0.18966v2.2916c0 0.10668 0.086924 0.18965 0.18965 0.18965z"/>
   <path d="m6.9689 288.64h-0.39511c-0.10273 0-0.18965 0.0869-0.18965 0.18965 0 0.10668 0.086924 0.18965 0.18965 0.18965h0.20546v0.44253c0 0.15804-0.12644 0.28448-0.28448 0.28448-0.15409 0-0.28448-0.12644-0.28448-0.28448v-1.3434c0-0.12644 0.086924-0.24102 0.21336-0.27263 0.12248-0.0356 0.25287 0.0198 0.32004 0.13039 0.051365 0.0909 0.16595 0.12248 0.25682 0.0711 0.090876-0.0553 0.12248-0.1699 0.07112-0.26077-0.15014-0.26078-0.45833-0.38721-0.74676-0.30819-0.29238 0.0751-0.49389 0.33979-0.49389 0.64008v1.3434c0 0.36745 0.30028 0.66378 0.66379 0.66378 0.36745 0 0.66379-0.29633 0.66379-0.66378v-0.63218c0-0.10273-0.082973-0.18965-0.18965-0.18965z"/>
   <path d="m8.5802 288.64h-0.39511c-0.10273 0-0.18965 0.0869-0.18965 0.18965 0 0.10668 0.086925 0.18965 0.18965 0.18965h0.20546v0.44253c0 0.15804-0.12644 0.28448-0.28448 0.28448-0.15409 0-0.28448-0.12644-0.28448-0.28448v-1.3434c0-0.12644 0.086925-0.24102 0.21336-0.27263 0.12248-0.0356 0.25287 0.0198 0.32004 0.13039 0.051365 0.0909 0.16595 0.12248 0.25682 0.0711 0.090876-0.0553 0.12248-0.1699 0.07112-0.26077-0.15014-0.26078-0.45833-0.38721-0.74676-0.30819-0.29238 0.0751-0.49389 0.33979-0.49389 0.64008v1.3434c0 0.36745 0.30028 0.66378 0.66379 0.66378 0.36745 0 0.66379-0.29633 0.66379-0.66378v-0.63218c0-0.10273-0.082973-0.18965-0.18965-0.18965z"/>
   <path d="m3.5639 253.56v2.2758c0 0.10668 0.082973 0.18965 0.18965 0.18965 0.10273 0 0.18965-0.083 0.18965-0.18965v-0.91666h0.28448c0.36745 0 0.66379-0.29633 0.66379-0.66378v-0.22127c0-0.36745-0.29633-0.66378-0.66379-0.66378h-0.47413c-0.10668 0-0.18965 0.0869-0.18965 0.18965zm0.94827 0.47413v0.22127c0 0.15804-0.12644 0.28448-0.28448 0.28448h-0.28448v-0.79023h0.28448c0.15804 0 0.28448 0.12644 0.28448 0.28448z"/>
   <path d="m5.3187 256.02c0.10668 0 0.18965-0.083 0.18965-0.18965v-2.2916c0-0.10273-0.082973-0.18966-0.18965-0.18966-0.10273 0-0.18965 0.0869-0.18965 0.18966v2.2916c0 0.10668 0.086924 0.18965 0.18965 0.18965z"/>
   <path d="m7.2386 256.02c0.082973-0.0198 0.14619-0.0988 0.14619-0.1857v-2.2916c0-0.10273-0.086925-0.18966-0.18965-0.18966-0.10668 0-0.18965 0.0869-0.18965 0.18966v1.4619c-0.32794-0.67959-0.74676-1.5449-0.74676-1.5449-0.039511-0.079-0.12644-0.12248-0.21336-0.10272-0.086924 0.0197-0.14619 0.0988-0.14619 0.1857v2.2916c0 0.10668 0.082973 0.18965 0.18965 0.18965 0.10273 0 0.18965-0.083 0.18965-0.18965v-1.4619c0.32794 0.67959 0.74676 1.5449 0.74676 1.5449 0.03556 0.079 0.12644 0.12249 0.21336 0.10273z"/>
   <path d="m8.8712 254.54h-0.39511c-0.10273 0-0.18965 0.0869-0.18965 0.18965 0 0.10668 0.086924 0.18965 0.18965 0.18965h0.20546v0.44253c0 0.15804-0.12644 0.28448-0.28448 0.28448-0.15409 0-0.28448-0.12644-0.28448-0.28448v-1.3434c0-0.12643 0.086925-0.24102 0.21336-0.27263 0.12248-0.0356 0.25287 0.0198 0.32004 0.13039 0.051365 0.0909 0.16595 0.12249 0.25682 0.0711 0.090876-0.0553 0.12248-0.1699 0.07112-0.26077-0.15014-0.26078-0.45833-0.38721-0.74676-0.30819-0.29238 0.0751-0.49389 0.3398-0.49389 0.64008v1.3434c0 0.36745 0.30028 0.66378 0.66379 0.66378 0.36745 0 0.66379-0.29633 0.66379-0.66378v-0.63218c0-0.10273-0.082973-0.18965-0.18965-0.18965z"/>
  </g>
  <path d="m33.162 266.93a6.4078 6.4078 0 0 0-1.905-7.5948 6.4078 6.4078 0 0 0-7.8296-0.0817 6.4078 6.4078 0 0 0-2.0632 7.5533" fill="none" stroke="#fff" stroke-width=".33399px"/>
  <g fill="#fff">
   <g>
    <path d="m32.052 269.11c0.22719 0 0.41487-0.18521 0.41487-0.41486v-0.83962c0-0.22965-0.18768-0.41486-0.41487-0.41486-0.22966 0-0.41487 0.18521-0.41487 0.41486v0.83962c0 0.22965 0.18521 0.41486 0.41487 0.41486zm0-1.4323c0.09631 0 0.1778 0.079 0.1778 0.1778v0.83962c0 0.0988-0.08149 0.1778-0.1778 0.1778-0.09878 0-0.1778-0.079-0.1778-0.1778v-0.83962c0-0.0988 0.07902-0.1778 0.1778-0.1778z"/>
    <path d="m33.628 268.44c-0.18274 0-0.32844 0.14817-0.32844 0.32844 0 0.18274 0.1457 0.32843 0.32844 0.32843 0.18027 0 0.32844-0.14569 0.32844-0.32843 0-0.18027-0.14817-0.32844-0.32844-0.32844zm0 0.4445c-0.06421 0-0.11606-0.0519-0.11606-0.11606 0-0.0642 0.05186-0.11607 0.11606-0.11607 0.06421 0 0.11606 0.0519 0.11606 0.11607 0 0.0642-0.05186 0.11606-0.11606 0.11606zm-0.36301-1.1038c0-0.18027-0.14817-0.32844-0.32844-0.32844-0.18274 0-0.32844 0.14817-0.32844 0.32844 0 0.18274 0.1457 0.32844 0.32844 0.32844 0.18027 0 0.32844-0.1457 0.32844-0.32844zm-0.4445 0c0-0.0642 0.05186-0.11606 0.11606-0.11606 0.06421 0 0.11606 0.0519 0.11606 0.11606 0 0.0642-0.05186 0.11606-0.11606 0.11606-0.06421 0-0.11606-0.0519-0.11606-0.11606zm0.85937-0.32844c-0.05927-0.0296-0.13088-5e-3 -0.15804 0.0543l-0.69144 1.4323c-0.02963 0.0593-0.0049 0.13088 0.05433 0.15804 0.05927 0.0296 0.13088 5e-3 0.15804-0.0543l0.69144-1.4323c0.02963-0.0593 0.0049-0.13088-0.05433-0.15805z"/>
    <path d="m19.738 267.94s0.05186-0.0543 0.09384-0.0938v1.1458c0 0.0667 0.05186 0.11853 0.11853 0.11853 0.06421 0 0.11853-0.0519 0.11853-0.11853v-1.4323c0-0.0469-0.02963-0.0914-0.07408-0.10865-0.04445-0.0198-0.09384-0.01-0.12841 0.0247l-0.29633 0.29633c-0.04692 0.0469-0.04692 0.12101 0 0.16793 0.04692 0.0469 0.121 0.0469 0.16792 0z"/>
    <path d="m20.901 269.11c0.22719 0 0.41487-0.18521 0.41487-0.41486v-0.83962c0-0.22965-0.18768-0.41486-0.41487-0.41486-0.22966 0-0.41487 0.18521-0.41487 0.41486v0.83962c0 0.22965 0.18521 0.41486 0.41487 0.41486zm0-1.4323c0.09631 0 0.1778 0.079 0.1778 0.1778v0.83962c0 0.0988-0.08149 0.1778-0.1778 0.1778-0.09878 0-0.1778-0.079-0.1778-0.1778v-0.83962c0-0.0988 0.07902-0.1778 0.1778-0.1778z"/>
    <path d="m21.912 269.11c0.22719 0 0.41487-0.18521 0.41487-0.41486v-0.83962c0-0.22965-0.18768-0.41486-0.41487-0.41486-0.22966 0-0.41487 0.18521-0.41487 0.41486v0.83962c0 0.22965 0.18521 0.41486 0.41487 0.41486zm0-1.4323c0.09631 0 0.1778 0.079 0.1778 0.1778v0.83962c0 0.0988-0.08149 0.1778-0.1778 0.1778-0.09878 0-0.1778-0.079-0.1778-0.1778v-0.83962c0-0.0988 0.07902-0.1778 0.1778-0.1778z"/>
    <path d="m23.488 268.44c-0.18274 0-0.32844 0.14817-0.32844 0.32844 0 0.18274 0.1457 0.32843 0.32844 0.32843 0.18027 0 0.32844-0.14569 0.32844-0.32843 0-0.18027-0.14817-0.32844-0.32844-0.32844zm0 0.4445c-0.0642 0-0.11606-0.0519-0.11606-0.11606 0-0.0642 0.05186-0.11607 0.11606-0.11607 0.06421 0 0.11606 0.0519 0.11606 0.11607 0 0.0642-0.05186 0.11606-0.11606 0.11606zm-0.36301-1.1038c0-0.18027-0.14817-0.32844-0.32844-0.32844-0.18274 0-0.32844 0.14817-0.32844 0.32844 0 0.18274 0.1457 0.32844 0.32844 0.32844 0.18027 0 0.32844-0.1457 0.32844-0.32844zm-0.4445 0c0-0.0642 0.05186-0.11606 0.11606-0.11606 0.0642 0 0.11606 0.0519 0.11606 0.11606 0 0.0642-0.05186 0.11606-0.11606 0.11606-0.06421 0-0.11606-0.0519-0.11606-0.11606zm0.85937-0.32844c-0.05927-0.0296-0.13088-5e-3 -0.15804 0.0543l-0.69144 1.4323c-0.02963 0.0593-0.0049 0.13088 0.05433 0.15804 0.05927 0.0296 0.13088 5e-3 0.15804-0.0543l0.69144-1.4323c0.02963-0.0593 0.0049-0.13088-0.05433-0.15805z"/>
   </g>
   <g stroke="#fff">
    <path d="m12.929 264.37h7.8376" stroke-width=".282"/>
    <path d="m21.368 264.36-1.0859 0.61642v-1.2328z" enable-background="new" stroke-linecap="square" stroke-width=".282"/>
    <path d="m21.239 247.91h5.4119" stroke-width=".282"/>
    <path d="m27.187 247.91-1.0859 0.61642v-1.2328z" enable-background="new" stroke-linecap="square" stroke-width=".282"/>
   </g>
  </g>
  <path d="m38.883 250.6a6.4078 6.4078 0 0 0-1.905-7.5948 6.4078 6.4078 0 0 0-7.8296-0.0817 6.4078 6.4078 0 0 0-2.0632 7.5533" fill="none" stroke="#fff" stroke-width=".33399px"/>
  <g fill="#fff">
   <path d="m28.056 250.74c-0.07056-0.0254-0.14958 0.0113-0.17498 0.0818l-0.67733 1.8627c-0.0254 0.0706 0.01129 0.14676 0.08184 0.17216 0.07056 0.0254 0.14676-0.0113 0.17216-0.0819l0.67733-1.8627c0.02822-0.0677-0.0085-0.14676-0.07902-0.17216z"/>
   <path d="m37.721 252.99c0.06773 0.0339 0.14958 6e-3 0.18344-0.0593l0.30198-0.60678 0.30198 0.60678c0.03387 0.0649 0.11571 0.0931 0.18062 0.0593 0.06773-0.0339 0.09595-0.11571 0.06209-0.18062l-0.39229-0.7874 0.36407-0.72814c0.03387-0.0677 0.0056-0.14957-0.06209-0.18344-0.06491-0.0339-0.14676-6e-3 -0.18062 0.0621l-0.27376 0.54751-0.27376-0.54751c-0.03387-0.0677-0.11571-0.096-0.18344-0.0621-0.06491 0.0339-0.09313 0.11571-0.05927 0.18344l0.36407 0.72814-0.39229 0.7874c-0.03387 0.0649-0.0056 0.14675 0.05927 0.18062z"/>
   <path d="m33.554 240.07h-1.0837c-0.1174 0-0.21675 0.0993-0.21675 0.21675 0 0.12192 0.09934 0.21675 0.21675 0.21675h1.0837c0.12192 0 0.21675-0.0948 0.21675-0.21675 0-0.1174-0.09483-0.21675-0.21675-0.21675zm0-0.72249h-1.0837c-0.1174 0-0.21675 0.0994-0.21675 0.21675 0 0.12192 0.09934 0.21675 0.21675 0.21675h1.0837c0.12192 0 0.21675-0.0948 0.21675-0.21675 0-0.1174-0.09483-0.21675-0.21675-0.21675z"/>
   <path d="m32.58 241.11c-0.23894 0.23898-0.23894 0.62648 0 0.86547 0.23901 0.23899 0.62651 0.23899 0.86552 0 0.23898-0.23899 0.23898-0.62649 0-0.86547-0.23901-0.239-0.62651-0.239-0.86552 0" enable-background="new"/>
   <path d="m12.135 237.99c-0.09525 0-0.16933 0.0776-0.16933 0.16933v2.0179c0 0.0952 0.07408 0.16933 0.16933 0.16933h0.42333c0.32808 0 0.59267-0.26458 0.59267-0.59266v-1.1712c0-0.32808-0.26458-0.59266-0.59267-0.59266zm0.67733 0.59266v1.1712c0 0.14111-0.11289 0.254-0.254 0.254h-0.254v-1.6792h0.254c0.14111 0 0.254 0.11289 0.254 0.254z"/>
   <path d="m13.627 240.37c0.09525 0 0.16933-0.0741 0.16933-0.16933v-2.0461c0-0.0917-0.07408-0.16933-0.16933-0.16933-0.09172 0-0.16933 0.0776-0.16933 0.16933v2.0461c0 0.0953 0.07761 0.16933 0.16933 0.16933z"/>
   <path d="m14.775 239.97c-0.0635 0.0494-0.14111 0.067-0.21872 0.0529-0.07761-0.0176-0.14111-0.0635-0.17992-0.13053-0.04939-0.0811-0.15169-0.10936-0.23283-0.0635-0.08114 0.0459-0.10936 0.1517-0.05997 0.23284 0.08467 0.14816 0.23283 0.25753 0.40569 0.2928 0.17286 0.0318 0.34925-7e-3 0.49036-0.11289 0.13758-0.10583 0.22578-0.26458 0.23989-0.44097 0.01411-0.17286-0.04939-0.34572-0.17286-0.47272l-0.56092-0.57856c-0.05292-0.0529-0.07761-0.12347-0.07056-0.19402 0.0035-0.0741 0.0388-0.14111 0.09878-0.18345 0.05997-0.0459 0.13053-0.0635 0.20461-0.0494 0.07056 0.0176 0.13053 0.06 0.16933 0.12348 0.04586 0.0811 0.14817 0.10936 0.22931 0.0635 0.08114-0.0494 0.10936-0.15169 0.0635-0.23283-0.08467-0.14816-0.22931-0.25047-0.39511-0.28575-0.16581-0.0317-0.3422 7e-3 -0.47625 0.10936-0.13406 0.10231-0.21872 0.25753-0.23283 0.42686-0.01411 0.16934 0.04586 0.33867 0.16581 0.45862l0.56444 0.57855c0.05292 0.0564 0.08114 0.13406 0.07408 0.21167-0.0071 0.0776-0.04233 0.14816-0.10583 0.19403z"/>
   <path d="m15.505 237.99c-0.09172 0-0.16933 0.0776-0.16933 0.16933 0 0.0952 0.07761 0.16933 0.16933 0.16933h0.28928v1.8627c0 0.0953 0.07761 0.16933 0.16933 0.16933 0.09525 0 0.16933-0.0741 0.16933-0.16933v-1.8627h0.28928c0.09525 0 0.16933-0.0741 0.16933-0.16933 0-0.0917-0.07408-0.16933-0.16933-0.16933z"/>
   <path d="m17.989 238.78v-0.19756c0-0.32808-0.26458-0.59266-0.59267-0.59266h-0.42333c-0.09172 0-0.16933 0.0776-0.16933 0.16933v2.032c0 0.0953 0.07761 0.16933 0.16933 0.16933 0.09525 0 0.16933-0.0741 0.16933-0.16933v-0.81844h0.1905l0.32808 0.87841c0.03528 0.0882 0.13053 0.13053 0.21872 0.0988 0.08819-0.0317 0.13406-0.13053 0.09878-0.21872l-0.30692-0.8255c0.1905-0.0988 0.3175-0.29633 0.3175-0.52564zm-0.84667-0.45156h0.254c0.14111 0 0.254 0.11289 0.254 0.254v0.19756c0 0.14111-0.11289 0.254-0.254 0.254h-0.254z"/>
   <path d="m18.424 240.37c0.09525 0 0.16933-0.0741 0.16933-0.16933v-2.0461c0-0.0917-0.07408-0.16933-0.16933-0.16933-0.09172 0-0.16933 0.0776-0.16933 0.16933v2.0461c0 0.0953 0.07761 0.16933 0.16933 0.16933z"/>
   <path d="m20.125 238.71v-0.127c0-0.32808-0.26811-0.59266-0.59267-0.59266h-0.42333c-0.09525 0-0.16933 0.0776-0.16933 0.16933v2.0179c0 0.0952 0.07408 0.16933 0.16933 0.16933h0.42333c0.32456 0 0.59267-0.26458 0.59267-0.59266v-0.19756c0-0.16581-0.07055-0.31397-0.17992-0.42333 0.10936-0.10584 0.17992-0.25753 0.17992-0.42334zm-0.33867 0.84667v0.19756c0 0.14111-0.11289 0.254-0.254 0.254h-0.254v-0.70556h0.254c0.14111 0 0.254 0.11289 0.254 0.254zm-0.508-0.59267v-0.635h0.254c0.14111 0 0.254 0.11289 0.254 0.254v0.127c0 0.14111-0.11289 0.254-0.254 0.254z"/>
   <path d="m20.743 239.77v-1.6228c0-0.0917-0.07761-0.16933-0.16933-0.16933-0.09525 0-0.16933 0.0776-0.16933 0.16933v1.6228c0 0.32808 0.26458 0.59266 0.59267 0.59266 0.32456 0 0.59267-0.26458 0.59267-0.59266v-1.6228c0-0.0917-0.07761-0.16933-0.16933-0.16933-0.09525 0-0.16933 0.0776-0.16933 0.16933v1.6228c0 0.14111-0.11642 0.254-0.254 0.254-0.14111 0-0.254-0.11289-0.254-0.254z"/>
   <path d="m21.939 237.99c-0.09172 0-0.16933 0.0776-0.16933 0.16933 0 0.0952 0.07761 0.16933 0.16933 0.16933h0.28928v1.8627c0 0.0953 0.07761 0.16933 0.16933 0.16933 0.09525 0 0.16933-0.0741 0.16933-0.16933v-1.8627h0.28928c0.09525 0 0.16933-0.0741 0.16933-0.16933 0-0.0917-0.07408-0.16933-0.16933-0.16933z"/>
   <path d="m23.406 240.37c0.09525 0 0.16933-0.0741 0.16933-0.16933v-2.0461c0-0.0917-0.07408-0.16933-0.16933-0.16933-0.09172 0-0.16933 0.0776-0.16933 0.16933v2.0461c0 0.0953 0.07761 0.16933 0.16933 0.16933z"/>
   <path d="m24.473 240.37c0.32808 0 0.59267-0.26458 0.59267-0.59266v-1.1994c0-0.32808-0.26458-0.59266-0.59267-0.59266s-0.59267 0.26458-0.59267 0.59266v1.1994c0 0.32808 0.26458 0.59266 0.59267 0.59266zm0-2.0461c0.14111 0 0.254 0.11289 0.254 0.254v1.1994c0 0.14111-0.11289 0.254-0.254 0.254s-0.254-0.11289-0.254-0.254v-1.1994c0-0.14111 0.11289-0.254 0.254-0.254z"/>
   <path d="m26.569 240.36c0.074084-0.01764 0.13053-0.0882 0.13053-0.16581v-2.0461c0-0.0917-0.07761-0.16933-0.16933-0.16933-0.09525 0-0.16933 0.0776-0.16933 0.16933v1.3053c-0.2928-0.60678-0.66675-1.3794-0.66675-1.3794-0.03528-0.0706-0.11289-0.10936-0.1905-0.0917-0.07761 0.0176-0.13053 0.0882-0.13053 0.1658v2.0461c0 0.0953 0.07408 0.16934 0.16933 0.16934 0.09172 0 0.16933-0.0741 0.16933-0.16934v-1.3053c0.29281 0.60677 0.66675 1.3794 0.66675 1.3794 0.03175 0.0706 0.11289 0.10936 0.1905 0.0917z"/>
   <path d="m27.634 225.41c0.14927 0.1493 0.14927 0.39138 0 0.54068-0.14931 0.1493-0.39139 0.1493-0.5407 0-0.14929-0.1493-0.14929-0.39138 0-0.54068 0.14931-0.1493 0.39139-0.1493 0.5407 0" enable-background="new"/>
   <path d="m28.497 225.41c0.14927 0.1493 0.14927 0.39138 0 0.54068-0.14931 0.1493-0.39139 0.1493-0.5407 0-0.14929-0.1493-0.14929-0.39138 0-0.54068 0.14931-0.1493 0.39139-0.1493 0.5407 0" enable-background="new"/>
   <path d="m29.36 225.41c0.14927 0.1493 0.14927 0.39138 0 0.54068-0.14931 0.1493-0.39139 0.1493-0.5407 0-0.14929-0.1493-0.14929-0.39138 0-0.54068 0.14931-0.1493 0.39139-0.1493 0.5407 0" enable-background="new"/>
   <path d="m30.224 225.41c0.14927 0.1493 0.14927 0.39138 0 0.54068-0.14932 0.1493-0.39139 0.1493-0.54071 0-0.14929-0.1493-0.14929-0.39138 0-0.54068 0.14932-0.1493 0.39139-0.1493 0.54071 0" enable-background="new"/>
   <path d="m26.771 225.41c0.14927 0.1493 0.14927 0.39138 0 0.54068-0.14931 0.1493-0.39139 0.1493-0.5407 0-0.14929-0.1493-0.14929-0.39138 0-0.54068 0.14931-0.1493 0.39139-0.1493 0.5407 0" enable-background="new"/>
   <path d="m25.908 225.41c0.14927 0.1493 0.14927 0.39138 0 0.54068-0.14932 0.1493-0.39139 0.1493-0.54071 0-0.14929-0.1493-0.14929-0.39138 0-0.54068 0.14932-0.1493 0.39139-0.1493 0.54071 0" enable-background="new"/>
   <path d="m25.044 225.41c0.14927 0.1493 0.14927 0.39138 0 0.54068-0.14932 0.1493-0.39139 0.1493-0.54071 0-0.14929-0.1493-0.14929-0.39138 0-0.54068 0.14932-0.1493 0.39139-0.1493 0.54071 0" enable-background="new"/>
   <path d="m24.111 236.38c-0.14927 0.1493-0.14927 0.39138 0 0.54068 0.14932 0.1493 0.39139 0.1493 0.54071 0 0.14929-0.1493 0.14929-0.39138 0-0.54068-0.14932-0.1493-0.39139-0.1493-0.54071 0" enable-background="new"/>
   <path d="m23.351 236.38c-0.14927 0.1493-0.14927 0.39138 0 0.54068 0.14932 0.1493 0.39139 0.1493 0.54071 0 0.14929-0.1493 0.14929-0.39138 0-0.54068-0.14932-0.1493-0.39139-0.1493-0.54071 0" enable-background="new"/>
   <path d="m22.453 236.38c-0.14927 0.1493-0.14927 0.39138 0 0.54068 0.14932 0.1493 0.39139 0.1493 0.54071 0 0.14929-0.1493 0.14929-0.39138 0-0.54068-0.14932-0.1493-0.39139-0.1493-0.54071 0" enable-background="new"/>
   <path d="m21.376 236.38c-0.14927 0.1493-0.14927 0.39138 0 0.54068 0.14932 0.1493 0.39139 0.1493 0.54071 0 0.14929-0.1493 0.14929-0.39138 0-0.54068-0.14932-0.1493-0.39139-0.1493-0.54071 0" enable-background="new"/>
   <path d="m24.543 236.38c-0.14927 0.1493-0.14927 0.39138 0 0.54068 0.14932 0.1493 0.39139 0.1493 0.54071 0 0.14929-0.1493 0.14929-0.39138 0-0.54068-0.14932-0.1493-0.39139-0.1493-0.54071 0" enable-background="new"/>
   <path d="m20.081 236.38c-0.14927 0.1493-0.14927 0.39138 0 0.54068 0.14932 0.1493 0.39139 0.1493 0.54071 0 0.14929-0.1493 0.14929-0.39138 0-0.54068-0.14932-0.1493-0.39139-0.1493-0.54071 0" enable-background="new"/>
   <path d="m24.817 236.38c-0.14927 0.1493-0.14927 0.39138 0 0.54068 0.14932 0.1493 0.39139 0.1493 0.54071 0 0.14929-0.1493 0.14929-0.39138 0-0.54068-0.14932-0.1493-0.39139-0.1493-0.54071 0" enable-background="new"/>
   <path d="m30.98 236.38c0.14927 0.1493 0.14927 0.39138 0 0.54068-0.14932 0.1493-0.39139 0.1493-0.54071 0-0.14929-0.1493-0.14929-0.39138 0-0.54068 0.14932-0.1493 0.39139-0.1493 0.54071 0" enable-background="new"/>
   <path d="m31.69 236.38c0.14927 0.1493 0.14927 0.39138 0 0.54068-0.14932 0.1493-0.39139 0.1493-0.54071 0-0.14929-0.1493-0.14929-0.39138 0-0.54068 0.14932-0.1493 0.39139-0.1493 0.54071 0" enable-background="new"/>
   <path d="m32.587 236.38c0.14927 0.1493 0.14927 0.39138 0 0.54068-0.14932 0.1493-0.39139 0.1493-0.54071 0-0.14929-0.1493-0.14929-0.39138 0-0.54068 0.14932-0.1493 0.39139-0.1493 0.54071 0" enable-background="new"/>
   <path d="m33.665 236.38c0.14927 0.1493 0.14927 0.39138 0 0.54068-0.14932 0.1493-0.39139 0.1493-0.54071 0-0.14929-0.1493-0.14929-0.39138 0-0.54068 0.14932-0.1493 0.39139-0.1493 0.54071 0" enable-background="new"/>
   <path d="m30.498 236.38c0.14927 0.1493 0.14927 0.39138 0 0.54068-0.14932 0.1493-0.39139 0.1493-0.54071 0-0.14929-0.1493-0.14929-0.39138 0-0.54068 0.14932-0.1493 0.39139-0.1493 0.54071 0" enable-background="new"/>
   <path d="m34.96 236.38c0.14927 0.1493 0.14927 0.39138 0 0.54068-0.14932 0.1493-0.39139 0.1493-0.54071 0-0.14929-0.1493-0.14929-0.39138 0-0.54068 0.14932-0.1493 0.39139-0.1493 0.54071 0" enable-background="new"/>
   <path d="m30.269 236.38c0.14927 0.1493 0.14927 0.39138 0 0.54068-0.14932 0.1493-0.39139 0.1493-0.54071 0-0.14929-0.1493-0.14929-0.39138 0-0.54068 0.14932-0.1493 0.39139-0.1493 0.54071 0" enable-background="new"/>
  </g>
  <path d="m22.557 235.52a6.1197 6.1197 0 0 1-1.5013-4.799 6.1197 6.1197 0 0 1 2.6005-4.3036" fill="none" stroke="#fff" stroke-width=".31898"/>
  <path d="m32.165 235.52a6.1197 6.1197 0 0 0 1.5013-4.799 6.1197 6.1197 0 0 0-2.6005-4.3036" fill="none" stroke="#fff" stroke-width=".31897px"/>
  <g fill="#fff" stroke="#fff">
   <path d="m15.001 231.43h6.0052" stroke-width=".282"/>
   <path d="m21.615 231.43-1.0859 0.61642v-1.2328z" enable-background="new" stroke-linecap="square" stroke-width=".282"/>
   <path transform="matrix(-.71503 0 0 -.61474 206.27 231.58)" d="m239.86 87.252 2.2675-1.3091v2.6183z" enable-background="new" stroke-linecap="square" stroke-width=".59385"/>
  </g>
  <g stroke="#fff">
   <path transform="matrix(1,0,0,-1,0,168.5)" d="m17.096-10.962a1.97 1.97 0 0 1-1.969 1.97 1.97 1.97 0 0 1-1.9711-1.9679" fill="none" stroke-linecap="square" stroke-width=".282"/>
   <path transform="matrix(1,0,0,-1,0,168.5)" d="m33.383-9.3438a6.0995 6.0995 0 0 1-6.0956-4.1394 6.0995 6.0995 0 0 1 2.3372-6.9877" fill="none" stroke-linecap="round" stroke-width=".282"/>
   <path transform="matrix(.71503 0 0 .61474 -140.42 136.21)" d="m239.86 87.252 2.2675-1.3091v2.6183z" enable-background="new" fill="#fff" stroke-linecap="square" stroke-width=".59385"/>
   <path transform="matrix(-1,0,0,1,0,168.5)" d="m-32.67 21.465a6.0995 6.0995 0 0 1-6.3483-4.2373 6.0995 6.0995 0 0 1 2.7582-7.1168" fill="none" stroke-linecap="round" stroke-width=".282"/>
  </g>
  <g fill="#fff">
   <g>
    <path d="m18.91 230.12h-0.28448v-0.28448c0-0.10273-0.08692-0.18966-0.18965-0.18966-0.10668 0-0.18965 0.0869-0.18965 0.18966v0.28448h-0.28448c-0.10668 0-0.18965 0.0869-0.18965 0.18965 0 0.10668 0.08297 0.18965 0.18965 0.18965h0.28448v0.28448c0 0.10668 0.08297 0.18966 0.18965 0.18966 0.10273 0 0.18965-0.083 0.18965-0.18966v-0.28448h0.28448c0.10273 0 0.18965-0.083 0.18965-0.18965 0-0.10273-0.08693-0.18965-0.18965-0.18965z"/>
    <path d="m24.911 246.57h-0.28448v-0.28448c0-0.10273-0.08693-0.18966-0.18965-0.18966-0.10668 0-0.18965 0.0869-0.18965 0.18966v0.28448h-0.28448c-0.10668 0-0.18965 0.0869-0.18965 0.18965 0 0.10668 0.08297 0.18965 0.18965 0.18965h0.28448v0.28448c0 0.10668 0.08297 0.18966 0.18965 0.18966 0.10273 0 0.18965-0.083 0.18965-0.18966v-0.28448h0.28448c0.10273 0 0.18965-0.083 0.18965-0.18965 0-0.10273-0.08692-0.18965-0.18965-0.18965z"/>
    <path d="m19.034 262.73h-0.28448v-0.28447c0-0.10273-0.08692-0.18966-0.18965-0.18966-0.10668 0-0.18965 0.0869-0.18965 0.18966v0.28447h-0.28448c-0.10668 0-0.18965 0.0869-0.18965 0.18966 0 0.10668 0.08297 0.18965 0.18965 0.18965h0.28448v0.28448c0 0.10668 0.08297 0.18966 0.18965 0.18966 0.10273 0 0.18965-0.083 0.18965-0.18966v-0.28448h0.28448c0.10273 0 0.18965-0.083 0.18965-0.18965 0-0.10273-0.08692-0.18966-0.18965-0.18966z"/>
    <path d="m14.809 204.21c0.03598-0.35909-0.2246-0.6777-0.58369-0.71368-0.35523-0.0356-0.6777 0.2246-0.71368 0.58369l-0.13154 1.3128c-0.03598 0.35909 0.22846 0.67808 0.58369 0.71368 0.05406 5e-3 0.10503 3e-3 0.15252-4e-3l0.12775 0.2819c0.0413 0.0938 0.15018 0.13595 0.2444 0.0908 0.09384-0.0413 0.13595-0.15018 0.09465-0.24402l-0.12775-0.2819c0.12358-0.10461 0.2047-0.25249 0.22211-0.42624zm-1.0582 1.22 0.13154-1.3128c0.01547-0.15445 0.15141-0.26563 0.30586-0.25015 0.15445 0.0155 0.26563 0.15141 0.25015 0.30586l-0.13154 1.3128c-0.01547 0.15445-0.15141 0.26562-0.30586 0.25015-0.15445-0.0155-0.26563-0.15141-0.25015-0.30586z"/>
    <path d="m15.641 205.53-0.04373-1.7845c-0.0025-0.10086-0.08991-0.18412-0.19077-0.18164-0.10474 3e-3 -0.18412 0.0899-0.18165 0.19077l0.04373 1.7845c0.0088 0.36078 0.30693 0.64461 0.66771 0.63576 0.3569-9e-3 0.64461-0.30692 0.63576-0.66771l-0.04374-1.7845c-0.0025-0.10087-0.08991-0.18412-0.19077-0.18165-0.10474 3e-3 -0.18412 0.0899-0.18165 0.19077l0.04374 1.7845c0.0038 0.15518-0.12118 0.28246-0.27247 0.28616-0.15518 4e-3 -0.28236-0.11729-0.28616-0.27247z"/>
    <path d="m17.698 203.52c-0.03143-0.0777-0.11249-0.12027-0.1969-0.10744-0.0844 0.0128-0.14913 0.0776-0.15606 0.16112l-0.27546 2.3185c-0.01169 0.10383 0.06103 0.19483 0.16102 0.2071 0.10383 0.0117 0.19483-0.061 0.2071-0.16103 0 0 0.02095-0.17196 0.05-0.41974l0.6522-0.0992c0.10139 0.22794 0.17251 0.38591 0.17251 0.38591 0.04144 0.0918 0.14994 0.13421 0.2456 0.0922 0.09183-0.0414 0.13421-0.14994 0.09218-0.2456zm-0.16271 1.6144c0.03264-0.2758 0.06828-0.58346 0.09942-0.84333 0.10698 0.23887 0.23246 0.52202 0.34561 0.77565z"/>
    <path d="m20.519 205.38c0.07273-0.0416 0.11046-0.13351 0.08643-0.21543l-0.63364-2.1597c-0.0284-0.0968-0.13436-0.1547-0.23117-0.1263-0.10054 0.0295-0.1547 0.13436-0.12629 0.23118 0 0 0.2174 0.74099 0.40422 1.3777-0.49696-0.54978-1.1309-1.2494-1.1309-1.2494-0.05909-0.0635-0.15302-0.0805-0.22948-0.0378-0.07646 0.0427-0.11046 0.13351-0.08643 0.21543l0.63364 2.1597c0.0295 0.10053 0.13064 0.15579 0.23117 0.12629 0.09681-0.0284 0.15579-0.13063 0.12629-0.23117 0 0-0.2174-0.741-0.40422-1.3777 0.49696 0.54978 1.1309 1.2494 1.1309 1.2494 0.05536 0.0646 0.15302 0.0805 0.22948 0.0378z"/>
    <path d="m20.341 202.67c-0.09239 0.0405-0.13627 0.15302-0.09574 0.24541 0.04209 0.0959 0.15301 0.13627 0.24541 0.0957l0.2914-0.12785 0.82318 1.8763c0.04209 0.0959 0.15301 0.13627 0.24541 0.0957 0.09595-0.0421 0.13783-0.14946 0.09574-0.24541l-0.82318-1.8763 0.29139-0.12784c0.09595-0.0421 0.13783-0.14946 0.09574-0.24541-0.04054-0.0924-0.14946-0.13783-0.24541-0.0957z"/>
    <path d="m23.169 204.2c0.09161-0.0508 0.12331-0.16165 0.07247-0.25326l-1.0923-1.9679c-0.04896-0.0882-0.16165-0.12331-0.25326-0.0725-0.08822 0.049-0.12143 0.16504-0.07247 0.25325l1.0923 1.9679c0.05085 0.0916 0.16504 0.12143 0.25326 0.0725z"/>
    <path d="m22.527 201.57c-0.08327 0.057-0.10551 0.17565-0.04854 0.25891 0.05917 0.0865 0.17564 0.10552 0.25891 0.0485l0.26261-0.17969 1.157 1.691c0.05917 0.0865 0.17564 0.10552 0.25891 0.0485 0.08647-0.0592 0.1077-0.17244 0.04854-0.25891l-1.1571-1.691 0.26261-0.1797c0.08647-0.0592 0.1077-0.17244 0.04854-0.25891-0.05698-0.0833-0.17244-0.1077-0.25891-0.0485z"/>
    <path d="m25.889 202.29c0.07594-0.0664 0.08653-0.18398 0.01755-0.26284l-0.73843-0.84406-0.29304-1.1306c-0.02627-0.10075-0.12958-0.1599-0.23034-0.13362-0.09784 0.0237-0.15698 0.12702-0.13071 0.22778 0 0 0.12006 0.46727 0.21239 0.81445-0.33182-0.13766-0.77899-0.31876-0.77899-0.31876-0.09637-0.0394-0.20662 5e-3 -0.24313 0.0993-0.03943 0.0964 0.0055 0.20662 0.10183 0.24606l1.0816 0.44071 0.73843 0.84406c0.06899 0.0789 0.18398 0.0865 0.26284 0.0175z"/>
    <path d="m12.727 214.38c0.05927 0.0339 0.13829 0.0141 0.17216-0.048l0.2032-0.37253 0.20602 0.37253c0.03387 0.0621 0.11007 0.0819 0.17216 0.048 0.06209-0.031 0.08467-0.11006 0.0508-0.17215l-0.28222-0.51364 0.27093-0.49107c0.03387-0.0621 0.01129-0.13829-0.0508-0.17216-0.06209-0.0339-0.13829-0.0113-0.17216 0.048l-0.19473 0.35278-0.19191-0.35278c-0.03387-0.0593-0.11289-0.0819-0.17216-0.048-0.06209 0.0339-0.08467 0.11007-0.0508 0.17216l0.27093 0.49107-0.28222 0.51364c-0.03387 0.0621-0.01129 0.14111 0.0508 0.17215z" stroke="#fff" stroke-width=".084667"/>
   </g>
   <path d="m7.2101 214.96h8.8274" stroke="#fff" stroke-width=".282"/>
   <path d="m16.646 214.96-1.0859 0.61642v-1.2328z" enable-background="new" stroke="#fff" stroke-linecap="square" stroke-width=".282"/>
  </g>
  <path d="m24.56 219.88a5.6472 5.6478 0 0 0 2.6914-6.3623 5.6472 5.6478 0 0 0-5.4785-4.2076 5.6472 5.6478 0 0 0-5.4516 4.2424 5.6472 5.6478 0 0 0 2.7319 6.345" enable-background="new" fill="none" stroke="#fff" stroke-width=".31105px"/>
  <g fill="#fff">
   <path d="m18.855 219.54c0.16414-0.0948 0.37404-0.0385 0.46881 0.12561 0.09477 0.16416 0.03852 0.37407-0.12562 0.46882-0.16415 0.0948-0.37405 0.0385-0.46881-0.12562-0.09477-0.16412-0.03853-0.37403 0.12562-0.46881" enable-background="new"/>
   <path d="m24.244 219.83c9e-6 -0.18956 0.15369-0.34324 0.34325-0.34325 0.18957 1e-5 0.34326 0.1537 0.34326 0.34326 6e-6 0.18957-0.15368 0.34325-0.34325 0.34324-0.18956 1e-5 -0.34325-0.15368-0.34326-0.34325" enable-background="new"/>
   <path d="m7.464 221.29c0-0.32808-0.26458-0.59266-0.59267-0.59266-0.32456 0-0.59267 0.26458-0.59267 0.59266v1.1994c0 0.32808 0.26811 0.59266 0.59267 0.59266 0.049389 0 0.09525-7e-3 0.13758-0.0176l0.14111 0.24342c0.045861 0.0811 0.14817 0.10936 0.22931 0.06 0.081139-0.0459 0.10936-0.14817 0.0635-0.2293l-0.14111-0.24342c0.10231-0.10583 0.16228-0.24694 0.16228-0.40569zm-0.84667 1.1994v-1.1994c0-0.14111 0.11289-0.254 0.254-0.254s0.254 0.11289 0.254 0.254v1.1994c0 0.14111-0.11289 0.254-0.254 0.254s-0.254-0.11289-0.254-0.254z"/>
   <path d="m8.0822 222.49v-1.6228c0-0.0917-0.077611-0.16933-0.16933-0.16933-0.09525 0-0.16933 0.0776-0.16933 0.16933v1.6228c0 0.32808 0.26458 0.59266 0.59267 0.59266 0.32456 0 0.59267-0.26458 0.59267-0.59266v-1.6228c0-0.0917-0.077611-0.16933-0.16933-0.16933-0.09525 0-0.16933 0.0776-0.16933 0.16933v1.6228c0 0.14111-0.11642 0.254-0.254 0.254-0.14111 0-0.254-0.11289-0.254-0.254z"/>
   <path d="m9.9563 220.82c-0.017639-0.0741-0.084667-0.12347-0.16228-0.12347-0.077611 0-0.14464 0.0494-0.16228 0.12347l-0.56444 2.0461c-0.024694 0.0917 0.028222 0.18344 0.11642 0.20814 0.091722 0.0247 0.18344-0.0282 0.20814-0.11642 0 0 0.042333-0.15169 0.10231-0.37042h0.59972c0.05997 0.21873 0.10231 0.37042 0.10231 0.37042 0.02469 0.0882 0.11642 0.14111 0.20814 0.11642 0.08819-0.0247 0.14111-0.11642 0.11642-0.20814zm-0.36689 1.4288c0.067028-0.24342 0.14111-0.51506 0.20461-0.74436 0.0635 0.2293 0.13758 0.50094 0.20461 0.74436z"/>
   <path d="m11.917 223.08c0.07408-0.0176 0.13053-0.0882 0.13053-0.16581v-2.0461c0-0.0917-0.07761-0.16933-0.16933-0.16933-0.09525 0-0.16933 0.0776-0.16933 0.16933v1.3053c-0.29281-0.60678-0.66675-1.3794-0.66675-1.3794-0.03528-0.0705-0.11289-0.10937-0.1905-0.0917-0.07761 0.0176-0.13053 0.0882-0.13053 0.1658v2.0461c0 0.0952 0.07408 0.16934 0.16933 0.16934 0.09172 0 0.16933-0.0741 0.16933-0.16934v-1.3053c0.29281 0.60678 0.66675 1.3794 0.66675 1.3794 0.03175 0.0706 0.11289 0.10936 0.1905 0.0917z"/>
   <path d="m12.428 220.71c-0.09172 0-0.16933 0.0776-0.16933 0.16933 0 0.0952 0.07761 0.16933 0.16933 0.16933h0.28928v1.8627c0 0.0952 0.07761 0.16933 0.16933 0.16933 0.09525 0 0.16933-0.0741 0.16933-0.16933v-1.8627h0.28928c0.09525 0 0.16933-0.0741 0.16933-0.16933 0-0.0917-0.07408-0.16933-0.16933-0.16933z"/>
   <path d="m13.895 223.08c0.09525 0 0.16933-0.0741 0.16933-0.16933v-2.0461c0-0.0917-0.07408-0.16933-0.16933-0.16933-0.09172 0-0.16933 0.0776-0.16933 0.16933v2.0461c0 0.0952 0.07761 0.16933 0.16933 0.16933z"/>
   <path d="m14.44 220.71c-0.09172 0-0.16933 0.0776-0.16933 0.16933 0 0.0952 0.07761 0.16933 0.16933 0.16933h0.28928v1.8627c0 0.0952 0.07761 0.16933 0.16933 0.16933 0.09525 0 0.16933-0.0741 0.16933-0.16933v-1.8627h0.28928c0.09525 0 0.16933-0.0741 0.16933-0.16933 0-0.0917-0.07408-0.16933-0.16933-0.16933z"/>
   <path d="m16.264 223.08c0.09172 0 0.16933-0.0741 0.16933-0.16933v-1.0195l0.47625-0.94897c0.04233-0.0847 0.0071-0.18697-0.07761-0.22931-0.08114-0.0423-0.18344-7e-3 -0.22578 0.0776 0 0-0.19756 0.39159-0.3422 0.68439-0.14464-0.2928-0.34219-0.68439-0.34219-0.68439-0.04233-0.0847-0.14464-0.11994-0.22578-0.0776-0.08467 0.0423-0.11994 0.14464-0.07761 0.22931l0.47625 0.94897v1.0195c0 0.0952 0.07408 0.16933 0.16933 0.16933z"/>
   <path d="m18.194 223.06c0.26106 0.0706 0.5327-0.0423 0.66675-0.27517 0.04939-0.0811 0.02117-0.18344-0.05997-0.23283-0.08114-0.0459-0.18344-0.0176-0.23283 0.0635-0.05645 0.0988-0.17286 0.14816-0.28575 0.11994-0.10936-0.0317-0.18697-0.13053-0.18697-0.24694v-1.1994c0-0.11289 0.07761-0.21519 0.18697-0.24341 0.11289-0.0317 0.2293 0.0176 0.28575 0.11641 0.04939 0.0811 0.15169 0.10936 0.23283 0.0635 0.08114-0.0494 0.10936-0.15169 0.05997-0.23283-0.13406-0.23283-0.40569-0.34572-0.66675-0.27517-0.25753 0.067-0.43744 0.30339-0.43744 0.5715v1.1994c0 0.26811 0.17992 0.50447 0.43744 0.5715z"/>
   <path d="m19.584 222.96c0.02117 0.0741 0.08819 0.12347 0.16581 0.12347 0.07408 0 0.14111-0.0494 0.16228-0.12347l0.56444-2.0461c0.0247-0.0917-0.02822-0.18344-0.11994-0.20814-0.08819-0.0247-0.18344 0.0282-0.20814 0.11642 0 0-0.23636 0.85725-0.39864 1.457-0.16581-0.59972-0.40217-1.457-0.40217-1.457-0.02469-0.0882-0.11994-0.14111-0.20814-0.11642-0.09172 0.0247-0.14464 0.11642-0.11994 0.20814z"/>
   <path d="m33.576 290.13c0.36745 0 0.66379-0.29633 0.66379-0.66378v-1.3434c0-0.36745-0.29633-0.66379-0.66379-0.66379s-0.66379 0.29634-0.66379 0.66379v1.3434c0 0.36745 0.29633 0.66378 0.66379 0.66378zm0-2.2916c0.15804 0 0.28448 0.12643 0.28448 0.28448v1.3434c0 0.15804-0.12644 0.28448-0.28448 0.28448-0.15804 0-0.28448-0.12644-0.28448-0.28448v-1.3434c0-0.15805 0.12644-0.28448 0.28448-0.28448z"/>
   <path d="m34.934 289.46v-1.8175c0-0.10273-0.08692-0.18966-0.18965-0.18966-0.10668 0-0.18965 0.0869-0.18965 0.18966v1.8175c0 0.36745 0.29633 0.66378 0.66379 0.66378 0.3635 0 0.66379-0.29633 0.66379-0.66378v-1.8175c0-0.10273-0.08693-0.18966-0.18965-0.18966-0.10668 0-0.18965 0.0869-0.18965 0.18966v1.8175c0 0.15804-0.13039 0.28448-0.28448 0.28448-0.15804 0-0.28448-0.12644-0.28448-0.28448z"/>
   <path d="m36.276 287.47c-0.10273 0-0.18965 0.0869-0.18965 0.18965 0 0.10668 0.08693 0.18965 0.18965 0.18965h0.32399v2.0862c0 0.10668 0.08692 0.18965 0.18965 0.18965 0.10668 0 0.18965-0.083 0.18965-0.18965v-2.0862h0.32399c0.10668 0 0.18965-0.083 0.18965-0.18965 0-0.10273-0.08297-0.18965-0.18965-0.18965z"/>
  </g>
  <path transform="translate(0,168.5)" d="m40.555 38.158a8.2872 8.2872 0 0 1-7.3837 4.5244" fill="none" stroke="#fff" stroke-linecap="square" stroke-width=".282"/>
  <path transform="translate(0,168.5)" d="m40.528 39.957a9.2222 9.2222 0 0 1-7.3568 3.6611" fill="none" stroke="#fff" stroke-linecap="square" stroke-width=".282"/>
  <g fill="#fff">
   <path d="m23.097 287.66v2.26c0 0.10668 0.08693 0.18965 0.18965 0.18965h0.79022c0.10668 0 0.18965-0.083 0.18965-0.18965 0-0.10273-0.08297-0.18966-0.18965-0.18966h-0.60057v-0.79022h0.52155c0.10668 0 0.18965-0.083 0.18965-0.18965 0-0.10273-0.08297-0.18966-0.18965-0.18966h-0.52155v-0.7112h0.60057c0.10668 0 0.18965-0.083 0.18965-0.18965 0-0.10273-0.08297-0.18965-0.18965-0.18965h-0.79022c-0.10273 0-0.18965 0.0869-0.18965 0.18965z"/>
   <path d="m25.147 290.13c0.36745 0 0.66379-0.29633 0.66379-0.66378v-1.3434c0-0.36745-0.29633-0.66379-0.66379-0.66379-0.36745 0-0.66379 0.29634-0.66379 0.66379v1.3434c0 0.36745 0.29633 0.66378 0.66379 0.66378zm0-2.2916c0.15804 0 0.28448 0.12643 0.28448 0.28448v1.3434c0 0.15804-0.12644 0.28448-0.28448 0.28448-0.15804 0-0.28448-0.12644-0.28448-0.28448v-1.3434c0-0.15805 0.12644-0.28448 0.28448-0.28448z"/>
   <path d="m26.6 290.1c0.29238 0.079 0.59662-0.0474 0.74676-0.30819 0.05532-0.0909 0.02371-0.20546-0.06717-0.26077-0.09088-0.0514-0.20546-0.0198-0.26077 0.0711-0.06322 0.11063-0.1936 0.16594-0.32004 0.13433-0.12248-0.0356-0.20941-0.14619-0.20941-0.27657v-1.3434c0-0.12644 0.08693-0.24102 0.20941-0.27263 0.12644-0.0356 0.25682 0.0198 0.32004 0.13039 0.05532 0.0909 0.1699 0.12248 0.26077 0.0711 0.09088-0.0553 0.12248-0.1699 0.06717-0.26077-0.15014-0.26078-0.45438-0.38721-0.74676-0.30819-0.28843 0.0751-0.48994 0.33979-0.48994 0.64008v1.3434c0 0.30028 0.20151 0.56501 0.48994 0.64008z"/>
  </g>
  <path transform="translate(0,168.5)" d="m25.236 110.33v-4.5349" fill="none" stroke="#fff" stroke-width=".582"/>
 </g>
 <g display="none" fill-rule="evenodd">
  <g fill="#0f0">
   <rect x="7.8955" y="91.666" width="8.3556" height="8.3556" style="paint-order:normal"/>
   <rect x="1.1115" y="109.3" width="8.3556" height="8.3556" style="paint-order:normal"/>
   <rect x="2.0502" y="75.252" width="8.3556" height="8.3556" style="paint-order:normal"/>
   <rect x="13.775" y="75.23" width="8.3556" height="8.3556" style="paint-order:normal"/>
   <rect x="7.9012" y="58.75" width="8.3556" height="8.3556" style="paint-order:normal"/>
   <rect x="2.0215" y="42.276" width="8.3556" height="8.3556" style="paint-order:normal"/>
  </g>
  <g fill="#00f">
   <rect x="11.078" y="109.3" width="8.3556" height="8.3556" style="paint-order:normal"/>
   <rect x="21.085" y="109.33" width="8.3556" height="8.3556" style="paint-order:normal"/>
   <rect x="31.011" y="109.3" width="8.3556" height="8.3556" style="paint-order:normal"/>
  </g>
  <g fill="#f00">
   <rect x="17.262" y="41.955" width="9" height="9.0001" style="paint-order:normal"/>
   <rect x="22.852" y="58.457" width="9" height="9.0001" style="paint-order:normal"/>
   <rect x="28.472" y="74.916" width="9" height="9.0001" style="paint-order:normal"/>
   <rect x="22.751" y="91.352" width="9" height="9.0001" style="paint-order:normal"/>
   <rect x="9.0322" y="16.215" width="12.192" height="12.193" style="paint-order:normal"/>
   <rect x="28.433" y="29.659" width="9.4827" height="9.4827" style="paint-order:normal"/>
   <rect x="28.442" y="10.136" width="9.4804" height="10.69" style="paint-order:normal"/>
  </g>
  <g fill="#ff0">
   <rect x="14.037" y="9.9871" width="2.176" height="2.176" style="paint-order:normal"/>
   <rect x="18.358" y="10.859" width="2.176" height="2.176" style="paint-order:normal"/>
   <rect x="22.057" y="13.318" width="2.176" height="2.176" style="paint-order:normal"/>
   <rect x="24.487" y="16.964" width="2.176" height="2.176" style="paint-order:normal"/>
   <rect x="25.385" y="21.252" width="2.176" height="2.176" style="paint-order:normal"/>
   <rect x="24.487" y="25.535" width="2.176" height="2.176" style="paint-order:normal"/>
   <rect x="22.057" y="29.169" width="2.176" height="2.176" style="paint-order:normal"/>
   <rect x="18.358" y="31.622" width="2.176" height="2.176" style="paint-order:normal"/>
   <rect x="14.037" y="32.488" width="2.176" height="2.176" style="paint-order:normal"/>
   <rect x="9.7432" y="31.622" width="2.176" height="2.176" style="paint-order:normal"/>
   <rect x="6.1015" y="29.169" width="2.176" height="2.176" style="paint-order:normal"/>
   <rect x="3.6852" y="25.535" width="2.176" height="2.176" style="paint-order:normal"/>
   <rect x="2.8531" y="21.252" width="2.176" height="2.176" style="paint-order:normal"/>
   <rect x="3.6852" y="16.964" width="2.176" height="2.176" style="paint-order:normal"/>
   <rect x="6.1015" y="13.318" width="2.176" height="2.176" style="paint-order:normal"/>
   <rect x="9.7432" y="10.859" width="2.176" height="2.176" style="paint-order:normal"/>
   <rect x="14.181" y="104.28" width="2.176" height="2.176" style="paint-order:normal"/>
   <rect x="24.148" y="104.28" width="2.176" height="2.176" style="paint-order:normal"/>
   <rect x="34.114" y="104.28" width="2.176" height="2.176" style="paint-order:normal"/>
  </g>
 </g>
</svg>
