<?xml version="1.0" encoding="UTF-8" standalone="no"?>
<svg
   xmlns:dc="http://purl.org/dc/elements/1.1/"
   xmlns:cc="http://creativecommons.org/ns#"
   xmlns:rdf="http://www.w3.org/1999/02/22-rdf-syntax-ns#"
   xmlns:svg="http://www.w3.org/2000/svg"
   xmlns="http://www.w3.org/2000/svg"
   xmlns:sodipodi="http://sodipodi.sourceforge.net/DTD/sodipodi-0.dtd"
   xmlns:inkscape="http://www.inkscape.org/namespaces/inkscape"
   width="40.639999mm"
   height="128.5mm"
   viewBox="0 0 40.601295 128.5"
   version="1.1"
   id="svg5001"
   inkscape:version="1.0.2-2 (e86c870879, 2021-01-15)"
   sodipodi:docname="ChoppingKinky.svg">
  <defs
     id="defs4995">
    <marker
       style="overflow:visible"
       id="EmptyTriangleInL"
       refX="0.0"
       refY="0.0"
       orient="auto"
       inkscape:stockid="EmptyTriangleInL"
       inkscape:isstock="true">
      <path
         transform="scale(-0.8) translate(-6,0)"
         style="fill-rule:evenodd;fill:#ffffff;stroke:#ffffff;stroke-width:1pt;stroke-opacity:1"
         d="M 5.77,0.0 L -2.88,5.0 L -2.88,-5.0 L 5.77,0.0 z "
         id="path2148" />
    </marker>
    <marker
       style="overflow:visible"
       id="TriangleOutM"
       refX="0.0"
       refY="0.0"
       orient="auto"
       inkscape:stockid="TriangleOutM"
       inkscape:isstock="true">
      <path
         transform="scale(0.4)"
         style="fill-rule:evenodd;stroke:#ffffff;stroke-width:1pt;stroke-opacity:1;fill:#ffffff;fill-opacity:1"
         d="M 5.77,0.0 L -2.88,5.0 L -2.88,-5.0 L 5.77,0.0 z "
         id="path2142" />
    </marker>
    <marker
       style="overflow:visible"
       id="TriangleInM"
       refX="0.0"
       refY="0.0"
       orient="auto"
       inkscape:stockid="TriangleInM"
       inkscape:isstock="true">
      <path
         transform="scale(-0.4)"
         style="fill-rule:evenodd;stroke:#ffffff;stroke-width:1pt;stroke-opacity:1;fill:#ffffff;fill-opacity:1"
         d="M 5.77,0.0 L -2.88,5.0 L -2.88,-5.0 L 5.77,0.0 z "
         id="path2133" />
    </marker>
    <marker
       style="overflow:visible"
       id="TriangleOutL"
       refX="0.0"
       refY="0.0"
       orient="auto"
       inkscape:stockid="TriangleOutL"
       inkscape:isstock="true">
      <path
         transform="scale(0.8)"
         style="fill-rule:evenodd;stroke:#ffffff;stroke-width:1pt;stroke-opacity:1;fill:#ffffff;fill-opacity:1"
         d="M 5.77,0.0 L -2.88,5.0 L -2.88,-5.0 L 5.77,0.0 z "
         id="path2139" />
    </marker>
    <marker
       style="overflow:visible;"
       id="Arrow1Mend"
       refX="0.0"
       refY="0.0"
       orient="auto"
       inkscape:stockid="Arrow1Mend"
       inkscape:isstock="true">
      <path
         transform="scale(0.4) rotate(180) translate(10,0)"
         style="fill-rule:evenodd;stroke:#ffffff;stroke-width:1pt;stroke-opacity:1;fill:#ffffff;fill-opacity:1"
         d="M 0.0,0.0 L 5.0,-5.0 L -12.5,0.0 L 5.0,5.0 L 0.0,0.0 z "
         id="path2006" />
    </marker>
    <marker
       style="overflow:visible"
       id="Arrow1Mstart"
       refX="0.0"
       refY="0.0"
       orient="auto"
       inkscape:stockid="Arrow1Mstart"
       inkscape:isstock="true">
      <path
         transform="scale(0.4) translate(10,0)"
         style="fill-rule:evenodd;stroke:#ffffff;stroke-width:1pt;stroke-opacity:1;fill:#ffffff;fill-opacity:1"
         d="M 0.0,0.0 L 5.0,-5.0 L -12.5,0.0 L 5.0,5.0 L 0.0,0.0 z "
         id="path2003" />
    </marker>
    <inkscape:path-effect
       effect="fillet_chamfer"
       id="path-effect987"
       is_visible="true"
       lpeversion="1"
       satellites_param="F,0,0,1,0,2,0,1 @ F,0,0,1,0,2,0,1 @ F,0,0,1,0,2,0,1 @ F,0,0,1,0,2,0,1 @ F,0,0,1,0,2,0,1 @ F,0,0,1,0,2,0,1 @ F,0,0,1,0,2,0,1 @ F,0,0,1,0,2,0,1"
       unit="mm"
       method="auto"
       mode="F"
       radius="2"
       chamfer_steps="1"
       flexible="false"
       use_knot_distance="true"
       apply_no_radius="true"
       apply_with_radius="true"
       only_selected="false"
       hide_knots="false" />
    <clipPath
       clipPathUnits="userSpaceOnUse"
       id="clipPath999">
      <rect
         style="opacity:1;fill:#ffffff;fill-opacity:1;stroke:#ffffff;stroke-width:0.264999;stroke-linejoin:round;stroke-miterlimit:4;stroke-dasharray:none;stroke-dashoffset:0;stroke-opacity:1"
         id="rect1001"
         width="63.5"
         height="136.07143"
         x="-120.22546"
         y="-3.0238097" />
    </clipPath>
    <clipPath
       clipPathUnits="userSpaceOnUse"
       id="clipPath1020">
      <rect
         style="fill:#ffffff;fill-opacity:0.531496;stroke:none;stroke-width:0.262467;stroke-linejoin:round"
         id="rect1022"
         width="45.556816"
         height="96.696899"
         x="-11.929254"
         y="40.159473" />
    </clipPath>
    <pattern
       id="EMFhbasepattern"
       patternUnits="userSpaceOnUse"
       width="6"
       height="6"
       x="0"
       y="0" />
    <marker
       style="overflow:visible"
       id="TriangleInM-1"
       refX="0"
       refY="0"
       orient="auto"
       inkscape:stockid="TriangleInM"
       inkscape:isstock="true">
      <path
         transform="scale(-0.4)"
         style="fill:#ffffff;fill-opacity:1;fill-rule:evenodd;stroke:#ffffff;stroke-width:1pt;stroke-opacity:1"
         d="M 5.77,0 -2.88,5 V -5 Z"
         id="path2133-0" />
    </marker>
    <marker
       style="overflow:visible"
       id="TriangleOutM-2"
       refX="0"
       refY="0"
       orient="auto"
       inkscape:stockid="TriangleOutM"
       inkscape:isstock="true">
      <path
         transform="scale(0.4)"
         style="fill:#ffffff;fill-opacity:1;fill-rule:evenodd;stroke:#ffffff;stroke-width:1pt;stroke-opacity:1"
         d="M 5.77,0 -2.88,5 V -5 Z"
         id="path2142-7" />
    </marker>
    <inkscape:path-effect
       is_visible="true"
       id="path-effect17624-2-8-1"
       effect="spiro"
       lpeversion="0" />
    <inkscape:path-effect
       is_visible="true"
       id="path-effect4400"
       effect="spiro"
       lpeversion="0" />
    <clipPath
       clipPathUnits="userSpaceOnUse"
       id="clipPath11862-7-8">
      <path
         d="m 56.96872,10.53113 h 11.4738 v 15.10449 h -11.4738 z"
         id="path11864-3-4"
         inkscape:connector-curvature="0" />
    </clipPath>
  </defs>
  <sodipodi:namedview
     id="base"
     pagecolor="#ffffff"
     bordercolor="#666666"
     borderopacity="1.0"
     inkscape:pageopacity="0.0"
     inkscape:pageshadow="2"
     inkscape:zoom="3.959798"
     inkscape:cx="49.653495"
     inkscape:cy="180.06948"
     inkscape:document-units="mm"
     inkscape:current-layer="layer2"
     showgrid="false"
     viewbox-width="209.8"
     inkscape:window-width="2560"
     inkscape:window-height="1361"
     inkscape:window-x="2551"
     inkscape:window-y="-9"
     inkscape:window-maximized="1"
     inkscape:document-rotation="0"
     inkscape:showpageshadow="false" />
  <metadata
     id="metadata4998">
    <rdf:RDF>
      <cc:Work
         rdf:about="">
        <dc:format>image/svg+xml</dc:format>
        <dc:type
           rdf:resource="http://purl.org/dc/dcmitype/StillImage" />
        <dc:title></dc:title>
      </cc:Work>
    </rdf:RDF>
  </metadata>
  <g
     inkscape:groupmode="layer"
     id="layer4"
     inkscape:label="alt"
     style="display:inline">
    <path
       style="display:inline;fill:#171717;fill-opacity:1;stroke:none;stroke-width:0.28271;enable-background:new"
       d="M -0.01935172,0 V 128.5 H 40.620649 V 0 Z"
       id="path6268" />
    <path
       sodipodi:open="true"
       sodipodi:end="4.5413897"
       sodipodi:start="4.9089687"
       sodipodi:ry="18.926979"
       sodipodi:rx="18.911144"
       sodipodi:cy="56.316525"
       sodipodi:cx="25.795078"
       id="path48155"
       style="display:inline;fill:none;stroke:#ffffff;stroke-width:0.45;stroke-linecap:butt;stroke-linejoin:round;stroke-miterlimit:4;stroke-dasharray:none;stroke-dashoffset:0;stroke-opacity:1;enable-background:new"
       sodipodi:type="arc"
       sodipodi:arc-type="arc"
       d="M 29.488729,37.754072 A 18.911144,18.926979 0 0 1 44.602694,58.294278 18.911144,18.926979 0 0 1 25.553207,75.241955 18.911144,18.926979 0 0 1 6.9430717,57.812173 18.911144,18.926979 0 0 1 22.577023,37.665591" />
    <path
       sodipodi:end="1.3732414"
       sodipodi:start="1.7420025"
       sodipodi:type="arc"
       style="display:inline;fill:none;stroke:#ffffff;stroke-width:0.45;stroke-linecap:butt;stroke-linejoin:round;stroke-miterlimit:4;stroke-dasharray:none;stroke-dashoffset:0;stroke-opacity:1;enable-background:new"
       id="path48157"
       sodipodi:cx="25.795078"
       sodipodi:cy="28.207306"
       sodipodi:rx="18.911144"
       sodipodi:ry="18.926979"
       sodipodi:open="true"
       sodipodi:arc-type="arc"
       d="M 22.573167,46.857572 A 18.911144,18.926979 0 0 1 6.9429393,26.713329 18.911144,18.926979 0 0 1 25.545943,9.2819693 18.911144,18.926979 0 0 1 44.601347,26.216759 18.911144,18.926979 0 0 1 29.506814,46.766144" />
    <path
       style="display:inline;fill:none;stroke:#ffffff;stroke-width:0.282222px;stroke-linecap:butt;stroke-linejoin:miter;stroke-opacity:1;enable-background:new"
       d="m 13.171046,42.257073 h 5.872733"
       id="path48737"
       inkscape:connector-curvature="0" />
    <g
       aria-label="CHOPPING
KINKY"
       transform="scale(0.99759887,1.0024069)"
       id="text24582"
       style="font-style:normal;font-variant:normal;font-weight:normal;font-stretch:normal;font-size:3.38667px;line-height:0%;font-family:NanumGothic;-inkscape-font-specification:NanumGothic;text-align:center;letter-spacing:-0.01902px;word-spacing:0px;text-anchor:middle;display:inline;fill:#ffffff;fill-opacity:1;stroke:none;stroke-width:0.282222;enable-background:new">
      <path
         d="M 14.132624,3.8239445 Q 14.012799,3.7928787 13.910725,3.7263092 13.808652,3.6553016 13.733207,3.5621043 13.662199,3.4644689 13.622257,3.3490817 13.582316,3.2336945 13.582316,3.1049933 V 1.5960835 q 0,-0.1242632 0.03994,-0.2396504 0.03994,-0.1198252 0.11095,-0.2130226 0.07545,-0.097635 0.177518,-0.16420487 0.102074,-0.0710075 0.221899,-0.10207331 0.248526,-0.0665695 0.479301,0.0310658 0.230774,0.0931974 0.359475,0.31509589 0.04882,0.075445 0.02219,0.1597669 -0.02219,0.084321 -0.09763,0.1331391 -0.07545,0.04438 -0.159767,0.02219 -0.08432,-0.026628 -0.133139,-0.1020733 -0.05326,-0.093197 -0.155329,-0.1331391 -0.09764,-0.04438 -0.204147,-0.013314 -0.102073,0.026628 -0.168643,0.1153873 -0.06657,0.084321 -0.06657,0.1908327 v 1.5089098 q 0,0.1109493 0.06657,0.1952707 0.06657,0.084322 0.168643,0.1153873 0.106511,0.026628 0.204147,-0.013314 0.102073,-0.04438 0.155329,-0.137577 0.04882,-0.075445 0.133139,-0.097635 0.08432,-0.026628 0.159767,0.017752 0.07544,0.048818 0.09763,0.1331391 0.02663,0.084321 -0.02219,0.1597669 -0.128701,0.2218985 -0.359475,0.3150959 -0.230775,0.097635 -0.479301,0.031066 z"
         style="font-weight:600;font-size:4.43797px;line-height:94%;font-family:Miso;-inkscape-font-specification:Miso;text-align:center;text-anchor:middle;fill:#ffffff;stroke-width:0.282222"
         id="path2565" />
      <path
         d="m 16.390275,1.0635271 q 0,-0.0887594 0.06213,-0.15089102 0.06213,-0.0621316 0.150891,-0.0621316 0.08876,0 0.150891,0.0621316 0.06213,0.0621316 0.06213,0.15089102 v 2.5740227 q 0,0.088759 -0.06213,0.1508909 -0.06213,0.062132 -0.150891,0.062132 -0.08876,0 -0.150891,-0.062132 -0.06213,-0.062132 -0.06213,-0.1508909 V 2.5191813 h -0.639068 v 1.1183685 q 0,0.088759 -0.06213,0.1508909 -0.06213,0.062132 -0.150891,0.062132 -0.08876,0 -0.150891,-0.062132 -0.06213,-0.062132 -0.06213,-0.1508909 V 1.0635271 q 0,-0.0887594 0.06213,-0.15089102 0.06213,-0.0621316 0.150891,-0.0621316 0.08876,0 0.150891,0.0621316 0.06213,0.0621316 0.06213,0.15089102 v 1.029609 h 0.639068 v -1.029609 z"
         style="font-weight:600;font-size:4.43797px;line-height:94%;font-family:Miso;-inkscape-font-specification:Miso;text-align:center;text-anchor:middle;fill:#ffffff;stroke-width:0.282222"
         id="path2567" />
      <path
         d="m 17.951166,3.8505723 q -0.155329,0 -0.292906,-0.057694 Q 17.525121,3.7351851 17.423048,3.6331118 17.320975,3.5310385 17.263281,3.3978994 17.205587,3.2603223 17.205587,3.1049933 V 1.5960835 q 0,-0.155329 0.05769,-0.2884681 0.05769,-0.137577 0.159767,-0.2396504 0.102073,-0.10207328 0.235212,-0.15976689 0.137577,-0.0576936 0.292906,-0.0576936 0.155329,0 0.288468,0.0576936 0.137577,0.0576936 0.239651,0.15976689 0.102073,0.1020734 0.159767,0.2396504 0.05769,0.1331391 0.05769,0.2884681 v 1.5089098 q 0,0.155329 -0.05769,0.2929061 -0.05769,0.1331391 -0.159767,0.2352124 -0.102074,0.1020733 -0.239651,0.1597669 -0.133139,0.057694 -0.288468,0.057694 z m 0,-2.5740227 q -0.133139,0 -0.226336,0.093197 -0.0932,0.093197 -0.0932,0.2263365 v 1.5089098 q 0,0.1331391 0.0932,0.2263365 0.0932,0.093197 0.226336,0.093197 0.133139,0 0.226337,-0.093197 0.0932,-0.093197 0.0932,-0.2263365 V 1.5960835 q 0,-0.1331391 -0.0932,-0.2263365 -0.0932,-0.093197 -0.226337,-0.093197 z"
         style="font-weight:600;font-size:4.43797px;line-height:94%;font-family:Miso;-inkscape-font-specification:Miso;text-align:center;text-anchor:middle;fill:#ffffff;stroke-width:0.282222"
         id="path2569" />
      <path
         d="m 19.086012,1.0812789 q 0,-0.0887594 0.06213,-0.15089094 0.06213,-0.0621316 0.150891,-0.0621316 h 0.532557 q 0.155329,0 0.288468,0.0576936 0.137577,0.0576936 0.23965,0.15976691 0.102073,0.1020733 0.159767,0.2396504 0.05769,0.1331391 0.05769,0.2884681 v 0.2485263 q 0,0.155329 -0.05769,0.292906 -0.05769,0.1331391 -0.159767,0.2352124 -0.102073,0.1020734 -0.23965,0.159767 -0.133139,0.057694 -0.288468,0.057694 h -0.319534 v 1.0296091 q 0,0.088759 -0.06213,0.1508909 -0.06213,0.062132 -0.150891,0.062132 -0.08876,0 -0.150891,-0.062132 -0.06213,-0.062132 -0.06213,-0.1508909 V 1.0812789 Z m 1.065113,0.5325565 q 0,-0.1331391 -0.0932,-0.2263365 -0.0932,-0.093197 -0.226336,-0.093197 h -0.319534 v 0.887594 h 0.319534 q 0.133139,0 0.226336,-0.093197 0.0932,-0.093197 0.0932,-0.2263365 V 1.6138354 Z"
         style="font-weight:600;font-size:4.43797px;line-height:94%;font-family:Miso;-inkscape-font-specification:Miso;text-align:center;text-anchor:middle;fill:#ffffff;stroke-width:0.282222"
         id="path2571" />
      <path
         d="m 20.842178,1.0812789 q 0,-0.0887594 0.06213,-0.15089094 0.06213,-0.0621316 0.150891,-0.0621316 h 0.532556 q 0.155329,0 0.288468,0.0576936 0.137577,0.0576936 0.239651,0.15976691 0.102073,0.1020733 0.159767,0.2396504 0.05769,0.1331391 0.05769,0.2884681 v 0.2485263 q 0,0.155329 -0.05769,0.292906 -0.05769,0.1331391 -0.159767,0.2352124 -0.102074,0.1020734 -0.239651,0.159767 -0.133139,0.057694 -0.288468,0.057694 h -0.319534 v 1.0296091 q 0,0.088759 -0.06213,0.1508909 -0.06213,0.062132 -0.150891,0.062132 -0.08876,0 -0.150891,-0.062132 -0.06213,-0.062132 -0.06213,-0.1508909 V 1.0812789 Z m 1.065113,0.5325565 q 0,-0.1331391 -0.0932,-0.2263365 -0.0932,-0.093197 -0.226337,-0.093197 h -0.319534 v 0.887594 h 0.319534 q 0.133139,0 0.226337,-0.093197 0.0932,-0.093197 0.0932,-0.2263365 V 1.6138354 Z"
         style="font-weight:600;font-size:4.43797px;line-height:94%;font-family:Miso;-inkscape-font-specification:Miso;text-align:center;text-anchor:middle;fill:#ffffff;stroke-width:0.282222"
         id="path2573" />
      <path
         d="m 22.811367,3.8505723 q -0.08876,0 -0.150891,-0.062132 -0.06213,-0.062132 -0.06213,-0.1508909 V 1.0635271 q 0,-0.0887594 0.06213,-0.15089102 0.06213,-0.0621316 0.150891,-0.0621316 0.08876,0 0.150891,0.0621316 0.06213,0.0621316 0.06213,0.15089102 v 2.5740227 q 0,0.088759 -0.06213,0.1508909 -0.06213,0.062132 -0.150891,0.062132 z"
         style="font-weight:600;font-size:4.43797px;line-height:94%;font-family:Miso;-inkscape-font-specification:Miso;text-align:center;text-anchor:middle;fill:#ffffff;stroke-width:0.282222"
         id="path2575" />
      <path
         d="m 24.971386,3.8461344 q -0.07545,0.017752 -0.142015,-0.017752 -0.06657,-0.031066 -0.09764,-0.097635 Q 24.598596,3.446717 24.452143,3.149373 24.32788,2.8964087 24.176989,2.5901888 24.030536,2.2839689 23.892959,1.9955008 v 1.642049 q 0,0.088759 -0.06213,0.1508909 -0.06213,0.062132 -0.150891,0.062132 -0.08876,0 -0.150891,-0.062132 -0.06213,-0.062132 -0.06213,-0.1508909 V 1.0635271 q 0,-0.0754455 0.04438,-0.13313914 0.04438,-0.0576936 0.119825,-0.0754455 0.07544,-0.0177519 0.137577,0.0177519 0.06657,0.0310658 0.102073,0.0976353 0.133139,0.28403011 0.279592,0.58137411 0.124264,0.2529643 0.270717,0.5591842 0.146453,0.30622 0.288468,0.594688 V 1.0635271 q 0,-0.0887594 0.06213,-0.15089102 0.06213,-0.0621316 0.150891,-0.0621316 0.08876,0 0.150891,0.0621316 0.06213,0.0621316 0.06213,0.15089102 v 2.5740227 q 0,0.075446 -0.04882,0.1331391 -0.04438,0.057694 -0.115387,0.075445 z"
         style="font-weight:600;font-size:4.43797px;line-height:94%;font-family:Miso;-inkscape-font-specification:Miso;text-align:center;text-anchor:middle;fill:#ffffff;stroke-width:0.282222"
         id="path2577" />
      <path
         d="m 26.802997,2.1818955 q 0.08876,0 0.150891,0.062132 0.06213,0.062132 0.06213,0.150891 v 0.7100752 q 0,0.155329 -0.05769,0.2929061 -0.05769,0.1331391 -0.159767,0.2352124 -0.102073,0.1020733 -0.23965,0.1597669 -0.13314,0.057694 -0.288468,0.057694 -0.155329,0 -0.292907,-0.057694 Q 25.844395,3.7351851 25.742322,3.6331118 25.644687,3.5310385 25.582555,3.3978994 25.524862,3.2603223 25.524862,3.1049933 V 1.5960835 q 0,-0.1242632 0.03994,-0.2396504 0.03994,-0.1198252 0.11095,-0.2130226 0.07544,-0.097635 0.177518,-0.16420487 0.102074,-0.0710075 0.226337,-0.10207331 0.119825,-0.0310658 0.244088,-0.0221898 0.124263,0.004438 0.235213,0.0532556 0.110949,0.0443797 0.204146,0.12426319 0.0932,0.079883 0.155329,0.1908327 0.04438,0.075445 0.01775,0.1597669 -0.02219,0.084321 -0.09764,0.1331391 -0.07545,0.04438 -0.159767,0.02219 -0.08432,-0.026628 -0.128701,-0.1020733 -0.05769,-0.093197 -0.159767,-0.1331391 -0.09764,-0.04438 -0.199709,-0.013314 -0.106511,0.026628 -0.173081,0.1153873 -0.06657,0.084321 -0.06657,0.1908327 v 1.5089098 q 0,0.1331391 0.0932,0.2263365 0.09764,0.093197 0.226337,0.093197 0.133139,0 0.226336,-0.093197 0.0932,-0.093197 0.0932,-0.2263365 V 2.6079407 H 26.3592 q -0.08876,0 -0.150891,-0.062132 -0.06213,-0.062132 -0.06213,-0.150891 0,-0.088759 0.06213,-0.150891 0.06213,-0.062132 0.150891,-0.062132 h 0.443797 z"
         style="font-weight:600;font-size:4.43797px;line-height:94%;font-family:Miso;-inkscape-font-specification:Miso;text-align:center;text-anchor:middle;fill:#ffffff;stroke-width:0.282222"
         id="path2579" />
      <path
         d="m 17.84244,7.2056777 q 0.0355,0.079884 0.0044,0.1642049 -0.02663,0.084321 -0.106511,0.1198252 -0.07988,0.039942 -0.164205,0.00888 -0.07988,-0.026628 -0.119825,-0.1065112 L 16.874963,6.1805066 16.70632,6.4112811 v 0.887594 q 0,0.088759 -0.06213,0.150891 -0.06213,0.062132 -0.150891,0.062132 -0.08876,0 -0.150891,-0.062132 -0.06213,-0.062132 -0.06213,-0.150891 V 4.7248524 q 0,-0.088759 0.06213,-0.150891 0.06213,-0.062132 0.150891,-0.062132 0.08876,0 0.150891,0.062132 0.06213,0.062132 0.06213,0.150891 V 5.679016 l 0.767769,-1.0784268 q 0.05326,-0.071008 0.137577,-0.084321 0.08876,-0.013314 0.159767,0.035504 0.07545,0.048818 0.08876,0.137577 0.01331,0.084322 -0.03994,0.159767 l -0.665696,0.9364117 z"
         style="font-weight:600;font-size:4.43797px;line-height:71%;font-family:Miso;-inkscape-font-specification:Miso;text-align:center;text-anchor:middle;fill:#ffffff;stroke-width:0.282222"
         id="path2581" />
      <path
         d="m 18.342661,7.5118977 q -0.08876,0 -0.150891,-0.062132 -0.06213,-0.062132 -0.06213,-0.150891 V 4.7248524 q 0,-0.088759 0.06213,-0.150891 0.06213,-0.062132 0.150891,-0.062132 0.08876,0 0.150891,0.062132 0.06213,0.062132 0.06213,0.150891 v 2.5740227 q 0,0.088759 -0.06213,0.150891 -0.06213,0.062132 -0.150891,0.062132 z"
         style="font-weight:600;font-size:4.43797px;line-height:71%;font-family:Miso;-inkscape-font-specification:Miso;text-align:center;text-anchor:middle;fill:#ffffff;stroke-width:0.282222"
         id="path2583" />
      <path
         d="m 20.502679,7.5074597 q -0.07545,0.017752 -0.142015,-0.017752 -0.06657,-0.031066 -0.09764,-0.097635 Q 20.12989,7.1080424 19.983437,6.8106984 19.859173,6.5577341 19.708282,6.2515141 19.561829,5.9452942 19.424252,5.6568261 v 1.642049 q 0,0.088759 -0.06213,0.150891 -0.06213,0.062132 -0.150891,0.062132 -0.08876,0 -0.150891,-0.062132 -0.06213,-0.062132 -0.06213,-0.150891 V 4.7248524 q 0,-0.075445 0.04438,-0.1331391 0.04438,-0.057694 0.119825,-0.075446 0.07545,-0.017752 0.137577,0.017752 0.06657,0.031066 0.102073,0.097635 0.13314,0.2840301 0.279593,0.5813741 0.124263,0.2529643 0.270716,0.5591843 0.146453,0.3062199 0.288468,0.594688 v -1.642049 q 0,-0.088759 0.06213,-0.150891 0.06213,-0.062132 0.150891,-0.062132 0.08876,0 0.150891,0.062132 0.06213,0.062132 0.06213,0.150891 v 2.5740227 q 0,0.075445 -0.04882,0.1331391 -0.04438,0.057694 -0.115387,0.075445 z"
         style="font-weight:600;font-size:4.43797px;line-height:71%;font-family:Miso;-inkscape-font-specification:Miso;text-align:center;text-anchor:middle;fill:#ffffff;stroke-width:0.282222"
         id="path2585" />
      <path
         d="m 22.671576,7.2056777 q 0.0355,0.079884 0.0044,0.1642049 -0.02663,0.084321 -0.106511,0.1198252 -0.07988,0.039942 -0.164205,0.00888 -0.07988,-0.026628 -0.119825,-0.1065112 L 21.704099,6.1805066 21.535456,6.4112811 v 0.887594 q 0,0.088759 -0.06213,0.150891 -0.06213,0.062132 -0.150891,0.062132 -0.08876,0 -0.150891,-0.062132 -0.06213,-0.062132 -0.06213,-0.150891 V 4.7248524 q 0,-0.088759 0.06213,-0.150891 0.06213,-0.062132 0.150891,-0.062132 0.08876,0 0.150891,0.062132 0.06213,0.062132 0.06213,0.150891 V 5.679016 l 0.767769,-1.0784268 q 0.05326,-0.071008 0.137577,-0.084321 0.08876,-0.013314 0.159767,0.035504 0.07544,0.048818 0.08876,0.137577 0.01331,0.084322 -0.03994,0.159767 l -0.665696,0.9364117 z"
         style="font-weight:600;font-size:4.43797px;line-height:71%;font-family:Miso;-inkscape-font-specification:Miso;text-align:center;text-anchor:middle;fill:#ffffff;stroke-width:0.282222"
         id="path2587" />
      <path
         d="m 23.620032,7.5118977 q -0.08876,0 -0.150891,-0.062132 -0.06213,-0.062132 -0.06213,-0.150891 V 6.0163017 l -0.599126,-1.193814 q -0.03994,-0.079883 -0.01331,-0.1642049 0.03107,-0.084321 0.11095,-0.1242631 0.07544,-0.039942 0.159766,-0.00888 0.08432,0.026628 0.124264,0.1065113 l 0.146453,0.2929061 q 0.06213,0.1287011 0.137577,0.2795921 0.07544,0.150891 0.146453,0.288468 0.06657,-0.137577 0.142015,-0.288468 0.07988,-0.150891 0.142015,-0.2795921 L 24.050515,4.631655 q 0.03994,-0.079883 0.124263,-0.1065113 0.08432,-0.031066 0.159767,0.00888 0.07988,0.039942 0.106511,0.1242631 0.03107,0.084321 -0.0089,0.1642049 l -0.599126,1.193814 v 1.2825734 q 0,0.088759 -0.06213,0.150891 -0.06213,0.062132 -0.150891,0.062132 z"
         style="font-weight:600;font-size:4.43797px;line-height:71%;font-family:Miso;-inkscape-font-specification:Miso;text-align:center;text-anchor:middle;fill:#ffffff;stroke-width:0.282222"
         id="path2589" />
    </g>
    <text
       id="text6368"
       y="122.58993"
       x="13.034549"
       style="font-style:normal;font-variant:normal;font-weight:bold;font-stretch:condensed;font-size:3.38667px;line-height:0%;font-family:Miso;-inkscape-font-specification:'Miso Bold Condensed';letter-spacing:-0.0144043px;word-spacing:0px;display:inline;fill:#000000;fill-opacity:1;stroke:none;stroke-width:0.282222;enable-background:new"
       xml:space="preserve"><tspan
         style="font-size:3.36098px;line-height:1.25;fill:#000000;fill-opacity:1;stroke-width:0.282222"
         y="122.58993"
         x="13.034549"
         id="tspan6370"
         sodipodi:role="line"> </tspan></text>
    <text
       xml:space="preserve"
       style="font-style:normal;font-variant:normal;font-weight:bold;font-stretch:normal;font-size:3.38667px;line-height:0%;font-family:Nyet;-inkscape-font-specification:'Nyet Bold';letter-spacing:0px;word-spacing:0px;display:inline;fill:#000000;fill-opacity:1;stroke:none;stroke-width:0.282222;enable-background:new"
       x="10.027257"
       y="104.84864"
       id="text10885"><tspan
         sodipodi:role="line"
         id="tspan10887"
         x="10.027257"
         y="104.84864"
         style="font-size:4.51555px;line-height:1.25;stroke-width:0.282222"> </tspan></text>
    <g
       aria-label="IN A"
       id="text48159"
       style="font-style:normal;font-variant:normal;font-weight:bold;font-stretch:condensed;font-size:3.38667px;line-height:0%;font-family:Miso;-inkscape-font-specification:'Miso Bold Condensed';letter-spacing:-0.0169333px;word-spacing:0px;display:inline;fill:#ffffff;fill-opacity:1;stroke:none;stroke-width:0.282222;enable-background:new">
      <path
         d="m 1.7883122,22.267741 q -0.079022,0 -0.1343377,-0.05532 -0.055316,-0.05532 -0.055316,-0.134337 v -2.291644 q 0,-0.07902 0.055316,-0.134338 0.055316,-0.05532 0.1343377,-0.05532 0.079022,0 0.1343378,0.05532 0.055316,0.05532 0.055316,0.134338 v 2.291644 q 0,0.07902 -0.055316,0.134337 -0.055316,0.05532 -0.1343378,0.05532 z"
         style="font-size:3.95111px;line-height:1.25;fill:#ffffff;fill-opacity:1;stroke-width:0.282222"
         id="path2592" />
      <path
         d="m 3.7113693,22.26379 q -0.067169,0.0158 -0.1264355,-0.01581 -0.059267,-0.02766 -0.086924,-0.08692 Q 3.3794761,21.90819 3.2490895,21.643466 3.1384584,21.418252 3.0041207,21.145626 2.873734,20.872999 2.7512496,20.616177 v 1.461911 q 0,0.07902 -0.055315,0.134337 -0.055316,0.05532 -0.1343377,0.05532 -0.079022,0 -0.1343378,-0.05532 -0.055315,-0.05532 -0.055315,-0.134337 v -2.291644 q 0,-0.06717 0.039511,-0.118533 0.039511,-0.05137 0.1066799,-0.06717 0.067169,-0.01581 0.1224845,0.0158 0.059267,0.02766 0.090876,0.08693 0.1185333,0.252871 0.2489199,0.517595 0.1106311,0.225213 0.2410177,0.49784 0.1303866,0.272627 0.2568222,0.529449 v -1.461911 q 0,-0.07902 0.055316,-0.134338 0.055315,-0.05532 0.1343377,-0.05532 0.079022,0 0.1343378,0.05532 0.055316,0.05532 0.055316,0.134338 v 2.291644 q 0,0.06717 -0.043462,0.118533 -0.039511,0.05136 -0.1027289,0.06717 z"
         style="font-size:3.95111px;line-height:1.25;fill:#ffffff;fill-opacity:1;stroke-width:0.282222"
         id="path2594" />
      <path
         d="m 6.455129,22.026723 q 0.019755,0.07902 -0.019756,0.146191 -0.03556,0.06717 -0.110631,0.08693 -0.079022,0.01975 -0.1461911,-0.01976 -0.067169,-0.03556 -0.086924,-0.110631 -0.015804,-0.04741 -0.031609,-0.114582 -0.015804,-0.05532 -0.039511,-0.130387 -0.019755,-0.07902 -0.043462,-0.169897 H 5.305356 q -0.027658,0.09088 -0.047413,0.169897 -0.019756,0.07507 -0.03556,0.130387 -0.015804,0.06717 -0.031609,0.114582 -0.019755,0.07507 -0.086924,0.110631 -0.067169,0.03951 -0.1461911,0.01976 -0.075071,-0.01976 -0.1145821,-0.08693 -0.03556,-0.06717 -0.015804,-0.146191 L 5.4594493,19.73508 q 0.015804,-0.06322 0.063218,-0.09878 0.051364,-0.03951 0.1185333,-0.03951 0.067169,0 0.1145821,0.03951 0.051365,0.03556 0.067169,0.09878 z M 5.8703647,21.335279 Q 5.8150492,21.129821 5.7557825,20.91251 5.6965159,20.695199 5.6412004,20.501595 5.5858848,20.695199 5.5266182,20.91251 5.4673515,21.129821 5.412036,21.335279 Z"
         style="font-size:3.95111px;line-height:1.25;fill:#ffffff;fill-opacity:1;stroke-width:0.282222"
         id="path2596" />
    </g>
    <g
       style="display:inline;enable-background:new"
       inkscape:export-ydpi="599.91437"
       inkscape:export-xdpi="599.91437"
       inkscape:export-filename="/home/diego/Escritorio/VCA tirar.png"
       inkscape:label="Capa 1"
       id="g48163"
       transform="matrix(0.43088303,0,0,0.43088303,-352.38195,-214.57795)">
      <g
         id="g48165"
         transform="matrix(1.4349548,0,0,1.4349548,-259.63944,-278.07628)">
        <g
           id="g48167"
           style="fill:#ffffff">
          <path
             inkscape:transform-center-y="-26.485113"
             inkscape:connector-curvature="0"
             d="m 791.93575,557.51491 c 0.35782,-0.6197 1.15031,-0.83204 1.77004,-0.47428 0.61975,0.35784 0.83211,1.15037 0.47429,1.77005 -0.35779,0.61977 -1.15029,0.83212 -1.77004,0.47427 -0.61971,-0.35775 -0.83207,-1.15028 -0.47429,-1.77004"
             style="display:inline;fill:#ffffff;fill-opacity:1;fill-rule:nonzero;stroke:none;enable-background:new"
             id="path48169" />
          <path
             id="path48171"
             style="display:inline;fill:#ffffff;fill-opacity:1;fill-rule:nonzero;stroke:none;enable-background:new"
             d="m 791.93575,557.51491 c 0.35782,-0.6197 1.15031,-0.83204 1.77004,-0.47428 0.61975,0.35784 0.83211,1.15037 0.47429,1.77005 -0.35779,0.61977 -1.15029,0.83212 -1.77004,0.47427 -0.61971,-0.35775 -0.83207,-1.15028 -0.47429,-1.77004"
             inkscape:connector-curvature="0"
             inkscape:transform-center-y="-26.485113" />
          <g
             id="g48173">
            <path
               sodipodi:type="arc"
               style="display:inline;fill:none;stroke:#ffffff;stroke-width:0.708035px;stroke-linecap:butt;stroke-linejoin:miter;stroke-opacity:1;enable-background:new"
               id="path48175"
               sodipodi:cx="133.29521"
               sodipodi:cy="219.52234"
               sodipodi:rx="23.963184"
               sodipodi:ry="23.963184"
               transform="matrix(-0.76288877,0,0,0.76296138,894.69404,408.97765)"
               sodipodi:start="2.0832953"
               sodipodi:end="1.0646776"
               sodipodi:open="true"
               sodipodi:arc-type="arc"
               d="m 121.5447,240.40678 a 23.963184,23.963184 0 0 1 -11.42049,-26.99498 23.963184,23.963184 0 0 1 23.24745,-17.85252 23.963184,23.963184 0 0 1 23.13307,18.00048 23.963184,23.963184 0 0 1 -11.5925,26.92156" />
            <path
               id="path48177"
               style="display:inline;fill:#ffffff;fill-opacity:1;fill-rule:nonzero;stroke:none;enable-background:new"
               d="m 783.50246,591.28185 c 0.53135,-0.30675 1.21085,-0.12468 1.51765,0.40665 0.30678,0.53139 0.1247,1.21092 -0.40666,1.51766 -0.53138,0.30682 -1.21087,0.12475 -1.51764,-0.40665 -0.3068,-0.53132 -0.12473,-1.21084 0.40665,-1.51766"
               inkscape:connector-curvature="0" />
            <path
               id="path48179"
               style="display:inline;fill:#ffffff;fill-opacity:1;fill-rule:nonzero;stroke:none;enable-background:new"
               d="m 800.94671,592.24398 c 3e-5,-0.61363 0.49753,-1.11113 1.11117,-1.11116 0.61369,3e-5 1.11122,0.49755 1.11119,1.11119 2e-5,0.61369 -0.49748,1.11119 -1.11117,1.11116 -0.61364,3e-5 -1.11116,-0.49749 -1.11119,-1.11119"
               inkscape:connector-curvature="0" />
            <path
               id="path48181"
               style="display:inline;fill:#ffffff;fill-opacity:1;fill-rule:nonzero;stroke:none;enable-background:new"
               d="m 791.93575,557.51491 c 0.35782,-0.6197 1.15031,-0.83204 1.77004,-0.47428 0.61975,0.35784 0.83211,1.15037 0.47429,1.77005 -0.35779,0.61977 -1.15029,0.83212 -1.77004,0.47427 -0.61971,-0.35775 -0.83207,-1.15028 -0.47429,-1.77004"
               inkscape:connector-curvature="0"
               inkscape:transform-center-y="-26.485113" />
          </g>
        </g>
      </g>
    </g>
    <g
       transform="matrix(0.43088303,0,0,0.43088303,-352.38195,-173.80898)"
       id="g48183"
       inkscape:label="Capa 1"
       inkscape:export-filename="/home/diego/Escritorio/VCA tirar.png"
       inkscape:export-xdpi="599.91437"
       inkscape:export-ydpi="599.91437"
       style="display:inline;enable-background:new">
      <g
         transform="matrix(1.4349548,0,0,1.4349548,-259.63944,-278.07628)"
         id="g48185">
        <g
           style="fill:#ffffff"
           id="g48187">
          <g
             id="g48189">
            <path
               sodipodi:open="true"
               sodipodi:end="1.0646776"
               sodipodi:start="2.0832953"
               transform="matrix(-0.76288877,0,0,0.76296138,894.69404,408.97765)"
               sodipodi:ry="23.963184"
               sodipodi:rx="23.963184"
               sodipodi:cy="219.52234"
               sodipodi:cx="133.29521"
               id="path48191"
               style="display:inline;fill:none;stroke:#ffffff;stroke-width:0.708035px;stroke-linecap:butt;stroke-linejoin:miter;stroke-opacity:1;enable-background:new"
               sodipodi:type="arc"
               sodipodi:arc-type="arc"
               d="m 121.5447,240.40678 a 23.963184,23.963184 0 0 1 -11.42049,-26.99498 23.963184,23.963184 0 0 1 23.24745,-17.85252 23.963184,23.963184 0 0 1 23.13307,18.00048 23.963184,23.963184 0 0 1 -11.5925,26.92156" />
            <path
               inkscape:connector-curvature="0"
               d="m 783.50246,591.28185 c 0.53135,-0.30675 1.21085,-0.12468 1.51765,0.40665 0.30678,0.53139 0.1247,1.21092 -0.40666,1.51766 -0.53138,0.30682 -1.21087,0.12475 -1.51764,-0.40665 -0.3068,-0.53132 -0.12473,-1.21084 0.40665,-1.51766"
               style="display:inline;fill:#ffffff;fill-opacity:1;fill-rule:nonzero;stroke:none;enable-background:new"
               id="path48193" />
            <path
               inkscape:connector-curvature="0"
               d="m 800.94671,592.24398 c 3e-5,-0.61363 0.49753,-1.11113 1.11117,-1.11116 0.61369,3e-5 1.11122,0.49755 1.11119,1.11119 2e-5,0.61369 -0.49748,1.11119 -1.11117,1.11116 -0.61364,3e-5 -1.11116,-0.49749 -1.11119,-1.11119"
               style="display:inline;fill:#ffffff;fill-opacity:1;fill-rule:nonzero;stroke:none;enable-background:new"
               id="path48195" />
          </g>
        </g>
      </g>
    </g>
    <g
       id="g48241"
       transform="matrix(0.2822222,0,0,0.2822222,-71.785526,-51.086281)"
       style="display:inline;enable-background:new">
      <path
         transform="matrix(0,-1.696934,1.6683739,0,155.45754,766.18358)"
         inkscape:randomized="0"
         inkscape:rounded="0"
         inkscape:flatsided="true"
         sodipodi:arg2="4.1887902"
         sodipodi:arg1="3.1415927"
         sodipodi:r2="0.75583667"
         sodipodi:r1="1.5116733"
         sodipodi:cy="87.252441"
         sodipodi:cx="241.375"
         sodipodi:sides="3"
         id="path48243"
         style="display:inline;fill:#ffffff;fill-opacity:1;stroke:#ffffff;stroke-width:0.593853;stroke-linecap:square;stroke-miterlimit:4;stroke-dasharray:none;stroke-dashoffset:0;stroke-opacity:1;enable-background:new"
         sodipodi:type="star"
         inkscape:transform-center-y="0.6413054"
         inkscape:export-filename="/home/diego/Escritorio/VCA tirar.png"
         inkscape:export-xdpi="599.91437"
         inkscape:export-ydpi="599.91437"
         d="m 239.86333,87.252441 2.26751,-1.309147 0,2.618295 z" />
      <path
         inkscape:export-ydpi="599.91437"
         inkscape:export-xdpi="599.91437"
         inkscape:export-filename="/home/diego/Escritorio/VCA tirar.png"
         inkscape:transform-center-y="-0.64130573"
         sodipodi:type="star"
         style="display:inline;fill:#ffffff;fill-opacity:1;stroke:#ffffff;stroke-width:0.593853;stroke-linecap:square;stroke-miterlimit:4;stroke-dasharray:none;stroke-dashoffset:0;stroke-opacity:1;enable-background:new"
         id="path48245"
         sodipodi:sides="3"
         sodipodi:cx="241.375"
         sodipodi:cy="87.252441"
         sodipodi:r1="1.5116733"
         sodipodi:r2="0.75583667"
         sodipodi:arg1="3.1415927"
         sodipodi:arg2="4.1887902"
         inkscape:flatsided="true"
         inkscape:rounded="0"
         inkscape:randomized="0"
         transform="matrix(0,1.696934,1.6683739,0,155.45754,-104.80182)"
         d="m 239.86333,87.252441 2.26751,-1.309147 0,2.618295 z" />
      <path
         style="fill:none;stroke:#ffffff;stroke-width:2.12598;stroke-linecap:butt;stroke-linejoin:miter;stroke-miterlimit:4;stroke-dasharray:none;stroke-opacity:1"
         d="m 301.02724,306.54862 v 48.54559"
         id="path48247"
         inkscape:connector-curvature="0" />
    </g>
    <path
       style="display:inline;fill:none;stroke:#ffffff;stroke-width:0.599999;stroke-linecap:butt;stroke-linejoin:miter;stroke-miterlimit:4;stroke-dasharray:none;stroke-opacity:1;enable-background:new"
       d="M 26.056707,34.610801 V 50.271654"
       id="path48249"
       inkscape:connector-curvature="0" />
    <g
       aria-label="IN B"
       id="text48251"
       style="font-style:normal;font-variant:normal;font-weight:bold;font-stretch:condensed;font-size:3.38667px;line-height:0%;font-family:Miso;-inkscape-font-specification:'Miso Bold Condensed';letter-spacing:-0.0169333px;word-spacing:0px;display:inline;fill:#ffffff;fill-opacity:1;stroke:none;stroke-width:0.282222;enable-background:new">
      <path
         d="m 1.8554752,64.521085 q -0.079022,0 -0.1343377,-0.05532 -0.055316,-0.05532 -0.055316,-0.134338 v -2.291643 q 0,-0.07902 0.055316,-0.134338 0.055316,-0.05532 0.1343377,-0.05532 0.079022,0 0.1343377,0.05532 0.055316,0.05532 0.055316,0.134338 v 2.291643 q 0,0.07902 -0.055316,0.134338 -0.055316,0.05532 -0.1343377,0.05532 z"
         style="font-size:3.95111px;line-height:1.25;fill:#ffffff;fill-opacity:1;stroke-width:0.282222"
         id="path2599" />
      <path
         d="m 3.7785323,64.517133 q -0.067169,0.01581 -0.1264355,-0.0158 -0.059267,-0.02766 -0.086924,-0.08692 Q 3.4466391,64.161534 3.3162525,63.896809 3.2056214,63.671596 3.0712837,63.398969 2.940897,63.126343 2.8184126,62.869521 v 1.46191 q 0,0.07902 -0.055315,0.134338 -0.055316,0.05532 -0.1343378,0.05532 -0.079022,0 -0.1343377,-0.05532 -0.055315,-0.05532 -0.055315,-0.134338 v -2.291643 q 0,-0.06717 0.039511,-0.118534 0.039511,-0.05136 0.1066799,-0.06717 0.067169,-0.0158 0.1224844,0.01581 0.059267,0.02766 0.090876,0.08692 0.1185333,0.252871 0.2489199,0.517596 0.1106311,0.225213 0.2410177,0.49784 0.1303866,0.272626 0.2568221,0.529448 v -1.46191 q 0,-0.07902 0.055316,-0.134338 0.055315,-0.05532 0.1343377,-0.05532 0.079022,0 0.1343378,0.05532 0.055315,0.05532 0.055315,0.134338 v 2.291643 q 0,0.06717 -0.043462,0.118534 -0.039511,0.05136 -0.1027289,0.06717 z"
         style="font-size:3.95111px;line-height:1.25;fill:#ffffff;fill-opacity:1;stroke-width:0.282222"
         id="path2601" />
      <path
         d="m 6.3879542,62.671965 q 0,0.138289 -0.055315,0.260773 -0.055316,0.122485 -0.1461911,0.21336 0.090876,0.09088 0.1461911,0.21336 0.055315,0.122485 0.055315,0.260774 v 0.221262 q 0,0.138289 -0.055315,0.260773 -0.051364,0.118533 -0.14224,0.209409 -0.086924,0.09087 -0.2094088,0.14224 -0.1224844,0.05136 -0.2568221,0.05136 H 5.2500346 q -0.079022,0 -0.1343377,-0.05531 -0.055316,-0.05532 -0.055316,-0.134338 v -2.260035 q 0,-0.07902 0.055316,-0.134338 0.055316,-0.05532 0.1343377,-0.05532 h 0.4741332 q 0.1343377,0 0.2568221,0.05136 0.1224844,0.05137 0.2094088,0.14224 0.090876,0.09088 0.14224,0.21336 0.055315,0.118533 0.055315,0.256822 v 0.14224 z m -0.3793065,0.948267 q 0,-0.118534 -0.082973,-0.201507 -0.082973,-0.08297 -0.2015066,-0.08297 H 5.4396879 v 0.790222 h 0.2844799 q 0.1185333,0 0.2015066,-0.08297 0.082973,-0.08297 0.082973,-0.201506 V 63.620232 Z M 5.7241678,62.956445 q 0.1185333,0 0.2015066,-0.08297 0.082973,-0.08297 0.082973,-0.201507 v -0.14224 q 0,-0.118533 -0.082973,-0.201506 -0.082973,-0.08297 -0.2015066,-0.08297 H 5.4396879 v 0.7112 z"
         style="font-size:3.95111px;line-height:1.25;fill:#ffffff;fill-opacity:1;stroke-width:0.282222"
         id="path2603" />
    </g>
    <path
       inkscape:export-ydpi="599.91437"
       inkscape:export-xdpi="599.91437"
       inkscape:export-filename="/home/diego/Escritorio/VCA tirar.png"
       sodipodi:type="star"
       style="display:inline;fill:#ffffff;fill-opacity:1;stroke:#ffffff;stroke-width:0.316226;stroke-linecap:square;stroke-miterlimit:4;stroke-dasharray:none;stroke-dashoffset:0;stroke-opacity:1;enable-background:new"
       id="path48255"
       sodipodi:sides="3"
       sodipodi:cx="241.375"
       sodipodi:cy="87.252441"
       sodipodi:r1="1.5116733"
       sodipodi:r2="0.75583667"
       sodipodi:arg1="3.1415927"
       sodipodi:arg2="4.1887902"
       inkscape:flatsided="true"
       inkscape:rounded="0"
       inkscape:randomized="0"
       transform="matrix(0.90460999,0,0,0.87910477,-198.67748,-34.451368)"
       inkscape:transform-center-x="1.2920701"
       d="m 239.86333,87.252441 2.26751,-1.309147 0,2.618295 z" />
    <g
       aria-label="CV A"
       id="text48257"
       style="font-style:normal;font-variant:normal;font-weight:bold;font-stretch:condensed;font-size:3.38667px;line-height:0%;font-family:Miso;-inkscape-font-specification:'Miso Bold Condensed';letter-spacing:-0.0169333px;word-spacing:0px;display:inline;fill:#ffffff;fill-opacity:1;stroke:none;stroke-width:0.282222;enable-background:new">
      <path
         d="m 8.0051068,105.69009 q -0.1066799,-0.0277 -0.1975555,-0.0869 -0.090876,-0.0632 -0.1580444,-0.14619 -0.063218,-0.0869 -0.098778,-0.18965 -0.03556,-0.10273 -0.03556,-0.21731 v -1.34338 q 0,-0.11063 0.03556,-0.21336 0.03556,-0.10668 0.098778,-0.18965 0.067169,-0.0869 0.1580444,-0.14619 0.090876,-0.0632 0.1975555,-0.0909 0.2212622,-0.0593 0.4267199,0.0277 0.2054577,0.083 0.3200399,0.28053 0.043462,0.0672 0.019756,0.14224 -0.019756,0.0751 -0.086924,0.11853 -0.067169,0.0395 -0.1422399,0.0198 -0.075071,-0.0237 -0.1185333,-0.0909 -0.047413,-0.083 -0.1382889,-0.11853 -0.086924,-0.0395 -0.181751,-0.0118 -0.090876,0.0237 -0.1501422,0.10272 -0.059267,0.0751 -0.059267,0.1699 v 1.34338 q 0,0.0988 0.059267,0.17385 0.059267,0.0751 0.1501422,0.10273 0.094827,0.0237 0.181751,-0.0119 0.090876,-0.0395 0.1382889,-0.12248 0.043462,-0.0672 0.1185333,-0.0869 0.075071,-0.0237 0.1422399,0.0158 0.067169,0.0435 0.086924,0.11853 0.023707,0.0751 -0.019756,0.14224 -0.1145822,0.19756 -0.3200399,0.28053 -0.2054577,0.0869 -0.4267199,0.0277 z"
         style="font-size:3.95111px;line-height:1.25;fill:#ffffff;fill-opacity:1;stroke-width:0.282222"
         id="path2637" />
      <path
         d="m 8.9324821,103.28386 q -0.019756,-0.079 0.015804,-0.14619 0.039511,-0.0672 0.1185333,-0.0869 0.075071,-0.0198 0.14224,0.0198 0.07112,0.0356 0.090875,0.11063 0.075071,0.28053 0.1540933,0.56501 0.067169,0.24497 0.146191,0.52945 0.079022,0.28448 0.1501422,0.53735 0.067169,-0.25287 0.1461911,-0.53735 0.079022,-0.28448 0.1461911,-0.52945 0.07507,-0.28448 0.154093,-0.56501 0.01976,-0.0751 0.08692,-0.11063 0.07112,-0.0395 0.146191,-0.0198 0.07902,0.0198 0.114582,0.0869 0.03951,0.0672 0.01975,0.14619 l -0.6321771,2.29165 q -0.019756,0.0632 -0.07112,0.0988 -0.047413,0.0395 -0.1106311,0.0395 -0.067169,0 -0.1185333,-0.0395 -0.047413,-0.0356 -0.067169,-0.0988 z"
         style="font-size:3.95111px;line-height:1.25;fill:#ffffff;fill-opacity:1;stroke-width:0.282222"
         id="path2639" />
      <path
         d="m 13.023572,105.47278 q 0.01975,0.079 -0.01976,0.14619 -0.03556,0.0672 -0.110631,0.0869 -0.07902,0.0198 -0.146191,-0.0198 -0.06717,-0.0356 -0.08692,-0.11063 -0.0158,-0.0474 -0.03161,-0.11459 -0.01581,-0.0553 -0.03951,-0.13038 -0.01976,-0.079 -0.04346,-0.1699 h -0.671688 q -0.02766,0.0909 -0.04741,0.1699 -0.01975,0.0751 -0.03556,0.13038 -0.0158,0.0672 -0.03161,0.11459 -0.01976,0.0751 -0.08692,0.11063 -0.06717,0.0395 -0.146191,0.0198 -0.07507,-0.0198 -0.114582,-0.0869 -0.03556,-0.0672 -0.01581,-0.14619 l 0.632178,-2.29165 q 0.0158,-0.0632 0.06322,-0.0988 0.05136,-0.0395 0.118533,-0.0395 0.06717,0 0.114582,0.0395 0.05137,0.0356 0.06717,0.0988 z m -0.584765,-0.69145 q -0.05532,-0.20545 -0.114582,-0.42277 -0.05927,-0.21731 -0.114582,-0.41091 -0.05532,0.1936 -0.114582,0.41091 -0.05927,0.21732 -0.114582,0.42277 z"
         style="font-size:3.95111px;line-height:1.25;fill:#ffffff;fill-opacity:1;stroke-width:0.282222"
         id="path2641" />
    </g>
    <g
       transform="matrix(0.21527812,0,0,0.21527812,-178.80952,-34.910439)"
       id="g48261"
       inkscape:label="Capa 1"
       inkscape:export-filename="/home/diego/Escritorio/VCA tirar.png"
       inkscape:export-xdpi="599.91437"
       inkscape:export-ydpi="599.91437"
       style="display:inline;enable-background:new">
      <g
         transform="matrix(1.4349548,0,0,1.4349548,-259.63944,-278.07628)"
         id="g48263">
        <g
           style="fill:#ffffff"
           id="g48265">
          <path
             id="path48267"
             style="display:inline;fill:#ffffff;fill-opacity:1;fill-rule:nonzero;stroke:none;enable-background:new"
             d="m 791.93575,557.51491 c 0.35782,-0.6197 1.15031,-0.83204 1.77004,-0.47428 0.61975,0.35784 0.83211,1.15037 0.47429,1.77005 -0.35779,0.61977 -1.15029,0.83212 -1.77004,0.47427 -0.61971,-0.35775 -0.83207,-1.15028 -0.47429,-1.77004"
             inkscape:connector-curvature="0"
             inkscape:transform-center-y="-26.485113" />
          <g
             id="g48271">
            <path
               sodipodi:open="true"
               sodipodi:end="1.0646776"
               sodipodi:start="2.0832953"
               transform="matrix(-0.76288877,0,0,0.76296138,894.69404,408.97765)"
               sodipodi:ry="23.963184"
               sodipodi:rx="23.963184"
               sodipodi:cy="219.52234"
               sodipodi:cx="133.29521"
               id="path48273"
               style="display:inline;fill:none;stroke:#ffffff;stroke-width:1.41714px;stroke-linecap:butt;stroke-linejoin:miter;stroke-opacity:1;enable-background:new"
               sodipodi:type="arc"
               sodipodi:arc-type="arc"
               d="m 121.5447,240.40678 a 23.963184,23.963184 0 0 1 -11.42049,-26.99498 23.963184,23.963184 0 0 1 23.24745,-17.85252 23.963184,23.963184 0 0 1 23.13307,18.00048 23.963184,23.963184 0 0 1 -11.5925,26.92156" />
            <path
               inkscape:connector-curvature="0"
               d="m 783.50246,591.28185 c 0.53135,-0.30675 1.21085,-0.12468 1.51765,0.40665 0.30678,0.53139 0.1247,1.21092 -0.40666,1.51766 -0.53138,0.30682 -1.21087,0.12475 -1.51764,-0.40665 -0.3068,-0.53132 -0.12473,-1.21084 0.40665,-1.51766"
               style="display:inline;fill:#ffffff;fill-opacity:1;fill-rule:nonzero;stroke:none;enable-background:new"
               id="path48275" />
            <path
               inkscape:connector-curvature="0"
               d="m 800.94671,592.24398 c 3e-5,-0.61363 0.49753,-1.11113 1.11117,-1.11116 0.61369,3e-5 1.11122,0.49755 1.11119,1.11119 2e-5,0.61369 -0.49748,1.11119 -1.11117,1.11116 -0.61364,3e-5 -1.11116,-0.49749 -1.11119,-1.11119"
               style="display:inline;fill:#ffffff;fill-opacity:1;fill-rule:nonzero;stroke:none;enable-background:new"
               id="path48277" />
          </g>
        </g>
      </g>
    </g>
    <g
       aria-label="CV B"
       id="text48281"
       style="font-style:normal;font-variant:normal;font-weight:bold;font-stretch:condensed;font-size:3.38667px;line-height:0%;font-family:Miso;-inkscape-font-specification:'Miso Bold Condensed';letter-spacing:-0.0169333px;word-spacing:0px;display:inline;fill:#ffffff;fill-opacity:1;stroke:none;stroke-width:0.282222;enable-background:new">
      <path
         d="m 28.082701,105.68614 q -0.10668,-0.0276 -0.197555,-0.0869 -0.09088,-0.0632 -0.158045,-0.14619 -0.06322,-0.0869 -0.09878,-0.18965 -0.03556,-0.10273 -0.03556,-0.21732 v -1.34337 q 0,-0.11063 0.03556,-0.21336 0.03556,-0.10668 0.09878,-0.18966 0.06717,-0.0869 0.158045,-0.14619 0.09088,-0.0632 0.197555,-0.0909 0.221262,-0.0593 0.42672,0.0277 0.205458,0.083 0.32004,0.28052 0.04346,0.0672 0.01975,0.14224 -0.01975,0.0751 -0.08692,0.11854 -0.06717,0.0395 -0.14224,0.0198 -0.07507,-0.0237 -0.118533,-0.0909 -0.04741,-0.083 -0.138289,-0.11854 -0.08693,-0.0395 -0.181751,-0.0118 -0.09088,0.0237 -0.150142,0.10273 -0.05927,0.0751 -0.05927,0.1699 v 1.34337 q 0,0.0988 0.05927,0.17385 0.05927,0.0751 0.150142,0.10273 0.09483,0.0237 0.181751,-0.0119 0.09087,-0.0395 0.138289,-0.12249 0.04346,-0.0672 0.118533,-0.0869 0.07507,-0.0237 0.14224,0.0158 0.06717,0.0435 0.08692,0.11854 0.02371,0.0751 -0.01975,0.14224 -0.114582,0.19755 -0.32004,0.28053 -0.205458,0.0869 -0.42672,0.0276 z"
         style="font-size:3.95111px;line-height:1.25;fill:#ffffff;fill-opacity:1;stroke-width:0.282222"
         id="path2630" />
      <path
         d="m 29.010076,103.27992 q -0.01975,-0.079 0.0158,-0.14619 0.03951,-0.0672 0.118533,-0.0869 0.07507,-0.0198 0.14224,0.0198 0.07112,0.0356 0.09088,0.11063 0.07507,0.28053 0.154093,0.56501 0.06717,0.24497 0.146191,0.52945 0.07902,0.28448 0.150142,0.53735 0.06717,-0.25287 0.146191,-0.53735 0.07902,-0.28448 0.146191,-0.52945 0.07507,-0.28448 0.154094,-0.56501 0.01975,-0.0751 0.08692,-0.11063 0.07112,-0.0395 0.146191,-0.0198 0.07902,0.0198 0.114582,0.0869 0.03951,0.0672 0.01976,0.14619 l -0.632178,2.29164 q -0.01975,0.0632 -0.07112,0.0988 -0.04741,0.0395 -0.110631,0.0395 -0.06717,0 -0.118533,-0.0395 -0.04741,-0.0356 -0.06717,-0.0988 z"
         style="font-size:3.95111px;line-height:1.25;fill:#ffffff;fill-opacity:1;stroke-width:0.282222"
         id="path2632" />
      <path
         d="m 32.966828,103.86073 q 0,0.13829 -0.05532,0.26077 -0.05532,0.12249 -0.146191,0.21336 0.09088,0.0909 0.146191,0.21336 0.05532,0.12249 0.05532,0.26078 v 0.22126 q 0,0.13829 -0.05532,0.26077 -0.05136,0.11854 -0.14224,0.20941 -0.08693,0.0909 -0.209409,0.14224 -0.122484,0.0514 -0.256822,0.0514 h -0.474133 q -0.07902,0 -0.134338,-0.0553 -0.05532,-0.0553 -0.05532,-0.13434 v -2.26003 q 0,-0.079 0.05532,-0.13434 0.05532,-0.0553 0.134338,-0.0553 h 0.474133 q 0.134338,0 0.256822,0.0514 0.122484,0.0514 0.209409,0.14224 0.09088,0.0909 0.14224,0.21336 0.05532,0.11853 0.05532,0.25682 v 0.14224 z m -0.379306,0.94827 q 0,-0.11854 -0.08297,-0.20151 -0.08297,-0.083 -0.201506,-0.083 h -0.28448 v 0.79022 h 0.28448 q 0.118533,0 0.201506,-0.083 0.08297,-0.083 0.08297,-0.20151 V 104.809 Z m -0.28448,-0.66379 q 0.118533,0 0.201506,-0.083 0.08297,-0.083 0.08297,-0.20151 v -0.14224 q 0,-0.11853 -0.08297,-0.2015 -0.08297,-0.083 -0.201506,-0.083 h -0.28448 v 0.7112 z"
         style="font-size:3.95111px;line-height:1.25;fill:#ffffff;fill-opacity:1;stroke-width:0.282222"
         id="path2634" />
    </g>
    <g
       aria-label="OUT A"
       id="text48285"
       style="font-style:normal;font-variant:normal;font-weight:bold;font-stretch:condensed;font-size:3.38667px;line-height:0%;font-family:Miso;-inkscape-font-specification:'Miso Bold Condensed';letter-spacing:-0.0169333px;word-spacing:0px;display:inline;fill:#ffffff;fill-opacity:1;stroke:none;stroke-width:0.282222;enable-background:new">
      <path
         d="m 6.7420179,118.74564 q -0.1382889,0 -0.2607733,-0.0514 -0.1185333,-0.0514 -0.2094088,-0.14224 -0.090876,-0.0909 -0.14224,-0.20941 -0.051364,-0.12249 -0.051364,-0.26078 v -1.34337 q 0,-0.13829 0.051364,-0.25683 0.051364,-0.12248 0.14224,-0.21336 0.090876,-0.0909 0.2094088,-0.14224 0.1224844,-0.0514 0.2607733,-0.0514 0.1382888,0 0.2568221,0.0514 0.1224844,0.0514 0.2133599,0.14224 0.090876,0.0909 0.14224,0.21336 0.051364,0.11854 0.051364,0.25683 v 1.34337 q 0,0.13829 -0.051364,0.26078 -0.051364,0.11853 -0.14224,0.20941 -0.090876,0.0909 -0.2133599,0.14224 -0.1185333,0.0514 -0.2568221,0.0514 z m 0,-2.29164 q -0.1185333,0 -0.2015067,0.083 -0.082973,0.083 -0.082973,0.20151 v 1.34337 q 0,0.11854 0.082973,0.20151 0.082973,0.083 0.2015067,0.083 0.1185332,0 0.2015066,-0.083 0.082973,-0.083 0.082973,-0.20151 v -1.34337 q 0,-0.11854 -0.082973,-0.20151 -0.082973,-0.083 -0.2015066,-0.083 z"
         style="font-size:3.95111px;line-height:1.25;fill:#ffffff;fill-opacity:1;stroke-width:0.282222"
         id="path2644" />
      <path
         d="m 8.1000647,118.08185 q 0,0.11854 0.082973,0.20151 0.082973,0.083 0.2015066,0.083 0.1145822,0 0.1975555,-0.083 0.086924,-0.083 0.086924,-0.20151 v -1.81751 q 0,-0.079 0.055316,-0.13433 0.055316,-0.0553 0.1343377,-0.0553 0.079022,0 0.1343378,0.0553 0.055316,0.0553 0.055316,0.13433 v 1.81751 q 0,0.13829 -0.055316,0.26078 -0.051365,0.11853 -0.14224,0.20941 -0.086924,0.0909 -0.2094088,0.14224 -0.1224844,0.0514 -0.2568222,0.0514 -0.1382888,0 -0.2607732,-0.0514 -0.1185333,-0.0514 -0.2094088,-0.14224 -0.090876,-0.0909 -0.14224,-0.20941 -0.051364,-0.12249 -0.051364,-0.26078 v -1.81751 q 0,-0.079 0.055316,-0.13433 0.055315,-0.0553 0.1343377,-0.0553 0.079022,0 0.1343378,0.0553 0.055316,0.0553 0.055316,0.13433 v 1.81751 z"
         style="font-size:3.95111px;line-height:1.25;fill:#ffffff;fill-opacity:1;stroke-width:0.282222"
         id="path2646" />
      <path
         d="m 10.469601,116.09049 q 0.07902,0 0.134338,0.0553 0.05532,0.0553 0.05532,0.13434 0,0.079 -0.05532,0.13434 -0.05532,0.0553 -0.134338,0.0553 H 10.14561 v 2.08619 q 0,0.079 -0.05532,0.13434 -0.05532,0.0553 -0.1343374,0.0553 -0.079022,0 -0.1343377,-0.0553 -0.055316,-0.0553 -0.055316,-0.13434 v -2.08619 h -0.323991 q -0.079022,0 -0.1343377,-0.0553 -0.055315,-0.0553 -0.055315,-0.13434 0,-0.079 0.055315,-0.13434 0.055316,-0.0553 0.1343377,-0.0553 z"
         style="font-size:3.95111px;line-height:1.25;fill:#ffffff;fill-opacity:1;stroke-width:0.282222"
         id="path2648" />
      <path
         d="m 13.098777,118.50462 q 0.01975,0.079 -0.01976,0.14619 -0.03556,0.0672 -0.110631,0.0869 -0.07902,0.0198 -0.146191,-0.0198 -0.06717,-0.0356 -0.08692,-0.11063 -0.01581,-0.0474 -0.03161,-0.11458 -0.01581,-0.0553 -0.03951,-0.13039 -0.01976,-0.079 -0.04346,-0.16989 h -0.671688 q -0.02766,0.0909 -0.04741,0.16989 -0.01975,0.0751 -0.03556,0.13039 -0.0158,0.0672 -0.03161,0.11458 -0.01976,0.0751 -0.08693,0.11063 -0.06717,0.0395 -0.146191,0.0198 -0.07507,-0.0198 -0.114582,-0.0869 -0.03556,-0.0672 -0.0158,-0.14619 l 0.632177,-2.29164 q 0.01581,-0.0632 0.06322,-0.0988 0.05136,-0.0395 0.118533,-0.0395 0.06717,0 0.114582,0.0395 0.05136,0.0356 0.06717,0.0988 z m -0.584764,-0.69144 q -0.05532,-0.20546 -0.114583,-0.42277 -0.05927,-0.21731 -0.114582,-0.41092 -0.05532,0.19361 -0.114582,0.41092 -0.05927,0.21731 -0.114582,0.42277 z"
         style="font-size:3.95111px;line-height:1.25;fill:#ffffff;fill-opacity:1;stroke-width:0.282222"
         id="path2650" />
    </g>
    <g
       aria-label="OUT B"
       id="text48289"
       style="font-style:normal;font-variant:normal;font-weight:bold;font-stretch:condensed;font-size:3.38667px;line-height:0%;font-family:Miso;-inkscape-font-specification:'Miso Bold Condensed';letter-spacing:-0.0169333px;word-spacing:0px;display:inline;fill:#ffffff;fill-opacity:1;stroke:none;stroke-width:0.282222;enable-background:new">
      <path
         d="m 28.311823,118.74564 q -0.138289,0 -0.260773,-0.0514 -0.118534,-0.0514 -0.209409,-0.14224 -0.09088,-0.0909 -0.14224,-0.20941 -0.05136,-0.12249 -0.05136,-0.26078 v -1.34337 q 0,-0.13829 0.05136,-0.25683 0.05136,-0.12248 0.14224,-0.21336 0.09088,-0.0909 0.209409,-0.14224 0.122484,-0.0514 0.260773,-0.0514 0.138289,0 0.256822,0.0514 0.122485,0.0514 0.21336,0.14224 0.09088,0.0909 0.14224,0.21336 0.05136,0.11854 0.05136,0.25683 v 1.34337 q 0,0.13829 -0.05136,0.26078 -0.05136,0.11853 -0.14224,0.20941 -0.09088,0.0909 -0.21336,0.14224 -0.118533,0.0514 -0.256822,0.0514 z m 0,-2.29164 q -0.118533,0 -0.201507,0.083 -0.08297,0.083 -0.08297,0.20151 v 1.34337 q 0,0.11854 0.08297,0.20151 0.08297,0.083 0.201507,0.083 0.118533,0 0.201507,-0.083 0.08297,-0.083 0.08297,-0.20151 v -1.34337 q 0,-0.11854 -0.08297,-0.20151 -0.08297,-0.083 -0.201507,-0.083 z"
         style="font-size:3.95111px;line-height:1.25;fill:#ffffff;fill-opacity:1;stroke-width:0.282222"
         id="path2670" />
      <path
         d="m 29.66987,118.08185 q 0,0.11854 0.08297,0.20151 0.08297,0.083 0.201507,0.083 0.114582,0 0.197555,-0.083 0.08693,-0.083 0.08693,-0.20151 v -1.81751 q 0,-0.079 0.05532,-0.13433 0.05532,-0.0553 0.134338,-0.0553 0.07902,0 0.134338,0.0553 0.05532,0.0553 0.05532,0.13433 v 1.81751 q 0,0.13829 -0.05532,0.26078 -0.05137,0.11853 -0.14224,0.20941 -0.08692,0.0909 -0.209409,0.14224 -0.122484,0.0514 -0.256822,0.0514 -0.138289,0 -0.260773,-0.0514 -0.118534,-0.0514 -0.209409,-0.14224 -0.09088,-0.0909 -0.14224,-0.20941 -0.05137,-0.12249 -0.05137,-0.26078 v -1.81751 q 0,-0.079 0.05532,-0.13433 0.05532,-0.0553 0.134338,-0.0553 0.07902,0 0.134337,0.0553 0.05532,0.0553 0.05532,0.13433 v 1.81751 z"
         style="font-size:3.95111px;line-height:1.25;fill:#ffffff;fill-opacity:1;stroke-width:0.282222"
         id="path2672" />
      <path
         d="m 32.039406,116.09049 q 0.07902,0 0.134338,0.0553 0.05532,0.0553 0.05532,0.13434 0,0.079 -0.05532,0.13434 -0.05532,0.0553 -0.134338,0.0553 h -0.323991 v 2.08619 q 0,0.079 -0.05532,0.13434 -0.05532,0.0553 -0.134337,0.0553 -0.07902,0 -0.134338,-0.0553 -0.05532,-0.0553 -0.05532,-0.13434 v -2.08619 h -0.323991 q -0.07902,0 -0.134337,-0.0553 -0.05532,-0.0553 -0.05532,-0.13434 0,-0.079 0.05532,-0.13434 0.05532,-0.0553 0.134337,-0.0553 z"
         style="font-size:3.95111px;line-height:1.25;fill:#ffffff;fill-opacity:1;stroke-width:0.282222"
         id="path2674" />
      <path
         d="m 34.534244,116.89652 q 0,0.13829 -0.05532,0.26077 -0.05532,0.12249 -0.146191,0.21336 0.09088,0.0909 0.146191,0.21336 0.05532,0.12249 0.05532,0.26078 v 0.22126 q 0,0.13829 -0.05532,0.26077 -0.05137,0.11854 -0.14224,0.20941 -0.08693,0.0909 -0.209409,0.14224 -0.122485,0.0514 -0.256822,0.0514 h -0.474133 q -0.07902,0 -0.134338,-0.0553 -0.05532,-0.0553 -0.05532,-0.13434 v -2.26003 q 0,-0.079 0.05532,-0.13434 0.05532,-0.0553 0.134338,-0.0553 h 0.474133 q 0.134337,0 0.256822,0.0514 0.122484,0.0514 0.209409,0.14224 0.09087,0.0909 0.14224,0.21336 0.05532,0.11853 0.05532,0.25682 v 0.14224 z m -0.379306,0.94827 q 0,-0.11854 -0.08297,-0.20151 -0.08297,-0.083 -0.201506,-0.083 h -0.28448 v 0.79022 h 0.28448 q 0.118533,0 0.201506,-0.083 0.08297,-0.083 0.08297,-0.20151 v -0.22126 z m -0.28448,-0.66379 q 0.118533,0 0.201506,-0.083 0.08297,-0.083 0.08297,-0.20151 v -0.14224 q 0,-0.11853 -0.08297,-0.20151 -0.08297,-0.083 -0.201506,-0.083 h -0.28448 v 0.7112 z"
         style="font-size:3.95111px;line-height:1.25;fill:#ffffff;fill-opacity:1;stroke-width:0.282222"
         id="path2676" />
    </g>
    <g
       style="display:inline;enable-background:new"
       inkscape:export-ydpi="599.91437"
       inkscape:export-xdpi="599.91437"
       inkscape:export-filename="/home/diego/Escritorio/VCA tirar.png"
       inkscape:label="Capa 1"
       id="g48293"
       transform="matrix(0.21527812,0,0,0.21527812,-158.7991,-34.910439)">
      <g
         id="g48295"
         transform="matrix(1.4349548,0,0,1.4349548,-259.63944,-278.07628)">
        <g
           id="g48297"
           style="fill:#ffffff">
          <path
             inkscape:transform-center-y="-26.485113"
             inkscape:connector-curvature="0"
             d="m 791.93575,557.51491 c 0.35782,-0.6197 1.15031,-0.83204 1.77004,-0.47428 0.61975,0.35784 0.83211,1.15037 0.47429,1.77005 -0.35779,0.61977 -1.15029,0.83212 -1.77004,0.47427 -0.61971,-0.35775 -0.83207,-1.15028 -0.47429,-1.77004"
             style="display:inline;fill:#ffffff;fill-opacity:1;fill-rule:nonzero;stroke:none;enable-background:new"
             id="path48299" />
          <path
             id="path48301"
             style="display:inline;fill:#ffffff;fill-opacity:1;fill-rule:nonzero;stroke:none;enable-background:new"
             d="m 791.93575,557.51491 c 0.35782,-0.6197 1.15031,-0.83204 1.77004,-0.47428 0.61975,0.35784 0.83211,1.15037 0.47429,1.77005 -0.35779,0.61977 -1.15029,0.83212 -1.77004,0.47427 -0.61971,-0.35775 -0.83207,-1.15028 -0.47429,-1.77004"
             inkscape:connector-curvature="0"
             inkscape:transform-center-y="-26.485113" />
          <g
             id="g48303">
            <path
               sodipodi:type="arc"
               style="display:inline;fill:none;stroke:#ffffff;stroke-width:1.41714px;stroke-linecap:butt;stroke-linejoin:miter;stroke-opacity:1;enable-background:new"
               id="path48305"
               sodipodi:cx="133.29521"
               sodipodi:cy="219.52234"
               sodipodi:rx="23.963184"
               sodipodi:ry="23.963184"
               transform="matrix(-0.76288877,0,0,0.76296138,894.69404,408.97765)"
               sodipodi:start="2.0832953"
               sodipodi:end="1.0646776"
               sodipodi:open="true"
               sodipodi:arc-type="arc"
               d="m 121.5447,240.40678 a 23.963184,23.963184 0 0 1 -11.42049,-26.99498 23.963184,23.963184 0 0 1 23.24745,-17.85252 23.963184,23.963184 0 0 1 23.13307,18.00048 23.963184,23.963184 0 0 1 -11.5925,26.92156" />
            <path
               id="path48307"
               style="display:inline;fill:#ffffff;fill-opacity:1;fill-rule:nonzero;stroke:none;enable-background:new"
               d="m 783.50246,591.28185 c 0.53135,-0.30675 1.21085,-0.12468 1.51765,0.40665 0.30678,0.53139 0.1247,1.21092 -0.40666,1.51766 -0.53138,0.30682 -1.21087,0.12475 -1.51764,-0.40665 -0.3068,-0.53132 -0.12473,-1.21084 0.40665,-1.51766"
               inkscape:connector-curvature="0" />
            <path
               id="path48309"
               style="display:inline;fill:#ffffff;fill-opacity:1;fill-rule:nonzero;stroke:none;enable-background:new"
               d="m 800.94671,592.24398 c 3e-5,-0.61363 0.49753,-1.11113 1.11117,-1.11116 0.61369,3e-5 1.11122,0.49755 1.11119,1.11119 2e-5,0.61369 -0.49748,1.11119 -1.11117,1.11116 -0.61364,3e-5 -1.11116,-0.49749 -1.11119,-1.11119"
               inkscape:connector-curvature="0" />
            <path
               id="path48311"
               style="display:inline;fill:#ffffff;fill-opacity:1;fill-rule:nonzero;stroke:none;enable-background:new"
               d="m 791.93575,557.51491 c 0.35782,-0.6197 1.15031,-0.83204 1.77004,-0.47428 0.61975,0.35784 0.83211,1.15037 0.47429,1.77005 -0.35779,0.61977 -1.15029,0.83212 -1.77004,0.47427 -0.61971,-0.35775 -0.83207,-1.15028 -0.47429,-1.77004"
               inkscape:connector-curvature="0"
               inkscape:transform-center-y="-26.485113" />
          </g>
        </g>
      </g>
    </g>
    <path
       style="display:inline;fill:none;stroke:#ffffff;stroke-width:0.282222px;stroke-linecap:butt;stroke-linejoin:miter;stroke-opacity:1;enable-background:new"
       d="m 25.197378,97.865644 v -5.351615 l 5.082704,-2.964288 v -7.825834"
       id="path48315"
       inkscape:connector-curvature="0"
       sodipodi:nodetypes="cccc" />
    <g
       aria-label="CHOPP
OUT"
       id="text48739"
       style="font-style:normal;font-variant:normal;font-weight:bold;font-stretch:condensed;font-size:3.38667px;line-height:0%;font-family:Miso;-inkscape-font-specification:'Miso Bold Condensed';text-align:center;letter-spacing:-0.0169333px;word-spacing:0px;text-anchor:middle;display:inline;fill:#ffffff;fill-opacity:1;stroke:none;stroke-width:0.282222;enable-background:new">
      <path
         d="m 16.797682,117.71633 q -0.10668,-0.0276 -0.197556,-0.0869 -0.09088,-0.0632 -0.158044,-0.14619 -0.06322,-0.0869 -0.09878,-0.18965 -0.03556,-0.10273 -0.03556,-0.21732 v -1.34337 q 0,-0.11063 0.03556,-0.21336 0.03556,-0.10668 0.09878,-0.18966 0.06717,-0.0869 0.158044,-0.14619 0.09088,-0.0632 0.197556,-0.0909 0.221262,-0.0593 0.42672,0.0277 0.205457,0.083 0.320039,0.28053 0.04346,0.0672 0.01976,0.14224 -0.01976,0.0751 -0.08692,0.11854 -0.06717,0.0395 -0.14224,0.0198 -0.07507,-0.0237 -0.118534,-0.0909 -0.04741,-0.083 -0.138289,-0.11854 -0.08692,-0.0395 -0.181751,-0.0118 -0.09088,0.0237 -0.150142,0.10273 -0.05927,0.0751 -0.05927,0.1699 v 1.34337 q 0,0.0988 0.05927,0.17385 0.05927,0.0751 0.150142,0.10273 0.09483,0.0237 0.181751,-0.0118 0.09088,-0.0395 0.138289,-0.12249 0.04346,-0.0672 0.118534,-0.0869 0.07507,-0.0237 0.14224,0.0158 0.06717,0.0435 0.08692,0.11854 0.02371,0.0751 -0.01976,0.14224 -0.114582,0.19755 -0.320039,0.28053 -0.205458,0.0869 -0.42672,0.0276 z"
         style="font-size:3.95111px;line-height:78%;text-align:center;text-anchor:middle;fill:#ffffff;fill-opacity:1;stroke-width:0.282222"
         id="path2653" />
      <path
         d="m 18.807661,115.25874 q 0,-0.079 0.05532,-0.13433 0.05532,-0.0553 0.134337,-0.0553 0.07902,0 0.134338,0.0553 0.05532,0.0553 0.05532,0.13433 v 2.29165 q 0,0.079 -0.05532,0.13434 -0.05532,0.0553 -0.134338,0.0553 -0.07902,0 -0.134337,-0.0553 -0.05532,-0.0553 -0.05532,-0.13434 v -0.99568 h -0.56896 v 0.99568 q 0,0.079 -0.05532,0.13434 -0.05532,0.0553 -0.134338,0.0553 -0.07902,0 -0.134338,-0.0553 -0.05532,-0.0553 -0.05532,-0.13434 v -2.29165 q 0,-0.079 0.05532,-0.13433 0.05532,-0.0553 0.134338,-0.0553 0.07902,0 0.134338,0.0553 0.05532,0.0553 0.05532,0.13433 v 0.91666 h 0.56896 v -0.91666 z"
         style="font-size:3.95111px;line-height:78%;text-align:center;text-anchor:middle;fill:#ffffff;fill-opacity:1;stroke-width:0.282222"
         id="path2655" />
      <path
         d="m 20.197317,117.74004 q -0.138288,0 -0.260773,-0.0514 -0.118533,-0.0514 -0.209409,-0.14224 -0.09088,-0.0909 -0.14224,-0.20941 -0.05136,-0.12249 -0.05136,-0.26078 v -1.34337 q 0,-0.13829 0.05136,-0.25683 0.05137,-0.12248 0.14224,-0.21336 0.09088,-0.0909 0.209409,-0.14224 0.122485,-0.0514 0.260773,-0.0514 0.138289,0 0.256823,0.0514 0.122484,0.0514 0.213359,0.14224 0.09088,0.0909 0.14224,0.21336 0.05137,0.11854 0.05137,0.25683 v 1.34337 q 0,0.13829 -0.05137,0.26078 -0.05136,0.11853 -0.14224,0.20941 -0.09088,0.0909 -0.213359,0.14224 -0.118534,0.0514 -0.256823,0.0514 z m 0,-2.29164 q -0.118533,0 -0.201506,0.083 -0.08297,0.083 -0.08297,0.20151 v 1.34337 q 0,0.11854 0.08297,0.20151 0.08297,0.083 0.201506,0.083 0.118534,0 0.201507,-0.083 0.08297,-0.083 0.08297,-0.20151 v -1.34337 q 0,-0.11854 -0.08297,-0.20151 -0.08297,-0.083 -0.201507,-0.083 z"
         style="font-size:3.95111px;line-height:78%;text-align:center;text-anchor:middle;fill:#ffffff;fill-opacity:1;stroke-width:0.282222"
         id="path2657" />
      <path
         d="m 21.207667,115.27455 q 0,-0.079 0.05532,-0.13434 0.05532,-0.0553 0.134338,-0.0553 h 0.474133 q 0.138289,0 0.256822,0.0514 0.122485,0.0514 0.21336,0.14224 0.09088,0.0909 0.14224,0.21336 0.05137,0.11853 0.05137,0.25682 v 0.22126 q 0,0.13829 -0.05137,0.26078 -0.05136,0.11853 -0.14224,0.20941 -0.09088,0.0909 -0.21336,0.14224 -0.118533,0.0514 -0.256822,0.0514 h -0.28448 v 0.91666 q 0,0.079 -0.05532,0.13434 -0.05532,0.0553 -0.134338,0.0553 -0.07902,0 -0.134338,-0.0553 -0.05532,-0.0553 -0.05532,-0.13434 v -2.27584 z m 0.948266,0.47413 q 0,-0.11853 -0.08297,-0.20151 -0.08297,-0.083 -0.201507,-0.083 h -0.28448 v 0.79022 h 0.28448 q 0.118534,0 0.201507,-0.083 0.08297,-0.083 0.08297,-0.20151 v -0.22126 z"
         style="font-size:3.95111px;line-height:78%;text-align:center;text-anchor:middle;fill:#ffffff;fill-opacity:1;stroke-width:0.282222"
         id="path2659" />
      <path
         d="m 22.771176,115.27455 q 0,-0.079 0.05532,-0.13434 0.05532,-0.0553 0.134338,-0.0553 h 0.474133 q 0.138289,0 0.256822,0.0514 0.122485,0.0514 0.21336,0.14224 0.09088,0.0909 0.14224,0.21336 0.05137,0.11853 0.05137,0.25682 v 0.22126 q 0,0.13829 -0.05137,0.26078 -0.05136,0.11853 -0.14224,0.20941 -0.09088,0.0909 -0.21336,0.14224 -0.118533,0.0514 -0.256822,0.0514 h -0.28448 v 0.91666 q 0,0.079 -0.05532,0.13434 -0.05532,0.0553 -0.134338,0.0553 -0.07902,0 -0.134338,-0.0553 -0.05532,-0.0553 -0.05532,-0.13434 v -2.27584 z m 0.948266,0.47413 q 0,-0.11853 -0.08297,-0.20151 -0.08297,-0.083 -0.201507,-0.083 h -0.28448 v 0.79022 h 0.28448 q 0.118534,0 0.201507,-0.083 0.08297,-0.083 0.08297,-0.20151 v -0.22126 z"
         style="font-size:3.95111px;line-height:78%;text-align:center;text-anchor:middle;fill:#ffffff;fill-opacity:1;stroke-width:0.282222"
         id="path2661" />
      <path
         d="m 18.568056,120.82191 q -0.138289,0 -0.260774,-0.0514 -0.118533,-0.0514 -0.209408,-0.14224 -0.09088,-0.0909 -0.14224,-0.20941 -0.05137,-0.12248 -0.05137,-0.26077 v -1.34338 q 0,-0.13829 0.05137,-0.25682 0.05136,-0.12248 0.14224,-0.21336 0.09088,-0.0909 0.209408,-0.14224 0.122485,-0.0514 0.260774,-0.0514 0.138289,0 0.256822,0.0514 0.122484,0.0514 0.21336,0.14224 0.09088,0.0909 0.14224,0.21336 0.05136,0.11853 0.05136,0.25682 v 1.34338 q 0,0.13829 -0.05136,0.26077 -0.05137,0.11854 -0.14224,0.20941 -0.09088,0.0909 -0.21336,0.14224 -0.118533,0.0514 -0.256822,0.0514 z m 0,-2.29165 q -0.118534,0 -0.201507,0.083 -0.08297,0.083 -0.08297,0.2015 v 1.34338 q 0,0.11853 0.08297,0.20151 0.08297,0.083 0.201507,0.083 0.118533,0 0.201506,-0.083 0.08297,-0.083 0.08297,-0.20151 v -1.34338 q 0,-0.11853 -0.08297,-0.2015 -0.08297,-0.083 -0.201506,-0.083 z"
         style="font-size:3.95111px;line-height:78%;text-align:center;text-anchor:middle;fill:#ffffff;fill-opacity:1;stroke-width:0.282222"
         id="path2663" />
      <path
         d="m 19.926103,120.15812 q 0,0.11853 0.08297,0.20151 0.08297,0.083 0.201506,0.083 0.114583,0 0.197556,-0.083 0.08692,-0.083 0.08692,-0.20151 v -1.81751 q 0,-0.079 0.05532,-0.13434 0.05532,-0.0553 0.134338,-0.0553 0.07902,0 0.134337,0.0553 0.05532,0.0553 0.05532,0.13434 v 1.81751 q 0,0.13829 -0.05532,0.26077 -0.05136,0.11854 -0.14224,0.20941 -0.08692,0.0909 -0.209408,0.14224 -0.122485,0.0514 -0.256823,0.0514 -0.138288,0 -0.260773,-0.0514 -0.118533,-0.0514 -0.209409,-0.14224 -0.09088,-0.0909 -0.14224,-0.20941 -0.05136,-0.12248 -0.05136,-0.26077 v -1.81751 q 0,-0.079 0.05532,-0.13434 0.05531,-0.0553 0.134337,-0.0553 0.07902,0 0.134338,0.0553 0.05532,0.0553 0.05532,0.13434 v 1.81751 z"
         style="font-size:3.95111px;line-height:78%;text-align:center;text-anchor:middle;fill:#ffffff;fill-opacity:1;stroke-width:0.282222"
         id="path2665" />
      <path
         d="m 22.295639,118.16676 q 0.07902,0 0.134337,0.0553 0.05532,0.0553 0.05532,0.13433 0,0.079 -0.05532,0.13434 -0.05532,0.0553 -0.134337,0.0553 h -0.323991 v 2.08618 q 0,0.079 -0.05532,0.13434 -0.05532,0.0553 -0.134338,0.0553 -0.07902,0 -0.134337,-0.0553 -0.05532,-0.0553 -0.05532,-0.13434 v -2.08618 H 21.26835 q -0.07902,0 -0.134338,-0.0553 -0.05532,-0.0553 -0.05532,-0.13434 0,-0.079 0.05532,-0.13433 0.05532,-0.0553 0.134338,-0.0553 z"
         style="font-size:3.95111px;line-height:78%;text-align:center;text-anchor:middle;fill:#ffffff;fill-opacity:1;stroke-width:0.282222"
         id="path2667" />
    </g>
    <circle
       style="display:inline;fill:#000000;fill-opacity:1;stroke:#ffffff;stroke-width:0.450001;stroke-linecap:butt;stroke-linejoin:round;stroke-miterlimit:4;stroke-dasharray:none;stroke-dashoffset:0;stroke-opacity:1;enable-background:new"
       id="path48743"
       cx="13.171047"
       cy="42.278866"
       r="0.6108821" />
    <path
       sodipodi:nodetypes="cccc"
       inkscape:connector-curvature="0"
       id="path6250"
       d="M 5.2223118,97.865644 V 92.514029 L 10.268399,89.549741 V 81.723907"
       style="display:inline;fill:none;stroke:#ffffff;stroke-width:0.282222px;stroke-linecap:butt;stroke-linejoin:miter;stroke-opacity:1;enable-background:new" />
    <text
       inkscape:export-ydpi="300"
       inkscape:export-xdpi="300"
       inkscape:export-filename="/home/diego/Escritorio/Miniaturas_modulos_web/Hexa_VCA.png"
       id="text8563"
       y="77.008667"
       x="9.6957302"
       style="font-style:normal;font-variant:normal;font-weight:bold;font-stretch:condensed;font-size:3.38667px;line-height:0%;font-family:Miso;-inkscape-font-specification:'Miso Bold Condensed';letter-spacing:-0.0169333px;word-spacing:0px;display:inline;fill:#ffffff;fill-opacity:1;stroke:none;stroke-width:0.282222;enable-background:new"
       xml:space="preserve"><tspan
         style="font-size:2.82222px;line-height:1.25;fill:#ffffff;fill-opacity:1;stroke-width:0.282222"
         y="77.008667"
         x="9.6957302"
         id="tspan8565"
         sodipodi:role="line">0</tspan></text>
    <g
       aria-label="X-1"
       id="text8567"
       style="font-style:normal;font-variant:normal;font-weight:bold;font-stretch:condensed;font-size:3.38667px;line-height:0%;font-family:Miso;-inkscape-font-specification:'Miso Bold Condensed';letter-spacing:-0.0169333px;word-spacing:0px;display:inline;fill:#ffffff;fill-opacity:1;stroke:none;stroke-width:0.282222;enable-background:new">
      <path
         d="m 3.9160442,90.059898 q -0.038382,-0.02032 -0.054187,-0.06322 -0.013547,-0.0429 0.00677,-0.08128 L 4.1824622,89.28548 3.8912086,88.702972 q -0.02032,-0.04064 -0.00677,-0.08354 0.015804,-0.0429 0.054187,-0.06322 0.04064,-0.02032 0.083538,-0.0045 0.042898,0.01355 0.063218,0.05419 l 0.2190047,0.438009 0.2190046,-0.438009 q 0.02032,-0.04064 0.063218,-0.05419 0.042898,-0.0158 0.08128,0.0045 0.04064,0.02032 0.054187,0.06322 0.015804,0.0429 -0.00452,0.08354 L 4.4263025,89.28548 4.7401339,89.9154 q 0.02032,0.03838 0.00452,0.08128 -0.013547,0.0429 -0.054187,0.06322 -0.038382,0.02032 -0.08128,0.0045 -0.042898,-0.01355 -0.063218,-0.05193 L 4.3043824,89.527062 4.0627999,90.012485 q -0.02032,0.03838 -0.063218,0.05193 -0.042898,0.0158 -0.083538,-0.0045 z"
         style="font-size:2.25778px;line-height:1.25;fill:#ffffff;fill-opacity:1;stroke-width:0.282222"
         id="path2606" />
      <path
         d="m 4.962523,89.484164 q -0.045156,0 -0.076765,-0.03161 -0.031609,-0.03161 -0.031609,-0.07676 0,-0.04516 0.031609,-0.07677 0.031609,-0.03161 0.076765,-0.03161 h 0.5418672 q 0.045156,0 0.076765,0.03161 0.031609,0.03161 0.031609,0.07677 0,0.04515 -0.031609,0.07676 -0.031609,0.03161 -0.076765,0.03161 H 4.962523 Z"
         style="font-size:2.25778px;line-height:1.25;fill:#ffffff;fill-opacity:1;stroke-width:0.282222"
         id="path2608" />
      <path
         d="m 6.0157739,89.000999 q -0.031609,0.03161 -0.076765,0.03161 -0.045156,0 -0.076764,-0.03161 -0.031609,-0.03161 -0.031609,-0.07676 0,-0.04516 0.031609,-0.07676 l 0.2709336,-0.270933 q 0.051929,-0.05193 0.1174046,-0.02258 0.031609,0.01129 0.049671,0.04064 0.018062,0.02709 0.018062,0.0587 v 1.309513 q 0,0.04516 -0.031609,0.07676 -0.031609,0.03161 -0.076765,0.03161 -0.045156,0 -0.076765,-0.03161 -0.031609,-0.03161 -0.031609,-0.07676 v -1.04761 q -0.015805,0.01355 -0.031609,0.02935 -0.013547,0.0158 -0.024836,0.02709 -0.013547,0.01581 -0.029351,0.02935 z"
         style="font-size:2.25778px;line-height:1.25;fill:#ffffff;fill-opacity:1;stroke-width:0.282222"
         id="path2610" />
    </g>
    <g
       aria-label="X 1"
       id="text8575"
       style="font-style:normal;font-variant:normal;font-weight:bold;font-stretch:condensed;font-size:3.38667px;line-height:0%;font-family:Miso;-inkscape-font-specification:'Miso Bold Condensed';letter-spacing:-0.0169333px;word-spacing:0px;display:inline;fill:#ffffff;fill-opacity:1;stroke:none;stroke-width:0.282222;enable-background:new">
      <path
         d="m 14.182221,90.059898 q -0.03838,-0.02032 -0.05419,-0.06322 -0.01355,-0.0429 0.0068,-0.08128 l 0.313831,-0.62992 -0.291253,-0.582508 q -0.02032,-0.04064 -0.0068,-0.08354 0.0158,-0.0429 0.05419,-0.06322 0.04064,-0.02032 0.08354,-0.0045 0.0429,0.01355 0.06322,0.05419 l 0.219004,0.438009 0.219005,-0.438009 q 0.02032,-0.04064 0.06322,-0.05419 0.0429,-0.0158 0.08128,0.0045 0.04064,0.02032 0.05419,0.06322 0.0158,0.0429 -0.0045,0.08354 l -0.291254,0.582508 0.313832,0.62992 q 0.02032,0.03838 0.0045,0.08128 -0.01355,0.0429 -0.05419,0.06322 -0.03838,0.02032 -0.08128,0.0045 -0.0429,-0.01355 -0.06322,-0.05193 l -0.241583,-0.485423 -0.241582,0.485423 q -0.02032,0.03838 -0.06322,0.05193 -0.0429,0.0158 -0.08354,-0.0045 z"
         style="font-size:2.25778px;line-height:1.25;fill:#ffffff;fill-opacity:1;stroke-width:0.282222"
         id="path2613" />
      <path
         d="m 15.77621,89.000999 q -0.03161,0.03161 -0.07676,0.03161 -0.04516,0 -0.07676,-0.03161 -0.03161,-0.03161 -0.03161,-0.07676 0,-0.04516 0.03161,-0.07676 l 0.270934,-0.270933 q 0.05193,-0.05193 0.117405,-0.02258 0.03161,0.01129 0.04967,0.04064 0.01806,0.02709 0.01806,0.0587 v 1.309513 q 0,0.04516 -0.03161,0.07676 -0.03161,0.03161 -0.07676,0.03161 -0.04516,0 -0.07676,-0.03161 -0.03161,-0.03161 -0.03161,-0.07676 v -1.04761 q -0.0158,0.01355 -0.03161,0.02935 -0.01355,0.0158 -0.02483,0.02709 -0.01355,0.01581 -0.02935,0.02935 z"
         style="font-size:2.25778px;line-height:1.25;fill:#ffffff;fill-opacity:1;stroke-width:0.282222"
         id="path2615" />
    </g>
    <text
       xml:space="preserve"
       style="font-style:normal;font-variant:normal;font-weight:bold;font-stretch:condensed;font-size:3.38667px;line-height:0%;font-family:Miso;-inkscape-font-specification:'Miso Bold Condensed';letter-spacing:-0.0169333px;word-spacing:0px;display:inline;fill:#ffffff;fill-opacity:1;stroke:none;stroke-width:0.282222;enable-background:new"
       x="29.706154"
       y="77.008667"
       id="text8587"
       inkscape:export-filename="/home/diego/Escritorio/Miniaturas_modulos_web/Hexa_VCA.png"
       inkscape:export-xdpi="300"
       inkscape:export-ydpi="300"><tspan
         sodipodi:role="line"
         id="tspan8589"
         x="29.706154"
         y="77.008667"
         style="font-size:2.82222px;line-height:1.25;fill:#ffffff;fill-opacity:1;stroke-width:0.282222">0</tspan></text>
    <g
       aria-label="X-1"
       id="text8591"
       style="font-style:normal;font-variant:normal;font-weight:bold;font-stretch:condensed;font-size:3.38667px;line-height:0%;font-family:Miso;-inkscape-font-specification:'Miso Bold Condensed';letter-spacing:-0.0169333px;word-spacing:0px;display:inline;fill:#ffffff;fill-opacity:1;stroke:none;stroke-width:0.282222;enable-background:new">
      <path
         d="m 24.018059,90.059898 q -0.03838,-0.02032 -0.05419,-0.06322 -0.01355,-0.0429 0.0068,-0.08128 l 0.313831,-0.62992 -0.291253,-0.582508 q -0.02032,-0.04064 -0.0068,-0.08354 0.0158,-0.0429 0.05419,-0.06322 0.04064,-0.02032 0.08354,-0.0045 0.0429,0.01355 0.06322,0.05419 l 0.219005,0.438009 0.219004,-0.438009 q 0.02032,-0.04064 0.06322,-0.05419 0.0429,-0.0158 0.08128,0.0045 0.04064,0.02032 0.05419,0.06322 0.0158,0.0429 -0.0045,0.08354 l -0.291253,0.582508 0.313831,0.62992 q 0.02032,0.03838 0.0045,0.08128 -0.01355,0.0429 -0.05419,0.06322 -0.03838,0.02032 -0.08128,0.0045 -0.0429,-0.01355 -0.06322,-0.05193 l -0.241582,-0.485423 -0.241583,0.485423 q -0.02032,0.03838 -0.06322,0.05193 -0.0429,0.0158 -0.08354,-0.0045 z"
         style="font-size:2.25778px;line-height:1.25;fill:#ffffff;fill-opacity:1;stroke-width:0.282222"
         id="path2618" />
      <path
         d="m 25.064538,89.484164 q -0.04515,0 -0.07676,-0.03161 -0.03161,-0.03161 -0.03161,-0.07676 0,-0.04516 0.03161,-0.07677 0.03161,-0.03161 0.07676,-0.03161 h 0.541867 q 0.04516,0 0.07677,0.03161 0.03161,0.03161 0.03161,0.07677 0,0.04515 -0.03161,0.07676 -0.03161,0.03161 -0.07677,0.03161 h -0.541867 z"
         style="font-size:2.25778px;line-height:1.25;fill:#ffffff;fill-opacity:1;stroke-width:0.282222"
         id="path2620" />
      <path
         d="m 26.117789,89.000999 q -0.03161,0.03161 -0.07676,0.03161 -0.04516,0 -0.07677,-0.03161 -0.03161,-0.03161 -0.03161,-0.07676 0,-0.04516 0.03161,-0.07676 l 0.270934,-0.270933 q 0.05193,-0.05193 0.117404,-0.02258 0.03161,0.01129 0.04967,0.04064 0.01806,0.02709 0.01806,0.0587 v 1.309513 q 0,0.04516 -0.03161,0.07676 -0.03161,0.03161 -0.07676,0.03161 -0.04516,0 -0.07676,-0.03161 -0.03161,-0.03161 -0.03161,-0.07676 v -1.04761 q -0.01581,0.01355 -0.03161,0.02935 -0.01355,0.0158 -0.02484,0.02709 -0.01355,0.01581 -0.02935,0.02935 z"
         style="font-size:2.25778px;line-height:1.25;fill:#ffffff;fill-opacity:1;stroke-width:0.282222"
         id="path2622" />
    </g>
    <g
       aria-label="X 1"
       id="text8595"
       style="font-style:normal;font-variant:normal;font-weight:bold;font-stretch:condensed;font-size:3.38667px;line-height:0%;font-family:Miso;-inkscape-font-specification:'Miso Bold Condensed';letter-spacing:-0.0169333px;word-spacing:0px;display:inline;fill:#ffffff;fill-opacity:1;stroke:none;stroke-width:0.282222;enable-background:new">
      <path
         d="m 34.284232,90.059898 q -0.03838,-0.02032 -0.05419,-0.06322 -0.01355,-0.0429 0.0068,-0.08128 l 0.313832,-0.62992 -0.291254,-0.582508 q -0.02032,-0.04064 -0.0068,-0.08354 0.0158,-0.0429 0.05419,-0.06322 0.04064,-0.02032 0.08354,-0.0045 0.0429,0.01355 0.06322,0.05419 l 0.219005,0.438009 0.219005,-0.438009 q 0.02032,-0.04064 0.06322,-0.05419 0.0429,-0.0158 0.08128,0.0045 0.04064,0.02032 0.05419,0.06322 0.01581,0.0429 -0.0045,0.08354 l -0.291254,0.582508 0.313832,0.62992 q 0.02032,0.03838 0.0045,0.08128 -0.01355,0.0429 -0.05419,0.06322 -0.03838,0.02032 -0.08128,0.0045 -0.0429,-0.01355 -0.06322,-0.05193 l -0.241583,-0.485423 -0.241582,0.485423 q -0.02032,0.03838 -0.06322,0.05193 -0.0429,0.0158 -0.08354,-0.0045 z"
         style="font-size:2.25778px;line-height:1.25;fill:#ffffff;fill-opacity:1;stroke-width:0.282222"
         id="path2625" />
      <path
         d="m 35.878221,89.000999 q -0.03161,0.03161 -0.07676,0.03161 -0.04516,0 -0.07677,-0.03161 -0.03161,-0.03161 -0.03161,-0.07676 0,-0.04516 0.03161,-0.07676 l 0.270934,-0.270933 q 0.05193,-0.05193 0.117404,-0.02258 0.03161,0.01129 0.04967,0.04064 0.01806,0.02709 0.01806,0.0587 v 1.309513 q 0,0.04516 -0.03161,0.07676 -0.03161,0.03161 -0.07677,0.03161 -0.04516,0 -0.07676,-0.03161 -0.03161,-0.03161 -0.03161,-0.07676 v -1.04761 q -0.01581,0.01355 -0.03161,0.02935 -0.01355,0.0158 -0.02484,0.02709 -0.01355,0.01581 -0.02935,0.02935 z"
         style="font-size:2.25778px;line-height:1.25;fill:#ffffff;fill-opacity:1;stroke-width:0.282222"
         id="path2627" />
    </g>
    <g
       style="display:inline;enable-background:new"
       transform="matrix(0.21925632,0,0,0.21925632,-34.94553,15.834398)"
       id="layer1-8"
       inkscape:label="Layer 1"
       inkscape:export-filename="/home/diego/Escritorio/VCA tirar.png"
       inkscape:export-xdpi="599.91437"
       inkscape:export-ydpi="599.91437">
      <g
         style="fill:#ffffff"
         transform="matrix(0.1065142,0,0,0.1065142,205.1452,467.12682)"
         id="g5569">
        <g
           style="fill:#ffffff"
           id="Capa_2">
          <polygon
             style="fill:#ffffff"
             points="571.691,289.29 606.315,289.29 606.316,298.069 640.94,298.069 640.94,259.056 537.067,259.056 537.067,362.929 640.94,362.929 640.94,328.304 606.315,328.304 571.691,328.304 571.691,305.222 "
             id="polygon5550" />
          <path
             style="fill:#ffffff"
             inkscape:connector-curvature="0"
             d="m 415.818,300.993 v 61.936 h 34.56 v -30.232 h 34.625 v 30.232 h 34.688 V 259.056 h -61.938 z m 69.206,10 -34.668,-0.002 34.668,-31.582 z"
             id="path5552" />
          <path
             style="fill:#ffffff"
             inkscape:connector-curvature="0"
             d="M 104.152,259.056 V 241.495 H 69.484 L 69.64,362.929 H 173.513 V 259.056 Z m 51.598,56.566 h -17.33 v 15.064 h -9.383 v -15.064 h -3.296 l -21.749,15.064 V 315.622 H 86.951 v -8.779 h 17.041 V 291.78 l 21.748,15.063 h 3.297 V 291.78 h 9.383 v 15.063 h 17.33 z"
             id="path5554" />
          <path
             style="fill:#ffffff"
             inkscape:connector-curvature="0"
             d="M 658.252,259.056 V 362.929 H 762.125 V 259.056 Z m 69.123,69.248 h -34.624 v -34.623 h 34.624 z"
             id="path5556" />
          <polygon
             style="fill:#ffffff"
             points="294.698,362.929 294.698,332.696 272.366,311.113 294.698,289.29 294.698,259.056 190.825,259.056 190.825,289.29 253.516,289.29 231.128,310.993 254.394,332.696 190.825,332.696 190.825,362.929 "
             id="polygon5558" />
          <polygon
             style="fill:#ffffff"
             points="312.344,332.865 312.344,363.049 355.542,363.289 355.542,332.559 375.968,311.113 355.542,289.273 405.684,289.41 436.556,259.176 312.344,259.176 312.344,289.41 333.836,311.113 "
             id="polygon5560" />
        </g>
        <g
           style="fill:#ffffff"
           id="Capa_1" />
      </g>
    </g>
  </g>
  <g
     inkscape:groupmode="layer"
     id="layer2"
     inkscape:label="components"
     style="display:none">
    <circle
       style="display:inline;opacity:1;vector-effect:none;fill:#00ff00;fill-opacity:1;fill-rule:evenodd;stroke:none;stroke-width:1;stroke-linecap:butt;stroke-linejoin:miter;stroke-miterlimit:4;stroke-dasharray:none;stroke-dashoffset:0;stroke-opacity:1;paint-order:normal"
       id="circle7513-8"
       cx="5.2091842"
       cy="98.498726"
       r="2"
       inkscape:label="cv_a" />
    <circle
       style="display:inline;opacity:1;vector-effect:none;fill:#00ff00;fill-opacity:1;fill-rule:evenodd;stroke:none;stroke-width:1;stroke-linecap:butt;stroke-linejoin:miter;stroke-miterlimit:4;stroke-dasharray:none;stroke-dashoffset:0;stroke-opacity:1;paint-order:normal"
       id="circle7513-1"
       cx="15.258707"
       cy="98.498726"
       r="2"
       inkscape:label="vca_cv_a" />
    <circle
       style="display:inline;opacity:1;vector-effect:none;fill:#0000ff;fill-opacity:1;fill-rule:evenodd;stroke:none;stroke-width:1;stroke-linecap:butt;stroke-linejoin:miter;stroke-miterlimit:4;stroke-dasharray:none;stroke-dashoffset:0;stroke-opacity:1;paint-order:normal"
       id="circle7496"
       cx="9.5887413"
       cy="110.77655"
       r="2"
       inkscape:label="out_a" />
    <circle
       style="display:inline;opacity:1;vector-effect:none;fill:#0000ff;fill-opacity:1;fill-rule:evenodd;stroke:none;stroke-width:1;stroke-linecap:butt;stroke-linejoin:miter;stroke-miterlimit:4;stroke-dasharray:none;stroke-dashoffset:0;stroke-opacity:1;paint-order:normal"
       id="circle7496-0"
       cx="31.091373"
       cy="110.74718"
       r="2"
       inkscape:label="out_b" />
    <circle
       style="display:inline;opacity:1;vector-effect:none;fill:#0000ff;fill-opacity:1;fill-rule:evenodd;stroke:none;stroke-width:1;stroke-linecap:butt;stroke-linejoin:miter;stroke-miterlimit:4;stroke-dasharray:none;stroke-dashoffset:0;stroke-opacity:1;paint-order:normal"
       id="circle7496-0-4"
       cx="20.230202"
       cy="109.6694"
       r="2"
       inkscape:label="out_chopp" />
    <circle
       style="display:inline;opacity:1;vector-effect:none;fill:#00ff00;fill-opacity:1;fill-rule:evenodd;stroke:none;stroke-width:1;stroke-linecap:butt;stroke-linejoin:miter;stroke-miterlimit:4;stroke-dasharray:none;stroke-dashoffset:0;stroke-opacity:1;paint-order:normal"
       id="circle7513-9-8"
       cx="6.1269283"
       cy="27.842615"
       r="2"
       inkscape:label="in_a" />
    <circle
       style="display:inline;opacity:1;vector-effect:none;fill:#00ff00;fill-opacity:1;fill-rule:evenodd;stroke:none;stroke-width:1;stroke-linecap:butt;stroke-linejoin:miter;stroke-miterlimit:4;stroke-dasharray:none;stroke-dashoffset:0;stroke-opacity:1;paint-order:normal"
       id="circle7513-4-2"
       cx="6.1044431"
       cy="56.38237"
       r="2"
       inkscape:label="in_b" />
    <circle
       style="display:inline;opacity:1;vector-effect:none;fill:#00ff00;fill-opacity:1;fill-rule:evenodd;stroke:none;stroke-width:1;stroke-linecap:butt;stroke-linejoin:miter;stroke-miterlimit:4;stroke-dasharray:none;stroke-dashoffset:0;stroke-opacity:1;paint-order:normal"
       id="circle7513-5-6"
       cx="26.056719"
       cy="42.227722"
       r="2"
       inkscape:label="in_gate" />
    <circle
       style="display:inline;opacity:1;vector-effect:none;fill:#ff0000;fill-opacity:0.501961;fill-rule:evenodd;stroke:none;stroke-width:1;stroke-linecap:butt;stroke-linejoin:miter;stroke-miterlimit:4;stroke-dasharray:none;stroke-dashoffset:0;stroke-opacity:1;paint-order:normal"
       id="circle7513-8-66"
       cx="26.051481"
       cy="21.999367"
       r="2"
       inkscape:label="fold_a" />
    <circle
       style="display:inline;opacity:1;vector-effect:none;fill:#ff0000;fill-opacity:0.501961;fill-rule:evenodd;stroke:none;stroke-width:1;stroke-linecap:butt;stroke-linejoin:miter;stroke-miterlimit:4;stroke-dasharray:none;stroke-dashoffset:0;stroke-opacity:1;paint-order:normal"
       id="circle7513-1-5"
       cx="26.051481"
       cy="62.768368"
       r="2"
       inkscape:label="fold_b" />
    <circle
       style="display:inline;opacity:1;vector-effect:none;fill:#ff0000;fill-opacity:0.501961;fill-rule:evenodd;stroke:none;stroke-width:1;stroke-linecap:butt;stroke-linejoin:miter;stroke-miterlimit:4;stroke-dasharray:none;stroke-dashoffset:0;stroke-opacity:1;paint-order:normal"
       id="circle7513-68-0"
       cx="10.266316"
       cy="83.296722"
       r="2"
       inkscape:label="cv_a" />
    <circle
       style="display:inline;vector-effect:none;fill:#ff0000;fill-opacity:0.501961;fill-rule:evenodd;stroke:none;stroke-width:1;stroke-linecap:butt;stroke-linejoin:miter;stroke-miterlimit:4;stroke-dasharray:none;stroke-dashoffset:0;stroke-opacity:1;paint-order:normal"
       id="circle7513-68-0-8"
       cx="30.276737"
       cy="83.296722"
       r="2"
       inkscape:label="cv_b" />
    <circle
       style="display:inline;vector-effect:none;fill:#00ff00;fill-opacity:1;fill-rule:evenodd;stroke:none;stroke-width:1;stroke-linecap:butt;stroke-linejoin:miter;stroke-miterlimit:4;stroke-dasharray:none;stroke-dashoffset:0;stroke-opacity:1;paint-order:normal"
       id="circle7513-8-8"
       cx="25.30822"
       cy="98.498726"
       r="2"
       inkscape:label="cv_b" />
    <circle
       style="display:inline;vector-effect:none;fill:#00ff00;fill-opacity:1;fill-rule:evenodd;stroke:none;stroke-width:1;stroke-linecap:butt;stroke-linejoin:miter;stroke-miterlimit:4;stroke-dasharray:none;stroke-dashoffset:0;stroke-opacity:1;paint-order:normal"
       id="circle7513-1-58"
       cx="35.357742"
       cy="98.498726"
       r="2"
       inkscape:label="vca_cv_b" />
    <circle
       style="display:inline;vector-effect:none;fill:#ff00ff;fill-opacity:0.501961;fill-rule:evenodd;stroke:none;stroke-width:0.456268;stroke-linecap:butt;stroke-linejoin:miter;stroke-miterlimit:4;stroke-dasharray:none;stroke-dashoffset:0;stroke-opacity:1;paint-order:normal"
       id="circle7513-45-4-4-1"
       cx="26.056707"
       cy="33.307095"
       r="0.91253525"
       inkscape:label="led_a" />
    <circle
       style="display:inline;vector-effect:none;fill:#ff00ff;fill-opacity:0.501961;fill-rule:evenodd;stroke:none;stroke-width:0.456268;stroke-linecap:butt;stroke-linejoin:miter;stroke-miterlimit:4;stroke-dasharray:none;stroke-dashoffset:0;stroke-opacity:1;paint-order:normal"
       id="circle7513-45-4-4-1-1"
       cx="26.056707"
       cy="51.530411"
       r="0.91253525"
       inkscape:label="led_b" />
  </g>
</svg>
