<?xml version="1.0" encoding="UTF-8"?>
<svg width="40.64mm" height="128.5mm" version="1.1" viewBox="0 0 40.601 128.5" xmlns="http://www.w3.org/2000/svg" xmlns:cc="http://creativecommons.org/ns#" xmlns:dc="http://purl.org/dc/elements/1.1/" xmlns:rdf="http://www.w3.org/1999/02/22-rdf-syntax-ns#">
 <metadata>
  <rdf:RDF>
   <cc:Work rdf:about="">
    <dc:format>image/svg+xml</dc:format>
    <dc:type rdf:resource="http://purl.org/dc/dcmitype/StillImage"/>
   </cc:Work>
  </rdf:RDF>
 </metadata>
 <g>
  <path d="m-0.019352 0v128.5h40.64v-128.5z" enable-background="new" fill="#171717"/>
  <g fill="none" stroke="#fff">
   <path d="m29.489 37.754a18.911 18.927 0 0 1 15.114 20.54 18.911 18.927 0 0 1-19.049 16.948 18.911 18.927 0 0 1-18.61-17.43 18.911 18.927 0 0 1 15.634-20.147" enable-background="new" stroke-linejoin="round" stroke-width=".45"/>
   <path d="m22.573 46.858a18.911 18.927 0 0 1-15.63-20.144 18.911 18.927 0 0 1 18.603-17.431 18.911 18.927 0 0 1 19.055 16.935 18.911 18.927 0 0 1-15.095 20.549" enable-background="new" stroke-linejoin="round" stroke-width=".45"/>
   <path d="m13.171 42.257h5.8727" enable-background="new" stroke-width=".28222px"/>
  </g>
  <g stroke-width=".28222">
   <g transform="scale(.9976 1.0024)" enable-background="new" fill="#fff" aria-label="CHOPPING KINKY">
    <path d="m14.133 3.8239q-0.11982-0.031066-0.2219-0.097635-0.10207-0.071008-0.17752-0.1642-0.071008-0.097635-0.11095-0.21302-0.039941-0.11539-0.039941-0.24409v-1.5089q0-0.12426 0.03994-0.23965 0.03994-0.11983 0.11095-0.21302 0.07545-0.097635 0.17752-0.1642 0.10207-0.071008 0.2219-0.10207 0.24853-0.06657 0.4793 0.031066 0.23077 0.093197 0.35948 0.3151 0.04882 0.075445 0.02219 0.15977-0.02219 0.084321-0.09763 0.13314-0.07545 0.04438-0.15977 0.02219-0.08432-0.026628-0.13314-0.10207-0.05326-0.093197-0.15533-0.13314-0.09764-0.04438-0.20415-0.013314-0.10207 0.026628-0.16864 0.11539-0.06657 0.084321-0.06657 0.19083v1.5089q0 0.11095 0.06657 0.19527 0.06657 0.084322 0.16864 0.11539 0.10651 0.026628 0.20415-0.013314 0.10207-0.04438 0.15533-0.13758 0.04882-0.075445 0.13314-0.097635 0.08432-0.026628 0.15977 0.017752 0.07544 0.048818 0.09763 0.13314 0.02663 0.084321-0.02219 0.15977-0.1287 0.2219-0.35948 0.3151-0.23078 0.097635-0.4793 0.031066z"/>
    <path d="m16.39 1.0635q0-0.088759 0.06213-0.15089 0.06213-0.062132 0.15089-0.062132 0.08876 0 0.15089 0.062132 0.06213 0.062132 0.06213 0.15089v2.574q0 0.088759-0.06213 0.15089-0.06213 0.062132-0.15089 0.062132-0.08876 0-0.15089-0.062132-0.06213-0.062132-0.06213-0.15089v-1.1184h-0.63907v1.1184q0 0.088759-0.06213 0.15089-0.06213 0.062132-0.15089 0.062132-0.08876 0-0.15089-0.062132-0.06213-0.062132-0.06213-0.15089v-2.574q0-0.088759 0.06213-0.15089 0.06213-0.062132 0.15089-0.062132 0.08876 0 0.15089 0.062132 0.06213 0.062132 0.06213 0.15089v1.0296h0.63907v-1.0296z"/>
    <path d="m17.951 3.8506q-0.15533 0-0.29291-0.057694-0.13314-0.057693-0.23521-0.15977t-0.15977-0.23521q-0.057694-0.13758-0.057694-0.29291v-1.5089q0-0.15533 0.05769-0.28847 0.05769-0.13758 0.15977-0.23965 0.10207-0.10207 0.23521-0.15977 0.13758-0.057694 0.29291-0.057694t0.28847 0.057694q0.13758 0.057694 0.23965 0.15977 0.10207 0.10207 0.15977 0.23965 0.05769 0.13314 0.05769 0.28847v1.5089q0 0.15533-0.05769 0.29291-0.05769 0.13314-0.15977 0.23521-0.10207 0.10207-0.23965 0.15977-0.13314 0.057694-0.28847 0.057694zm0-2.574q-0.13314 0-0.22634 0.093197-0.0932 0.093197-0.0932 0.22634v1.5089q0 0.13314 0.0932 0.22634 0.0932 0.093197 0.22634 0.093197 0.13314 0 0.22634-0.093197 0.0932-0.093197 0.0932-0.22634v-1.5089q0-0.13314-0.0932-0.22634-0.0932-0.093197-0.22634-0.093197z"/>
    <path d="m19.086 1.0813q0-0.088759 0.06213-0.15089 0.06213-0.062132 0.15089-0.062132h0.53256q0.15533 0 0.28847 0.057694 0.13758 0.057694 0.23965 0.15977 0.10207 0.10207 0.15977 0.23965 0.05769 0.13314 0.05769 0.28847v0.24853q0 0.15533-0.05769 0.29291-0.05769 0.13314-0.15977 0.23521-0.10207 0.10207-0.23965 0.15977-0.13314 0.057694-0.28847 0.057694h-0.31953v1.0296q0 0.088759-0.06213 0.15089-0.06213 0.062132-0.15089 0.062132-0.08876 0-0.15089-0.062132-0.06213-0.062132-0.06213-0.15089v-2.5563zm1.0651 0.53256q0-0.13314-0.0932-0.22634-0.0932-0.093197-0.22634-0.093197h-0.31953v0.88759h0.31953q0.13314 0 0.22634-0.093197 0.0932-0.093197 0.0932-0.22634v-0.24853z"/>
    <path d="m20.842 1.0813q0-0.088759 0.06213-0.15089 0.06213-0.062132 0.15089-0.062132h0.53256q0.15533 0 0.28847 0.057694 0.13758 0.057694 0.23965 0.15977 0.10207 0.10207 0.15977 0.23965 0.05769 0.13314 0.05769 0.28847v0.24853q0 0.15533-0.05769 0.29291-0.05769 0.13314-0.15977 0.23521-0.10207 0.10207-0.23965 0.15977-0.13314 0.057694-0.28847 0.057694h-0.31953v1.0296q0 0.088759-0.06213 0.15089-0.06213 0.062132-0.15089 0.062132-0.08876 0-0.15089-0.062132-0.06213-0.062132-0.06213-0.15089v-2.5563zm1.0651 0.53256q0-0.13314-0.0932-0.22634-0.0932-0.093197-0.22634-0.093197h-0.31953v0.88759h0.31953q0.13314 0 0.22634-0.093197 0.0932-0.093197 0.0932-0.22634v-0.24853z"/>
    <path d="m22.811 3.8506q-0.08876 0-0.15089-0.062132-0.06213-0.062132-0.06213-0.15089v-2.574q0-0.088759 0.06213-0.15089 0.06213-0.062132 0.15089-0.062132 0.08876 0 0.15089 0.062132 0.06213 0.062132 0.06213 0.15089v2.574q0 0.088759-0.06213 0.15089-0.06213 0.062132-0.15089 0.062132z"/>
    <path d="m24.971 3.8461q-0.07545 0.017752-0.14202-0.017752-0.06657-0.031066-0.09764-0.097635-0.13314-0.28403-0.27959-0.58137-0.12426-0.25296-0.27515-0.55918-0.14645-0.30622-0.28403-0.59469v1.642q0 0.088759-0.06213 0.15089-0.06213 0.062132-0.15089 0.062132-0.08876 0-0.15089-0.062132-0.06213-0.062132-0.06213-0.15089v-2.574q0-0.075446 0.04438-0.13314 0.04438-0.057694 0.11982-0.075446 0.07544-0.017752 0.13758 0.017752 0.06657 0.031066 0.10207 0.097635 0.13314 0.28403 0.27959 0.58137 0.12426 0.25296 0.27072 0.55918 0.14645 0.30622 0.28847 0.59469v-1.642q0-0.088759 0.06213-0.15089 0.06213-0.062132 0.15089-0.062132 0.08876 0 0.15089 0.062132 0.06213 0.062132 0.06213 0.15089v2.574q0 0.075446-0.04882 0.13314-0.04438 0.057694-0.11539 0.075445z"/>
    <path d="m26.803 2.1819q0.08876 0 0.15089 0.062132 0.06213 0.062132 0.06213 0.15089v0.71008q0 0.15533-0.05769 0.29291-0.05769 0.13314-0.15977 0.23521-0.10207 0.10207-0.23965 0.15977-0.13314 0.057694-0.28847 0.057694-0.15533 0-0.29291-0.057694-0.13314-0.057694-0.23521-0.15977-0.097635-0.10207-0.15977-0.23521-0.057693-0.13758-0.057693-0.29291v-1.5089q0-0.12426 0.03994-0.23965 0.03994-0.11983 0.11095-0.21302 0.07544-0.097635 0.17752-0.1642 0.10207-0.071008 0.22634-0.10207 0.11982-0.031066 0.24409-0.02219 0.12426 0.004438 0.23521 0.053256 0.11095 0.04438 0.20415 0.12426 0.0932 0.079883 0.15533 0.19083 0.04438 0.075445 0.01775 0.15977-0.02219 0.084321-0.09764 0.13314-0.07545 0.04438-0.15977 0.02219-0.08432-0.026628-0.1287-0.10207-0.05769-0.093197-0.15977-0.13314-0.09764-0.04438-0.19971-0.013314-0.10651 0.026628-0.17308 0.11539-0.06657 0.084321-0.06657 0.19083v1.5089q0 0.13314 0.0932 0.22634 0.09764 0.093197 0.22634 0.093197 0.13314 0 0.22634-0.093197 0.0932-0.093197 0.0932-0.22634v-0.49705h-0.23077q-0.08876 0-0.15089-0.062132-0.06213-0.062132-0.06213-0.15089t0.06213-0.15089 0.15089-0.062132h0.4438z"/>
    <path d="m17.842 7.2057q0.0355 0.079884 0.0044 0.1642-0.02663 0.084321-0.10651 0.11983-0.07988 0.039942-0.1642 0.00888-0.07988-0.026628-0.11982-0.10651l-0.58134-1.2116-0.16864 0.23077v0.88759q0 0.088759-0.06213 0.15089t-0.15089 0.062132q-0.08876 0-0.15089-0.062132-0.06213-0.062132-0.06213-0.15089v-2.574q0-0.088759 0.06213-0.15089t0.15089-0.062132q0.08876 0 0.15089 0.062132 0.06213 0.062132 0.06213 0.15089v0.95416l0.76777-1.0784q0.05326-0.071008 0.13758-0.084321 0.08876-0.013314 0.15977 0.035504 0.07545 0.048818 0.08876 0.13758 0.01331 0.084322-0.03994 0.15977l-0.6657 0.93641z"/>
    <path d="m18.343 7.5119q-0.08876 0-0.15089-0.062132-0.06213-0.062132-0.06213-0.15089v-2.574q0-0.088759 0.06213-0.15089t0.15089-0.062132q0.08876 0 0.15089 0.062132 0.06213 0.062132 0.06213 0.15089v2.574q0 0.088759-0.06213 0.15089t-0.15089 0.062132z"/>
    <path d="m20.503 7.5075q-0.07545 0.017752-0.14202-0.017752-0.06657-0.031066-0.09764-0.097635-0.13313-0.28403-0.27959-0.58137-0.12426-0.25296-0.27516-0.55918-0.14645-0.30622-0.28403-0.59469v1.642q0 0.088759-0.06213 0.15089t-0.15089 0.062132q-0.08876 0-0.15089-0.062132-0.06213-0.062132-0.06213-0.15089v-2.574q0-0.075445 0.04438-0.13314 0.04438-0.057694 0.11982-0.075446 0.07545-0.017752 0.13758 0.017752 0.06657 0.031066 0.10207 0.097635 0.13314 0.28403 0.27959 0.58137 0.12426 0.25296 0.27072 0.55918 0.14645 0.30622 0.28847 0.59469v-1.642q0-0.088759 0.06213-0.15089t0.15089-0.062132q0.08876 0 0.15089 0.062132 0.06213 0.062132 0.06213 0.15089v2.574q0 0.075445-0.04882 0.13314-0.04438 0.057694-0.11539 0.075445z"/>
    <path d="m22.672 7.2057q0.0355 0.079884 0.0044 0.1642-0.02663 0.084321-0.10651 0.11983-0.07988 0.039942-0.1642 0.00888-0.07988-0.026628-0.11982-0.10651l-0.58134-1.2116-0.16864 0.23077v0.88759q0 0.088759-0.06213 0.15089t-0.15089 0.062132q-0.08876 0-0.15089-0.062132-0.06213-0.062132-0.06213-0.15089v-2.574q0-0.088759 0.06213-0.15089t0.15089-0.062132q0.08876 0 0.15089 0.062132 0.06213 0.062132 0.06213 0.15089v0.95416l0.76777-1.0784q0.05326-0.071008 0.13758-0.084321 0.08876-0.013314 0.15977 0.035504 0.07544 0.048818 0.08876 0.13758 0.01331 0.084322-0.03994 0.15977l-0.6657 0.93641z"/>
    <path d="m23.62 7.5119q-0.08876 0-0.15089-0.062132-0.06213-0.062132-0.06213-0.15089v-1.2826l-0.59913-1.1938q-0.03994-0.079883-0.01331-0.1642 0.03107-0.084321 0.11095-0.12426 0.07544-0.039942 0.15977-0.00888 0.08432 0.026628 0.12426 0.10651l0.14645 0.29291q0.06213 0.1287 0.13758 0.27959 0.07544 0.15089 0.14645 0.28847 0.06657-0.13758 0.14202-0.28847 0.07988-0.15089 0.14202-0.27959l0.14645-0.2929q0.03994-0.079883 0.12426-0.10651 0.08432-0.031066 0.15977 0.00888 0.07988 0.039942 0.10651 0.12426 0.03107 0.084321-0.0089 0.1642l-0.59913 1.1938v1.2826q0 0.088759-0.06213 0.15089t-0.15089 0.062132z"/>
   </g>
   <text x="13.034549" y="122.58993" enable-background="new" fill="#000000" font-family="Miso" font-size="3.3867px" font-stretch="condensed" font-weight="bold" letter-spacing="-.014404px" word-spacing="0px" style="line-height:0%" xml:space="preserve"><tspan x="13.034549" y="122.58993" fill="#000000" font-size="3.361px" stroke-width=".28222" style="line-height:1.25"> </tspan></text>
   <text x="10.027257" y="104.84864" enable-background="new" fill="#000000" font-family="Nyet" font-size="3.3867px" font-weight="bold" letter-spacing="0px" word-spacing="0px" style="line-height:0%" xml:space="preserve"><tspan x="10.027257" y="104.84864" font-size="4.5156px" stroke-width=".28222" style="line-height:1.25"> </tspan></text>
   <g enable-background="new" fill="#fff" aria-label="IN A">
    <path d="m1.7883 22.268q-0.079022 0-0.13434-0.05532-0.055316-0.05532-0.055316-0.13434v-2.2916q0-0.07902 0.055316-0.13434 0.055316-0.05532 0.13434-0.05532 0.079022 0 0.13434 0.05532 0.055316 0.05532 0.055316 0.13434v2.2916q0 0.07902-0.055316 0.13434-0.055316 0.05532-0.13434 0.05532z"/>
    <path d="m3.7114 22.264q-0.067169 0.0158-0.12644-0.01581-0.059267-0.02766-0.086924-0.08692-0.11853-0.25287-0.24892-0.51759-0.11063-0.22521-0.24497-0.49784-0.13039-0.27263-0.25287-0.52945v1.4619q0 0.07902-0.055315 0.13434-0.055316 0.05532-0.13434 0.05532-0.079022 0-0.13434-0.05532-0.055315-0.05532-0.055315-0.13434v-2.2916q0-0.06717 0.039511-0.11853 0.039511-0.05137 0.10668-0.06717 0.067169-0.01581 0.12248 0.0158 0.059267 0.02766 0.090876 0.08693 0.11853 0.25287 0.24892 0.5176 0.11063 0.22521 0.24102 0.49784t0.25682 0.52945v-1.4619q0-0.07902 0.055316-0.13434 0.055315-0.05532 0.13434-0.05532 0.079022 0 0.13434 0.05532 0.055316 0.05532 0.055316 0.13434v2.2916q0 0.06717-0.043462 0.11853-0.039511 0.05136-0.10273 0.06717z"/>
    <path d="m6.4551 22.027q0.019755 0.07902-0.019756 0.14619-0.03556 0.06717-0.11063 0.08693-0.079022 0.01975-0.14619-0.01976-0.067169-0.03556-0.086924-0.11063-0.015804-0.04741-0.031609-0.11458-0.015804-0.05532-0.039511-0.13039-0.019755-0.07902-0.043462-0.1699h-0.67169q-0.027658 0.09088-0.047413 0.1699-0.019756 0.07507-0.03556 0.13039-0.015804 0.06717-0.031609 0.11458-0.019755 0.07507-0.086924 0.11063-0.067169 0.03951-0.14619 0.01976-0.075071-0.01976-0.11458-0.08693-0.03556-0.06717-0.015804-0.14619l0.63218-2.2916q0.015804-0.06322 0.063218-0.09878 0.051364-0.03951 0.11853-0.03951 0.067169 0 0.11458 0.03951 0.051365 0.03556 0.067169 0.09878zm-0.58476-0.69144q-0.055316-0.20546-0.11458-0.42277-0.059267-0.21731-0.11458-0.41092-0.055316 0.1936-0.11458 0.41092-0.059267 0.21731-0.11458 0.42277z"/>
   </g>
  </g>
  <g transform="matrix(.43088 0 0 .43088 -352.38 -214.58)" enable-background="new">
   <g transform="matrix(1.435 0 0 1.435 -259.64 -278.08)">
    <g fill="#fff">
     <path d="m791.94 557.51c0.35782-0.6197 1.1503-0.83204 1.77-0.47428 0.61975 0.35784 0.83211 1.1504 0.47429 1.77-0.35779 0.61977-1.1503 0.83212-1.77 0.47427-0.61971-0.35775-0.83207-1.1503-0.47429-1.77" enable-background="new" fill="#fff"/>
     <path d="m791.94 557.51c0.35782-0.6197 1.1503-0.83204 1.77-0.47428 0.61975 0.35784 0.83211 1.1504 0.47429 1.77-0.35779 0.61977-1.1503 0.83212-1.77 0.47427-0.61971-0.35775-0.83207-1.1503-0.47429-1.77" enable-background="new" fill="#fff"/>
     <path transform="matrix(-.76289 0 0 .76296 894.69 408.98)" d="m121.54 240.41a23.963 23.963 0 0 1-11.42-26.995 23.963 23.963 0 0 1 23.247-17.853 23.963 23.963 0 0 1 23.133 18 23.963 23.963 0 0 1-11.592 26.922" enable-background="new" fill="none" stroke="#fff" stroke-width=".70804px"/>
     <g fill="#fff">
      <path d="m783.5 591.28c0.53135-0.30675 1.2108-0.12468 1.5176 0.40665 0.30678 0.53139 0.1247 1.2109-0.40666 1.5177-0.53138 0.30682-1.2109 0.12475-1.5176-0.40665-0.3068-0.53132-0.12473-1.2108 0.40665-1.5177" enable-background="new"/>
      <path d="m800.95 592.24c3e-5 -0.61363 0.49753-1.1111 1.1112-1.1112 0.61369 3e-5 1.1112 0.49755 1.1112 1.1112 2e-5 0.61369-0.49748 1.1112-1.1112 1.1112-0.61364 3e-5 -1.1112-0.49749-1.1112-1.1112" enable-background="new"/>
      <path d="m791.94 557.51c0.35782-0.6197 1.1503-0.83204 1.77-0.47428 0.61975 0.35784 0.83211 1.1504 0.47429 1.77-0.35779 0.61977-1.1503 0.83212-1.77 0.47427-0.61971-0.35775-0.83207-1.1503-0.47429-1.77" enable-background="new"/>
     </g>
    </g>
   </g>
  </g>
  <g transform="matrix(.43088 0 0 .43088 -352.38 -173.81)" enable-background="new">
   <g transform="matrix(1.435 0 0 1.435 -259.64 -278.08)">
    <g fill="#fff">
     <path transform="matrix(-.76289 0 0 .76296 894.69 408.98)" d="m121.54 240.41a23.963 23.963 0 0 1-11.42-26.995 23.963 23.963 0 0 1 23.247-17.853 23.963 23.963 0 0 1 23.133 18 23.963 23.963 0 0 1-11.592 26.922" enable-background="new" fill="none" stroke="#fff" stroke-width=".70804px"/>
     <path d="m783.5 591.28c0.53135-0.30675 1.2108-0.12468 1.5176 0.40665 0.30678 0.53139 0.1247 1.2109-0.40666 1.5177-0.53138 0.30682-1.2109 0.12475-1.5176-0.40665-0.3068-0.53132-0.12473-1.2108 0.40665-1.5177" enable-background="new" fill="#fff"/>
     <path d="m800.95 592.24c3e-5 -0.61363 0.49753-1.1111 1.1112-1.1112 0.61369 3e-5 1.1112 0.49755 1.1112 1.1112 2e-5 0.61369-0.49748 1.1112-1.1112 1.1112-0.61364 3e-5 -1.1112-0.49749-1.1112-1.1112" enable-background="new" fill="#fff"/>
    </g>
   </g>
  </g>
  <g transform="matrix(.28222 0 0 .28222 -71.786 -51.086)" enable-background="new" stroke="#fff">
   <path transform="matrix(0 -1.6969 1.6684 0 155.46 766.18)" d="m239.86 87.252 2.2675-1.3091v2.6183z" enable-background="new" fill="#fff" stroke-linecap="square" stroke-width=".59385"/>
   <path transform="matrix(0 1.6969 1.6684 0 155.46 -104.8)" d="m239.86 87.252 2.2675-1.3091v2.6183z" enable-background="new" fill="#fff" stroke-linecap="square" stroke-width=".59385"/>
   <path d="m301.03 306.55v48.546" fill="none" stroke-width="2.126"/>
  </g>
  <path d="m26.057 34.611v15.661" enable-background="new" fill="none" stroke="#fff" stroke-width=".6"/>
  <g fill="#fff">
   <g enable-background="new" stroke-width=".28222" aria-label="IN B">
    <path d="m1.8555 64.521q-0.079022 0-0.13434-0.05532-0.055316-0.05532-0.055316-0.13434v-2.2916q0-0.07902 0.055316-0.13434 0.055316-0.05532 0.13434-0.05532 0.079022 0 0.13434 0.05532 0.055316 0.05532 0.055316 0.13434v2.2916q0 0.07902-0.055316 0.13434-0.055316 0.05532-0.13434 0.05532z"/>
    <path d="m3.7785 64.517q-0.067169 0.01581-0.12644-0.0158-0.059267-0.02766-0.086924-0.08692-0.11853-0.25288-0.24892-0.5176-0.11063-0.22521-0.24497-0.49784-0.13039-0.27263-0.25287-0.52945v1.4619q0 0.07902-0.055315 0.13434-0.055316 0.05532-0.13434 0.05532-0.079022 0-0.13434-0.05532-0.055315-0.05532-0.055315-0.13434v-2.2916q0-0.06717 0.039511-0.11853 0.039511-0.05136 0.10668-0.06717 0.067169-0.0158 0.12248 0.01581 0.059267 0.02766 0.090876 0.08692 0.11853 0.25287 0.24892 0.5176 0.11063 0.22521 0.24102 0.49784 0.13039 0.27263 0.25682 0.52945v-1.4619q0-0.07902 0.055316-0.13434 0.055315-0.05532 0.13434-0.05532 0.079022 0 0.13434 0.05532 0.055315 0.05532 0.055315 0.13434v2.2916q0 0.06717-0.043462 0.11853-0.039511 0.05136-0.10273 0.06717z"/>
    <path d="m6.388 62.672q0 0.13829-0.055315 0.26077-0.055316 0.12248-0.14619 0.21336 0.090876 0.09088 0.14619 0.21336 0.055315 0.12248 0.055315 0.26077v0.22126q0 0.13829-0.055315 0.26077-0.051364 0.11853-0.14224 0.20941-0.086924 0.09087-0.20941 0.14224-0.12248 0.05136-0.25682 0.05136h-0.47413q-0.079022 0-0.13434-0.05531-0.055316-0.05532-0.055316-0.13434v-2.26q0-0.07902 0.055316-0.13434 0.055316-0.05532 0.13434-0.05532h0.47413q0.13434 0 0.25682 0.05136 0.12248 0.05137 0.20941 0.14224 0.090876 0.09088 0.14224 0.21336 0.055315 0.11853 0.055315 0.25682v0.14224zm-0.37931 0.94827q0-0.11853-0.082973-0.20151-0.082973-0.08297-0.20151-0.08297h-0.28448v0.79022h0.28448q0.11853 0 0.20151-0.08297 0.082973-0.08297 0.082973-0.20151v-0.22127zm-0.28448-0.66379q0.11853 0 0.20151-0.08297 0.082973-0.08297 0.082973-0.20151v-0.14224q0-0.11853-0.082973-0.20151-0.082973-0.08297-0.20151-0.08297h-0.28448v0.7112z"/>
   </g>
   <path transform="matrix(.90461 0 0 .8791 -198.68 -34.451)" d="m239.86 87.252 2.2675-1.3091v2.6183z" enable-background="new" stroke="#fff" stroke-linecap="square" stroke-width=".31623"/>
   <g enable-background="new" stroke-width=".28222" aria-label="CV A">
    <path d="m8.0051 105.69q-0.10668-0.0277-0.19756-0.0869-0.090876-0.0632-0.15804-0.14619-0.063218-0.0869-0.098778-0.18965-0.03556-0.10273-0.03556-0.21731v-1.3434q0-0.11063 0.03556-0.21336 0.03556-0.10668 0.098778-0.18965 0.067169-0.0869 0.15804-0.14619 0.090876-0.0632 0.19756-0.0909 0.22126-0.0593 0.42672 0.0277 0.20546 0.083 0.32004 0.28053 0.043462 0.0672 0.019756 0.14224-0.019756 0.0751-0.086924 0.11853-0.067169 0.0395-0.14224 0.0198-0.075071-0.0237-0.11853-0.0909-0.047413-0.083-0.13829-0.11853-0.086924-0.0395-0.18175-0.0118-0.090876 0.0237-0.15014 0.10272-0.059267 0.0751-0.059267 0.1699v1.3434q0 0.0988 0.059267 0.17385 0.059267 0.0751 0.15014 0.10273 0.094827 0.0237 0.18175-0.0119 0.090876-0.0395 0.13829-0.12248 0.043462-0.0672 0.11853-0.0869 0.075071-0.0237 0.14224 0.0158 0.067169 0.0435 0.086924 0.11853 0.023707 0.0751-0.019756 0.14224-0.11458 0.19756-0.32004 0.28053-0.20546 0.0869-0.42672 0.0277z"/>
    <path d="m8.9325 103.28q-0.019756-0.079 0.015804-0.14619 0.039511-0.0672 0.11853-0.0869 0.075071-0.0198 0.14224 0.0198 0.07112 0.0356 0.090875 0.11063 0.075071 0.28053 0.15409 0.56501 0.067169 0.24497 0.14619 0.52945t0.15014 0.53735q0.067169-0.25287 0.14619-0.53735 0.079022-0.28448 0.14619-0.52945 0.07507-0.28448 0.15409-0.56501 0.01976-0.0751 0.08692-0.11063 0.07112-0.0395 0.14619-0.0198 0.07902 0.0198 0.11458 0.0869 0.03951 0.0672 0.01975 0.14619l-0.63218 2.2916q-0.019756 0.0632-0.07112 0.0988-0.047413 0.0395-0.11063 0.0395-0.067169 0-0.11853-0.0395-0.047413-0.0356-0.067169-0.0988z"/>
    <path d="m13.024 105.47q0.01975 0.079-0.01976 0.14619-0.03556 0.0672-0.11063 0.0869-0.07902 0.0198-0.14619-0.0198-0.06717-0.0356-0.08692-0.11063-0.0158-0.0474-0.03161-0.11459-0.01581-0.0553-0.03951-0.13038-0.01976-0.079-0.04346-0.1699h-0.67169q-0.02766 0.0909-0.04741 0.1699-0.01975 0.0751-0.03556 0.13038-0.0158 0.0672-0.03161 0.11459-0.01976 0.0751-0.08692 0.11063-0.06717 0.0395-0.14619 0.0198-0.07507-0.0198-0.11458-0.0869-0.03556-0.0672-0.01581-0.14619l0.63218-2.2916q0.0158-0.0632 0.06322-0.0988 0.05136-0.0395 0.11853-0.0395 0.06717 0 0.11458 0.0395 0.05137 0.0356 0.06717 0.0988zm-0.58476-0.69145q-0.05532-0.20545-0.11458-0.42277-0.05927-0.21731-0.11458-0.41091-0.05532 0.1936-0.11458 0.41091-0.05927 0.21732-0.11458 0.42277z"/>
   </g>
  </g>
  <g transform="matrix(.21528 0 0 .21528 -178.81 -34.91)" enable-background="new">
   <g transform="matrix(1.435 0 0 1.435 -259.64 -278.08)">
    <g fill="#fff">
     <path d="m791.94 557.51c0.35782-0.6197 1.1503-0.83204 1.77-0.47428 0.61975 0.35784 0.83211 1.1504 0.47429 1.77-0.35779 0.61977-1.1503 0.83212-1.77 0.47427-0.61971-0.35775-0.83207-1.1503-0.47429-1.77" enable-background="new" fill="#fff"/>
     <path transform="matrix(-.76289 0 0 .76296 894.69 408.98)" d="m121.54 240.41a23.963 23.963 0 0 1-11.42-26.995 23.963 23.963 0 0 1 23.247-17.853 23.963 23.963 0 0 1 23.133 18 23.963 23.963 0 0 1-11.592 26.922" enable-background="new" fill="none" stroke="#fff" stroke-width="1.4171px"/>
     <path d="m783.5 591.28c0.53135-0.30675 1.2108-0.12468 1.5176 0.40665 0.30678 0.53139 0.1247 1.2109-0.40666 1.5177-0.53138 0.30682-1.2109 0.12475-1.5176-0.40665-0.3068-0.53132-0.12473-1.2108 0.40665-1.5177" enable-background="new" fill="#fff"/>
     <path d="m800.95 592.24c3e-5 -0.61363 0.49753-1.1111 1.1112-1.1112 0.61369 3e-5 1.1112 0.49755 1.1112 1.1112 2e-5 0.61369-0.49748 1.1112-1.1112 1.1112-0.61364 3e-5 -1.1112-0.49749-1.1112-1.1112" enable-background="new" fill="#fff"/>
    </g>
   </g>
  </g>
  <g fill="#fff" stroke-width=".28222">
   <g enable-background="new" aria-label="CV B">
    <path d="m28.083 105.69q-0.10668-0.0276-0.19756-0.0869-0.09088-0.0632-0.15804-0.14619-0.06322-0.0869-0.09878-0.18965-0.03556-0.10273-0.03556-0.21732v-1.3434q0-0.11063 0.03556-0.21336 0.03556-0.10668 0.09878-0.18966 0.06717-0.0869 0.15804-0.14619 0.09088-0.0632 0.19756-0.0909 0.22126-0.0593 0.42672 0.0277 0.20546 0.083 0.32004 0.28052 0.04346 0.0672 0.01975 0.14224-0.01975 0.0751-0.08692 0.11854-0.06717 0.0395-0.14224 0.0198-0.07507-0.0237-0.11853-0.0909-0.04741-0.083-0.13829-0.11854-0.08693-0.0395-0.18175-0.0118-0.09088 0.0237-0.15014 0.10273-0.05927 0.0751-0.05927 0.1699v1.3434q0 0.0988 0.05927 0.17385 0.05927 0.0751 0.15014 0.10273 0.09483 0.0237 0.18175-0.0119 0.09087-0.0395 0.13829-0.12249 0.04346-0.0672 0.11853-0.0869 0.07507-0.0237 0.14224 0.0158 0.06717 0.0435 0.08692 0.11854 0.02371 0.0751-0.01975 0.14224-0.11458 0.19755-0.32004 0.28053-0.20546 0.0869-0.42672 0.0276z"/>
    <path d="m29.01 103.28q-0.01975-0.079 0.0158-0.14619 0.03951-0.0672 0.11853-0.0869 0.07507-0.0198 0.14224 0.0198 0.07112 0.0356 0.09088 0.11063 0.07507 0.28053 0.15409 0.56501 0.06717 0.24497 0.14619 0.52945 0.07902 0.28448 0.15014 0.53735 0.06717-0.25287 0.14619-0.53735 0.07902-0.28448 0.14619-0.52945 0.07507-0.28448 0.15409-0.56501 0.01975-0.0751 0.08692-0.11063 0.07112-0.0395 0.14619-0.0198 0.07902 0.0198 0.11458 0.0869 0.03951 0.0672 0.01976 0.14619l-0.63218 2.2916q-0.01975 0.0632-0.07112 0.0988-0.04741 0.0395-0.11063 0.0395-0.06717 0-0.11853-0.0395-0.04741-0.0356-0.06717-0.0988z"/>
    <path d="m32.967 103.86q0 0.13829-0.05532 0.26077-0.05532 0.12249-0.14619 0.21336 0.09088 0.0909 0.14619 0.21336 0.05532 0.12249 0.05532 0.26078v0.22126q0 0.13829-0.05532 0.26077-0.05136 0.11854-0.14224 0.20941-0.08693 0.0909-0.20941 0.14224-0.12248 0.0514-0.25682 0.0514h-0.47413q-0.07902 0-0.13434-0.0553-0.05532-0.0553-0.05532-0.13434v-2.26q0-0.079 0.05532-0.13434 0.05532-0.0553 0.13434-0.0553h0.47413q0.13434 0 0.25682 0.0514t0.20941 0.14224q0.09088 0.0909 0.14224 0.21336 0.05532 0.11853 0.05532 0.25682v0.14224zm-0.37931 0.94827q0-0.11854-0.08297-0.20151-0.08297-0.083-0.20151-0.083h-0.28448v0.79022h0.28448q0.11853 0 0.20151-0.083 0.08297-0.083 0.08297-0.20151v-0.2212zm-0.28448-0.66379q0.11853 0 0.20151-0.083 0.08297-0.083 0.08297-0.20151v-0.14224q0-0.11853-0.08297-0.2015-0.08297-0.083-0.20151-0.083h-0.28448v0.7112z"/>
   </g>
   <g enable-background="new" aria-label="OUT A">
    <path d="m6.742 118.75q-0.13829 0-0.26077-0.0514-0.11853-0.0514-0.20941-0.14224-0.090876-0.0909-0.14224-0.20941-0.051364-0.12249-0.051364-0.26078v-1.3434q0-0.13829 0.051364-0.25683 0.051364-0.12248 0.14224-0.21336 0.090876-0.0909 0.20941-0.14224 0.12248-0.0514 0.26077-0.0514 0.13829 0 0.25682 0.0514 0.12248 0.0514 0.21336 0.14224 0.090876 0.0909 0.14224 0.21336 0.051364 0.11854 0.051364 0.25683v1.3434q0 0.13829-0.051364 0.26078-0.051364 0.11853-0.14224 0.20941-0.090876 0.0909-0.21336 0.14224-0.11853 0.0514-0.25682 0.0514zm0-2.2916q-0.11853 0-0.20151 0.083-0.082973 0.083-0.082973 0.20151v1.3434q0 0.11854 0.082973 0.20151 0.082973 0.083 0.20151 0.083 0.11853 0 0.20151-0.083 0.082973-0.083 0.082973-0.20151v-1.3434q0-0.11854-0.082973-0.20151-0.082973-0.083-0.20151-0.083z"/>
    <path d="m8.1001 118.08q0 0.11854 0.082973 0.20151 0.082973 0.083 0.20151 0.083 0.11458 0 0.19756-0.083 0.086924-0.083 0.086924-0.20151v-1.8175q0-0.079 0.055316-0.13433 0.055316-0.0553 0.13434-0.0553 0.079022 0 0.13434 0.0553 0.055316 0.0553 0.055316 0.13433v1.8175q0 0.13829-0.055316 0.26078-0.051365 0.11853-0.14224 0.20941-0.086924 0.0909-0.20941 0.14224-0.12248 0.0514-0.25682 0.0514-0.13829 0-0.26077-0.0514-0.11853-0.0514-0.20941-0.14224-0.090876-0.0909-0.14224-0.20941-0.051364-0.12249-0.051364-0.26078v-1.8175q0-0.079 0.055316-0.13433 0.055315-0.0553 0.13434-0.0553 0.079022 0 0.13434 0.0553 0.055316 0.0553 0.055316 0.13433v1.8175z"/>
    <path d="m10.47 116.09q0.07902 0 0.13434 0.0553 0.05532 0.0553 0.05532 0.13434 0 0.079-0.05532 0.13434-0.05532 0.0553-0.13434 0.0553h-0.32399v2.0862q0 0.079-0.05532 0.13434-0.05532 0.0553-0.13434 0.0553-0.079022 0-0.13434-0.0553-0.055316-0.0553-0.055316-0.13434v-2.0862h-0.32399q-0.079022 0-0.13434-0.0553-0.055315-0.0553-0.055315-0.13434 0-0.079 0.055315-0.13434 0.055316-0.0553 0.13434-0.0553z"/>
    <path d="m13.099 118.5q0.01975 0.079-0.01976 0.14619-0.03556 0.0672-0.11063 0.0869-0.07902 0.0198-0.14619-0.0198-0.06717-0.0356-0.08692-0.11063-0.01581-0.0474-0.03161-0.11458-0.01581-0.0553-0.03951-0.13039-0.01976-0.079-0.04346-0.16989h-0.67169q-0.02766 0.0909-0.04741 0.16989-0.01975 0.0751-0.03556 0.13039-0.0158 0.0672-0.03161 0.11458-0.01976 0.0751-0.08693 0.11063-0.06717 0.0395-0.14619 0.0198-0.07507-0.0198-0.11458-0.0869-0.03556-0.0672-0.0158-0.14619l0.63218-2.2916q0.01581-0.0632 0.06322-0.0988 0.05136-0.0395 0.11853-0.0395 0.06717 0 0.11458 0.0395 0.05136 0.0356 0.06717 0.0988zm-0.58476-0.69144q-0.05532-0.20546-0.11458-0.42277-0.05927-0.21731-0.11458-0.41092-0.05532 0.19361-0.11458 0.41092-0.05927 0.21731-0.11458 0.42277z"/>
   </g>
   <g enable-background="new" aria-label="OUT B">
    <path d="m28.312 118.75q-0.13829 0-0.26077-0.0514-0.11853-0.0514-0.20941-0.14224-0.09088-0.0909-0.14224-0.20941-0.05136-0.12249-0.05136-0.26078v-1.3434q0-0.13829 0.05136-0.25683 0.05136-0.12248 0.14224-0.21336 0.09088-0.0909 0.20941-0.14224 0.12248-0.0514 0.26077-0.0514t0.25682 0.0514q0.12248 0.0514 0.21336 0.14224 0.09088 0.0909 0.14224 0.21336 0.05136 0.11854 0.05136 0.25683v1.3434q0 0.13829-0.05136 0.26078-0.05136 0.11853-0.14224 0.20941-0.09088 0.0909-0.21336 0.14224-0.11853 0.0514-0.25682 0.0514zm0-2.2916q-0.11853 0-0.20151 0.083-0.08297 0.083-0.08297 0.20151v1.3434q0 0.11854 0.08297 0.20151 0.08297 0.083 0.20151 0.083 0.11853 0 0.20151-0.083 0.08297-0.083 0.08297-0.20151v-1.3434q0-0.11854-0.08297-0.20151-0.08297-0.083-0.20151-0.083z"/>
    <path d="m29.67 118.08q0 0.11854 0.08297 0.20151 0.08297 0.083 0.20151 0.083 0.11458 0 0.19756-0.083 0.08693-0.083 0.08693-0.20151v-1.8175q0-0.079 0.05532-0.13433 0.05532-0.0553 0.13434-0.0553 0.07902 0 0.13434 0.0553 0.05532 0.0553 0.05532 0.13433v1.8175q0 0.13829-0.05532 0.26078-0.05137 0.11853-0.14224 0.20941-0.08692 0.0909-0.20941 0.14224-0.12248 0.0514-0.25682 0.0514-0.13829 0-0.26077-0.0514-0.11853-0.0514-0.20941-0.14224-0.09088-0.0909-0.14224-0.20941-0.05137-0.12249-0.05137-0.26078v-1.8175q0-0.079 0.05532-0.13433 0.05532-0.0553 0.13434-0.0553 0.07902 0 0.13434 0.0553 0.05532 0.0553 0.05532 0.13433v1.8175z"/>
    <path d="m32.039 116.09q0.07902 0 0.13434 0.0553 0.05532 0.0553 0.05532 0.13434 0 0.079-0.05532 0.13434-0.05532 0.0553-0.13434 0.0553h-0.32399v2.0862q0 0.079-0.05532 0.13434-0.05532 0.0553-0.13434 0.0553-0.07902 0-0.13434-0.0553-0.05532-0.0553-0.05532-0.13434v-2.0862h-0.32399q-0.07902 0-0.13434-0.0553-0.05532-0.0553-0.05532-0.13434 0-0.079 0.05532-0.13434 0.05532-0.0553 0.13434-0.0553z"/>
    <path d="m34.534 116.9q0 0.13829-0.05532 0.26077-0.05532 0.12249-0.14619 0.21336 0.09088 0.0909 0.14619 0.21336 0.05532 0.12249 0.05532 0.26078v0.22126q0 0.13829-0.05532 0.26077-0.05137 0.11854-0.14224 0.20941-0.08693 0.0909-0.20941 0.14224-0.12248 0.0514-0.25682 0.0514h-0.47413q-0.07902 0-0.13434-0.0553-0.05532-0.0553-0.05532-0.13434v-2.26q0-0.079 0.05532-0.13434 0.05532-0.0553 0.13434-0.0553h0.47413q0.13434 0 0.25682 0.0514 0.12248 0.0514 0.20941 0.14224 0.09087 0.0909 0.14224 0.21336 0.05532 0.11853 0.05532 0.25682v0.14224zm-0.37931 0.94827q0-0.11854-0.08297-0.20151-0.08297-0.083-0.20151-0.083h-0.28448v0.79022h0.28448q0.11853 0 0.20151-0.083 0.08297-0.083 0.08297-0.20151v-0.22126zm-0.28448-0.66379q0.11853 0 0.20151-0.083 0.08297-0.083 0.08297-0.20151v-0.14224q0-0.11853-0.08297-0.20151-0.08297-0.083-0.20151-0.083h-0.28448v0.7112z"/>
   </g>
  </g>
  <g transform="matrix(.21528 0 0 .21528 -158.8 -34.91)" enable-background="new">
   <g transform="matrix(1.435 0 0 1.435 -259.64 -278.08)">
    <g fill="#fff">
     <path d="m791.94 557.51c0.35782-0.6197 1.1503-0.83204 1.77-0.47428 0.61975 0.35784 0.83211 1.1504 0.47429 1.77-0.35779 0.61977-1.1503 0.83212-1.77 0.47427-0.61971-0.35775-0.83207-1.1503-0.47429-1.77" enable-background="new" fill="#fff"/>
     <path d="m791.94 557.51c0.35782-0.6197 1.1503-0.83204 1.77-0.47428 0.61975 0.35784 0.83211 1.1504 0.47429 1.77-0.35779 0.61977-1.1503 0.83212-1.77 0.47427-0.61971-0.35775-0.83207-1.1503-0.47429-1.77" enable-background="new" fill="#fff"/>
     <path transform="matrix(-.76289 0 0 .76296 894.69 408.98)" d="m121.54 240.41a23.963 23.963 0 0 1-11.42-26.995 23.963 23.963 0 0 1 23.247-17.853 23.963 23.963 0 0 1 23.133 18 23.963 23.963 0 0 1-11.592 26.922" enable-background="new" fill="none" stroke="#fff" stroke-width="1.4171px"/>
     <g fill="#fff">
      <path d="m783.5 591.28c0.53135-0.30675 1.2108-0.12468 1.5176 0.40665 0.30678 0.53139 0.1247 1.2109-0.40666 1.5177-0.53138 0.30682-1.2109 0.12475-1.5176-0.40665-0.3068-0.53132-0.12473-1.2108 0.40665-1.5177" enable-background="new"/>
      <path d="m800.95 592.24c3e-5 -0.61363 0.49753-1.1111 1.1112-1.1112 0.61369 3e-5 1.1112 0.49755 1.1112 1.1112 2e-5 0.61369-0.49748 1.1112-1.1112 1.1112-0.61364 3e-5 -1.1112-0.49749-1.1112-1.1112" enable-background="new"/>
      <path d="m791.94 557.51c0.35782-0.6197 1.1503-0.83204 1.77-0.47428 0.61975 0.35784 0.83211 1.1504 0.47429 1.77-0.35779 0.61977-1.1503 0.83212-1.77 0.47427-0.61971-0.35775-0.83207-1.1503-0.47429-1.77" enable-background="new"/>
     </g>
    </g>
   </g>
  </g>
  <path d="m25.197 97.866v-5.3516l5.0827-2.9643v-7.8258" enable-background="new" fill="none" stroke="#fff" stroke-width=".28222px"/>
  <g enable-background="new" fill="#fff" stroke-width=".28222" aria-label="CHOPP OUT">
   <path d="m16.798 117.72q-0.10668-0.0276-0.19756-0.0869-0.09088-0.0632-0.15804-0.14619-0.06322-0.0869-0.09878-0.18965-0.03556-0.10273-0.03556-0.21732v-1.3434q0-0.11063 0.03556-0.21336 0.03556-0.10668 0.09878-0.18966 0.06717-0.0869 0.15804-0.14619 0.09088-0.0632 0.19756-0.0909 0.22126-0.0593 0.42672 0.0277 0.20546 0.083 0.32004 0.28053 0.04346 0.0672 0.01976 0.14224-0.01976 0.0751-0.08692 0.11854-0.06717 0.0395-0.14224 0.0198-0.07507-0.0237-0.11853-0.0909-0.04741-0.083-0.13829-0.11854-0.08692-0.0395-0.18175-0.0118-0.09088 0.0237-0.15014 0.10273-0.05927 0.0751-0.05927 0.1699v1.3434q0 0.0988 0.05927 0.17385 0.05927 0.0751 0.15014 0.10273 0.09483 0.0237 0.18175-0.0118 0.09088-0.0395 0.13829-0.12249 0.04346-0.0672 0.11853-0.0869 0.07507-0.0237 0.14224 0.0158 0.06717 0.0435 0.08692 0.11854 0.02371 0.0751-0.01976 0.14224-0.11458 0.19755-0.32004 0.28053-0.20546 0.0869-0.42672 0.0276z"/>
   <path d="m18.808 115.26q0-0.079 0.05532-0.13433 0.05532-0.0553 0.13434-0.0553 0.07902 0 0.13434 0.0553 0.05532 0.0553 0.05532 0.13433v2.2916q0 0.079-0.05532 0.13434-0.05532 0.0553-0.13434 0.0553-0.07902 0-0.13434-0.0553-0.05532-0.0553-0.05532-0.13434v-0.99568h-0.56896v0.99568q0 0.079-0.05532 0.13434-0.05532 0.0553-0.13434 0.0553-0.07902 0-0.13434-0.0553-0.05532-0.0553-0.05532-0.13434v-2.2916q0-0.079 0.05532-0.13433 0.05532-0.0553 0.13434-0.0553 0.07902 0 0.13434 0.0553 0.05532 0.0553 0.05532 0.13433v0.91666h0.56896v-0.91666z"/>
   <path d="m20.197 117.74q-0.13829 0-0.26077-0.0514-0.11853-0.0514-0.20941-0.14224-0.09088-0.0909-0.14224-0.20941-0.05136-0.12249-0.05136-0.26078v-1.3434q0-0.13829 0.05136-0.25683 0.05137-0.12248 0.14224-0.21336 0.09088-0.0909 0.20941-0.14224 0.12248-0.0514 0.26077-0.0514 0.13829 0 0.25682 0.0514 0.12248 0.0514 0.21336 0.14224 0.09088 0.0909 0.14224 0.21336 0.05137 0.11854 0.05137 0.25683v1.3434q0 0.13829-0.05137 0.26078-0.05136 0.11853-0.14224 0.20941-0.09088 0.0909-0.21336 0.14224-0.11853 0.0514-0.25682 0.0514zm0-2.2916q-0.11853 0-0.20151 0.083-0.08297 0.083-0.08297 0.20151v1.3434q0 0.11854 0.08297 0.20151 0.08297 0.083 0.20151 0.083 0.11853 0 0.20151-0.083 0.08297-0.083 0.08297-0.20151v-1.3434q0-0.11854-0.08297-0.20151-0.08297-0.083-0.20151-0.083z"/>
   <path d="m21.208 115.27q0-0.079 0.05532-0.13434 0.05532-0.0553 0.13434-0.0553h0.47413q0.13829 0 0.25682 0.0514 0.12248 0.0514 0.21336 0.14224 0.09088 0.0909 0.14224 0.21336 0.05137 0.11853 0.05137 0.25682v0.22126q0 0.13829-0.05137 0.26078-0.05136 0.11853-0.14224 0.20941-0.09088 0.0909-0.21336 0.14224-0.11853 0.0514-0.25682 0.0514h-0.28448v0.91666q0 0.079-0.05532 0.13434-0.05532 0.0553-0.13434 0.0553-0.07902 0-0.13434-0.0553-0.05532-0.0553-0.05532-0.13434v-2.2758zm0.94827 0.47413q0-0.11853-0.08297-0.20151-0.08297-0.083-0.20151-0.083h-0.28448v0.79022h0.28448q0.11853 0 0.20151-0.083 0.08297-0.083 0.08297-0.20151v-0.22126z"/>
   <path d="m22.771 115.27q0-0.079 0.05532-0.13434 0.05532-0.0553 0.13434-0.0553h0.47413q0.13829 0 0.25682 0.0514 0.12248 0.0514 0.21336 0.14224 0.09088 0.0909 0.14224 0.21336 0.05137 0.11853 0.05137 0.25682v0.22126q0 0.13829-0.05137 0.26078-0.05136 0.11853-0.14224 0.20941-0.09088 0.0909-0.21336 0.14224-0.11853 0.0514-0.25682 0.0514h-0.28448v0.91666q0 0.079-0.05532 0.13434-0.05532 0.0553-0.13434 0.0553-0.07902 0-0.13434-0.0553-0.05532-0.0553-0.05532-0.13434v-2.2758zm0.94827 0.47413q0-0.11853-0.08297-0.20151-0.08297-0.083-0.20151-0.083h-0.28448v0.79022h0.28448q0.11853 0 0.20151-0.083 0.08297-0.083 0.08297-0.20151v-0.22126z"/>
   <path d="m18.568 120.82q-0.13829 0-0.26077-0.0514-0.11853-0.0514-0.20941-0.14224-0.09088-0.0909-0.14224-0.20941-0.05137-0.12248-0.05137-0.26077v-1.3434q0-0.13829 0.05137-0.25682 0.05136-0.12248 0.14224-0.21336 0.09088-0.0909 0.20941-0.14224 0.12248-0.0514 0.26077-0.0514t0.25682 0.0514q0.12248 0.0514 0.21336 0.14224 0.09088 0.0909 0.14224 0.21336 0.05136 0.11853 0.05136 0.25682v1.3434q0 0.13829-0.05136 0.26077-0.05137 0.11854-0.14224 0.20941-0.09088 0.0909-0.21336 0.14224-0.11853 0.0514-0.25682 0.0514zm0-2.2916q-0.11853 0-0.20151 0.083-0.08297 0.083-0.08297 0.2015v1.3434q0 0.11853 0.08297 0.20151 0.08297 0.083 0.20151 0.083 0.11853 0 0.20151-0.083 0.08297-0.083 0.08297-0.20151v-1.3434q0-0.11853-0.08297-0.2015-0.08297-0.083-0.20151-0.083z"/>
   <path d="m19.926 120.16q0 0.11853 0.08297 0.20151 0.08297 0.083 0.20151 0.083 0.11458 0 0.19756-0.083 0.08692-0.083 0.08692-0.20151v-1.8175q0-0.079 0.05532-0.13434 0.05532-0.0553 0.13434-0.0553 0.07902 0 0.13434 0.0553 0.05532 0.0553 0.05532 0.13434v1.8175q0 0.13829-0.05532 0.26077-0.05136 0.11854-0.14224 0.20941-0.08692 0.0909-0.20941 0.14224-0.12248 0.0514-0.25682 0.0514-0.13829 0-0.26077-0.0514-0.11853-0.0514-0.20941-0.14224-0.09088-0.0909-0.14224-0.20941-0.05136-0.12248-0.05136-0.26077v-1.8175q0-0.079 0.05532-0.13434 0.05531-0.0553 0.13434-0.0553 0.07902 0 0.13434 0.0553 0.05532 0.0553 0.05532 0.13434v1.8175z"/>
   <path d="m22.296 118.17q0.07902 0 0.13434 0.0553 0.05532 0.0553 0.05532 0.13433 0 0.079-0.05532 0.13434-0.05532 0.0553-0.13434 0.0553h-0.32399v2.0862q0 0.079-0.05532 0.13434-0.05532 0.0553-0.13434 0.0553-0.07902 0-0.13434-0.0553-0.05532-0.0553-0.05532-0.13434v-2.0862h-0.32398q-0.07902 0-0.13434-0.0553-0.05532-0.0553-0.05532-0.13434 0-0.079 0.05532-0.13433 0.05532-0.0553 0.13434-0.0553z"/>
  </g>
  <circle cx="13.171" cy="42.279" r=".61088" enable-background="new" stroke="#fff" stroke-linejoin="round" stroke-width=".45"/>
  <path d="m5.2223 97.866v-5.3516l5.0461-2.9643v-7.8258" enable-background="new" fill="none" stroke="#fff" stroke-width=".28222px"/>
  <g stroke-width=".28222">
   <text x="9.6957302" y="77.008667" enable-background="new" fill="#ffffff" font-family="Miso" font-size="3.3867px" font-stretch="condensed" font-weight="bold" letter-spacing="-.016933px" word-spacing="0px" style="line-height:0%" xml:space="preserve"><tspan x="9.6957302" y="77.008667" fill="#ffffff" font-size="2.8222px" stroke-width=".28222" style="line-height:1.25">0</tspan></text>
   <g enable-background="new" fill="#fff" aria-label="X-1">
    <path d="m3.916 90.06q-0.038382-0.02032-0.054187-0.06322-0.013547-0.0429 0.00677-0.08128l0.31384-0.62992-0.29125-0.58251q-0.02032-0.04064-0.00677-0.08354 0.015804-0.0429 0.054187-0.06322 0.04064-0.02032 0.083538-0.0045 0.042898 0.01355 0.063218 0.05419l0.219 0.43801 0.219-0.43801q0.02032-0.04064 0.063218-0.05419 0.042898-0.0158 0.08128 0.0045 0.04064 0.02032 0.054187 0.06322 0.015804 0.0429-0.00452 0.08354l-0.29125 0.58251 0.31383 0.62992q0.02032 0.03838 0.00452 0.08128-0.013547 0.0429-0.054187 0.06322-0.038382 0.02032-0.08128 0.0045-0.042898-0.01355-0.063218-0.05193l-0.24159-0.48541-0.24158 0.48542q-0.02032 0.03838-0.063218 0.05193-0.042898 0.0158-0.083538-0.0045z"/>
    <path d="m4.9625 89.484q-0.045156 0-0.076765-0.03161t-0.031609-0.07676q0-0.04516 0.031609-0.07677t0.076765-0.03161h0.54187q0.045156 0 0.076765 0.03161t0.031609 0.07677q0 0.04515-0.031609 0.07676t-0.076765 0.03161h-0.54187z"/>
    <path d="m6.0158 89.001q-0.031609 0.03161-0.076765 0.03161t-0.076764-0.03161q-0.031609-0.03161-0.031609-0.07676 0-0.04516 0.031609-0.07676l0.27093-0.27093q0.051929-0.05193 0.1174-0.02258 0.031609 0.01129 0.049671 0.04064 0.018062 0.02709 0.018062 0.0587v1.3095q0 0.04516-0.031609 0.07676-0.031609 0.03161-0.076765 0.03161t-0.076765-0.03161-0.031609-0.07676v-1.0476q-0.015805 0.01355-0.031609 0.02935-0.013547 0.0158-0.024836 0.02709-0.013547 0.01581-0.029351 0.02935z"/>
   </g>
   <g enable-background="new" fill="#fff" aria-label="X 1">
    <path d="m14.182 90.06q-0.03838-0.02032-0.05419-0.06322-0.01355-0.0429 0.0068-0.08128l0.31383-0.62992-0.29125-0.58251q-0.02032-0.04064-0.0068-0.08354 0.0158-0.0429 0.05419-0.06322 0.04064-0.02032 0.08354-0.0045 0.0429 0.01355 0.06322 0.05419l0.219 0.43801 0.219-0.43801q0.02032-0.04064 0.06322-0.05419 0.0429-0.0158 0.08128 0.0045 0.04064 0.02032 0.05419 0.06322 0.0158 0.0429-0.0045 0.08354l-0.29125 0.58251 0.31383 0.62992q0.02032 0.03838 0.0045 0.08128-0.01355 0.0429-0.05419 0.06322-0.03838 0.02032-0.08128 0.0045-0.0429-0.01355-0.06322-0.05193l-0.24158-0.48542-0.24158 0.48542q-0.02032 0.03838-0.06322 0.05193-0.0429 0.0158-0.08354-0.0045z"/>
    <path d="m15.776 89.001q-0.03161 0.03161-0.07676 0.03161-0.04516 0-0.07676-0.03161-0.03161-0.03161-0.03161-0.07676 0-0.04516 0.03161-0.07676l0.27093-0.27093q0.05193-0.05193 0.1174-0.02258 0.03161 0.01129 0.04967 0.04064 0.01806 0.02709 0.01806 0.0587v1.3095q0 0.04516-0.03161 0.07676-0.03161 0.03161-0.07676 0.03161-0.04516 0-0.07676-0.03161-0.03161-0.03161-0.03161-0.07676v-1.0476q-0.0158 0.01355-0.03161 0.02935-0.01355 0.0158-0.02483 0.02709-0.01355 0.01581-0.02935 0.02935z"/>
   </g>
   <text x="29.706154" y="77.008667" enable-background="new" fill="#ffffff" font-family="Miso" font-size="3.3867px" font-stretch="condensed" font-weight="bold" letter-spacing="-.016933px" word-spacing="0px" style="line-height:0%" xml:space="preserve"><tspan x="29.706154" y="77.008667" fill="#ffffff" font-size="2.8222px" stroke-width=".28222" style="line-height:1.25">0</tspan></text>
   <g enable-background="new" fill="#fff" aria-label="X-1">
    <path d="m24.018 90.06q-0.03838-0.02032-0.05419-0.06322-0.01355-0.0429 0.0068-0.08128l0.31383-0.62992-0.29125-0.58251q-0.02032-0.04064-0.0068-0.08354 0.0158-0.0429 0.05419-0.06322 0.04064-0.02032 0.08354-0.0045 0.0429 0.01355 0.06322 0.05419l0.219 0.43801 0.219-0.43801q0.02032-0.04064 0.06322-0.05419 0.0429-0.0158 0.08128 0.0045 0.04064 0.02032 0.05419 0.06322 0.0158 0.0429-0.0045 0.08354l-0.29125 0.58251 0.31383 0.62992q0.02032 0.03838 0.0045 0.08128-0.01355 0.0429-0.05419 0.06322-0.03838 0.02032-0.08128 0.0045-0.0429-0.01355-0.06322-0.05193l-0.24158-0.48542-0.24158 0.48542q-0.02032 0.03838-0.06322 0.05193-0.0429 0.0158-0.08354-0.0045z"/>
    <path d="m25.065 89.484q-0.04515 0-0.07676-0.03161t-0.03161-0.07676q0-0.04516 0.03161-0.07677t0.07676-0.03161h0.54187q0.04516 0 0.07677 0.03161t0.03161 0.07677q0 0.04515-0.03161 0.07676t-0.07677 0.03161h-0.54187z"/>
    <path d="m26.118 89.001q-0.03161 0.03161-0.07676 0.03161-0.04516 0-0.07677-0.03161t-0.03161-0.07676q0-0.04516 0.03161-0.07676l0.27093-0.27093q0.05193-0.05193 0.1174-0.02258 0.03161 0.01129 0.04967 0.04064 0.01806 0.02709 0.01806 0.0587v1.3095q0 0.04516-0.03161 0.07676-0.03161 0.03161-0.07676 0.03161-0.04516 0-0.07676-0.03161-0.03161-0.03161-0.03161-0.07676v-1.0476q-0.01581 0.01355-0.03161 0.02935-0.01355 0.0158-0.02484 0.02709-0.01355 0.01581-0.02935 0.02935z"/>
   </g>
   <g enable-background="new" fill="#fff" aria-label="X 1">
    <path d="m34.284 90.06q-0.03838-0.02032-0.05419-0.06322-0.01355-0.0429 0.0068-0.08128l0.31383-0.62992-0.29125-0.58251q-0.02032-0.04064-0.0068-0.08354 0.0158-0.0429 0.05419-0.06322 0.04064-0.02032 0.08354-0.0045 0.0429 0.01355 0.06322 0.05419l0.219 0.43801 0.219-0.43801q0.02032-0.04064 0.06322-0.05419 0.0429-0.0158 0.08128 0.0045 0.04064 0.02032 0.05419 0.06322 0.01581 0.0429-0.0045 0.08354l-0.29125 0.58251 0.31383 0.62992q0.02032 0.03838 0.0045 0.08128-0.01355 0.0429-0.05419 0.06322-0.03838 0.02032-0.08128 0.0045-0.0429-0.01355-0.06322-0.05193l-0.24158-0.48542-0.24158 0.48542q-0.02032 0.03838-0.06322 0.05193-0.0429 0.0158-0.08354-0.0045z"/>
    <path d="m35.878 89.001q-0.03161 0.03161-0.07676 0.03161-0.04516 0-0.07677-0.03161t-0.03161-0.07676q0-0.04516 0.03161-0.07676l0.27093-0.27093q0.05193-0.05193 0.1174-0.02258 0.03161 0.01129 0.04967 0.04064 0.01806 0.02709 0.01806 0.0587v1.3095q0 0.04516-0.03161 0.07676-0.03161 0.03161-0.07677 0.03161t-0.07676-0.03161q-0.03161-0.03161-0.03161-0.07676v-1.0476q-0.01581 0.01355-0.03161 0.02935-0.01355 0.0158-0.02484 0.02709-0.01355 0.01581-0.02935 0.02935z"/>
   </g>
  </g>
  <g transform="matrix(.21926 0 0 .21926 -34.946 15.834)" enable-background="new">
   <g transform="matrix(.10651 0 0 .10651 205.15 467.13)" fill="#fff">
    <g fill="#fff">
     <polygon points="571.69 289.29 606.32 289.29 606.32 298.07 640.94 298.07 640.94 259.06 537.07 259.06 537.07 362.93 640.94 362.93 640.94 328.3 606.32 328.3 571.69 328.3 571.69 305.22"/>
     <path d="m415.82 300.99v61.936h34.56v-30.232h34.625v30.232h34.688v-103.87h-61.938zm69.206 10-34.668-2e-3 34.668-31.582z"/>
     <path d="m104.15 259.06v-17.561h-34.668l0.156 121.43h103.87v-103.87zm51.598 56.566h-17.33v15.064h-9.383v-15.064h-3.296l-21.749 15.064v-15.064h-17.041v-8.779h17.041v-15.063l21.748 15.063h3.297v-15.063h9.383v15.063h17.33z"/>
     <path d="m658.25 259.06v103.87h103.87v-103.87zm69.123 69.248h-34.624v-34.623h34.624z"/>
     <polygon points="294.7 362.93 294.7 332.7 272.37 311.11 294.7 289.29 294.7 259.06 190.82 259.06 190.82 289.29 253.52 289.29 231.13 310.99 254.39 332.7 190.82 332.7 190.82 362.93"/>
     <polygon points="312.34 332.86 312.34 363.05 355.54 363.29 355.54 332.56 375.97 311.11 355.54 289.27 405.68 289.41 436.56 259.18 312.34 259.18 312.34 289.41 333.84 311.11"/>
    </g>
   </g>
  </g>
 </g>
 <g display="none" fill-rule="evenodd">
  <circle cx="5.2092" cy="98.499" r="2" display="inline" fill="#0f0" style="paint-order:normal"/>
  <circle cx="15.259" cy="98.499" r="2" display="inline" fill="#0f0" style="paint-order:normal"/>
  <g fill="#00f">
   <circle cx="9.5887" cy="110.78" r="2" display="inline" style="paint-order:normal"/>
   <circle cx="31.091" cy="110.75" r="2" display="inline" style="paint-order:normal"/>
   <circle cx="20.23" cy="109.67" r="2" display="inline" style="paint-order:normal"/>
  </g>
  <g fill="#0f0">
   <circle cx="6.1269" cy="27.843" r="2" display="inline" style="paint-order:normal"/>
   <circle cx="6.1044" cy="56.382" r="2" display="inline" style="paint-order:normal"/>
   <circle cx="26.057" cy="42.228" r="2" display="inline" style="paint-order:normal"/>
  </g>
  <g fill="#f00" fill-opacity=".50196">
   <circle cx="26.051" cy="21.999" r="2" display="inline" style="paint-order:normal"/>
   <circle cx="26.051" cy="62.768" r="2" display="inline" style="paint-order:normal"/>
   <circle cx="10.266" cy="83.297" r="2" display="inline" style="paint-order:normal"/>
   <circle cx="30.277" cy="83.297" r="2" display="inline" style="paint-order:normal"/>
  </g>
  <circle cx="25.308" cy="98.499" r="2" display="inline" fill="#0f0" style="paint-order:normal"/>
  <circle cx="35.358" cy="98.499" r="2" display="inline" fill="#0f0" style="paint-order:normal"/>
  <circle cx="26.057" cy="33.307" r=".91254" display="inline" fill="#f0f" fill-opacity=".50196" style="paint-order:normal"/>
  <circle cx="26.057" cy="51.53" r=".91254" display="inline" fill="#f0f" fill-opacity=".50196" style="paint-order:normal"/>
 </g>
</svg>
