<?xml version="1.0" encoding="UTF-8"?>
<!-- Created with Inkscape (http://www.inkscape.org/) -->
<svg width="75" height="380" version="1.1" xmlns="http://www.w3.org/2000/svg" xmlns:cc="http://creativecommons.org/ns#" xmlns:dc="http://purl.org/dc/elements/1.1/" xmlns:rdf="http://www.w3.org/1999/02/22-rdf-syntax-ns#">
 <metadata>
  <rdf:RDF>
   <cc:Work rdf:about="">
    <dc:format>image/svg+xml</dc:format>
    <dc:type rdf:resource="http://purl.org/dc/dcmitype/StillImage"/>
   </cc:Work>
  </rdf:RDF>
 </metadata>
 <g transform="translate(.0078735 -75.456)">
  <g transform="matrix(.84656 0 0 .83459 -.0012081 75.336)" stroke-width="1.1897">
   <rect x="-.0078735" y=".14385" width="88.594" height="455.31" fill="#171717" style="paint-order:normal"/>
   <g fill="#fff">
    <path d="m17.435 91.238c-0.07-0.29423-0.336-0.49038-0.644-0.49038s-0.574 0.19615-0.644 0.49038l-2.24 8.1263c-0.098 0.36428 0.112 0.72857 0.462 0.82665 0.364 0.0981 0.728-0.11209 0.826-0.46236 0 0 0.168-0.60247 0.406-1.4711h2.38c0.238 0.86868 0.406 1.4711 0.406 1.4711 0.098 0.35027 0.462 0.56043 0.826 0.46236 0.35-0.0981 0.56-0.46236 0.462-0.82665l-2.24-8.1263m-1.456 5.6744c0.266-0.96675 0.56-2.0456 0.812-2.9563 0.252 0.91071 0.546 1.9896 0.812 2.9563h-1.624"/>
    <path d="m19.879 90.804c-0.364 0-0.672 0.30824-0.672 0.67252 0 0.37829 0.308 0.67252 0.672 0.67252h1.148v7.3978c0 0.37829 0.308 0.67252 0.672 0.67252 0.378 0 0.672-0.29423 0.672-0.67252v-7.3978h1.148c0.378 0 0.672-0.29423 0.672-0.67252 0-0.36428-0.294-0.67252-0.672-0.67252h-3.64"/>
    <path d="m25.039 91.476v8.0142c0 0.37829 0.308 0.67252 0.672 0.67252h2.8c0.378 0 0.672-0.29422 0.672-0.67252 0-0.36428-0.294-0.67252-0.672-0.67252h-2.128v-2.8022h1.848c0.378 0 0.672-0.29423 0.672-0.67252 0-0.36428-0.294-0.67252-0.672-0.67252h-1.848v-2.522h2.128c0.378 0 0.672-0.29423 0.672-0.67252 0-0.36428-0.294-0.67252-0.672-0.67252h-2.8c-0.364 0-0.672 0.30824-0.672 0.67252"/>
    <path d="m34.865 100.21c0.294-0.0701 0.518-0.35028 0.518-0.65852v-8.1263c0-0.36428-0.308-0.67252-0.672-0.67252-0.378 0-0.672 0.30824-0.672 0.67252v5.184c-1.162-2.4099-2.646-5.4783-2.646-5.4783-0.14-0.28022-0.448-0.43434-0.756-0.36428-0.308 0.07006-0.518 0.35027-0.518 0.65851v8.1263c0 0.37829 0.294 0.67252 0.672 0.67252 0.364 0 0.672-0.29423 0.672-0.67252v-5.184c1.162 2.4099 2.646 5.4783 2.646 5.4783 0.126 0.28022 0.448 0.43434 0.756 0.36429"/>
    <path d="m38.018 97.865v-6.445c0-0.36428-0.308-0.67252-0.672-0.67252-0.378 0-0.672 0.30824-0.672 0.67252v6.445c0 1.303 1.05 2.3538 2.352 2.3538 1.288 0 2.352-1.0508 2.352-2.3538v-6.445c0-0.36428-0.308-0.67252-0.672-0.67252-0.378 0-0.672 0.30824-0.672 0.67252v6.445c0 0.56044-0.462 1.0088-1.008 1.0088-0.56 0-1.008-0.44835-1.008-1.0088"/>
    <path d="m44.423 99.729c0.084 0.29422 0.35 0.49038 0.658 0.49038 0.294 0 0.56-0.19616 0.644-0.49038l2.24-8.1263c0.098-0.36428-0.112-0.72857-0.476-0.82664-0.35-0.09808-0.728 0.11209-0.826 0.46236 0 0-0.938 3.4047-1.582 5.7865-0.658-2.3819-1.596-5.7865-1.596-5.7865-0.098-0.35027-0.476-0.56044-0.826-0.46236-0.364 0.09808-0.574 0.46236-0.476 0.82664l2.24 8.1263"/>
    <path d="m48.861 91.476v8.0142c0 0.37829 0.308 0.67252 0.672 0.67252h2.8c0.378 0 0.672-0.29422 0.672-0.67252 0-0.36428-0.294-0.67252-0.672-0.67252h-2.128v-2.8022h1.848c0.378 0 0.672-0.29423 0.672-0.67252 0-0.36428-0.294-0.67252-0.672-0.67252h-1.848v-2.522h2.128c0.378 0 0.672-0.29423 0.672-0.67252 0-0.36428-0.294-0.67252-0.672-0.67252h-2.8c-0.364 0-0.672 0.30824-0.672 0.67252"/>
    <path d="m58.646 93.942v-0.78461c0-1.303-1.05-2.3538-2.352-2.3538h-1.68c-0.364 0-0.672 0.30824-0.672 0.67252v8.0703c0 0.37829 0.308 0.67252 0.672 0.67252 0.378 0 0.672-0.29423 0.672-0.67252v-3.2505h0.756l1.302 3.4887c0.14 0.35027 0.518 0.5184 0.868 0.39231 0.35-0.1261 0.532-0.51841 0.392-0.86868l-1.218-3.2786c0.756-0.39231 1.26-1.1769 1.26-2.0876m-3.36-1.7934h1.008c0.56 0 1.008 0.44835 1.008 1.0088v0.78461c0 0.56044-0.448 1.0088-1.008 1.0088h-1.008v-2.8022"/>
    <path d="m59.681 90.804c-0.364 0-0.672 0.30824-0.672 0.67252 0 0.37829 0.308 0.67252 0.672 0.67252h1.148v7.3978c0 0.37829 0.308 0.67252 0.672 0.67252 0.378 0 0.672-0.29423 0.672-0.67252v-7.3978h1.148c0.378 0 0.672-0.29423 0.672-0.67252 0-0.36428-0.294-0.67252-0.672-0.67252h-3.64"/>
    <path d="m64.841 91.476v8.0142c0 0.37829 0.308 0.67252 0.672 0.67252h2.8c0.378 0 0.672-0.29422 0.672-0.67252 0-0.36428-0.294-0.67252-0.672-0.67252h-2.128v-2.8022h1.848c0.378 0 0.672-0.29423 0.672-0.67252 0-0.36428-0.294-0.67252-0.672-0.67252h-1.848v-2.522h2.128c0.378 0 0.672-0.29423 0.672-0.67252 0-0.36428-0.294-0.67252-0.672-0.67252h-2.8c-0.364 0-0.672 0.30824-0.672 0.67252"/>
    <path d="m74.626 93.942v-0.78461c0-1.303-1.05-2.3538-2.352-2.3538h-1.68c-0.364 0-0.672 0.30824-0.672 0.67252v8.0703c0 0.37829 0.308 0.67252 0.672 0.67252 0.378 0 0.672-0.29423 0.672-0.67252v-3.2505h0.756l1.302 3.4887c0.14 0.35027 0.518 0.5184 0.868 0.39231 0.35-0.1261 0.532-0.51841 0.392-0.86868l-1.218-3.2786c0.756-0.39231 1.26-1.1769 1.26-2.0876m-3.36-1.7934h1.008c0.56 0 1.008 0.44835 1.008 1.0088v0.78461c0 0.56044-0.448 1.0088-1.008 1.0088h-1.008v-2.8022"/>
    <path d="m31.743 165.34c1.302 0 2.352-1.0508 2.352-2.3538v-4.7637c0-1.303-1.05-2.3538-2.352-2.3538-1.302 0-2.352 1.0508-2.352 2.3538v4.7637c0 1.303 1.05 2.3538 2.352 2.3538m0-8.1263c0.56 0 1.008 0.44834 1.008 1.0088v4.7637c0 0.56044-0.448 1.0088-1.008 1.0088-0.56 0-1.008-0.44835-1.008-1.0088v-4.7637c0-0.56044 0.448-1.0088 1.008-1.0088"/>
    <path d="m35.995 165.28c0.378 0 0.672-0.29423 0.672-0.67252v-3.4747h1.848c0.378 0 0.672-0.29423 0.672-0.67252 0-0.36429-0.294-0.67253-0.672-0.67253h-1.848v-2.522h2.128c0.378 0 0.672-0.29423 0.672-0.67253 0-0.36428-0.294-0.67252-0.672-0.67252h-2.8c-0.364 0-0.672 0.30824-0.672 0.67252v8.0142c0 0.37829 0.308 0.67252 0.672 0.67252"/>
    <path d="m40.966 165.28c0.378 0 0.672-0.29423 0.672-0.67252v-3.4747h1.848c0.378 0 0.672-0.29423 0.672-0.67252 0-0.36429-0.294-0.67253-0.672-0.67253h-1.848v-2.522h2.128c0.378 0 0.672-0.29423 0.672-0.67253 0-0.36428-0.294-0.67252-0.672-0.67252h-2.8c-0.364 0-0.672 0.30824-0.672 0.67252v8.0142c0 0.37829 0.308 0.67252 0.672 0.67252"/>
    <path d="m47.771 163.77c-0.252 0.19616-0.56 0.26621-0.868 0.21017-0.308-0.0701-0.56-0.2522-0.714-0.51841-0.196-0.32225-0.602-0.43434-0.924-0.25219-0.322 0.18214-0.434 0.60247-0.238 0.92472 0.336 0.58846 0.924 1.0228 1.61 1.1629 0.686 0.1261 1.386-0.028 1.946-0.44835 0.546-0.42032 0.896-1.0508 0.952-1.7514 0.056-0.68654-0.196-1.3731-0.686-1.8775l-2.226-2.2978c-0.21-0.21017-0.308-0.49039-0.28-0.7706 0.014-0.29423 0.154-0.56044 0.392-0.72857 0.238-0.18214 0.518-0.2522 0.812-0.19615 0.28 0.0701 0.518 0.23818 0.672 0.49038 0.182 0.32225 0.588 0.43434 0.91 0.25219 0.322-0.19615 0.434-0.60246 0.252-0.92472-0.336-0.58845-0.91-0.99477-1.568-1.1349-0.658-0.1261-1.358 0.028-1.89 0.43434-0.532 0.40632-0.868 1.0228-0.924 1.6953s0.182 1.345 0.658 1.8214l2.24 2.2978c0.21 0.22417 0.322 0.53241 0.294 0.84065s-0.168 0.58846-0.42 0.7706"/>
    <path d="m50.565 156.59v8.0142c0 0.37829 0.308 0.67252 0.672 0.67252h2.8c0.378 0 0.672-0.29423 0.672-0.67252 0-0.36429-0.294-0.67253-0.672-0.67253h-2.128v-2.8022h1.848c0.378 0 0.672-0.29423 0.672-0.67252 0-0.36429-0.294-0.67253-0.672-0.67253h-1.848v-2.522h2.128c0.378 0 0.672-0.29423 0.672-0.67253 0-0.36428-0.294-0.67252-0.672-0.67252h-2.8c-0.364 0-0.672 0.30824-0.672 0.67252"/>
    <path d="m55.757 155.92c-0.364 0-0.672 0.30824-0.672 0.67252 0 0.3783 0.308 0.67253 0.672 0.67253h1.148v7.3978c0 0.3783 0.308 0.67253 0.672 0.67253 0.378 0 0.672-0.29423 0.672-0.67253v-7.3978h1.148c0.378 0 0.672-0.29423 0.672-0.67253 0-0.36428-0.294-0.67252-0.672-0.67252h-3.64"/>
    <path d="m20.042 226.6c0.378 0 0.672-0.29423 0.672-0.67252v-8.1263c0-0.36429-0.294-0.67253-0.672-0.67253-0.364 0-0.672 0.30824-0.672 0.67253v8.1263c0 0.37829 0.308 0.67252 0.672 0.67252"/>
    <path d="m26.845 226.59c0.294-0.0701 0.518-0.35027 0.518-0.65851v-8.1263c0-0.36429-0.308-0.67253-0.672-0.67253-0.378 0-0.672 0.30824-0.672 0.67253v5.184c-1.162-2.4099-2.646-5.4783-2.646-5.4783-0.14-0.28022-0.448-0.43434-0.756-0.36429-0.308 0.0701-0.518 0.35028-0.518 0.65852v8.1263c0 0.37829 0.294 0.67252 0.672 0.67252 0.364 0 0.672-0.29423 0.672-0.67252v-5.184c1.162 2.4099 2.646 5.4783 2.646 5.4783 0.126 0.28022 0.448 0.43434 0.756 0.36428"/>
    <path d="m61.034 226.6c1.302 0 2.352-1.0508 2.352-2.3538v-4.7637c0-1.303-1.05-2.3538-2.352-2.3538s-2.352 1.0508-2.352 2.3538v4.7637c0 1.303 1.05 2.3538 2.352 2.3538m0-8.1263c0.56 0 1.008 0.44835 1.008 1.0088v4.7637c0 0.56043-0.448 1.0088-1.008 1.0088-0.56 0-1.008-0.44835-1.008-1.0088v-4.7637c0-0.56044 0.448-1.0088 1.008-1.0088"/>
    <path d="m65.846 224.25v-6.445c0-0.36429-0.308-0.67253-0.672-0.67253-0.378 0-0.672 0.30824-0.672 0.67253v6.445c0 1.303 1.05 2.3538 2.352 2.3538 1.288 0 2.352-1.0508 2.352-2.3538v-6.445c0-0.36429-0.308-0.67253-0.672-0.67253-0.378 0-0.672 0.30824-0.672 0.67253v6.445c0 0.56043-0.462 1.0088-1.008 1.0088-0.56 0-1.008-0.44835-1.008-1.0088"/>
    <path d="m70.6 217.18c-0.364 0-0.672 0.30824-0.672 0.67252 0 0.3783 0.308 0.67252 0.672 0.67252h1.148v7.3978c0 0.37829 0.308 0.67252 0.672 0.67252 0.378 0 0.672-0.29423 0.672-0.67252v-7.3978h1.148c0.378 0 0.672-0.29422 0.672-0.67252 0-0.36428-0.294-0.67252-0.672-0.67252h-3.64"/>
    <path d="m17.436 292.46c-0.07-0.29423-0.336-0.49039-0.644-0.49039s-0.574 0.19616-0.644 0.49039l-2.24 8.1263c-0.098 0.36428 0.112 0.72856 0.462 0.82664 0.364 0.0981 0.728-0.11209 0.826-0.46236 0 0 0.168-0.60247 0.406-1.4712h2.38c0.238 0.86868 0.406 1.4712 0.406 1.4712 0.098 0.35027 0.462 0.56044 0.826 0.46236 0.35-0.0981 0.56-0.46236 0.462-0.82664l-2.24-8.1263m-1.456 5.6744c0.266-0.96676 0.56-2.0456 0.812-2.9563 0.252 0.91071 0.546 1.9896 0.812 2.9563h-1.624"/>
    <path d="m19.88 292.02c-0.364 0-0.672 0.30824-0.672 0.67252 0 0.3783 0.308 0.67253 0.672 0.67253h1.148v7.3978c0 0.37829 0.308 0.67252 0.672 0.67252 0.378 0 0.672-0.29423 0.672-0.67252v-7.3978h1.148c0.378 0 0.672-0.29423 0.672-0.67253 0-0.36428-0.294-0.67252-0.672-0.67252h-3.64"/>
    <path d="m25.04 292.7v8.0142c0 0.37829 0.308 0.67252 0.672 0.67252h2.8c0.378 0 0.672-0.29423 0.672-0.67252 0-0.36429-0.294-0.67253-0.672-0.67253h-2.128v-2.8022h1.848c0.378 0 0.672-0.29423 0.672-0.67253 0-0.36428-0.294-0.67252-0.672-0.67252h-1.848v-2.522h2.128c0.378 0 0.672-0.29423 0.672-0.67253 0-0.36428-0.294-0.67252-0.672-0.67252h-2.8c-0.364 0-0.672 0.30824-0.672 0.67252"/>
    <path d="m34.866 301.43c0.294-0.07 0.518-0.35027 0.518-0.65851v-8.1263c0-0.36429-0.308-0.67253-0.672-0.67253-0.378 0-0.672 0.30824-0.672 0.67253v5.184c-1.162-2.4099-2.646-5.4783-2.646-5.4783-0.14-0.28022-0.448-0.43434-0.756-0.36428-0.308 0.0701-0.518 0.35027-0.518 0.65851v8.1263c0 0.37829 0.294 0.67252 0.672 0.67252 0.364 0 0.672-0.29423 0.672-0.67252v-5.184c1.162 2.4099 2.646 5.4783 2.646 5.4783 0.126 0.28022 0.448 0.43434 0.756 0.36428"/>
    <path d="m38.019 299.09v-6.445c0-0.36429-0.308-0.67253-0.672-0.67253-0.378 0-0.672 0.30824-0.672 0.67253v6.445c0 1.303 1.05 2.3538 2.352 2.3538 1.288 0 2.352-1.0508 2.352-2.3538v-6.445c0-0.36429-0.308-0.67253-0.672-0.67253-0.378 0-0.672 0.30824-0.672 0.67253v6.445c0 0.56044-0.462 1.0088-1.008 1.0088-0.56 0-1.008-0.44835-1.008-1.0088"/>
    <path d="m44.425 300.95c0.084 0.29423 0.35 0.49038 0.658 0.49038 0.294 0 0.56-0.19615 0.644-0.49038l2.24-8.1263c0.098-0.36428-0.112-0.72857-0.476-0.82664-0.35-0.0981-0.728 0.11208-0.826 0.46236 0 0-0.938 3.4046-1.582 5.7865-0.658-2.3818-1.596-5.7865-1.596-5.7865-0.098-0.35028-0.476-0.56044-0.826-0.46236-0.364 0.0981-0.574 0.46236-0.476 0.82664l2.24 8.1263"/>
    <path d="m48.862 292.7v8.0142c0 0.37829 0.308 0.67252 0.672 0.67252h2.8c0.378 0 0.672-0.29423 0.672-0.67252 0-0.36429-0.294-0.67253-0.672-0.67253h-2.128v-2.8022h1.848c0.378 0 0.672-0.29423 0.672-0.67253 0-0.36428-0.294-0.67252-0.672-0.67252h-1.848v-2.522h2.128c0.378 0 0.672-0.29423 0.672-0.67253 0-0.36428-0.294-0.67252-0.672-0.67252h-2.8c-0.364 0-0.672 0.30824-0.672 0.67252"/>
    <path d="m58.647 295.16v-0.78461c0-1.303-1.05-2.3538-2.352-2.3538h-1.68c-0.364 0-0.672 0.30824-0.672 0.67252v8.0703c0 0.37829 0.308 0.67252 0.672 0.67252 0.378 0 0.672-0.29423 0.672-0.67252v-3.2505h0.756l1.302 3.4887c0.14 0.35028 0.518 0.51841 0.868 0.39231 0.35-0.1261 0.532-0.5184 0.392-0.86868l-1.218-3.2786c0.756-0.39231 1.26-1.1769 1.26-2.0876m-3.36-1.7934h1.008c0.56 0 1.008 0.44835 1.008 1.0088v0.78461c0 0.56044-0.448 1.0088-1.008 1.0088h-1.008v-2.8022"/>
    <path d="m59.682 292.02c-0.364 0-0.672 0.30824-0.672 0.67252 0 0.3783 0.308 0.67253 0.672 0.67253h1.148v7.3978c0 0.37829 0.308 0.67252 0.672 0.67252 0.378 0 0.672-0.29423 0.672-0.67252v-7.3978h1.148c0.378 0 0.672-0.29423 0.672-0.67253 0-0.36428-0.294-0.67252-0.672-0.67252h-3.64"/>
    <path d="m64.842 292.7v8.0142c0 0.37829 0.308 0.67252 0.672 0.67252h2.8c0.378 0 0.672-0.29423 0.672-0.67252 0-0.36429-0.294-0.67253-0.672-0.67253h-2.128v-2.8022h1.848c0.378 0 0.672-0.29423 0.672-0.67253 0-0.36428-0.294-0.67252-0.672-0.67252h-1.848v-2.522h2.128c0.378 0 0.672-0.29423 0.672-0.67253 0-0.36428-0.294-0.67252-0.672-0.67252h-2.8c-0.364 0-0.672 0.30824-0.672 0.67252"/>
    <path d="m74.627 295.16v-0.78461c0-1.303-1.05-2.3538-2.352-2.3538h-1.68c-0.364 0-0.672 0.30824-0.672 0.67252v8.0703c0 0.37829 0.308 0.67252 0.672 0.67252 0.378 0 0.672-0.29423 0.672-0.67252v-3.2505h0.756l1.302 3.4887c0.14 0.35028 0.518 0.51841 0.868 0.39231 0.35-0.1261 0.532-0.5184 0.392-0.86868l-1.218-3.2786c0.756-0.39231 1.26-1.1769 1.26-2.0876m-3.36-1.7934h1.008c0.56 0 1.008 0.44835 1.008 1.0088v0.78461c0 0.56044-0.448 1.0088-1.008 1.0088h-1.008v-2.8022"/>
    <path d="m31.743 367.49c1.302 0 2.352-1.0508 2.352-2.3538v-4.7637c0-1.303-1.05-2.3538-2.352-2.3538-1.302 0-2.352 1.0508-2.352 2.3538v4.7637c0 1.303 1.05 2.3538 2.352 2.3538m0-8.1263c0.56 0 1.008 0.44835 1.008 1.0088v4.7637c0 0.56044-0.448 1.0088-1.008 1.0088-0.56 0-1.008-0.44835-1.008-1.0088v-4.7637c0-0.56044 0.448-1.0088 1.008-1.0088"/>
    <path d="m35.995 367.44c0.378 0 0.672-0.29423 0.672-0.67252v-3.4747h1.848c0.378 0 0.672-0.29423 0.672-0.67252 0-0.36429-0.294-0.67253-0.672-0.67253h-1.848v-2.522h2.128c0.378 0 0.672-0.29423 0.672-0.67253 0-0.36428-0.294-0.67252-0.672-0.67252h-2.8c-0.364 0-0.672 0.30824-0.672 0.67252v8.0142c0 0.37829 0.308 0.67252 0.672 0.67252"/>
    <path d="m40.966 367.44c0.378 0 0.672-0.29423 0.672-0.67252v-3.4747h1.848c0.378 0 0.672-0.29423 0.672-0.67252 0-0.36429-0.294-0.67253-0.672-0.67253h-1.848v-2.522h2.128c0.378 0 0.672-0.29423 0.672-0.67253 0-0.36428-0.294-0.67252-0.672-0.67252h-2.8c-0.364 0-0.672 0.30824-0.672 0.67252v8.0142c0 0.37829 0.308 0.67252 0.672 0.67252"/>
    <path d="m47.771 365.93c-0.252 0.19616-0.56 0.26621-0.868 0.21017-0.308-0.0701-0.56-0.2522-0.714-0.51841-0.196-0.32225-0.602-0.43434-0.924-0.25219-0.322 0.18214-0.434 0.60246-0.238 0.92472 0.336 0.58845 0.924 1.0228 1.61 1.1629 0.686 0.1261 1.386-0.028 1.946-0.44835 0.546-0.42032 0.896-1.0508 0.952-1.7514 0.056-0.68654-0.196-1.3731-0.686-1.8775l-2.226-2.2978c-0.21-0.21017-0.308-0.49039-0.28-0.7706 0.014-0.29423 0.154-0.56044 0.392-0.72857 0.238-0.18214 0.518-0.2522 0.812-0.19615 0.28 0.07 0.518 0.23818 0.672 0.49038 0.182 0.32225 0.588 0.43434 0.91 0.25219 0.322-0.19615 0.434-0.60247 0.252-0.92472-0.336-0.58846-0.91-0.99477-1.568-1.1349-0.658-0.1261-1.358 0.028-1.89 0.43434-0.532 0.40631-0.868 1.0228-0.924 1.6953-0.056 0.67252 0.182 1.345 0.658 1.8214l2.24 2.2978c0.21 0.22417 0.322 0.53241 0.294 0.84065s-0.168 0.58846-0.42 0.7706"/>
    <path d="m50.565 358.75v8.0142c0 0.37829 0.308 0.67252 0.672 0.67252h2.8c0.378 0 0.672-0.29423 0.672-0.67252 0-0.36429-0.294-0.67253-0.672-0.67253h-2.128v-2.8022h1.848c0.378 0 0.672-0.29423 0.672-0.67252 0-0.36429-0.294-0.67253-0.672-0.67253h-1.848v-2.522h2.128c0.378 0 0.672-0.29423 0.672-0.67253 0-0.36428-0.294-0.67252-0.672-0.67252h-2.8c-0.364 0-0.672 0.30824-0.672 0.67252"/>
    <path d="m55.757 358.08c-0.364 0-0.672 0.30824-0.672 0.67252 0 0.3783 0.308 0.67253 0.672 0.67253h1.148v7.3978c0 0.3783 0.308 0.67252 0.672 0.67252 0.378 0 0.672-0.29422 0.672-0.67252v-7.3978h1.148c0.378 0 0.672-0.29423 0.672-0.67253 0-0.36428-0.294-0.67252-0.672-0.67252h-3.64"/>
    <path d="m20.042 426.53c0.378 0 0.672-0.29423 0.672-0.67253v-8.1263c0-0.36428-0.294-0.67252-0.672-0.67252-0.364 0-0.672 0.30824-0.672 0.67252v8.1263c0 0.3783 0.308 0.67253 0.672 0.67253"/>
    <path d="m26.845 426.52c0.294-0.0701 0.518-0.35028 0.518-0.65852v-8.1263c0-0.36428-0.308-0.67252-0.672-0.67252-0.378 0-0.672 0.30824-0.672 0.67252v5.184c-1.162-2.4099-2.646-5.4783-2.646-5.4783-0.14-0.28021-0.448-0.43433-0.756-0.36428-0.308 0.0701-0.518 0.35027-0.518 0.65851v8.1263c0 0.3783 0.294 0.67253 0.672 0.67253 0.364 0 0.672-0.29423 0.672-0.67253v-5.184c1.162 2.4099 2.646 5.4783 2.646 5.4783 0.126 0.28022 0.448 0.43434 0.756 0.36429"/>
    <path d="m61.034 426.53c1.302 0 2.352-1.0508 2.352-2.3538v-4.7637c0-1.303-1.05-2.3538-2.352-2.3538s-2.352 1.0508-2.352 2.3538v4.7637c0 1.303 1.05 2.3538 2.352 2.3538m0-8.1263c0.56 0 1.008 0.44835 1.008 1.0088v4.7637c0 0.56044-0.448 1.0088-1.008 1.0088-0.56 0-1.008-0.44835-1.008-1.0088v-4.7637c0-0.56043 0.448-1.0088 1.008-1.0088"/>
    <path d="m65.846 424.18v-6.445c0-0.36428-0.308-0.67252-0.672-0.67252-0.378 0-0.672 0.30824-0.672 0.67252v6.445c0 1.303 1.05 2.3538 2.352 2.3538 1.288 0 2.352-1.0508 2.352-2.3538v-6.445c0-0.36428-0.308-0.67252-0.672-0.67252-0.378 0-0.672 0.30824-0.672 0.67252v6.445c0 0.56044-0.462 1.0088-1.008 1.0088-0.56 0-1.008-0.44835-1.008-1.0088"/>
    <path d="m70.6 417.12c-0.364 0-0.672 0.30824-0.672 0.67253 0 0.37829 0.308 0.67252 0.672 0.67252h1.148v7.3978c0 0.3783 0.308 0.67253 0.672 0.67253 0.378 0 0.672-0.29423 0.672-0.67253v-7.3978h1.148c0.378 0 0.672-0.29423 0.672-0.67252 0-0.36429-0.294-0.67253-0.672-0.67253h-3.64"/>
    <path d="m10.613 230.4h67.314" stroke="#fff" stroke-linecap="round" stroke-width=".84309"/>
    <g>
     <path d="m19.186 331.46c0.76244 0.44023 1.0237 1.4153 0.58352 2.1778-0.44027 0.76251-1.4154 1.0238-2.1778 0.58352-0.76254-0.4402-1.0238-1.4152-0.58352-2.1777 0.44016-0.76248 1.4153-1.0238 2.1778-0.58354" enable-background="new"/>
     <path d="m70.844 331.46c0.76243 0.44023 1.0237 1.4153 0.58352 2.1778-0.44027 0.76251-1.4154 1.0238-2.1778 0.58352-0.76254-0.4402-1.0238-1.4152-0.58352-2.1777 0.44016-0.76248 1.4153-1.0238 2.1778-0.58354" enable-background="new"/>
     <path d="m19.681 337.99c0.8503 0.22787 1.355 1.102 1.1272 1.9523-0.22791 0.85039-1.1021 1.3551-1.9524 1.1272-0.85043-0.22784-1.3551-1.102-1.1272-1.9523 0.2278-0.85035 1.1019-1.3551 1.9524-1.1272" enable-background="new"/>
     <path d="m69.579 324.62c0.8503 0.22788 1.355 1.102 1.1272 1.9523-0.22791 0.85041-1.1021 1.3551-1.9524 1.1272-0.85043-0.22785-1.3551-1.102-1.1272-1.9524 0.22778-0.85034 1.1019-1.355 1.9524-1.1272" enable-background="new"/>
     <path d="m21.849 344.16c0.88053 5e-5 1.5944 0.71394 1.5945 1.5945-4.3e-5 0.88062-0.71396 1.5946-1.5945 1.5945-0.88062 3e-5 -1.5945-0.71386-1.5945-1.5945-4.3e-5 -0.88054 0.71388-1.5945 1.5945-1.5945" enable-background="new"/>
     <path d="m66.586 318.33c0.88053 4e-5 1.5944 0.71393 1.5945 1.5945-4.3e-5 0.88061-0.71396 1.5946-1.5945 1.5945-0.88062 3e-5 -1.5945-0.71386-1.5945-1.5945-2.8e-5 -0.88054 0.71389-1.5945 1.5945-1.5945" enable-background="new"/>
     <path d="m25.541 349.56c0.85032-0.2278 1.7245 0.27688 1.9523 1.1272 0.22783 0.85041-0.27688 1.7246-1.1272 1.9524-0.8504 0.2279-1.7245-0.27676-1.9523-1.1272-0.2279-0.85031 0.2768-1.7245 1.1272-1.9524" enable-background="new"/>
     <path d="m62.069 313.04c0.85033-0.2278 1.7245 0.27686 1.9523 1.1272 0.22783 0.85041-0.27688 1.7246-1.1272 1.9524-0.8504 0.22791-1.7245-0.27678-1.9523-1.1272-0.2279-0.8503 0.2768-1.7245 1.1272-1.9524" enable-background="new"/>
     <path d="m30.506 353.83c0.76246-0.44017 1.7375-0.17891 2.1778 0.58352 0.44022 0.76252 0.17894 1.7376-0.58354 2.1778-0.76251 0.44027-1.7375 0.17901-2.1777-0.58353-0.44024-0.76242-0.17898-1.7375 0.58352-2.1778" enable-background="new"/>
     <path d="m56.335 309.09c0.76246-0.44017 1.7375-0.17891 2.1778 0.58353 0.44022 0.76252 0.17894 1.7376-0.58354 2.1778-0.76251 0.44027-1.7375 0.17901-2.1777-0.58352-0.44024-0.76242-0.17898-1.7375 0.58352-2.1778" enable-background="new"/>
     <path d="m49.775 306.76c0.62268-0.62261 1.6323-0.62262 2.255 0 0.62267 0.62272 0.62267 1.6324 0 2.255-0.62268 0.62271-1.6323 0.62271-2.255 0-0.62267-0.6226-0.62267-1.6323 0-2.255" enable-background="new"/>
     <path d="m35.993 307.48c0.22788-0.8503 1.102-1.355 1.9523-1.1272 0.85041 0.22792 1.3551 1.1021 1.1272 1.9524-0.22784 0.85043-1.102 1.3551-1.9523 1.1272-0.85034-0.22778-1.355-1.1019-1.1272-1.9524" enable-background="new"/>
     <path d="m55.538 355.21c4.3e-5 -0.88053 0.71393-1.5944 1.5945-1.5945 0.88062 4e-5 1.5946 0.71396 1.5945 1.5945 2.9e-5 0.88062-0.71386 1.5945-1.5945 1.5945-0.88054 4e-5 -1.5945-0.71388-1.5945-1.5945" enable-background="new"/>
     <path d="m29.708 310.47c4.3e-5 -0.88054 0.71393-1.5944 1.5945-1.5945 0.88062 4e-5 1.5946 0.71396 1.5945 1.5945 2.9e-5 0.88062-0.71386 1.5945-1.5945 1.5945-0.88055 3e-5 -1.5945-0.71389-1.5945-1.5945" enable-background="new"/>
     <path d="m60.942 351.52c-0.2278-0.85032 0.27687-1.7244 1.1272-1.9523 0.85041-0.22783 1.7246 0.27688 1.9524 1.1272 0.2279 0.85039-0.27676 1.7245-1.1272 1.9523-0.85031 0.2279-1.7245-0.27681-1.9524-1.1272" enable-background="new"/>
     <path d="m24.414 314.99c-0.2278-0.85032 0.27686-1.7244 1.1272-1.9523 0.85041-0.22783 1.7246 0.27688 1.9524 1.1272 0.22791 0.85039-0.27677 1.7245-1.1272 1.9523-0.8503 0.2279-1.7245-0.27681-1.9524-1.1272" enable-background="new"/>
     <path d="m65.206 346.55c-0.44017-0.76246-0.17891-1.7375 0.58352-2.1778 0.76252-0.44021 1.7376-0.17893 2.1778 0.58354 0.44027 0.76251 0.17901 1.7376-0.58352 2.1778-0.76242 0.44024-1.7375 0.17898-2.1778-0.58353" enable-background="new"/>
     <path d="m20.468 320.72c-0.44017-0.76247-0.17891-1.7375 0.58352-2.1778 0.76252-0.44022 1.7376-0.17894 2.1778 0.58354 0.44027 0.7625 0.17901 1.7375-0.58352 2.1777-0.76242 0.44025-1.7375 0.17898-2.1778-0.58352" enable-background="new"/>
     <path d="m68.039 340.65c-0.62261-0.62269-0.62263-1.6323 0-2.255 0.62271-0.62267 1.6324-0.62267 2.255 0 0.62271 0.62268 0.62271 1.6323 0 2.255-0.6226 0.62267-1.6323 0.62267-2.255 0" enable-background="new"/>
     <path d="m18.141 327.28c-0.62261-0.62268-0.62263-1.6323 0-2.255 0.62271-0.62267 1.6324-0.62267 2.255 0 0.62271 0.62268 0.62271 1.6323 0 2.255-0.6226 0.62267-1.6323 0.62267-2.255 0" enable-background="new"/>
    </g>
   </g>
   <path d="m44.108 309.39c0.84164 0 1.5369-0.68666 1.5369-1.5381v-3.1128c0-0.85145-0.69527-1.5381-1.5369-1.5381-0.85079 0-1.5369 0.68666-1.5369 1.5381v3.1128c0 0.85145 0.68612 1.5381 1.5369 1.5381m0-5.3101c0.35678 0 0.65867 0.29297 0.65867 0.65918v3.1128c0 0.36621-0.30189 0.65919-0.65867 0.65919-0.36593 0-0.65867-0.29298-0.65867-0.65919v-3.1128c0-0.36621 0.29274-0.65918 0.65867-0.65918" fill="#fffafa"/>
   <g fill="#fff">
    <g stroke-width="0">
     <path d="m39.98 440.24v8.0644h8.2969v-6.6289h-5.5742v-1.3809zm2.7227 3.3867h2.9434v1.0137h-0.44141v-0.71875h-0.7168v0.77343h-0.14648l-1.2148-0.82812v0.79101h-0.42383zm2.4648 1.6758h0.49805v0.95703h-2.9805v-0.91992h0.44141v0.77343l1.2324-0.79101h0.18359v0.73633h0.625z"/>
     <path d="m52.62 443.65h-3.3117v-1.9701h6.7337v1.694l-1.6374 1.6571 1.6374 1.6571-0.03678 1.6571h-6.6969v-2.0806h3.2197l-1.2511-1.2336z"/>
     <path d="m57.054 448.32h2.355v-1.9149h1.0303l1.4167-1.3809-1.3983-1.3994h3.3485v-1.9517h-6.7337v1.6755l1.5822 1.6203h-1.6006z"/>
     <path d="m66.437 441.66-3.2383 2.834v3.8496l2.3359-0.0195v-1.0117h2.0977v1.0312h2.3008v-6.6836zm1.1211 1.9688v1.6387h-1.9492z"/>
     <path d="m70.926 441.68h6.7521v2.7435h-2.355v-0.77332h-2.0606v2.6146h4.4156v2.099h-6.7521z"/>
     <path d="m80.877 441.69v0.54883l-2.2422 0.0117v5.4883h2.2266v0.60742h2.2812v-0.60742h2.2559v-5.5h-2.25v-0.54883zm0.11133 2.2734h2.0488v2.0117h-2.0488z"/>
    </g>
    <path d="m57.63 11.87q-0.30038 0.25588-0.68975 0.43388-0.38938 0.18912-0.82325 0.3115-0.42275 0.12238-0.89 0.178-0.45612 0.06675-0.90112 0.06675h-1.4017q-0.12238 0-0.18912-0.01112t-0.10012-0.0445q-0.03338-0.03337-0.0445-0.10012 0-0.06675 0-0.18912v-7.8431q0-0.1335 0-0.21137 0.01112-0.077875 0.0445-0.11125 0.03337-0.033375 0.10012-0.0445 0.07787-0.011125 0.21138-0.011125h1.9246q2.136 0 3.2374 1.2571 0.46725 0.54512 0.68975 1.2682 0.23362 0.72312 0.23362 1.7355 0 1.0457-0.36712 1.9135-0.356 0.85662-1.0346 1.4017zm-0.67862-5.3622q-0.32262-0.41162-0.85662-0.63412-0.52287-0.2225-1.2571-0.2225h-0.73425v5.8406h0.36712q0.65638 0 1.2126-0.18912 0.55625-0.18912 0.95675-0.56737 0.4005-0.37825 0.623-0.92337 0.23362-0.55625 0.23362-1.2905 0-1.3016-0.54512-2.0136z"/>
    <path d="m65.481 12.382q-0.42275 0.33375-0.94562 0.4895-0.51175 0.16688-1.1014 0.16688-0.60075 0-1.1014-0.15575t-0.92337-0.50062q-0.5785-0.45612-0.8455-1.1125-0.25588-0.6675-0.25588-1.513v-5.2176q0-0.10012 0.03338-0.16687 0.0445-0.077875 0.18912-0.077875h1.068q0.2225 0 0.2225 0.2225v5.3511q0 0.81212 0.41162 1.3016 0.42275 0.47838 1.2015 0.47838 0.78987 0 1.2015-0.46725 0.41162-0.47837 0.41162-1.3127v-5.3511q0-0.2225 0.2225-0.2225h1.068q0.14462 0 0.178 0.077875 0.0445 0.06675 0.0445 0.16687v5.2176q0 0.83437-0.267 1.513-0.267 0.6675-0.81212 1.1125z"/>
    <path d="m73.854 12.86q-0.12238 0-0.18912-0.03337-0.06675-0.02225-0.12238-0.15575l-0.70087-1.8356h-3.4599l-0.70087 1.8356q-0.05563 0.1335-0.12238 0.15575-0.05562 0.03337-0.178 0.03337h-1.0791q-0.178 0-0.23362-0.06675-0.05563-0.05563 0.01112-0.21138l3.2374-8.099q0.07788-0.18912 0.267-0.18912h1.0791q0.14462 0 0.18912 0.0445 0.0445 0.033375 0.10012 0.15575l3.2151 8.0879q0.06675 0.16688 0.01112 0.2225-0.0445 0.05562-0.23362 0.05562zm-3.9494-3.3931h2.4141l-1.2015-3.1484z"/>
    <path d="m75.841 12.86q-0.23362 0-0.23362-0.24475v-8.1212q0-0.12237 0.0445-0.15575 0.0445-0.0445 0.16688-0.0445h1.1125q0.12238 0 0.15575 0.0445 0.03337 0.033375 0.03337 0.15575v6.9642h2.6811q0.12238 0 0.16688 0.05563 0.0445 0.0445 0.0445 0.16688v0.95675q0 0.12238-0.0445 0.16688-0.0445 0.05562-0.16688 0.05562z"/>
    <path d="m14.799 26.767q-0.12238 0-0.18912-0.03337-0.06675-0.02225-0.12238-0.15575l-0.70088-1.8356h-3.4599l-0.70087 1.8356q-0.055625 0.1335-0.12238 0.15575-0.055625 0.03337-0.178 0.03337h-1.0791q-0.178 0-0.23362-0.06675-0.055625-0.05562 0.011125-0.21137l3.2374-8.099q0.07787-0.18912 0.267-0.18912h1.0791q0.14462 0 0.18912 0.0445 0.0445 0.03337 0.10012 0.15575l3.2151 8.0879q0.06675 0.16688 0.01112 0.2225-0.0445 0.05562-0.23362 0.05562zm-3.9494-3.3931h2.4141l-1.2015-3.1484z"/>
    <path d="m18.826 19.602v6.942q0 0.1335-0.05562 0.178-0.0445 0.0445-0.15575 0.0445h-1.0903q-0.11125 0-0.16688-0.0445-0.0445-0.0445-0.0445-0.178v-6.942h-1.9691q-0.12238 0-0.178-0.0445-0.0445-0.0445-0.0445-0.16688v-0.96787q0-0.2225 0.2225-0.2225h5.4735q0.14462 0 0.178 0.05562 0.0445 0.0445 0.0445 0.16688v0.96787q0 0.12238-0.0445 0.16688-0.03337 0.0445-0.178 0.0445z"/>
    <path d="m22.063 26.778q-0.267 0-0.32262-0.06675-0.05562-0.06675-0.05562-0.34487v-7.7764q0-0.25588 0.0445-0.32262 0.05563-0.06675 0.3115-0.06675h3.9605q0.18912 0 0.21138 0.06675t0.02225 0.20025v0.86775q0 0.15575-0.03337 0.21138-0.03337 0.0445-0.20025 0.0445h-2.8035v2.1137h2.6589q0.178 0 0.20025 0.06675 0.03337 0.06675 0.03337 0.20025v0.86775q0 0.15575-0.0445 0.21138-0.03337 0.0445-0.18912 0.0445h-2.6589v2.2917h2.9147q0.178 0 0.20025 0.05562 0.03337 0.05563 0.03337 0.20025v0.86775q0 0.14462-0.03337 0.20025-0.02225 0.06675-0.20025 0.06675z"/>
    <path d="m32.59 26.767q-0.1335 0-0.178-0.03337-0.0445-0.02225-0.11125-0.14462l-3.2151-5.8629v5.7739q0 0.178-0.03337 0.2225t-0.21138 0.0445h-1.0124q-0.16688 0-0.21138-0.0445t-0.0445-0.2225v-8.0211q0-0.18912 0.03337-0.24475 0.0445-0.05562 0.24475-0.05562h1.1014q0.1335 0 0.178 0.03337t0.12238 0.178l3.1706 5.8184v-5.7627q0-0.16688 0.03337-0.21138 0.0445-0.05562 0.21138-0.05562h1.0012q0.20025 0 0.23362 0.05562 0.03337 0.05562 0.03337 0.21138v8.01q0 0.21137-0.0445 0.25587-0.0445 0.05562-0.24475 0.05562z"/>
    <path d="m40.485 26.288q-0.42275 0.33375-0.94562 0.4895-0.51175 0.16688-1.1014 0.16688-0.60075 0-1.1014-0.15575-0.50062-0.15575-0.92337-0.50062-0.5785-0.45612-0.8455-1.1125-0.25588-0.6675-0.25588-1.513v-5.2176q0-0.10012 0.03337-0.16688 0.0445-0.07787 0.18912-0.07787h1.068q0.2225 0 0.2225 0.2225v5.3511q0 0.81212 0.41162 1.3016 0.42275 0.47838 1.2015 0.47838 0.78987 0 1.2015-0.46725 0.41162-0.47837 0.41162-1.3127v-5.3511q0-0.2225 0.2225-0.2225h1.068q0.14462 0 0.178 0.07787 0.0445 0.06675 0.0445 0.16688v5.2176q0 0.83438-0.267 1.513-0.267 0.6675-0.81212 1.1125z"/>
    <path d="m46.555 26.6q-0.05562 0.12237-0.10012 0.14462-0.03337 0.02225-0.12238 0.02225h-1.1236q-0.07787 0-0.12238-0.02225-0.03337-0.02225-0.089-0.14462l-2.9592-8.1324q-0.06675-0.18912-0.02225-0.2225 0.0445-0.0445 0.24475-0.0445h1.0791q0.12238 0 0.16688 0.03337 0.0445 0.02225 0.089 0.14462l2.1582 6.3635 2.2027-6.3635q0.0445-0.12238 0.089-0.14462 0.05562-0.03337 0.178-0.03337h1.0902q0.18912 0 0.2225 0.0445 0.03337 0.0445-0.03338 0.2225z"/>
    <path d="m50.405 26.778q-0.267 0-0.32262-0.06675-0.05562-0.06675-0.05562-0.34487v-7.7764q0-0.25588 0.0445-0.32262 0.05562-0.06675 0.3115-0.06675h3.9605q0.18912 0 0.21138 0.06675t0.02225 0.20025v0.86775q0 0.15575-0.03337 0.21138-0.03337 0.0445-0.20025 0.0445h-2.8035v2.1137h2.6589q0.178 0 0.20025 0.06675 0.03337 0.06675 0.03337 0.20025v0.86775q0 0.15575-0.0445 0.21138-0.03337 0.0445-0.18912 0.0445h-2.6589v2.2917h2.9147q0.178 0 0.20025 0.05562 0.03337 0.05563 0.03337 0.20025v0.86775q0 0.14462-0.03337 0.20025-0.02225 0.06675-0.20025 0.06675z"/>
    <path d="m60.409 26.767q-0.1335 0-0.178-0.03337-0.03337-0.02225-0.089-0.14462l-1.5797-3.1706h-1.0235v3.115q0 0.15575-0.0445 0.18912-0.0445 0.0445-0.16687 0.0445h-1.0791q-0.11125 0-0.16688-0.0445-0.05562-0.03337-0.05562-0.18912v-8.1101q0-0.1335 0.05562-0.178 0.06675-0.0445 0.15575-0.0445h2.2361q0.623 0 1.1236 0.15575 0.51175 0.15575 0.86775 0.47838 0.356 0.32262 0.54512 0.81212 0.20025 0.47838 0.20025 1.1459 0 0.801-0.34488 1.3684-0.34488 0.55625-0.91225 0.87887l1.8022 3.4376q0.089 0.16688 0.06675 0.2225-0.02225 0.06675-0.18912 0.06675zm-2.8702-7.1979v2.492h0.74538q0.6675 0 1.0346-0.30038 0.36712-0.3115 0.36712-0.979 0-0.60075-0.30037-0.90112-0.28925-0.3115-0.7565-0.3115z"/>
    <path d="m65.328 19.602v6.942q0 0.1335-0.05562 0.178-0.0445 0.0445-0.15575 0.0445h-1.0902q-0.11125 0-0.16688-0.0445-0.0445-0.0445-0.0445-0.178v-6.942h-1.9691q-0.12238 0-0.178-0.0445-0.0445-0.0445-0.0445-0.16688v-0.96787q0-0.2225 0.2225-0.2225h5.4735q0.14462 0 0.178 0.05562 0.0445 0.0445 0.0445 0.16688v0.96787q0 0.12238-0.0445 0.16688-0.03338 0.0445-0.178 0.0445z"/>
    <path d="m68.555 26.778q-0.267 0-0.32262-0.06675-0.05563-0.06675-0.05563-0.34487v-7.7764q0-0.25588 0.0445-0.32262 0.05563-0.06675 0.3115-0.06675h3.9605q0.18912 0 0.21138 0.06675t0.02225 0.20025v0.86775q0 0.15575-0.03337 0.21138-0.03338 0.0445-0.20025 0.0445h-2.8035v2.1137h2.6589q0.178 0 0.20025 0.06675 0.03338 0.06675 0.03338 0.20025v0.86775q0 0.15575-0.0445 0.21138-0.03338 0.0445-0.18912 0.0445h-2.6589v2.2917h2.9147q0.178 0 0.20025 0.05562 0.03337 0.05563 0.03337 0.20025v0.86775q0 0.14462-0.03337 0.20025-0.02225 0.06675-0.20025 0.06675z"/>
    <path d="m78.559 26.767q-0.1335 0-0.178-0.03337-0.03337-0.02225-0.089-0.14462l-1.5797-3.1706h-1.0235v3.115q0 0.15575-0.0445 0.18912-0.0445 0.0445-0.16688 0.0445h-1.0791q-0.11125 0-0.16688-0.0445-0.05563-0.03337-0.05563-0.18912v-8.1101q0-0.1335 0.05563-0.178 0.06675-0.0445 0.15575-0.0445h2.2361q0.623 0 1.1236 0.15575 0.51175 0.15575 0.86775 0.47838 0.356 0.32262 0.54512 0.81212 0.20025 0.47838 0.20025 1.1459 0 0.801-0.34488 1.3684-0.34488 0.55625-0.91225 0.87887l1.8022 3.4376q0.089 0.16688 0.06675 0.2225-0.02225 0.06675-0.18912 0.06675zm-2.8702-7.1979v2.492h0.74537q0.6675 0 1.0346-0.30038 0.36712-0.3115 0.36712-0.979 0-0.60075-0.30037-0.90112-0.28925-0.3115-0.7565-0.3115z"/>
    <g>
     <path d="m19.186 129.28c0.76244 0.44023 1.0237 1.4153 0.58352 2.1778-0.44027 0.76251-1.4154 1.0238-2.1778 0.58352-0.76254-0.4402-1.0238-1.4152-0.58352-2.1777 0.44016-0.76248 1.4153-1.0238 2.1778-0.58354" enable-background="new"/>
     <path d="m70.844 129.28c0.76243 0.44023 1.0237 1.4153 0.58352 2.1778-0.44027 0.76251-1.4154 1.0238-2.1778 0.58352-0.76254-0.4402-1.0238-1.4152-0.58352-2.1777 0.44016-0.76248 1.4153-1.0238 2.1778-0.58354" enable-background="new"/>
     <path d="m19.681 135.81c0.8503 0.22787 1.355 1.102 1.1272 1.9523-0.22791 0.85039-1.1021 1.3551-1.9524 1.1272-0.85043-0.22784-1.3551-1.102-1.1272-1.9523 0.2278-0.85035 1.1019-1.3551 1.9524-1.1272" enable-background="new"/>
     <path d="m69.579 122.44c0.8503 0.22788 1.355 1.102 1.1272 1.9523-0.22791 0.85041-1.1021 1.3551-1.9524 1.1272-0.85043-0.22785-1.3551-1.102-1.1272-1.9524 0.22778-0.85034 1.1019-1.355 1.9524-1.1272" enable-background="new"/>
     <path d="m21.849 141.98c0.88053 5e-5 1.5944 0.71394 1.5945 1.5945-4.3e-5 0.88062-0.71396 1.5946-1.5945 1.5945-0.88062 3e-5 -1.5945-0.71386-1.5945-1.5945-4.3e-5 -0.88054 0.71388-1.5945 1.5945-1.5945" enable-background="new"/>
     <path d="m66.586 116.15c0.88053 4e-5 1.5944 0.71393 1.5945 1.5945-4.3e-5 0.88061-0.71396 1.5946-1.5945 1.5945-0.88062 3e-5 -1.5945-0.71386-1.5945-1.5945-2.8e-5 -0.88054 0.71389-1.5945 1.5945-1.5945" enable-background="new"/>
     <path d="m25.541 147.39c0.85032-0.2278 1.7245 0.27688 1.9523 1.1272 0.22783 0.85041-0.27688 1.7246-1.1272 1.9524-0.8504 0.2279-1.7245-0.27676-1.9523-1.1272-0.2279-0.85031 0.2768-1.7245 1.1272-1.9524" enable-background="new"/>
     <path d="m62.069 110.86c0.85033-0.2278 1.7245 0.27686 1.9523 1.1272 0.22783 0.85041-0.27688 1.7246-1.1272 1.9524-0.8504 0.22791-1.7245-0.27678-1.9523-1.1272-0.2279-0.8503 0.2768-1.7245 1.1272-1.9524" enable-background="new"/>
     <path d="m30.506 151.65c0.76246-0.44017 1.7375-0.17891 2.1778 0.58352 0.44022 0.76252 0.17894 1.7376-0.58354 2.1778-0.76251 0.44027-1.7375 0.17901-2.1777-0.58353-0.44024-0.76242-0.17898-1.7375 0.58352-2.1778" enable-background="new"/>
     <path d="m56.335 106.91c0.76246-0.44017 1.7375-0.17891 2.1778 0.58353 0.44022 0.76252 0.17894 1.7376-0.58354 2.1778-0.76251 0.44027-1.7375 0.17901-2.1777-0.58352-0.44024-0.76242-0.17898-1.7375 0.58352-2.1778" enable-background="new"/>
     <path d="m49.775 104.59c0.62268-0.62261 1.6323-0.62262 2.255 0 0.62267 0.62272 0.62267 1.6324 0 2.255-0.62268 0.62271-1.6323 0.62271-2.255 0-0.62267-0.6226-0.62267-1.6323 0-2.255" enable-background="new"/>
     <path d="m35.993 105.3c0.22788-0.8503 1.102-1.355 1.9523-1.1272 0.85041 0.22792 1.3551 1.1021 1.1272 1.9524-0.22784 0.85043-1.102 1.3551-1.9523 1.1272-0.85034-0.22778-1.355-1.1019-1.1272-1.9524" enable-background="new"/>
     <path d="m55.538 153.03c4.3e-5 -0.88053 0.71393-1.5944 1.5945-1.5945 0.88062 4e-5 1.5946 0.71396 1.5945 1.5945 2.9e-5 0.88062-0.71386 1.5945-1.5945 1.5945-0.88054 4e-5 -1.5945-0.71388-1.5945-1.5945" enable-background="new"/>
     <path d="m29.708 108.29c4.3e-5 -0.88054 0.71393-1.5944 1.5945-1.5945 0.88062 4e-5 1.5946 0.71396 1.5945 1.5945 2.9e-5 0.88062-0.71386 1.5945-1.5945 1.5945-0.88055 3e-5 -1.5945-0.71389-1.5945-1.5945" enable-background="new"/>
     <path d="m60.942 149.34c-0.2278-0.85032 0.27687-1.7244 1.1272-1.9523 0.85041-0.22783 1.7246 0.27688 1.9524 1.1272 0.2279 0.85039-0.27676 1.7245-1.1272 1.9523-0.85031 0.2279-1.7245-0.27681-1.9524-1.1272" enable-background="new"/>
     <path d="m24.414 112.81c-0.2278-0.85032 0.27686-1.7244 1.1272-1.9523 0.85041-0.22783 1.7246 0.27688 1.9524 1.1272 0.22791 0.85039-0.27677 1.7245-1.1272 1.9523-0.8503 0.2279-1.7245-0.27681-1.9524-1.1272" enable-background="new"/>
     <path d="m65.206 144.37c-0.44017-0.76246-0.17891-1.7375 0.58352-2.1778 0.76252-0.44021 1.7376-0.17893 2.1778 0.58354 0.44027 0.76251 0.17901 1.7376-0.58352 2.1778-0.76242 0.44024-1.7375 0.17898-2.1778-0.58353" enable-background="new"/>
     <path d="m20.468 118.54c-0.44017-0.76247-0.17891-1.7375 0.58352-2.1778 0.76252-0.44022 1.7376-0.17894 2.1778 0.58354 0.44027 0.7625 0.17901 1.7375-0.58352 2.1777-0.76242 0.44025-1.7375 0.17898-2.1778-0.58352" enable-background="new"/>
     <path d="m68.039 138.47c-0.62261-0.62269-0.62263-1.6323 0-2.255 0.62271-0.62267 1.6324-0.62267 2.255 0 0.62271 0.62268 0.62271 1.6323 0 2.255-0.6226 0.62267-1.6323 0.62267-2.255 0" enable-background="new"/>
     <path d="m18.141 125.1c-0.62261-0.62268-0.62263-1.6323 0-2.255 0.62271-0.62267 1.6324-0.62267 2.255 0 0.62271 0.62268 0.62271 1.6323 0 2.255-0.6226 0.62267-1.6323 0.62267-2.255 0" enable-background="new"/>
    </g>
   </g>
   <path d="m44.108 107.21c0.84164 0 1.5369-0.68665 1.5369-1.5381v-3.1128c0-0.85145-0.69527-1.5381-1.5369-1.5381-0.85079 0-1.5369 0.68666-1.5369 1.5381v3.1128c0 0.85146 0.68612 1.5381 1.5369 1.5381m0-5.3101c0.35678 0 0.65867 0.29296 0.65867 0.65918v3.1128c0 0.36622-0.30189 0.6592-0.65867 0.6592-0.36593 0-0.65867-0.29298-0.65867-0.6592v-3.1128c0-0.36622 0.29274-0.65918 0.65867-0.65918" fill="#fffafa"/>
   <g fill="#fff">
    <path d="m24.918 88.444c0.216 0.10808 0.477 0.01801 0.585-0.18915l0.963-1.9365 0.963 1.9365c0.108 0.20716 0.369 0.29723 0.576 0.18915 0.216-0.10808 0.306-0.36929 0.198-0.57645l-1.251-2.513 1.161-2.3238c0.108-0.21617 0.018-0.47737-0.198-0.58546-0.207-0.10808-0.468-0.01801-0.576 0.19815l-0.873 1.7474-0.873-1.7474c-0.108-0.21617-0.369-0.30624-0.585-0.19815-0.207 0.10808-0.297 0.36929-0.189 0.58546l1.161 2.3238-1.251 2.513c-0.108 0.20716-0.018 0.46836 0.189 0.57645"/>
    <path d="m29.155 86.147h2.16c0.234 0 0.432-0.18915 0.432-0.43234 0-0.23418-0.198-0.43234-0.432-0.43234h-2.16c-0.243 0-0.432 0.19815-0.432 0.43234 0 0.24319 0.189 0.43234 0.432 0.43234"/>
    <path d="m33.422 84.22s0.189-0.19815 0.342-0.34227v4.1793c0 0.24319 0.189 0.43234 0.432 0.43234 0.234 0 0.432-0.18915 0.432-0.43234v-5.2241c0-0.17113-0.108-0.33326-0.27-0.39631-0.162-0.07206-0.342-0.03603-0.468 0.09007l-1.08 1.0808c-0.171 0.17113-0.171 0.44134 0 0.61248s0.441 0.17113 0.612 0"/>
    <path d="m53.9 88.444c0.216 0.10808 0.477 0.01801 0.585-0.18915l0.963-1.9365 0.963 1.9365c0.108 0.20716 0.369 0.29723 0.576 0.18915 0.216-0.10808 0.306-0.36929 0.198-0.57645l-1.251-2.513 1.161-2.3238c0.108-0.21617 0.018-0.47737-0.198-0.58546-0.207-0.10808-0.468-0.01801-0.576 0.19815l-0.873 1.7474-0.873-1.7474c-0.108-0.21617-0.369-0.30624-0.585-0.19815-0.207 0.10808-0.297 0.36929-0.189 0.58546l1.161 2.3238-1.251 2.513c-0.108 0.20716-0.018 0.46836 0.189 0.57645"/>
    <path d="m60.382 84.22s0.189-0.19815 0.342-0.34227v4.1793c0 0.24319 0.189 0.43234 0.432 0.43234 0.234 0 0.432-0.18915 0.432-0.43234v-5.2241c0-0.17113-0.108-0.33326-0.27-0.39631-0.162-0.07206-0.342-0.03603-0.468 0.09007l-1.08 1.0808c-0.171 0.17113-0.171 0.44134 0 0.61248s0.441 0.17113 0.612 0"/>
    <g>
     <path d="m19.186 60.069c0.76244 0.44023 1.0237 1.4153 0.58352 2.1778-0.44027 0.76251-1.4154 1.0238-2.1778 0.58352-0.76254-0.4402-1.0238-1.4153-0.58352-2.1777 0.44016-0.76248 1.4153-1.0238 2.1778-0.58354" enable-background="new"/>
     <path d="m70.844 60.069c0.76243 0.44023 1.0237 1.4153 0.58352 2.1778-0.44027 0.76251-1.4154 1.0238-2.1778 0.58352-0.76254-0.4402-1.0238-1.4153-0.58352-2.1777 0.44016-0.76248 1.4153-1.0238 2.1778-0.58354" enable-background="new"/>
     <path d="m19.681 66.595c0.8503 0.22787 1.355 1.102 1.1272 1.9523-0.22791 0.8504-1.1021 1.3551-1.9524 1.1272-0.85043-0.22784-1.3551-1.102-1.1272-1.9523 0.2278-0.85035 1.1019-1.3551 1.9524-1.1272" enable-background="new"/>
     <path d="m69.579 53.225c0.8503 0.22788 1.355 1.102 1.1272 1.9523-0.22791 0.85041-1.1021 1.3551-1.9524 1.1272-0.85043-0.22784-1.3551-1.102-1.1272-1.9523 0.22778-0.85034 1.1019-1.355 1.9524-1.1272" enable-background="new"/>
     <path d="m21.849 72.77c0.88053 4.3e-5 1.5944 0.71393 1.5945 1.5945-4.3e-5 0.88062-0.71396 1.5946-1.5945 1.5945-0.88062 2.9e-5 -1.5945-0.71386-1.5945-1.5945-4.3e-5 -0.88054 0.71388-1.5945 1.5945-1.5945" enable-background="new"/>
     <path d="m66.586 46.941c0.88053 4.4e-5 1.5944 0.71393 1.5945 1.5945-4.3e-5 0.88062-0.71396 1.5946-1.5945 1.5945-0.88062 2.8e-5 -1.5945-0.71386-1.5945-1.5945-2.8e-5 -0.88055 0.71389-1.5945 1.5945-1.5945" enable-background="new"/>
     <path d="m25.541 78.174c0.85032-0.2278 1.7245 0.27688 1.9523 1.1272 0.22783 0.85041-0.27688 1.7246-1.1272 1.9524-0.8504 0.2279-1.7245-0.27676-1.9523-1.1272-0.2279-0.85031 0.2768-1.7245 1.1272-1.9524" enable-background="new"/>
     <path d="m62.069 41.646c0.85033-0.2278 1.7245 0.27686 1.9523 1.1272 0.22783 0.85041-0.27688 1.7246-1.1272 1.9524-0.8504 0.22791-1.7245-0.27677-1.9523-1.1272-0.2279-0.8503 0.2768-1.7245 1.1272-1.9524" enable-background="new"/>
     <path d="m56.335 37.701c0.76246-0.44017 1.7375-0.17891 2.1778 0.58352 0.44022 0.76252 0.17894 1.7376-0.58354 2.1778-0.76251 0.44027-1.7375 0.17901-2.1777-0.58352-0.44024-0.76242-0.17898-1.7375 0.58352-2.1778" enable-background="new"/>
     <path d="m49.775 35.374c0.62268-0.62261 1.6323-0.62263 2.255 0 0.62267 0.62271 0.62267 1.6324 0 2.255-0.62268 0.62271-1.6323 0.62271-2.255 0-0.62267-0.6226-0.62267-1.6323 0-2.255" enable-background="new"/>
     <path d="m35.993 36.088c0.22788-0.8503 1.102-1.355 1.9523-1.1272 0.85041 0.22791 1.3551 1.1021 1.1272 1.9524-0.22784 0.85043-1.102 1.3551-1.9523 1.1272-0.85034-0.22778-1.355-1.1019-1.1272-1.9524" enable-background="new"/>
     <path d="m29.708 39.081c4.3e-5 -0.88053 0.71393-1.5944 1.5945-1.5945 0.88062 4.3e-5 1.5946 0.71396 1.5945 1.5945 2.9e-5 0.88062-0.71386 1.5945-1.5945 1.5945-0.88055 2.8e-5 -1.5945-0.71389-1.5945-1.5945" enable-background="new"/>
     <path d="m60.942 80.127c-0.2278-0.85032 0.27687-1.7245 1.1272-1.9523 0.85041-0.22783 1.7246 0.27688 1.9524 1.1272 0.2279 0.8504-0.27676 1.7245-1.1272 1.9523-0.85031 0.2279-1.7245-0.2768-1.9524-1.1272" enable-background="new"/>
     <path d="m24.414 43.599c-0.2278-0.85032 0.27686-1.7245 1.1272-1.9523 0.85041-0.22783 1.7246 0.27688 1.9524 1.1272 0.22791 0.8504-0.27677 1.7245-1.1272 1.9523-0.8503 0.2279-1.7245-0.2768-1.9524-1.1272" enable-background="new"/>
     <path d="m65.206 75.162c-0.44017-0.76246-0.17891-1.7375 0.58352-2.1778 0.76252-0.44022 1.7376-0.17894 2.1778 0.58354 0.44027 0.76251 0.17901 1.7375-0.58352 2.1777-0.76242 0.44024-1.7375 0.17898-2.1778-0.58352" enable-background="new"/>
     <path d="m20.468 49.333c-0.44017-0.76246-0.17891-1.7375 0.58352-2.1778 0.76252-0.44022 1.7376-0.17894 2.1778 0.58354 0.44027 0.76251 0.17901 1.7375-0.58352 2.1777-0.76242 0.44024-1.7375 0.17898-2.1778-0.58352" enable-background="new"/>
     <path d="m68.039 69.263c-0.62261-0.62268-0.62263-1.6323 0-2.255 0.62271-0.62267 1.6324-0.62267 2.255 0 0.62271 0.62268 0.62271 1.6323 0 2.255-0.6226 0.62267-1.6323 0.62267-2.255 0" enable-background="new"/>
     <path d="m18.141 55.892c-0.62261-0.62268-0.62263-1.6323 0-2.255 0.62271-0.62267 1.6324-0.62267 2.255 0 0.62271 0.62268 0.62271 1.6323 0 2.255-0.6226 0.62267-1.6323 0.62267-2.255 0" enable-background="new"/>
    </g>
   </g>
   <path d="m44.108 38.002c0.84164 0 1.5369-0.68666 1.5369-1.5381v-3.1128c0-0.85145-0.69527-1.5381-1.5369-1.5381-0.85079 0-1.5369 0.68666-1.5369 1.5381v3.1128c0 0.85145 0.68612 1.5381 1.5369 1.5381m0-5.3101c0.35678 0 0.65867 0.29297 0.65867 0.65918v3.1128c0 0.36622-0.30189 0.65919-0.65867 0.65919-0.36593 0-0.65867-0.29298-0.65867-0.65919v-3.1128c0-0.36622 0.29274-0.65918 0.65867-0.65918" fill="#fffafa"/>
   <g fill="#fff">
    <path d="m24.976 290.27c0.216 0.10808 0.477 0.018 0.585-0.18915l0.963-1.9365 0.963 1.9365c0.108 0.20716 0.369 0.29723 0.576 0.18915 0.216-0.10809 0.306-0.36929 0.198-0.57645l-1.251-2.513 1.161-2.3238c0.108-0.21617 0.018-0.47737-0.198-0.58546-0.207-0.10808-0.468-0.018-0.576 0.19816l-0.873 1.7474-0.873-1.7474c-0.108-0.21617-0.369-0.30624-0.585-0.19816-0.207 0.10809-0.297 0.36929-0.189 0.58546l1.161 2.3238-1.251 2.513c-0.108 0.20716-0.018 0.46836 0.189 0.57645"/>
    <path d="m29.214 287.97h2.16c0.234 0 0.432-0.18915 0.432-0.43234 0-0.23418-0.198-0.43234-0.432-0.43234h-2.16c-0.243 0-0.432 0.19816-0.432 0.43234 0 0.24319 0.189 0.43234 0.432 0.43234"/>
    <path d="m33.48 286.04s0.189-0.19816 0.342-0.34227v4.1793c0 0.24319 0.189 0.43233 0.432 0.43233 0.234 0 0.432-0.18914 0.432-0.43233v-5.2241c0-0.17114-0.108-0.33326-0.27-0.39631-0.162-0.0721-0.342-0.036-0.468 0.0901l-1.08 1.0808c-0.171 0.17113-0.171 0.44134 0 0.61248 0.171 0.17113 0.441 0.17113 0.612 0"/>
    <path d="m53.958 290.27c0.216 0.10808 0.477 0.018 0.585-0.18915l0.963-1.9365 0.963 1.9365c0.108 0.20716 0.369 0.29723 0.576 0.18915 0.216-0.10809 0.306-0.36929 0.198-0.57645l-1.251-2.513 1.161-2.3238c0.108-0.21617 0.018-0.47737-0.198-0.58546-0.207-0.10808-0.468-0.018-0.576 0.19816l-0.873 1.7474-0.873-1.7474c-0.108-0.21617-0.369-0.30624-0.585-0.19816-0.207 0.10809-0.297 0.36929-0.189 0.58546l1.161 2.3238-1.251 2.513c-0.108 0.20716-0.018 0.46836 0.189 0.57645"/>
    <path d="m60.441 286.04s0.189-0.19816 0.342-0.34227v4.1793c0 0.24319 0.189 0.43233 0.432 0.43233 0.234 0 0.432-0.18914 0.432-0.43233v-5.2241c0-0.17114-0.108-0.33326-0.27-0.39631-0.162-0.0721-0.342-0.036-0.468 0.0901l-1.08 1.0808c-0.171 0.17113-0.171 0.44134 0 0.61248 0.171 0.17113 0.441 0.17113 0.612 0"/>
    <g>
     <path d="m19.244 261.89c0.76244 0.44023 1.0237 1.4153 0.58352 2.1778-0.44027 0.76251-1.4154 1.0238-2.1778 0.58352-0.76254-0.4402-1.0238-1.4152-0.58352-2.1777 0.44016-0.76248 1.4153-1.0238 2.1778-0.58354" enable-background="new"/>
     <path d="m70.903 261.89c0.76243 0.44023 1.0237 1.4153 0.58352 2.1778-0.44027 0.76251-1.4154 1.0238-2.1778 0.58352-0.76254-0.4402-1.0238-1.4152-0.58352-2.1777 0.44016-0.76248 1.4153-1.0238 2.1778-0.58354" enable-background="new"/>
     <path d="m19.74 268.42c0.8503 0.22787 1.355 1.102 1.1272 1.9523-0.22791 0.85039-1.1021 1.3551-1.9524 1.1272-0.85043-0.22784-1.3551-1.102-1.1272-1.9523 0.2278-0.85035 1.1019-1.3551 1.9524-1.1272" enable-background="new"/>
     <path d="m69.638 255.05c0.8503 0.22788 1.355 1.102 1.1272 1.9523-0.22791 0.85041-1.1021 1.3551-1.9524 1.1272-0.85043-0.22785-1.3551-1.102-1.1272-1.9524 0.22778-0.85034 1.1019-1.355 1.9524-1.1272" enable-background="new"/>
     <path d="m21.908 274.59c0.88053 5e-5 1.5944 0.71394 1.5945 1.5945-4.3e-5 0.88062-0.71396 1.5946-1.5945 1.5945-0.88062 3e-5 -1.5945-0.71386-1.5945-1.5945-4.3e-5 -0.88054 0.71388-1.5945 1.5945-1.5945" enable-background="new"/>
     <path d="m66.645 248.76c0.88053 4e-5 1.5944 0.71393 1.5945 1.5945-4.3e-5 0.88061-0.71396 1.5946-1.5945 1.5945-0.88062 3e-5 -1.5945-0.71386-1.5945-1.5945-2.8e-5 -0.88054 0.71389-1.5945 1.5945-1.5945" enable-background="new"/>
     <path d="m25.6 280c0.85032-0.2278 1.7245 0.27688 1.9523 1.1272 0.22783 0.85041-0.27688 1.7246-1.1272 1.9524-0.8504 0.2279-1.7245-0.27676-1.9523-1.1272-0.2279-0.85031 0.2768-1.7245 1.1272-1.9524" enable-background="new"/>
     <path d="m62.128 243.47c0.85033-0.2278 1.7245 0.27686 1.9523 1.1272 0.22783 0.85041-0.27688 1.7246-1.1272 1.9524-0.8504 0.22791-1.7245-0.27678-1.9523-1.1272-0.2279-0.8503 0.2768-1.7245 1.1272-1.9524" enable-background="new"/>
     <path d="m56.394 239.52c0.76246-0.44017 1.7375-0.17891 2.1778 0.58353 0.44022 0.76252 0.17894 1.7376-0.58354 2.1778-0.76251 0.44027-1.7375 0.17901-2.1777-0.58352-0.44024-0.76242-0.17898-1.7375 0.58352-2.1778" enable-background="new"/>
     <path d="m49.834 237.19c0.62268-0.62261 1.6323-0.62262 2.255 0 0.62267 0.62272 0.62267 1.6324 0 2.255-0.62268 0.62271-1.6323 0.62271-2.255 0-0.62267-0.6226-0.62267-1.6323 0-2.255" enable-background="new"/>
     <path d="m36.051 237.91c0.22788-0.8503 1.102-1.355 1.9523-1.1272 0.85041 0.22792 1.3551 1.1021 1.1272 1.9524-0.22784 0.85043-1.102 1.3551-1.9523 1.1272-0.85034-0.22778-1.355-1.1019-1.1272-1.9524" enable-background="new"/>
     <path d="m29.767 240.9c4.3e-5 -0.88054 0.71393-1.5944 1.5945-1.5945 0.88062 4e-5 1.5946 0.71396 1.5945 1.5945 2.9e-5 0.88062-0.71386 1.5945-1.5945 1.5945-0.88055 3e-5 -1.5945-0.71389-1.5945-1.5945" enable-background="new"/>
     <path d="m61.001 281.95c-0.2278-0.85032 0.27687-1.7244 1.1272-1.9523 0.85041-0.22783 1.7246 0.27688 1.9524 1.1272 0.2279 0.85039-0.27676 1.7245-1.1272 1.9523-0.85031 0.2279-1.7245-0.27681-1.9524-1.1272" enable-background="new"/>
     <path d="m24.473 245.42c-0.2278-0.85032 0.27686-1.7244 1.1272-1.9523 0.85041-0.22783 1.7246 0.27688 1.9524 1.1272 0.22791 0.85039-0.27677 1.7245-1.1272 1.9523-0.8503 0.2279-1.7245-0.27681-1.9524-1.1272" enable-background="new"/>
     <path d="m65.264 276.98c-0.44017-0.76246-0.17891-1.7375 0.58352-2.1778 0.76252-0.44021 1.7376-0.17893 2.1778 0.58354 0.44027 0.76251 0.17901 1.7376-0.58352 2.1778-0.76242 0.44024-1.7375 0.17898-2.1778-0.58353" enable-background="new"/>
     <path d="m20.527 251.15c-0.44017-0.76247-0.17891-1.7375 0.58352-2.1778 0.76252-0.44022 1.7376-0.17894 2.1778 0.58354 0.44027 0.7625 0.17901 1.7375-0.58352 2.1777-0.76242 0.44025-1.7375 0.17898-2.1778-0.58352" enable-background="new"/>
     <path d="m68.098 271.08c-0.62261-0.62269-0.62263-1.6323 0-2.255 0.62271-0.62267 1.6324-0.62267 2.255 0 0.62271 0.62268 0.62271 1.6323 0 2.255-0.6226 0.62267-1.6323 0.62267-2.255 0" enable-background="new"/>
     <path d="m18.2 257.71c-0.62261-0.62268-0.62263-1.6323 0-2.255 0.62271-0.62267 1.6324-0.62267 2.255 0 0.62271 0.62268 0.62271 1.6323 0 2.255-0.6226 0.62267-1.6323 0.62267-2.255 0" enable-background="new"/>
    </g>
   </g>
   <path d="m44.276 239.82c0.84164 0 1.5369-0.68666 1.5369-1.5381v-3.1128c0-0.85145-0.69527-1.5381-1.5369-1.5381-0.85079 0-1.5369 0.68666-1.5369 1.5381v3.1128c0 0.85145 0.68612 1.5381 1.5369 1.5381m0-5.3101c0.35678 0 0.65867 0.29297 0.65867 0.65918v3.1128c0 0.36621-0.30189 0.65919-0.65867 0.65919-0.36593 0-0.65867-0.29298-0.65867-0.65919v-3.1128c0-0.36621 0.29274-0.65918 0.65867-0.65918" fill="#fffafa"/>
  </g>
 </g>
</svg>
