<?xml version="1.0" encoding="UTF-8"?>
<!-- Created with Inkscape (http://www.inkscape.org/) -->
<svg width="120" height="380" version="1.1" xmlns="http://www.w3.org/2000/svg" xmlns:cc="http://creativecommons.org/ns#" xmlns:dc="http://purl.org/dc/elements/1.1/" xmlns:rdf="http://www.w3.org/1999/02/22-rdf-syntax-ns#">
 <metadata>
  <rdf:RDF>
   <cc:Work rdf:about="">
    <dc:format>image/svg+xml</dc:format>
    <dc:type rdf:resource="http://purl.org/dc/dcmitype/StillImage"/>
   </cc:Work>
  </rdf:RDF>
 </metadata>
 <g transform="translate(0 -84.776)">
  <g transform="matrix(.84667 0 0 .83459 0 85.071)" stroke-width="1.1896">
   <rect y="-.35429" width="141.73" height="455.31" fill="#171717" style="paint-order:normal"/>
   <g fill="#fff">
    <g>
     <path transform="translate(0 -.35429)" d="m27.568 169.36a10.495 10.495 0 0 1-1.8652 0.17188 10.495 10.495 0 0 1-0.25781-0.0137c1.0604 8.5528 3.4191 16.887 6.9863 24.719a10.495 10.495 0 0 1 2.0195-0.68945c-3.512-7.6586-5.8351-15.816-6.8828-24.188z" color="#000000" color-rendering="auto" dominant-baseline="auto" image-rendering="auto" shape-rendering="auto" solid-color="#000000" style="font-feature-settings:normal;font-variant-alternates:normal;font-variant-caps:normal;font-variant-ligatures:normal;font-variant-numeric:normal;font-variant-position:normal;isolation:auto;mix-blend-mode:normal;shape-padding:0;text-decoration-color:#000000;text-decoration-line:none;text-decoration-style:solid;text-indent:0;text-orientation:mixed;text-transform:none;white-space:normal"/>
     <path d="m15.008 295.62c0.76244 0.44023 1.0237 1.4153 0.58352 2.1778-0.44027 0.76251-1.4154 1.0238-2.1778 0.58352-0.76254-0.4402-1.0238-1.4152-0.58352-2.1777 0.44016-0.76248 1.4153-1.0238 2.1778-0.58354" enable-background="new"/>
     <path d="m15.503 302.15c0.8503 0.22787 1.355 1.102 1.1272 1.9523-0.22791 0.85039-1.1021 1.3551-1.9524 1.1272-0.85043-0.22784-1.3551-1.102-1.1272-1.9523 0.2278-0.85035 1.1019-1.3551 1.9524-1.1272" enable-background="new"/>
     <path d="m65.402 288.78c0.8503 0.22788 1.355 1.102 1.1272 1.9523-0.22791 0.85041-1.1021 1.3551-1.9524 1.1272-0.85043-0.22785-1.3551-1.102-1.1272-1.9524 0.22778-0.85034 1.1019-1.355 1.9524-1.1272" enable-background="new"/>
     <path d="m17.671 308.32c0.88053 5e-5 1.5944 0.71394 1.5945 1.5945-4.3e-5 0.88062-0.71396 1.5946-1.5945 1.5945-0.88062 3e-5 -1.5945-0.71386-1.5945-1.5945-4.3e-5 -0.88054 0.71388-1.5945 1.5945-1.5945" enable-background="new"/>
     <path d="m62.409 282.49c0.88053 4e-5 1.5944 0.71393 1.5945 1.5945-4.3e-5 0.88061-0.71396 1.5946-1.5945 1.5945-0.88062 3e-5 -1.5945-0.71386-1.5945-1.5945-2.8e-5 -0.88054 0.71389-1.5945 1.5945-1.5945" enable-background="new"/>
     <path d="m21.363 313.73c0.85032-0.2278 1.7245 0.27688 1.9523 1.1272 0.22783 0.85041-0.27688 1.7246-1.1272 1.9524-0.8504 0.2279-1.7245-0.27676-1.9523-1.1272-0.2279-0.85031 0.2768-1.7245 1.1272-1.9524" enable-background="new"/>
     <path d="m57.891 277.2c0.85033-0.2278 1.7245 0.27686 1.9523 1.1272 0.22783 0.85041-0.27688 1.7246-1.1272 1.9524-0.8504 0.22791-1.7245-0.27678-1.9523-1.1272-0.2279-0.8503 0.2768-1.7245 1.1272-1.9524" enable-background="new"/>
     <path d="m26.328 317.99c0.76246-0.44017 1.7375-0.17891 2.1778 0.58352 0.44022 0.76252 0.17894 1.7376-0.58354 2.1778-0.76251 0.44027-1.7375 0.17901-2.1777-0.58353-0.44024-0.76242-0.17898-1.7375 0.58352-2.1778" enable-background="new"/>
     <path d="m52.157 273.25c0.76246-0.44017 1.7375-0.17891 2.1778 0.58353 0.44022 0.76252 0.17894 1.7376-0.58354 2.1778-0.76251 0.44027-1.7375 0.17901-2.1777-0.58352-0.44024-0.76242-0.17898-1.7375 0.58352-2.1778" enable-background="new"/>
     <path d="m45.597 270.93c0.62268-0.62261 1.6323-0.62262 2.255 0 0.62267 0.62272 0.62267 1.6324 0 2.255-0.62268 0.62271-1.6323 0.62271-2.255 0-0.62267-0.6226-0.62267-1.6323 0-2.255" enable-background="new"/>
     <path d="m38.659 270.38c0.44024-0.76244 1.4153-1.0237 2.1778-0.58353 0.76251 0.44027 1.0238 1.4154 0.58354 2.1778-0.4402 0.76254-1.4153 1.0238-2.1778 0.58353-0.76246-0.44016-1.0237-1.4152-0.58354-2.1778" enable-background="new"/>
     <path d="m31.815 271.64c0.22788-0.8503 1.102-1.355 1.9523-1.1272 0.85041 0.22792 1.3551 1.1021 1.1272 1.9524-0.22784 0.85043-1.102 1.3551-1.9523 1.1272-0.85034-0.22778-1.355-1.1019-1.1272-1.9524" enable-background="new"/>
     <path d="m51.36 319.37c4.3e-5 -0.88053 0.71393-1.5944 1.5945-1.5945 0.88062 4e-5 1.5946 0.71396 1.5945 1.5945 2.9e-5 0.88062-0.71386 1.5945-1.5945 1.5945-0.88054 4e-5 -1.5945-0.71388-1.5945-1.5945" enable-background="new"/>
     <path d="m25.531 274.63c4.3e-5 -0.88054 0.71393-1.5944 1.5945-1.5945 0.88062 4e-5 1.5946 0.71396 1.5945 1.5945 2.9e-5 0.88062-0.71386 1.5945-1.5945 1.5945-0.88055 3e-5 -1.5945-0.71389-1.5945-1.5945" enable-background="new"/>
     <path d="m56.764 315.68c-0.2278-0.85032 0.27687-1.7244 1.1272-1.9523 0.85041-0.22783 1.7246 0.27688 1.9524 1.1272 0.2279 0.85039-0.27676 1.7245-1.1272 1.9523-0.85031 0.2279-1.7245-0.27681-1.9524-1.1272" enable-background="new"/>
     <path d="m20.236 279.15c-0.2278-0.85032 0.27686-1.7244 1.1272-1.9523 0.85041-0.22783 1.7246 0.27688 1.9524 1.1272 0.22791 0.85039-0.27677 1.7245-1.1272 1.9523-0.8503 0.2279-1.7245-0.27681-1.9524-1.1272" enable-background="new"/>
     <path d="m61.028 310.71c-0.44017-0.76246-0.17891-1.7375 0.58352-2.1778 0.76252-0.44021 1.7376-0.17893 2.1778 0.58354 0.44027 0.76251 0.17901 1.7376-0.58352 2.1778-0.76242 0.44024-1.7375 0.17898-2.1778-0.58353" enable-background="new"/>
     <path d="m16.29 284.88c-0.44017-0.76247-0.17891-1.7375 0.58352-2.1778 0.76252-0.44022 1.7376-0.17894 2.1778 0.58354 0.44027 0.7625 0.17901 1.7375-0.58352 2.1777-0.76242 0.44025-1.7375 0.17898-2.1778-0.58352" enable-background="new"/>
     <path d="m63.861 304.81c-0.62261-0.62269-0.62263-1.6323 0-2.255 0.62271-0.62267 1.6324-0.62267 2.255 0 0.62271 0.62268 0.62271 1.6323 0 2.255-0.6226 0.62267-1.6323 0.62267-2.255 0" enable-background="new"/>
     <path d="m13.963 291.44c-0.62261-0.62268-0.62263-1.6323 0-2.255 0.62271-0.62267 1.6324-0.62267 2.255 0 0.62271 0.62268 0.62271 1.6323 0 2.255-0.6226 0.62267-1.6323 0.62267-2.255 0" enable-background="new"/>
     <path d="m81.856 170.98c0.60127 0.34718 0.8073 1.1161 0.46018 1.7174-0.34721 0.60133-1.1162 0.80736-1.7174 0.46018-0.60135-0.34715-0.80738-1.1161-0.46018-1.7174 0.34712-0.6013 1.1161-0.80735 1.7174-0.46019" enable-background="new"/>
     <path d="m122.59 170.98c0.60127 0.34718 0.80731 1.1161 0.46018 1.7174-0.3472 0.60133-1.1162 0.80736-1.7174 0.46018-0.60134-0.34715-0.80738-1.1161-0.46017-1.7174 0.34711-0.6013 1.1161-0.80735 1.7174-0.46019" enable-background="new"/>
     <path d="m82.246 176.13c0.67056 0.17971 1.0686 0.86906 0.88892 1.5396-0.17974 0.67064-0.86911 1.0687-1.5397 0.88894-0.67066-0.17968-1.0687-0.86902-0.88892-1.5396 0.17965-0.6706 0.86901-1.0686 1.5397-0.88894" enable-background="new"/>
     <path d="m121.6 165.59c0.67056 0.17971 1.0686 0.86905 0.88892 1.5396-0.17974 0.67065-0.86912 1.0687-1.5397 0.88894-0.67066-0.17968-1.0687-0.86903-0.88892-1.5396 0.17963-0.6706 0.86901-1.0686 1.5397-0.88894" enable-background="new"/>
     <path d="m83.956 181c0.6944 4e-5 1.2574 0.56302 1.2574 1.2574-3.4e-5 0.69447-0.56304 1.2575-1.2575 1.2575-0.69447 2e-5 -1.2575-0.56296-1.2574-1.2574-3.4e-5 -0.69442 0.56297-1.2574 1.2575-1.2575" enable-background="new"/>
     <path d="m119.24 160.63c0.6944 3e-5 1.2574 0.56302 1.2574 1.2574-4e-5 0.69447-0.56305 1.2575-1.2575 1.2575-0.69447 2e-5 -1.2574-0.56297-1.2574-1.2574-2e-5 -0.69441 0.56299-1.2574 1.2575-1.2574" enable-background="new"/>
     <path d="m86.868 185.26c0.67058-0.17964 1.3599 0.21835 1.5396 0.88892 0.17967 0.67065-0.21835 1.36-0.88894 1.5397-0.67064 0.17973-1.36-0.21825-1.5396-0.88891-0.17973-0.67057 0.21829-1.36 0.88894-1.5397" enable-background="new"/>
     <path d="m115.67 156.45c0.67058-0.17965 1.3599 0.21834 1.5396 0.88892 0.17967 0.67065-0.21835 1.36-0.88894 1.5397-0.67064 0.17974-1.36-0.21827-1.5396-0.88893-0.17973-0.67056 0.21829-1.3599 0.88894-1.5397" enable-background="new"/>
     <path d="m111.15 153.34c0.60129-0.34713 1.3702-0.1411 1.7174 0.46017 0.34716 0.60134 0.14111 1.3703-0.46019 1.7174-0.60133 0.34721-1.3703 0.14117-1.7174-0.46018-0.34718-0.60125-0.14115-1.3702 0.46018-1.7174" enable-background="new"/>
     <path d="m105.98 151.51c0.49106-0.491 1.2872-0.49101 1.7783 0 0.49105 0.49109 0.49105 1.2873 0 1.7783-0.49106 0.49108-1.2872 0.49108-1.7783 0-0.49105-0.491-0.49105-1.2872 0-1.7783" enable-background="new"/>
     <path d="m100.51 151.07c0.34718-0.60127 1.1161-0.8073 1.7174-0.46018 0.60132 0.34721 0.80737 1.1162 0.46018 1.7174-0.34715 0.60135-1.1161 0.80739-1.7174 0.46018-0.6013-0.34711-0.80734-1.1161-0.46019-1.7174" enable-background="new"/>
     <path d="m95.11 152.07c0.17971-0.67056 0.86906-1.0686 1.5396-0.88892 0.67065 0.17974 1.0687 0.86912 0.88894 1.5397-0.17968 0.67066-0.86902 1.0687-1.5396 0.88891-0.67059-0.17963-1.0686-0.86901-0.88894-1.5397" enable-background="new"/>
     <path d="m90.154 154.43c3.4e-5 -0.6944 0.56302-1.2574 1.2574-1.2574 0.69447 3e-5 1.2575 0.56304 1.2575 1.2574 2.3e-5 0.69447-0.56296 1.2574-1.2574 1.2574-0.69441 2e-5 -1.2574-0.56299-1.2575-1.2575" enable-background="new"/>
     <path d="m114.79 186.8c-0.17965-0.67058 0.21835-1.3599 0.88892-1.5396 0.67065-0.17966 1.36 0.21835 1.5397 0.88894 0.17973 0.67064-0.21826 1.36-0.88892 1.5396-0.67057 0.17973-1.36-0.21829-1.5397-0.88894" enable-background="new"/>
     <path d="m85.979 157.99c-0.17965-0.67058 0.21834-1.3599 0.88892-1.5396 0.67065-0.17967 1.36 0.21835 1.5397 0.88894 0.17974 0.67064-0.21827 1.36-0.88893 1.5396-0.67056 0.17973-1.3599-0.21829-1.5397-0.88894" enable-background="new"/>
     <path d="m118.15 182.89c-0.34713-0.60129-0.14109-1.3702 0.46017-1.7174 0.60134-0.34716 1.3703-0.14111 1.7174 0.46019 0.34721 0.60132 0.14117 1.3703-0.46017 1.7174-0.60126 0.34718-1.3702 0.14114-1.7174-0.46018" enable-background="new"/>
     <path d="m82.867 162.52c-0.34713-0.60129-0.14109-1.3702 0.46018-1.7174 0.60134-0.34717 1.3703-0.14112 1.7174 0.46018 0.34721 0.60133 0.14117 1.3703-0.46018 1.7174-0.60126 0.34719-1.3702 0.14115-1.7174-0.46018" enable-background="new"/>
     <path d="m120.38 178.23c-0.49101-0.49106-0.49102-1.2872 0-1.7783 0.49108-0.49105 1.2873-0.49105 1.7783 0 0.49108 0.49106 0.49108 1.2872 0 1.7783-0.49099 0.49105-1.2872 0.49105-1.7783 0" enable-background="new"/>
     <path d="m81.032 167.69c-0.491-0.49106-0.49102-1.2872 0-1.7783 0.49108-0.49105 1.2873-0.49105 1.7783 0 0.49108 0.49106 0.49108 1.2872 0 1.7783-0.49099 0.49105-1.2872 0.49105-1.7783 0" enable-background="new"/>
    </g>
    <path d="m64.151 297.06h26.11" stroke="#fff" stroke-linecap="round" stroke-linejoin="round" stroke-width="2.5291"/>
   </g>
   <g fill="none" stroke="#fff" stroke-linecap="square">
    <path d="m15.568 377.86 5.1367-4.5663 10.007 9.0361 5.0481-4.4698" stroke-width="1.8968"/>
    <path d="m13.787 377.77h23.786" stroke-width=".84304"/>
    <path d="m108.36 431.71v-4.8146h10.048v8.912h10.048v-5.5834" stroke-width="1.8968"/>
    <path d="m106.45 431.19h23.786" stroke-width=".84304"/>
    <path d="m106.14 377.89 2.3257-3.4999c0.68488-1.0306 2.489-1.4947 4.0295-1.0366 0.69589 0.20698 1.251 0.58052 1.5564 1.0472l4.4631 6.8207c0.6761 1.0332 2.4762 1.5042 4.0207 1.0519 0.696-0.20384 1.2534-0.57403 1.5632-1.0382l2.233-3.3452" stroke-width="1.8968"/>
    <path d="m104.36 377.82h23.786" stroke-width=".84304"/>
    <path d="m15.695 431.71 5.1366-4.4546-0.04172 8.9124 10.296-8.8131v8.9411l4.8009-4.5858" stroke-width="1.8968"/>
    <path d="m13.787 431.62h23.786" stroke-width=".84304"/>
   </g>
   <g fill="#fff">
    <g>
     <path d="m60.477 316.03v8.064c0 0.378 0.294 0.672 0.672 0.672 0.364 0 0.672-0.294 0.672-0.672v-3.248h1.008c1.302 0 2.352-1.05 2.352-2.352v-0.784c0-1.302-1.05-2.352-2.352-2.352h-1.68c-0.378 0-0.672 0.308-0.672 0.672zm3.36 1.68v0.784c0 0.56-0.448 1.008-1.008 1.008h-1.008v-2.8h1.008c0.56 0 1.008 0.448 1.008 1.008z"/>
     <path d="m66.093 315.32c-0.35 0.098-0.574 0.462-0.49 0.812l1.96 8.12c0.07 0.308 0.35 0.518 0.658 0.518s0.574-0.21 0.644-0.518c0 0 0.728-3.01 1.316-5.404 0.574 2.394 1.302 5.404 1.302 5.404 0.07 0.308 0.35 0.518 0.658 0.518s0.574-0.21 0.644-0.518l1.96-8.12c0.098-0.35-0.126-0.714-0.49-0.812-0.364-0.084-0.728 0.14-0.812 0.504 0 0-0.728 3.01-1.302 5.404-0.588-2.394-1.316-5.404-1.316-5.404-0.07-0.308-0.336-0.518-0.644-0.518s-0.588 0.21-0.658 0.518c0 0-0.728 3.01-1.302 5.404-0.588-2.394-1.316-5.404-1.316-5.404-0.084-0.364-0.448-0.588-0.812-0.504z"/>
     <path d="m76.396 324.77c0.364 0 0.672-0.294 0.672-0.672v-5.11c0.462 0.994 0.952 2.03 0.952 2.03 0.112 0.238 0.35 0.392 0.616 0.392 0.252 0 0.49-0.154 0.602-0.392 0 0 0.49-1.036 0.966-2.03v5.11c0 0.378 0.294 0.672 0.672 0.672 0.364 0 0.672-0.294 0.672-0.672v-8.12c0-0.308-0.224-0.588-0.532-0.658s-0.616 0.084-0.756 0.378c0 0-0.98 2.086-1.624 3.458-0.644-1.372-1.638-3.458-1.638-3.458-0.126-0.294-0.448-0.448-0.756-0.378s-0.518 0.35-0.518 0.658v8.12c0 0.378 0.294 0.672 0.672 0.672z"/>
     <path d="m105.6 261.71v3.248h-2.016v-3.248c0-0.364-0.294-0.672-0.672-0.672-0.364 0-0.672 0.308-0.672 0.672v8.12c0 0.378 0.308 0.672 0.672 0.672 0.378 0 0.672-0.294 0.672-0.672v-3.528h2.016v3.528c0 0.378 0.308 0.672 0.672 0.672 0.378 0 0.672-0.294 0.672-0.672v-8.12c0-0.364-0.294-0.672-0.672-0.672-0.364 0-0.672 0.308-0.672 0.672z"/>
     <path d="m107.89 269.69c0 0.448 0.364 0.812 0.812 0.812s0.812-0.364 0.812-0.812-0.364-0.812-0.812-0.812-0.812 0.364-0.812 0.812z"/>
     <path d="m113.46 268.94c-0.252 0.196-0.56 0.266-0.868 0.21-0.308-0.07-0.56-0.252-0.714-0.518-0.196-0.322-0.602-0.434-0.924-0.252s-0.434 0.602-0.238 0.924c0.336 0.588 0.924 1.022 1.61 1.162 0.686 0.126 1.386-0.028 1.946-0.448 0.546-0.42 0.896-1.05 0.952-1.75 0.056-0.686-0.196-1.372-0.686-1.876l-2.226-2.296c-0.21-0.21-0.308-0.49-0.28-0.77 0.014-0.294 0.154-0.56 0.392-0.728 0.238-0.182 0.518-0.252 0.812-0.196 0.28 0.07 0.518 0.238 0.672 0.49 0.182 0.322 0.588 0.434 0.91 0.252 0.322-0.196 0.434-0.602 0.252-0.924-0.336-0.588-0.91-0.994-1.568-1.134-0.658-0.126-1.358 0.028-1.89 0.434s-0.868 1.022-0.924 1.694 0.182 1.344 0.658 1.82l2.24 2.296c0.21 0.224 0.322 0.532 0.294 0.84s-0.168 0.588-0.42 0.77z"/>
     <path d="m118.09 270.51c0.364 0 0.672-0.294 0.672-0.672v-4.046l1.89-3.766c0.168-0.336 0.028-0.742-0.308-0.91-0.322-0.168-0.728-0.028-0.896 0.308 0 0-0.784 1.554-1.358 2.716-0.574-1.162-1.358-2.716-1.358-2.716-0.168-0.336-0.574-0.476-0.896-0.308-0.336 0.168-0.476 0.574-0.308 0.91l1.89 3.766v4.046c0 0.378 0.294 0.672 0.672 0.672z"/>
     <path d="m126.07 270.49c0.294-0.07 0.518-0.35 0.518-0.658v-8.12c0-0.364-0.308-0.672-0.672-0.672-0.378 0-0.672 0.308-0.672 0.672v5.18c-1.162-2.408-2.646-5.474-2.646-5.474-0.14-0.28-0.448-0.434-0.756-0.364s-0.518 0.35-0.518 0.658v8.12c0 0.378 0.294 0.672 0.672 0.672 0.364 0 0.672-0.294 0.672-0.672v-5.18c1.162 2.408 2.646 5.474 2.646 5.474 0.126 0.28 0.448 0.434 0.756 0.364z"/>
     <path d="m129.31 270.42c1.036 0.28 2.114-0.168 2.646-1.092 0.196-0.322 0.084-0.728-0.238-0.924-0.322-0.182-0.728-0.07-0.924 0.252-0.224 0.392-0.686 0.588-1.134 0.476-0.434-0.126-0.742-0.518-0.742-0.98v-4.76c0-0.448 0.308-0.854 0.742-0.966 0.448-0.126 0.91 0.07 1.134 0.462 0.196 0.322 0.602 0.434 0.924 0.252 0.322-0.196 0.434-0.602 0.238-0.924-0.532-0.924-1.61-1.372-2.646-1.092-1.022 0.266-1.736 1.204-1.736 2.268v4.76c0 1.064 0.714 2.002 1.736 2.268z"/>
     <path d="m66.09 264.25c0.378 0 0.672-0.294 0.672-0.672v-3.472h1.848c0.378 0 0.672-0.294 0.672-0.672 0-0.364-0.294-0.672-0.672-0.672h-1.848v-2.52h2.128c0.378 0 0.672-0.294 0.672-0.672 0-0.364-0.294-0.672-0.672-0.672h-2.8c-0.364 0-0.672 0.308-0.672 0.672v8.008c0 0.378 0.308 0.672 0.672 0.672z"/>
     <path d="m71.062 264.31c0.364 0 0.672-0.294 0.672-0.672v-5.11c0.462 0.994 0.952 2.03 0.952 2.03 0.112 0.238 0.35 0.392 0.616 0.392 0.252 0 0.49-0.154 0.602-0.392 0 0 0.49-1.036 0.966-2.03v5.11c0 0.378 0.294 0.672 0.672 0.672 0.364 0 0.672-0.294 0.672-0.672v-8.12c0-0.308-0.224-0.588-0.532-0.658s-0.616 0.084-0.756 0.378c0 0-0.98 2.086-1.624 3.458-0.644-1.372-1.638-3.458-1.638-3.458-0.126-0.294-0.448-0.448-0.756-0.378s-0.518 0.35-0.518 0.658v8.12c0 0.378 0.294 0.672 0.672 0.672z"/>
     <path d="m25.584 233.1c0.084 0.294 0.35 0.49 0.658 0.49 0.294 0 0.56-0.196 0.644-0.49l2.24-8.12c0.098-0.364-0.112-0.728-0.476-0.826-0.35-0.098-0.728 0.112-0.826 0.462 0 0-0.938 3.402-1.582 5.782-0.658-2.38-1.596-5.782-1.596-5.782-0.098-0.35-0.476-0.56-0.826-0.462-0.364 0.098-0.574 0.462-0.476 0.826z"/>
     <path d="m32.783 223.61c-0.35-0.126-0.742 0.056-0.868 0.406l-3.36 9.24c-0.126 0.35 0.056 0.728 0.406 0.854s0.728-0.056 0.854-0.406l3.36-9.24c0.14-0.336-0.042-0.728-0.392-0.854z"/>
     <path d="m35.75 233.59c1.302 0 2.352-1.05 2.352-2.352v-4.76c0-1.302-1.05-2.352-2.352-2.352s-2.352 1.05-2.352 2.352v4.76c0 1.302 1.05 2.352 2.352 2.352zm0-8.12c0.56 0 1.008 0.448 1.008 1.008v4.76c0 0.56-0.448 1.008-1.008 1.008s-1.008-0.448-1.008-1.008v-4.76c0-0.56 0.448-1.008 1.008-1.008z"/>
     <path d="m40.958 233.5c1.036 0.28 2.114-0.168 2.646-1.092 0.196-0.322 0.084-0.728-0.238-0.924-0.322-0.182-0.728-0.07-0.924 0.252-0.224 0.392-0.686 0.588-1.134 0.476-0.434-0.126-0.742-0.518-0.742-0.98v-4.76c0-0.448 0.308-0.854 0.742-0.966 0.448-0.126 0.91 0.07 1.134 0.462 0.196 0.322 0.602 0.434 0.924 0.252 0.322-0.196 0.434-0.602 0.238-0.924-0.532-0.924-1.61-1.372-2.646-1.092-1.022 0.266-1.736 1.204-1.736 2.268v4.76c0 1.064 0.714 2.002 1.736 2.268z"/>
     <path d="m44.828 224.18c-0.364 0-0.672 0.308-0.672 0.672 0 0.378 0.308 0.672 0.672 0.672h1.148v7.392c0 0.378 0.308 0.672 0.672 0.672 0.378 0 0.672-0.294 0.672-0.672v-7.392h1.148c0.378 0 0.672-0.294 0.672-0.672 0-0.364-0.294-0.672-0.672-0.672z"/>
     <path d="m91.03 197.92c-0.364 0-0.672 0.308-0.672 0.672 0 0.378 0.308 0.672 0.672 0.672h1.148v7.392c0 0.378 0.308 0.672 0.672 0.672 0.378 0 0.672-0.294 0.672-0.672v-7.392h1.148c0.378 0 0.672-0.294 0.672-0.672 0-0.364-0.294-0.672-0.672-0.672z"/>
     <path d="m97.422 204.98v-6.44c0-0.364-0.308-0.672-0.672-0.672-0.378 0-0.672 0.308-0.672 0.672v6.44c0 1.302 1.05 2.352 2.352 2.352 1.288 0 2.352-1.05 2.352-2.352v-6.44c0-0.364-0.308-0.672-0.672-0.672-0.378 0-0.672 0.308-0.672 0.672v6.44c0 0.56-0.462 1.008-1.008 1.008-0.56 0-1.008-0.448-1.008-1.008z"/>
     <path d="m106.81 207.32c0.294-0.07 0.518-0.35 0.518-0.658v-8.12c0-0.364-0.308-0.672-0.672-0.672-0.378 0-0.672 0.308-0.672 0.672v5.18c-1.162-2.408-2.646-5.474-2.646-5.474-0.14-0.28-0.448-0.434-0.756-0.364s-0.518 0.35-0.518 0.658v8.12c0 0.378 0.294 0.672 0.672 0.672 0.364 0 0.672-0.294 0.672-0.672v-5.18c1.162 2.408 2.646 5.474 2.646 5.474 0.126 0.28 0.448 0.434 0.756 0.364z"/>
     <path d="m108.73 198.59v8.008c0 0.378 0.308 0.672 0.672 0.672h2.8c0.378 0 0.672-0.294 0.672-0.672 0-0.364-0.294-0.672-0.672-0.672h-2.128v-2.8h1.848c0.378 0 0.672-0.294 0.672-0.672 0-0.364-0.294-0.672-0.672-0.672h-1.848v-2.52h2.128c0.378 0 0.672-0.294 0.672-0.672 0-0.364-0.294-0.672-0.672-0.672h-2.8c-0.364 0-0.672 0.308-0.672 0.672z"/>
     <path d="m111.43 192.18h-0.72v-0.72c0-0.26-0.22-0.48-0.48-0.48-0.27 0-0.48 0.22-0.48 0.48v0.72h-0.72c-0.27 0-0.48 0.22-0.48 0.48 0 0.27 0.21 0.48 0.48 0.48h0.72v0.72c0 0.27 0.21 0.48 0.48 0.48 0.26 0 0.48-0.21 0.48-0.48v-0.72h0.72c0.26 0 0.48-0.21 0.48-0.48 0-0.26-0.22-0.48-0.48-0.48z"/>
     <path d="m113.1 190.78c0.27 0 0.48-0.21 0.48-0.48v-0.32h1.31c-0.23 0.96-1.25 5.17-1.25 5.17-0.01 0.04-0.02 0.07-0.02 0.11 0 0.22 0.15 0.41 0.37 0.47 0.26 0.06 0.52-0.1 0.58-0.36l1.4-5.76c0.03-0.14 0-0.29-0.09-0.41-0.09-0.11-0.23-0.18-0.38-0.18h-2.4c-0.26 0-0.48 0.22-0.48 0.48v0.8c0 0.27 0.22 0.48 0.48 0.48z"/>
     <path d="m86.63 193.14h2.4c0.26 0 0.48-0.21 0.48-0.48 0-0.26-0.22-0.48-0.48-0.48h-2.4c-0.27 0-0.48 0.22-0.48 0.48 0 0.27 0.21 0.48 0.48 0.48z"/>
     <path d="m90.7 190.78c0.27 0 0.48-0.21 0.48-0.48v-0.32h1.31c-0.23 0.96-1.25 5.17-1.25 5.17-0.01 0.04-0.02 0.07-0.02 0.11 0 0.22 0.15 0.41 0.37 0.47 0.26 0.06 0.52-0.1 0.58-0.36l1.4-5.76c0.03-0.14 0-0.29-0.09-0.41-0.09-0.11-0.23-0.18-0.38-0.18h-2.4c-0.26 0-0.48 0.22-0.48 0.48v0.8c0 0.27 0.22 0.48 0.48 0.48z"/>
     <path d="m42.377 439.04v10.186h10.486v-8.3711h-7.0449v-1.7441zm3.4414 4.2793h3.7207v1.2793h-0.55859v-0.9082h-0.90625v0.97851h-0.1875l-1.5332-1.0469v1h-0.53516zm3.1152 2.1152h0.62891v1.2109h-3.7676v-1.1641h0.55859v0.97656l1.5566-1h0.23242v0.93164h0.79102z"/>
     <path d="m58.351 443.34h-4.1856v-2.4881h8.5108v2.1393l-2.0696 2.0928 2.0696 2.0928-0.04649 2.0928h-8.4643v-2.6276h4.0694l-1.5812-1.558z"/>
     <path d="m63.955 449.25h2.9764v-2.4184h1.3022l1.7905-1.744-1.7673-1.7673h4.2321v-2.4649h-8.5108v2.1161l1.9998 2.0463h-2.0231z"/>
     <path d="m75.814 440.83-4.0918 3.582v4.8594l2.9531-0.0234v-1.2793h2.6504v1.3027h2.9062v-8.4414zm1.418 2.4883v2.0703h-2.4648z"/>
     <path d="m81.489 440.85h8.534v3.4648h-2.9764v-0.97665h-2.6044v3.302h5.5808v2.6509h-8.534z"/>
     <path d="m94.066 440.86v0.69531l-2.834 0.0137v6.9297h2.8125v0.76758h2.8848v-0.76758h2.8496v-6.9434h-2.8418v-0.69531zm0.14062 2.8711h2.5879v2.541h-2.5879z"/>
     <path d="m60.477 401.91v8.008c0 0.378 0.308 0.672 0.672 0.672h2.8c0.378 0 0.672-0.294 0.672-0.672 0-0.364-0.294-0.672-0.672-0.672h-2.128v-2.8h1.848c0.378 0 0.672-0.294 0.672-0.672 0-0.364-0.294-0.672-0.672-0.672h-1.848v-2.52h2.128c0.378 0 0.672-0.294 0.672-0.672 0-0.364-0.294-0.672-0.672-0.672h-2.8c-0.364 0-0.672 0.308-0.672 0.672z"/>
     <path d="m67.322 410.15c0.084 0.294 0.35 0.49 0.658 0.49 0.294 0 0.56-0.196 0.644-0.49l2.24-8.12c0.098-0.364-0.112-0.728-0.476-0.826-0.35-0.098-0.728 0.112-0.826 0.462 0 0-0.938 3.402-1.582 5.782-0.658-2.38-1.596-5.782-1.596-5.782-0.098-0.35-0.476-0.56-0.826-0.462-0.364 0.098-0.574 0.462-0.476 0.826z"/>
     <path d="m71.76 401.91v8.008c0 0.378 0.308 0.672 0.672 0.672h2.8c0.378 0 0.672-0.294 0.672-0.672 0-0.364-0.294-0.672-0.672-0.672h-2.128v-2.8h1.848c0.378 0 0.672-0.294 0.672-0.672 0-0.364-0.294-0.672-0.672-0.672h-1.848v-2.52h2.128c0.378 0 0.672-0.294 0.672-0.672 0-0.364-0.294-0.672-0.672-0.672h-2.8c-0.364 0-0.672 0.308-0.672 0.672z"/>
     <path d="m81.586 410.63c0.294-0.07 0.518-0.35 0.518-0.658v-8.12c0-0.364-0.308-0.672-0.672-0.672-0.378 0-0.672 0.308-0.672 0.672v5.18c-1.162-2.408-2.646-5.474-2.646-5.474-0.14-0.28-0.448-0.434-0.756-0.364s-0.518 0.35-0.518 0.658v8.12c0 0.378 0.294 0.672 0.672 0.672 0.364 0 0.672-0.294 0.672-0.672v-5.18c1.162 2.408 2.646 5.474 2.646 5.474 0.126 0.28 0.448 0.434 0.756 0.364z"/>
    </g>
    <path d="m57.305 142.07c1.302 0 2.352-1.05 2.352-2.352v-4.76c0-1.302-1.05-2.352-2.352-2.352s-2.352 1.05-2.352 2.352v4.76c0 1.302 1.05 2.352 2.352 2.352zm0-8.12c0.56 0 1.008 0.448 1.008 1.008v4.76c0 0.56-0.448 1.008-1.008 1.008s-1.008-0.448-1.008-1.008v-4.76c0-0.56 0.448-1.008 1.008-1.008z"/>
    <path d="m62.453 141.98c1.036 0.28 2.114-0.168 2.646-1.092 0.196-0.322 0.084-0.728-0.238-0.924-0.322-0.182-0.728-0.07-0.924 0.252-0.224 0.392-0.686 0.588-1.134 0.476-0.434-0.126-0.742-0.518-0.742-0.98v-4.76c0-0.448 0.308-0.854 0.742-0.966 0.448-0.126 0.91 0.07 1.134 0.462 0.196 0.322 0.602 0.434 0.924 0.252 0.322-0.196 0.434-0.602 0.238-0.924-0.532-0.924-1.61-1.372-2.646-1.092-1.022 0.266-1.736 1.204-1.736 2.268v4.76c0 1.064 0.714 2.002 1.736 2.268z"/>
    <path d="m66.324 132.66c-0.364 0-0.672 0.308-0.672 0.672 0 0.378 0.308 0.672 0.672 0.672h1.148v7.392c0 0.378 0.308 0.672 0.672 0.672 0.378 0 0.672-0.294 0.672-0.672v-7.392h1.148c0.378 0 0.672-0.294 0.672-0.672 0-0.364-0.294-0.672-0.672-0.672z"/>
    <path d="m73.713 133.09c-0.07-0.294-0.336-0.49-0.644-0.49s-0.574 0.196-0.644 0.49l-2.24 8.12c-0.098 0.364 0.112 0.728 0.462 0.826 0.364 0.098 0.728-0.112 0.826-0.462 0 0 0.168-0.602 0.406-1.47h2.38c0.238 0.868 0.406 1.47 0.406 1.47 0.098 0.35 0.462 0.56 0.826 0.462 0.35-0.098 0.56-0.462 0.462-0.826zm-1.456 5.67c0.266-0.966 0.56-2.044 0.812-2.954 0.252 0.91 0.546 1.988 0.812 2.954z"/>
    <path d="m77.973 141.58c0.084 0.294 0.35 0.49 0.658 0.49 0.294 0 0.56-0.196 0.644-0.49l2.24-8.12c0.098-0.364-0.112-0.728-0.476-0.826-0.35-0.098-0.728 0.112-0.826 0.462 0 0-0.938 3.402-1.582 5.782-0.658-2.38-1.596-5.782-1.596-5.782-0.098-0.35-0.476-0.56-0.826-0.462-0.364 0.098-0.574 0.462-0.476 0.826z"/>
    <path d="m82.411 133.33v8.008c0 0.378 0.308 0.672 0.672 0.672h2.8c0.378 0 0.672-0.294 0.672-0.672 0-0.364-0.294-0.672-0.672-0.672h-2.128v-2.8h1.848c0.378 0 0.672-0.294 0.672-0.672 0-0.364-0.294-0.672-0.672-0.672h-1.848v-2.52h2.128c0.378 0 0.672-0.294 0.672-0.672 0-0.364-0.294-0.672-0.672-0.672h-2.8c-0.364 0-0.672 0.308-0.672 0.672z"/>
    <g>
     <path d="m30.087 122.12c-0.352 0.088-0.715-0.066-0.891-0.374-0.154-0.253-0.473-0.341-0.726-0.198-0.253 0.154-0.341 0.473-0.198 0.726 0.418 0.726 1.276 1.078 2.079 0.858 0.814-0.209 1.375-0.946 1.375-1.782v-0.66c0-0.517-0.209-0.979-0.561-1.32 0.352-0.33 0.561-0.803 0.561-1.32v-0.44c0-0.836-0.561-1.573-1.375-1.782-0.803-0.22-1.661 0.132-2.079 0.858-0.143 0.253-0.055 0.572 0.198 0.726 0.253 0.143 0.572 0.055 0.726-0.198 0.176-0.308 0.539-0.462 0.891-0.363 0.341 0.088 0.583 0.407 0.583 0.759v0.44c0 0.44-0.352 0.792-0.792 0.792-0.297 0-0.528 0.242-0.528 0.528 0 0.297 0.231 0.528 0.528 0.528 0.44 0 0.792 0.352 0.792 0.792v0.66c0 0.363-0.242 0.671-0.583 0.77z"/>
     <path d="m33.14 117.41c0.253 0.143 0.572 0.055 0.715-0.198 0.11-0.176 0.275-0.308 0.473-0.363 0.209-0.055 0.418-0.033 0.605 0.066 0.176 0.099 0.308 0.264 0.374 0.462 0.055 0.198 0.033 0.418-0.055 0.605l-2.321 4.4c-0.077 0.165-0.077 0.352 0.022 0.517 0.099 0.154 0.264 0.253 0.451 0.253h2.464c0.286 0 0.528-0.231 0.528-0.528 0-0.286-0.242-0.528-0.528-0.528h-1.595c0.561-1.056 1.914-3.63 1.914-3.63 0.22-0.429 0.264-0.924 0.132-1.386-0.143-0.473-0.451-0.858-0.88-1.089s-0.924-0.297-1.386-0.165c-0.473 0.132-0.869 0.44-1.111 0.858-0.143 0.253-0.055 0.572 0.198 0.726z"/>
     <path d="m38.492 117.39v-1.1c0-0.286-0.242-0.528-0.528-0.528-0.297 0-0.528 0.242-0.528 0.528v1.1c0 0.297 0.231 0.528 0.528 0.528 0.286 0 0.528-0.231 0.528-0.528z"/>
     <path d="m16.58 94.703s0.231-0.242 0.418-0.418v5.104c0 0.297 0.231 0.528 0.528 0.528 0.286 0 0.528-0.231 0.528-0.528v-6.38c0-0.209-0.132-0.407-0.33-0.484-0.198-0.088-0.418-0.044-0.572 0.11l-1.32 1.32c-0.209 0.209-0.209 0.539 0 0.748s0.539 0.209 0.748 0z"/>
     <path d="m21.877 99.917c1.023 0 1.848-0.825 1.848-1.848v-1.1c0-1.023-0.825-1.848-1.848-1.848-0.286 0-0.55 0.066-0.792 0.176v-0.968c0-0.352 0.242-0.671 0.594-0.759 0.341-0.099 0.704 0.055 0.891 0.363 0.143 0.253 0.462 0.341 0.715 0.198 0.253-0.154 0.341-0.473 0.198-0.726-0.418-0.726-1.276-1.078-2.079-0.858-0.814 0.209-1.375 0.946-1.375 1.782v3.74c0 1.023 0.836 1.848 1.848 1.848zm0-3.74c0.44 0 0.792 0.352 0.792 0.792v1.1c0 0.44-0.352 0.792-0.792 0.792s-0.792-0.352-0.792-0.792v-1.1c0-0.44 0.352-0.792 0.792-0.792z"/>
     <path d="m25.59 94.109v-1.1c0-0.286-0.242-0.528-0.528-0.528-0.297 0-0.528 0.242-0.528 0.528v1.1c0 0.297 0.231 0.528 0.528 0.528 0.286 0 0.528-0.231 0.528-0.528z"/>
     <path d="m19.556 72.881c1.023 0 1.848-0.825 1.848-1.848v-0.66c0-0.517-0.209-0.979-0.55-1.32 0.341-0.33 0.55-0.803 0.55-1.32v-0.44c0-1.023-0.825-1.848-1.848-1.848-1.012 0-1.848 0.825-1.848 1.848v0.44c0 0.517 0.22 0.99 0.561 1.32-0.341 0.341-0.561 0.803-0.561 1.32v0.66c0 1.023 0.836 1.848 1.848 1.848zm-0.792-5.148v-0.44c0-0.44 0.363-0.792 0.792-0.792 0.44 0 0.792 0.352 0.792 0.792v0.44c0 0.44-0.352 0.792-0.792 0.792-0.429 0-0.792-0.352-0.792-0.792zm1.584 2.64v0.66c0 0.44-0.352 0.792-0.792 0.792-0.429 0-0.792-0.352-0.792-0.792v-0.66c0-0.44 0.363-0.792 0.792-0.792 0.44 0 0.792 0.352 0.792 0.792z"/>
     <path d="m23.368 67.073v-1.1c0-0.286-0.242-0.528-0.528-0.528-0.297 0-0.528 0.242-0.528 0.528v1.1c0 0.297 0.231 0.528 0.528 0.528 0.286 0 0.528-0.231 0.528-0.528z"/>
     <path d="m31.735 47.727h1.672v1.012c0 0.297 0.231 0.528 0.528 0.528 0.286 0 0.528-0.231 0.528-0.528v-1.012h0.352c0.286 0 0.528-0.231 0.528-0.528 0-0.286-0.242-0.528-0.528-0.528h-0.352v-1.012c0-0.286-0.242-0.528-0.528-0.528-0.297 0-0.528 0.242-0.528 0.528v1.012h-0.946c0.319-1.012 1.32-4.147 1.32-4.147 0.011-0.055 0.022-0.11 0.022-0.165 0-0.22-0.143-0.429-0.363-0.506-0.286-0.088-0.583 0.066-0.671 0.341l-1.54 4.84c-0.044 0.165-0.022 0.341 0.077 0.473 0.099 0.143 0.264 0.22 0.429 0.22z"/>
     <path d="m37.021 43.459v-1.1c0-0.286-0.242-0.528-0.528-0.528-0.297 0-0.528 0.242-0.528 0.528v1.1c0 0.297 0.231 0.528 0.528 0.528 0.286 0 0.528-0.231 0.528-0.528z"/>
     <path d="m54.969 30.263c0.253 0.143 0.572 0.055 0.715-0.198 0.11-0.176 0.275-0.308 0.473-0.363 0.209-0.055 0.418-0.033 0.605 0.066 0.176 0.099 0.308 0.264 0.374 0.462 0.055 0.198 0.033 0.418-0.055 0.605l-2.321 4.4c-0.077 0.165-0.077 0.352 0.022 0.517 0.099 0.154 0.264 0.253 0.451 0.253h2.464c0.286 0 0.528-0.231 0.528-0.528 0-0.286-0.242-0.528-0.528-0.528h-1.595c0.561-1.056 1.914-3.63 1.914-3.63 0.22-0.429 0.264-0.924 0.132-1.386-0.143-0.473-0.451-0.858-0.88-1.089s-0.924-0.297-1.386-0.165c-0.473 0.132-0.869 0.44-1.111 0.858-0.143 0.253-0.055 0.572 0.198 0.726z"/>
     <path d="m60.321 30.241v-1.1c0-0.286-0.242-0.528-0.528-0.528-0.297 0-0.528 0.242-0.528 0.528v1.1c0 0.297 0.231 0.528 0.528 0.528 0.286 0 0.528-0.231 0.528-0.528z"/>
     <path d="m82.844 30.813s0.231-0.242 0.418-0.418v5.104c0 0.297 0.231 0.528 0.528 0.528 0.286 0 0.528-0.231 0.528-0.528v-6.38c0-0.209-0.132-0.407-0.33-0.484-0.198-0.088-0.418-0.044-0.572 0.11l-1.32 1.32c-0.209 0.209-0.209 0.539 0 0.748s0.539 0.209 0.748 0z"/>
     <path d="m87.338 30.219v-1.1c0-0.286-0.242-0.528-0.528-0.528-0.297 0-0.528 0.242-0.528 0.528v1.1c0 0.297 0.231 0.528 0.528 0.528 0.286 0 0.528-0.231 0.528-0.528z"/>
     <path d="m102.59 44.329s0.231-0.242 0.418-0.418v5.104c0 0.297 0.231 0.528 0.528 0.528 0.286 0 0.528-0.231 0.528-0.528v-6.38c0-0.209-0.132-0.407-0.33-0.484-0.198-0.088-0.418-0.044-0.572 0.11l-1.32 1.32c-0.209 0.209-0.209 0.539 0 0.748s0.539 0.209 0.748 0z"/>
     <path d="m107.76 41.7c-0.275-0.099-0.583 0.044-0.682 0.319l-2.64 7.26c-0.099 0.275 0.044 0.572 0.319 0.671s0.572-0.044 0.671-0.319l2.64-7.26c0.11-0.264-0.033-0.572-0.308-0.671z"/>
     <path d="m108.29 43.757c0.253 0.143 0.572 0.055 0.715-0.198 0.11-0.176 0.275-0.308 0.473-0.363 0.209-0.055 0.418-0.033 0.605 0.066 0.176 0.099 0.308 0.264 0.374 0.462 0.055 0.198 0.033 0.418-0.055 0.605l-2.321 4.4c-0.077 0.165-0.077 0.352 0.022 0.517 0.099 0.154 0.264 0.253 0.451 0.253h2.464c0.286 0 0.528-0.231 0.528-0.528 0-0.286-0.242-0.528-0.528-0.528h-1.595c0.561-1.056 1.914-3.63 1.914-3.63 0.22-0.429 0.264-0.924 0.132-1.386-0.143-0.473-0.451-0.858-0.88-1.089s-0.924-0.297-1.386-0.165c-0.473 0.132-0.869 0.44-1.111 0.858-0.143 0.253-0.055 0.572 0.198 0.726z"/>
     <path d="m113.81 43.735v-1.1c0-0.286-0.242-0.528-0.528-0.528-0.297 0-0.528 0.242-0.528 0.528v1.1c0 0.297 0.231 0.528 0.528 0.528 0.286 0 0.528-0.231 0.528-0.528z"/>
     <path d="m117.53 67.667s0.231-0.242 0.418-0.418v5.104c0 0.297 0.231 0.528 0.528 0.528 0.286 0 0.528-0.231 0.528-0.528v-6.38c0-0.209-0.132-0.407-0.33-0.484-0.198-0.088-0.418-0.044-0.572 0.11l-1.32 1.32c-0.209 0.209-0.209 0.539 0 0.748s0.539 0.209 0.748 0z"/>
     <path d="m122.79 65.038c-0.275-0.099-0.583 0.044-0.682 0.319l-2.64 7.26c-0.099 0.275 0.044 0.572 0.319 0.671s0.572-0.044 0.671-0.319l2.64-7.26c0.11-0.264-0.033-0.572-0.308-0.671z"/>
     <path d="m122.89 71.341h1.672v1.012c0 0.297 0.231 0.528 0.528 0.528 0.286 0 0.528-0.231 0.528-0.528v-1.012h0.352c0.286 0 0.528-0.231 0.528-0.528 0-0.286-0.242-0.528-0.528-0.528h-0.352v-1.012c0-0.286-0.242-0.528-0.528-0.528-0.297 0-0.528 0.242-0.528 0.528v1.012h-0.946c0.319-1.012 1.32-4.147 1.32-4.147 0.011-0.055 0.022-0.11 0.022-0.165 0-0.22-0.143-0.429-0.363-0.506-0.286-0.088-0.583 0.066-0.671 0.341l-1.54 4.84c-0.044 0.165-0.022 0.341 0.077 0.473 0.099 0.143 0.264 0.22 0.429 0.22z"/>
     <path d="m126.74 67.073v-1.1c0-0.286-0.242-0.528-0.528-0.528-0.297 0-0.528 0.242-0.528 0.528v1.1c0 0.297 0.231 0.528 0.528 0.528 0.286 0 0.528-0.231 0.528-0.528z"/>
     <path d="m117.56 94.151s0.231-0.242 0.418-0.418v5.104c0 0.297 0.231 0.528 0.528 0.528 0.286 0 0.528-0.231 0.528-0.528v-6.38c0-0.209-0.132-0.407-0.33-0.484-0.198-0.088-0.418-0.044-0.572 0.11l-1.32 1.32c-0.209 0.209-0.209 0.539 0 0.748s0.539 0.209 0.748 0z"/>
     <path d="m122.82 91.522c-0.275-0.099-0.583 0.044-0.682 0.319l-2.64 7.26c-0.099 0.275 0.044 0.572 0.319 0.671s0.572-0.044 0.671-0.319l2.64-7.26c0.11-0.264-0.033-0.572-0.308-0.671z"/>
     <path d="m125.08 99.365c1.023 0 1.848-0.825 1.848-1.848v-0.66c0-0.517-0.209-0.979-0.55-1.32 0.341-0.33 0.55-0.803 0.55-1.32v-0.44c0-1.023-0.825-1.848-1.848-1.848-1.012 0-1.848 0.825-1.848 1.848v0.44c0 0.517 0.22 0.99 0.561 1.32-0.341 0.341-0.561 0.803-0.561 1.32v0.66c0 1.023 0.836 1.848 1.848 1.848zm-0.792-5.148v-0.44c0-0.44 0.363-0.792 0.792-0.792 0.44 0 0.792 0.352 0.792 0.792v0.44c0 0.44-0.352 0.792-0.792 0.792-0.429 0-0.792-0.352-0.792-0.792zm1.584 2.64v0.66c0 0.44-0.352 0.792-0.792 0.792-0.429 0-0.792-0.352-0.792-0.792v-0.66c0-0.44 0.363-0.792 0.792-0.792 0.44 0 0.792 0.352 0.792 0.792z"/>
     <path d="m128.82 93.557v-1.1c0-0.286-0.242-0.528-0.528-0.528-0.297 0-0.528 0.242-0.528 0.528v1.1c0 0.297 0.231 0.528 0.528 0.528 0.286 0 0.528-0.231 0.528-0.528z"/>
    </g>
   </g>
   <g fill="none" stroke="#fff" stroke-linecap="round" stroke-linejoin="round">
    <path d="m41.296 134.28a59.461 59.461 0 0 1-27.147-67.13 59.461 59.461 0 0 1 57.832-43.576 59.461 59.461 0 0 1 57.044 44.603 59.461 59.461 0 0 1-28.342 66.635l-29.233-51.779z" stroke-width=".84304"/>
    <g stroke-width=".84304">
     <path d="m39.886 136.75 62.494-107.97"/>
     <path d="m102.16 137.42-62.278-108.15"/>
     <path d="m17.374 113.98 108.16-62.272"/>
     <path d="m124.93 114.96-107.6-62.819"/>
     <path d="m70.911 21.448v61.71"/>
     <path d="m9.0516 82.763 124.81 0.15172"/>
    </g>
   </g>
   <g fill="#fff">
    <path d="m103.33 117.96s0.231-0.242 0.418-0.418v5.104c0 0.297 0.231 0.528 0.528 0.528 0.286 0 0.528-0.231 0.528-0.528v-6.38c0-0.209-0.132-0.407-0.33-0.484-0.198-0.088-0.418-0.044-0.572 0.11l-1.32 1.32c-0.209 0.209-0.209 0.539 0 0.748s0.539 0.209 0.748 0z"/>
    <path d="m108.29 115.33c-0.275-0.099-0.583 0.044-0.682 0.319l-2.64 7.26c-0.099 0.275 0.044 0.572 0.319 0.671s0.572-0.044 0.671-0.319l2.64-7.26c0.11-0.264-0.033-0.572-0.308-0.671z"/>
    <path d="m109.24 117.96s0.231-0.242 0.418-0.418v5.104c0 0.297 0.231 0.528 0.528 0.528 0.286 0 0.528-0.231 0.528-0.528v-6.38c0-0.209-0.132-0.407-0.33-0.484-0.198-0.088-0.418-0.044-0.572 0.11l-1.32 1.32c-0.209 0.209-0.209 0.539 0 0.748s0.539 0.209 0.748 0z"/>
    <path d="m112.96 123.18c1.023 0 1.848-0.825 1.848-1.848v-1.1c0-1.023-0.825-1.848-1.848-1.848-0.286 0-0.55 0.066-0.792 0.176v-0.968c0-0.352 0.242-0.671 0.594-0.759 0.341-0.099 0.704 0.055 0.891 0.363 0.143 0.253 0.462 0.341 0.715 0.198 0.253-0.154 0.341-0.473 0.198-0.726-0.418-0.726-1.276-1.078-2.079-0.858-0.814 0.209-1.375 0.946-1.375 1.782v3.74c0 1.023 0.836 1.848 1.848 1.848zm0-3.74c0.44 0 0.792 0.352 0.792 0.792v1.1c0 0.44-0.352 0.792-0.792 0.792s-0.792-0.352-0.792-0.792v-1.1c0-0.44 0.352-0.792 0.792-0.792z"/>
    <path d="m115.64 117.37v-1.1c0-0.286-0.242-0.528-0.528-0.528-0.297 0-0.528 0.242-0.528 0.528v1.1c0 0.297 0.231 0.528 0.528 0.528 0.286 0 0.528-0.231 0.528-0.528z"/>
    <path d="m52.153 11.574q0 0.128-0.08 0.192-0.064 0.064-0.144 0.064h-5.264q0.08 1.072 0.672 1.76 0.592 0.672 1.616 0.672 0.528 0 1.2-0.128 0.672-0.144 1.232-0.48 0.112-0.064 0.144 0.016t0.032 0.208v1.104q0 0.144-0.048 0.224t-0.192 0.16q-0.48 0.256-1.136 0.368-0.64 0.112-1.312 0.112-1.984 0-3.008-1.184-1.008-1.2-1.008-3.504 0-0.864 0.224-1.696 0.224-0.832 0.672-1.488 0.464-0.656 1.168-1.056t1.664-0.4q0.976 0 1.648 0.368 0.688 0.368 1.12 0.992t0.624 1.456q0.192 0.832 0.192 1.776 0 0.112-0.016 0.256 0 0.144 0 0.208zm-3.504-3.52q-0.432 0-0.768 0.192t-0.576 0.496-0.4 0.704q-0.144 0.4-0.208 0.8h3.664q0-0.32-0.112-0.704-0.096-0.384-0.304-0.704-0.208-0.336-0.528-0.56t-0.768-0.224z"/>
    <path d="m55.882 15.313q-0.026 0.078-0.052 0.091-0.026 0.026-0.104 0.026h-1.118q-0.078 0-0.117-0.026-0.026-0.013-0.052-0.091l-2.366-6.903q-0.026-0.065 0-0.104t0.169-0.039h1.131q0.065 0 0.104 0.026 0.039 0.013 0.065 0.078l1.625 4.901 1.612-4.901q0.026-0.065 0.065-0.078 0.052-0.026 0.117-0.026h1.144q0.143 0 0.169 0.039t0 0.104z"/>
    <path d="m64.034 12.18q0 0.104-0.065 0.156-0.052 0.052-0.117 0.052h-4.277q0.065 0.871 0.546 1.43 0.481 0.546 1.313 0.546 0.429 0 0.975-0.104 0.546-0.117 1.001-0.39 0.091-0.052 0.117 0.013t0.026 0.169v0.897q0 0.117-0.039 0.182t-0.156 0.13q-0.39 0.208-0.923 0.299-0.52 0.091-1.066 0.091-1.612 0-2.444-0.962-0.819-0.975-0.819-2.847 0-0.702 0.182-1.378 0.182-0.676 0.546-1.209 0.377-0.533 0.949-0.858t1.352-0.325q0.793 0 1.339 0.299 0.559 0.299 0.91 0.806t0.507 1.183q0.156 0.676 0.156 1.443 0 0.091-0.013 0.208 0 0.117 0 0.169zm-2.847-2.86q-0.351 0-0.624 0.156t-0.468 0.403q-0.195 0.247-0.325 0.572-0.117 0.325-0.169 0.65h2.977q0-0.26-0.091-0.572-0.078-0.312-0.247-0.572-0.169-0.273-0.429-0.455t-0.624-0.182z"/>
    <path d="m69.333 15.443q-0.065 0-0.117-0.065-0.039-0.052-0.039-0.117v-4.134q0-0.936-0.299-1.352-0.286-0.416-0.91-0.416-0.858 0-1.274 0.481-0.403 0.468-0.403 1.365v4.069q0 0.169-0.156 0.169h-1.079q-0.065 0-0.117-0.065-0.039-0.052-0.039-0.117v-5.174q0-0.494-0.013-0.949 0-0.455-0.026-0.715-0.026-0.169 0.182-0.169h1.027q0.143 0 0.117 0.104l-0.013 0.468q0.325-0.312 0.78-0.533t1.053-0.221q1.248 0 1.898 0.741 0.663 0.728 0.663 2.119v4.342q0 0.169-0.156 0.169z"/>
    <path d="m77.459 15.352q-0.042 0.112-0.084 0.126-0.042 0.028-0.14 0.028h-1.218q-0.098 0-0.14-0.028-0.042-0.014-0.084-0.126l-3.822-10.206q-0.028-0.098 0-0.14 0.028-0.056 0.224-0.056h1.204q0.112 0 0.154 0.028 0.042 0.014 0.07 0.112l2.982 8.148 3.01-8.148q0.042-0.098 0.084-0.112 0.042-0.028 0.154-0.028h1.204q0.182 0 0.21 0.056 0.042 0.042 0.014 0.14z"/>
    <path d="m88.913 15.394q-0.406 0.112-0.98 0.21t-1.33 0.098q-1.19 0-2.17-0.392-0.966-0.392-1.652-1.106-0.686-0.728-1.064-1.736t-0.378-2.24q0-1.218 0.364-2.226 0.378-1.008 1.064-1.722 0.686-0.728 1.652-1.12 0.98-0.406 2.184-0.406 0.63 0 1.232 0.07 0.602 0.056 1.092 0.21 0.154 0.042 0.182 0.112 0.028 0.056 0.014 0.196l-0.028 1.036q0 0.224-0.07 0.224t-0.238-0.056q-1.05-0.322-2.184-0.322-0.868 0-1.554 0.294-0.672 0.294-1.148 0.826-0.462 0.532-0.714 1.274-0.238 0.728-0.238 1.61 0 0.868 0.266 1.61 0.266 0.728 0.742 1.274 0.49 0.532 1.148 0.84 0.672 0.308 1.484 0.308 0.728 0 1.232-0.056 0.518-0.07 0.952-0.224 0.182-0.07 0.238-0.042t0.056 0.126l0.056 0.994q0.014 0.154-0.028 0.224-0.028 0.07-0.182 0.112z"/>
    <path d="m98.083 14.176q-0.63 0.798-1.526 1.176-0.882 0.392-1.988 0.392-1.232 0-2.128-0.448-0.882-0.434-1.456-1.19-0.56-0.756-0.84-1.75-0.266-1.008-0.266-2.128 0-1.092 0.28-2.086 0.28-1.008 0.854-1.764t1.456-1.204 2.1-0.448q1.19 0 2.072 0.462 0.882 0.448 1.456 1.204 0.588 0.756 0.868 1.75 0.294 0.994 0.28 2.086-0.014 1.232-0.294 2.226-0.28 0.98-0.868 1.722zm-3.514-7.952q-0.812 0-1.4 0.364-0.574 0.35-0.952 0.924-0.364 0.56-0.546 1.288-0.168 0.714-0.168 1.428 0 0.714 0.168 1.442 0.182 0.714 0.546 1.288 0.378 0.574 0.952 0.938 0.588 0.35 1.4 0.35t1.386-0.35q0.588-0.364 0.952-0.938t0.532-1.288q0.182-0.728 0.182-1.442 0-0.7-0.168-1.414t-0.546-1.288q-0.364-0.574-0.952-0.938-0.574-0.364-1.386-0.364z"/>
    <path transform="translate(0 -.35429)" d="m26.58 169.49a10.495 10.495 0 0 1-0.6543 0.0352c0.89345 8.5436 3.1726 16.847 6.7168 24.617a10.495 10.495 0 0 1 0.60547-0.24219c-3.5165-7.7042-5.7788-15.939-6.668-24.41zm17.514 41.826a10.495 10.495 0 0 1-0.48828 0.42578c2.9025 3.549 6.1239 6.8848 9.6523 9.959 2.8777 2.5072 5.917 4.7938 9.082 6.8692a10.495 10.495 0 0 1 0.38867-0.51172c-3.1476-2.0627-6.1698-4.335-9.0312-6.8281-3.5115-3.0594-6.7168-6.381-9.6035-9.9141zm36.961 25.787a10.495 10.495 0 0 1-0.1582 0.61719c8.0176 2.8037 16.462 4.429 25.047 4.7773a10.495 10.495 0 0 1-0.0762-0.63672c-8.5054-0.35547-16.871-1.9733-24.813-4.7578z" color="#000000" color-rendering="auto" dominant-baseline="auto" image-rendering="auto" shape-rendering="auto" solid-color="#000000" style="font-feature-settings:normal;font-variant-alternates:normal;font-variant-caps:normal;font-variant-ligatures:normal;font-variant-numeric:normal;font-variant-position:normal;isolation:auto;mix-blend-mode:normal;shape-padding:0;text-decoration-color:#000000;text-decoration-line:none;text-decoration-style:solid;text-indent:0;text-orientation:mixed;text-transform:none;white-space:normal"/>
   </g>
  </g>
 </g>
</svg>
