<?xml version="1.0" encoding="UTF-8"?>
<svg width="71.12mm" height="128.5mm" version="1.1" viewBox="0 0 71.052 128.5" xmlns="http://www.w3.org/2000/svg" xmlns:cc="http://creativecommons.org/ns#" xmlns:dc="http://purl.org/dc/elements/1.1/" xmlns:rdf="http://www.w3.org/1999/02/22-rdf-syntax-ns#">
 <metadata>
  <rdf:RDF>
   <cc:Work rdf:about="">
    <dc:format>image/svg+xml</dc:format>
    <dc:type rdf:resource="http://purl.org/dc/dcmitype/StillImage"/>
   </cc:Work>
  </rdf:RDF>
 </metadata>
 <g transform="translate(0,-168.5)">
  <rect x="-.029029" y="168.5" width="71.12" height="128.5" fill="#171717" fill-rule="evenodd" style="paint-order:normal"/>
  <g>
   <rect x="63.687" y="271.64" width="7.086" height="10.727" fill="#fff"/>
   <circle cx="64.25" cy="277.01" r="6.3225" fill="#171717"/>
  </g>
  <g>
   <g transform="matrix(.28571 0 0 .28571 19.939 251.13)" fill="#fff">
    <g transform="matrix(.13465 0 0 .13465 13.344 124.45)" fill="#fff" stroke-width="0">
     <g fill="#fff" stroke-width="0">
      <g transform="matrix(3.9379 0 0 3.9379 -915.87 -430.93)" fill="#fff" stroke-width="0">
       <path transform="matrix(1.886 0 0 1.886 .85263 -680.66)" d="m124.95 438.29v13.336h13.73v-10.961h-9.2246v-2.2832zm4.5059 5.6035h4.8711v1.6738h-0.73047v-1.1875h-1.1875v1.2793h-0.24414l-2.0078-1.3711v1.3105h-0.70117zm4.0801 2.7695h0.82227v1.584h-4.9336v-1.5234h0.73242v1.2793l2.0391-1.3086h0.30468v1.2168h1.0352z"/>
       <path d="m275.94 156.58h-10.336v-6.1439h21.016v5.2826l-5.1103 5.1678 5.1103 5.1678-0.1148 5.1678h-20.901v-6.4884h10.048l-3.9045-3.8471z"/>
       <path d="m289.78 171.16h7.3497v-5.9716h3.2155l4.4213-4.3065-4.3639-4.3639h10.45v-6.0865h-21.016v5.2252l4.9381 5.0529h-4.9955z"/>
       <path transform="matrix(1.886 0 0 1.886 .85263 -680.66)" d="m168.73 440.64-5.3594 4.6875v6.3633l3.8672-0.0293v-1.6758h3.4707v1.7051h3.8047v-11.051zm1.8574 3.2578v2.709h-3.2285z"/>
       <path d="m333.08 150.43h21.073v8.5555h-7.3497v-2.4116h-6.431v8.1536h13.781v6.5458h-21.073z"/>
       <path transform="matrix(1.886 0 0 1.886 .85263 -680.66)" d="m192.62 440.68v0.91016l-3.7109 0.0195v9.0723h3.6836v1.0039h3.7754v-1.0039h3.7305v-9.0918h-3.7207v-0.91016zm0.18359 3.7598h3.3906v3.3281h-3.3906z"/>
      </g>
     </g>
    </g>
   </g>
   <text x="44.738617" y="261.77707" fill="#000000" font-family="sans-serif" font-size="3.5278px" letter-spacing="0px" stroke-width=".26458" word-spacing="0px" style="line-height:1.25" xml:space="preserve"><tspan x="44.738617" y="261.77707" stroke-width=".26458"/></text>
   <path d="m51.014 270.66h1.9312l-0.98249 1.7017-0.98172-1.7017z" fill="#fff"/>
   <path d="m63.241 270.62h1.9312l-0.98249 1.7017-0.98172-1.7017z" fill="#fff"/>
  </g>
  <g transform="translate(-.089478)" fill="#fff">
   <circle cx="6.6412" cy="183.97" r="5.3636"/>
   <rect x="-.57473" y="178.61" width="7.086" height="10.727"/>
  </g>
  <g transform="translate(-.089478 18.606)" fill="#fff">
   <circle cx="6.6412" cy="183.97" r="5.3636"/>
   <rect x="-.57473" y="178.61" width="7.086" height="10.727"/>
  </g>
  <g transform="translate(-.089478 37.211)" fill="#fff">
   <circle cx="6.6412" cy="183.97" r="5.3636"/>
   <rect x="-.57473" y="178.61" width="7.086" height="10.727"/>
  </g>
  <g transform="translate(-.089478 55.817)" fill="#fff">
   <circle cx="6.6412" cy="183.97" r="5.3636"/>
   <rect x="-.57473" y="178.61" width="7.086" height="10.727"/>
  </g>
  <g transform="translate(-.089478 74.423)" fill="#fff">
   <circle cx="6.6412" cy="183.97" r="5.3636"/>
   <rect x="-.57473" y="178.61" width="7.086" height="10.727"/>
  </g>
  <g transform="translate(-.089478 93.028)" fill="#fff">
   <circle cx="6.6412" cy="183.97" r="5.3636"/>
   <rect x="-.57473" y="178.61" width="7.086" height="10.727"/>
  </g>
  <g transform="translate(-.003063 .053974)">
   <g transform="matrix(.5368 0 0 .5368 6.4943 100.35)" stroke-width="1.007">
    <path d="m20.661 200.35a11.293 11.293 0 0 1-5.4912-12.643 11.293 11.293 0 0 1 10.824-8.535 11.293 11.293 0 0 1 11.014 8.288 11.293 11.293 0 0 1-5.2039 12.764" fill="none" stroke="#fff" stroke-linejoin="round" stroke-width=".4028"/>
    <g fill="#fff">
     <circle cx="20.477" cy="200.25" r=".71829"/>
     <circle cx="31.752" cy="200.34" r=".71829"/>
     <circle cx="26.077" cy="179.18" r=".71829"/>
    </g>
   </g>
   <g transform="matrix(.56325 0 0 .56325 20.683 95.264)" stroke-width="1.007">
    <path d="m20.661 200.35a11.293 11.293 0 0 1-5.4912-12.643 11.293 11.293 0 0 1 10.824-8.535 11.293 11.293 0 0 1 11.014 8.288 11.293 11.293 0 0 1-5.2039 12.764" fill="none" stroke="#fff" stroke-linejoin="round" stroke-width=".71017"/>
    <g fill="#fff">
     <circle cx="20.594" cy="200.25" r="1.0343"/>
     <circle cx="31.738" cy="200.31" r="1.0343"/>
     <circle cx="26.136" cy="179.18" r="1.2412"/>
    </g>
   </g>
   <path d="m26.591 202.54h2.4322" fill="none" stroke="#fff" stroke-width=".4"/>
  </g>
  <g transform="translate(-.003063 -18.573)">
   <g transform="matrix(.5368 0 0 .5368 6.4943 100.35)" stroke-width="1.007">
    <path d="m20.661 200.35a11.293 11.293 0 0 1-5.4912-12.643 11.293 11.293 0 0 1 10.824-8.535 11.293 11.293 0 0 1 11.014 8.288 11.293 11.293 0 0 1-5.2039 12.764" fill="none" stroke="#fff" stroke-linejoin="round" stroke-width=".4028"/>
    <g fill="#fff">
     <circle cx="20.477" cy="200.25" r=".71829"/>
     <circle cx="31.752" cy="200.34" r=".71829"/>
     <circle cx="26.077" cy="179.18" r=".71829"/>
    </g>
   </g>
   <g transform="matrix(.56325 0 0 .56325 20.683 95.264)" stroke-width="1.007">
    <path d="m20.661 200.35a11.293 11.293 0 0 1-5.4912-12.643 11.293 11.293 0 0 1 10.824-8.535 11.293 11.293 0 0 1 11.014 8.288 11.293 11.293 0 0 1-5.2039 12.764" fill="none" stroke="#fff" stroke-linejoin="round" stroke-width=".71017"/>
    <g fill="#fff">
     <circle cx="20.594" cy="200.25" r="1.0343"/>
     <circle cx="31.738" cy="200.31" r="1.0343"/>
     <circle cx="26.136" cy="179.18" r="1.2412"/>
    </g>
   </g>
   <path d="m26.591 202.54h2.4322" fill="none" stroke="#fff" stroke-width=".4"/>
  </g>
  <g transform="translate(-.003063 18.68)">
   <g transform="matrix(.5368 0 0 .5368 6.4943 100.35)" stroke-width="1.007">
    <path d="m20.661 200.35a11.293 11.293 0 0 1-5.4912-12.643 11.293 11.293 0 0 1 10.824-8.535 11.293 11.293 0 0 1 11.014 8.288 11.293 11.293 0 0 1-5.2039 12.764" fill="none" stroke="#fff" stroke-linejoin="round" stroke-width=".4028"/>
    <g fill="#fff">
     <circle cx="20.477" cy="200.25" r=".71829"/>
     <circle cx="31.752" cy="200.34" r=".71829"/>
     <circle cx="26.077" cy="179.18" r=".71829"/>
    </g>
   </g>
   <g transform="matrix(.56325 0 0 .56325 20.683 95.264)" stroke-width="1.007">
    <path d="m20.661 200.35a11.293 11.293 0 0 1-5.4912-12.643 11.293 11.293 0 0 1 10.824-8.535 11.293 11.293 0 0 1 11.014 8.288 11.293 11.293 0 0 1-5.2039 12.764" fill="none" stroke="#fff" stroke-linejoin="round" stroke-width=".71017"/>
    <g fill="#fff">
     <circle cx="20.594" cy="200.25" r="1.0343"/>
     <circle cx="31.738" cy="200.31" r="1.0343"/>
     <circle cx="26.136" cy="179.18" r="1.2412"/>
    </g>
   </g>
   <path d="m26.591 202.54h2.4322" fill="none" stroke="#fff" stroke-width=".4"/>
  </g>
  <g transform="translate(-.003063 37.307)">
   <g transform="matrix(.5368 0 0 .5368 6.4943 100.35)" stroke-width="1.007">
    <path d="m20.661 200.35a11.293 11.293 0 0 1-5.4912-12.643 11.293 11.293 0 0 1 10.824-8.535 11.293 11.293 0 0 1 11.014 8.288 11.293 11.293 0 0 1-5.2039 12.764" fill="none" stroke="#fff" stroke-linejoin="round" stroke-width=".4028"/>
    <g fill="#fff">
     <circle cx="20.477" cy="200.25" r=".71829"/>
     <circle cx="31.752" cy="200.34" r=".71829"/>
     <circle cx="26.077" cy="179.18" r=".71829"/>
    </g>
   </g>
   <g transform="matrix(.56325 0 0 .56325 20.683 95.264)" stroke-width="1.007">
    <path d="m20.661 200.35a11.293 11.293 0 0 1-5.4912-12.643 11.293 11.293 0 0 1 10.824-8.535 11.293 11.293 0 0 1 11.014 8.288 11.293 11.293 0 0 1-5.2039 12.764" fill="none" stroke="#fff" stroke-linejoin="round" stroke-width=".71017"/>
    <g fill="#fff">
     <circle cx="20.594" cy="200.25" r="1.0343"/>
     <circle cx="31.738" cy="200.31" r="1.0343"/>
     <circle cx="26.136" cy="179.18" r="1.2412"/>
    </g>
   </g>
   <path d="m26.591 202.54h2.4322" fill="none" stroke="#fff" stroke-width=".4"/>
  </g>
  <g transform="translate(-.003063 55.934)">
   <g transform="matrix(.5368 0 0 .5368 6.4943 100.35)" stroke-width="1.007">
    <path d="m20.661 200.35a11.293 11.293 0 0 1-5.4912-12.643 11.293 11.293 0 0 1 10.824-8.535 11.293 11.293 0 0 1 11.014 8.288 11.293 11.293 0 0 1-5.2039 12.764" fill="none" stroke="#fff" stroke-linejoin="round" stroke-width=".4028"/>
    <g fill="#fff">
     <circle cx="20.477" cy="200.25" r=".71829"/>
     <circle cx="31.752" cy="200.34" r=".71829"/>
     <circle cx="26.077" cy="179.18" r=".71829"/>
    </g>
   </g>
   <g transform="matrix(.56325 0 0 .56325 20.683 95.264)" stroke-width="1.007">
    <path d="m20.661 200.35a11.293 11.293 0 0 1-5.4912-12.643 11.293 11.293 0 0 1 10.824-8.535 11.293 11.293 0 0 1 11.014 8.288 11.293 11.293 0 0 1-5.2039 12.764" fill="none" stroke="#fff" stroke-linejoin="round" stroke-width=".71017"/>
    <g fill="#fff">
     <circle cx="20.594" cy="200.25" r="1.0343"/>
     <circle cx="31.738" cy="200.31" r="1.0343"/>
     <circle cx="26.136" cy="179.18" r="1.2412"/>
    </g>
   </g>
   <path d="m26.591 202.54h2.4322" fill="none" stroke="#fff" stroke-width=".4"/>
  </g>
  <g>
   <g transform="matrix(.5368 0 0 .5368 6.4912 174.91)" stroke-width="1.007">
    <path d="m17.9 197.99a11.293 11.293 0 0 1-2.8133-10.476 11.293 11.293 0 0 1 7.3099-8.0137" fill="none" stroke="#fff" stroke-linejoin="round" stroke-width=".4028"/>
   </g>
   <g transform="matrix(.56325 0 0 .56325 20.68 169.82)" stroke-width="1.007">
    <path d="m20.661 200.35a11.293 11.293 0 0 1-5.4912-12.643 11.293 11.293 0 0 1 10.824-8.535 11.293 11.293 0 0 1 11.014 8.288 11.293 11.293 0 0 1-5.2039 12.764" fill="none" stroke="#fff" stroke-linejoin="round" stroke-width=".71017"/>
    <g fill="#fff">
     <circle cx="20.594" cy="200.25" r="1.0343"/>
     <circle cx="31.738" cy="200.31" r="1.0343"/>
     <circle cx="26.136" cy="179.18" r="1.2412"/>
    </g>
   </g>
   <path d="m26.588 277.1h2.4322" fill="none" stroke="#fff" stroke-width=".4"/>
   <g fill="#fff" stroke-width=".29095" aria-label="LEVEL">
    <path d="m32.033 287.29q-0.07746 0-0.13169-0.0542-0.05422-0.0542-0.05422-0.13169v-2.231q0-0.0775 0.05422-0.13169 0.05423-0.0542 0.13169-0.0542 0.07746 0 0.13169 0.0542 0.05423 0.0542 0.05423 0.13169v2.045h0.58872q0.07746 0 0.13169 0.0542 0.05423 0.0542 0.05423 0.13168 0 0.0775-0.05423 0.13169-0.05422 0.0542-0.13169 0.0542h-0.77464z"/>
    <path d="m33.195 284.88q0-0.0775 0.05423-0.13169 0.05422-0.0542 0.13169-0.0542h0.77464q0.07746 0 0.13169 0.0542 0.05422 0.0542 0.05422 0.13169 0 0.0775-0.05422 0.13169-0.05423 0.0542-0.13169 0.0542h-0.58872v0.69718h0.51126q0.07746 0 0.13169 0.0542 0.05422 0.0542 0.05422 0.13169 0 0.0775-0.05422 0.13169-0.05423 0.0542-0.13169 0.0542h-0.51126v0.77464h0.58872q0.07746 0 0.13169 0.0542 0.05422 0.0542 0.05422 0.13168 0 0.0775-0.05422 0.13169-0.05423 0.0542-0.13169 0.0542h-0.77464q-0.07746 0-0.13169-0.0542-0.05423-0.0542-0.05423-0.13169v-2.2155z"/>
    <path d="m34.489 284.92q-0.01937-0.0775 0.01549-0.14331 0.03873-0.0658 0.1162-0.0852 0.07359-0.0194 0.13944 0.0194 0.06972 0.0349 0.08908 0.10845 0.07359 0.27499 0.15105 0.55386 0.06585 0.24014 0.14331 0.51901 0.07746 0.27887 0.14718 0.52675 0.06584-0.24788 0.14331-0.52675 0.07746-0.27887 0.14331-0.51901 0.07359-0.27887 0.15105-0.55386 0.01937-0.0736 0.08521-0.10845 0.06972-0.0387 0.14331-0.0194 0.07746 0.0194 0.11232 0.0852 0.03873 0.0658 0.01937 0.14331l-0.61971 2.2464q-0.01937 0.062-0.06972 0.0968-0.04648 0.0387-0.10845 0.0387-0.06585 0-0.1162-0.0387-0.04648-0.0349-0.06584-0.0968z"/>
    <path d="m36.356 284.88q0-0.0775 0.05422-0.13169 0.05423-0.0542 0.13169-0.0542h0.77464q0.07746 0 0.13169 0.0542 0.05423 0.0542 0.05423 0.13169 0 0.0775-0.05423 0.13169-0.05422 0.0542-0.13169 0.0542h-0.58872v0.69718h0.51126q0.07746 0 0.13169 0.0542 0.05423 0.0542 0.05423 0.13169 0 0.0775-0.05423 0.13169-0.05422 0.0542-0.13169 0.0542h-0.51126v0.77464h0.58872q0.07746 0 0.13169 0.0542 0.05423 0.0542 0.05423 0.13168 0 0.0775-0.05423 0.13169-0.05422 0.0542-0.13169 0.0542h-0.77464q-0.07746 0-0.13169-0.0542-0.05422-0.0542-0.05422-0.13169v-2.2155z"/>
    <path d="m37.967 287.29q-0.07746 0-0.13169-0.0542-0.05423-0.0542-0.05423-0.13169v-2.231q0-0.0775 0.05423-0.13169 0.05422-0.0542 0.13169-0.0542 0.07746 0 0.13169 0.0542 0.05422 0.0542 0.05422 0.13169v2.045h0.58872q0.07746 0 0.13169 0.0542 0.05422 0.0542 0.05422 0.13168 0 0.0775-0.05422 0.13169-0.05423 0.0542-0.13169 0.0542h-0.77464z"/>
   </g>
   <g fill="#fff" stroke-width=".28759" aria-label="CV">
    <path d="m50.976 284.82q-0.10337-0.0268-0.19142-0.0842-0.08806-0.0613-0.15314-0.14165-0.06126-0.0842-0.09571-0.18377-0.03446-0.0995-0.03446-0.21057v-1.3017q0-0.1072 0.03446-0.20674 0.03446-0.10337 0.09571-0.18377 0.06508-0.0842 0.15314-0.14165 0.08806-0.0613 0.19142-0.0881 0.2144-0.0574 0.41348 0.0268 0.19908 0.0804 0.31011 0.27182 0.04211 0.0651 0.01914 0.13783-0.01914 0.0727-0.08423 0.11485-0.06508 0.0383-0.13782 0.0192-0.07274-0.023-0.11486-0.0881-0.04594-0.0804-0.134-0.11485-0.08423-0.0383-0.17611-0.0115-0.08806 0.023-0.14548 0.0995-0.05743 0.0727-0.05743 0.16463v1.3017q0 0.0957 0.05743 0.16846 0.05743 0.0727 0.14548 0.0995 0.09188 0.023 0.17611-0.0115 0.08805-0.0383 0.134-0.11868 0.04211-0.0651 0.11486-0.0842 0.07274-0.023 0.13782 0.0153 0.06509 0.0421 0.08423 0.11485 0.02297 0.0727-0.01914 0.13783-0.11103 0.19142-0.31011 0.27182-0.19908 0.0842-0.41348 0.0268z"/>
    <path d="m51.891 282.48q-0.01914-0.0766 0.01531-0.14166 0.03829-0.0651 0.11485-0.0842 0.07274-0.0191 0.13783 0.0191 0.06891 0.0345 0.08805 0.1072 0.07274 0.27182 0.14931 0.54747 0.06509 0.23737 0.14166 0.51302 0.07657 0.27565 0.14548 0.52067 0.06508-0.24502 0.14165-0.52067 0.07657-0.27565 0.14165-0.51302 0.07274-0.27565 0.14931-0.54747 0.01914-0.0727 0.08423-0.1072 0.06891-0.0383 0.14165-0.0191 0.07657 0.0191 0.11103 0.0842 0.03829 0.0651 0.01914 0.14166l-0.61256 2.2205q-0.01914 0.0613-0.06891 0.0957-0.04594 0.0383-0.1072 0.0383-0.06508 0-0.11486-0.0383-0.04594-0.0344-0.06508-0.0957z"/>
   </g>
   <g fill="#fff" stroke-width=".265" aria-label="10V">
    <path d="m50.492 268.83q-0.03951 0.0395-0.09596 0.0395-0.05644 0-0.09595-0.0395t-0.03951-0.096q0-0.0564 0.03951-0.096l0.33867-0.33867q0.06491-0.0649 0.14676-0.0282 0.03951 0.0141 0.06209 0.0508 0.02258 0.0339 0.02258 0.0734v1.6369q0 0.0564-0.03951 0.096-0.03951 0.0395-0.09596 0.0395-0.05644 0-0.09596-0.0395-0.03951-0.0395-0.03951-0.096v-1.3095q-0.01976 0.0169-0.03951 0.0367-0.01693 0.0198-0.03104 0.0339-0.01693 0.0198-0.03669 0.0367z"/>
    <path d="m51.841 270.17q-0.09878 0-0.18627-0.0367-0.08467-0.0367-0.14958-0.1016-0.06491-0.0649-0.1016-0.14958-0.03669-0.0875-0.03669-0.18626v-0.95956q0-0.0988 0.03669-0.18344 0.03669-0.0875 0.1016-0.1524 0.06491-0.0649 0.14958-0.1016 0.08749-0.0367 0.18627-0.0367 0.09595 0 0.18344 0.0367 0.08749 0.0367 0.14958 0.1016 0.06491 0.0649 0.1016 0.1524 0.03951 0.0847 0.03951 0.18344v0.95956q0 0.0988-0.03951 0.18626-0.03669 0.0847-0.1016 0.14958-0.06209 0.0649-0.14958 0.1016-0.08749 0.0367-0.18344 0.0367zm0-1.6369q-0.08467 0-0.14393 0.0593-0.05927 0.0593-0.05927 0.14393v0.95956q0 0.0847 0.05927 0.14393 0.05927 0.0593 0.14393 0.0593 0.08184 0 0.14111-0.0593 0.06209-0.0593 0.06209-0.14393v-0.95956q0-0.0847-0.06209-0.14393-0.05927-0.0593-0.14111-0.0593z"/>
    <path d="m52.478 268.43q-0.01411-0.0565 0.01129-0.10443 0.02822-0.048 0.08467-0.0621 0.05362-0.0141 0.1016 0.0141 0.0508 0.0254 0.06491 0.079 0.05362 0.20038 0.11007 0.40358 0.04798 0.17497 0.10442 0.37817 0.05645 0.2032 0.10724 0.38383 0.04798-0.18063 0.10442-0.38383 0.05644-0.2032 0.10442-0.37817 0.05362-0.2032 0.11007-0.40358 0.01411-0.0536 0.06209-0.079 0.0508-0.0282 0.10442-0.0141 0.05645 0.0141 0.08185 0.0621 0.02822 0.048 0.01411 0.10443l-0.45156 1.6369q-0.01411 0.0452-0.0508 0.0706-0.03387 0.0282-0.07902 0.0282-0.04798 0-0.08467-0.0282-0.03387-0.0254-0.04798-0.0706z"/>
   </g>
   <g fill="#fff" stroke-width=".28455" aria-label="OUT">
    <path d="m62.609 284.84q-0.13258 0-0.25001-0.0492-0.11364-0.0492-0.20077-0.13637-0.08713-0.0871-0.13637-0.20077-0.04925-0.11743-0.04925-0.25001v-1.2879q0-0.13258 0.04925-0.24622 0.04924-0.11743 0.13637-0.20456 0.08713-0.0871 0.20077-0.13637 0.11743-0.0492 0.25001-0.0492t0.24622 0.0492q0.11743 0.0492 0.20456 0.13637 0.08713 0.0871 0.13637 0.20456 0.04924 0.11364 0.04924 0.24622v1.2879q0 0.13258-0.04924 0.25001-0.04925 0.11365-0.13637 0.20077-0.08712 0.0871-0.20456 0.13637-0.11364 0.0492-0.24622 0.0492zm0-2.1971q-0.11364 0-0.19319 0.0795-0.07955 0.0795-0.07955 0.19319v1.2879q0 0.11364 0.07955 0.19319 0.07955 0.0795 0.19319 0.0795 0.11364 0 0.19319-0.0795 0.07955-0.0796 0.07955-0.19319v-1.2879q0-0.11364-0.07955-0.19319-0.07955-0.0795-0.19319-0.0795z"/>
    <path d="m63.927 284.2q0 0.11364 0.07955 0.19319 0.07955 0.0795 0.19319 0.0795 0.10985 0 0.1894-0.0795 0.08334-0.0796 0.08334-0.19319v-1.7425q0-0.0758 0.05303-0.1288t0.12879-0.053q0.07576 0 0.12879 0.053 0.05303 0.053 0.05303 0.1288v1.7425q0 0.13258-0.05303 0.25001-0.04924 0.11365-0.13637 0.20077-0.08334 0.0871-0.20077 0.13637-0.11743 0.0492-0.24622 0.0492-0.13258 0-0.25001-0.0492-0.11364-0.0492-0.20077-0.13637-0.08713-0.0871-0.13637-0.20077-0.04924-0.11743-0.04924-0.25001v-1.7425q0-0.0758 0.05303-0.1288t0.12879-0.053q0.07576 0 0.12879 0.053 0.05303 0.053 0.05303 0.1288z"/>
    <path d="m66.215 282.29q0.07576 0 0.12879 0.053 0.05303 0.053 0.05303 0.1288t-0.05303 0.12879q-0.05303 0.053-0.12879 0.053h-0.31062v2.0001q0 0.0758-0.05303 0.12879-0.05303 0.053-0.12879 0.053-0.07576 0-0.12879-0.053-0.05303-0.053-0.05303-0.12879v-2.0001h-0.31062q-0.07576 0-0.12879-0.053-0.05303-0.053-0.05303-0.12879 0-0.0758 0.05303-0.1288t0.12879-0.053z"/>
   </g>
   <g fill="#fff" stroke-width=".29095" aria-label="IN">
    <path d="m5.5978 285.37q-0.077464 0-0.13169-0.0542-0.054225-0.0542-0.054225-0.13169v-2.2464q0-0.0775 0.054225-0.13169 0.054225-0.0542 0.13169-0.0542 0.077464 0 0.13169 0.0542 0.054225 0.0542 0.054225 0.13169v2.2464q0 0.0775-0.054225 0.13169-0.054225 0.0542-0.13169 0.0542z"/>
    <path d="m7.4995 285.36q-0.065844 0.0155-0.12394-0.0155-0.058098-0.0271-0.08521-0.0852-0.1162-0.24788-0.24401-0.50739-0.10845-0.22077-0.24014-0.48802-0.12782-0.26725-0.24788-0.51901v1.4331q0 0.0775-0.054225 0.13169-0.054225 0.0542-0.13169 0.0542-0.077464 0-0.13169-0.0542-0.054225-0.0542-0.054225-0.13169v-2.2464q0-0.0658 0.038732-0.11619 0.038732-0.0503 0.10458-0.0659 0.065844-0.0155 0.12007 0.0155 0.058098 0.0271 0.089083 0.0852 0.1162 0.24788 0.24401 0.50738 0.10845 0.22078 0.23626 0.48803 0.12782 0.26725 0.25176 0.519v-1.4331q0-0.0775 0.054225-0.13169 0.054225-0.0542 0.13169-0.0542 0.077464 0 0.13169 0.0542 0.054225 0.0542 0.054225 0.13169v2.2465q0 0.0659-0.042605 0.1162-0.038732 0.0503-0.1007 0.0658z"/>
   </g>
   <g fill="#fff" stroke-width=".29537" aria-label="HEX MIX VCA">
    <path d="m26.531 170.78q0-0.10028 0.0702-0.17048t0.17048-0.0702q0.10028 0 0.17048 0.0702 0.0702 0.0702 0.0702 0.17048v2.9081q0 0.10028-0.0702 0.17048t-0.17048 0.0702q-0.10028 0-0.17048-0.0702-0.0702-0.0702-0.0702-0.17048v-1.2635h-0.72202v1.2635q0 0.10028-0.0702 0.17048t-0.17048 0.0702q-0.10028 0-0.17048-0.0702-0.0702-0.0702-0.0702-0.17048v-2.9081q0-0.10028 0.0702-0.17048t0.17048-0.0702q0.10028 0 0.17048 0.0702 0.0702 0.0702 0.0702 0.17048v1.1632h0.72202z"/>
    <path d="m27.534 170.8q0-0.10028 0.0702-0.17047 0.0702-0.0702 0.17048-0.0702h1.0028q0.10028 0 0.17048 0.0702 0.0702 0.0702 0.0702 0.17047 0 0.10028-0.0702 0.17048t-0.17048 0.0702h-0.76213v0.90252h0.66185q0.10028 0 0.17048 0.0702 0.0702 0.0702 0.0702 0.17048t-0.0702 0.17048-0.17048 0.0702h-0.66185v1.0028h0.76213q0.10028 0 0.17048 0.0702 0.0702 0.0702 0.0702 0.17047 0 0.10028-0.0702 0.17048t-0.17048 0.0702h-1.0028q-0.10028 0-0.17048-0.0702-0.0702-0.0702-0.0702-0.17048v-2.868z"/>
    <path d="m29.314 173.9q-0.08524-0.0451-0.12034-0.14039-0.03008-0.0953 0.01504-0.1805l0.69695-1.3989-0.64681-1.2936q-0.04513-0.0903-0.01504-0.18552 0.0351-0.0953 0.12034-0.1404 0.09025-0.0451 0.18552-0.01 0.09527 0.0301 0.14039 0.12034l0.48636 0.97273 0.48636-0.97273q0.04513-0.0902 0.14039-0.12034 0.09527-0.0351 0.1805 0.01 0.09025 0.0451 0.12034 0.1404 0.0351 0.0953-0.01003 0.18552l-0.64681 1.2936 0.69695 1.3989q0.04513 0.0852 0.01003 0.1805-0.03008 0.0953-0.12034 0.14039-0.08524 0.0451-0.18051 0.01-0.09527-0.0301-0.14039-0.11532l-0.5365-1.078-0.5365 1.078q-0.04513 0.0852-0.14039 0.11532-0.09527 0.0351-0.18552-0.01z"/>
    <path d="m32.698 173.92q-0.10028 0-0.17048-0.0702-0.0702-0.0702-0.0702-0.17048v-2.9081q0-0.0852 0.05014-0.15042 0.05014-0.0652 0.13538-0.0852 0.08524-0.0201 0.16045 0.02 0.07521 0.0351 0.11031 0.11533 0.10028 0.22061 0.20558 0.43622 0.08524 0.19053 0.19053 0.40613 0.1053 0.21059 0.19053 0.39611 0.08524-0.18552 0.18552-0.39611 0.1053-0.2156 0.19053-0.40613 0.10028-0.21561 0.20558-0.43622 0.04011-0.0802 0.11031-0.11533 0.07521-0.0401 0.16045-0.02 0.08524 0.02 0.13538 0.0852 0.05515 0.0652 0.05515 0.15042v2.9081q0 0.10028-0.0702 0.17048t-0.17048 0.0702q-0.10028 0-0.17048-0.0702-0.0702-0.0702-0.0702-0.17048v-1.8301q-0.06518 0.13537-0.12535 0.26574-0.06017 0.13036-0.11031 0.23065-0.05515 0.12033-0.11031 0.23064-0.03008 0.0652-0.09025 0.1053-0.05515 0.0351-0.12535 0.0351-0.15544 0-0.22062-0.14039-0.05515-0.11031-0.11031-0.23064-0.05014-0.10029-0.11031-0.23065-0.06017-0.13037-0.12034-0.26574v1.8301q0 0.10028-0.0702 0.17048t-0.17048 0.0702z"/>
    <path d="m35.305 173.92q-0.10028 0-0.17048-0.0702-0.0702-0.0702-0.0702-0.17048v-2.9081q0-0.10028 0.0702-0.17048t0.17048-0.0702q0.10028 0 0.17048 0.0702 0.0702 0.0702 0.0702 0.17048v2.9081q0 0.10028-0.0702 0.17048t-0.17048 0.0702z"/>
    <path d="m36.002 173.9q-0.08524-0.0451-0.12034-0.14039-0.03008-0.0953 0.01504-0.1805l0.69695-1.3989-0.64681-1.2936q-0.04513-0.0903-0.01504-0.18552 0.0351-0.0953 0.12034-0.1404 0.09025-0.0451 0.18552-0.01 0.09527 0.0301 0.14039 0.12034l0.48636 0.97273 0.48636-0.97273q0.04513-0.0902 0.14039-0.12034 0.09527-0.0351 0.1805 0.01 0.09025 0.0451 0.12034 0.1404 0.0351 0.0953-0.01003 0.18552l-0.64681 1.2936 0.69695 1.3989q0.04513 0.0852 0.01003 0.1805-0.03008 0.0953-0.12034 0.14039-0.08524 0.0451-0.1805 0.01-0.09527-0.0301-0.14039-0.11532l-0.5365-1.078-0.5365 1.078q-0.04513 0.0852-0.14039 0.11532-0.09527 0.0351-0.18552-0.01z"/>
    <path d="m38.976 170.84q-0.02507-0.10028 0.02006-0.18552 0.05014-0.0852 0.15042-0.11031 0.09527-0.0251 0.1805 0.0251 0.09025 0.0451 0.11532 0.14039 0.09527 0.356 0.19555 0.71701 0.08524 0.31087 0.18552 0.67188 0.10028 0.36101 0.19053 0.68191 0.08524-0.3209 0.18552-0.68191 0.10028-0.36101 0.18552-0.67188 0.09527-0.36101 0.19555-0.71701 0.02507-0.0953 0.11031-0.14039 0.09025-0.0501 0.18552-0.0251 0.10028 0.0251 0.14541 0.11031 0.05014 0.0852 0.02507 0.18552l-0.80225 2.9081q-0.02507 0.0802-0.09025 0.12535-0.06017 0.0501-0.14039 0.0501-0.08524 0-0.15042-0.0501-0.06017-0.0451-0.08524-0.12535z"/>
    <path d="m41.954 173.89q-0.13538-0.0351-0.2507-0.11031-0.11532-0.0802-0.20056-0.18552-0.08023-0.11031-0.12535-0.24067-0.04513-0.13037-0.04513-0.27577v-1.7048q0-0.14039 0.04513-0.27076 0.04513-0.13538 0.12535-0.24067 0.08524-0.11031 0.20056-0.18552 0.11532-0.0802 0.2507-0.11532 0.28079-0.0752 0.54152 0.0351 0.26073 0.10529 0.40614 0.35599 0.05515 0.0852 0.02507 0.18051-0.02507 0.0953-0.11031 0.15042-0.08524 0.0501-0.1805 0.0251-0.09527-0.0301-0.15042-0.11532-0.06017-0.1053-0.17549-0.15043-0.11031-0.0501-0.23065-0.015-0.11532 0.0301-0.19053 0.13037-0.07521 0.0953-0.07521 0.2156v1.7048q0 0.12535 0.07521 0.22061 0.07521 0.0953 0.19053 0.13037 0.12034 0.0301 0.23065-0.015 0.11532-0.0501 0.17549-0.15544 0.05515-0.0852 0.15042-0.11031 0.09527-0.0301 0.1805 0.0201 0.08524 0.0551 0.11031 0.15042 0.03008 0.0953-0.02507 0.1805-0.14541 0.25071-0.40614 0.356-0.26073 0.11031-0.54152 0.0351z"/>
    <path d="m45.178 173.62q0.02507 0.10028-0.02507 0.18552-0.04513 0.0852-0.14039 0.11031-0.10028 0.0251-0.18552-0.0251-0.08524-0.0451-0.11031-0.1404-0.02006-0.0602-0.04011-0.1454-0.02006-0.0702-0.05014-0.16547-0.02507-0.10028-0.05515-0.2156h-0.85239q-0.0351 0.11532-0.06017 0.2156-0.02507 0.0953-0.04513 0.16547-0.02006 0.0852-0.04011 0.1454-0.02507 0.0953-0.11031 0.1404-0.08524 0.0501-0.18552 0.0251-0.09527-0.0251-0.14541-0.11031-0.04513-0.0852-0.02006-0.18552l0.80225-2.9082q0.02006-0.0802 0.08022-0.12535 0.06518-0.0501 0.15042-0.0501 0.08524 0 0.14541 0.0501 0.06518 0.0451 0.08524 0.12535zm-0.74208-0.87746q-0.0702-0.26073-0.14541-0.5365-0.07521-0.27577-0.14541-0.52146-0.0702 0.24569-0.14541 0.52146-0.07521 0.27577-0.14541 0.5365z"/>
   </g>
  </g>
  <g transform="translate(0 -93.02)">
   <rect x="63.687" y="271.63" width="7.086" height="10.727" fill="#fff"/>
   <circle cx="64.25" cy="277.01" r="6.3225" fill="#171717"/>
  </g>
  <g fill="none" stroke="#fff">
   <path d="m22.644 271.34a6.0621 6.0621 0 0 1 3.7566 4.36 6.0621 6.0621 0 0 1-1.5795 5.5342" stroke-linejoin="round" stroke-width=".21622"/>
   <g>
    <g stroke-width=".2">
     <path d="m19.281 269.19v1.8521h3.0427"/>
     <path d="m14.386 281.74v1.8521h3.0427"/>
     <path d="m23.762 281.68v1.8521h3.0427"/>
    </g>
    <path d="m22.042 269.57-2.7616 1.4717" stroke-width=".35"/>
    <path d="m17.16 281.94c-0.3762 1.9513-2.3812 1.4635-2.7657 1.5296" stroke-width=".35"/>
    <path d="m26.453 282.08c-1.8242 2e-3 -2.013 0.24579-2.469 1.4502" stroke-width=".35"/>
   </g>
  </g>
  <g transform="translate(0 -18.604)">
   <g>
    <rect x="63.687" y="271.63" width="7.086" height="10.727" fill="#fff"/>
    <circle cx="64.25" cy="277.01" r="6.3225" fill="#171717"/>
   </g>
  </g>
  <g transform="translate(0 -37.208)">
   <g>
    <rect x="63.687" y="271.63" width="7.086" height="10.727" fill="#fff"/>
    <circle cx="64.25" cy="277.01" r="6.3225" fill="#171717"/>
   </g>
  </g>
  <g transform="translate(0 -55.812)">
   <g>
    <rect x="63.687" y="271.63" width="7.086" height="10.727" fill="#fff"/>
    <circle cx="64.25" cy="277.01" r="6.3225" fill="#171717"/>
   </g>
  </g>
  <g transform="translate(0 -74.416)">
   <g>
    <rect x="63.687" y="271.63" width="7.086" height="10.727" fill="#fff"/>
    <circle cx="64.25" cy="277.01" r="6.3225" fill="#171717"/>
   </g>
  </g>
  <path d="m64.178 184.07v87.486" fill="none" stroke="#fff" stroke-width=".3"/>
  <g>
   <path d="m-0.033869 275.69v2.6629l2.3464-1.3547-2.3464-1.3536z"/>
   <path d="m-0.033869 257.09v2.6629l2.3464-1.3547-2.3464-1.3536z"/>
   <path d="m-0.033869 238.49v2.6629l2.3464-1.3547-2.3464-1.3536z"/>
   <path d="m-0.033869 219.89v2.6629l2.3464-1.3547-2.3464-1.3536z"/>
   <path d="m-0.033869 201.29v2.6629l2.3464-1.3547-2.3464-1.3536z"/>
   <path d="m-0.033869 182.69v2.6629l2.3464-1.3547-2.3464-1.3536z"/>
  </g>
 </g>
 <g display="none" fill-rule="evenodd">
  <g fill="#0f0">
   <circle cx="52.083" cy="15.51" r="2" display="inline" style="paint-order:normal"/>
   <circle cx="52.083" cy="34.115" r="2" display="inline" style="paint-order:normal"/>
   <circle cx="52.083" cy="52.72" r="2" display="inline" style="paint-order:normal"/>
   <circle cx="52.083" cy="71.325" r="2" display="inline" style="paint-order:normal"/>
  </g>
  <g fill="#00f">
   <circle cx="64.222" cy="15.51" r="2" display="inline" style="paint-order:normal"/>
   <circle cx="64.222" cy="34.115" r="2" display="inline" style="paint-order:normal"/>
   <circle cx="64.222" cy="52.72" r="2" display="inline" style="paint-order:normal"/>
   <circle cx="64.222" cy="71.325" r="2" display="inline" style="paint-order:normal"/>
  </g>
  <g fill="#0f0">
   <circle cx="6.5807" cy="15.51" r="2" display="inline" style="paint-order:normal"/>
   <circle cx="6.5807" cy="34.115" r="2" display="inline" style="paint-order:normal"/>
   <circle cx="6.5807" cy="52.72" r="2" display="inline" style="paint-order:normal"/>
   <circle cx="6.5807" cy="71.325" r="2" display="inline" style="paint-order:normal"/>
  </g>
  <g fill="#f00" fill-opacity=".50196">
   <circle cx="35.458" cy="15.51" r="2" display="inline" style="paint-order:normal"/>
   <circle cx="35.458" cy="34.115" r="2" display="inline" style="paint-order:normal"/>
   <circle cx="35.458" cy="52.72" r="2" display="inline" style="paint-order:normal"/>
   <circle cx="35.458" cy="71.325" r="2" display="inline" style="paint-order:normal"/>
   <circle cx="35.458" cy="89.93" r="2" display="inline" style="paint-order:normal"/>
   <circle cx="35.458" cy="108.54" r="2" display="inline" style="paint-order:normal"/>
  </g>
  <g>
   <circle cx="6.5807" cy="89.93" r="2" display="inline" fill="#0f0" style="paint-order:normal"/>
   <circle cx="6.5807" cy="108.54" r="2" display="inline" fill="#0f0" style="paint-order:normal"/>
   <circle cx="64.222" cy="89.93" r="2" display="inline" fill="#00f" style="paint-order:normal"/>
   <circle cx="64.222" cy="108.54" r="2" display="inline" fill="#00f" style="paint-order:normal"/>
   <circle cx="52.083" cy="89.93" r="2" display="inline" fill="#0f0" style="paint-order:normal"/>
   <circle cx="52.083" cy="108.54" r="2" display="inline" fill="#0f0" style="paint-order:normal"/>
  </g>
  <g fill="#f00" fill-opacity=".50196">
   <circle cx="20.412" cy="15.51" r="2" display="inline" opacity=".49521" style="paint-order:normal"/>
   <circle cx="20.412" cy="34.115" r="2" display="inline" opacity=".49521" style="paint-order:normal"/>
   <circle cx="20.412" cy="52.72" r="2" display="inline" opacity=".49521" style="paint-order:normal"/>
   <circle cx="20.412" cy="71.325" r="2" display="inline" opacity=".49521" style="paint-order:normal"/>
   <circle cx="20.412" cy="89.93" r="2" display="inline" opacity=".49521" style="paint-order:normal"/>
   <circle cx="20.412" cy="108.54" r="2" display="inline" opacity=".49521" style="paint-order:normal"/>
  </g>
 </g>
</svg>
