<?xml version="1.0" encoding="UTF-8"?>
<svg width="30.48mm" height="128.5mm" version="1.1" viewBox="0 0 30.48 128.5" xmlns="http://www.w3.org/2000/svg" xmlns:cc="http://creativecommons.org/ns#" xmlns:dc="http://purl.org/dc/elements/1.1/" xmlns:rdf="http://www.w3.org/1999/02/22-rdf-syntax-ns#" xmlns:xlink="http://www.w3.org/1999/xlink">
 <defs>
  <clipPath id="clipPath11862-0-0">
   <path d="m60.767 11.233h12.239v16.111h-12.239z" stroke-width="1.0667"/>
  </clipPath>
  <linearGradient id="linearGradient15156" x1="44.487" x2="61.383" y1="73.831" y2="73.831" gradientTransform="matrix(.32393 0 0 .23827 -1.7286 3.3166)" gradientUnits="userSpaceOnUse">
   <stop offset="0"/>
   <stop stop-opacity="0" offset="1"/>
  </linearGradient>
 </defs>
 <metadata>
  <rdf:RDF>
   <cc:Work rdf:about="">
    <dc:format>image/svg+xml</dc:format>
    <dc:type rdf:resource="http://purl.org/dc/dcmitype/StillImage"/>
   </cc:Work>
  </rdf:RDF>
 </metadata>
 <rect y="-2.7756e-17" width="30.489" height="128.5" fill="#171717" stroke-linejoin="round" stroke-width="3.0275"/>
 <g fill="#fff" stroke-width=".28222" aria-label="KICKALL">
  <path d="m15.809 4.4169q0.04233 0.09525 0.0053 0.19579-0.03175 0.10054-0.127 0.14288-0.09525 0.047625-0.19579 0.010583-0.09525-0.03175-0.14288-0.127l-0.69322-1.4446-0.20108 0.27517v1.0583q0 0.10583-0.07408 0.17992-0.07408 0.074083-0.17992 0.074083-0.10583 0-0.17992-0.074083-0.07408-0.074083-0.07408-0.17992v-3.0692q0-0.10583 0.07408-0.17992 0.07408-0.074083 0.17992-0.074083 0.10583 0 0.17992 0.074083 0.07408 0.074083 0.07408 0.17992v1.1377l0.91546-1.2859q0.0635-0.084667 0.16404-0.10054 0.10583-0.015875 0.1905 0.042333 0.08996 0.058208 0.10583 0.16404 0.01587 0.10054-0.04763 0.1905l-0.79375 1.1165z"/>
  <path d="m16.582 4.782q-0.10583 0-0.17992-0.074083-0.07408-0.074083-0.07408-0.17992v-3.0692q0-0.10583 0.07408-0.17992 0.07408-0.074083 0.17992-0.074083 0.10583 0 0.17992 0.074083 0.07408 0.074083 0.07408 0.17992v3.0692q0 0.10583-0.07408 0.17992-0.07408 0.074083-0.17992 0.074083z"/>
  <path d="m18.132 4.7503q-0.14288-0.037042-0.26458-0.11642-0.12171-0.084667-0.21167-0.19579-0.084667-0.11642-0.13229-0.254t-0.047625-0.29104v-1.7992q0-0.14817 0.04763-0.28575 0.04763-0.14288 0.13229-0.254 0.08996-0.11642 0.21167-0.19579 0.12171-0.084667 0.26458-0.12171 0.29633-0.079375 0.5715 0.037042 0.27517 0.11113 0.42863 0.37571 0.05821 0.089958 0.02646 0.1905-0.02646 0.10054-0.11642 0.15875-0.08996 0.052917-0.1905 0.026458-0.10054-0.03175-0.15875-0.12171-0.0635-0.11112-0.18521-0.15875-0.11642-0.052917-0.24342-0.015875-0.12171 0.03175-0.20108 0.13758-0.07937 0.10054-0.07937 0.22754v1.7992q0 0.13229 0.07937 0.23283 0.07937 0.10054 0.20108 0.13758 0.127 0.03175 0.24342-0.015875 0.12171-0.052917 0.18521-0.16404 0.05821-0.089958 0.15875-0.11642 0.10054-0.03175 0.1905 0.021167 0.08996 0.058208 0.11642 0.15875 0.03175 0.10054-0.02646 0.1905-0.15346 0.26458-0.42863 0.37571-0.27517 0.11642-0.5715 0.037042z"/>
  <path d="m21.593 4.4169q0.04233 0.09525 0.0053 0.19579-0.03175 0.10054-0.127 0.14288-0.09525 0.047625-0.19579 0.010583-0.09525-0.03175-0.14288-0.127l-0.69322-1.4446-0.20108 0.27517v1.0583q0 0.10583-0.07408 0.17992-0.07408 0.074083-0.17992 0.074083-0.10583 0-0.17992-0.074083-0.07408-0.074083-0.07408-0.17992v-3.0692q0-0.10583 0.07408-0.17992 0.07408-0.074083 0.17992-0.074083 0.10583 0 0.17992 0.074083 0.07408 0.074083 0.07408 0.17992v1.1377l0.91546-1.2859q0.0635-0.084667 0.16404-0.10054 0.10583-0.015875 0.1905 0.042333 0.08996 0.058208 0.10583 0.16404 0.01587 0.10054-0.04763 0.1905l-0.79375 1.1165z"/>
  <path d="m24.069 4.4592q0.02646 0.10583-0.02646 0.19579-0.04763 0.089958-0.14817 0.11642-0.10583 0.026458-0.19579-0.026458-0.08996-0.047625-0.11642-0.14817-0.02117-0.0635-0.04233-0.15346-0.02117-0.074083-0.05292-0.17463-0.02646-0.10583-0.05821-0.22754h-0.89958q-0.03704 0.12171-0.0635 0.22754-0.02646 0.10054-0.04763 0.17463-0.02117 0.089958-0.04233 0.15346-0.02646 0.10054-0.11642 0.14817-0.08996 0.052917-0.19579 0.026458-0.10054-0.026458-0.15345-0.11642-0.047625-0.089958-0.021167-0.19579l0.84667-3.0692q0.02117-0.084667 0.08467-0.13229 0.06879-0.052917 0.15875-0.052917t0.15346 0.052917q0.06879 0.047625 0.08996 0.13229zm-0.78317-0.92604q-0.074084-0.27517-0.15346-0.56621-0.079375-0.29104-0.15346-0.55033-0.074083 0.25929-0.15346 0.55033-0.079375 0.29104-0.15346 0.56621z"/>
  <path d="m24.804 4.7608q-0.10583 0-0.17992-0.074083-0.07408-0.074083-0.07408-0.17992v-3.048q0-0.10583 0.07408-0.17992 0.07408-0.074083 0.17992-0.074083 0.10583 0 0.17992 0.074083 0.07408 0.074083 0.07408 0.17992v2.794h0.80433q0.10583 0 0.17992 0.074083 0.07408 0.074083 0.07408 0.17992 0 0.10583-0.07408 0.17992-0.07408 0.074083-0.17992 0.074083h-1.0583z"/>
  <path d="m26.799 4.7608q-0.10583 0-0.17992-0.074083-0.07408-0.074083-0.07408-0.17992v-3.048q0-0.10583 0.07408-0.17992 0.07408-0.074083 0.17992-0.074083 0.10583 0 0.17992 0.074083 0.07408 0.074083 0.07408 0.17992v2.794h0.80433q0.10583 0 0.17992 0.074083 0.07408 0.074083 0.07408 0.17992 0 0.10583-0.07408 0.17992-0.07408 0.074083-0.17992 0.074083h-1.0583z"/>
 </g>
 <g transform="matrix(-.26458 0 0 .26458 45.127 7.6819)" fill="none" stroke="#fff" stroke-width="1.9857">
  <g transform="matrix(.027063 0 0 .71153 71.369 120.74)">
   <g stroke-linecap="round">
    <path d="m9.0167 311.52 189.68 3.7e-4"/>
    <path d="m9.0167 307.26h189.68"/>
    <path d="m9.0167 300.86h189.68"/>
    <path d="m9.0167 290.19h189.68"/>
    <path d="m9.0167 273.12h189.68"/>
    <path d="m9.0167 247.52h189.68"/>
    <path d="m9.0167 209.12h189.68"/>
   </g>
   <path d="m9.0167 151.52h189.68"/>
  </g>
  <g transform="matrix(.027063 0 0 .71153 94.836 120.74)">
   <g stroke-linecap="round">
    <path d="m9.0167 311.52 189.68 3.7e-4"/>
    <path d="m9.0167 307.26h189.68"/>
    <path d="m9.0167 300.86h189.68"/>
    <path d="m9.0167 290.19h189.68"/>
    <path d="m9.0167 273.12h189.68"/>
    <path d="m9.0167 247.52h189.68"/>
    <path d="m9.0167 209.12h189.68"/>
   </g>
   <path d="m9.0167 151.52h189.68"/>
  </g>
 </g>
 <g transform="matrix(-.20182 0 0 .20182 197.56 -46.434)" enable-background="new">
  <g transform="matrix(1.435 0 0 1.435 -276.95 -296.61)">
   <g fill="#fff">
    <path transform="scale(-1,1)" d="m-855.43 631.89a19.5 19.502 0 0 1-9.2934-21.969 19.5 19.502 0 0 1 18.918-14.529 19.5 19.502 0 0 1 18.824 14.649 19.5 19.502 0 0 1-9.4334 21.909" enable-background="new" fill="none" stroke="#fff" stroke-width="1.1532px"/>
    <path d="m835.74 630.7c0.56677-0.3272 1.2916-0.13299 1.6188 0.43376 0.32724 0.56682 0.13302 1.2916-0.43377 1.6188-0.5668 0.32727-1.2916 0.13306-1.6188-0.43376-0.32726-0.56674-0.13305-1.2916 0.43376-1.6188" enable-background="new" fill="#fff"/>
    <path d="m854.34 631.73c3e-5 -0.65454 0.5307-1.1852 1.1852-1.1852 0.6546 4e-5 1.1853 0.53072 1.1853 1.1853 3e-5 0.65461-0.53064 1.1853-1.1852 1.1852-0.65455 3e-5 -1.1852-0.53065-1.1853-1.1853" enable-background="new" fill="#fff"/>
   </g>
  </g>
 </g>
 <g transform="matrix(.20182 0 0 .20182 -180.54 -24.723)" enable-background="new">
  <g transform="matrix(1.435 0 0 1.435 -276.95 -296.61)">
   <g fill="#fff">
    <path transform="scale(-1,1)" d="m-855.43 631.89a19.5 19.502 0 0 1-9.2934-21.969 19.5 19.502 0 0 1 18.918-14.529 19.5 19.502 0 0 1 18.824 14.649 19.5 19.502 0 0 1-9.4334 21.909" enable-background="new" fill="none" stroke="#fff" stroke-width="1.1532px"/>
    <path d="m835.74 630.7c0.56677-0.3272 1.2916-0.13299 1.6188 0.43376 0.32724 0.56682 0.13302 1.2916-0.43377 1.6188-0.5668 0.32727-1.2916 0.13306-1.6188-0.43376-0.32726-0.56674-0.13305-1.2916 0.43376-1.6188" enable-background="new" fill="#fff"/>
    <path d="m854.34 631.73c3e-5 -0.65454 0.5307-1.1852 1.1852-1.1852 0.6546 4e-5 1.1853 0.53072 1.1853 1.1853 3e-5 0.65461-0.53064 1.1853-1.1852 1.1852-0.65455 3e-5 -1.1852-0.53065-1.1853-1.1853" enable-background="new" fill="#fff"/>
   </g>
  </g>
 </g>
 <g transform="matrix(.20182 0 0 .20182 -180.54 -89.27)" enable-background="new">
  <g transform="matrix(1.435 0 0 1.435 -276.95 -296.61)">
   <g fill="#fff">
    <path transform="scale(-1,1)" d="m-855.43 631.89a19.5 19.502 0 0 1-9.2934-21.969 19.5 19.502 0 0 1 18.918-14.529 19.5 19.502 0 0 1 18.824 14.649 19.5 19.502 0 0 1-9.4334 21.909" enable-background="new" fill="none" stroke="#fff" stroke-width="1.1532px"/>
    <path d="m835.74 630.7c0.56677-0.3272 1.2916-0.13299 1.6188 0.43376 0.32724 0.56682 0.13302 1.2916-0.43377 1.6188-0.5668 0.32727-1.2916 0.13306-1.6188-0.43376-0.32726-0.56674-0.13305-1.2916 0.43376-1.6188" enable-background="new" fill="#fff"/>
    <path d="m854.34 631.73c3e-5 -0.65454 0.5307-1.1852 1.1852-1.1852 0.6546 4e-5 1.1853 0.53072 1.1853 1.1853 3e-5 0.65461-0.53064 1.1853-1.1852 1.1852-0.65455 3e-5 -1.1852-0.53065-1.1853-1.1853" enable-background="new" fill="#fff"/>
   </g>
  </g>
 </g>
 <g transform="matrix(.40395 0 0 .40395 -362.9 -187.25)" enable-background="new" stroke="#fff" stroke-linecap="round" stroke-width=".69624">
  <g transform="matrix(1.435 0 0 1.435 -276.95 -296.61)" stroke="#fff" stroke-linecap="round" stroke-width=".4852">
   <g fill="#fff" stroke="#fff" stroke-linecap="round" stroke-width=".4852">
    <g stroke="#fff" stroke-linecap="round" stroke-width=".4852">
     <path transform="scale(-1,1)" d="m-859.83 628.52a19.5 19.502 0 0 1 0.20426-27.449 19.5 19.502 0 0 1 27.447-0.0539 19.5 19.502 0 0 1 0.31207 27.448" enable-background="new" fill="none" stroke="#fff" stroke-linecap="round" stroke-width=".51755"/>
    </g>
   </g>
  </g>
 </g>
 <path d="m26.057 61.693c1.3058 0 2.362 1.0562 2.362 2.362v37.943c0 1.3058-1.0562 2.362-2.362 2.362h-7.3218c-1.3058 0-2.3625-1.0562-2.3625-2.362v-37.943c0-1.3058 1.0568-2.362 2.3625-2.362zm0 0.33404h-7.3218c-1.1265 0-2.0285 0.90142-2.0285 2.0279v37.943c0 1.1265 0.90195 2.0279 2.0285 2.0279h7.3218c1.1265 0 2.0279-0.90143 2.0279-2.0279v-37.943c0-1.1265-0.90145-2.0279-2.0279-2.0279z" color="#000000" color-rendering="auto" fill="#fff" image-rendering="auto" shape-rendering="auto" solid-color="#000000" stroke-width="0" style="isolation:auto;mix-blend-mode:normal;text-decoration-color:#000000;text-decoration-line:none;text-decoration-style:solid;text-indent:0;text-transform:none;white-space:normal"/>
 <g transform="matrix(.22494 0 0 .22494 -39.646 5.6783)">
  <g transform="matrix(.10651 0 0 .10651 218.82 498.27)" fill="#fff">
   <g fill="#fff">
    <polygon transform="scale(1.0667)" points="571.69 289.29 606.32 289.29 606.32 298.07 640.94 298.07 640.94 259.06 537.07 259.06 537.07 362.93 640.94 362.93 640.94 328.3 606.32 328.3 571.69 328.3 571.69 305.22"/>
    <g stroke-width="1.0667">
     <path d="m443.54 321.06v66.065h36.864v-32.247h36.933v32.247h37.001v-110.8h-66.067zm73.82 10.667-36.979-2e-3 36.979-33.687z"/>
     <path d="m111.1 276.33v-18.732h-36.979l0.1664 129.53h110.8v-110.8zm55.038 60.337h-18.485v16.068h-10.009v-16.068h-3.5157l-23.199 16.068v-16.068h-18.177v-9.3643h18.177v-16.067l23.198 16.067h3.5168v-16.067h10.009v16.067h18.485z"/>
     <path d="m702.14 276.33v110.8h110.8v-110.8zm73.731 73.865h-36.932v-36.931h36.932z"/>
    </g>
    <polygon transform="scale(1.0667)" points="294.7 362.93 294.7 332.7 272.37 311.11 294.7 289.29 294.7 259.06 190.82 259.06 190.82 289.29 253.52 289.29 231.13 310.99 254.39 332.7 190.82 332.7 190.82 362.93"/>
    <polygon transform="scale(1.0667)" points="312.34 332.86 312.34 363.05 355.54 363.29 355.54 332.56 375.97 311.11 355.54 289.27 405.68 289.41 436.56 259.18 312.34 259.18 312.34 289.41 333.84 311.11"/>
   </g>
  </g>
 </g>
 <g fill="none" stroke="#fff" stroke-width=".282">
  <path d="m26.753 25.814a5.3832 5.3832 0 0 1 0.03357 6.6472"/>
  <path d="m27.41 25.106a6.3933 6.3903 0 0 1 0.02204 8.078"/>
  <path d="m28.069 24.441a7.272 7.272 0 0 1 0.02194 9.4093"/>
 </g>
 <g fill="#fff">
  <path d="m28.871 23.602-0.21153 0.18603c0.94825 1.0812 1.5929 2.3941 1.8693 3.8055l-7.94e-4 -1.107c-0.35404-1.0586-0.91615-2.0398-1.6569-2.8845z" color="#000000" color-rendering="auto" image-rendering="auto" shape-rendering="auto" solid-color="#000000" style="isolation:auto;mix-blend-mode:normal;text-decoration-color:#000000;text-decoration-line:none;text-decoration-style:solid;text-indent:0;text-transform:none;white-space:normal"/>
  <path d="m30.53 30.731c-0.27663 1.4064-0.92112 2.7152-1.8652 3.7937l0.21222 0.18534c0.73678-0.84169 1.2982-1.8188 1.6514-2.8726z" color="#000000" color-rendering="auto" image-rendering="auto" shape-rendering="auto" solid-color="#000000" style="isolation:auto;mix-blend-mode:normal;text-decoration-color:#000000;text-decoration-line:none;text-decoration-style:solid;text-indent:0;text-transform:none;white-space:normal"/>
  <g enable-background="new" stroke-width=".28222" aria-label="TRIGG">
   <path d="m3.6195 19.797q0.066482 0 0.11302 0.04654 0.046538 0.04654 0.046538 0.11302t-0.046538 0.11302-0.11302 0.04654h-0.27258v1.7551q0 0.06648-0.046538 0.11302t-0.11302 0.04654-0.11302-0.04654q-0.046538-0.04654-0.046538-0.11302v-1.7551h-0.27258q-0.066482 0-0.11302-0.04654-0.046538-0.04654-0.046538-0.11302t0.046538-0.11302 0.11302-0.04654z"/>
   <path d="m5.0945 20.542q0 0.16288-0.083103 0.29585-0.079779 0.12964-0.21607 0.19945l0.2892 0.77784q0.026593 0.06316-0.00332 0.12299-0.026593 0.05983-0.089751 0.0831t-0.12299-0.0033q-0.05651-0.02659-0.083103-0.08975l-0.30915-0.82773h-0.1795v0.7712q0 0.06648-0.046538 0.11302t-0.11302 0.04654q-0.066482 0-0.11302-0.04654-0.046538-0.04654-0.046538-0.11302v-1.9147q0-0.06648 0.046538-0.11302t0.11302-0.04654h0.39889q0.11634 0 0.21607 0.04321 0.10305 0.04321 0.1795 0.11967 0.076455 0.07645 0.11967 0.1795 0.043214 0.09972 0.043214 0.21607v0.18615zm-0.79779 0.23934h0.23934q0.099724 0 0.16953-0.06981 0.069807-0.06981 0.069807-0.16953v-0.18615q0-0.09972-0.069807-0.16953-0.069806-0.06981-0.16953-0.06981h-0.23934z"/>
   <path d="m5.5057 22.031q-0.066482 0-0.11302-0.04654-0.046538-0.04654-0.046538-0.11302v-1.928q0-0.06648 0.046538-0.11302t0.11302-0.04654q0.066482 0 0.11302 0.04654 0.046538 0.04654 0.046538 0.11302v1.928q0 0.06648-0.046538 0.11302t-0.11302 0.04654z"/>
   <path d="m6.9142 20.781q0.066482 0 0.11302 0.04654t0.046538 0.11302v0.53186q0 0.11634-0.043213 0.21939-0.043214 0.09972-0.11967 0.17618-0.076455 0.07645-0.1795 0.11967-0.099724 0.04321-0.21607 0.04321-0.11634 0-0.21939-0.04321-0.099724-0.04321-0.17618-0.11967-0.073131-0.07645-0.11967-0.17618-0.043214-0.10305-0.043214-0.21939v-1.1302q0-0.09308 0.029917-0.1795 0.029917-0.08975 0.083103-0.15956 0.05651-0.07313 0.13296-0.12299 0.076455-0.05319 0.16953-0.07645 0.089751-0.02327 0.18283-0.01662 0.093075 0.0033 0.17618 0.03989 0.083103 0.03324 0.15291 0.09308 0.069806 0.05983 0.11634 0.14294 0.033241 0.05651 0.013297 0.11967-0.016621 0.06316-0.073131 0.09972-0.05651 0.03324-0.11967 0.01662-0.063158-0.01994-0.096399-0.07645-0.043214-0.06981-0.11967-0.09972-0.073131-0.03324-0.14959-0.01-0.079779 0.01994-0.12964 0.08643-0.049862 0.06316-0.049862 0.14294v1.1302q0 0.09972 0.069806 0.16953 0.073131 0.06981 0.16953 0.06981 0.099724 0 0.16953-0.06981 0.069807-0.06981 0.069807-0.16953v-0.37229h-0.17286q-0.066482 0-0.11302-0.04654t-0.046538-0.11302q0-0.06648 0.046538-0.11302t0.11302-0.04654h0.33241z"/>
   <path d="m8.2695 20.781q0.066482 0 0.11302 0.04654 0.046538 0.04654 0.046538 0.11302v0.53186q0 0.11634-0.043214 0.21939-0.043214 0.09972-0.11967 0.17618-0.076455 0.07645-0.1795 0.11967-0.099724 0.04321-0.21607 0.04321-0.11634 0-0.21939-0.04321-0.099724-0.04321-0.17618-0.11967-0.073131-0.07645-0.11967-0.17618-0.043214-0.10305-0.043214-0.21939v-1.1302q0-0.09308 0.029917-0.1795 0.029917-0.08975 0.083103-0.15956 0.05651-0.07313 0.13296-0.12299 0.076455-0.05319 0.16953-0.07645 0.089751-0.02327 0.18283-0.01662 0.093075 0.0033 0.17618 0.03989 0.083103 0.03324 0.15291 0.09308 0.069807 0.05983 0.11634 0.14294 0.033241 0.05651 0.013296 0.11967-0.016621 0.06316-0.073131 0.09972-0.05651 0.03324-0.11967 0.01662-0.063158-0.01994-0.0964-0.07645-0.043214-0.06981-0.11967-0.09972-0.073131-0.03324-0.14959-0.01-0.079779 0.01994-0.12964 0.08643-0.049862 0.06316-0.049862 0.14294v1.1302q0 0.09972 0.069807 0.16953 0.073131 0.06981 0.16953 0.06981 0.099724 0 0.16953-0.06981 0.069806-0.06981 0.069806-0.16953v-0.37229h-0.17285q-0.066482 0-0.11302-0.04654-0.046538-0.04654-0.046538-0.11302 0-0.06648 0.046538-0.11302t0.11302-0.04654h0.33241z"/>
  </g>
  <g enable-background="new" stroke-width=".28222" aria-label="OUT">
   <path d="m24.17 22.031q-0.11634 0-0.21939-0.04321-0.09972-0.04321-0.17618-0.11967-0.07645-0.07645-0.11967-0.17618-0.04321-0.10305-0.04321-0.21939v-1.1302q0-0.11634 0.04321-0.21607 0.04321-0.10305 0.11967-0.1795 0.07645-0.07645 0.17618-0.11967 0.10305-0.04321 0.21939-0.04321 0.11634 0 0.21607 0.04321 0.10305 0.04321 0.1795 0.11967 0.07646 0.07645 0.11967 0.1795 0.04321 0.09972 0.04321 0.21607v1.1302q0 0.11634-0.04321 0.21939-0.04321 0.09972-0.11967 0.17618-0.07645 0.07645-0.1795 0.11967-0.09972 0.04321-0.21607 0.04321zm0-1.928q-0.09972 0-0.16953 0.06981t-0.06981 0.16953v1.1302q0 0.09972 0.06981 0.16953t0.16953 0.06981 0.16953-0.06981 0.06981-0.16953v-1.1302q0-0.09972-0.06981-0.16953t-0.16953-0.06981z"/>
   <path d="m25.313 21.473q0 0.09972 0.06981 0.16953t0.16953 0.06981q0.0964 0 0.16621-0.06981 0.07313-0.06981 0.07313-0.16953v-1.5291q0-0.06648 0.04654-0.11302t0.11302-0.04654 0.11302 0.04654 0.04654 0.11302v1.5291q0 0.11634-0.04654 0.21939-0.04321 0.09972-0.11967 0.17618-0.07313 0.07645-0.17618 0.11967-0.10305 0.04321-0.21607 0.04321-0.11634 0-0.21939-0.04321-0.09972-0.04321-0.17618-0.11967-0.07645-0.07645-0.11967-0.17618-0.04321-0.10305-0.04321-0.21939v-1.5291q0-0.06648 0.04654-0.11302t0.11302-0.04654 0.11302 0.04654 0.04654 0.11302v1.5291z"/>
   <path d="m27.306 19.797q0.06648 0 0.11302 0.04654t0.04654 0.11302-0.04654 0.11302-0.11302 0.04654h-0.27258v1.7551q0 0.06648-0.04654 0.11302t-0.11302 0.04654-0.11302-0.04654-0.04654-0.11302v-1.7551h-0.27258q-0.06648 0-0.11302-0.04654t-0.04654-0.11302 0.04654-0.11302 0.11302-0.04654z"/>
  </g>
 </g>
 <g transform="matrix(.22464 0 0 .22621 -108.34 -108.33)" fill="none" stroke="#fff" stroke-width=".87966">
  <title>Lienzo 1</title>
  <g stroke="#fff" stroke-width="1.8091">
   <title>Capa 1</title>
   <path d="m514.85 739.72 1.6798-3.6989c0.4945-1.089 1.7977-1.5792 2.9104-1.0952 0.50261 0.21867 0.90353 0.61333 1.1241 1.1064l3.2235 7.2061c0.48832 1.0916 1.7885 1.5892 2.904 1.1113 0.50268-0.21535 0.9052-0.60649 1.129-1.0968l1.6128-3.5329" stroke="#fff" stroke-linecap="round" stroke-width="1.9297"/>
  </g>
 </g>
 <g transform="matrix(.37523 0 0 -.37794 .43285 192.28)" stroke="#fff" stroke-width=".99579">
  <path d="m55.401 352.64v2.7934h3.9871v-5.4856h3.8868l-0.02483 2.6921" fill="none" stroke="#fff" stroke-linecap="round" stroke-linejoin="round" stroke-width="1.0622"/>
 </g>
 <g enable-background="new" fill="#fff" stroke-width=".28222" aria-label="TUNE">
  <path d="m6.8439 34.625q0.066482 0 0.11302 0.04654 0.046538 0.04654 0.046538 0.11302t-0.046538 0.11302q-0.046538 0.04654-0.11302 0.04654h-0.27258v1.7551q0 0.06648-0.046538 0.11302t-0.11302 0.04654q-0.066482 0-0.11302-0.04654-0.046538-0.04654-0.046538-0.11302v-1.7551h-0.27258q-0.066482 0-0.11302-0.04654-0.046538-0.04654-0.046538-0.11302 0-0.06648 0.046538-0.11302t0.11302-0.04654z"/>
  <path d="m7.4945 36.301q0 0.09972 0.069807 0.16953t0.16953 0.06981q0.096399 0 0.16621-0.06981 0.073131-0.06981 0.073131-0.16953v-1.5291q0-0.06648 0.046538-0.11302t0.11302-0.04654 0.11302 0.04654q0.046538 0.04654 0.046538 0.11302v1.5291q0 0.11634-0.046538 0.21939-0.043214 0.09972-0.11967 0.17618-0.073131 0.07645-0.17618 0.11967-0.10305 0.04321-0.21607 0.04321-0.11634 0-0.21939-0.04321-0.099725-0.043214-0.17618-0.11967-0.076455-0.076455-0.11967-0.17618-0.043214-0.10305-0.043214-0.21939v-1.5291q0-0.06648 0.046538-0.11302t0.11302-0.04654q0.066482 0 0.11302 0.04654 0.046538 0.04654 0.046538 0.11302v1.5291z"/>
  <path d="m9.724 36.856q-0.05651 0.0133-0.10637-0.0133-0.049862-0.02327-0.073131-0.07313-0.099723-0.21274-0.20942-0.43546-0.093075-0.18947-0.2061-0.41884-0.1097-0.22936-0.21274-0.44543v1.2299q0 0.06648-0.046538 0.11302t-0.11302 0.04654q-0.066482 0-0.11302-0.04654-0.046538-0.04654-0.046538-0.11302v-1.928q0-0.05651 0.033241-0.09972t0.089751-0.05651 0.10305 0.0133q0.049862 0.02327 0.076455 0.07313 0.099724 0.21274 0.20942 0.43546 0.093075 0.18948 0.20277 0.41884 0.1097 0.22936 0.21607 0.44543v-1.2299q0-0.06648 0.046538-0.11302t0.11302-0.04654q0.066482 0 0.11302 0.04654 0.046538 0.04654 0.046538 0.11302v1.928q0 0.05651-0.036565 0.09972-0.033241 0.04321-0.086427 0.05651z"/>
  <path d="m10.178 34.785q0-0.06648 0.04654-0.11302t0.11302-0.04654h0.66482q0.06648 0 0.11302 0.04654t0.04654 0.11302-0.04654 0.11302q-0.04654 0.04654-0.11302 0.04654h-0.50527v0.59834h0.43878q0.06648 0 0.11302 0.04654t0.04654 0.11302-0.04654 0.11302-0.11302 0.04654h-0.43878v0.66482h0.50527q0.06648 0 0.11302 0.04654t0.04654 0.11302-0.04654 0.11302-0.11302 0.04654h-0.66482q-0.06648 0-0.11302-0.04654t-0.04654-0.11302v-1.9014z"/>
 </g>
 <g enable-background="new" fill="#fff" stroke-width=".28222" aria-label="TIME">
  <path d="m7.1916 77.685q0.066482 0 0.11302 0.04654t0.046538 0.11302-0.046538 0.11302-0.11302 0.04654h-0.27258v1.7551q0 0.06648-0.046538 0.11302t-0.11302 0.04654q-0.066482 0-0.11302-0.04654t-0.046538-0.11302v-1.7551h-0.27258q-0.066482 0-0.11302-0.04654t-0.046538-0.11302 0.046538-0.11302 0.11302-0.04654z"/>
  <path d="m7.7092 79.919q-0.066482 0-0.11302-0.04654-0.046538-0.04654-0.046538-0.11302v-1.928q0-0.06648 0.046538-0.11302t0.11302-0.04654q0.066482 0 0.11302 0.04654t0.046538 0.11302v1.928q0 0.06648-0.046538 0.11302t-0.11302 0.04654z"/>
  <path d="m8.3598 79.919q-0.066482 0-0.11302-0.04654t-0.046538-0.11302v-1.928q0-0.05651 0.033241-0.09972t0.089751-0.05651 0.10637 0.0133q0.049862 0.02327 0.073131 0.07645 0.066482 0.14626 0.13629 0.2892 0.05651 0.12632 0.12632 0.26925 0.069807 0.13961 0.12632 0.2626 0.05651-0.12299 0.12299-0.2626 0.069807-0.14294 0.12632-0.26925 0.066482-0.14294 0.13629-0.2892 0.026593-0.05319 0.073131-0.07645 0.049862-0.02659 0.10637-0.0133 0.05651 0.0133 0.089751 0.05651 0.036565 0.04321 0.036565 0.09972v1.928q0 0.06648-0.046538 0.11302t-0.11302 0.04654-0.11302-0.04654q-0.046538-0.04654-0.046538-0.11302v-1.2133q-0.043214 0.08975-0.083103 0.17618-0.03989 0.08643-0.073131 0.15291-0.036565 0.07978-0.073131 0.15291-0.019945 0.04321-0.059834 0.06981-0.036565 0.02327-0.083103 0.02327-0.10305 0-0.14626-0.09307-0.036565-0.07313-0.073131-0.15291-0.033241-0.06648-0.073131-0.15291-0.03989-0.08643-0.079779-0.17618v1.2133q0 0.06648-0.046538 0.11302t-0.11302 0.04654z"/>
  <path d="m9.9146 77.845q0-0.06648 0.046538-0.11302t0.11302-0.04654h0.66482q0.06648 0 0.11302 0.04654t0.04654 0.11302-0.04654 0.11302-0.11302 0.04654h-0.50527v0.59834h0.43878q0.06648 0 0.11302 0.04654t0.04654 0.11302-0.04654 0.11302-0.11302 0.04654h-0.43878v0.66482h0.50527q0.06648 0 0.11302 0.04654t0.04654 0.11302-0.04654 0.11302-0.11302 0.04654h-0.66482q-0.06648 0-0.11302-0.04654-0.046538-0.04654-0.046538-0.11302v-1.9014z"/>
 </g>
 <g fill="none">
  <g>
   <path d="m8.5406 80.647v7.2199" stroke="#fff" stroke-width=".282"/>
   <path d="m22.481 104.25v1.4967" stroke="#000" stroke-width=".28222px"/>
   <path d="m22.481 105" stroke="#000" stroke-width=".28222px"/>
  </g>
  <path d="m25.538 112v-3.9624c0.01356-0.78632-0.6109-1.4358-1.3971-1.453l-0.3218-0.0103c-0.78625-0.0173-1.4481-0.66671-1.4346-1.453v-0.72363" stroke="#fff" stroke-linecap="round" stroke-width=".3"/>
 </g>
 <g fill="#fff">
  <g stroke-width=".28222">
   <g enable-background="new" aria-label="DECAY">
    <path d="m22.972 118.54q0.11634 0 0.21607 0.0432 0.10305 0.0432 0.1795 0.11967 0.07645 0.0765 0.11967 0.1795 0.04321 0.0997 0.04321 0.21607v1.1036q0 0.11634-0.04321 0.21939-0.04321 0.0997-0.11967 0.17618-0.07645 0.0765-0.1795 0.11967-0.09972 0.0432-0.21607 0.0432h-0.39889q-0.06648 0-0.11302-0.0465-0.04654-0.0465-0.04654-0.11302v-1.9014q0-0.0665 0.04654-0.11302 0.04654-0.0465 0.11302-0.0465zm0.23934 0.55845q0-0.0997-0.06981-0.16953-0.06981-0.0698-0.16953-0.0698h-0.23934v1.5823h0.23934q0.09972 0 0.16953-0.0698t0.06981-0.16953v-1.1036z"/>
    <path d="m23.822 118.7q0-0.0665 0.04654-0.11302 0.04654-0.0465 0.11302-0.0465h0.66482q0.06648 0 0.11302 0.0465t0.04654 0.11302q0 0.0665-0.04654 0.11302-0.04654 0.0465-0.11302 0.0465h-0.50527v0.59834h0.43878q0.06648 0 0.11302 0.0465t0.04654 0.11302q0 0.0665-0.04654 0.11302-0.04654 0.0465-0.11302 0.0465h-0.43878v0.66483h0.50527q0.06648 0 0.11302 0.0465t0.04654 0.11302q0 0.0665-0.04654 0.11302-0.04654 0.0465-0.11302 0.0465h-0.66482q-0.06648 0-0.11302-0.0465t-0.04654-0.11302v-1.9014z"/>
    <path d="m25.403 120.76q-0.08975-0.0233-0.16621-0.0731-0.07645-0.0532-0.13296-0.12299-0.05319-0.0731-0.0831-0.15956-0.02992-0.0864-0.02992-0.18282v-1.1302q0-0.0931 0.02992-0.17951 0.02992-0.0898 0.0831-0.15955 0.05651-0.0731 0.13296-0.123 0.07645-0.0532 0.16621-0.0765 0.18615-0.0499 0.359 0.0233 0.17285 0.0698 0.26925 0.23601 0.03657 0.0565 0.01662 0.11967-0.01662 0.0632-0.07313 0.0997-0.05651 0.0332-0.11967 0.0166-0.06316-0.0199-0.09972-0.0765-0.03989-0.0698-0.11634-0.0997-0.07313-0.0332-0.15291-0.01-0.07645 0.02-0.12632 0.0864-0.04986 0.0632-0.04986 0.14294v1.1302q0 0.0831 0.04986 0.14626 0.04986 0.0632 0.12632 0.0864 0.07978 0.0199 0.15291-0.01 0.07645-0.0332 0.11634-0.10305 0.03657-0.0565 0.09972-0.0731 0.06316-0.0199 0.11967 0.0133 0.05651 0.0366 0.07313 0.0997 0.01994 0.0632-0.01662 0.11967-0.0964 0.16621-0.26925 0.23602-0.17286 0.0731-0.359 0.0233z"/>
    <path d="m27.526 120.57q0.01662 0.0665-0.01662 0.12299-0.02992 0.0565-0.09307 0.0731-0.06648 0.0166-0.12299-0.0166-0.05651-0.0299-0.07313-0.0931-0.0133-0.0399-0.02659-0.0964-0.0133-0.0465-0.03324-0.10969-0.01662-0.0665-0.03657-0.14294h-0.5651q-0.02327 0.0765-0.03989 0.14294-0.01662 0.0632-0.02992 0.10969-0.0133 0.0565-0.02659 0.0964-0.01662 0.0632-0.07313 0.0931-0.05651 0.0332-0.12299 0.0166-0.06316-0.0166-0.0964-0.0731-0.02992-0.0565-0.0133-0.12299l0.53186-1.928q0.0133-0.0532 0.05319-0.0831 0.04321-0.0332 0.09972-0.0332t0.0964 0.0332q0.04321 0.0299 0.05651 0.0831zm-0.49197-0.58172q-0.04654-0.17286-0.0964-0.35568-0.04986-0.18283-0.0964-0.34571-0.04654 0.16288-0.0964 0.34571-0.04986 0.18282-0.0964 0.35568z"/>
    <path d="m28.047 120.78q-0.06648 0-0.11302-0.0465t-0.04654-0.11302v-0.96067l-0.44876-0.89419q-0.02992-0.0598-0.01-0.12299 0.02327-0.0632 0.0831-0.0931 0.05651-0.0299 0.11967-7e-3 0.06316 0.0199 0.09308 0.0798l0.1097 0.2194q0.04654 0.0964 0.10305 0.20942 0.05651 0.11302 0.1097 0.21606 0.04986-0.10304 0.10637-0.21606 0.05983-0.11302 0.10637-0.20942l0.1097-0.2194q0.02992-0.0598 0.09308-0.0798 0.06316-0.0233 0.11967 7e-3 0.05983 0.0299 0.07978 0.0931 0.02327 0.0632-0.0066 0.12299l-0.44876 0.89419v0.96067q0 0.0665-0.04654 0.11302-0.04654 0.0465-0.11302 0.0465z"/>
   </g>
   <g enable-background="new" aria-label="TUNE">
    <path d="m3.8635 118.54q0.066482 0 0.11302 0.0465 0.046538 0.0465 0.046538 0.11302 0 0.0665-0.046538 0.11302-0.046538 0.0465-0.11302 0.0465h-0.27258v1.7551q0 0.0665-0.046538 0.11302-0.046538 0.0465-0.11302 0.0465-0.066482 0-0.11302-0.0465-0.046538-0.0465-0.046538-0.11302v-1.7551h-0.27258q-0.066482 0-0.11302-0.0465-0.046538-0.0465-0.046538-0.11302 0-0.0665 0.046538-0.11302 0.046538-0.0465 0.11302-0.0465z"/>
    <path d="m4.514 120.22q0 0.0997 0.069807 0.16953 0.069806 0.0698 0.16953 0.0698 0.0964 0 0.16621-0.0698 0.073131-0.0698 0.073131-0.16953v-1.5291q0-0.0665 0.046538-0.11302 0.046538-0.0465 0.11302-0.0465t0.11302 0.0465q0.046538 0.0465 0.046538 0.11302v1.5291q0 0.11635-0.046538 0.21939-0.043214 0.0997-0.11967 0.17618-0.073131 0.0765-0.17618 0.11967-0.10305 0.0432-0.21607 0.0432-0.11634 0-0.21939-0.0432-0.099724-0.0432-0.17618-0.11967-0.076455-0.0765-0.11967-0.17618-0.043213-0.10304-0.043213-0.21939v-1.5291q0-0.0665 0.046538-0.11302 0.046538-0.0465 0.11302-0.0465t0.11302 0.0465q0.046538 0.0465 0.046538 0.11302v1.5291z"/>
    <path d="m6.7436 120.77q-0.05651 0.0133-0.10637-0.0133-0.049862-0.0233-0.073131-0.0731-0.099724-0.21274-0.20942-0.43546-0.093075-0.18947-0.2061-0.41884-0.1097-0.22936-0.21274-0.44543v1.2299q0 0.0665-0.046538 0.11302-0.046538 0.0465-0.11302 0.0465-0.066482 0-0.11302-0.0465-0.046538-0.0465-0.046538-0.11302v-1.928q0-0.0565 0.033241-0.0997t0.089751-0.0565 0.10305 0.0133q0.049862 0.0233 0.076455 0.0731 0.099724 0.21274 0.20942 0.43546 0.093075 0.18947 0.20277 0.41884 0.1097 0.22936 0.21607 0.44543v-1.2299q0-0.0665 0.046538-0.11302 0.046538-0.0465 0.11302-0.0465 0.066482 0 0.11302 0.0465 0.046538 0.0465 0.046538 0.11302v1.928q0 0.0565-0.036565 0.0997-0.033241 0.0432-0.086427 0.0565z"/>
    <path d="m7.198 118.7q0-0.0665 0.046538-0.11302 0.046538-0.0465 0.11302-0.0465h0.66482q0.066482 0 0.11302 0.0465t0.046538 0.11302q0 0.0665-0.046538 0.11302-0.046538 0.0465-0.11302 0.0465h-0.50527v0.59834h0.43878q0.066482 0 0.11302 0.0465t0.046538 0.11302q0 0.0665-0.046538 0.11302-0.046538 0.0465-0.11302 0.0465h-0.43878v0.66482h0.50527q0.066482 0 0.11302 0.0465t0.046538 0.11302q0 0.0665-0.046538 0.11302-0.046538 0.0465-0.11302 0.0465h-0.66482q-0.066482 0-0.11302-0.0465t-0.046538-0.11302v-1.9014z"/>
   </g>
   <g enable-background="new" aria-label="SHAPE">
    <path d="m12.92 120.4q0.04654-0.0332 0.06981-0.0798 0.02327-0.0465 0.02992-0.10305 0.01-0.11302-0.06981-0.19945l-0.53186-0.54515q-0.08643-0.0864-0.12632-0.19945-0.03989-0.11302-0.02992-0.23269 0.01-0.11967 0.06648-0.22271 0.05651-0.10638 0.15291-0.17951 0.0964-0.0731 0.21274-0.0997 0.11967-0.0266 0.23601-3e-3 0.11634 0.0266 0.21274 0.0964 0.09972 0.0665 0.15956 0.17285 0.03324 0.0565 0.0133 0.11967-0.01662 0.0632-0.07313 0.0997-0.05651 0.0332-0.11967 0.0166-0.06316-0.0199-0.0964-0.0764-0.05651-0.0897-0.15956-0.11635-0.10637-0.0199-0.1928 0.0465-0.08643 0.0632-0.09307 0.17286-0.01 0.10637 0.06648 0.18282l0.52854 0.54516q0.08643 0.0897 0.12964 0.20609 0.04321 0.11635 0.03324 0.23934-0.01 0.12632-0.06981 0.23269-0.05983 0.10637-0.15623 0.18282-0.09972 0.0765-0.21939 0.10305-0.11967 0.0266-0.24266 3e-3 -0.12299-0.0266-0.22272-0.0964-0.09972-0.0731-0.15956-0.17951-0.03657-0.0565-0.01994-0.11966 0.01994-0.0665 0.07645-0.0997t0.11967-0.0133q0.06316 0.0166 0.09972 0.0731 0.05651 0.0964 0.16953 0.12299 0.11634 0.0199 0.2061-0.0499z"/>
    <path d="m14.378 118.69q0-0.0665 0.04654-0.11302 0.04654-0.0465 0.11302-0.0465t0.11302 0.0465 0.04654 0.11302v1.928q0 0.0665-0.04654 0.11302-0.04654 0.0465-0.11302 0.0465t-0.11302-0.0465-0.04654-0.11302v-0.83768h-0.47867v0.83768q0 0.0665-0.04654 0.11302-0.04654 0.0465-0.11302 0.0465t-0.11302-0.0465-0.04654-0.11302v-1.928q0-0.0665 0.04654-0.11302 0.04654-0.0465 0.11302-0.0465t0.11302 0.0465 0.04654 0.11302v0.7712h0.47867v-0.7712z"/>
    <path d="m16.259 120.57q0.01662 0.0665-0.01662 0.12299-0.02992 0.0565-0.09308 0.0731-0.06648 0.0166-0.12299-0.0166-0.05651-0.0299-0.07313-0.0931-0.0133-0.0399-0.02659-0.0964-0.0133-0.0465-0.03324-0.1097-0.01662-0.0665-0.03656-0.14294h-0.5651q-0.02327 0.0765-0.03989 0.14294-0.01662 0.0632-0.02992 0.1097-0.0133 0.0565-0.02659 0.0964-0.01662 0.0632-0.07313 0.0931-0.05651 0.0332-0.12299 0.0166-0.06316-0.0166-0.0964-0.0731-0.02992-0.0565-0.0133-0.12299l0.53186-1.928q0.0133-0.0532 0.05319-0.0831 0.04321-0.0332 0.09972-0.0332t0.0964 0.0332q0.04321 0.0299 0.05651 0.0831zm-0.49197-0.58172q-0.04654-0.17286-0.0964-0.35568-0.04986-0.18283-0.0964-0.34571-0.04654 0.16288-0.0964 0.34571-0.04986 0.18282-0.0964 0.35568z"/>
    <path d="m16.45 118.7q0-0.0665 0.04654-0.11302 0.04654-0.0465 0.11302-0.0465h0.39889q0.11634 0 0.21607 0.0432 0.10305 0.0432 0.1795 0.11967 0.07645 0.0765 0.11967 0.1795 0.04321 0.0997 0.04321 0.21607v0.18615q0 0.11635-0.04321 0.2194-0.04321 0.0997-0.11967 0.17617-0.07645 0.0765-0.1795 0.11967-0.09972 0.0432-0.21607 0.0432h-0.23934v0.77119q0 0.0665-0.04654 0.11302-0.04654 0.0465-0.11302 0.0465t-0.11302-0.0465-0.04654-0.11302v-1.9147zm0.79779 0.39889q0-0.0997-0.06981-0.16953-0.06981-0.0698-0.16953-0.0698h-0.23934v0.66482h0.23934q0.09972 0 0.16953-0.0698t0.06981-0.16953v-0.18615z"/>
    <path d="m17.766 118.7q0-0.0665 0.04654-0.11302 0.04654-0.0465 0.11302-0.0465h0.66482q0.06648 0 0.11302 0.0465 0.04654 0.0465 0.04654 0.11302 0 0.0665-0.04654 0.11302-0.04654 0.0465-0.11302 0.0465h-0.50527v0.59834h0.43878q0.06648 0 0.11302 0.0465t0.04654 0.11302q0 0.0665-0.04654 0.11302-0.04654 0.0465-0.11302 0.0465h-0.43878v0.66483h0.50527q0.06648 0 0.11302 0.0465 0.04654 0.0465 0.04654 0.11302 0 0.0665-0.04654 0.11302-0.04654 0.0465-0.11302 0.0465h-0.66482q-0.06648 0-0.11302-0.0465t-0.04654-0.11302v-1.9014z"/>
   </g>
   <g enable-background="new" aria-label="BEND">
    <path d="m6.9945 100.03q0 0.11635-0.046538 0.21939-0.046538 0.10305-0.12299 0.17951 0.076455 0.0764 0.12299 0.1795 0.046538 0.10305 0.046538 0.21939v0.18615q0 0.11634-0.046538 0.21939-0.043214 0.0997-0.11967 0.17618-0.073131 0.0765-0.17618 0.11967-0.10305 0.0432-0.21607 0.0432h-0.39889q-0.066482 0-0.11302-0.0465-0.046538-0.0465-0.046538-0.11302v-1.9014q0-0.06648 0.046538-0.11302t0.11302-0.04654h0.39889q0.11302 0 0.21607 0.04321t0.17618 0.11967q0.076455 0.07645 0.11967 0.1795 0.046538 0.09972 0.046538 0.21607v0.11967zm-0.31912 0.79779q0-0.0997-0.069807-0.16953-0.069807-0.0698-0.16953-0.0698h-0.23934v0.66483h0.23934q0.099724 0 0.16953-0.0698 0.069807-0.0698 0.069807-0.16953v-0.18615zm-0.23934-0.55845q0.099724 0 0.16953-0.0698 0.069807-0.0698 0.069807-0.16953v-0.11967q0-0.09972-0.069807-0.16953-0.069807-0.06981-0.16953-0.06981h-0.23934v0.59834z"/>
    <path d="m7.2861 99.508q0-0.06648 0.046538-0.11302t0.11302-0.04654h0.66482q0.066482 0 0.11302 0.04654 0.046538 0.04654 0.046538 0.11302t-0.046538 0.11302-0.11302 0.04654h-0.50527v0.59834h0.43878q0.066482 0 0.11302 0.0465 0.046538 0.0465 0.046538 0.11302 0 0.0665-0.046538 0.11302-0.046538 0.0465-0.11302 0.0465h-0.43878v0.66483h0.50527q0.066482 0 0.11302 0.0465 0.046538 0.0465 0.046538 0.11302 0 0.0665-0.046538 0.11302-0.046538 0.0465-0.11302 0.0465h-0.66482q-0.066482 0-0.11302-0.0465-0.046538-0.0465-0.046538-0.11302v-1.9014z"/>
    <path d="m9.622 101.58q-0.05651 0.0133-0.10637-0.0133-0.049862-0.0233-0.073131-0.0731-0.099724-0.21275-0.20942-0.43546-0.093075-0.18948-0.2061-0.41884-0.1097-0.22937-0.21274-0.44543v1.2299q0 0.0665-0.046538 0.11302-0.046538 0.0465-0.11302 0.0465t-0.11302-0.0465q-0.046538-0.0465-0.046538-0.11302v-1.928q0-0.05651 0.033241-0.09972t0.089751-0.05651 0.10305 0.0133q0.049862 0.02327 0.076455 0.07313 0.099724 0.21274 0.20942 0.43546 0.093075 0.18948 0.20277 0.41884 0.1097 0.22937 0.21607 0.44544v-1.2299q0-0.06648 0.046538-0.11302t0.11302-0.04654q0.066482 0 0.11302 0.04654 0.046538 0.04654 0.046538 0.11302v1.928q0 0.0565-0.036565 0.0997-0.033241 0.0432-0.086427 0.0565z"/>
    <path d="m10.635 99.348q0.11634 0 0.21607 0.04321 0.10305 0.04321 0.1795 0.11967 0.07645 0.07645 0.11967 0.1795 0.04321 0.09972 0.04321 0.21607v1.1036q0 0.11634-0.04321 0.21939-0.04321 0.0997-0.11967 0.17618-0.07646 0.0765-0.1795 0.11967-0.09972 0.0432-0.21607 0.0432h-0.3989q-0.06648 0-0.11302-0.0465t-0.04654-0.11302v-1.9014q0-0.06648 0.04654-0.11302t0.11302-0.04654zm0.23934 0.55845q0-0.09972-0.06981-0.16953-0.06981-0.06981-0.16953-0.06981h-0.23934v1.5823h0.23934q0.09972 0 0.16953-0.0698t0.06981-0.16953v-1.1036z"/>
   </g>
  </g>
  <path d="m12.696 21.821c1.8086-0.0039 3.6172-0.01247 5.4258-0.01247v-1.787z" stroke="url(#linearGradient15156)" stroke-linecap="round" stroke-width=".05842"/>
 </g>
 <text x="18.465151" y="107.12875" enable-background="new" fill="#ffffff" font-family="Miso" font-size="3.3867px" font-stretch="condensed" font-weight="bold" letter-spacing="-.014246px" stroke-width=".28222" word-spacing="0px" style="line-height:0%" xml:space="preserve"><tspan x="18.465151" y="107.12875" fill="#ffffff" font-size="3.3241px" stroke-width=".28222" style="line-height:1.25"> </tspan></text>
 <g display="none">
  <circle cx="8.4717" cy="28.97" r="3.3208" display="inline" fill="#f00"/>
  <g transform="matrix(.33073 0 0 -.33073 .52934 128.38)" clip-path="url(#clipPath11862-0-0)" display="inline"></g>
  <g>
   <g transform="matrix(.2756 0 0 -.2756 -184.41 78.954)" display="inline" stroke="#fff" stroke-width="1.2"></g>
   <rect transform="scale(-1,1)" x="-23.526" y="63.472" width="2.2969" height="39.464" rx="1.1484" ry="1.5801" display="inline" fill="#333" stroke="#000" stroke-width=".088996"/>
  </g>
  <g transform="matrix(-.26458 0 0 .26458 73.081 -37.992)" display="inline">
   <g transform="translate(219.3 -487.66)" display="inline">
    <path d="m-21.3 979.86c-0.07691 5.9194-1.3822 10.575-6.1717 10.597-4.9045 0.022-6.6956-4.5292-6.6952-10.499 3.85e-4 -5.8695 1.5936-10.695 6.5905-10.695 4.7163 0 6.3526 4.7348 6.2764 10.597z" fill="#f00"/>
    <path d="m-22.278 976.13c0 1.3324-0.84996 2.4125-2.5378 2.4125s-2.5378-1.0107-2.5378-2.3431c0-1.3324 0.84996-2.4819 2.5378-2.4819s2.5378 1.0801 2.5378 2.4125z" fill="#ff8383" stroke="#ff5252" stroke-linecap="round" stroke-linejoin="round" stroke-width=".33333"/>
   </g>
  </g>
  <circle cx="15.535" cy="34.943" r="1" display="inline" fill="#f0f"/>
  <g transform="matrix(.26458 0 0 .26458 -66.303 -136.33)" display="inline">
   <g transform="matrix(.81172 0 0 .81172 2.8757 -151.64)" fill="none">
    <title>Lienzo 1</title>
    <g>
     <title>Capa 1</title>
    </g>
   </g>
  </g>
  <g transform="matrix(.19143 0 0 .19144 -115.93 -104.61)" display="inline" fill="none" stroke="#fff" stroke-width="1.0359">
   <title>Capa 1</title>
  </g>
  <g>
   <rect x="19.667" y="61.897" width=".66339" height="2.6763" display="inline" fill="#f00"/>
   <circle cx="15.501" cy="14.508" r="3.3208" display="inline" fill="#0f0"/>
   <circle cx="25.525" cy="14.52" r="3.3208" display="inline" fill="#00f"/>
  </g>
  <g fill="#f00">
   <circle cx="22.409" cy="29.159" r="3.3208" display="inline"/>
   <circle cx="15.526" cy="49.292" r="3.3208" display="inline"/>
   <circle cx="8.5212" cy="71.803" r="3.3208" display="inline"/>
   <circle cx="8.5212" cy="93.517" r="3.3208" display="inline"/>
  </g>
  <g fill="#0f0">
   <circle cx="5.4994" cy="113.21" r="3.3208" display="inline"/>
   <circle cx="15.485" cy="113.21" r="3.3208" display="inline"/>
   <circle cx="25.525" cy="113.19" r="3.3208" display="inline"/>
   <circle cx="5.4994" cy="14.536" r="3.3208" display="inline"/>
  </g>
 </g>
</svg>
