<?xml version="1.0" encoding="UTF-8"?>
<svg width="20.32mm" height="128.5mm" version="1.1" viewBox="0 0 20.32 128.5" xmlns="http://www.w3.org/2000/svg" xmlns:cc="http://creativecommons.org/ns#" xmlns:dc="http://purl.org/dc/elements/1.1/" xmlns:rdf="http://www.w3.org/1999/02/22-rdf-syntax-ns#">
 <metadata>
  <rdf:RDF>
   <cc:Work rdf:about="">
    <dc:format>image/svg+xml</dc:format>
    <dc:type rdf:resource="http://purl.org/dc/dcmitype/StillImage"/>
   </cc:Work>
  </rdf:RDF>
 </metadata>
 <g>
  <g>
   <path d="m0.0816 0.0816v128.34h19.837v-128.34zm6.4772 1.4557h1.8317v9e-3c8e-3 -2.8e-4 0.0157 0 0.0235 0 0.5317 0 0.96278 0.65062 0.96278 1.4468s-0.43108 1.438-0.96278 1.438h-0.0235v9e-3h-1.8317v-9e-3h-0.0235c-0.5317 0-0.96278-0.6418-0.96278-1.438s0.43108-1.4468 0.96278-1.4468c8e-3 0 0.0153-2.8e-4 0.0235 0zm-5e-3 122.52h1.8317v9e-3c8e-3 -2.6e-4 0.0157 0 0.0235 0 0.53171 0 0.96279 0.65063 0.96279 1.4468s-0.43108 1.438-0.96279 1.438h-0.0235v9e-3h-1.8317v-9e-3h-0.0235c-0.5317 0-0.96278-0.6418-0.96278-1.438s0.43108-1.4468 0.96278-1.4468c8e-3 0 0.0153-2.6e-4 0.0235 0z" stroke="#000" stroke-width=".1632"/>
   <path d="m0.082252 0.082252v128.34h20.155v-128.34z" fill="#171717" stroke="#000" stroke-width=".1645"/>
   <path transform="matrix(0 -.72475 -.67594 0 63.955 282.2)" d="m239.86 87.252 2.2675-1.3091v2.6183z" enable-background="new" fill="#fff" stroke="#fff" stroke-linecap="square" stroke-width=".37772"/>
  </g>
  <path d="m1.7168 101.59-2.2e-4 7.191 3.2881 4.638" fill="none" stroke="#fff" stroke-width=".467"/>
  <g fill="#fff">
   <ellipse cx="1.7168" cy="25.706" rx=".99997" ry="1" style="paint-order:fill markers stroke"/>
   <ellipse cx="1.7168" cy="13.063" rx=".99997" ry="1" style="paint-order:fill markers stroke"/>
   <ellipse cx="1.7168" cy="50.99" rx=".99997" ry="1" style="paint-order:fill markers stroke"/>
   <ellipse cx="1.7168" cy="38.348" rx=".99997" ry="1" style="paint-order:fill markers stroke"/>
   <ellipse cx="1.7168" cy="76.274" rx=".99997" ry="1" style="paint-order:fill markers stroke"/>
   <ellipse cx="1.7168" cy="63.632" rx=".99997" ry="1" style="paint-order:fill markers stroke"/>
   <ellipse cx="1.7168" cy="101.6" rx=".99997" ry="1" style="paint-order:fill markers stroke"/>
   <ellipse cx="1.7168" cy="88.916" rx=".99997" ry="1" style="paint-order:fill markers stroke"/>
   <path transform="matrix(0 -.50242 -.47248 0 43.13 243.1)" d="m239.86 87.252 2.2675-1.3091v2.6183z" enable-background="new" stroke="#fff" stroke-linecap="square" stroke-width=".54262"/>
   <ellipse cx="14.627" cy="25.706" rx=".99997" ry="1" style="paint-order:fill markers stroke"/>
   <ellipse cx="14.627" cy="13.063" rx=".99997" ry="1" style="paint-order:fill markers stroke"/>
   <ellipse cx="14.627" cy="50.99" rx=".99997" ry="1" style="paint-order:fill markers stroke"/>
   <ellipse cx="14.627" cy="38.348" rx=".99997" ry="1" style="paint-order:fill markers stroke"/>
   <ellipse cx="14.627" cy="76.274" rx=".99997" ry="1" style="paint-order:fill markers stroke"/>
   <ellipse cx="14.627" cy="63.632" rx=".99997" ry="1" style="paint-order:fill markers stroke"/>
   <ellipse cx="14.627" cy="101.56" rx=".99997" ry="1" style="paint-order:fill markers stroke"/>
   <ellipse cx="14.627" cy="88.916" rx=".99997" ry="1" style="paint-order:fill markers stroke"/>
  </g>
  <path d="m14.645 101.59-2.2e-4 2.5797" fill="none" stroke="#fff" stroke-width=".467"/>
  <g enable-background="new" fill="#fff" stroke-width=".28222" aria-label="MEX">
   <path d="m12.315 4.5446q-0.1016 0-0.17272-0.07112t-0.07112-0.17272v-2.9464q0-0.086359 0.0508-0.1524 0.0508-0.06604 0.13716-0.086359 0.08636-0.02032 0.16256 0.02032 0.0762 0.03556 0.11176 0.11684 0.1016 0.22352 0.20828 0.44196 0.08636 0.19304 0.19304 0.41148 0.10668 0.21336 0.19304 0.40132 0.08636-0.18796 0.18796-0.40132 0.10668-0.21844 0.19304-0.41148 0.1016-0.21844 0.20828-0.44196 0.04064-0.081279 0.11176-0.11684 0.0762-0.04064 0.16256-0.02032 0.08636 0.02032 0.13716 0.086359 0.05588 0.06604 0.05588 0.1524v2.9464q0 0.1016-0.07112 0.17272-0.07112 0.07112-0.17272 0.07112-0.1016 0-0.17272-0.07112-0.07112-0.07112-0.07112-0.17272v-1.8542q-0.06604 0.13716-0.127 0.26924-0.06096 0.13208-0.11176 0.23368-0.05588 0.12192-0.11176 0.23368-0.03048 0.06604-0.09144 0.10668-0.05588 0.03556-0.127 0.03556-0.15748 0-0.22352-0.14224-0.05588-0.11176-0.11176-0.23368-0.0508-0.1016-0.11176-0.23368-0.06096-0.13208-0.12192-0.26924v1.8542q0 0.1016-0.07112 0.17272-0.07112 0.07112-0.17272 0.07112z"/>
   <path d="m14.699 1.3747q0-0.1016 0.07112-0.17272 0.07112-0.07112 0.17272-0.07112h1.016q0.1016 0 0.17272 0.07112t0.07112 0.17272q0 0.1016-0.07112 0.17272-0.07112 0.07112-0.17272 0.07112h-0.77216v0.91439h0.67056q0.1016 0 0.17272 0.07112t0.07112 0.17272q0 0.1016-0.07112 0.17272-0.07112 0.07112-0.17272 0.07112h-0.67056v1.016h0.77216q0.1016 0 0.17272 0.07112t0.07112 0.17272q0 0.1016-0.07112 0.17272-0.07112 0.07112-0.17272 0.07112h-1.016q-0.1016 0-0.17272-0.07112t-0.07112-0.17272z"/>
   <path d="m16.488 4.5192q-0.08636-0.04572-0.12192-0.14224-0.03048-0.096519 0.01524-0.18288l0.70612-1.4173-0.65532-1.3106q-0.04572-0.091439-0.01524-0.18796 0.03556-0.09652 0.12192-0.14224 0.09144-0.04572 0.18796-0.01016 0.09652 0.03048 0.14224 0.12192l0.49276 0.98551 0.49276-0.98551q0.04572-0.091439 0.14224-0.12192 0.09652-0.03556 0.18288 0.01016 0.09144 0.04572 0.12192 0.14224 0.03556 0.096519-0.01016 0.18796l-0.65532 1.3106 0.70612 1.4173q0.04572 0.086359 0.01016 0.18288-0.03048 0.096519-0.12192 0.14224-0.08636 0.04572-0.18288 0.01016-0.09652-0.03048-0.14224-0.11684l-0.54356-1.0922-0.54356 1.0922q-0.04572 0.086359-0.14224 0.11684-0.09652 0.03556-0.18796-0.01016z"/>
  </g>
  <path d="m16.793 107.41h-0.61284v-2.6584h-0.61982v2.6584h-0.59299v-2.6584h-0.62054v2.6584h-0.63247v-2.6584h-0.61901v2.6584h-0.64424" fill="none" stroke="#fff" stroke-width=".2782"/>
  <path d="m14.427 123.9v-0.53635h-1.1448l5e-3 3.7089h3.4302v-3.1725h-2.2905zm1.7039 1.7277h-0.57229v0.4601h-0.30986v-0.4601h-0.10884l-0.71821 0.4601v-0.4601h-0.56275v-0.26812h0.56275v-0.46006l0.71818 0.46006h0.10887v-0.46006h0.30986v0.46006h0.57229z" fill="#fff" stroke-width=".28222"/>
  <g transform="matrix(.98282 0 0 1 -78.597 -172.18)" stroke-width="1.0087">
   <g transform="matrix(1 0 0 1.0411 -232.65 -4.1347)">
    <g transform="matrix(.28077 0 0 .26458 102.17 15.428)">
     <path d="m791.6 975.45h24.587c2.9019 0 5.2382 2.4322 5.2382 5.4533v34.374c0 3.0211-2.3362 5.4532-5.2382 5.4532h-24.587c-2.9019 0-5.2382-2.4321-5.2382-5.4532v-34.374c0-3.0211 2.3362-5.4533 5.2382-5.4533z" fill="#fff"/>
    </g>
   </g>
   <g transform="scale(1.0301 .97074)" enable-background="new" stroke-width=".2318" aria-label="OUT">
    <path d="m90.977 301.69q-0.12455 0-0.23486-0.0463-0.10675-0.0463-0.1886-0.12811-0.08185-0.0818-0.12811-0.1886-0.04626-0.11031-0.04626-0.23486v-1.2099q0-0.12455 0.04626-0.2313 0.04626-0.11031 0.12811-0.19216 0.08185-0.0818 0.1886-0.1281 0.11031-0.0463 0.23486-0.0463t0.2313 0.0463q0.11031 0.0463 0.19216 0.1281 0.08185 0.0819 0.1281 0.19216 0.04626 0.10675 0.04626 0.2313v1.2099q0 0.12455-0.04626 0.23486-0.04626 0.10676-0.1281 0.1886-0.08185 0.0819-0.19216 0.12811-0.10675 0.0463-0.2313 0.0463zm0-2.0639q-0.10675 0-0.18148 0.0747-0.07473 0.0747-0.07473 0.18148v1.2099q0 0.10676 0.07473 0.18149 0.07473 0.0747 0.18148 0.0747 0.10675 0 0.18148-0.0747 0.07473-0.0747 0.07473-0.18149v-1.2099q0-0.10675-0.07473-0.18148-0.07473-0.0747-0.18148-0.0747z"/>
    <path d="m92.204 301.09q0 0.10676 0.07473 0.18149 0.07473 0.0747 0.18148 0.0747 0.1032 0 0.17792-0.0747 0.07829-0.0747 0.07829-0.18149v-1.6369q0-0.0712 0.04982-0.12099 0.04982-0.0498 0.12099-0.0498 0.07117 0 0.12099 0.0498 0.04982 0.0498 0.04982 0.12099v1.6369q0 0.12455-0.04982 0.23486-0.04626 0.10676-0.12811 0.1886-0.07829 0.0819-0.1886 0.12811-0.11031 0.0463-0.2313 0.0463-0.12455 0-0.23486-0.0463-0.10675-0.0463-0.1886-0.12811-0.08185-0.0818-0.12811-0.1886-0.04626-0.11031-0.04626-0.23486v-1.6369q0-0.0712 0.04982-0.12099 0.04982-0.0498 0.12099-0.0498 0.07117 0 0.12099 0.0498 0.04982 0.0498 0.04982 0.12099v1.6369z"/>
    <path d="m94.342 299.3q0.07117 0 0.12099 0.0498 0.04982 0.0498 0.04982 0.12099 0 0.0712-0.04982 0.12098-0.04982 0.0498-0.12099 0.0498h-0.2918v1.8789q0 0.0712-0.04982 0.12099-0.04982 0.0498-0.12099 0.0498-0.07117 0-0.12099-0.0498-0.04982-0.0498-0.04982-0.12099v-1.8789h-0.2918q-0.07117 0-0.12099-0.0498-0.04982-0.0498-0.04982-0.12098 0-0.0712 0.04982-0.12099 0.04982-0.0498 0.12099-0.0498z"/>
   </g>
  </g>
  <g fill="none" stroke="#fff" stroke-width=".265">
   <path d="m2.9007 19.425h11.01"/>
   <path d="m2.9007 32.061h11.01"/>
   <path d="m2.9007 44.698h11.01"/>
   <path d="m2.9007 57.334h11.01"/>
   <path d="m2.9007 69.971h11.01"/>
   <path d="m2.9007 82.607h11.01"/>
   <path d="m2.9007 95.244h11.01"/>
  </g>
  <g enable-background="new" fill="#fff" stroke-width=".28222" aria-label="GATE IN">
   <path d="m2.3404 119.4q0.061383 0 0.10435 0.043 0.042968 0.043 0.042968 0.10436v0.49106q0 0.10742-0.039899 0.20257-0.039899 0.0921-0.11049 0.16266-0.070591 0.0706-0.16574 0.11049-0.092075 0.0399-0.1995 0.0399-0.10742 0-0.20257-0.0399-0.092075-0.0399-0.16267-0.11049-0.067522-0.0706-0.11049-0.16266-0.039899-0.0952-0.039899-0.20257v-1.0435q0-0.0859 0.027623-0.16574 0.027623-0.0829 0.076729-0.14732 0.052176-0.0675 0.12277-0.11356 0.070591-0.0491 0.15653-0.0706 0.082868-0.0215 0.1688-0.0153 0.085937 3e-3 0.16267 0.0368 0.076729 0.0307 0.14118 0.0859 0.064453 0.0553 0.10742 0.13197 0.030692 0.0522 0.012277 0.11049-0.015346 0.0583-0.067522 0.0921-0.052176 0.0307-0.11049 0.0154-0.058314-0.0184-0.089006-0.0706-0.039899-0.0645-0.11049-0.0921-0.067522-0.0307-0.13811-9e-3 -0.07366 0.0184-0.1197 0.0798-0.046037 0.0583-0.046037 0.13198v1.0435q0 0.0921 0.064453 0.15653 0.067522 0.0645 0.15653 0.0645 0.092075 0 0.15653-0.0645 0.064453-0.0644 0.064453-0.15653v-0.34374h-0.1596q-0.061383 0-0.10435-0.043-0.042968-0.043-0.042968-0.10435 0-0.0614 0.042968-0.10436 0.042968-0.043 0.10435-0.043h0.30692z"/>
   <path d="m3.8792 120.37q0.015346 0.0614-0.015346 0.11356-0.027623 0.0522-0.085937 0.0675-0.061383 0.0153-0.11356-0.0153-0.052176-0.0276-0.067522-0.0859-0.012277-0.0368-0.024553-0.089-0.012277-0.043-0.030692-0.10129-0.015346-0.0614-0.033761-0.13197h-0.52176q-0.021484 0.0706-0.03683 0.13197-0.015346 0.0583-0.027622 0.10129-0.012277 0.0522-0.024553 0.089-0.015346 0.0583-0.067522 0.0859-0.052176 0.0307-0.11356 0.0153-0.058314-0.0153-0.089006-0.0675-0.027623-0.0522-0.012277-0.11356l0.49107-1.7801q0.012277-0.0491 0.049107-0.0767 0.039899-0.0307 0.092075-0.0307t0.089006 0.0307q0.039899 0.0276 0.052176 0.0767zm-0.45424-0.5371q-0.042968-0.1596-0.089006-0.3284-0.046038-0.16881-0.089006-0.3192-0.042968 0.15039-0.089006 0.3192-0.046038 0.1688-0.089006 0.3284z"/>
   <path d="m4.7243 118.49q0.061383 0 0.10435 0.043 0.042968 0.043 0.042968 0.10435 0 0.0614-0.042968 0.10435-0.042968 0.043-0.10435 0.043h-0.25167v1.6205q0 0.0614-0.042968 0.10436-0.042968 0.043-0.10435 0.043-0.061383 0-0.10435-0.043-0.042968-0.043-0.042968-0.10436v-1.6205h-0.25167q-0.061383 0-0.10435-0.043-0.042968-0.043-0.042968-0.10435 0-0.0614 0.042968-0.10435 0.042968-0.043 0.10435-0.043z"/>
   <path d="m5.0538 118.64q0-0.0614 0.042968-0.10435 0.042968-0.043 0.10435-0.043h0.61383q0.061383 0 0.10435 0.043 0.042968 0.043 0.042968 0.10435 0 0.0614-0.042968 0.10435-0.042968 0.043-0.10435 0.043h-0.46651v0.55245h0.40513q0.061383 0 0.10435 0.043 0.042968 0.043 0.042968 0.10435 0 0.0614-0.042968 0.10435-0.042968 0.043-0.10435 0.043h-0.40513v0.61384h0.46651q0.061383 0 0.10435 0.043 0.042968 0.043 0.042968 0.10436 0 0.0614-0.042968 0.10435-0.042968 0.043-0.10435 0.043h-0.61383q-0.061383 0-0.10435-0.043-0.042968-0.043-0.042968-0.10435v-1.7556z"/>
   <path d="m6.8913 120.56q-0.061383 0-0.10435-0.043-0.042968-0.043-0.042968-0.10436v-1.7801q0-0.0614 0.042968-0.10435 0.042968-0.043 0.10435-0.043 0.061383 0 0.10435 0.043 0.042968 0.043 0.042968 0.10435v1.7801q0 0.0614-0.042968 0.10436-0.042968 0.043-0.10435 0.043z"/>
   <path d="m8.3841 120.55q-0.052176 0.0123-0.098213-0.0123-0.046038-0.0215-0.067522-0.0675-0.092075-0.19643-0.19336-0.40207-0.085937-0.17494-0.19029-0.38671-0.10128-0.21177-0.19643-0.41127v1.1356q0 0.0614-0.042968 0.10436-0.042968 0.043-0.10435 0.043-0.061383 0-0.10435-0.043-0.042968-0.043-0.042968-0.10436v-1.7801q0-0.0522 0.030692-0.0921t0.082868-0.0522 0.095144 0.0123q0.046038 0.0215 0.070591 0.0675 0.092075 0.19643 0.19336 0.40206 0.085937 0.17495 0.18722 0.38672 0.10128 0.21177 0.1995 0.41127v-1.1356q0-0.0614 0.042968-0.10435 0.042968-0.043 0.10435-0.043 0.061383 0 0.10435 0.043 0.042968 0.043 0.042968 0.10435v1.7801q0 0.0522-0.033761 0.0921-0.030692 0.0399-0.079798 0.0522z"/>
  </g>
  <g enable-background="new" fill="#fff" stroke-width=".28222" aria-label="[   CLOCK]">
   <path d="m0.67836 123.3q-0.061383 0-0.10435-0.043-0.042968-0.043-0.042968-0.10435v-2.2466q0-0.0614 0.042968-0.10435 0.042968-0.043 0.10435-0.043h0.30692q0.061383 0 0.10435 0.043 0.042968 0.043 0.042968 0.10435 0 0.0614-0.042968 0.10436-0.042968 0.043-0.10435 0.043h-0.1596v1.952h0.1596q0.061383 0 0.10435 0.043 0.042968 0.043 0.042968 0.10436 0 0.0614-0.042968 0.10435-0.042968 0.043-0.10435 0.043h-0.30692z"/>
   <path d="m3.3713 123.05q-0.082868-0.0215-0.15346-0.0675-0.070591-0.0491-0.12277-0.11356-0.049107-0.0675-0.076729-0.14732-0.027622-0.0798-0.027622-0.1688v-1.0435q0-0.0859 0.027622-0.16573 0.027623-0.0829 0.076729-0.14732 0.052176-0.0675 0.12277-0.11356 0.070591-0.0491 0.15346-0.0706 0.17187-0.046 0.33147 0.0215 0.1596 0.0645 0.2486 0.21791 0.033761 0.0522 0.015346 0.11049-0.015346 0.0583-0.067522 0.0921-0.052176 0.0307-0.11049 0.0153-0.058314-0.0184-0.092075-0.0706-0.03683-0.0644-0.10742-0.0921-0.067522-0.0307-0.14118-9e-3 -0.070591 0.0184-0.11663 0.0798-0.046038 0.0583-0.046038 0.13197v1.0435q0 0.0767 0.046038 0.13504 0.046038 0.0583 0.11663 0.0798 0.07366 0.0184 0.14118-9e-3 0.070591-0.0307 0.10742-0.0951 0.033761-0.0522 0.092075-0.0675 0.058314-0.0184 0.11049 0.0123 0.052176 0.0338 0.067522 0.0921 0.018415 0.0583-0.015346 0.11049-0.089006 0.15346-0.2486 0.21791-0.1596 0.0675-0.33147 0.0215z"/>
   <path d="m4.3423 123.06q-0.061383 0-0.10435-0.043-0.042968-0.043-0.042968-0.10435v-1.7678q0-0.0614 0.042968-0.10435 0.042968-0.043 0.10435-0.043 0.061383 0 0.10435 0.043 0.042968 0.043 0.042968 0.10435v1.6205h0.46651q0.061383 0 0.10435 0.043 0.042968 0.043 0.042968 0.10435 0 0.0614-0.042968 0.10435-0.042968 0.043-0.10435 0.043h-0.61383z"/>
   <path d="m5.7276 123.07q-0.10742 0-0.20257-0.0399-0.092075-0.0399-0.16267-0.11049-0.070591-0.0706-0.11049-0.16267-0.039899-0.0951-0.039899-0.20256v-1.0435q0-0.10742 0.039899-0.19949 0.039899-0.0951 0.11049-0.16574 0.070591-0.0706 0.16267-0.11049 0.095144-0.0399 0.20257-0.0399 0.10742 0 0.1995 0.0399 0.095144 0.0399 0.16574 0.11049 0.070591 0.0706 0.11049 0.16574 0.039899 0.0921 0.039899 0.19949v1.0435q0 0.10742-0.039899 0.20256-0.039899 0.0921-0.11049 0.16267-0.070591 0.0706-0.16574 0.11049-0.092075 0.0399-0.1995 0.0399zm0-1.7801q-0.092075 0-0.15653 0.0645-0.064453 0.0645-0.064453 0.15653v1.0435q0 0.0921 0.064453 0.15653 0.064453 0.0645 0.15653 0.0645 0.092075 0 0.15653-0.0645 0.064453-0.0645 0.064453-0.15653v-1.0435q0-0.0921-0.064453-0.15653-0.064453-0.0645-0.15653-0.0645z"/>
   <path d="m6.8551 123.05q-0.082868-0.0215-0.15346-0.0675-0.070591-0.0491-0.12277-0.11356-0.049107-0.0675-0.076729-0.14732-0.027623-0.0798-0.027623-0.1688v-1.0435q0-0.0859 0.027623-0.16573 0.027622-0.0829 0.076729-0.14732 0.052176-0.0675 0.12277-0.11356 0.070591-0.0491 0.15346-0.0706 0.17187-0.046 0.33147 0.0215 0.1596 0.0645 0.2486 0.21791 0.033761 0.0522 0.015346 0.11049-0.015346 0.0583-0.067522 0.0921-0.052176 0.0307-0.11049 0.0153-0.058314-0.0184-0.092075-0.0706-0.03683-0.0644-0.10742-0.0921-0.067522-0.0307-0.14118-9e-3 -0.070591 0.0184-0.11663 0.0798-0.046038 0.0583-0.046038 0.13197v1.0435q0 0.0767 0.046038 0.13504 0.046037 0.0583 0.11663 0.0798 0.07366 0.0184 0.14118-9e-3 0.070591-0.0307 0.10742-0.0951 0.033761-0.0522 0.092075-0.0675 0.058314-0.0184 0.11049 0.0123 0.052176 0.0338 0.067522 0.0921 0.018415 0.0583-0.015346 0.11049-0.089006 0.15346-0.2486 0.21791-0.1596 0.0675-0.33147 0.0215z"/>
   <path d="m8.759 122.86q0.024553 0.0552 0.00307 0.11356-0.018415 0.0583-0.07366 0.0829-0.055245 0.0276-0.11356 6e-3 -0.055245-0.0184-0.082868-0.0737l-0.40206-0.83788-0.11663 0.1596v0.61383q0 0.0614-0.042968 0.10435-0.042968 0.043-0.10435 0.043-0.061383 0-0.10435-0.043-0.042968-0.043-0.042968-0.10435v-1.7801q0-0.0614 0.042968-0.10435 0.042968-0.043 0.10435-0.043 0.061383 0 0.10435 0.043 0.042968 0.043 0.042968 0.10435v0.65987l0.53097-0.74581q0.03683-0.0491 0.095144-0.0583 0.061383-9e-3 0.11049 0.0245 0.052176 0.0338 0.061383 0.0952 0.00921 0.0583-0.027622 0.11049l-0.46038 0.64759z"/>
   <path d="m9.2758 120.76q0.061383 0 0.10435 0.043 0.042968 0.043 0.042968 0.10435v2.2466q0 0.0614-0.042968 0.10435-0.042968 0.043-0.10435 0.043h-0.30692q-0.061383 0-0.10435-0.043-0.042968-0.043-0.042968-0.10435 0-0.0614 0.042968-0.10436 0.042968-0.043 0.10435-0.043h0.1596v-1.952h-0.1596q-0.061383 0-0.10435-0.043-0.042968-0.043-0.042968-0.10436 0-0.0614 0.042968-0.10435 0.042968-0.043 0.10435-0.043h0.30692z"/>
  </g>
 </g>
 <g display="none">
  <g fill="#f0f">
   <circle cx="17.7" cy="101.56" r="1" display="inline" style="paint-order:fill markers stroke"/>
   <circle cx="17.7" cy="88.916" r="1" display="inline" style="paint-order:fill markers stroke"/>
   <circle cx="17.7" cy="76.274" r="1" display="inline" style="paint-order:fill markers stroke"/>
   <circle cx="17.7" cy="63.632" r="1" display="inline" style="paint-order:fill markers stroke"/>
   <circle cx="17.7" cy="50.99" r="1" display="inline" style="paint-order:fill markers stroke"/>
   <circle cx="17.7" cy="38.348" r="1" display="inline" style="paint-order:fill markers stroke"/>
   <circle cx="17.7" cy="25.706" r="1" display="inline" style="paint-order:fill markers stroke"/>
   <circle cx="17.7" cy="13.063" r="1" display="inline" style="paint-order:fill markers stroke"/>
  </g>
  <g fill="#f00" stroke-linejoin="round" stroke-width=".435">
   <circle cx="8.0876" cy="13.063" r="1.6036"/>
   <circle cx="8.0876" cy="25.706" r="1.6036" display="inline"/>
   <circle cx="8.0876" cy="38.348" r="1.6036" display="inline"/>
   <circle cx="8.0876" cy="50.99" r="1.6036" display="inline"/>
   <circle cx="8.0876" cy="63.632" r="1.6036" display="inline"/>
   <circle cx="8.0876" cy="76.274" r="1.6036" display="inline"/>
   <circle cx="8.0876" cy="88.916" r="1.6036" display="inline"/>
   <circle cx="8.0876" cy="101.56" r="1.6036" display="inline"/>
  </g>
  <circle cx="4.9775" cy="113.45" r="1.6036" display="inline" fill="#0f0" stroke-linejoin="round" stroke-width=".435"/>
  <circle cx="15.014" cy="113.4" r="1.6036" display="inline" fill="#00f" stroke-linejoin="round" stroke-width=".435"/>
 </g>
</svg>
