<?xml version="1.0" encoding="UTF-8" standalone="no"?>
<svg
   xmlns:dc="http://purl.org/dc/elements/1.1/"
   xmlns:cc="http://creativecommons.org/ns#"
   xmlns:rdf="http://www.w3.org/1999/02/22-rdf-syntax-ns#"
   xmlns:svg="http://www.w3.org/2000/svg"
   xmlns="http://www.w3.org/2000/svg"
   xmlns:sodipodi="http://sodipodi.sourceforge.net/DTD/sodipodi-0.dtd"
   xmlns:inkscape="http://www.inkscape.org/namespaces/inkscape"
   width="20.32mm"
   height="128.5mm"
   viewBox="0 0 20.32 128.5"
   version="1.1"
   id="svg4264"
   inkscape:version="1.0.2-2 (e86c870879, 2021-01-15)"
   sodipodi:docname="Mex.svg">
  <defs
     id="defs4258" />
  <sodipodi:namedview
     id="base"
     pagecolor="#ffffff"
     bordercolor="#666666"
     borderopacity="1.0"
     inkscape:pageopacity="0.0"
     inkscape:pageshadow="2"
     inkscape:zoom="1.4"
     inkscape:cx="40.526586"
     inkscape:cy="277.91307"
     inkscape:document-units="mm"
     inkscape:current-layer="layer1"
     inkscape:document-rotation="0"
     showgrid="false"
     inkscape:window-width="2560"
     inkscape:window-height="1361"
     inkscape:window-x="-9"
     inkscape:window-y="-9"
     inkscape:window-maximized="1" />
  <metadata
     id="metadata4261">
    <rdf:RDF>
      <cc:Work
         rdf:about="">
        <dc:format>image/svg+xml</dc:format>
        <dc:type
           rdf:resource="http://purl.org/dc/dcmitype/StillImage" />
        <dc:title />
      </cc:Work>
    </rdf:RDF>
  </metadata>
  <g
     inkscape:label="background"
     inkscape:groupmode="layer"
     id="layer1"
     style="display:inline">
    <path
       sodipodi:nodetypes="ccccccccsssccccssscccccsssccccssscc"
       inkscape:export-ydpi="600"
       inkscape:export-xdpi="600"
       inkscape:export-filename="/home/befaco/Escritorio/tretwetwety"
       inkscape:connector-curvature="0"
       id="path31470"
       d="M 0.0816,0.0816 V 128.4184 H 19.918526 V 0.0816 Z m 6.477214,1.45567 h 1.831651 v 0.009 c 0.008,-2.8e-4 0.0157,0 0.0235,0 0.5317,0 0.96278,0.65062 0.96278,1.44684 0,0.79622 -0.43108,1.43802 -0.96278,1.43802 h -0.0235 v 0.009 H 6.558814 v -0.009 h -0.0235 c -0.5317,0 -0.962781,-0.6418 -0.962781,-1.43802 0,-0.79622 0.431081,-1.44684 0.962781,-1.44684 0.008,0 0.0153,-2.8e-4 0.0235,0 z m -0.005,122.52296 h 1.831651 v 0.009 c 0.008,-2.6e-4 0.0157,0 0.0235,0 0.53171,0 0.96279,0.65063 0.96279,1.44685 0,0.79622 -0.43108,1.43802 -0.96279,1.43802 h -0.0235 v 0.009 H 6.553814 v -0.009 h -0.0235 c -0.5317,0 -0.962781,-0.6418 -0.962781,-1.43802 0,-0.79622 0.431081,-1.44685 0.962781,-1.44685 0.008,0 0.0153,-2.6e-4 0.0235,0 z"
       style="display:inline;fill:#000000;fill-opacity:1;stroke:#000000;stroke-width:0.1632;stroke-miterlimit:4;stroke-dasharray:none;stroke-opacity:1" />
    <path
       sodipodi:nodetypes="ccccc"
       inkscape:export-ydpi="600"
       inkscape:export-xdpi="600"
       inkscape:export-filename="/home/befaco/Escritorio/tretwetwety"
       inkscape:connector-curvature="0"
       id="path31470-3"
       d="M 0.0822522,0.0822522 V 128.41775 H 20.237748 V 0.0822522 Z"
       style="display:inline;fill:#171717;fill-opacity:1;stroke:#000000;stroke-width:0.164504;stroke-miterlimit:4;stroke-dasharray:none;stroke-opacity:1" />
    <path
       inkscape:transform-center-y="0.97046852"
       inkscape:export-ydpi="100"
       inkscape:export-xdpi="100"
       inkscape:export-filename="/home/diego/Desktop/muxlizer"
       transform="matrix(0,-0.72475323,-0.67593541,0,63.95455,282.20322)"
       inkscape:randomized="0"
       inkscape:rounded="0"
       inkscape:flatsided="true"
       sodipodi:arg2="4.1887902"
       sodipodi:arg1="3.1415927"
       sodipodi:r2="0.75583667"
       sodipodi:r1="1.5116733"
       sodipodi:cy="87.252441"
       sodipodi:cx="241.375"
       sodipodi:sides="3"
       id="path2054"
       style="display:inline;fill:#ffffff;fill-opacity:1;stroke:#ffffff;stroke-width:0.377722;stroke-linecap:square;stroke-miterlimit:4;stroke-dasharray:none;stroke-dashoffset:0;stroke-opacity:1;enable-background:new"
       sodipodi:type="star"
       d="m 239.86333,87.252441 2.26751,-1.309147 0,2.618295 z" />
    <path
       style="display:inline;fill:none;stroke:#ffffff;stroke-width:0.467;stroke-linecap:butt;stroke-linejoin:miter;stroke-miterlimit:4;stroke-dasharray:none;stroke-opacity:1"
       d="m 1.7167932,101.59087 -2.2e-4,7.19097 3.2880774,4.63798"
       id="path31526"
       sodipodi:nodetypes="ccc" />
    <ellipse
       style="display:inline;fill:#ffffff;fill-opacity:1;stroke:none;stroke-width:0.113126;stroke-linecap:round;stroke-miterlimit:4;stroke-dasharray:none;stroke-dashoffset:0;stroke-opacity:1;paint-order:fill markers stroke"
       id="ellipse31894"
       cx="1.7167929"
       cy="25.705538"
       rx="0.99996799"
       ry="1" />
    <ellipse
       style="display:inline;fill:#ffffff;fill-opacity:1;stroke:none;stroke-width:0.113126;stroke-linecap:round;stroke-miterlimit:4;stroke-dasharray:none;stroke-dashoffset:0;stroke-opacity:1;paint-order:fill markers stroke"
       id="ellipse31896"
       cx="1.7167929"
       cy="13.063478"
       rx="0.99996799"
       ry="1" />
    <ellipse
       style="display:inline;fill:#ffffff;fill-opacity:1;stroke:none;stroke-width:0.113126;stroke-linecap:round;stroke-miterlimit:4;stroke-dasharray:none;stroke-dashoffset:0;stroke-opacity:1;paint-order:fill markers stroke"
       id="ellipse31898"
       cx="1.7167929"
       cy="50.989685"
       rx="0.99996799"
       ry="1" />
    <ellipse
       style="display:inline;fill:#ffffff;fill-opacity:1;stroke:none;stroke-width:0.113126;stroke-linecap:round;stroke-miterlimit:4;stroke-dasharray:none;stroke-dashoffset:0;stroke-opacity:1;paint-order:fill markers stroke"
       id="ellipse31900"
       cx="1.7167929"
       cy="38.34761"
       rx="0.99996799"
       ry="1" />
    <ellipse
       style="display:inline;fill:#ffffff;fill-opacity:1;stroke:none;stroke-width:0.113126;stroke-linecap:round;stroke-miterlimit:4;stroke-dasharray:none;stroke-dashoffset:0;stroke-opacity:1;paint-order:fill markers stroke"
       id="ellipse31902"
       cx="1.7167929"
       cy="76.273819"
       rx="0.99996799"
       ry="1" />
    <ellipse
       style="display:inline;fill:#ffffff;fill-opacity:1;stroke:none;stroke-width:0.113126;stroke-linecap:round;stroke-miterlimit:4;stroke-dasharray:none;stroke-dashoffset:0;stroke-opacity:1;paint-order:fill markers stroke"
       id="ellipse31904"
       cx="1.7167929"
       cy="63.631744"
       rx="0.99996799"
       ry="1" />
    <ellipse
       style="display:inline;fill:#ffffff;fill-opacity:1;stroke:none;stroke-width:0.113126;stroke-linecap:round;stroke-miterlimit:4;stroke-dasharray:none;stroke-dashoffset:0;stroke-opacity:1;paint-order:fill markers stroke"
       id="ellipse31906"
       cx="1.7167929"
       cy="101.59952"
       rx="0.99996799"
       ry="1" />
    <ellipse
       style="display:inline;fill:#ffffff;fill-opacity:1;stroke:none;stroke-width:0.113126;stroke-linecap:round;stroke-miterlimit:4;stroke-dasharray:none;stroke-dashoffset:0;stroke-opacity:1;paint-order:fill markers stroke"
       id="ellipse31908"
       cx="1.7167929"
       cy="88.915894"
       rx="0.99996799"
       ry="1" />
    <path
       inkscape:transform-center-y="0.67275822"
       inkscape:export-ydpi="100"
       inkscape:export-xdpi="100"
       inkscape:export-filename="/home/diego/Desktop/muxlizer"
       transform="matrix(0,-0.50242084,-0.47248326,0,43.129774,243.10294)"
       inkscape:randomized="0"
       inkscape:rounded="0"
       inkscape:flatsided="true"
       sodipodi:arg2="4.1887902"
       sodipodi:arg1="3.1415927"
       sodipodi:r2="0.75583667"
       sodipodi:r1="1.5116733"
       sodipodi:cy="87.252441"
       sodipodi:cx="241.375"
       sodipodi:sides="3"
       id="path8699"
       style="display:inline;fill:#ffffff;fill-opacity:1;stroke:#ffffff;stroke-width:0.542616;stroke-linecap:square;stroke-miterlimit:4;stroke-dasharray:none;stroke-dashoffset:0;stroke-opacity:1;enable-background:new"
       sodipodi:type="star"
       d="m 239.86333,87.252441 2.26751,-1.309147 0,2.618295 z" />
    <ellipse
       style="display:inline;fill:#ffffff;fill-opacity:1;stroke:none;stroke-width:0.113126;stroke-linecap:round;stroke-miterlimit:4;stroke-dasharray:none;stroke-dashoffset:0;stroke-opacity:1;paint-order:fill markers stroke"
       id="ellipse31910"
       cx="14.627353"
       cy="25.705538"
       rx="0.99996799"
       ry="1" />
    <ellipse
       style="display:inline;fill:#ffffff;fill-opacity:1;stroke:none;stroke-width:0.113126;stroke-linecap:round;stroke-miterlimit:4;stroke-dasharray:none;stroke-dashoffset:0;stroke-opacity:1;paint-order:fill markers stroke"
       id="ellipse31912"
       cx="14.627353"
       cy="13.063478"
       rx="0.99996799"
       ry="1" />
    <ellipse
       style="display:inline;fill:#ffffff;fill-opacity:1;stroke:none;stroke-width:0.113126;stroke-linecap:round;stroke-miterlimit:4;stroke-dasharray:none;stroke-dashoffset:0;stroke-opacity:1;paint-order:fill markers stroke"
       id="ellipse31916"
       cx="14.627353"
       cy="50.989685"
       rx="0.99996799"
       ry="1" />
    <ellipse
       style="display:inline;fill:#ffffff;fill-opacity:1;stroke:none;stroke-width:0.113126;stroke-linecap:round;stroke-miterlimit:4;stroke-dasharray:none;stroke-dashoffset:0;stroke-opacity:1;paint-order:fill markers stroke"
       id="ellipse31920"
       cx="14.627353"
       cy="38.34761"
       rx="0.99996799"
       ry="1" />
    <ellipse
       style="display:inline;fill:#ffffff;fill-opacity:1;stroke:none;stroke-width:0.113126;stroke-linecap:round;stroke-miterlimit:4;stroke-dasharray:none;stroke-dashoffset:0;stroke-opacity:1;paint-order:fill markers stroke"
       id="ellipse31924"
       cx="14.627353"
       cy="76.273819"
       rx="0.99996799"
       ry="1" />
    <ellipse
       style="display:inline;fill:#ffffff;fill-opacity:1;stroke:none;stroke-width:0.113126;stroke-linecap:round;stroke-miterlimit:4;stroke-dasharray:none;stroke-dashoffset:0;stroke-opacity:1;paint-order:fill markers stroke"
       id="ellipse31928"
       cx="14.627353"
       cy="63.631744"
       rx="0.99996799"
       ry="1" />
    <ellipse
       style="display:inline;fill:#ffffff;fill-opacity:1;stroke:none;stroke-width:0.113126;stroke-linecap:round;stroke-miterlimit:4;stroke-dasharray:none;stroke-dashoffset:0;stroke-opacity:1;paint-order:fill markers stroke"
       id="ellipse31930"
       cx="14.627353"
       cy="101.55795"
       rx="0.99996799"
       ry="1" />
    <ellipse
       style="display:inline;fill:#ffffff;fill-opacity:1;stroke:none;stroke-width:0.113126;stroke-linecap:round;stroke-miterlimit:4;stroke-dasharray:none;stroke-dashoffset:0;stroke-opacity:1;paint-order:fill markers stroke"
       id="ellipse31934"
       cx="14.627353"
       cy="88.915894"
       rx="0.99996799"
       ry="1" />
    <path
       style="display:inline;fill:none;stroke:#ffffff;stroke-width:0.467;stroke-linecap:butt;stroke-linejoin:miter;stroke-miterlimit:4;stroke-dasharray:none;stroke-opacity:1"
       d="m 14.645366,101.59087 -2.2e-4,2.57966"
       id="path31940"
       sodipodi:nodetypes="cc" />
    <g
       aria-label="MEX"
       id="text31492"
       style="font-style:normal;font-variant:normal;font-weight:bold;font-stretch:condensed;line-height:0%;font-family:Miso;-inkscape-font-specification:'Miso Bold Condensed';letter-spacing:-0.0142462px;word-spacing:0px;display:inline;fill:#ffffff;fill-opacity:1;stroke:none;stroke-width:0.282223;enable-background:new"
       inkscape:transform-center-x="0.53338096"
       inkscape:transform-center-y="12.800067">
      <path
         d="m 12.315055,4.544594 q -0.101599,0 -0.172719,-0.07112 -0.07112,-0.07112 -0.07112,-0.172719 V 1.3543729 q 0,-0.086359 0.0508,-0.1523991 0.0508,-0.06604 0.13716,-0.086359 0.08636,-0.02032 0.162559,0.02032 0.0762,0.03556 0.111759,0.1168393 0.101599,0.2235187 0.208279,0.4419574 0.08636,0.1930388 0.193039,0.4114775 0.106679,0.2133588 0.193039,0.4013177 0.08636,-0.1879589 0.187958,-0.4013177 0.10668,-0.2184387 0.193039,-0.4114775 0.1016,-0.2184387 0.208279,-0.4419574 0.04064,-0.081279 0.111759,-0.1168393 0.0762,-0.04064 0.162559,-0.02032 0.08636,0.02032 0.13716,0.086359 0.05588,0.06604 0.05588,0.1523991 v 2.9463825 q 0,0.1015994 -0.07112,0.172719 -0.07112,0.07112 -0.172719,0.07112 -0.1016,0 -0.172719,-0.07112 -0.07112,-0.07112 -0.07112,-0.172719 v -1.854189 q -0.06604,0.1371592 -0.126999,0.2692384 -0.06096,0.1320793 -0.111759,0.2336786 -0.05588,0.1219193 -0.11176,0.2336787 -0.03048,0.06604 -0.09144,0.1066793 -0.05588,0.03556 -0.126999,0.03556 -0.15748,0 -0.223519,-0.1422391 -0.05588,-0.1117594 -0.11176,-0.2336787 -0.0508,-0.1015993 -0.111759,-0.2336786 -0.06096,-0.1320792 -0.121919,-0.2692384 v 1.854189 q 0,0.1015994 -0.07112,0.172719 -0.07112,0.07112 -0.172719,0.07112 z"
         style="font-size:5.07997px;line-height:1.25;fill:#ffffff;fill-opacity:1;stroke-width:0.282223"
         id="path6808" />
      <path
         d="m 14.698548,1.3746928 q 0,-0.1015994 0.07112,-0.172719 0.07112,-0.07112 0.172719,-0.07112 h 1.015994 q 0.101599,0 0.172719,0.07112 0.07112,0.07112 0.07112,0.172719 0,0.1015994 -0.07112,0.172719 -0.07112,0.07112 -0.172719,0.07112 h -0.772155 v 0.9143946 h 0.670556 q 0.101599,0 0.172719,0.07112 0.07112,0.07112 0.07112,0.172719 0,0.1015994 -0.07112,0.1727189 -0.07112,0.07112 -0.172719,0.07112 h -0.670556 v 1.015994 h 0.772155 q 0.101599,0 0.172719,0.07112 0.07112,0.07112 0.07112,0.172719 0,0.1015994 -0.07112,0.1727189 -0.07112,0.07112 -0.172719,0.07112 h -1.015994 q -0.101599,0 -0.172719,-0.07112 -0.07112,-0.07112 -0.07112,-0.1727189 z"
         style="font-size:5.07997px;line-height:1.25;fill:#ffffff;fill-opacity:1;stroke-width:0.282223"
         id="path6810" />
      <path
         d="m 16.487681,4.5191941 q -0.08636,-0.04572 -0.121919,-0.1422391 -0.03048,-0.096519 0.01524,-0.1828789 L 17.087117,2.7767645 16.431801,1.4661322 q -0.04572,-0.091439 -0.01524,-0.1879588 0.03556,-0.09652 0.12192,-0.1422392 0.09144,-0.04572 0.187959,-0.01016 0.09652,0.03048 0.142239,0.1219192 l 0.492757,0.9855142 0.492757,-0.9855142 q 0.04572,-0.091439 0.142239,-0.1219192 0.09652,-0.03556 0.182879,0.01016 0.09144,0.04572 0.121919,0.1422392 0.03556,0.096519 -0.01016,0.1879588 l -0.655316,1.3106323 0.706116,1.4173116 q 0.04572,0.086359 0.01016,0.1828789 -0.03048,0.096519 -0.121919,0.1422391 -0.08636,0.04572 -0.182879,0.01016 -0.09652,-0.03048 -0.142239,-0.1168393 L 17.361436,3.3203213 16.817879,4.4125148 q -0.04572,0.086359 -0.142239,0.1168393 -0.09652,0.03556 -0.187959,-0.01016 z"
         style="font-size:5.07997px;line-height:1.25;fill:#ffffff;fill-opacity:1;stroke-width:0.282223"
         id="path6812" />
    </g>
    <path
       style="display:inline;fill:none;fill-rule:evenodd;stroke:#ffffff;stroke-width:0.278199;stroke-linecap:butt;stroke-linejoin:miter;stroke-miterlimit:4;stroke-dasharray:none;stroke-opacity:1"
       d="m 16.79259,107.40764 h -0.612842 v -2.65838 h -0.61982 v 2.65838 h -0.59299 v -2.65838 h -0.620542 v 2.65838 h -0.63247 v -2.65838 h -0.619012 v 2.65838 h -0.64424"
       id="path31528"
       inkscape:connector-curvature="0"
       sodipodi:nodetypes="cccccccccccccc"
       inkscape:export-filename="/home/diego/Desktop/muxlizer"
       inkscape:export-xdpi="100"
       inkscape:export-ydpi="100" />
    <path
       style="display:inline;fill:#ffffff;stroke-width:0.282223"
       inkscape:connector-curvature="0"
       d="m 14.427276,123.9019 v -0.53635 h -1.14484 l 0.005,3.70889 h 3.43018 v -3.17254 h -2.2905 z m 1.70391,1.72766 h -0.57229 v 0.4601 h -0.30986 v -0.4601 h -0.10884 l -0.71821,0.4601 v -0.4601 h -0.56275 v -0.26812 h 0.56275 v -0.46006 l 0.71818,0.46006 h 0.10887 v -0.46006 h 0.30986 v 0.46006 h 0.57229 z"
       id="path31472"
       inkscape:export-filename="/home/befaco/Escritorio/tretwetwety"
       inkscape:export-xdpi="600"
       inkscape:export-ydpi="600" />
    <g
       id="g31484"
       style="display:inline;stroke-width:1.0087"
       transform="matrix(0.98281995,0,0,1,-78.596643,-172.1756)">
      <g
         style="display:inline;opacity:1;stroke:none;stroke-width:0.988596"
         transform="matrix(1,0,0,1.0410849,-232.64809,-4.1347356)"
         id="g31478">
        <g
           id="g31476"
           transform="matrix(0.2807711,0,0,0.26458333,102.17083,15.427607)"
           style="display:inline;stroke:none;stroke-width:0.988596">
          <path
             sodipodi:nodetypes="sssssssss"
             inkscape:connector-curvature="0"
             id="path31474"
             d="m 791.59826,975.45392 h 24.58697 c 2.90194,0 5.23816,2.43216 5.23816,5.45328 v 34.3739 c 0,3.0211 -2.33622,5.4532 -5.23816,5.4532 h -24.58697 c -2.90193,0 -5.23815,-2.4321 -5.23815,-5.4532 v -34.3739 c 0,-3.02112 2.33622,-5.45328 5.23815,-5.45328 z"
             style="display:inline;opacity:1;fill:#ffffff;fill-opacity:1;stroke:none;stroke-width:0.215487;stroke-linecap:round;stroke-miterlimit:4;stroke-dasharray:none;stroke-dashoffset:0;stroke-opacity:1" />
        </g>
      </g>
      <g
         aria-label="OUT"
         transform="scale(1.0301369,0.97074476)"
         id="text31482"
         style="font-style:normal;font-variant:normal;font-weight:bold;font-stretch:condensed;line-height:0%;font-family:Miso;-inkscape-font-specification:'Miso Bold Condensed';letter-spacing:-0.0116002px;word-spacing:0px;display:inline;opacity:1;fill:#000000;fill-opacity:1;stroke:none;stroke-width:0.231805;enable-background:new">
        <path
           d="m 90.977461,301.68723 q -0.124547,0 -0.23486,-0.0463 -0.106754,-0.0463 -0.188599,-0.12811 -0.08185,-0.0818 -0.128106,-0.1886 -0.04626,-0.11031 -0.04626,-0.23486 v -1.20988 q 0,-0.12455 0.04626,-0.2313 0.04626,-0.11031 0.128106,-0.19216 0.08185,-0.0818 0.188599,-0.1281 0.110313,-0.0463 0.23486,-0.0463 0.124547,0 0.231301,0.0463 0.110313,0.0463 0.192158,0.1281 0.08185,0.0819 0.128105,0.19216 0.04626,0.10675 0.04626,0.2313 v 1.20988 q 0,0.12455 -0.04626,0.23486 -0.04626,0.10676 -0.128105,0.1886 -0.08185,0.0819 -0.192158,0.12811 -0.106754,0.0463 -0.231301,0.0463 z m 0,-2.06392 q -0.106754,0 -0.181483,0.0747 -0.07473,0.0747 -0.07473,0.18148 v 1.20988 q 0,0.10676 0.07473,0.18149 0.07473,0.0747 0.181483,0.0747 0.106754,0 0.181482,-0.0747 0.07473,-0.0747 0.07473,-0.18149 v -1.20988 q 0,-0.10675 -0.07473,-0.18148 -0.07473,-0.0747 -0.181482,-0.0747 z"
           style="font-size:3.55848px;line-height:1.25;fill:#000000;fill-opacity:1;stroke-width:0.231805"
           id="path6773" />
        <path
           d="m 92.204206,301.0894 q 0,0.10676 0.07473,0.18149 0.07473,0.0747 0.181483,0.0747 0.103196,0 0.177924,-0.0747 0.07829,-0.0747 0.07829,-0.18149 v -1.6369 q 0,-0.0712 0.04982,-0.12099 0.04982,-0.0498 0.120988,-0.0498 0.07117,0 0.120989,0.0498 0.04982,0.0498 0.04982,0.12099 v 1.6369 q 0,0.12455 -0.04982,0.23486 -0.04626,0.10676 -0.128106,0.1886 -0.07829,0.0819 -0.188599,0.12811 -0.110313,0.0463 -0.231301,0.0463 -0.124547,0 -0.23486,-0.0463 -0.106754,-0.0463 -0.188599,-0.12811 -0.08185,-0.0818 -0.128106,-0.1886 -0.04626,-0.11031 -0.04626,-0.23486 v -1.6369 q 0,-0.0712 0.04982,-0.12099 0.04982,-0.0498 0.120988,-0.0498 0.07117,0 0.120989,0.0498 0.04982,0.0498 0.04982,0.12099 v 1.6369 z"
           style="font-size:3.55848px;line-height:1.25;fill:#000000;fill-opacity:1;stroke-width:0.231805"
           id="path6775" />
        <path
           d="m 94.341927,299.29593 q 0.07117,0 0.120989,0.0498 0.04982,0.0498 0.04982,0.12099 0,0.0712 -0.04982,0.12098 -0.04982,0.0498 -0.120989,0.0498 h -0.291795 v 1.87888 q 0,0.0712 -0.04982,0.12099 -0.04982,0.0498 -0.120988,0.0498 -0.07117,0 -0.120988,-0.0498 -0.04982,-0.0498 -0.04982,-0.12099 V 299.6375 H 93.41672 q -0.07117,0 -0.120988,-0.0498 -0.04982,-0.0498 -0.04982,-0.12098 0,-0.0712 0.04982,-0.12099 0.04982,-0.0498 0.120988,-0.0498 z"
           style="font-size:3.55848px;line-height:1.25;fill:#000000;fill-opacity:1;stroke-width:0.231805"
           id="path6777" />
      </g>
    </g>
    <path
       style="display:inline;fill:none;stroke:#ffffff;stroke-width:0.265;stroke-linecap:butt;stroke-linejoin:miter;stroke-miterlimit:4;stroke-dasharray:none;stroke-dashoffset:0;stroke-opacity:1"
       d="M 2.900701,19.42501 H 13.910984"
       id="path31980" />
    <path
       style="display:inline;fill:none;stroke:#ffffff;stroke-width:0.265;stroke-linecap:butt;stroke-linejoin:miter;stroke-miterlimit:4;stroke-dasharray:none;stroke-dashoffset:0;stroke-opacity:1"
       d="M 2.900701,32.06146 H 13.910984"
       id="path31982" />
    <path
       style="display:inline;fill:none;stroke:#ffffff;stroke-width:0.265;stroke-linecap:butt;stroke-linejoin:miter;stroke-miterlimit:4;stroke-dasharray:none;stroke-dashoffset:0;stroke-opacity:1"
       d="M 2.900701,44.6979 H 13.910984"
       id="path31984" />
    <path
       style="display:inline;fill:none;stroke:#ffffff;stroke-width:0.265;stroke-linecap:butt;stroke-linejoin:miter;stroke-miterlimit:4;stroke-dasharray:none;stroke-dashoffset:0;stroke-opacity:1"
       d="M 2.900701,57.33435 H 13.910984"
       id="path31986" />
    <path
       style="display:inline;fill:none;stroke:#ffffff;stroke-width:0.265;stroke-linecap:butt;stroke-linejoin:miter;stroke-miterlimit:4;stroke-dasharray:none;stroke-dashoffset:0;stroke-opacity:1"
       d="M 2.900701,69.97079 H 13.910984"
       id="path31988" />
    <path
       style="display:inline;fill:none;stroke:#ffffff;stroke-width:0.265;stroke-linecap:butt;stroke-linejoin:miter;stroke-miterlimit:4;stroke-dasharray:none;stroke-dashoffset:0;stroke-opacity:1"
       d="M 2.900701,82.60724 H 13.910984"
       id="path31990" />
    <path
       style="display:inline;fill:none;stroke:#ffffff;stroke-width:0.265;stroke-linecap:butt;stroke-linejoin:miter;stroke-miterlimit:4;stroke-dasharray:none;stroke-dashoffset:0;stroke-opacity:1"
       d="M 2.900701,95.24368 H 13.910984"
       id="path31992" />
    <g
       aria-label="GATE IN"
       id="text31488"
       style="font-style:normal;font-variant:normal;font-weight:bold;font-stretch:condensed;line-height:0%;font-family:Miso;-inkscape-font-specification:'Miso Bold Condensed';letter-spacing:-0.0142462px;word-spacing:0px;display:inline;fill:#ffffff;fill-opacity:1;stroke:none;stroke-width:0.282223;enable-background:new"
       inkscape:transform-center-x="0.53337456"
       inkscape:transform-center-y="12.799991">
      <path
         d="m 2.3404268,119.40149 q 0.061383,0 0.1043518,0.043 0.042968,0.043 0.042968,0.10436 v 0.49106 q 0,0.10742 -0.039899,0.20257 -0.039899,0.0921 -0.1104902,0.16266 -0.070591,0.0706 -0.1657351,0.11049 -0.092075,0.0399 -0.1994961,0.0399 -0.1074209,0 -0.2025652,-0.0399 -0.092075,-0.0399 -0.162666,-0.11049 -0.067522,-0.0706 -0.1104901,-0.16266 -0.039899,-0.0952 -0.039899,-0.20257 v -1.04351 q 0,-0.0859 0.027623,-0.16574 0.027623,-0.0829 0.076729,-0.14732 0.052176,-0.0675 0.1227668,-0.11356 0.070591,-0.0491 0.1565277,-0.0706 0.082868,-0.0215 0.1688043,-0.0153 0.085937,0.003 0.1626661,0.0368 0.076729,0.0307 0.1411818,0.0859 0.064453,0.0553 0.1074209,0.13197 0.030692,0.0522 0.012277,0.11049 -0.015346,0.0583 -0.067522,0.0921 -0.052176,0.0307 -0.1104902,0.0154 -0.058314,-0.0184 -0.089006,-0.0706 -0.039899,-0.0645 -0.1104901,-0.0921 -0.067522,-0.0307 -0.1381127,-0.009 -0.07366,0.0184 -0.1196976,0.0798 -0.046037,0.0583 -0.046037,0.13198 v 1.04351 q 0,0.0921 0.064453,0.15653 0.067522,0.0645 0.1565277,0.0645 0.092075,0 0.1565277,-0.0645 0.064453,-0.0644 0.064453,-0.15653 v -0.34374 H 2.0335098 q -0.061383,0 -0.1043518,-0.043 -0.042968,-0.043 -0.042968,-0.10435 0,-0.0614 0.042968,-0.10436 0.042968,-0.043 0.1043518,-0.043 h 0.306917 z"
         style="font-size:3.06917px;line-height:1.25;fill:#ffffff;fill-opacity:1;stroke-width:0.282223"
         id="path6795" />
      <path
         d="m 3.8791767,120.36827 q 0.015346,0.0614 -0.015346,0.11356 -0.027623,0.0522 -0.085937,0.0675 -0.061383,0.0153 -0.1135593,-0.0153 -0.052176,-0.0276 -0.067522,-0.0859 -0.012277,-0.0368 -0.024553,-0.089 -0.012277,-0.043 -0.030692,-0.10129 -0.015346,-0.0614 -0.033761,-0.13197 H 2.9860483 q -0.021484,0.0706 -0.03683,0.13197 -0.015346,0.0583 -0.027622,0.10129 -0.012277,0.0522 -0.024553,0.089 -0.015346,0.0583 -0.067522,0.0859 -0.052176,0.0307 -0.1135593,0.0153 -0.058314,-0.0153 -0.089006,-0.0675 -0.027623,-0.0522 -0.012277,-0.11356 l 0.4910672,-1.78011 q 0.012277,-0.0491 0.049107,-0.0767 0.039899,-0.0307 0.092075,-0.0307 0.052176,0 0.089006,0.0307 0.039899,0.0276 0.052176,0.0767 z m -0.4542371,-0.5371 q -0.042968,-0.1596 -0.089006,-0.3284 -0.046038,-0.16881 -0.089006,-0.3192 -0.042968,0.15039 -0.089006,0.3192 -0.046038,0.1688 -0.089006,0.3284 z"
         style="font-size:3.06917px;line-height:1.25;fill:#ffffff;fill-opacity:1;stroke-width:0.282223"
         id="path6797" />
      <path
         d="m 4.7242921,118.49301 q 0.061383,0 0.1043518,0.043 0.042968,0.043 0.042968,0.10435 0,0.0614 -0.042968,0.10435 -0.042968,0.043 -0.1043518,0.043 H 4.4726202 v 1.62052 q 0,0.0614 -0.042968,0.10436 -0.042968,0.043 -0.1043518,0.043 -0.061383,0 -0.1043518,-0.043 -0.042968,-0.043 -0.042968,-0.10436 v -1.62052 H 3.9263079 q -0.061383,0 -0.1043518,-0.043 -0.042968,-0.043 -0.042968,-0.10435 0,-0.0614 0.042968,-0.10435 0.042968,-0.043 0.1043518,-0.043 z"
         style="font-size:3.06917px;line-height:1.25;fill:#ffffff;fill-opacity:1;stroke-width:0.282223"
         id="path6799" />
      <path
         d="m 5.0537905,118.64033 q 0,-0.0614 0.042968,-0.10435 0.042968,-0.043 0.1043517,-0.043 h 0.613834 q 0.061383,0 0.1043518,0.043 0.042968,0.043 0.042968,0.10435 0,0.0614 -0.042968,0.10435 -0.042968,0.043 -0.1043518,0.043 H 5.3484308 v 0.55245 h 0.4051304 q 0.061383,0 0.1043518,0.043 0.042968,0.043 0.042968,0.10435 0,0.0614 -0.042968,0.10435 -0.042968,0.043 -0.1043518,0.043 H 5.3484308 v 0.61384 h 0.4665138 q 0.061383,0 0.1043518,0.043 0.042968,0.043 0.042968,0.10436 0,0.0614 -0.042968,0.10435 -0.042968,0.043 -0.1043518,0.043 h -0.613834 q -0.061383,0 -0.1043517,-0.043 -0.042968,-0.043 -0.042968,-0.10435 v -1.75557 z"
         style="font-size:3.06917px;line-height:1.25;fill:#ffffff;fill-opacity:1;stroke-width:0.282223"
         id="path6801" />
      <path
         d="m 6.891346,120.55549 q -0.061383,0 -0.1043518,-0.043 -0.042968,-0.043 -0.042968,-0.10436 v -1.78012 q 0,-0.0614 0.042968,-0.10435 0.042968,-0.043 0.1043518,-0.043 0.061383,0 0.1043518,0.043 0.042968,0.043 0.042968,0.10435 v 1.78012 q 0,0.0614 -0.042968,0.10436 -0.042968,0.043 -0.1043518,0.043 z"
         style="font-size:3.06917px;line-height:1.25;fill:#ffffff;fill-opacity:1;stroke-width:0.282223"
         id="path6803" />
      <path
         d="m 8.3840586,120.55242 q -0.052176,0.0123 -0.098213,-0.0123 -0.046038,-0.0215 -0.067522,-0.0675 -0.092075,-0.19643 -0.1933577,-0.40207 -0.085937,-0.17494 -0.1902885,-0.38671 -0.1012826,-0.21177 -0.1964269,-0.41127 v 1.13559 q 0,0.0614 -0.042968,0.10436 -0.042968,0.043 -0.1043518,0.043 -0.061383,0 -0.1043518,-0.043 -0.042968,-0.043 -0.042968,-0.10436 v -1.78012 q 0,-0.0522 0.030692,-0.0921 0.030692,-0.0399 0.082868,-0.0522 0.052176,-0.0123 0.095144,0.0123 0.046038,0.0215 0.070591,0.0675 0.092075,0.19643 0.1933577,0.40206 0.085937,0.17495 0.1872194,0.38672 0.1012826,0.21177 0.1994961,0.41127 v -1.1356 q 0,-0.0614 0.042968,-0.10435 0.042968,-0.043 0.1043518,-0.043 0.061383,0 0.1043518,0.043 0.042968,0.043 0.042968,0.10435 v 1.78012 q 0,0.0522 -0.033761,0.0921 -0.030692,0.0399 -0.079798,0.0522 z"
         style="font-size:3.06917px;line-height:1.25;fill:#ffffff;fill-opacity:1;stroke-width:0.282223"
         id="path6805" />
    </g>
    <g
       aria-label="[   CLOCK]"
       id="text31944"
       style="font-style:normal;font-variant:normal;font-weight:bold;font-stretch:condensed;line-height:0%;font-family:Miso;-inkscape-font-specification:'Miso Bold Condensed';letter-spacing:-0.0142462px;word-spacing:0px;display:inline;fill:#ffffff;fill-opacity:1;stroke:none;stroke-width:0.282223;enable-background:new"
       inkscape:transform-center-x="0.53337456"
       inkscape:transform-center-y="12.799991">
      <path
         d="m 0.67835845,123.30254 q -0.0613834,0 -0.10435178,-0.043 -0.0429684,-0.043 -0.0429684,-0.10435 v -2.24664 q 0,-0.0614 0.0429684,-0.10435 0.0429684,-0.043 0.10435178,-0.043 h 0.306917 q 0.0613833,0 0.10435175,0.043 0.042968,0.043 0.042968,0.10435 0,0.0614 -0.042968,0.10436 -0.042968,0.043 -0.10435175,0.043 H 0.82567861 v 1.952 h 0.15959684 q 0.0613833,0 0.10435175,0.043 0.042968,0.043 0.042968,0.10436 0,0.0614 -0.042968,0.10435 -0.042968,0.043 -0.10435175,0.043 h -0.306917 z"
         style="font-size:3.06917px;line-height:1.25;fill:#ffffff;fill-opacity:1;stroke-width:0.282223"
         id="path6780" />
      <path
         d="m 3.3713407,123.05086 q -0.082868,-0.0215 -0.1534585,-0.0675 -0.070591,-0.0491 -0.1227668,-0.11356 -0.049107,-0.0675 -0.076729,-0.14732 -0.027622,-0.0798 -0.027622,-0.1688 v -1.04352 q 0,-0.0859 0.027622,-0.16573 0.027623,-0.0829 0.076729,-0.14732 0.052176,-0.0675 0.1227668,-0.11356 0.070591,-0.0491 0.1534585,-0.0706 0.1718735,-0.046 0.3314703,0.0215 0.1595969,0.0645 0.2486028,0.21791 0.033761,0.0522 0.015346,0.11049 -0.015346,0.0583 -0.067522,0.0921 -0.052176,0.0307 -0.1104901,0.0153 -0.058314,-0.0184 -0.092075,-0.0706 -0.03683,-0.0644 -0.107421,-0.0921 -0.067522,-0.0307 -0.1411818,-0.009 -0.070591,0.0184 -0.1166284,0.0798 -0.046038,0.0583 -0.046038,0.13197 v 1.04352 q 0,0.0767 0.046038,0.13504 0.046038,0.0583 0.1166284,0.0798 0.07366,0.0184 0.1411818,-0.009 0.070591,-0.0307 0.107421,-0.0951 0.033761,-0.0522 0.092075,-0.0675 0.058314,-0.0184 0.1104901,0.0123 0.052176,0.0338 0.067522,0.0921 0.018415,0.0583 -0.015346,0.11049 -0.089006,0.15346 -0.2486028,0.21791 -0.1595968,0.0675 -0.3314703,0.0215 z"
         style="font-size:3.06917px;line-height:1.25;fill:#ffffff;fill-opacity:1;stroke-width:0.282223"
         id="path6782" />
      <path
         d="m 4.3422927,123.057 q -0.061383,0 -0.1043518,-0.043 -0.042968,-0.043 -0.042968,-0.10435 v -1.76784 q 0,-0.0614 0.042968,-0.10435 0.042968,-0.043 0.1043518,-0.043 0.061383,0 0.1043518,0.043 0.042968,0.043 0.042968,0.10435 v 1.62052 h 0.4665139 q 0.061383,0 0.1043518,0.043 0.042968,0.043 0.042968,0.10435 0,0.0614 -0.042968,0.10435 -0.042968,0.043 -0.1043518,0.043 h -0.613834 z"
         style="font-size:3.06917px;line-height:1.25;fill:#ffffff;fill-opacity:1;stroke-width:0.282223"
         id="path6784" />
      <path
         d="m 5.7275865,123.06928 q -0.1074209,0 -0.2025652,-0.0399 -0.092075,-0.0399 -0.162666,-0.11049 -0.070591,-0.0706 -0.1104901,-0.16267 -0.039899,-0.0951 -0.039899,-0.20256 v -1.04352 q 0,-0.10742 0.039899,-0.19949 0.039899,-0.0951 0.1104901,-0.16574 0.070591,-0.0706 0.162666,-0.11049 0.095144,-0.0399 0.2025652,-0.0399 0.107421,0 0.1994961,0.0399 0.095144,0.0399 0.1657351,0.11049 0.070591,0.0706 0.1104902,0.16574 0.039899,0.0921 0.039899,0.19949 v 1.04352 q 0,0.10742 -0.039899,0.20256 -0.039899,0.0921 -0.1104902,0.16267 -0.070591,0.0706 -0.1657351,0.11049 -0.092075,0.0399 -0.1994961,0.0399 z m 0,-1.78012 q -0.092075,0 -0.1565277,0.0645 -0.064453,0.0645 -0.064453,0.15653 v 1.04352 q 0,0.0921 0.064453,0.15653 0.064453,0.0645 0.1565277,0.0645 0.092075,0 0.1565277,-0.0645 0.064453,-0.0645 0.064453,-0.15653 v -1.04352 q 0,-0.0921 -0.064453,-0.15653 -0.064453,-0.0645 -0.1565277,-0.0645 z"
         style="font-size:3.06917px;line-height:1.25;fill:#ffffff;fill-opacity:1;stroke-width:0.282223"
         id="path6786" />
      <path
         d="m 6.8550672,123.05086 q -0.082868,-0.0215 -0.1534585,-0.0675 -0.070591,-0.0491 -0.1227668,-0.11356 -0.049107,-0.0675 -0.076729,-0.14732 -0.027623,-0.0798 -0.027623,-0.1688 v -1.04352 q 0,-0.0859 0.027623,-0.16573 0.027622,-0.0829 0.076729,-0.14732 0.052176,-0.0675 0.1227668,-0.11356 0.070591,-0.0491 0.1534585,-0.0706 0.1718735,-0.046 0.3314703,0.0215 0.1595969,0.0645 0.2486028,0.21791 0.033761,0.0522 0.015346,0.11049 -0.015346,0.0583 -0.067522,0.0921 -0.052176,0.0307 -0.1104901,0.0153 -0.058314,-0.0184 -0.092075,-0.0706 -0.03683,-0.0644 -0.107421,-0.0921 -0.067522,-0.0307 -0.1411818,-0.009 -0.070591,0.0184 -0.1166284,0.0798 -0.046038,0.0583 -0.046038,0.13197 v 1.04352 q 0,0.0767 0.046038,0.13504 0.046037,0.0583 0.1166284,0.0798 0.07366,0.0184 0.1411818,-0.009 0.070591,-0.0307 0.107421,-0.0951 0.033761,-0.0522 0.092075,-0.0675 0.058314,-0.0184 0.1104901,0.0123 0.052176,0.0338 0.067522,0.0921 0.018415,0.0583 -0.015346,0.11049 -0.089006,0.15346 -0.2486028,0.21791 -0.1595968,0.0675 -0.3314703,0.0215 z"
         style="font-size:3.06917px;line-height:1.25;fill:#ffffff;fill-opacity:1;stroke-width:0.282223"
         id="path6788" />
      <path
         d="m 8.7590469,122.85751 q 0.024553,0.0552 0.00307,0.11356 -0.018415,0.0583 -0.07366,0.0829 -0.055245,0.0276 -0.1135593,0.006 -0.055245,-0.0184 -0.082868,-0.0737 l -0.4020613,-0.83788 -0.1166285,0.1596 v 0.61383 q 0,0.0614 -0.042968,0.10435 -0.042968,0.043 -0.1043518,0.043 -0.061383,0 -0.1043518,-0.043 -0.042968,-0.043 -0.042968,-0.10435 v -1.78012 q 0,-0.0614 0.042968,-0.10435 0.042968,-0.043 0.1043518,-0.043 0.061383,0 0.1043518,0.043 0.042968,0.043 0.042968,0.10435 v 0.65987 l 0.5309665,-0.74581 q 0.03683,-0.0491 0.095144,-0.0583 0.061383,-0.009 0.1104901,0.0245 0.052176,0.0338 0.061383,0.0952 0.00921,0.0583 -0.027622,0.11049 l -0.4603755,0.64759 z"
         style="font-size:3.06917px;line-height:1.25;fill:#ffffff;fill-opacity:1;stroke-width:0.282223"
         id="path6790" />
      <path
         d="m 9.2757653,120.76126 q 0.061383,0 0.1043517,0.043 0.042968,0.043 0.042968,0.10435 v 2.24664 q 0,0.0614 -0.042968,0.10435 -0.042968,0.043 -0.1043517,0.043 h -0.306917 q -0.061383,0 -0.1043518,-0.043 -0.042968,-0.043 -0.042968,-0.10435 0,-0.0614 0.042968,-0.10436 0.042968,-0.043 0.1043518,-0.043 h 0.1595968 v -1.952 H 8.9688483 q -0.061383,0 -0.1043518,-0.043 -0.042968,-0.043 -0.042968,-0.10436 0,-0.0614 0.042968,-0.10435 0.042968,-0.043 0.1043518,-0.043 h 0.306917 z"
         style="font-size:3.06917px;line-height:1.25;fill:#ffffff;fill-opacity:1;stroke-width:0.282223"
         id="path6792" />
    </g>
  </g>
  <g
     inkscape:groupmode="layer"
     id="layer2"
     inkscape:label="components"
     style="display:none">
    <g
       style="display:inline"
       id="g8018"
       transform="matrix(-0.26458333,0,0,0.26458333,140.04773,5.1763806)" />
    <circle
       style="display:inline;fill:#ff00ff;fill-opacity:1;stroke:none;stroke-width:0.35;stroke-linecap:round;stroke-miterlimit:4;stroke-dasharray:none;stroke-dashoffset:7.54016;stroke-opacity:1;paint-order:fill markers stroke"
       id="circle31946"
       cx="17.700045"
       cy="101.55795"
       r="0.99999994"
       inkscape:label="led_8" />
    <circle
       style="display:inline;fill:#ff00ff;fill-opacity:1;stroke:none;stroke-width:0.35;stroke-linecap:round;stroke-miterlimit:4;stroke-dasharray:none;stroke-dashoffset:7.54016;stroke-opacity:1;paint-order:fill markers stroke"
       id="circle31948"
       cx="17.700045"
       cy="88.915894"
       r="0.99999994"
       inkscape:label="led_7" />
    <circle
       style="display:inline;fill:#ff00ff;fill-opacity:1;stroke:none;stroke-width:0.35;stroke-linecap:round;stroke-miterlimit:4;stroke-dasharray:none;stroke-dashoffset:7.54016;stroke-opacity:1;paint-order:fill markers stroke"
       id="circle31950"
       cx="17.700045"
       cy="76.273819"
       r="0.99999994"
       inkscape:label="led_6" />
    <circle
       style="display:inline;fill:#ff00ff;fill-opacity:1;stroke:none;stroke-width:0.35;stroke-linecap:round;stroke-miterlimit:4;stroke-dasharray:none;stroke-dashoffset:7.54016;stroke-opacity:1;paint-order:fill markers stroke"
       id="circle31952"
       cx="17.700045"
       cy="63.631744"
       r="0.99999994"
       inkscape:label="led_5" />
    <circle
       style="display:inline;fill:#ff00ff;fill-opacity:1;stroke:none;stroke-width:0.35;stroke-linecap:round;stroke-miterlimit:4;stroke-dasharray:none;stroke-dashoffset:7.54016;stroke-opacity:1;paint-order:fill markers stroke"
       id="circle31954"
       cx="17.700045"
       cy="50.989685"
       r="0.99999994"
       inkscape:label="led_4" />
    <circle
       style="display:inline;fill:#ff00ff;fill-opacity:1;stroke:none;stroke-width:0.35;stroke-linecap:round;stroke-miterlimit:4;stroke-dasharray:none;stroke-dashoffset:7.54016;stroke-opacity:1;paint-order:fill markers stroke"
       id="circle31956"
       cx="17.700045"
       cy="38.34761"
       r="0.99999994"
       inkscape:label="led_3" />
    <circle
       style="display:inline;fill:#ff00ff;fill-opacity:1;stroke:none;stroke-width:0.35;stroke-linecap:round;stroke-miterlimit:4;stroke-dasharray:none;stroke-dashoffset:7.54016;stroke-opacity:1;paint-order:fill markers stroke"
       id="circle31958"
       cx="17.700045"
       cy="25.705553"
       r="0.99999994"
       inkscape:label="led_2" />
    <circle
       style="display:inline;fill:#ff00ff;fill-opacity:1;stroke:none;stroke-width:0.35;stroke-linecap:round;stroke-miterlimit:4;stroke-dasharray:none;stroke-dashoffset:7.54016;stroke-opacity:1;paint-order:fill markers stroke"
       id="circle31960"
       cx="17.700045"
       cy="13.063478"
       r="0.99999994"
       inkscape:label="led_1" />
    <circle
       style="fill:#ff0000;fill-opacity:1;stroke-width:0.434999;stroke-linejoin:round"
       id="path6815"
       cx="8.0876265"
       cy="13.063484"
       r="1.6036172"
       inkscape:label="step_1" />
    <circle
       style="display:inline;fill:#ff0000;fill-opacity:1;stroke-width:0.434999;stroke-linejoin:round"
       id="path6815-1"
       cx="8.0876265"
       cy="25.705629"
       r="1.6036172"
       inkscape:label="step_2" />
    <circle
       style="display:inline;fill:#ff0000;fill-opacity:1;stroke-width:0.434999;stroke-linejoin:round"
       id="path6815-4"
       cx="8.0876265"
       cy="38.347778"
       r="1.6036172"
       inkscape:label="step_3" />
    <circle
       style="display:inline;fill:#ff0000;fill-opacity:1;stroke-width:0.434999;stroke-linejoin:round"
       id="path6815-9"
       cx="8.0876265"
       cy="50.989925"
       r="1.6036172"
       inkscape:label="step_4" />
    <circle
       style="display:inline;fill:#ff0000;fill-opacity:1;stroke-width:0.434999;stroke-linejoin:round"
       id="path6815-6"
       cx="8.0876265"
       cy="63.632069"
       r="1.6036172"
       inkscape:label="step_5" />
    <circle
       style="display:inline;fill:#ff0000;fill-opacity:1;stroke-width:0.434999;stroke-linejoin:round"
       id="path6815-91"
       cx="8.0876265"
       cy="76.274216"
       r="1.6036172"
       inkscape:label="step_6" />
    <circle
       style="display:inline;fill:#ff0000;fill-opacity:1;stroke-width:0.434999;stroke-linejoin:round"
       id="path6815-7"
       cx="8.0876265"
       cy="88.916367"
       r="1.6036172"
       inkscape:label="step_7" />
    <circle
       style="display:inline;fill:#ff0000;fill-opacity:1;stroke-width:0.434999;stroke-linejoin:round"
       id="path6815-3"
       cx="8.0876265"
       cy="101.55852"
       r="1.6036172"
       inkscape:label="step_8" />
    <circle
       style="display:inline;fill:#00ff00;fill-opacity:1;stroke-width:0.434999;stroke-linejoin:round"
       id="path6815-3-6"
       cx="4.9775352"
       cy="113.44526"
       r="1.6036172"
       inkscape:label="gate_in" />
    <circle
       style="display:inline;fill:#0000ff;fill-opacity:1;stroke-width:0.434999;stroke-linejoin:round"
       id="path6815-3-6-2"
       cx="15.01425"
       cy="113.39995"
       r="1.6036172"
       inkscape:label="out" />
  </g>
</svg>
