<?xml version="1.0" encoding="UTF-8"?>
<!-- Created with Inkscape (http://www.inkscape.org/) -->
<svg width="75" height="380" version="1.1" xmlns="http://www.w3.org/2000/svg" xmlns:cc="http://creativecommons.org/ns#" xmlns:dc="http://purl.org/dc/elements/1.1/" xmlns:rdf="http://www.w3.org/1999/02/22-rdf-syntax-ns#">
 <metadata>
  <rdf:RDF>
   <cc:Work rdf:about="">
    <dc:format>image/svg+xml</dc:format>
    <dc:type rdf:resource="http://purl.org/dc/dcmitype/StillImage"/>
   </cc:Work>
  </rdf:RDF>
 </metadata>
 <g transform="translate(0 -74.961)">
  <g transform="matrix(.83524 0 0 .83524 0 74.961)" stroke-width="1.1973">
   <rect y=".00011491" width="89.795" height="454.96" fill="#171717" style="paint-order:normal"/>
   <g fill="#fff">
    <path d="m52.7 15.686q-0.112 0-0.14-0.042-0.028-0.028-0.028-0.112v-7.602l-3.038 7.574q-0.028 0.07-0.07 0.084-0.028 0.014-0.168 0.014h-1.12q-0.14 0-0.182-0.014-0.028-0.014-0.056-0.084l-3.038-7.574v7.602q0 0.084-0.028 0.112-0.028 0.042-0.14 0.042h-1.302q-0.168 0-0.168-0.154v-10.108q0-0.196 0.042-0.238 0.042-0.056 0.266-0.056h1.666q0.098 0 0.112 0.042 0.028 0.028 0.07 0.126l3.318 8.232 3.318-8.232q0.042-0.098 0.056-0.126 0.028-0.042 0.126-0.042h1.666q0.224 0 0.266 0.056 0.042 0.042 0.042 0.238v10.108q0 0.154-0.168 0.154z"/>
    <path d="m58.098 15.504q0 0.182-0.182 0.182h-1.274q-0.182 0-0.182-0.182v-10.192q0-0.182 0.182-0.182h1.274q0.182 0 0.182 0.182z"/>
    <path d="m66.414 15.686q-0.154 0-0.21-0.098l-2.674-4.018-2.688 4.018q-0.056 0.098-0.21 0.098h-1.498q-0.168 0-0.042-0.182l3.528-5.278-3.276-4.928q-0.042-0.07-0.014-0.112 0.028-0.056 0.14-0.056h1.414q0.154 0 0.196 0.084l2.436 3.654 2.45-3.654q0.042-0.084 0.196-0.084h1.414q0.112 0 0.14 0.056 0.028 0.042-0.014 0.112l-3.276 4.928 3.528 5.278q0.126 0.182-0.042 0.182z"/>
    <path d="m69.813 15.7q-0.28 0-0.336-0.056-0.056-0.042-0.056-0.35v-9.786q0-0.28 0.042-0.322 0.056-0.056 0.322-0.056h4.97q0.154 0 0.182 0.056 0.028 0.042 0.028 0.168v1.036q0 0.14-0.042 0.196-0.042 0.042-0.168 0.042h-3.794v2.856h3.612q0.21 0 0.21 0.224v1.05q0 0.238-0.21 0.238h-3.612v3.192h3.962q0.196 0 0.196 0.238v1.05q0 0.224-0.196 0.224z"/>
    <path d="m83.085 15.686q-0.154 0-0.224-0.028-0.056-0.014-0.126-0.112l-2.142-4.144h-1.596v4.102q0 0.182-0.182 0.182h-1.246q-0.168 0-0.168-0.182v-10.206q0-0.07 0.042-0.112 0.056-0.056 0.126-0.056h2.828q1.554 0 2.464 0.756t0.91 2.352q0 1.022-0.448 1.736-0.448 0.7-1.232 1.064l2.338 4.452q0.112 0.196-0.168 0.196zm-4.088-9.086v3.346h1.148q0.924 0 1.47-0.392 0.546-0.406 0.546-1.33 0-0.798-0.434-1.204-0.42-0.42-1.134-0.42z"/>
    <g>
     <path d="m8.0273 323.17s0.33674-0.35123 0.60934-0.60667v7.4077c0 0.43105 0.33674 0.76631 0.76969 0.76631 0.41692 0 0.76969-0.33526 0.76969-0.76631v-9.2596c0-0.30333-0.19242-0.5907-0.48106-0.70245-0.28863-0.12772-0.60934-0.0639-0.83383 0.15965l-1.9242 1.9158c-0.30467 0.30334-0.30467 0.78228 0 1.0856 0.30467 0.30333 0.78573 0.30333 1.0904 0z"/>
     <path d="m76.952 322.35c0.36881 0.20754 0.83383 0.0798 1.0423-0.28737 0.16035-0.25543 0.40088-0.44701 0.68951-0.52684 0.30467-0.0798 0.60934-0.0479 0.88194 0.0958 0.25656 0.14369 0.44899 0.38316 0.5452 0.67053 0.08018 0.28736 0.04811 0.60666-0.08018 0.87806l-3.3834 6.386c-0.11225 0.23948-0.11225 0.51088 0.03207 0.75035 0.14432 0.22351 0.38484 0.36719 0.65744 0.36719h3.5919c0.41692 0 0.76969-0.33526 0.76969-0.76631 0-0.41509-0.35277-0.76631-0.76969-0.76631h-2.3251c0.8178-1.5326 2.7901-5.2684 2.7901-5.2684 0.3207-0.62263 0.38484-1.341 0.19242-2.0116-0.20846-0.68648-0.65744-1.2453-1.2828-1.5805-0.62537-0.33526-1.347-0.43105-2.0204-0.23947-0.68951 0.19158-1.2668 0.63859-1.6196 1.2453-0.20846 0.36719-0.08018 0.83017 0.28863 1.0537z"/>
     <path d="m8.7128 377.17c-0.51313 0.12772-1.0423-0.0958-1.2989-0.54281-0.22449-0.36719-0.68951-0.49491-1.0583-0.28737-0.36881 0.22351-0.49709 0.68649-0.28863 1.0537 0.60934 1.0537 1.8601 1.5646 3.0307 1.2453 1.1866-0.30334 2.0044-1.373 2.0044-2.5863v-0.9579c0-0.75034-0.30467-1.4209-0.8178-1.9158 0.51313-0.47895 0.8178-1.1654 0.8178-1.9158v-0.6386c0-1.2133-0.8178-2.283-2.0044-2.5863-1.1706-0.3193-2.4213 0.19158-3.0307 1.2453-0.20846 0.36719-0.080176 0.83017 0.28863 1.0537 0.36881 0.20755 0.83383 0.0798 1.0583-0.28736 0.25656-0.44702 0.78573-0.67053 1.2989-0.52685 0.49709 0.12772 0.84987 0.5907 0.84987 1.1016v0.6386c0 0.63859-0.51313 1.1495-1.1545 1.1495-0.43295 0-0.76969 0.35122-0.76969 0.76631 0 0.43105 0.33674 0.76631 0.76969 0.76631 0.64141 0 1.1545 0.51088 1.1545 1.1495v0.9579c0 0.52684-0.35277 0.97385-0.84987 1.1175z"/>
     <path d="m76.929 376.48h2.4374v1.4688c0 0.43105 0.33674 0.76632 0.76969 0.76632 0.41692 0 0.76969-0.33527 0.76969-0.76632v-1.4688h0.51313c0.41692 0 0.76969-0.33526 0.76969-0.76631 0-0.41509-0.35277-0.76631-0.76969-0.76631h-0.51313v-1.4688c0-0.41509-0.35278-0.76632-0.76969-0.76632-0.43295 0-0.76969 0.35123-0.76969 0.76632v1.4688h-1.379c0.46502-1.4688 1.9242-6.0188 1.9242-6.0188 0.01604-0.0798 0.03207-0.15965 0.03207-0.23947 0-0.3193-0.20846-0.62263-0.52916-0.73439-0.41692-0.12772-0.84987 0.0958-0.97815 0.49491l-2.2449 7.0246c-0.06414 0.23947-0.03207 0.49491 0.11225 0.68649 0.14432 0.20754 0.38484 0.31929 0.62537 0.31929z"/>
     <path d="m55.308 429.37h3.3674c0.3648 0 0.67348-0.29335 0.67348-0.67052 0-0.3632-0.30868-0.67053-0.67348-0.67053h-3.3674c-0.37883 0-0.67348 0.30733-0.67348 0.67053 0 0.37717 0.29465 0.67052 0.67348 0.67052z"/>
     <path d="m62.36 433.01c1.3049 0 2.3572-1.0477 2.3572-2.3468v-4.7496c0-1.2991-1.0523-2.3468-2.3572-2.3468s-2.3572 1.0477-2.3572 2.3468v4.7496c0 1.2991 1.0523 2.3468 2.3572 2.3468zm0-8.1022c0.56123 0 1.0102 0.44702 1.0102 1.0058v4.7496c0 0.55877-0.44899 1.0058-1.0102 1.0058s-1.0102-0.44701-1.0102-1.0058v-4.7496c0-0.55877 0.44899-1.0058 1.0102-1.0058z"/>
     <path d="m66.775 430.66v-6.4259c0-0.36321-0.30868-0.67053-0.67348-0.67053-0.37883 0-0.67348 0.30732-0.67348 0.67053v6.4259c0 1.2991 1.0523 2.3468 2.3572 2.3468 1.2908 0 2.3572-1.0477 2.3572-2.3468v-6.4259c0-0.36321-0.30868-0.67053-0.67348-0.67053-0.37883 0-0.67348 0.30732-0.67348 0.67053v6.4259c0 0.55877-0.46302 1.0058-1.0102 1.0058-0.56123 0-1.0102-0.44701-1.0102-1.0058z"/>
     <path d="m71.131 423.62c-0.3648 0-0.67348 0.30732-0.67348 0.67052 0 0.37717 0.30868 0.67053 0.67348 0.67053h1.1505v7.3758c0 0.37717 0.30868 0.67052 0.67348 0.67052 0.37883 0 0.67348-0.29335 0.67348-0.67052v-7.3758h1.1505c0.37883 0 0.67348-0.29336 0.67348-0.67053 0-0.3632-0.29465-0.67052-0.67348-0.67052z"/>
    </g>
   </g>
   <circle cx="-37.702" cy="63.754" r="0"/>
   <circle cx="-43.632" cy="62.907" r="0"/>
   <g fill="#fff">
    <path d="m38.935 334.33c0.43295 0 0.76969-0.33526 0.76969-0.76631v-9.2596c0-0.41509-0.33674-0.76631-0.76969-0.76631-0.41692 0-0.76969 0.35122-0.76969 0.76631v9.2596c0 0.43105 0.35278 0.76631 0.76969 0.76631z"/>
    <path d="m46.328 334.31c0.33674-0.0798 0.5933-0.39912 0.5933-0.75034v-9.2596c0-0.41509-0.35278-0.76631-0.76969-0.76631-0.43295 0-0.76969 0.35122-0.76969 0.76631v5.907c-1.3309-2.746-3.0307-6.2423-3.0307-6.2423-0.16035-0.3193-0.51313-0.49491-0.8659-0.41509-0.35278 0.0798-0.5933 0.39912-0.5933 0.75035v9.2596c0 0.43105 0.33674 0.76631 0.76969 0.76631 0.41692 0 0.76969-0.33526 0.76969-0.76631v-5.907c1.3309 2.746 3.0307 6.2423 3.0307 6.2423 0.14432 0.31929 0.51313 0.49491 0.8659 0.41508z"/>
    <path d="m50.072 332.91c-0.21648 0.16763-0.48106 0.22749-0.74564 0.1796-0.26458-0.0599-0.48106-0.21553-0.61335-0.44302-0.16837-0.2754-0.51714-0.37119-0.79374-0.21553-0.27661 0.15566-0.37282 0.51487-0.20445 0.79026 0.28863 0.50289 0.79374 0.87408 1.383 0.99381 0.58929 0.10777 1.1906-0.0239 1.6717-0.38315 0.46903-0.35921 0.76969-0.89803 0.8178-1.4967 0.04811-0.58671-0.16837-1.1734-0.58929-1.6045l-1.9122-1.9637c-0.1804-0.1796-0.26458-0.41908-0.24053-0.65855 0.01203-0.25145 0.13229-0.47895 0.33674-0.62263 0.20445-0.15566 0.44498-0.21553 0.69753-0.16763 0.24053 0.0599 0.44498 0.20355 0.57727 0.41908 0.15634 0.27539 0.50511 0.37118 0.78172 0.21552 0.27661-0.16763 0.37282-0.51486 0.21648-0.79026-0.28863-0.50289-0.78172-0.85013-1.347-0.96986-0.56524-0.10777-1.1666 0.0239-1.6236 0.37118-0.457 0.34724-0.74564 0.87408-0.79374 1.4488-0.04811 0.57474 0.15634 1.1495 0.56524 1.5566l1.9242 1.9637c0.1804 0.19157 0.27661 0.45499 0.25255 0.71841-0.02405 0.26342-0.14432 0.5029-0.36079 0.65856z" stroke-width="1.1973"/>
    <g>
     <g stroke="#fff" stroke-linecap="round" stroke-linejoin="round" stroke-width="1.6969">
      <path d="m50.85 321.72 7.2188-7.9474" opacity=".98"/>
      <path d="m38.006 321.91-6.8269-7.8182" opacity=".98"/>
      <path d="m51.337 335.73 6.7792 8.0456" opacity=".98"/>
      <path d="m38.802 336.21-7.3659 7.9074" opacity=".98"/>
     </g>
     <path d="m14.193 428.03h-1.0102v-1.0058c0-0.3632-0.30868-0.67053-0.67348-0.67053-0.37883 0-0.67348 0.30733-0.67348 0.67053v1.0058h-1.0102c-0.37883 0-0.67348 0.30733-0.67348 0.67053 0 0.37717 0.29465 0.67052 0.67348 0.67052h1.0102v1.0058c0 0.37717 0.29465 0.67052 0.67348 0.67052 0.3648 0 0.67348-0.29335 0.67348-0.67052v-1.0058h1.0102c0.3648 0 0.67348-0.29335 0.67348-0.67052 0-0.3632-0.30868-0.67053-0.67348-0.67053z"/>
     <path d="m17.878 433.01c1.3049 0 2.3572-1.0477 2.3572-2.3468v-4.7496c0-1.2991-1.0523-2.3468-2.3572-2.3468s-2.3572 1.0477-2.3572 2.3468v4.7496c0 1.2991 1.0523 2.3468 2.3572 2.3468zm0-8.1022c0.56123 0 1.0102 0.44702 1.0102 1.0058v4.7496c0 0.55877-0.44899 1.0058-1.0102 1.0058s-1.0102-0.44701-1.0102-1.0058v-4.7496c0-0.55877 0.44899-1.0058 1.0102-1.0058z"/>
     <path d="m22.293 430.66v-6.4259c0-0.36321-0.30868-0.67053-0.67348-0.67053-0.37883 0-0.67348 0.30732-0.67348 0.67053v6.4259c0 1.2991 1.0523 2.3468 2.3572 2.3468 1.2908 0 2.3572-1.0477 2.3572-2.3468v-6.4259c0-0.36321-0.30868-0.67053-0.67348-0.67053-0.37883 0-0.67348 0.30732-0.67348 0.67053v6.4259c0 0.55877-0.46302 1.0058-1.0102 1.0058-0.56123 0-1.0102-0.44701-1.0102-1.0058z"/>
     <path d="m26.648 423.62c-0.3648 0-0.67348 0.30732-0.67348 0.67052 0 0.37717 0.30868 0.67053 0.67348 0.67053h1.1505v7.3758c0 0.37717 0.30868 0.67052 0.67348 0.67052 0.37883 0 0.67348-0.29335 0.67348-0.67052v-7.3758h1.1505c0.37883 0 0.67348-0.29336 0.67348-0.67053 0-0.3632-0.29465-0.67052-0.67348-0.67052z"/>
     <path d="m37.528 94.664c1.2145 0.32679 2.4781-0.19607 3.1018-1.2745 0.22976-0.37581 0.09847-0.84966-0.279-1.0784-0.37747-0.21242-0.8534-0.08172-1.0832 0.29411-0.26258 0.4575-0.80417 0.68626-1.3293 0.55554-0.50876-0.14706-0.86981-0.60456-0.86981-1.1438v-5.5555c0-0.52286 0.36106-0.99672 0.86981-1.1274 0.52517-0.14706 1.0668 0.08172 1.3293 0.5392 0.22976 0.37581 0.7057 0.50652 1.0832 0.29411 0.37747-0.22875 0.50876-0.7026 0.279-1.0784-0.62364-1.0784-1.8873-1.6013-3.1018-1.2745-1.198 0.31045-2.035 1.4052-2.035 2.647v5.5555c0 1.2418 0.83699 2.3366 2.035 2.647z"/>
     <path d="m45.944 84.501v3.7908h-2.3633v-3.7908c0-0.42484-0.34464-0.7843-0.78776-0.7843-0.4267 0-0.78776 0.35947-0.78776 0.7843v9.477c0 0.44117 0.36105 0.7843 0.78776 0.7843 0.44311 0 0.78776-0.34314 0.78776-0.7843v-4.1176h2.3633v4.1176c0 0.44117 0.36106 0.7843 0.78776 0.7843 0.44311 0 0.78776-0.34314 0.78776-0.7843v-9.477c0-0.42484-0.34464-0.7843-0.78776-0.7843-0.4267 0-0.78776 0.35947-0.78776 0.7843z"/>
     <path d="m50.76 87.017s0.34464-0.35947 0.62364-0.6209v7.5816c0 0.44117 0.34464 0.7843 0.78776 0.7843 0.4267 0 0.78776-0.34314 0.78776-0.7843v-9.477c0-0.31046-0.19694-0.60457-0.49235-0.71895-0.29541-0.13071-0.62364-0.06536-0.8534 0.1634l-1.9694 1.9607c-0.31182 0.31046-0.31182 0.80065 0 1.1111 0.31182 0.31046 0.80417 0.31046 1.116 0z"/>
     <path d="m37.528 157.55c1.2145 0.32679 2.4781-0.19608 3.1018-1.2745 0.22976-0.37581 0.09847-0.84966-0.279-1.0784-0.37747-0.21242-0.8534-0.0817-1.0832 0.29411-0.26258 0.45751-0.80417 0.68627-1.3293 0.55555-0.50876-0.14706-0.86981-0.60456-0.86981-1.1438v-5.5554c0-0.52287 0.36106-0.99672 0.86981-1.1274 0.52517-0.14706 1.0668 0.0817 1.3293 0.5392 0.22976 0.37581 0.7057 0.50653 1.0832 0.29411 0.37747-0.22875 0.50876-0.7026 0.279-1.0784-0.62364-1.0784-1.8873-1.6013-3.1018-1.2745-1.198 0.31046-2.035 1.4052-2.035 2.647v5.5554c0 1.2418 0.83699 2.3366 2.035 2.647z"/>
     <path d="m45.944 147.39v3.7908h-2.3633v-3.7908c0-0.42483-0.34464-0.7843-0.78776-0.7843-0.4267 0-0.78776 0.35947-0.78776 0.7843v9.477c0 0.44117 0.36105 0.78429 0.78776 0.78429 0.44311 0 0.78776-0.34312 0.78776-0.78429v-4.1176h2.3633v4.1176c0 0.44117 0.36106 0.78429 0.78776 0.78429 0.44311 0 0.78776-0.34312 0.78776-0.78429v-9.477c0-0.42483-0.34464-0.7843-0.78776-0.7843-0.4267 0-0.78776 0.35947-0.78776 0.7843z"/>
     <path d="m49.48 149.06c0.37747 0.21242 0.8534 0.0817 1.0668-0.29411 0.16412-0.26143 0.41029-0.4575 0.7057-0.5392 0.31182-0.0817 0.62364-0.049 0.90264 0.0981 0.26259 0.14706 0.45952 0.39215 0.55799 0.68626 0.08206 0.29411 0.04924 0.62091-0.08206 0.89868l-3.4628 6.5358c-0.11488 0.2451-0.11488 0.52287 0.03282 0.76796 0.1477 0.22876 0.39388 0.37582 0.67288 0.37582h3.6762c0.4267 0 0.78776-0.34313 0.78776-0.7843 0-0.42483-0.36106-0.7843-0.78776-0.7843h-2.3797c0.83699-1.5686 2.8556-5.3921 2.8556-5.3921 0.32823-0.63724 0.39388-1.3725 0.19694-2.0588-0.21335-0.70259-0.67288-1.2745-1.3129-1.6176s-1.3786-0.44117-2.0679-0.2451c-0.7057 0.19608-1.2965 0.65358-1.6576 1.2745-0.21335 0.37581-0.08206 0.84966 0.29541 1.0784z"/>
     <path d="m37.528 220.09c1.2145 0.32679 2.4781-0.19608 3.1018-1.2745 0.22976-0.3758 0.09847-0.84965-0.279-1.0784-0.37747-0.21241-0.8534-0.0817-1.0832 0.29411-0.26258 0.4575-0.80417 0.68626-1.3293 0.55553-0.50876-0.14704-0.86981-0.60455-0.86981-1.1438v-5.5554c0-0.52285 0.36105-0.9967 0.86981-1.1274 0.52517-0.14706 1.0668 0.0817 1.3293 0.5392 0.22976 0.3758 0.7057 0.50652 1.0832 0.2941 0.37747-0.22874 0.50876-0.70259 0.279-1.0784-0.62364-1.0784-1.8873-1.6013-3.1018-1.2745-1.198 0.31045-2.035 1.4052-2.035 2.647v5.5554c0 1.2418 0.83699 2.3365 2.035 2.647z"/>
     <path d="m45.944 209.92v3.7908h-2.3633v-3.7908c0-0.42484-0.34464-0.7843-0.78776-0.7843-0.4267 0-0.78776 0.35946-0.78776 0.7843v9.4769c0 0.44117 0.36106 0.78429 0.78776 0.78429 0.44311 0 0.78776-0.34312 0.78776-0.78429v-4.1175h2.3633v4.1175c0 0.44117 0.36105 0.78429 0.78776 0.78429 0.44311 0 0.78776-0.34312 0.78776-0.78429v-9.4769c0-0.42484-0.34464-0.7843-0.78776-0.7843-0.4267 0-0.78776 0.35946-0.78776 0.7843z"/>
     <path d="m51.662 218.58c-0.52517 0.13073-1.0668-0.098-1.3293-0.55553-0.22976-0.37581-0.7057-0.50652-1.0832-0.29411-0.37747 0.22875-0.50876 0.7026-0.29541 1.0784 0.62364 1.0784 1.9037 1.6013 3.1018 1.2745 1.2145-0.31046 2.0514-1.4052 2.0514-2.647v-0.98037c0-0.76795-0.31182-1.4542-0.83699-1.9607 0.52517-0.49019 0.83699-1.1928 0.83699-1.9607v-0.65358c0-1.2418-0.83699-2.3365-2.0514-2.647-1.198-0.32679-2.4781 0.19607-3.1018 1.2745-0.21335 0.37581-0.08206 0.84966 0.29541 1.0784 0.37747 0.21242 0.8534 0.0817 1.0832-0.2941 0.26258-0.45751 0.80417-0.68626 1.3293-0.5392 0.50876 0.13071 0.86981 0.60456 0.86981 1.1274v0.65358c0 0.65358-0.52517 1.1764-1.1816 1.1764-0.44311 0-0.78776 0.35947-0.78776 0.78429 0 0.44117 0.34464 0.78429 0.78776 0.78429 0.65646 0 1.1816 0.52286 1.1816 1.1764v0.98037c0 0.5392-0.36105 0.99671-0.86981 1.1438z"/>
     <path d="m37.528 283.33c1.2145 0.32679 2.4781-0.19608 3.1018-1.2745 0.22976-0.37582 0.09847-0.84966-0.279-1.0784-0.37747-0.21241-0.8534-0.0817-1.0832 0.29411-0.26258 0.45752-0.80417 0.68626-1.3293 0.55555-0.50876-0.14706-0.86981-0.60457-0.86981-1.1438v-5.5554c0-0.52287 0.36106-0.99671 0.86981-1.1274 0.52517-0.14705 1.0668 0.0817 1.3293 0.53921 0.22976 0.37581 0.7057 0.50652 1.0832 0.29411 0.37747-0.22876 0.50876-0.7026 0.279-1.0784-0.62364-1.0784-1.8873-1.6013-3.1018-1.2745-1.198 0.31046-2.035 1.4052-2.035 2.647v5.5554c0 1.2418 0.83699 2.3366 2.035 2.647z"/>
     <path d="m45.944 273.17v3.7908h-2.3633v-3.7908c0-0.42483-0.34464-0.78429-0.78776-0.78429-0.4267 0-0.78776 0.35946-0.78776 0.78429v9.4769c0 0.44117 0.36106 0.7843 0.78776 0.7843 0.44311 0 0.78776-0.34313 0.78776-0.7843v-4.1176h2.3633v4.1176c0 0.44117 0.36106 0.7843 0.78776 0.7843 0.44311 0 0.78776-0.34313 0.78776-0.7843v-9.4769c0-0.42483-0.34464-0.78429-0.78776-0.78429-0.4267 0-0.78776 0.35946-0.78776 0.78429z"/>
     <path d="m49.578 281.14h2.4946v1.5032c0 0.44117 0.34464 0.7843 0.78776 0.7843 0.4267 0 0.78776-0.34313 0.78776-0.7843v-1.5032h0.52517c0.4267 0 0.78776-0.34313 0.78776-0.7843 0-0.42483-0.36105-0.78429-0.78776-0.78429h-0.52517v-1.5032c0-0.42483-0.36106-0.7843-0.78776-0.7843-0.44311 0-0.78776 0.35947-0.78776 0.7843v1.5032h-1.4114c0.47594-1.5032 1.9694-6.16 1.9694-6.16 0.01642-0.0817 0.03282-0.1634 0.03282-0.2451 0-0.32679-0.21335-0.63724-0.54158-0.75162-0.4267-0.13071-0.86981 0.0981-1.0011 0.50653l-2.2976 7.1894c-0.06564 0.24509-0.03282 0.50652 0.11488 0.7026 0.1477 0.21241 0.39388 0.32679 0.64005 0.32679z"/>
    </g>
    <g stroke-width="0">
     <path d="m41.531 440.47v7.4805h7.7012v-6.1484h-5.1738v-1.2812l-2.5273-0.0508zm2.5273 3.1426h2.7324v0.93945h-0.41016v-0.66601h-0.66602v0.7168h-0.13672l-1.127-0.76758v0.73242h-0.39258zm2.2871 1.5527h0.46094v0.88867h-2.7656v-0.85352h0.41016v0.7168l1.1445-0.73438h0.16992v0.6836h0.58008z"/>
     <path d="m53.262 443.63h-3.0736v-1.8271h6.2497v1.571l-1.5197 1.5368 1.5197 1.5368-0.03414 1.5368h-6.2156v-1.9296h2.9883l-1.1612-1.1441z"/>
     <path d="m57.377 447.97h2.1857v-1.7759h0.95625l1.3148-1.2807-1.2978-1.2978h3.1078v-1.81h-6.2497v1.5539l1.4685 1.5027h-1.4856z"/>
     <path d="m66.086 441.79-3.0059 2.6309v3.5684l2.1699-0.0176v-0.93946h1.9453v0.95704h2.1348v-6.1992h-3.2441zm1.041 1.8281v1.5195h-1.8086z"/>
     <path d="m70.252 441.8h6.2668v2.5443h-2.1857v-0.71718h-1.9125v2.4248h4.0982v1.9466h-6.2668z"/>
     <path d="m79.488 441.81v0.50977l-2.082 0.01v5.0898h2.0664v0.5625h2.1172v-0.5625h2.0938v-5.0996h-2.0859v-0.50977h-2.1094zm0.10352 2.1074h1.9004v1.8672h-1.9004z"/>
    </g>
    <g>
     <path d="m19.596 248.09c0.76244 0.44023 1.0237 1.4153 0.58352 2.1778-0.44027 0.76251-1.4154 1.0238-2.1778 0.58352-0.76254-0.4402-1.0238-1.4152-0.58352-2.1777 0.44016-0.76248 1.4153-1.0238 2.1778-0.58354" enable-background="new"/>
     <path d="m71.254 248.09c0.76243 0.44023 1.0237 1.4153 0.58352 2.1778-0.44027 0.76251-1.4154 1.0238-2.1778 0.58352-0.76254-0.4402-1.0238-1.4152-0.58352-2.1777 0.44016-0.76248 1.4153-1.0238 2.1778-0.58354" enable-background="new"/>
     <path d="m20.092 254.62c0.8503 0.22787 1.355 1.102 1.1272 1.9523-0.22791 0.85039-1.1021 1.3551-1.9524 1.1272-0.85043-0.22784-1.3551-1.102-1.1272-1.9523 0.2278-0.85035 1.1019-1.3551 1.9524-1.1272" enable-background="new"/>
     <path d="m69.99 241.25c0.8503 0.22788 1.355 1.102 1.1272 1.9523-0.22791 0.85041-1.1021 1.3551-1.9524 1.1272-0.85043-0.22785-1.3551-1.102-1.1272-1.9524 0.22778-0.85034 1.1019-1.355 1.9524-1.1272" enable-background="new"/>
     <path d="m22.259 260.79c0.88053 5e-5 1.5944 0.71394 1.5945 1.5945-4.3e-5 0.88062-0.71396 1.5946-1.5945 1.5945-0.88062 3e-5 -1.5945-0.71386-1.5945-1.5945-4.3e-5 -0.88054 0.71388-1.5945 1.5945-1.5945" enable-background="new"/>
     <path d="m66.997 234.96c0.88053 4e-5 1.5944 0.71393 1.5945 1.5945-4.3e-5 0.88061-0.71396 1.5946-1.5945 1.5945-0.88062 3e-5 -1.5945-0.71386-1.5945-1.5945-2.8e-5 -0.88054 0.71389-1.5945 1.5945-1.5945" enable-background="new"/>
     <path d="m25.951 266.2c0.85032-0.2278 1.7245 0.27688 1.9523 1.1272 0.22783 0.85041-0.27688 1.7246-1.1272 1.9524-0.8504 0.2279-1.7245-0.27676-1.9523-1.1272-0.2279-0.85031 0.2768-1.7245 1.1272-1.9524" enable-background="new"/>
     <path d="m62.479 229.67c0.85033-0.2278 1.7245 0.27686 1.9523 1.1272 0.22783 0.85041-0.27688 1.7246-1.1272 1.9524-0.8504 0.22791-1.7245-0.27678-1.9523-1.1272-0.2279-0.8503 0.2768-1.7245 1.1272-1.9524" enable-background="new"/>
     <path d="m30.916 270.46c0.76246-0.44017 1.7375-0.17891 2.1778 0.58352 0.44022 0.76252 0.17894 1.7376-0.58354 2.1778-0.76251 0.44027-1.7375 0.17901-2.1777-0.58353-0.44024-0.76242-0.17898-1.7375 0.58352-2.1778" enable-background="new"/>
     <path d="m56.746 225.72c0.76246-0.44017 1.7375-0.17891 2.1778 0.58353 0.44022 0.76252 0.17894 1.7376-0.58354 2.1778-0.76251 0.44027-1.7375 0.17901-2.1777-0.58352-0.44024-0.76242-0.17898-1.7375 0.58352-2.1778" enable-background="new"/>
     <path d="m50.186 223.39c0.62268-0.62261 1.6323-0.62262 2.255 0 0.62267 0.62272 0.62267 1.6324 0 2.255-0.62268 0.62271-1.6323 0.62271-2.255 0-0.62267-0.6226-0.62267-1.6323 0-2.255" enable-background="new"/>
     <path d="m43.247 222.84c0.44024-0.76244 1.4153-1.0237 2.1778-0.58353 0.76251 0.44027 1.0238 1.4154 0.58354 2.1778-0.4402 0.76254-1.4153 1.0238-2.1778 0.58353-0.76246-0.44016-1.0237-1.4152-0.58354-2.1778" enable-background="new"/>
     <path d="m36.403 224.11c0.22788-0.8503 1.102-1.355 1.9523-1.1272 0.85041 0.22792 1.3551 1.1021 1.1272 1.9524-0.22784 0.85043-1.102 1.3551-1.9523 1.1272-0.85034-0.22778-1.355-1.1019-1.1272-1.9524" enable-background="new"/>
     <path d="m55.948 271.84c4.3e-5 -0.88053 0.71393-1.5944 1.5945-1.5945 0.88062 4e-5 1.5946 0.71396 1.5945 1.5945 2.9e-5 0.88062-0.71386 1.5945-1.5945 1.5945-0.88054 4e-5 -1.5945-0.71388-1.5945-1.5945" enable-background="new"/>
     <path d="m30.119 227.1c4.3e-5 -0.88054 0.71393-1.5944 1.5945-1.5945 0.88062 4e-5 1.5946 0.71396 1.5945 1.5945 2.9e-5 0.88062-0.71386 1.5945-1.5945 1.5945-0.88055 3e-5 -1.5945-0.71389-1.5945-1.5945" enable-background="new"/>
     <path d="m61.352 268.15c-0.2278-0.85032 0.27687-1.7244 1.1272-1.9523 0.85041-0.22783 1.7246 0.27688 1.9524 1.1272 0.2279 0.85039-0.27676 1.7245-1.1272 1.9523-0.85031 0.2279-1.7245-0.27681-1.9524-1.1272" enable-background="new"/>
     <path d="m24.824 231.62c-0.2278-0.85032 0.27686-1.7244 1.1272-1.9523 0.85041-0.22783 1.7246 0.27688 1.9524 1.1272 0.22791 0.85039-0.27677 1.7245-1.1272 1.9523-0.8503 0.2279-1.7245-0.27681-1.9524-1.1272" enable-background="new"/>
     <path d="m65.616 263.18c-0.44017-0.76246-0.17891-1.7375 0.58352-2.1778 0.76252-0.44021 1.7376-0.17893 2.1778 0.58354 0.44027 0.76251 0.17901 1.7376-0.58352 2.1778-0.76242 0.44024-1.7375 0.17898-2.1778-0.58353" enable-background="new"/>
     <path d="m20.879 237.35c-0.44017-0.76247-0.17891-1.7375 0.58352-2.1778 0.76252-0.44022 1.7376-0.17894 2.1778 0.58354 0.44027 0.7625 0.17901 1.7375-0.58352 2.1777-0.76242 0.44025-1.7375 0.17898-2.1778-0.58352" enable-background="new"/>
     <path d="m68.45 257.28c-0.62261-0.62269-0.62263-1.6323 0-2.255 0.62271-0.62267 1.6324-0.62267 2.255 0 0.62271 0.62268 0.62271 1.6323 0 2.255-0.6226 0.62267-1.6323 0.62267-2.255 0" enable-background="new"/>
     <path d="m18.551 243.91c-0.62261-0.62268-0.62263-1.6323 0-2.255 0.62271-0.62267 1.6324-0.62267 2.255 0 0.62271 0.62268 0.62271 1.6323 0 2.255-0.6226 0.62267-1.6323 0.62267-2.255 0" enable-background="new"/>
     <path d="m19.596 184.91c0.76244 0.44023 1.0237 1.4153 0.58352 2.1778-0.44027 0.76251-1.4154 1.0238-2.1778 0.58352-0.76254-0.4402-1.0238-1.4152-0.58352-2.1777 0.44016-0.76248 1.4153-1.0238 2.1778-0.58354" enable-background="new"/>
     <path d="m71.254 184.91c0.76243 0.44023 1.0237 1.4153 0.58352 2.1778-0.44027 0.76251-1.4154 1.0238-2.1778 0.58352-0.76254-0.4402-1.0238-1.4152-0.58352-2.1777 0.44016-0.76248 1.4153-1.0238 2.1778-0.58354" enable-background="new"/>
     <path d="m20.092 191.44c0.8503 0.22787 1.355 1.102 1.1272 1.9523-0.22791 0.85039-1.1021 1.3551-1.9524 1.1272-0.85043-0.22784-1.3551-1.102-1.1272-1.9523 0.2278-0.85035 1.1019-1.3551 1.9524-1.1272" enable-background="new"/>
     <path d="m69.99 178.07c0.8503 0.22788 1.355 1.102 1.1272 1.9523-0.22791 0.85041-1.1021 1.3551-1.9524 1.1272-0.85043-0.22785-1.3551-1.102-1.1272-1.9524 0.22778-0.85034 1.1019-1.355 1.9524-1.1272" enable-background="new"/>
     <path d="m22.259 197.61c0.88053 5e-5 1.5944 0.71394 1.5945 1.5945-4.3e-5 0.88062-0.71396 1.5946-1.5945 1.5945-0.88062 3e-5 -1.5945-0.71386-1.5945-1.5945-4.3e-5 -0.88054 0.71388-1.5945 1.5945-1.5945" enable-background="new"/>
     <path d="m66.997 171.78c0.88053 4e-5 1.5944 0.71393 1.5945 1.5945-4.3e-5 0.88061-0.71396 1.5946-1.5945 1.5945-0.88062 3e-5 -1.5945-0.71386-1.5945-1.5945-2.8e-5 -0.88054 0.71389-1.5945 1.5945-1.5945" enable-background="new"/>
     <path d="m25.951 203.02c0.85032-0.2278 1.7245 0.27688 1.9523 1.1272 0.22783 0.85041-0.27688 1.7246-1.1272 1.9524-0.8504 0.2279-1.7245-0.27676-1.9523-1.1272-0.2279-0.85031 0.2768-1.7245 1.1272-1.9524" enable-background="new"/>
     <path d="m62.479 166.49c0.85033-0.2278 1.7245 0.27686 1.9523 1.1272 0.22783 0.85041-0.27688 1.7246-1.1272 1.9524-0.8504 0.22791-1.7245-0.27678-1.9523-1.1272-0.2279-0.8503 0.2768-1.7245 1.1272-1.9524" enable-background="new"/>
     <path d="m30.916 207.28c0.76246-0.44017 1.7375-0.17891 2.1778 0.58352 0.44022 0.76252 0.17894 1.7376-0.58354 2.1778-0.76251 0.44027-1.7375 0.17901-2.1777-0.58353-0.44024-0.76242-0.17898-1.7375 0.58352-2.1778" enable-background="new"/>
     <path d="m56.746 162.54c0.76246-0.44017 1.7375-0.17891 2.1778 0.58353 0.44022 0.76252 0.17894 1.7376-0.58354 2.1778-0.76251 0.44027-1.7375 0.17901-2.1777-0.58352-0.44024-0.76242-0.17898-1.7375 0.58352-2.1778" enable-background="new"/>
     <path d="m50.186 160.22c0.62268-0.62261 1.6323-0.62262 2.255 0 0.62267 0.62272 0.62267 1.6324 0 2.255-0.62268 0.62271-1.6323 0.62271-2.255 0-0.62267-0.6226-0.62267-1.6323 0-2.255" enable-background="new"/>
     <path d="m43.247 159.67c0.44024-0.76244 1.4153-1.0237 2.1778-0.58353 0.76251 0.44027 1.0238 1.4154 0.58354 2.1778-0.4402 0.76254-1.4153 1.0238-2.1778 0.58353-0.76246-0.44016-1.0237-1.4152-0.58354-2.1778" enable-background="new"/>
     <path d="m36.403 160.93c0.22788-0.8503 1.102-1.355 1.9523-1.1272 0.85041 0.22792 1.3551 1.1021 1.1272 1.9524-0.22784 0.85043-1.102 1.3551-1.9523 1.1272-0.85034-0.22778-1.355-1.1019-1.1272-1.9524" enable-background="new"/>
     <path d="m55.948 208.66c4.3e-5 -0.88053 0.71393-1.5944 1.5945-1.5945 0.88062 4e-5 1.5946 0.71396 1.5945 1.5945 2.9e-5 0.88062-0.71386 1.5945-1.5945 1.5945-0.88054 4e-5 -1.5945-0.71388-1.5945-1.5945" enable-background="new"/>
     <path d="m30.119 163.92c4.3e-5 -0.88054 0.71393-1.5944 1.5945-1.5945 0.88062 4e-5 1.5946 0.71396 1.5945 1.5945 2.9e-5 0.88062-0.71386 1.5945-1.5945 1.5945-0.88055 3e-5 -1.5945-0.71389-1.5945-1.5945" enable-background="new"/>
     <path d="m61.352 204.97c-0.2278-0.85032 0.27687-1.7244 1.1272-1.9523 0.85041-0.22783 1.7246 0.27688 1.9524 1.1272 0.2279 0.85039-0.27676 1.7245-1.1272 1.9523-0.85031 0.2279-1.7245-0.27681-1.9524-1.1272" enable-background="new"/>
     <path d="m24.824 168.44c-0.2278-0.85032 0.27686-1.7244 1.1272-1.9523 0.85041-0.22783 1.7246 0.27688 1.9524 1.1272 0.22791 0.85039-0.27677 1.7245-1.1272 1.9523-0.8503 0.2279-1.7245-0.27681-1.9524-1.1272" enable-background="new"/>
     <path d="m65.616 200c-0.44017-0.76246-0.17891-1.7375 0.58352-2.1778 0.76252-0.44021 1.7376-0.17893 2.1778 0.58354 0.44027 0.76251 0.17901 1.7376-0.58352 2.1778-0.76242 0.44024-1.7375 0.17898-2.1778-0.58353" enable-background="new"/>
     <path d="m20.879 174.18c-0.44017-0.76247-0.17891-1.7375 0.58352-2.1778 0.76252-0.44022 1.7376-0.17894 2.1778 0.58354 0.44027 0.7625 0.17901 1.7375-0.58352 2.1777-0.76242 0.44025-1.7375 0.17898-2.1778-0.58352" enable-background="new"/>
     <path d="m68.45 194.11c-0.62261-0.62269-0.62263-1.6323 0-2.255 0.62271-0.62267 1.6324-0.62267 2.255 0 0.62271 0.62268 0.62271 1.6323 0 2.255-0.6226 0.62267-1.6323 0.62267-2.255 0" enable-background="new"/>
     <path d="m18.551 180.74c-0.62261-0.62268-0.62263-1.6323 0-2.255 0.62271-0.62267 1.6324-0.62267 2.255 0 0.62271 0.62268 0.62271 1.6323 0 2.255-0.6226 0.62267-1.6323 0.62267-2.255 0" enable-background="new"/>
     <path d="m19.596 121.7c0.76244 0.44023 1.0237 1.4153 0.58352 2.1778-0.44027 0.76251-1.4154 1.0238-2.1778 0.58352-0.76254-0.4402-1.0238-1.4152-0.58352-2.1777 0.44016-0.76248 1.4153-1.0238 2.1778-0.58354" enable-background="new"/>
     <path d="m71.254 121.7c0.76243 0.44023 1.0237 1.4153 0.58352 2.1778-0.44027 0.76251-1.4154 1.0238-2.1778 0.58352-0.76254-0.4402-1.0238-1.4152-0.58352-2.1777 0.44016-0.76248 1.4153-1.0238 2.1778-0.58354" enable-background="new"/>
     <path d="m20.092 128.23c0.8503 0.22787 1.355 1.102 1.1272 1.9523-0.22791 0.85039-1.1021 1.3551-1.9524 1.1272-0.85043-0.22784-1.3551-1.102-1.1272-1.9523 0.2278-0.85035 1.1019-1.3551 1.9524-1.1272" enable-background="new"/>
     <path d="m69.99 114.86c0.8503 0.22788 1.355 1.102 1.1272 1.9523-0.22791 0.85041-1.1021 1.3551-1.9524 1.1272-0.85043-0.22785-1.3551-1.102-1.1272-1.9524 0.22778-0.85034 1.1019-1.355 1.9524-1.1272" enable-background="new"/>
     <path d="m22.259 134.4c0.88053 5e-5 1.5944 0.71394 1.5945 1.5945-4.3e-5 0.88062-0.71396 1.5946-1.5945 1.5945-0.88062 3e-5 -1.5945-0.71386-1.5945-1.5945-4.3e-5 -0.88054 0.71388-1.5945 1.5945-1.5945" enable-background="new"/>
     <path d="m66.997 108.57c0.88053 4e-5 1.5944 0.71393 1.5945 1.5945-4.3e-5 0.88061-0.71396 1.5946-1.5945 1.5945-0.88062 3e-5 -1.5945-0.71386-1.5945-1.5945-2.8e-5 -0.88054 0.71389-1.5945 1.5945-1.5945" enable-background="new"/>
     <path d="m25.951 139.8c0.85032-0.2278 1.7245 0.27688 1.9523 1.1272 0.22783 0.85041-0.27688 1.7246-1.1272 1.9524-0.8504 0.2279-1.7245-0.27676-1.9523-1.1272-0.2279-0.85031 0.2768-1.7245 1.1272-1.9524" enable-background="new"/>
     <path d="m62.479 103.28c0.85033-0.2278 1.7245 0.27686 1.9523 1.1272 0.22783 0.85041-0.27688 1.7246-1.1272 1.9524-0.8504 0.22791-1.7245-0.27678-1.9523-1.1272-0.2279-0.8503 0.2768-1.7245 1.1272-1.9524" enable-background="new"/>
     <path d="m30.916 144.07c0.76246-0.44017 1.7375-0.17891 2.1778 0.58352 0.44022 0.76252 0.17894 1.7376-0.58354 2.1778-0.76251 0.44027-1.7375 0.17901-2.1777-0.58353-0.44024-0.76242-0.17898-1.7375 0.58352-2.1778" enable-background="new"/>
     <path d="m56.746 99.331c0.76246-0.44017 1.7375-0.17891 2.1778 0.58352 0.44022 0.76252 0.17894 1.7376-0.58354 2.1778-0.76251 0.44027-1.7375 0.17901-2.1777-0.58352-0.44024-0.76242-0.17898-1.7375 0.58352-2.1778" enable-background="new"/>
     <path d="m50.186 97.003c0.62268-0.62261 1.6323-0.62263 2.255 0 0.62267 0.62271 0.62267 1.6324 0 2.255-0.62268 0.62271-1.6323 0.62271-2.255 0-0.62267-0.6226-0.62267-1.6323 0-2.255" enable-background="new"/>
     <path d="m43.247 96.454c0.44024-0.76244 1.4153-1.0237 2.1778-0.58352 0.76251 0.44027 1.0238 1.4154 0.58354 2.1778-0.4402 0.76254-1.4153 1.0238-2.1778 0.58352-0.76246-0.44016-1.0237-1.4153-0.58354-2.1778" enable-background="new"/>
     <path d="m36.403 97.718c0.22788-0.8503 1.102-1.355 1.9523-1.1272 0.85041 0.22791 1.3551 1.1021 1.1272 1.9524-0.22784 0.85043-1.102 1.3551-1.9523 1.1272-0.85034-0.22778-1.355-1.1019-1.1272-1.9524" enable-background="new"/>
     <path d="m55.948 145.45c4.3e-5 -0.88053 0.71393-1.5944 1.5945-1.5945 0.88062 4e-5 1.5946 0.71396 1.5945 1.5945 2.9e-5 0.88062-0.71386 1.5945-1.5945 1.5945-0.88054 4e-5 -1.5945-0.71388-1.5945-1.5945" enable-background="new"/>
     <path d="m30.119 100.71c4.3e-5 -0.88054 0.71393-1.5944 1.5945-1.5945 0.88062 4.3e-5 1.5946 0.71396 1.5945 1.5945 2.9e-5 0.88062-0.71386 1.5945-1.5945 1.5945-0.88055 3e-5 -1.5945-0.71389-1.5945-1.5945" enable-background="new"/>
     <path d="m61.352 141.76c-0.2278-0.85032 0.27687-1.7244 1.1272-1.9523 0.85041-0.22783 1.7246 0.27688 1.9524 1.1272 0.2279 0.85039-0.27676 1.7245-1.1272 1.9523-0.85031 0.2279-1.7245-0.27681-1.9524-1.1272" enable-background="new"/>
     <path d="m24.824 105.23c-0.2278-0.85032 0.27686-1.7244 1.1272-1.9523 0.85041-0.22783 1.7246 0.27688 1.9524 1.1272 0.22791 0.85039-0.27677 1.7245-1.1272 1.9523-0.8503 0.2279-1.7245-0.27681-1.9524-1.1272" enable-background="new"/>
     <path d="m65.616 136.79c-0.44017-0.76246-0.17891-1.7375 0.58352-2.1778 0.76252-0.44021 1.7376-0.17893 2.1778 0.58354 0.44027 0.76251 0.17901 1.7376-0.58352 2.1778-0.76242 0.44024-1.7375 0.17898-2.1778-0.58353" enable-background="new"/>
     <path d="m20.879 110.96c-0.44017-0.76247-0.17891-1.7375 0.58352-2.1778 0.76252-0.44022 1.7376-0.17894 2.1778 0.58354 0.44027 0.7625 0.17901 1.7375-0.58352 2.1777-0.76242 0.44025-1.7375 0.17898-2.1778-0.58352" enable-background="new"/>
     <path d="m68.45 130.89c-0.62261-0.62269-0.62263-1.6323 0-2.255 0.62271-0.62267 1.6324-0.62267 2.255 0 0.62271 0.62268 0.62271 1.6323 0 2.255-0.6226 0.62267-1.6323 0.62267-2.255 0" enable-background="new"/>
     <path d="m18.551 117.52c-0.62261-0.62268-0.62263-1.6323 0-2.255 0.62271-0.62267 1.6324-0.62267 2.255 0 0.62271 0.62268 0.62271 1.6323 0 2.255-0.6226 0.62267-1.6323 0.62267-2.255 0" enable-background="new"/>
     <path d="m19.596 58.487c0.76244 0.44023 1.0237 1.4153 0.58352 2.1778-0.44027 0.76251-1.4154 1.0238-2.1778 0.58352-0.76254-0.4402-1.0238-1.4153-0.58352-2.1777 0.44016-0.76248 1.4153-1.0238 2.1778-0.58354" enable-background="new"/>
     <path d="m71.254 58.487c0.76243 0.44023 1.0237 1.4153 0.58352 2.1778-0.44027 0.76251-1.4154 1.0238-2.1778 0.58352-0.76254-0.4402-1.0238-1.4153-0.58352-2.1777 0.44016-0.76248 1.4153-1.0238 2.1778-0.58354" enable-background="new"/>
     <path d="m20.092 65.013c0.8503 0.22787 1.355 1.102 1.1272 1.9523-0.22791 0.8504-1.1021 1.3551-1.9524 1.1272-0.85043-0.22784-1.3551-1.102-1.1272-1.9523 0.2278-0.85035 1.1019-1.3551 1.9524-1.1272" enable-background="new"/>
     <path d="m69.99 51.642c0.8503 0.22788 1.355 1.102 1.1272 1.9523-0.22791 0.85041-1.1021 1.3551-1.9524 1.1272-0.85043-0.22784-1.3551-1.102-1.1272-1.9523 0.22778-0.85034 1.1019-1.355 1.9524-1.1272" enable-background="new"/>
     <path d="m22.259 71.187c0.88053 4.3e-5 1.5944 0.71393 1.5945 1.5945-4.3e-5 0.88062-0.71396 1.5946-1.5945 1.5945-0.88062 2.9e-5 -1.5945-0.71386-1.5945-1.5945-4.3e-5 -0.88054 0.71388-1.5945 1.5945-1.5945" enable-background="new"/>
     <path d="m66.997 45.358c0.88053 4.4e-5 1.5944 0.71393 1.5945 1.5945-4.3e-5 0.88062-0.71396 1.5946-1.5945 1.5945-0.88062 2.8e-5 -1.5945-0.71386-1.5945-1.5945-2.8e-5 -0.88055 0.71389-1.5945 1.5945-1.5945" enable-background="new"/>
     <path d="m25.951 76.591c0.85032-0.2278 1.7245 0.27688 1.9523 1.1272 0.22783 0.85041-0.27688 1.7246-1.1272 1.9524-0.8504 0.2279-1.7245-0.27676-1.9523-1.1272-0.2279-0.85031 0.2768-1.7245 1.1272-1.9524" enable-background="new"/>
     <path d="m62.479 40.063c0.85033-0.2278 1.7245 0.27686 1.9523 1.1272 0.22783 0.85041-0.27688 1.7246-1.1272 1.9524-0.8504 0.22791-1.7245-0.27677-1.9523-1.1272-0.2279-0.8503 0.2768-1.7245 1.1272-1.9524" enable-background="new"/>
     <path d="m30.916 80.855c0.76246-0.44017 1.7375-0.17891 2.1778 0.58352 0.44022 0.76252 0.17894 1.7376-0.58354 2.1778-0.76251 0.44027-1.7375 0.17901-2.1777-0.58352-0.44024-0.76242-0.17898-1.7375 0.58352-2.1778" enable-background="new"/>
     <path d="m56.746 36.118c0.76246-0.44017 1.7375-0.17891 2.1778 0.58352 0.44022 0.76252 0.17894 1.7376-0.58354 2.1778-0.76251 0.44027-1.7375 0.17901-2.1777-0.58352-0.44024-0.76242-0.17898-1.7375 0.58352-2.1778" enable-background="new"/>
     <path d="m50.186 33.791c0.62268-0.62261 1.6323-0.62263 2.255 0 0.62267 0.62271 0.62267 1.6324 0 2.255-0.62268 0.62271-1.6323 0.62271-2.255 0-0.62267-0.6226-0.62267-1.6323 0-2.255" enable-background="new"/>
     <path d="m43.247 33.241c0.44024-0.76244 1.4153-1.0237 2.1778-0.58352 0.76251 0.44027 1.0238 1.4154 0.58354 2.1778-0.4402 0.76254-1.4153 1.0238-2.1778 0.58352-0.76246-0.44016-1.0237-1.4153-0.58354-2.1778" enable-background="new"/>
     <path d="m36.403 34.505c0.22788-0.8503 1.102-1.355 1.9523-1.1272 0.85041 0.22791 1.3551 1.1021 1.1272 1.9524-0.22784 0.85043-1.102 1.3551-1.9523 1.1272-0.85034-0.22778-1.355-1.1019-1.1272-1.9524" enable-background="new"/>
     <path d="m55.948 82.236c4.3e-5 -0.88053 0.71393-1.5944 1.5945-1.5945 0.88062 4.4e-5 1.5946 0.71396 1.5945 1.5945 2.9e-5 0.88062-0.71386 1.5945-1.5945 1.5945-0.88054 4.3e-5 -1.5945-0.71388-1.5945-1.5945" enable-background="new"/>
     <path d="m30.119 37.498c4.3e-5 -0.88053 0.71393-1.5944 1.5945-1.5945 0.88062 4.3e-5 1.5946 0.71396 1.5945 1.5945 2.9e-5 0.88062-0.71386 1.5945-1.5945 1.5945-0.88055 2.8e-5 -1.5945-0.71389-1.5945-1.5945" enable-background="new"/>
     <path d="m61.352 78.544c-0.2278-0.85032 0.27687-1.7245 1.1272-1.9523 0.85041-0.22783 1.7246 0.27688 1.9524 1.1272 0.2279 0.8504-0.27676 1.7245-1.1272 1.9523-0.85031 0.2279-1.7245-0.2768-1.9524-1.1272" enable-background="new"/>
     <path d="m24.824 42.016c-0.2278-0.85032 0.27686-1.7245 1.1272-1.9523 0.85041-0.22783 1.7246 0.27688 1.9524 1.1272 0.22791 0.8504-0.27677 1.7245-1.1272 1.9523-0.8503 0.2279-1.7245-0.2768-1.9524-1.1272" enable-background="new"/>
     <path d="m65.616 73.579c-0.44017-0.76246-0.17891-1.7375 0.58352-2.1778 0.76252-0.44022 1.7376-0.17894 2.1778 0.58354 0.44027 0.76251 0.17901 1.7375-0.58352 2.1777-0.76242 0.44024-1.7375 0.17898-2.1778-0.58352" enable-background="new"/>
     <path d="m20.879 47.75c-0.44017-0.76246-0.17891-1.7375 0.58352-2.1778 0.76252-0.44022 1.7376-0.17894 2.1778 0.58354 0.44027 0.76251 0.17901 1.7375-0.58352 2.1777-0.76242 0.44024-1.7375 0.17898-2.1778-0.58352" enable-background="new"/>
     <path d="m68.45 67.68c-0.62261-0.62268-0.62263-1.6323 0-2.255 0.62271-0.62267 1.6324-0.62267 2.255 0 0.62271 0.62268 0.62271 1.6323 0 2.255-0.6226 0.62267-1.6323 0.62267-2.255 0" enable-background="new"/>
     <path d="m18.551 54.31c-0.62261-0.62268-0.62263-1.6323 0-2.255 0.62271-0.62267 1.6324-0.62267 2.255 0 0.62271 0.62268 0.62271 1.6323 0 2.255-0.6226 0.62267-1.6323 0.62267-2.255 0" enable-background="new"/>
    </g>
   </g>
  </g>
 </g>
</svg>
