<?xml version="1.0" encoding="UTF-8"?>
<svg width="60.96mm" height="128.5mm" version="1.1" viewBox="0 0 60.96 128.5" xmlns="http://www.w3.org/2000/svg" xmlns:cc="http://creativecommons.org/ns#" xmlns:dc="http://purl.org/dc/elements/1.1/" xmlns:rdf="http://www.w3.org/1999/02/22-rdf-syntax-ns#" xmlns:xlink="http://www.w3.org/1999/xlink">
 <defs>
  <linearGradient id="linearGradient67269" x1="44.487" x2="61.383" y1="73.831" y2="73.831" gradientTransform="matrix(.32393 0 0 .23827 -1.6955 -165.18)" gradientUnits="userSpaceOnUse" xlink:href="#linearGradient15150"/>
  <linearGradient id="linearGradient15150">
   <stop offset="0"/>
   <stop stop-opacity="0" offset="1"/>
  </linearGradient>
  <linearGradient id="linearGradient15156" x1="44.487" x2="61.383" y1="73.831" y2="73.831" gradientTransform="matrix(.32393 0 0 .23827 -2.2886 -165.18)" gradientUnits="userSpaceOnUse" xlink:href="#linearGradient15150"/>
 </defs>
 <metadata>
  <rdf:RDF>
   <cc:Work rdf:about="">
    <dc:format>image/svg+xml</dc:format>
    <dc:type rdf:resource="http://purl.org/dc/dcmitype/StillImage"/>
   </cc:Work>
  </rdf:RDF>
 </metadata>
 <g>
  <g transform="matrix(.21167 0 0 .21167 147.54 150.29)" fill="#fff">
   <path d="m184.98 357.67v-1.4336c0-2.3808-1.92-4.3008-4.3008-4.3008h-3.072c-0.6656 0-1.2288 0.5632-1.2288 1.2288v14.746c0 0.6912 0.5632 1.2288 1.2288 1.2288 0.6912 0 1.2288-0.5376 1.2288-1.2288v-5.9392h1.3824l2.3808 6.3744c0.256 0.64 0.9472 0.9472 1.5872 0.7168s0.9728-0.9472 0.7168-1.5872l-2.2272-5.9904c1.3824-0.7168 2.304-2.1504 2.304-3.8144m-6.144-3.2768h1.8432c1.024 0 1.8432 0.8192 1.8432 1.8432v1.4336c0 1.024-0.8192 1.8432-1.8432 1.8432h-1.8432v-5.12" fill="#fff"/>
  </g>
  <path d="m185.78 231.74v3.0236" fill="#fff" stroke="#fff" stroke-width=".28222px"/>
  <g transform="matrix(.33119 0 0 .26458 -.00040834 .1002)" stroke-width="1.0012">
   <path d="m0.37852 8.4511e-4v484.91h183.31v-484.91z" fill="#171717" stroke="#000" stroke-linejoin="round" stroke-width=".75682"/>
  </g>
  <path d="m25.191 14.355v-5.5806c0.08544-0.96796 0.48742-1.7098 1.8007-1.8007h26.429" fill="none" stroke="#fff" stroke-width=".365"/>
  <g transform="matrix(.22494 0 0 .22494 -29.548 5.4797)">
   <g transform="matrix(.10651 0 0 .10651 218.82 498.27)" fill="#fff">
    <g fill="#fff">
     <polygon transform="scale(1.0667)" points="606.32 328.3 571.69 328.3 571.69 305.22 571.69 289.29 606.32 289.29 606.32 298.07 640.94 298.07 640.94 259.06 537.07 259.06 537.07 362.93 640.94 362.93 640.94 328.3"/>
     <g stroke-width="1.0667">
      <path d="m443.54 321.06v66.065h36.864v-32.247h36.933v32.247h37.001v-110.8h-66.067zm73.82 10.667-36.979-2e-3 36.979-33.687z"/>
      <path d="m111.1 276.33v-18.732h-36.979l0.1664 129.53h110.8v-110.8zm55.038 60.337h-18.485v16.068h-10.009v-16.068h-3.5157l-23.199 16.068v-16.068h-18.177v-9.3643h18.177v-16.067l23.198 16.067h3.5168v-16.067h10.009v16.067h18.485z"/>
      <path d="m702.14 276.33v110.8h110.8v-110.8zm73.731 73.865h-36.932v-36.931h36.932z"/>
     </g>
     <polygon transform="scale(1.0667)" points="254.39 332.7 190.82 332.7 190.82 362.93 294.7 362.93 294.7 332.7 272.37 311.11 294.7 289.29 294.7 259.06 190.82 259.06 190.82 289.29 253.52 289.29 231.13 310.99"/>
     <polygon transform="scale(1.0667)" points="355.54 332.56 375.97 311.11 355.54 289.27 405.68 289.41 436.56 259.18 312.34 259.18 312.34 289.41 333.84 311.11 312.34 332.86 312.34 363.05 355.54 363.29"/>
    </g>
   </g>
  </g>
  <g>
   <rect x="20.327" y="95.3" width="9.7012" height="12.185" rx="1.4095" ry="1.4997" fill="#fff" stroke="#100" stroke-linecap="round" stroke-width=".061082"/>
   <g transform="scale(1 .99996)" enable-background="new" aria-label="1">
    <path d="m28.451 105.15q-0.04931 0.0493-0.11976 0.0493-0.07045 0-0.11976-0.0493-0.04931-0.0493-0.04931-0.11976 0-0.0705 0.04931-0.11977l0.4227-0.4227q0.08102-0.081 0.18317-0.0352 0.04931 0.0176 0.07749 0.0634 0.02818 0.0423 0.02818 0.0916v2.043q0 0.0704-0.04931 0.11977-0.04931 0.0493-0.11976 0.0493-0.07045 0-0.11976-0.0493-0.04931-0.0493-0.04931-0.11977v-1.6344q-0.02466 0.0211-0.04931 0.0458-0.02114 0.0247-0.03875 0.0423-0.02113 0.0247-0.04579 0.0458z" stroke-width=".26458"/>
   </g>
   <rect x="30.326" y="95.3" width="9.7012" height="12.185" rx="1.4095" ry="1.4997" fill="#fff" stroke="#100" stroke-linecap="round" stroke-width=".061082"/>
   <g transform="scale(1 .99995)" enable-background="new" aria-label="2">
    <path d="m38.27 105.03q-0.06109-0.0395-0.08265-0.10781-0.01797-0.0683 0.01797-0.12938 0.12219-0.21202 0.36296-0.2803 0.115-0.0323 0.23-0.018 0.11859 0.0144 0.22281 0.0719 0.21562 0.115 0.2875 0.35578 0.03234 0.115 0.02156 0.23359-0.01078 0.115-0.06469 0.21921-0.12578 0.24078-0.24437 0.46359-0.05031 0.097-0.10422 0.19765-0.05031 0.10063-0.10422 0.19766-0.05031 0.0934-0.09703 0.17968-0.04312 0.0827-0.07547 0.14734h0.52109q0.07187 0 0.12219 0.0503 0.05031 0.0503 0.05031 0.12218 0 0.0719-0.05031 0.12219-0.05031 0.0503-0.12219 0.0503h-0.80499q-0.09344 0-0.14734-0.0827-0.04672-0.0791-0.0072-0.1689l0.75827-1.4375q0.04672-0.097 0.01797-0.19765-0.03234-0.10063-0.12219-0.15094-0.09344-0.0503-0.19765-0.0216-0.09703 0.0287-0.15453 0.11859-0.03594 0.0611-0.10422 0.0827-0.06828 0.018-0.12937-0.018z" stroke-width=".26458"/>
   </g>
   <rect x="40.326" y="95.3" width="9.7012" height="12.185" rx="1.4095" ry="1.4997" fill="#fff" stroke="#100" stroke-linecap="round" stroke-width=".061082"/>
   <g transform="scale(1 .99995)" enable-background="new" aria-label="3">
    <path d="m48.748 106.57q0.08265-0.0251 0.13656-0.0934t0.05391-0.15813v-0.21562q0-0.10781-0.07547-0.18328-0.07547-0.0755-0.18328-0.0755-0.07187 0-0.12219-0.0503-0.05031-0.0503-0.05031-0.12218 0-0.0719 0.05031-0.12219 0.05031-0.0503 0.12219-0.0503 0.10781 0 0.18328-0.0755 0.07547-0.0755 0.07547-0.18328v-0.14375q0-0.0862-0.05391-0.15452-0.05391-0.0719-0.13656-0.0934-0.08625-0.0252-0.1689 0.0108-0.07906 0.0323-0.12219 0.10781-0.03953 0.0611-0.10781 0.0827-0.06828 0.018-0.12937-0.018-0.06109-0.0395-0.08265-0.10781-0.01797-0.0683 0.01797-0.12938 0.05031-0.0898 0.12578-0.15453 0.07547-0.0647 0.16531-0.10062 0.08984-0.0395 0.19047-0.0431 0.10062-7e-3 0.19765 0.018 0.10062 0.0252 0.18328 0.0827 0.08266 0.0539 0.14016 0.13297 0.06109 0.0755 0.09344 0.17249 0.03234 0.0934 0.03234 0.19406v0.14375q0 0.12578-0.05031 0.23719-0.04672 0.1114-0.13297 0.19406 0.08625 0.0827 0.13297 0.19406 0.05031 0.1114 0.05031 0.23718v0.21562q0 0.10422-0.03234 0.19766-0.03234 0.0934-0.09344 0.17249-0.0575 0.0755-0.14016 0.13297-0.08265 0.0539-0.18328 0.0791-0.09703 0.0288-0.19765 0.0216-0.10062-7e-3 -0.19047-0.0467-0.08984-0.0359-0.16531-0.10063-0.07547-0.0647-0.12578-0.15453-0.03594-0.0611-0.01797-0.12937 0.02156-0.0683 0.08265-0.10781 0.06109-0.0359 0.12937-0.0144 0.06828 0.018 0.10781 0.0791 0.04313 0.0755 0.12219 0.1114 0.08266 0.0323 0.1689 0.0108z" stroke-width=".26458"/>
   </g>
   <rect x="50.326" y="95.3" width="9.7012" height="12.185" rx="1.4095" ry="1.4997" fill="#fff" stroke="#100" stroke-linecap="round" stroke-width=".061082"/>
   <g transform="scale(1 .99995)" enable-background="new" aria-label="4">
    <path d="m58.291 106.44q-0.08984 0-0.14015-0.0719-0.05031-0.0647-0.02516-0.15453l0.50312-1.5812q0.02156-0.0683 0.08266-0.10062 0.06469-0.0323 0.13656-0.0108 0.05391 0.018 0.08625 0.0647t0.03234 0.10062q0 0.018-0.0072 0.0539-0.09344 0.29109-0.17609 0.55343-0.03594 0.11141-0.07187 0.23-0.03594 0.115-0.07187 0.22281-0.03594 0.10422-0.06469 0.19765-0.02875 0.0899-0.04672 0.15094h0.30906v-0.33062q0-0.0719 0.05031-0.12219 0.05031-0.0503 0.12219-0.0503 0.07187 0 0.12219 0.0503 0.05031 0.0503 0.05031 0.12219v0.33062h0.115q0.07187 0 0.12219 0.0503 0.05031 0.0503 0.05031 0.12219 0 0.0719-0.05031 0.12218-0.05031 0.0503-0.12219 0.0503h-0.115v0.33063q0 0.0719-0.05031 0.12218-0.05031 0.0503-0.12219 0.0503-0.07187 0-0.12219-0.0503-0.05031-0.0503-0.05031-0.12218v-0.33063h-0.54624z" stroke-width=".26458"/>
   </g>
  </g>
  <path d="m16.99 14.75h3.999" fill="none" stroke="#fff" stroke-width=".465"/>
  <g fill="#fff">
   <g stroke-width=".28222" aria-label="MORPHADER">
    <path d="m20.002 4.6114q-0.10583 0-0.17992-0.074083-0.07408-0.074083-0.07408-0.17992v-3.0692q0-0.089958 0.05292-0.15875 0.05292-0.068792 0.14288-0.089958 0.08996-0.021167 0.16933 0.021167 0.07937 0.037042 0.11642 0.12171 0.10583 0.23283 0.21696 0.46038 0.08996 0.20108 0.20108 0.42863 0.11112 0.22225 0.20108 0.41804 0.08996-0.19579 0.19579-0.41804 0.11112-0.22754 0.20108-0.42863 0.10583-0.22754 0.21696-0.46038 0.04233-0.084667 0.11642-0.12171 0.07937-0.042333 0.16933-0.021167 0.08996 0.021167 0.14288 0.089958 0.05821 0.068792 0.05821 0.15875v3.0692q0 0.10583-0.07408 0.17992-0.07408 0.074083-0.17992 0.074083-0.10583 0-0.17992-0.074083-0.07408-0.074083-0.07408-0.17992v-1.9315q-0.06879 0.14288-0.13229 0.28046-0.0635 0.13758-0.11642 0.24342-0.05821 0.127-0.11642 0.24342-0.03175 0.068792-0.09525 0.11112-0.05821 0.037042-0.13229 0.037042-0.16404 0-0.23283-0.14817-0.058223-0.11642-0.11643-0.24342-0.052917-0.10583-0.11642-0.24342-0.0635-0.13758-0.127-0.28046v1.9315q0 0.10583-0.07408 0.17992-0.07408 0.074083-0.17992 0.074083z"/>
    <path d="m23.478 4.6114q-0.18521 0-0.34925-0.068792-0.15875-0.068791-0.28046-0.1905t-0.1905-0.28046q-0.068792-0.16404-0.068792-0.34925v-1.7992q0-0.18521 0.06879-0.34396 0.06879-0.16404 0.1905-0.28575 0.12171-0.12171 0.28046-0.1905 0.16404-0.068792 0.34925-0.068792 0.18521 0 0.34396 0.068792 0.16404 0.068792 0.28575 0.1905 0.12171 0.12171 0.1905 0.28575 0.06879 0.15875 0.06879 0.34396v1.7992q0 0.18521-0.06879 0.34925-0.06879 0.15875-0.1905 0.28046-0.12171 0.12171-0.28575 0.1905-0.15875 0.068792-0.34396 0.068792zm0-3.0692q-0.15875 0-0.26988 0.11112-0.11113 0.11113-0.11113 0.26988v1.7992q0 0.15875 0.11113 0.26988 0.11112 0.11113 0.26988 0.11113t0.26988-0.11113q0.11112-0.11112 0.11112-0.26988v-1.7992q0-0.15875-0.11112-0.26988-0.11112-0.11112-0.26988-0.11112z"/>
    <path d="m26.785 2.2407q0 0.25929-0.13229 0.47096-0.127 0.20638-0.34396 0.3175l0.46038 1.2383q0.04233 0.10054-0.0053 0.19579-0.04233 0.09525-0.14288 0.13229-0.10054 0.037042-0.19579-0.00529-0.08996-0.042333-0.13229-0.14288l-0.49212-1.3176h-0.28575v1.2277q0 0.10583-0.07408 0.17992-0.07408 0.074083-0.17992 0.074083-0.10583 0-0.17992-0.074083-0.07408-0.074083-0.07408-0.17992v-3.048q0-0.10583 0.07408-0.17992 0.07408-0.074083 0.17992-0.074083h0.635q0.18521 0 0.34396 0.068792 0.16404 0.068792 0.28575 0.1905 0.12171 0.12171 0.1905 0.28575 0.06879 0.15875 0.06879 0.34396v0.29633zm-1.27 0.381h0.381q0.15875 0 0.26988-0.11112 0.11112-0.11113 0.11112-0.26988v-0.29633q0-0.15875-0.11112-0.26988-0.11112-0.11112-0.26988-0.11112h-0.381z"/>
    <path d="m27.362 1.3094q0-0.10583 0.07408-0.17992 0.07408-0.074083 0.17992-0.074083h0.635q0.18521 0 0.34396 0.068792 0.16404 0.068792 0.28575 0.1905 0.12171 0.12171 0.1905 0.28575 0.06879 0.15875 0.06879 0.34396v0.29633q0 0.18521-0.06879 0.34925-0.06879 0.15875-0.1905 0.28046-0.12171 0.12171-0.28575 0.1905-0.15875 0.068792-0.34396 0.068792h-0.381v1.2277q0 0.10583-0.07408 0.17992-0.07408 0.074083-0.17992 0.074083-0.10583 0-0.17992-0.074083-0.07408-0.074083-0.07408-0.17992v-3.048zm1.27 0.635q0-0.15875-0.11112-0.26988-0.11112-0.11112-0.26988-0.11112h-0.381v1.0583h0.381q0.15875 0 0.26988-0.11112 0.11112-0.11113 0.11112-0.26988v-0.29633z"/>
    <path d="m30.902 1.2882q0-0.10583 0.07408-0.17992 0.07408-0.074083 0.17992-0.074083 0.10583 0 0.17992 0.074083 0.07408 0.074083 0.07408 0.17992v3.0692q0 0.10583-0.07408 0.17992-0.07408 0.074083-0.17992 0.074083-0.10583 0-0.17992-0.074083-0.07408-0.074083-0.07408-0.17992v-1.3335h-0.762v1.3335q0 0.10583-0.07408 0.17992-0.07408 0.074083-0.17992 0.074083-0.10583 0-0.17992-0.074083-0.07408-0.074083-0.07408-0.17992v-3.0692q0-0.10583 0.07408-0.17992 0.07408-0.074083 0.17992-0.074083 0.10583 0 0.17992 0.074083 0.07408 0.074083 0.07408 0.17992v1.2277h0.762v-1.2277z"/>
    <path d="m34.071 4.2886q0.02646 0.10583-0.02646 0.19579-0.04763 0.089958-0.14817 0.11642-0.10583 0.026458-0.19579-0.026458-0.08996-0.047625-0.11642-0.14817-0.02117-0.0635-0.04233-0.15346-0.02117-0.074083-0.05292-0.17463-0.02646-0.10583-0.05821-0.22754h-0.89958q-0.03704 0.12171-0.0635 0.22754-0.02646 0.10054-0.04762 0.17463-0.02117 0.089958-0.04233 0.15346-0.02646 0.10054-0.11642 0.14817-0.08996 0.052917-0.19579 0.026458-0.10054-0.026458-0.15346-0.11642-0.04763-0.089958-0.02117-0.19579l0.84667-3.0692q0.02117-0.084667 0.08467-0.13229 0.06879-0.052917 0.15875-0.052917t0.15346 0.052917q0.06879 0.047625 0.08996 0.13229zm-0.78317-0.92604q-0.07408-0.27517-0.15346-0.56621-0.07937-0.29104-0.15346-0.55033-0.07408 0.25929-0.15346 0.55033-0.07937 0.29104-0.15346 0.56621z"/>
    <path d="m35.442 1.0554q0.18521 0 0.34396 0.068792 0.16404 0.068792 0.28575 0.1905 0.12171 0.12171 0.1905 0.28575 0.06879 0.15875 0.06879 0.34396v1.7568q0 0.18521-0.06879 0.34925-0.06879 0.15875-0.1905 0.28046-0.12171 0.12171-0.28575 0.1905-0.15875 0.068792-0.34396 0.068792h-0.635q-0.10583 0-0.17992-0.074083-0.07408-0.074083-0.07408-0.17992v-3.0268q0-0.10583 0.07408-0.17992 0.07408-0.074083 0.17992-0.074083zm0.381 0.889q0-0.15875-0.11112-0.26988-0.11112-0.11112-0.26988-0.11112h-0.381v2.5188h0.381q0.15875 0 0.26988-0.11113 0.11112-0.11112 0.11112-0.26988v-1.7568z"/>
    <path d="m36.971 1.3094q0-0.10583 0.07408-0.17992 0.07408-0.074083 0.17992-0.074083h1.0583q0.10583 0 0.17992 0.074083 0.07408 0.074083 0.07408 0.17992 0 0.10583-0.07408 0.17992-0.07408 0.074083-0.17992 0.074083h-0.80433v0.9525h0.6985q0.10583 0 0.17992 0.074083 0.07408 0.074083 0.07408 0.17992 0 0.10583-0.07408 0.17992-0.07408 0.074083-0.17992 0.074083h-0.6985v1.0583h0.80433q0.10583 0 0.17992 0.074083 0.07408 0.074083 0.07408 0.17992 0 0.10583-0.07408 0.17992-0.07408 0.074083-0.17992 0.074083h-1.0583q-0.10583 0-0.17992-0.074083-0.07408-0.074083-0.07408-0.17992v-3.0268z"/>
    <path d="m40.849 2.2407q0 0.25929-0.13229 0.47096-0.127 0.20638-0.34396 0.3175l0.46038 1.2383q0.04233 0.10054-0.0053 0.19579-0.04233 0.09525-0.14288 0.13229-0.10054 0.037042-0.19579-0.00529-0.08996-0.042333-0.13229-0.14288l-0.49212-1.3176h-0.28575v1.2277q0 0.10583-0.07408 0.17992-0.07408 0.074083-0.17992 0.074083-0.10583 0-0.17992-0.074083-0.07408-0.074083-0.07408-0.17992v-3.048q0-0.10583 0.07408-0.17992 0.07408-0.074083 0.17992-0.074083h0.635q0.18521 0 0.34396 0.068792 0.16404 0.068792 0.28575 0.1905 0.12171 0.12171 0.1905 0.28575 0.06879 0.15875 0.06879 0.34396v0.29633zm-1.27 0.381h0.381q0.15875 0 0.26988-0.11112 0.11112-0.11113 0.11112-0.26988v-0.29633q0-0.15875-0.11112-0.26988-0.11112-0.11112-0.26988-0.11112h-0.381z"/>
   </g>
   <g enable-background="new" stroke-width=".28222" aria-label="FADER LAG">
    <path d="m5.619 107.65q-0.066482 0-0.11302-0.0465-0.046538-0.0465-0.046538-0.11302v-1.9014q0-0.0665 0.046538-0.11302 0.046538-0.0465 0.11302-0.0465h0.66482q0.066482 0 0.11302 0.0465 0.046538 0.0465 0.046538 0.11302 0 0.0665-0.046538 0.11302-0.046538 0.0465-0.11302 0.0465h-0.50527v0.59834h0.43878q0.066482 0 0.11302 0.0465 0.046538 0.0465 0.046538 0.11302 0 0.0665-0.046538 0.11302-0.046538 0.0465-0.11302 0.0465h-0.43878v0.82438q0 0.0665-0.046538 0.11302-0.046538 0.0465-0.11302 0.0465z"/>
    <path d="m7.7388 107.46q0.016621 0.0665-0.016621 0.12299-0.029917 0.0565-0.093075 0.0731-0.066482 0.0166-0.12299-0.0166-0.05651-0.0299-0.073131-0.0931-0.013297-0.0399-0.026593-0.0964-0.013297-0.0465-0.033241-0.1097-0.016621-0.0665-0.036565-0.14293h-0.5651q-0.023269 0.0764-0.039889 0.14293-0.016621 0.0632-0.029917 0.1097-0.013297 0.0565-0.026593 0.0964-0.016621 0.0632-0.073131 0.0931-0.05651 0.0332-0.12299 0.0166-0.063158-0.0166-0.096399-0.0731-0.029917-0.0565-0.013297-0.12299l0.53186-1.928q0.013297-0.0532 0.053186-0.0831 0.043214-0.0332 0.099724-0.0332t0.096399 0.0332q0.043214 0.0299 0.05651 0.0831zm-0.49197-0.58172q-0.046538-0.17285-0.0964-0.35568t-0.096399-0.34571q-0.046538 0.16288-0.096399 0.34571-0.049862 0.18283-0.0964 0.35568z"/>
    <path d="m8.4891 105.43q0.11634 0 0.21607 0.0432 0.10305 0.0432 0.1795 0.11967 0.076455 0.0765 0.11967 0.1795 0.043214 0.0997 0.043214 0.21607v1.1036q0 0.11635-0.043214 0.2194-0.043214 0.0997-0.11967 0.17617-0.076455 0.0765-0.1795 0.11967-0.099724 0.0432-0.21607 0.0432h-0.39889q-0.066482 0-0.11302-0.0465-0.046538-0.0465-0.046538-0.11302v-1.9014q0-0.0665 0.046538-0.11302 0.046538-0.0465 0.11302-0.0465zm0.23934 0.55846q0-0.0997-0.069807-0.16953-0.069807-0.0698-0.16953-0.0698h-0.23934v1.5823h0.23934q0.099724 0 0.16953-0.0698 0.069807-0.0698 0.069807-0.16953v-1.1036z"/>
    <path d="m9.3391 105.59q0-0.0665 0.046538-0.11302 0.046538-0.0465 0.11302-0.0465h0.66482q0.06648 0 0.11302 0.0465 0.04654 0.0465 0.04654 0.11302 0 0.0665-0.04654 0.11302-0.04654 0.0465-0.11302 0.0465h-0.50527v0.59834h0.43878q0.06648 0 0.11302 0.0465t0.04654 0.11302q0 0.0665-0.04654 0.11302-0.04654 0.0465-0.11302 0.0465h-0.43878v0.66482h0.50527q0.06648 0 0.11302 0.0465 0.04654 0.0465 0.04654 0.11302 0 0.0665-0.04654 0.11302-0.04654 0.0465-0.11302 0.0465h-0.66482q-0.066482 0-0.11302-0.0465-0.046538-0.0465-0.046538-0.11302v-1.9014z"/>
    <path d="m11.665 106.17q0 0.16288-0.0831 0.29584-0.07978 0.12964-0.21607 0.19945l0.2892 0.77785q0.02659 0.0632-0.0033 0.12299-0.02659 0.0598-0.08975 0.0831t-0.12299-3e-3q-0.05651-0.0266-0.0831-0.0897l-0.30914-0.82771h-0.1795v0.7712q0 0.0665-0.04654 0.11302-0.04654 0.0465-0.11302 0.0465t-0.11302-0.0465-0.04654-0.11302v-1.9147q0-0.0665 0.04654-0.11302 0.04654-0.0465 0.11302-0.0465h0.3989q0.11634 0 0.21607 0.0432 0.10305 0.0432 0.1795 0.11967 0.07645 0.0765 0.11967 0.1795 0.04321 0.0997 0.04321 0.21607v0.18615zm-0.79779 0.23933h0.23934q0.09972 0 0.16953-0.0698t0.06981-0.16953v-0.18615q0-0.0997-0.06981-0.16953-0.06981-0.0698-0.16953-0.0698h-0.23934z"/>
    <path d="m12.7 107.65q-0.06648 0-0.11302-0.0465t-0.04654-0.11302v-1.9147q0-0.0665 0.04654-0.11302 0.04654-0.0465 0.11302-0.0465t0.11302 0.0465 0.04654 0.11302v1.7551h0.50527q0.06648 0 0.11302 0.0465t0.04654 0.11302q0 0.0665-0.04654 0.11302-0.04654 0.0465-0.11302 0.0465h-0.66482z"/>
    <path d="m14.913 107.46q0.01662 0.0665-0.01662 0.12299-0.02992 0.0565-0.09308 0.0731-0.06648 0.0166-0.12299-0.0166-0.05651-0.0299-0.07313-0.0931-0.0133-0.0399-0.02659-0.0964-0.0133-0.0465-0.03324-0.1097-0.01662-0.0665-0.03657-0.14293h-0.5651q-0.02327 0.0764-0.03989 0.14293-0.01662 0.0632-0.02992 0.1097-0.0133 0.0565-0.02659 0.0964-0.01662 0.0632-0.07313 0.0931-0.05651 0.0332-0.12299 0.0166-0.06316-0.0166-0.0964-0.0731-0.02992-0.0565-0.0133-0.12299l0.53186-1.928q0.0133-0.0532 0.05319-0.0831 0.04321-0.0332 0.09972-0.0332t0.0964 0.0332q0.04321 0.0299 0.05651 0.0831zm-0.49197-0.58172q-0.04654-0.17285-0.0964-0.35568t-0.0964-0.34571q-0.04654 0.16288-0.0964 0.34571t-0.0964 0.35568z"/>
    <path d="m16.023 106.41q0.06648 0 0.11302 0.0465t0.04654 0.11302v0.53186q0 0.11635-0.04321 0.21939-0.04321 0.0997-0.11967 0.17618-0.07646 0.0765-0.1795 0.11967-0.09972 0.0432-0.21607 0.0432-0.11634 0-0.21939-0.0432-0.09972-0.0432-0.17618-0.11967-0.07313-0.0764-0.11967-0.17618-0.04321-0.10304-0.04321-0.21939v-1.1302q0-0.0931 0.02992-0.1795 0.02992-0.0897 0.0831-0.15956 0.05651-0.0731 0.13296-0.12299 0.07646-0.0532 0.16953-0.0765 0.08975-0.0233 0.18283-0.0166 0.09307 3e-3 0.17618 0.0399 0.0831 0.0332 0.15291 0.0931 0.06981 0.0598 0.11634 0.14293 0.03324 0.0565 0.0133 0.11967-0.01662 0.0632-0.07313 0.0997-0.05651 0.0332-0.11967 0.0166-0.06316-0.0199-0.0964-0.0765-0.04321-0.0698-0.11967-0.0997-0.07313-0.0332-0.14959-0.01-0.07978 0.0199-0.12964 0.0864-0.04986 0.0632-0.04986 0.14294v1.1302q0 0.0997 0.06981 0.16953 0.07313 0.0698 0.16953 0.0698 0.09972 0 0.16953-0.0698 0.06981-0.0698 0.06981-0.16953v-0.3723h-0.17285q-0.06648 0-0.11302-0.0465t-0.04654-0.11302q0-0.0665 0.04654-0.11302 0.04654-0.0465 0.11302-0.0465h0.33241z"/>
   </g>
   <g enable-background="new" aria-label="X">
    <path d="m18.517 14.389q-0.03978-0.02106-0.05617-0.06553-0.01404-0.04446 7e-3 -0.08425l0.32529-0.65293-0.30189-0.60378q-0.02106-0.04213-7e-3 -0.08659 0.01638-0.04447 0.05617-0.06553 0.04212-0.02106 0.08659-0.0047 0.04446 0.01404 0.06553 0.05617l0.227 0.45401 0.227-0.45401q0.02106-0.04212 0.06553-0.05617 0.04446-0.01638 0.08425 0.0047 0.04212 0.02106 0.05617 0.06553 0.01638 0.04446-0.0047 0.08659l-0.30189 0.60378 0.32529 0.65293q0.02106 0.03979 0.0047 0.08425-0.01404 0.04447-0.05617 0.06553-0.03978 0.02106-0.08425 0.0047-0.04446-0.01404-0.06553-0.05382l-0.2504-0.50315-0.25041 0.50315q-0.02106 0.03978-0.06553 0.05382-0.04446 0.01638-0.08659-0.0047z" fill="#fff" stroke-width=".28222"/>
   </g>
   <g enable-background="new" stroke-width=".28222" aria-label="CV 1">
    <path d="m17.408 22.588q-0.10478-0.02716-0.19403-0.08537-0.08925-0.06209-0.15522-0.14358-0.06209-0.08537-0.09701-0.18627-0.03493-0.1009-0.03493-0.21343v-1.3194q0-0.10866 0.03493-0.20955 0.03493-0.10478 0.09701-0.18627 0.06597-0.08537 0.15522-0.14358 0.08925-0.06209 0.19403-0.08925 0.21731-0.05821 0.4191 0.02716 0.20179 0.08149 0.31433 0.27552 0.04269 0.06597 0.0194 0.1397-0.0194 0.07373-0.08537 0.11642-0.06597 0.0388-0.1397 0.0194-0.07373-0.02328-0.11642-0.08925-0.04657-0.08149-0.13582-0.11642-0.08537-0.03881-0.17851-0.01164-0.08925 0.02328-0.14746 0.1009-0.05821 0.07373-0.05821 0.16686v1.3194q0 0.09701 0.05821 0.17074 0.05821 0.07373 0.14746 0.10089 0.09313 0.02328 0.17851-0.01164 0.08925-0.03881 0.13582-0.1203 0.04269-0.06597 0.11642-0.08537 0.07373-0.02328 0.1397 0.01552 0.06597 0.04269 0.08537 0.11642 0.02328 0.07373-0.0194 0.1397-0.11254 0.19403-0.31433 0.27552-0.20179 0.08537-0.4191 0.02716z"/>
    <path d="m18.321 20.224q-0.0194-0.07761 0.01552-0.14358 0.03881-0.06597 0.11642-0.08537 0.07373-0.0194 0.1397 0.0194 0.06985 0.03493 0.08925 0.10866 0.07373 0.27552 0.15134 0.55492 0.06597 0.2406 0.14358 0.52 0.07761 0.2794 0.14746 0.52776 0.06597-0.24836 0.14358-0.52776 0.07761-0.2794 0.14358-0.52 0.07373-0.2794 0.15134-0.55492 0.0194-0.07373 0.08537-0.10866 0.06985-0.03881 0.14358-0.0194 0.07761 0.0194 0.11254 0.08537 0.03881 0.06597 0.0194 0.14358l-0.62089 2.2507q-0.0194 0.06209-0.06985 0.09701-0.04657 0.0388-0.10866 0.0388-0.06597 0-0.11642-0.0388-0.04657-0.03493-0.06597-0.09701z"/>
    <path d="m21.273 20.772q-0.05433 0.05433-0.13194 0.05433-0.07761 0-0.13194-0.05433-0.05433-0.05433-0.05433-0.13194 0-0.07761 0.05433-0.13194l0.46567-0.46567q0.08925-0.08925 0.20179-0.03881 0.05433 0.0194 0.08537 0.06985 0.03104 0.04657 0.03104 0.1009v2.2507q0 0.07761-0.05433 0.13194-0.05433 0.05433-0.13194 0.05433-0.07761 0-0.13194-0.05433-0.05433-0.05433-0.05433-0.13194v-1.8006q-0.02716 0.02328-0.05433 0.05045-0.02328 0.02716-0.04269 0.04657-0.02328 0.02716-0.05045 0.05045z"/>
   </g>
   <g enable-background="new" stroke-width=".28222" aria-label="CV">
    <path d="m40.629 79.289q-0.08573-0.02223-0.15875-0.06985-0.07302-0.0508-0.127-0.11748-0.0508-0.06985-0.07937-0.1524-0.02858-0.08255-0.02858-0.17462v-1.0795q0-0.0889 0.02858-0.17145 0.02857-0.08573 0.07937-0.1524 0.05398-0.06985 0.127-0.11748 0.07303-0.0508 0.15875-0.07303 0.1778-0.04763 0.3429 0.02222 0.1651 0.06668 0.25718 0.22542 0.03493 0.05398 0.01588 0.1143-0.01588 0.06033-0.06985 0.09525-0.05397 0.03175-0.1143 0.01587-0.06032-0.01905-0.09525-0.07303-0.0381-0.06668-0.11112-0.09525-0.06985-0.03175-0.14605-0.0095-0.07303 0.01905-0.12065 0.08255-0.04763 0.06032-0.04763 0.13652v1.0795q0 0.07938 0.04763 0.1397 0.04762 0.06033 0.12065 0.08255 0.0762 0.01905 0.14605-0.0095 0.07302-0.03175 0.11112-0.09843 0.03493-0.05397 0.09525-0.06985 0.06033-0.01905 0.1143 0.0127 0.05398 0.03493 0.06985 0.09525 0.01905 0.06033-0.01588 0.1143-0.09208 0.15875-0.25718 0.22542-0.1651 0.06985-0.3429 0.02223z"/>
    <path d="m41.374 77.356q-0.01587-0.0635 0.0127-0.11748 0.03175-0.05397 0.09525-0.06985 0.06032-0.01587 0.1143 0.01588 0.05715 0.02858 0.07303 0.0889 0.06032 0.22542 0.12382 0.45402 0.05398 0.19685 0.11748 0.42545 0.0635 0.2286 0.12065 0.4318 0.05398-0.2032 0.11748-0.4318 0.0635-0.2286 0.11748-0.42545 0.06032-0.2286 0.12382-0.45402 0.01587-0.06032 0.06985-0.0889 0.05715-0.03175 0.11748-0.01588 0.0635 0.01588 0.09208 0.06985 0.03175 0.05398 0.01588 0.11748l-0.508 1.8415q-0.01588 0.0508-0.05715 0.07937-0.0381 0.03175-0.0889 0.03175-0.05398 0-0.09525-0.03175-0.0381-0.02858-0.05398-0.07937z"/>
   </g>
   <g enable-background="new" stroke-width=".28222" aria-label="AUDIO">
    <path d="m39.868 90.964q0.01588 0.0635-0.01588 0.11748-0.02857 0.05398-0.0889 0.06985-0.0635 0.01588-0.11748-0.01587-0.05397-0.02858-0.06985-0.0889-0.0127-0.0381-0.0254-0.09207-0.0127-0.04445-0.03175-0.10478-0.01588-0.0635-0.03493-0.13652h-0.53975q-0.02223 0.07303-0.0381 0.13652-0.01588 0.06033-0.02858 0.10478-0.0127 0.05397-0.0254 0.09207-0.01588 0.06033-0.06985 0.0889-0.05398 0.03175-0.11748 0.01587-0.06032-0.01587-0.09208-0.06985-0.02857-0.05397-0.0127-0.11748l0.508-1.8415q0.0127-0.0508 0.0508-0.07937 0.04127-0.03175 0.09525-0.03175t0.09208 0.03175q0.04127 0.02858 0.05397 0.07937zm-0.4699-0.55562q-0.04445-0.1651-0.09207-0.33972-0.04763-0.17462-0.09208-0.3302-0.04445 0.15558-0.09208 0.3302t-0.09208 0.33972z"/>
    <path d="m40.33 90.624q0 0.09525 0.06667 0.16192 0.06668 0.06667 0.16192 0.06667 0.09208 0 0.15875-0.06667 0.06985-0.06668 0.06985-0.16192v-1.4605q0-0.0635 0.04445-0.10795t0.10795-0.04445 0.10795 0.04445 0.04445 0.10795v1.4605q0 0.11112-0.04445 0.20955-0.04128 0.09525-0.1143 0.16828-0.06985 0.07303-0.16828 0.1143-0.09842 0.04127-0.20638 0.04127-0.11112 0-0.20955-0.04127-0.09525-0.04127-0.16828-0.1143-0.07303-0.07303-0.1143-0.16828-0.04127-0.09843-0.04127-0.20955v-1.4605q0-0.0635 0.04445-0.10795t0.10795-0.04445 0.10795 0.04445 0.04445 0.10795v1.4605z"/>
    <path d="m41.916 89.024q0.11112 0 0.20638 0.04128 0.09842 0.04127 0.17145 0.1143 0.07303 0.07302 0.1143 0.17145 0.04127 0.09525 0.04127 0.20638v1.0541q0 0.11112-0.04127 0.20955-0.04127 0.09525-0.1143 0.16828-0.07303 0.07303-0.17145 0.1143-0.09525 0.04127-0.20638 0.04127h-0.381q-0.0635 0-0.10795-0.04445t-0.04445-0.10795v-1.8161q0-0.0635 0.04445-0.10795t0.10795-0.04445zm0.2286 0.5334q0-0.09525-0.06667-0.16192-0.06668-0.06668-0.16192-0.06668h-0.2286v1.5113h0.2286q0.09525 0 0.16192-0.06668 0.06667-0.06667 0.06667-0.16192v-1.0541z"/>
    <path d="m42.879 91.157q-0.0635 0-0.10795-0.04445t-0.04445-0.10795v-1.8415q0-0.0635 0.04445-0.10795t0.10795-0.04445 0.10795 0.04445 0.04445 0.10795v1.8415q0 0.0635-0.04445 0.10795t-0.10795 0.04445z"/>
    <path d="m43.843 91.157q-0.11112 0-0.20955-0.04127-0.09525-0.04127-0.16828-0.1143-0.07303-0.07303-0.1143-0.16828-0.04127-0.09843-0.04127-0.20955v-1.0795q0-0.11112 0.04127-0.20638 0.04127-0.09843 0.1143-0.17145 0.07303-0.07303 0.16828-0.1143 0.09842-0.04127 0.20955-0.04127 0.11112 0 0.20638 0.04127 0.09842 0.04127 0.17145 0.1143 0.07302 0.07303 0.1143 0.17145 0.04127 0.09525 0.04127 0.20638v1.0795q0 0.11112-0.04127 0.20955-0.04128 0.09525-0.1143 0.16828-0.07303 0.07303-0.17145 0.1143-0.09525 0.04127-0.20638 0.04127zm0-1.8415q-0.09525 0-0.16192 0.06668-0.06667 0.06668-0.06667 0.16192v1.0795q0 0.09525 0.06667 0.16192 0.06668 0.06667 0.16192 0.06667 0.09525 0 0.16192-0.06667 0.06668-0.06668 0.06668-0.16192v-1.0795q0-0.09525-0.06668-0.16192-0.06667-0.06668-0.16192-0.06668z"/>
   </g>
  </g>
  <g transform="translate(.19844 -168.5)" fill="none" stroke="#fff" stroke-linecap="round">
   <path d="m45.005 287.16v-8.8829" stroke-width=".605"/>
   <path d="m37.553 287.16v-8.8829" stroke-width=".605"/>
   <path d="m30.101 287.62v-9.7948" stroke-width=".69704"/>
   <path d="m18.923 286.71v-7.9749" stroke-width=".51732"/>
   <path d="m15.197 287.16v-8.886" stroke-width=".6051"/>
   <path d="m22.649 287.16v-8.8829" stroke-width=".605"/>
   <path d="m41.279 286.71v-7.9744" stroke-width=".5173"/>
   <path d="m26.375 286.71v-7.9746" stroke-width=".51731"/>
   <path d="m33.827 286.71v-7.9744" stroke-width=".5173"/>
  </g>
  <g transform="scale(.99307 1.007)" enable-background="new" fill="#050000" stroke-width=".26458" aria-label="[MIX]">
   <path d="m53.734 106.65q-0.05089 0-0.0865-0.0356-0.03562-0.0356-0.03562-0.0865v-1.8624q0-0.0509 0.03562-0.0865t0.0865-0.0356h0.25443q0.05089 0 0.08651 0.0356t0.03562 0.0865-0.03562 0.0865-0.08651 0.0356h-0.1323v1.6182h0.1323q0.05089 0 0.08651 0.0356t0.03562 0.0865-0.03562 0.0865-0.08651 0.0356h-0.25443z"/>
   <path d="m54.374 106.45q-0.05089 0-0.08651-0.0356t-0.03562-0.0865v-1.4757q0-0.0433 0.02544-0.0763 0.02544-0.0331 0.06869-0.0433t0.08142 0.0102q0.03816 0.0178 0.05597 0.0585 0.05088 0.11194 0.10432 0.22135 0.04325 0.0967 0.09668 0.20608 0.05343 0.10686 0.09668 0.201 0.04325-0.0941 0.09414-0.201 0.05343-0.1094 0.09668-0.20608 0.05089-0.10941 0.10431-0.22135 0.02036-0.0407 0.05597-0.0585 0.03816-0.0203 0.08142-0.0102 0.04325 0.0102 0.06869 0.0433 0.02799 0.0331 0.02799 0.0763v1.4757q0 0.0509-0.03562 0.0865t-0.0865 0.0356q-0.05089 0-0.08651-0.0356t-0.03562-0.0865v-0.92865q-0.03307 0.0687-0.06361 0.13484-0.03053 0.0662-0.05597 0.11704-0.02799 0.0611-0.05597 0.11704-0.01526 0.0331-0.0458 0.0534-0.02799 0.0178-0.06361 0.0178-0.07887 0-0.11195-0.0712-0.02799-0.056-0.05597-0.11704-0.02544-0.0509-0.05597-0.11704-0.03053-0.0662-0.06106-0.13484v0.92865q0 0.0509-0.03562 0.0865t-0.0865 0.0356z"/>
   <path d="m55.686 106.45q-0.05089 0-0.08651-0.0356t-0.03562-0.0865v-1.4757q0-0.0509 0.03562-0.0865t0.08651-0.0356 0.08651 0.0356 0.03562 0.0865v1.4757q0 0.0509-0.03562 0.0865t-0.08651 0.0356z"/>
   <path d="m56.028 106.44q-0.04325-0.0229-0.06106-0.0712-0.01527-0.0483 0.0076-0.0916l0.35365-0.70984-0.32821-0.65642q-0.0229-0.0458-0.0076-0.0941 0.01781-0.0483 0.06106-0.0712 0.0458-0.0229 0.09414-5e-3 0.04834 0.0153 0.07124 0.0611l0.24679 0.49359 0.24679-0.49359q0.0229-0.0458 0.07124-0.0611 0.04834-0.0178 0.09159 5e-3 0.0458 0.0229 0.06106 0.0712 0.01781 0.0483-0.0051 0.0941l-0.32821 0.65642 0.35365 0.70984q0.0229 0.0433 0.0051 0.0916-0.01526 0.0483-0.06106 0.0712-0.04325 0.0229-0.09159 5e-3 -0.04834-0.0153-0.07124-0.0585l-0.27224-0.54702-0.27224 0.54702q-0.0229 0.0433-0.07124 0.0585-0.04834 0.0178-0.09414-5e-3z"/>
   <path d="m57.388 104.54q0.05089 0 0.08651 0.0356t0.03562 0.0865v1.8624q0 0.0509-0.03562 0.0865t-0.08651 0.0356h-0.25443q-0.05089 0-0.0865-0.0356-0.03562-0.0356-0.03562-0.0865t0.03562-0.0865 0.0865-0.0356h0.1323v-1.6182h-0.1323q-0.05089 0-0.0865-0.0356-0.03562-0.0356-0.03562-0.0865t0.03562-0.0865 0.0865-0.0356h0.25443z"/>
  </g>
  <g transform="translate(-.0061908 -169.18)">
   <path d="m55.19 178.65v-0.70113c0.07992-1.0506-0.27244-1.8256-1.8007-1.8007h-0.19382" fill="none" stroke="#fff" stroke-width=".365"/>
   <path transform="matrix(0 -.64037 -.64037 0 168.89 141.1)" d="m-57.317 178.77-1.07-0.61777-1.07-0.61778 2.14-1.2356v1.2356z" fill="#fff"/>
  </g>
  <g transform="translate(-9.8674 -169.18)">
   <path d="m55.19 178.65v-0.70113c0.07992-1.0506-0.27244-1.8256-1.8007-1.8007" fill="none" stroke="#fff" stroke-width=".365"/>
   <path transform="matrix(0 -.64037 -.64037 0 168.89 141.1)" d="m-57.317 178.77-1.07-0.61777-1.07-0.61778 2.14-1.2356v1.2356z" fill="#fff"/>
  </g>
  <g transform="translate(-20.003 -169.18)" stroke-width=".365">
   <path d="m55.19 178.65v-0.70113c0.07992-1.0506-0.27244-1.8256-1.8007-1.8007" fill="none" stroke="#fff" stroke-width=".365"/>
   <path transform="matrix(0 -.64037 -.64037 0 168.89 141.1)" d="m-57.317 178.77-1.07-0.61777-1.07-0.61778 2.14-1.2356v1.2356z" fill="#fff"/>
  </g>
  <g transform="translate(-66.477 -168.67)" fill="#fff">
   <path transform="matrix(0 -1 -1 0 325.15 160.33)" d="m-82.64 244.12-2.14-1.2356 1.07-0.61778 1.07-0.61777v1.2356z"/>
   <g enable-background="new" stroke-width=".28222" aria-label="10V">
    <path d="m81.051 241.46q-0.03298 0.033-0.08009 0.033t-0.08009-0.033-0.03298-0.0801 0.03298-0.0801l0.28267-0.28267q0.05418-0.0542 0.12249-0.0236 0.03298 0.0118 0.05182 0.0424 0.01884 0.0283 0.01884 0.0612v1.3662q0 0.0471-0.03298 0.0801t-0.08009 0.033-0.08009-0.033-0.03298-0.0801v-1.093q-0.01649 0.0141-0.03298 0.0306-0.01413 0.0165-0.02591 0.0283-0.01413 0.0165-0.03062 0.0306z"/>
    <path d="m82.167 242.58q-0.08245 0-0.15547-0.0306-0.07067-0.0306-0.12484-0.0848-0.05418-0.0542-0.0848-0.12485-0.03062-0.073-0.03062-0.15547v-0.80089q0-0.0824 0.03062-0.15311 0.03062-0.073 0.0848-0.1272t0.12484-0.0848q0.07302-0.0306 0.15547-0.0306 0.08009 0 0.15311 0.0306 0.07302 0.0306 0.12484 0.0848 0.05418 0.0542 0.0848 0.1272 0.03298 0.0707 0.03298 0.15311v0.80089q0 0.0824-0.03298 0.15547-0.03062 0.0707-0.0848 0.12485-0.05182 0.0542-0.12484 0.0848-0.07302 0.0306-0.15311 0.0306zm0-1.3662q-0.07067 0-0.12013 0.0495-0.04947 0.0495-0.04947 0.12013v0.80089q0 0.0707 0.04947 0.12014 0.04947 0.0495 0.12013 0.0495 0.06831 0 0.11778-0.0495 0.05182-0.0495 0.05182-0.12014v-0.80089q0-0.0707-0.05182-0.12013-0.04947-0.0495-0.11778-0.0495z"/>
    <path d="m82.689 241.13q-0.01178-0.0471 0.0094-0.0872 0.02356-0.0401 0.07067-0.0518 0.04476-0.0118 0.0848 0.0118 0.0424 0.0212 0.05418 0.066 0.04476 0.16725 0.09187 0.33685 0.04004 0.14604 0.08716 0.31564 0.04711 0.1696 0.08951 0.32036 0.04004-0.15076 0.08716-0.32036 0.04711-0.1696 0.08716-0.31564 0.04476-0.1696 0.09187-0.33685 0.01178-0.0448 0.05182-0.066 0.0424-0.0236 0.08716-0.0118 0.04711 0.0118 0.06831 0.0518 0.02356 0.04 0.01178 0.0872l-0.37689 1.3662q-0.01178 0.0377-0.0424 0.0589-0.02827 0.0236-0.06596 0.0236-0.04004 0-0.07067-0.0236-0.02827-0.0212-0.04004-0.0589z"/>
   </g>
  </g>
  <g transform="translate(-76.476 -168.67)" fill="#fff">
   <path transform="matrix(0 -1 -1 0 325.15 160.33)" d="m-82.64 244.12-2.14-1.2356 1.07-0.61778 1.07-0.61777v1.2356z"/>
   <g enable-background="new" stroke-width=".28222" aria-label="10V">
    <path d="m81.051 241.46q-0.03298 0.033-0.08009 0.033t-0.08009-0.033-0.03298-0.0801 0.03298-0.0801l0.28267-0.28267q0.05418-0.0542 0.12249-0.0236 0.03298 0.0118 0.05182 0.0424 0.01884 0.0283 0.01884 0.0612v1.3662q0 0.0471-0.03298 0.0801t-0.08009 0.033-0.08009-0.033-0.03298-0.0801v-1.093q-0.01649 0.0141-0.03298 0.0306-0.01413 0.0165-0.02591 0.0283-0.01413 0.0165-0.03062 0.0306z"/>
    <path d="m82.167 242.58q-0.08245 0-0.15547-0.0306-0.07067-0.0306-0.12484-0.0848-0.05418-0.0542-0.0848-0.12485-0.03062-0.073-0.03062-0.15547v-0.80089q0-0.0824 0.03062-0.15311 0.03062-0.073 0.0848-0.1272t0.12484-0.0848q0.07302-0.0306 0.15547-0.0306 0.08009 0 0.15311 0.0306 0.07302 0.0306 0.12484 0.0848 0.05418 0.0542 0.0848 0.1272 0.03298 0.0707 0.03298 0.15311v0.80089q0 0.0824-0.03298 0.15547-0.03062 0.0707-0.0848 0.12485-0.05182 0.0542-0.12484 0.0848-0.07302 0.0306-0.15311 0.0306zm0-1.3662q-0.07067 0-0.12013 0.0495-0.04947 0.0495-0.04947 0.12013v0.80089q0 0.0707 0.04947 0.12014 0.04947 0.0495 0.12013 0.0495 0.06831 0 0.11778-0.0495 0.05182-0.0495 0.05182-0.12014v-0.80089q0-0.0707-0.05182-0.12013-0.04947-0.0495-0.11778-0.0495z"/>
    <path d="m82.689 241.13q-0.01178-0.0471 0.0094-0.0872 0.02356-0.0401 0.07067-0.0518 0.04476-0.0118 0.0848 0.0118 0.0424 0.0212 0.05418 0.066 0.04476 0.16725 0.09187 0.33685 0.04004 0.14604 0.08716 0.31564 0.04711 0.1696 0.08951 0.32036 0.04004-0.15076 0.08716-0.32036 0.04711-0.1696 0.08716-0.31564 0.04476-0.1696 0.09187-0.33685 0.01178-0.0448 0.05182-0.066 0.0424-0.0236 0.08716-0.0118 0.04711 0.0118 0.06831 0.0518 0.02356 0.04 0.01178 0.0872l-0.37689 1.3662q-0.01178 0.0377-0.0424 0.0589-0.02827 0.0236-0.06596 0.0236-0.04004 0-0.07067-0.0236-0.02827-0.0212-0.04004-0.0589z"/>
   </g>
  </g>
  <g>
   <g enable-background="new" fill="#fff" stroke-width=".28222" aria-label="IN A">
    <path d="m3.5819 88.97q-0.077611 0-0.13194-0.05433t-0.054328-0.13194v-2.2507q0-0.07761 0.054328-0.13194 0.054328-0.05433 0.13194-0.05433t0.13194 0.05433 0.054328 0.13194v2.2507q0 0.07761-0.054328 0.13194-0.054328 0.05433-0.13194 0.05433z"/>
    <path d="m5.473 88.966q-0.06597 0.015523-0.12418-0.015522-0.058208-0.027164-0.085372-0.085372-0.11642-0.24836-0.24448-0.50835-0.10866-0.22119-0.24059-0.48895-0.12806-0.26776-0.24836-0.52v1.4358q0 0.07761-0.054328 0.13194-0.054328 0.05433-0.13194 0.05433t-0.13194-0.05433-0.054328-0.13194v-2.2507q0-0.06597 0.038806-0.11642 0.038806-0.05045 0.10478-0.06597 0.065969-0.01552 0.1203 0.01552 0.058208 0.02716 0.089253 0.08537 0.11642 0.24836 0.24448 0.50835 0.10866 0.22119 0.23671 0.48895 0.12806 0.26776 0.25224 0.52v-1.4358q0-0.07761 0.054328-0.13194 0.054328-0.05433 0.13194-0.05433t0.13194 0.05433 0.054328 0.13194v2.2507q0 0.06597-0.042686 0.11642-0.038806 0.05045-0.10089 0.06597z"/>
    <path d="m8.1725 88.733q0.019403 0.07761-0.019403 0.14358-0.034925 0.06597-0.10866 0.08537-0.077611 0.0194-0.14358-0.0194-0.06597-0.03493-0.085372-0.10866-0.015522-0.04657-0.031044-0.11254-0.015522-0.05433-0.038806-0.12806-0.019403-0.07761-0.042686-0.16686h-0.6597q-0.027164 0.08925-0.046567 0.16686-0.019403 0.07373-0.034925 0.12806-0.015522 0.06597-0.031045 0.11254-0.019403 0.07373-0.085372 0.10866-0.06597 0.03881-0.14358 0.0194-0.073731-0.0194-0.11254-0.08537-0.034925-0.06597-0.015522-0.14358l0.62089-2.2507q0.015522-0.06209 0.062089-0.09701 0.050447-0.03881 0.11642-0.03881 0.065969 0 0.11254 0.03881 0.050447 0.03493 0.06597 0.09701zm-0.57432-0.6791q-0.054328-0.20179-0.11254-0.41522t-0.11254-0.40358q-0.054328 0.19015-0.11254 0.40358-0.058208 0.21343-0.11254 0.41522z"/>
   </g>
   <g enable-background="new" fill="#fff" stroke-width=".28222" aria-label="IN B">
    <path d="m13.651 88.97q-0.07761 0-0.13194-0.05433-0.05433-0.05433-0.05433-0.13194v-2.2507q0-0.07761 0.05433-0.13194 0.05433-0.05433 0.13194-0.05433 0.07761 0 0.13194 0.05433 0.05433 0.05433 0.05433 0.13194v2.2507q0 0.07761-0.05433 0.13194-0.05433 0.05433-0.13194 0.05433z"/>
    <path d="m15.542 88.966q-0.06597 0.01552-0.12418-0.01552-0.05821-0.02716-0.08537-0.08537-0.11642-0.24836-0.24448-0.50835-0.10866-0.22119-0.2406-0.48895-0.12806-0.26776-0.24836-0.52v1.4358q0 0.07761-0.05433 0.13194-0.05433 0.05433-0.13194 0.05433-0.07761 0-0.13194-0.05433-0.05433-0.05433-0.05433-0.13194v-2.2507q0-0.06597 0.0388-0.11642 0.03881-0.05045 0.10478-0.06597 0.06597-0.01552 0.1203 0.01552 0.05821 0.02716 0.08925 0.08537 0.11642 0.24836 0.24448 0.50835 0.10866 0.22119 0.23671 0.48895 0.12806 0.26776 0.25224 0.52v-1.4358q0-0.07761 0.05433-0.13194 0.05433-0.05433 0.13194-0.05433 0.07761 0 0.13194 0.05433 0.05433 0.05433 0.05433 0.13194v2.2507q0 0.06597-0.04269 0.11642-0.0388 0.05045-0.10089 0.06597z"/>
    <path d="m18.109 87.153q0 0.13582-0.05433 0.25612-0.05433 0.1203-0.14358 0.20955 0.08925 0.08925 0.14358 0.20955 0.05433 0.1203 0.05433 0.25612v0.21731q0 0.13582-0.05433 0.25612-0.05045 0.11642-0.1397 0.20567-0.08537 0.08925-0.20567 0.1397-0.1203 0.05045-0.25224 0.05045h-0.46567q-0.07761 0-0.13194-0.05433-0.05433-0.05433-0.05433-0.13194v-2.2197q0-0.07761 0.05433-0.13194 0.05433-0.05433 0.13194-0.05433h0.46567q0.13194 0 0.25224 0.05045 0.1203 0.05045 0.20567 0.1397 0.08925 0.08925 0.1397 0.20955 0.05433 0.11642 0.05433 0.25224v0.1397zm-0.37253 0.93133q0-0.11642-0.08149-0.19791-0.08149-0.08149-0.19791-0.08149h-0.2794v0.77611h0.2794q0.11642 0 0.19791-0.08149 0.08149-0.08149 0.08149-0.19791v-0.21732zm-0.2794-0.65193q0.11642 0 0.19791-0.08149 0.08149-0.08149 0.08149-0.19791v-0.1397q0-0.11642-0.08149-0.19791-0.08149-0.08149-0.19791-0.08149h-0.2794v0.6985z"/>
   </g>
   <text x="71.853401" y="114.46848" fill="#000000" font-family="sans-serif" font-size="10.583px" letter-spacing="0px" word-spacing="4.3947px" style="line-height:1.25" xml:space="preserve"/>
  </g>
  <g fill="#fff">
   <path d="m28.416 89.77c1.2118-3e-3 2.4237-8e-3 3.6355-8e-3v-1.1863z" stroke="url(#linearGradient15156)" stroke-linecap="round" stroke-width=".05842"/>
   <g>
    <g enable-background="new" aria-label="A">
     <path d="m8.1642 115.91q0.030478 0.12191-0.030478 0.22554-0.05486 0.10362-0.17067 0.1341-0.12191 0.0305-0.22553-0.0305-0.10362-0.0549-0.1341-0.17068-0.024382-0.0731-0.048764-0.17677-0.024382-0.0853-0.060955-0.20115-0.030478-0.12191-0.067051-0.26211h-1.0362q-0.042669 0.1402-0.073146 0.26211-0.030478 0.11582-0.05486 0.20115-0.024382 0.10363-0.048764 0.17677-0.030478 0.11582-0.1341 0.17068-0.10362 0.0609-0.22553 0.0305-0.11582-0.0305-0.17677-0.1341-0.05486-0.10363-0.024382-0.22554l0.97528-3.5354q0.024382-0.0975 0.097529-0.15238 0.079242-0.061 0.18287-0.061 0.10362 0 0.17677 0.061 0.079242 0.0549 0.10362 0.15238zm-0.90214-1.0667q-0.085337-0.31696-0.17677-0.65222-0.091433-0.33525-0.17677-0.63393-0.085337 0.29868-0.17677 0.63393-0.091433 0.33526-0.17677 0.65222z" fill="#fff" stroke-width=".28222"/>
    </g>
    <g enable-background="new" aria-label="B">
     <path d="m55.053 113.43q0 0.21334-0.08534 0.4023t-0.22553 0.32916q0.1402 0.1402 0.22553 0.32916 0.08534 0.18896 0.08534 0.4023v0.34135q0 0.21335-0.08534 0.40231-0.07924 0.18286-0.21944 0.32306-0.1341 0.1402-0.32306 0.21944-0.18896 0.0792-0.39621 0.0792h-0.73146q-0.12191 0-0.20725-0.0853-0.08534-0.0853-0.08534-0.20724v-3.4866q0-0.12191 0.08534-0.20725 0.08534-0.0853 0.20725-0.0853h0.73146q0.20725 0 0.39621 0.0792t0.32306 0.21944q0.1402 0.1402 0.21944 0.32916 0.08534 0.18286 0.08534 0.39621v0.21944zm-0.58517 1.4629q0-0.18286-0.12801-0.31087-0.12801-0.12801-0.31087-0.12801h-0.43888v1.2191h0.43888q0.18286 0 0.31087-0.12801 0.12801-0.128 0.12801-0.31087v-0.34135zm-0.43888-1.024q0.18286 0 0.31087-0.128 0.12801-0.12801 0.12801-0.31087v-0.21944q0-0.18287-0.12801-0.31088-0.12801-0.128-0.31087-0.128h-0.43888v1.0972z" fill="#fff" stroke-width=".28222"/>
    </g>
    <g enable-background="new" aria-label="A">
     <path d="m31.09 92.765q0.0194 0.07761-0.0194 0.14358-0.03492 0.06597-0.10866 0.08537-0.07761 0.0194-0.14358-0.0194-0.06597-0.03493-0.08537-0.10866-0.01552-0.04657-0.03104-0.11254-0.01552-0.05433-0.0388-0.12806-0.0194-0.07761-0.04269-0.16686h-0.6597q-0.02716 0.08925-0.04657 0.16686-0.0194 0.07373-0.03493 0.12806-0.01552 0.06597-0.03104 0.11254-0.0194 0.07373-0.08537 0.10866-0.06597 0.03881-0.14358 0.0194-0.07373-0.0194-0.11254-0.08537-0.03493-0.06597-0.01552-0.14358l0.62088-2.2507q0.01552-0.06209 0.06209-0.09701 0.05045-0.0388 0.11642-0.0388 0.06597 0 0.11254 0.0388 0.05045 0.03493 0.06597 0.09701zm-0.57432-0.6791q-0.05433-0.20179-0.11254-0.41522-0.05821-0.21343-0.11254-0.40358-0.05433 0.19015-0.11254 0.40358-0.05821 0.21343-0.11254 0.41522z" fill="#fff" stroke-width=".28222"/>
    </g>
    <g enable-background="new" aria-label="B">
     <path d="m53.348 91.185q0 0.13582-0.05433 0.25612-0.05433 0.1203-0.14358 0.20955 0.08925 0.08925 0.14358 0.20955 0.05433 0.1203 0.05433 0.25612v0.21731q0 0.13582-0.05433 0.25612-0.05045 0.11642-0.1397 0.20567-0.08537 0.08925-0.20567 0.1397-0.1203 0.05045-0.25224 0.05045h-0.46567q-0.07761 0-0.13194-0.05433-0.05433-0.05433-0.05433-0.13194v-2.2197q0-0.07761 0.05433-0.13194 0.05433-0.05433 0.13194-0.05433h0.46567q0.13194 0 0.25224 0.05045 0.1203 0.05045 0.20567 0.1397 0.08925 0.08925 0.1397 0.20955 0.05433 0.11642 0.05433 0.25224v0.1397zm-0.37253 0.93134q0-0.11642-0.08149-0.19791-0.08149-0.08149-0.19791-0.08149h-0.2794v0.77611h0.2794q0.11642 0 0.19791-0.08149 0.08149-0.08149 0.08149-0.19791v-0.21731zm-0.2794-0.65193q0.11642 0 0.19791-0.08149 0.08149-0.08149 0.08149-0.19791v-0.1397q0-0.11642-0.08149-0.19791-0.08149-0.08149-0.19791-0.08149h-0.2794v0.6985z" fill="#fff" stroke-width=".28222"/>
    </g>
   </g>
   <path d="m50.869 89.77c1.2118-3e-3 2.4237-8e-3 3.6355-8e-3v-1.1863z" stroke="url(#linearGradient67269)" stroke-linecap="round" stroke-width=".05842"/>
   <g stroke-width=".28222">
    <g enable-background="new" aria-label="CV 2">
     <path d="m33.1 22.588q-0.10478-0.02716-0.19403-0.08537-0.08925-0.06209-0.15522-0.14358-0.06209-0.08537-0.09701-0.18627-0.03493-0.1009-0.03493-0.21343v-1.3194q0-0.10866 0.03493-0.20955 0.03493-0.10478 0.09701-0.18627 0.06597-0.08537 0.15522-0.14358 0.08925-0.06209 0.19403-0.08925 0.21731-0.05821 0.4191 0.02716 0.20179 0.08149 0.31432 0.27552 0.04269 0.06597 0.0194 0.1397-0.0194 0.07373-0.08537 0.11642-0.06597 0.0388-0.1397 0.0194-0.07373-0.02328-0.11642-0.08925-0.04657-0.08149-0.13582-0.11642-0.08537-0.03881-0.1785-0.01164-0.08925 0.02328-0.14746 0.1009-0.05821 0.07373-0.05821 0.16686v1.3194q0 0.09701 0.05821 0.17074 0.05821 0.07373 0.14746 0.10089 0.09313 0.02328 0.1785-0.01164 0.08925-0.03881 0.13582-0.1203 0.04269-0.06597 0.11642-0.08537 0.07373-0.02328 0.1397 0.01552 0.06597 0.04269 0.08537 0.11642 0.02328 0.07373-0.0194 0.1397-0.11254 0.19403-0.31432 0.27552-0.20179 0.08537-0.4191 0.02716z"/>
     <path d="m34.013 20.224q-0.0194-0.07761 0.01552-0.14358 0.0388-0.06597 0.11642-0.08537 0.07373-0.0194 0.1397 0.0194 0.06985 0.03493 0.08925 0.10866 0.07373 0.27552 0.15134 0.55492 0.06597 0.2406 0.14358 0.52 0.07761 0.2794 0.14746 0.52776 0.06597-0.24836 0.14358-0.52776 0.07761-0.2794 0.14358-0.52 0.07373-0.2794 0.15134-0.55492 0.0194-0.07373 0.08537-0.10866 0.06985-0.03881 0.14358-0.0194 0.07761 0.0194 0.11254 0.08537 0.03881 0.06597 0.0194 0.14358l-0.62089 2.2507q-0.0194 0.06209-0.06985 0.09701-0.04657 0.0388-0.10866 0.0388-0.06597 0-0.11642-0.0388-0.04657-0.03493-0.06597-0.09701z"/>
     <path d="m36.662 20.57q-0.06597-0.04269-0.08925-0.11642-0.0194-0.07373 0.0194-0.1397 0.13194-0.22895 0.39194-0.30268 0.12418-0.03493 0.24836-0.0194 0.12806 0.01552 0.2406 0.07761 0.23283 0.12418 0.31044 0.38418 0.03492 0.12418 0.02328 0.25224-0.01164 0.12418-0.06985 0.23672-0.13582 0.26-0.26388 0.50059-0.05433 0.10478-0.11254 0.21343-0.05433 0.10866-0.11254 0.21343-0.05433 0.1009-0.10478 0.19403-0.04657 0.08925-0.08149 0.1591h0.56268q0.07761 0 0.13194 0.05433 0.05433 0.05433 0.05433 0.13194 0 0.07761-0.05433 0.13194-0.05433 0.05433-0.13194 0.05433h-0.86924q-0.1009 0-0.1591-0.08925-0.05045-0.08537-0.0078-0.18239l0.8188-1.5522q0.05045-0.10478 0.0194-0.21343-0.03493-0.10866-0.13194-0.16298-0.10089-0.05433-0.21343-0.02328-0.10478 0.03104-0.16686 0.12806-0.03881 0.06597-0.11254 0.08925-0.07373 0.0194-0.1397-0.0194z"/>
    </g>
    <g enable-background="new" aria-label="CV 3">
     <path d="m43.127 22.588q-0.10478-0.02716-0.19403-0.08537-0.08925-0.06209-0.15522-0.14358-0.06209-0.08537-0.09701-0.18627-0.03493-0.1009-0.03493-0.21343v-1.3194q0-0.10866 0.03493-0.20955 0.03492-0.10478 0.09701-0.18627 0.06597-0.08537 0.15522-0.14358 0.08925-0.06209 0.19403-0.08925 0.21731-0.05821 0.4191 0.02716 0.20179 0.08149 0.31433 0.27552 0.04269 0.06597 0.0194 0.1397-0.0194 0.07373-0.08537 0.11642-0.06597 0.0388-0.1397 0.0194-0.07373-0.02328-0.11642-0.08925-0.04657-0.08149-0.13582-0.11642-0.08537-0.03881-0.17851-0.01164-0.08925 0.02328-0.14746 0.1009-0.05821 0.07373-0.05821 0.16686v1.3194q0 0.09701 0.05821 0.17074 0.05821 0.07373 0.14746 0.10089 0.09313 0.02328 0.17851-0.01164 0.08925-0.03881 0.13582-0.1203 0.04269-0.06597 0.11642-0.08537 0.07373-0.02328 0.1397 0.01552 0.06597 0.04269 0.08537 0.11642 0.02328 0.07373-0.0194 0.1397-0.11254 0.19403-0.31433 0.27552-0.20179 0.08537-0.4191 0.02716z"/>
     <path d="m44.04 20.224q-0.0194-0.07761 0.01552-0.14358 0.03881-0.06597 0.11642-0.08537 0.07373-0.0194 0.1397 0.0194 0.06985 0.03493 0.08925 0.10866 0.07373 0.27552 0.15134 0.55492 0.06597 0.2406 0.14358 0.52 0.07761 0.2794 0.14746 0.52776 0.06597-0.24836 0.14358-0.52776 0.07761-0.2794 0.14358-0.52 0.07373-0.2794 0.15134-0.55492 0.0194-0.07373 0.08537-0.10866 0.06985-0.03881 0.14358-0.0194 0.07761 0.0194 0.11254 0.08537 0.03881 0.06597 0.0194 0.14358l-0.62089 2.2507q-0.0194 0.06209-0.06985 0.09701-0.04657 0.0388-0.10866 0.0388-0.06597 0-0.11642-0.0388-0.04657-0.03493-0.06597-0.09701z"/>
     <path d="m47.205 22.231q0.08925-0.02716 0.14746-0.10089 0.05821-0.07373 0.05821-0.17074v-0.23283q0-0.11642-0.08149-0.19791-0.08149-0.08149-0.19791-0.08149-0.07761 0-0.13194-0.05433-0.05433-0.05433-0.05433-0.13194 0-0.07761 0.05433-0.13194 0.05433-0.05433 0.13194-0.05433 0.11642 0 0.19791-0.08149 0.08149-0.08149 0.08149-0.19791v-0.15522q0-0.09313-0.05821-0.16686-0.05821-0.07761-0.14746-0.1009-0.09313-0.02716-0.18239 0.01164-0.08537 0.03492-0.13194 0.11642-0.04269 0.06597-0.11642 0.08925-0.07373 0.0194-0.1397-0.0194-0.06597-0.04269-0.08925-0.11642-0.0194-0.07373 0.0194-0.1397 0.05433-0.09701 0.13582-0.16686 0.08149-0.06985 0.17851-0.10866 0.09701-0.04269 0.20567-0.04657 0.10866-0.0078 0.21343 0.0194 0.10866 0.02716 0.19791 0.08925 0.08925 0.05821 0.15134 0.14358 0.06597 0.08149 0.10089 0.18627 0.03493 0.10089 0.03493 0.20955v0.15522q0 0.13582-0.05433 0.25612-0.05045 0.1203-0.14358 0.20955 0.09313 0.08925 0.14358 0.20955 0.05433 0.1203 0.05433 0.25612v0.23283q0 0.11254-0.03493 0.21343t-0.10089 0.18627q-0.06209 0.08149-0.15134 0.14358-0.08925 0.05821-0.19791 0.08537-0.10478 0.03104-0.21343 0.02328-0.10866-0.0078-0.20567-0.05045-0.09701-0.03881-0.17851-0.10866-0.08149-0.06985-0.13582-0.16686-0.03881-0.06597-0.0194-0.1397 0.02328-0.07373 0.08925-0.11642 0.06597-0.0388 0.1397-0.01552 0.07373 0.0194 0.11642 0.08537 0.04657 0.08149 0.13194 0.1203 0.08925 0.03493 0.18239 0.01164z"/>
    </g>
    <g enable-background="new" aria-label="CV 4">
     <path d="m53.026 22.588q-0.10478-0.02716-0.19403-0.08537-0.08925-0.06209-0.15522-0.14358-0.06209-0.08537-0.09701-0.18627-0.03493-0.1009-0.03493-0.21343v-1.3194q0-0.10866 0.03493-0.20955 0.03493-0.10478 0.09701-0.18627 0.06597-0.08537 0.15522-0.14358 0.08925-0.06209 0.19403-0.08925 0.21731-0.05821 0.4191 0.02716 0.20179 0.08149 0.31432 0.27552 0.04269 0.06597 0.0194 0.1397-0.0194 0.07373-0.08537 0.11642-0.06597 0.0388-0.1397 0.0194-0.07373-0.02328-0.11642-0.08925-0.04657-0.08149-0.13582-0.11642-0.08537-0.03881-0.17851-0.01164-0.08925 0.02328-0.14746 0.1009-0.05821 0.07373-0.05821 0.16686v1.3194q0 0.09701 0.05821 0.17074 0.05821 0.07373 0.14746 0.10089 0.09313 0.02328 0.17851-0.01164 0.08925-0.03881 0.13582-0.1203 0.04269-0.06597 0.11642-0.08537 0.07373-0.02328 0.1397 0.01552 0.06597 0.04269 0.08537 0.11642 0.02328 0.07373-0.0194 0.1397-0.11254 0.19403-0.31432 0.27552-0.20179 0.08537-0.4191 0.02716z"/>
     <path d="m53.939 20.224q-0.0194-0.07761 0.01552-0.14358 0.03881-0.06597 0.11642-0.08537 0.07373-0.0194 0.1397 0.0194 0.06985 0.03493 0.08925 0.10866 0.07373 0.27552 0.15134 0.55492 0.06597 0.2406 0.14358 0.52 0.07761 0.2794 0.14746 0.52776 0.06597-0.24836 0.14358-0.52776 0.07761-0.2794 0.14358-0.52 0.07373-0.2794 0.15134-0.55492 0.0194-0.07373 0.08537-0.10866 0.06985-0.03881 0.14358-0.0194 0.07761 0.0194 0.11254 0.08537 0.0388 0.06597 0.0194 0.14358l-0.62089 2.2507q-0.0194 0.06209-0.06985 0.09701-0.04657 0.0388-0.10866 0.0388-0.06597 0-0.11642-0.0388-0.04657-0.03493-0.06597-0.09701z"/>
     <path d="m56.612 22.068q-0.09701 0-0.15134-0.07761-0.05433-0.06985-0.02716-0.16686l0.54328-1.7074q0.02328-0.07373 0.08925-0.10866 0.06985-0.03493 0.14746-0.01164 0.05821 0.0194 0.09313 0.06985 0.03493 0.05045 0.03493 0.10866 0 0.0194-0.0078 0.05821-0.10089 0.31432-0.19015 0.59761-0.03881 0.1203-0.07761 0.24836-0.03881 0.12418-0.07761 0.2406-0.03881 0.11254-0.06985 0.21343-0.03104 0.09701-0.05045 0.16298h0.33373v-0.35701q0-0.07761 0.05433-0.13194 0.05433-0.05433 0.13194-0.05433 0.07761 0 0.13194 0.05433 0.05433 0.05433 0.05433 0.13194v0.35701h0.12421q0.07761 0 0.13194 0.05433 0.05433 0.05433 0.05433 0.13194 0 0.07761-0.05433 0.13194-0.05433 0.05433-0.13194 0.05433h-0.12418v0.35701q0 0.07761-0.05433 0.13194-0.05433 0.05433-0.13194 0.05433-0.07761 0-0.13194-0.05433-0.05433-0.05433-0.05433-0.13194v-0.35701h-0.58984z"/>
    </g>
   </g>
  </g>
  <g fill="#ffffff" font-family="Miso" font-size="3.3867px" font-stretch="condensed" font-weight="bold" letter-spacing="-.014246px" stroke-width=".28222" word-spacing="0px">
   <text x="21.431488" y="83.44014" enable-background="new" style="line-height:0%" xml:space="preserve"><tspan x="21.431488" y="83.44014" fill="#ffffff" font-size="4.5861px" stroke-width=".28222" style="line-height:1.25">4</tspan></text>
   <text x="21.431488" y="66.981445" enable-background="new" style="line-height:0%" xml:space="preserve"><tspan x="21.431488" y="66.981445" fill="#ffffff" font-size="4.5861px" stroke-width=".28222" style="line-height:1.25">3</tspan></text>
   <text x="21.431488" y="49.484905" enable-background="new" style="line-height:0%" xml:space="preserve"><tspan x="21.431488" y="49.484905" fill="#ffffff" font-size="4.5861px" stroke-width=".28222" style="line-height:1.25">2</tspan></text>
   <text x="21.431488" y="33.344585" enable-background="new" style="line-height:0%" xml:space="preserve"><tspan x="21.431488" y="33.344585" fill="#ffffff" font-size="4.5861px" stroke-width=".28222" style="line-height:1.25">1</tspan></text>
  </g>
  <g fill="none" stroke="#fff" stroke-linecap="round" stroke-width=".2731">
   <rect x="39.354" y="27.663" width="4.1783" height="7.674" rx=".63522" ry=".63522"/>
   <rect x="39.354" y="45.163" width="4.1783" height="7.674" rx=".63522" ry=".63522"/>
   <rect x="39.354" y="62.663" width="4.1783" height="7.674" rx=".63522" ry=".63522"/>
   <rect x="39.354" y="80.213" width="4.1783" height="7.674" rx=".63522" ry=".63522"/>
  </g>
  <g transform="matrix(-.26458 0 0 .26458 181.16 -39.558)">
   <path transform="scale(-1,1)" d="m-581.9 285.58a23.453 23.455 0 0 1-11.177-26.423 23.453 23.455 0 0 1 22.753-17.474 23.453 23.455 0 0 1 22.641 17.619 23.453 23.455 0 0 1-11.346 26.351" enable-background="new" fill="none" stroke="#fff" stroke-width="1.5118"/>
   <path d="m557.99 282.95c1.11-0.64082 2.5295-0.26046 3.1704 0.84945 0.64092 1.1101 0.26053 2.5297-0.84945 3.1704-1.1101 0.64096-2.5296 0.2606-3.1704-0.84945-0.64094-1.11-0.26057-2.5295 0.84946-3.1704" enable-background="new" fill="#fff"/>
   <path d="m579.47 284.96c9e-5 -1.2819 1.0394-2.3212 2.3213-2.3212 1.282 8e-5 2.3213 1.0394 2.3213 2.3213 4e-5 1.282-1.0392 2.3213-2.3213 2.3213-1.2819 4e-5 -2.3212-1.0393-2.3213-2.3213" enable-background="new" fill="#fff"/>
  </g>
  <g transform="matrix(-.26458 0 0 .26458 181.16 -22.152)">
   <path transform="scale(-1,1)" d="m-581.9 285.58a23.453 23.455 0 0 1-11.177-26.423 23.453 23.455 0 0 1 22.753-17.474 23.453 23.455 0 0 1 22.641 17.619 23.453 23.455 0 0 1-11.346 26.351" enable-background="new" fill="none" stroke="#fff" stroke-width="1.5118"/>
   <path d="m557.99 282.95c1.11-0.64082 2.5295-0.26046 3.1704 0.84945 0.64092 1.1101 0.26053 2.5297-0.84945 3.1704-1.1101 0.64096-2.5296 0.2606-3.1704-0.84945-0.64094-1.11-0.26057-2.5295 0.84946-3.1704" enable-background="new" fill="#fff"/>
   <path d="m579.47 284.96c9e-5 -1.2819 1.0394-2.3212 2.3213-2.3212 1.282 8e-5 2.3213 1.0394 2.3213 2.3213 4e-5 1.282-1.0392 2.3213-2.3213 2.3213-1.2819 4e-5 -2.3212-1.0393-2.3213-2.3213" enable-background="new" fill="#fff"/>
  </g>
  <g transform="matrix(-.26458 0 0 .26458 203.56 -39.652)">
   <path transform="scale(-1,1)" d="m-581.9 285.58a23.453 23.455 0 0 1-11.177-26.423 23.453 23.455 0 0 1 22.753-17.474 23.453 23.455 0 0 1 22.641 17.619 23.453 23.455 0 0 1-11.346 26.351" enable-background="new" fill="none" stroke="#fff" stroke-width="1.5118"/>
   <path d="m557.99 282.95c1.11-0.64082 2.5295-0.26046 3.1704 0.84945 0.64092 1.1101 0.26053 2.5297-0.84945 3.1704-1.1101 0.64096-2.5296 0.2606-3.1704-0.84945-0.64094-1.11-0.26057-2.5295 0.84946-3.1704" enable-background="new" fill="#fff"/>
   <path d="m579.47 284.96c9e-5 -1.2819 1.0394-2.3212 2.3213-2.3212 1.282 8e-5 2.3213 1.0394 2.3213 2.3213 4e-5 1.282-1.0392 2.3213-2.3213 2.3213-1.2819 4e-5 -2.3212-1.0393-2.3213-2.3213" enable-background="new" fill="#fff"/>
  </g>
  <g transform="matrix(-.26458 0 0 .26458 203.56 -22.152)">
   <path transform="scale(-1,1)" d="m-581.9 285.58a23.453 23.455 0 0 1-11.177-26.423 23.453 23.455 0 0 1 22.753-17.474 23.453 23.455 0 0 1 22.641 17.619 23.453 23.455 0 0 1-11.346 26.351" enable-background="new" fill="none" stroke="#fff" stroke-width="1.5118"/>
   <path d="m557.99 282.95c1.11-0.64082 2.5295-0.26046 3.1704 0.84945 0.64092 1.1101 0.26053 2.5297-0.84945 3.1704-1.1101 0.64096-2.5296 0.2606-3.1704-0.84945-0.64094-1.11-0.26057-2.5295 0.84946-3.1704" enable-background="new" fill="#fff"/>
   <path d="m579.47 284.96c9e-5 -1.2819 1.0394-2.3212 2.3213-2.3212 1.282 8e-5 2.3213 1.0394 2.3213 2.3213 4e-5 1.282-1.0392 2.3213-2.3213 2.3213-1.2819 4e-5 -2.3212-1.0393-2.3213-2.3213" enable-background="new" fill="#fff"/>
  </g>
  <g transform="matrix(-.26458 0 0 .26458 203.56 -4.6516)">
   <path transform="scale(-1,1)" d="m-581.9 285.58a23.453 23.455 0 0 1-11.177-26.423 23.453 23.455 0 0 1 22.753-17.474 23.453 23.455 0 0 1 22.641 17.619 23.453 23.455 0 0 1-11.346 26.351" enable-background="new" fill="none" stroke="#fff" stroke-width="1.5118"/>
   <path d="m557.99 282.95c1.11-0.64082 2.5295-0.26046 3.1704 0.84945 0.64092 1.1101 0.26053 2.5297-0.84945 3.1704-1.1101 0.64096-2.5296 0.2606-3.1704-0.84945-0.64094-1.11-0.26057-2.5295 0.84946-3.1704" enable-background="new" fill="#fff"/>
   <path d="m579.47 284.96c9e-5 -1.2819 1.0394-2.3212 2.3213-2.3212 1.282 8e-5 2.3213 1.0394 2.3213 2.3213 4e-5 1.282-1.0392 2.3213-2.3213 2.3213-1.2819 4e-5 -2.3212-1.0393-2.3213-2.3213" enable-background="new" fill="#fff"/>
  </g>
  <g transform="matrix(-.26458 0 0 .26458 181.16 -4.6516)">
   <path transform="scale(-1,1)" d="m-581.9 285.58a23.453 23.455 0 0 1-11.177-26.423 23.453 23.455 0 0 1 22.753-17.474 23.453 23.455 0 0 1 22.641 17.619 23.453 23.455 0 0 1-11.346 26.351" enable-background="new" fill="none" stroke="#fff" stroke-width="1.5118"/>
   <path d="m557.99 282.95c1.11-0.64082 2.5295-0.26046 3.1704 0.84945 0.64092 1.1101 0.26053 2.5297-0.84945 3.1704-1.1101 0.64096-2.5296 0.2606-3.1704-0.84945-0.64094-1.11-0.26057-2.5295 0.84946-3.1704" enable-background="new" fill="#fff"/>
   <path d="m579.47 284.96c9e-5 -1.2819 1.0394-2.3212 2.3213-2.3212 1.282 8e-5 2.3213 1.0394 2.3213 2.3213 4e-5 1.282-1.0392 2.3213-2.3213 2.3213-1.2819 4e-5 -2.3212-1.0393-2.3213-2.3213" enable-background="new" fill="#fff"/>
  </g>
  <g transform="matrix(-.26458 0 0 .26458 181.16 12.898)">
   <path transform="scale(-1,1)" d="m-581.9 285.58a23.453 23.455 0 0 1-11.177-26.423 23.453 23.455 0 0 1 22.753-17.474 23.453 23.455 0 0 1 22.641 17.619 23.453 23.455 0 0 1-11.346 26.351" enable-background="new" fill="none" stroke="#fff" stroke-width="1.5118"/>
   <path d="m557.99 282.95c1.11-0.64082 2.5295-0.26046 3.1704 0.84945 0.64092 1.1101 0.26053 2.5297-0.84945 3.1704-1.1101 0.64096-2.5296 0.2606-3.1704-0.84945-0.64094-1.11-0.26057-2.5295 0.84946-3.1704" enable-background="new" fill="#fff"/>
   <path d="m579.47 284.96c9e-5 -1.2819 1.0394-2.3212 2.3213-2.3212 1.282 8e-5 2.3213 1.0394 2.3213 2.3213 4e-5 1.282-1.0392 2.3213-2.3213 2.3213-1.2819 4e-5 -2.3212-1.0393-2.3213-2.3213" enable-background="new" fill="#fff"/>
  </g>
  <g transform="matrix(-.26458 0 0 .26458 203.56 12.898)">
   <path transform="scale(-1,1)" d="m-581.9 285.58a23.453 23.455 0 0 1-11.177-26.423 23.453 23.455 0 0 1 22.753-17.474 23.453 23.455 0 0 1 22.641 17.619 23.453 23.455 0 0 1-11.346 26.351" enable-background="new" fill="none" stroke="#fff" stroke-width="1.5118"/>
   <path d="m557.99 282.95c1.11-0.64082 2.5295-0.26046 3.1704 0.84945 0.64092 1.1101 0.26053 2.5297-0.84945 3.1704-1.1101 0.64096-2.5296 0.2606-3.1704-0.84945-0.64094-1.11-0.26057-2.5295 0.84946-3.1704" enable-background="new" fill="#fff"/>
   <path d="m579.47 284.96c9e-5 -1.2819 1.0394-2.3212 2.3213-2.3212 1.282 8e-5 2.3213 1.0394 2.3213 2.3213 4e-5 1.282-1.0392 2.3213-2.3213 2.3213-1.2819 4e-5 -2.3212-1.0393-2.3213-2.3213" enable-background="new" fill="#fff"/>
  </g>
  <g transform="matrix(-.26458 0 0 .26458 161.74 29.068)">
   <path transform="scale(-1,1)" d="m-581.9 285.58a23.453 23.455 0 0 1-11.177-26.423 23.453 23.455 0 0 1 22.753-17.474 23.453 23.455 0 0 1 22.641 17.619 23.453 23.455 0 0 1-11.346 26.351" enable-background="new" fill="none" stroke="#fff" stroke-width="1.5118"/>
   <path d="m557.99 282.95c1.11-0.64082 2.5295-0.26046 3.1704 0.84945 0.64092 1.1101 0.26053 2.5297-0.84945 3.1704-1.1101 0.64096-2.5296 0.2606-3.1704-0.84945-0.64094-1.11-0.26057-2.5295 0.84946-3.1704" enable-background="new" fill="#fff"/>
   <path d="m579.47 284.96c9e-5 -1.2819 1.0394-2.3212 2.3213-2.3212 1.282 8e-5 2.3213 1.0394 2.3213 2.3213 4e-5 1.282-1.0392 2.3213-2.3213 2.3213-1.2819 4e-5 -2.3212-1.0393-2.3213-2.3213" enable-background="new" fill="#fff"/>
  </g>
  <g transform="matrix(-.26458 0 0 .26458 161.74 -55.065)">
   <path transform="scale(-1,1)" d="m-581.9 285.58a23.453 23.455 0 0 1-11.177-26.423 23.453 23.455 0 0 1 22.753-17.474 23.453 23.455 0 0 1 22.641 17.619 23.453 23.455 0 0 1-11.346 26.351" enable-background="new" fill="none" stroke="#fff" stroke-width="1.5118"/>
   <path d="m557.99 282.95c1.11-0.64082 2.5295-0.26046 3.1704 0.84945 0.64092 1.1101 0.26053 2.5297-0.84945 3.1704-1.1101 0.64096-2.5296 0.2606-3.1704-0.84945-0.64094-1.11-0.26057-2.5295 0.84946-3.1704" enable-background="new" fill="#fff"/>
   <path d="m579.47 284.96c9e-5 -1.2819 1.0394-2.3212 2.3213-2.3212 1.282 8e-5 2.3213 1.0394 2.3213 2.3213 4e-5 1.282-1.0392 2.3213-2.3213 2.3213-1.2819 4e-5 -2.3212-1.0393-2.3213-2.3213" enable-background="new" fill="#fff"/>
  </g>
 </g>
 <g display="none">
  <rect x="39.775" y="28.107" width="2.6494" height="5.4436" fill="#f00" stroke-linejoin="round" stroke-width=".435"/>
  <rect x="39.708" y="45.627" width="2.6494" height="5.4436" display="inline" fill="#f00" stroke-linejoin="round" stroke-width=".435"/>
  <g transform="matrix(-.33073 0 0 .33073 111.74 28.111)" display="inline">
   <g>
    <rect transform="matrix(0,-1,-1,0,0,0)" x="-177.37" y="-216.56" width="16.459" height="8.0108" fill="#232323"/>
    <rect transform="matrix(0,-1,-1,0,0,0)" x="-177.37" y="-216.56" width="16.459" height="8.0108" fill="#404040" stroke="#000" stroke-linecap="round" stroke-linejoin="round" stroke-width=".40508"/>
    <rect transform="matrix(0,-1,-1,0,0,0)" x="-168.25" y="-215.75" width="6.561" height="6.418" fill="#8c8c8c"/>
   </g>
   <g fill="none" stroke="#000" stroke-linejoin="round">
    <rect transform="matrix(0,-1,-1,0,0,0)" x="-168.25" y="-215.75" width="6.561" height="6.418" stroke-linecap="round" stroke-width=".52563"/>
    <g stroke-linecap="square" stroke-width="1.0513">
     <line x1="215.45" x2="209.59" y1="166.52" y2="166.52"/>
     <line x1="215.51" x2="209.65" y1="164.93" y2="164.93"/>
     <line x1="215.51" x2="209.65" y1="163.2" y2="163.2"/>
    </g>
   </g>
  </g>
  <g fill="#f0f">
   <circle cx="37.594" cy="76.918" r="1" display="inline"/>
   <circle cx="45.332" cy="76.918" r="1" display="inline"/>
   <circle cx="37.594" cy="59.488" r="1" display="inline"/>
   <circle cx="45.332" cy="59.488" r="1" display="inline"/>
   <circle cx="37.594" cy="41.908" r="1" display="inline"/>
   <circle cx="45.332" cy="41.908" r="1" display="inline"/>
   <circle cx="37.594" cy="24.378" r="1" display="inline"/>
   <circle cx="45.332" cy="24.378" r="1" display="inline"/>
  </g>
  <g fill="#f00" stroke-linejoin="round" stroke-width=".435">
   <circle cx="10.817" cy="15.075" r="2.1382"/>
   <circle cx="30.243" cy="30.537" r="2.1382" display="inline"/>
   <circle cx="52.696" cy="30.537" r="2.1382" display="inline"/>
   <circle cx="30.243" cy="48.017" r="2.1382" display="inline"/>
   <circle cx="52.696" cy="48.017" r="2.1382" display="inline"/>
   <circle cx="30.243" cy="65.523" r="2.1382" display="inline"/>
   <circle cx="52.696" cy="65.523" r="2.1382" display="inline"/>
   <circle cx="30.243" cy="83.051" r="2.1382" display="inline"/>
   <circle cx="52.696" cy="83.051" r="2.1382" display="inline"/>
   <circle cx="10.817" cy="99.242" r="2.1382" display="inline"/>
  </g>
  <g fill="#0f0" stroke-linejoin="round" stroke-width=".435">
   <circle cx="5.7773" cy="32.497" r="2.1382" display="inline"/>
   <circle cx="5.8117" cy="48.017" r="2.1382" display="inline"/>
   <circle cx="5.8117" cy="65.523" r="2.1382" display="inline"/>
   <circle cx="5.7857" cy="81.185" r="2.1382" display="inline"/>
   <circle cx="15.785" cy="81.185" r="2.1382" display="inline"/>
   <circle cx="15.791" cy="65.523" r="2.1382" display="inline"/>
   <circle cx="15.791" cy="48.017" r="2.1382" display="inline"/>
   <circle cx="15.762" cy="32.497" r="2.1382" display="inline"/>
   <circle cx="25.214" cy="14.746" r="2.1382" display="inline"/>
   <circle cx="35.213" cy="14.746" r="2.1382" display="inline"/>
   <circle cx="45.236" cy="14.746" r="2.1382" display="inline"/>
   <circle cx="55.212" cy="14.746" r="2.1382" display="inline"/>
  </g>
  <g fill="#00f" stroke-linejoin="round" stroke-width=".435">
   <circle cx="25.177" cy="100.48" r="2.1382" display="inline"/>
   <circle cx="35.177" cy="100.5" r="2.1382" display="inline"/>
   <circle cx="45.177" cy="100.51" r="2.1382" display="inline"/>
   <circle cx="55.176" cy="100.48" r="2.1382" display="inline"/>
  </g>
  <rect x="39.708" y="63.146" width="2.6494" height="5.4436" display="inline" fill="#f00" stroke-linejoin="round" stroke-width=".435"/>
  <rect x="39.775" y="80.666" width="2.6494" height="5.4436" display="inline" fill="#f00" stroke-linejoin="round" stroke-width=".435"/>
  <g transform="matrix(0 .26458 .26458 0 -23.361 107.74)" display="inline">
   <rect x="20.156" y="128.23" width="8.6812" height="149.15" rx="4.3406" ry="5.9719" display="inline" fill="#333" stroke="#000" stroke-width=".33636"/>
   <g transform="translate(-167.14 -255.25)" display="inline"></g>
  </g>
 </g>
</svg>
