<?xml version="1.0" encoding="UTF-8"?>
<svg width="30.48mm" height="128.5mm" version="1.1" viewBox="0 0 30.48 128.5" xmlns="http://www.w3.org/2000/svg" xmlns:cc="http://creativecommons.org/ns#" xmlns:dc="http://purl.org/dc/elements/1.1/" xmlns:rdf="http://www.w3.org/1999/02/22-rdf-syntax-ns#">
 <metadata>
  <rdf:RDF>
   <cc:Work rdf:about="">
    <dc:format>image/svg+xml</dc:format>
    <dc:type rdf:resource="http://purl.org/dc/dcmitype/StillImage"/>
   </cc:Work>
  </rdf:RDF>
 </metadata>
 <g>
  <g transform="matrix(.21231 0 0 .28219 .0060877 .10981)" stroke="#171717" stroke-width="1.0896">
   <path d="m0.35433 7.5653e-6h142.8v454.61h-142.8z" fill="#171717" stroke="#171717" stroke-linejoin="round" stroke-width=".77213"/>
  </g>
  <g fill="#fff">
   <g stroke-width=".22385" aria-label="MOTION MTR  ">
    <path d="m11.085 127.05c0.0767 0 0.14438-0.0587 0.14438-0.14438v-1.9717c0.10377 0.23011 0.21657 0.46473 0.3023 0.64521 0.04963 0.10377 0.09926 0.20754 0.14438 0.3068 0.02256 0.0541 0.06768 0.0812 0.13084 0.0812 0.05865 0 0.09926-0.0271 0.13084-0.0812 0.04512-0.0993 0.09475-0.20303 0.14438-0.3068 0.08573-0.18048 0.19401-0.4151 0.3023-0.64521v1.9717c0 0.0857 0.05865 0.14438 0.14438 0.14438 0.0767 0 0.14438-0.0587 0.14438-0.14438v-2.6169c0-0.0677-0.04512-0.12633-0.1128-0.13986-0.06768-0.0135-0.13084 0.018-0.16243 0.0767-0.0767 0.16694-0.1534 0.32937-0.23011 0.48728-0.13084 0.2662-0.27523 0.58655-0.36095 0.77154-0.09024-0.18499-0.23462-0.50082-0.36095-0.77154-0.0767-0.15791-0.1534-0.32034-0.23011-0.48728-0.03158-0.0587-0.09475-0.0902-0.16243-0.0767-0.06768 0.0135-0.1128 0.0722-0.1128 0.13986v2.6169c0 0.0857 0.05865 0.14438 0.14438 0.14438z"/>
    <path d="m13.919 127.05c0.379 0 0.68581-0.30681 0.68581-0.68581v-1.534c0-0.379-0.30681-0.68581-0.68581-0.68581-0.379 0-0.68581 0.30681-0.68581 0.68581v1.534c0 0.379 0.30681 0.68581 0.68581 0.68581zm0-2.6169c0.21657 0 0.39705 0.18048 0.39705 0.39705v1.534c0 0.22109-0.18048 0.39705-0.39705 0.39705-0.22108 0-0.39705-0.17596-0.39705-0.39705v-1.534c0-0.21657 0.17596-0.39705 0.39705-0.39705z"/>
    <path d="m16.211 124.16h-1.1731c-0.0767 0-0.14438 0.0587-0.14438 0.14438 0 0.0857 0.06768 0.14438 0.14438 0.14438h0.44216v2.4545c0 0.0857 0.06768 0.14438 0.14438 0.14438 0.08573 0 0.14438-0.0587 0.14438-0.14438v-2.4545h0.44216c0.08573 0 0.14438-0.0587 0.14438-0.14438 0-0.0857-0.05866-0.14438-0.14438-0.14438z"/>
    <path d="m16.933 127.05c0.08573 0 0.14438-0.0587 0.14438-0.14438v-2.6169c0-0.0857-0.05866-0.14438-0.14438-0.14438-0.0767 0-0.14438 0.0587-0.14438 0.14438v2.6169c0 0.0857 0.06768 0.14438 0.14438 0.14438z"/>
    <path d="m18.322 127.05c0.379 0 0.68581-0.30681 0.68581-0.68581v-1.534c0-0.379-0.30681-0.68581-0.68581-0.68581-0.379 0-0.68581 0.30681-0.68581 0.68581v1.534c0 0.379 0.30681 0.68581 0.68581 0.68581zm0-2.6169c0.21657 0 0.39705 0.18048 0.39705 0.39705v1.534c0 0.22109-0.18048 0.39705-0.39705 0.39705-0.22108 0-0.39705-0.17596-0.39705-0.39705v-1.534c0-0.21657 0.17596-0.39705 0.39705-0.39705z"/>
    <path d="m21.007 127.05c0.06768-0.0135 0.1128-0.0722 0.1128-0.13987v-2.6169c0-0.0857-0.05866-0.14438-0.14438-0.14438-0.08573 0-0.14438 0.0587-0.14438 0.14438v1.9852c-0.16694-0.34742-0.41961-0.86629-0.62264-1.2859-0.12182-0.24816-0.24364-0.50533-0.36546-0.76251-0.03158-0.0587-0.09475-0.0902-0.16243-0.0767-0.06768 0.0135-0.1128 0.0722-0.1128 0.13986v2.6169c0 0.0857 0.05865 0.14438 0.14438 0.14438s0.14438-0.0587 0.14438-0.14438v-1.9852c0.16694 0.34741 0.41509 0.86628 0.61813 1.2859 0.12182 0.24815 0.24364 0.50533 0.36998 0.76251 0.03158 0.0587 0.09475 0.0948 0.16243 0.0767z"/>
    <path d="m22.744 127.05c0.0767 0 0.14438-0.0587 0.14438-0.14438v-1.9717c0.10377 0.23011 0.21657 0.46473 0.3023 0.64521 0.04963 0.10377 0.09926 0.20754 0.14438 0.3068 0.02256 0.0541 0.06768 0.0812 0.13084 0.0812 0.05866 0 0.09926-0.0271 0.13084-0.0812 0.04512-0.0993 0.09475-0.20303 0.14438-0.3068 0.08573-0.18048 0.19401-0.4151 0.3023-0.64521v1.9717c0 0.0857 0.05865 0.14438 0.14438 0.14438 0.0767 0 0.14438-0.0587 0.14438-0.14438v-2.6169c0-0.0677-0.04512-0.12633-0.1128-0.13986-0.06768-0.0135-0.13084 0.018-0.16243 0.0767-0.0767 0.16694-0.1534 0.32937-0.23011 0.48728-0.13084 0.2662-0.27522 0.58655-0.36095 0.77154-0.09024-0.18499-0.23462-0.50082-0.36095-0.77154-0.0767-0.15791-0.1534-0.32034-0.23011-0.48728-0.03158-0.0587-0.09475-0.0902-0.16243-0.0767-0.06768 0.0135-0.1128 0.0722-0.1128 0.13986v2.6169c0 0.0857 0.05865 0.14438 0.14438 0.14438z"/>
    <path d="m26.083 124.16h-1.1731c-0.0767 0-0.14438 0.0587-0.14438 0.14438 0 0.0857 0.06768 0.14438 0.14438 0.14438h0.44216v2.4545c0 0.0857 0.06768 0.14438 0.14438 0.14438 0.08573 0 0.14438-0.0587 0.14438-0.14438v-2.4545h0.44217c0.08573 0 0.14438-0.0587 0.14438-0.14438 0-0.0857-0.05865-0.14438-0.14438-0.14438z"/>
    <path d="m28.032 125.1v-0.25266c0-0.379-0.30681-0.68581-0.68581-0.68581h-0.54143c-0.0767 0-0.14438 0.0587-0.14438 0.14438v2.5988c0 0.0857 0.06768 0.14438 0.14438 0.14438 0.08573 0 0.14438-0.0587 0.14438-0.14438v-1.119h0.36998l0.43314 1.1686c0.03158 0.0767 0.1128 0.11731 0.18499 0.0857 0.0767-0.0316 0.11731-0.1128 0.08573-0.18499l-0.41509-1.119c0.25267-0.10377 0.42412-0.34741 0.42412-0.63618zm-0.68581 0.39705h-0.39705v-1.0468h0.39705c0.22108 0 0.39705 0.18048 0.39705 0.39705v0.25266c0 0.22109-0.17596 0.39705-0.39705 0.39705z"/>
   </g>
   <g stroke-width=".26458">
    <g transform="scale(1.0406 .96097)" aria-label="10V">
     <path d="m3.3661 96.029 0.16453-0.16453v1.2539c0 0.04736 0.032407 0.07977 0.079771 0.07977 0.042378 0 0.07977-0.03241 0.07977-0.07977v-1.4458c0-0.03739-0.01745-0.06232-0.049857-0.07479-0.029914-0.01-0.064814-5e-3 -0.087249 0.01745l-0.29914 0.29914c-0.014957 0.01745-0.022436 0.0349-0.022436 0.05734s0.00748 0.03988 0.022436 0.05733c0.01745 0.01496 0.0349 0.02244 0.057335 0.02244 0.022436 0 0.039885-0.0075 0.054842-0.02244z"/>
     <path d="m4.5769 97.198c0.2069 0 0.37891-0.16951 0.37891-0.37891v-0.84756c0-0.2094-0.17201-0.37891-0.37891-0.37891-0.2094 0-0.37891 0.16951-0.37891 0.37891v0.84756c0 0.2094 0.16951 0.37891 0.37891 0.37891zm0-1.4458c0.11966 0 0.21937 0.09971 0.21937 0.21937v0.84756c0 0.12215-0.099713 0.21937-0.21937 0.21937-0.12215 0-0.21937-0.09722-0.21937-0.21937v-0.84756c0-0.11966 0.09722-0.21937 0.21937-0.21937z"/>
     <path d="m5.1695 95.695 0.39885 1.4458c0.00997 0.03241 0.039885 0.05733 0.077278 0.05733 0.037392 0 0.067306-0.02493 0.074785-0.05733l0.39885-1.4458c0.012464-0.04238-0.012464-0.08725-0.054842-0.09971-0.042378-0.01-0.087249 0.01496-0.09722 0.05733-0.042378 0.15206-0.084756 0.30163-0.12464 0.44622-0.067306 0.2443-0.14957 0.53845-0.19693 0.72043-0.054842-0.18198-0.13212-0.47364-0.19943-0.72043-0.039885-0.14458-0.082263-0.29415-0.12464-0.44622-0.00997-0.04238-0.054842-0.06731-0.09722-0.05733-0.042378 0.01246-0.067306 0.05733-0.054842 0.09971z"/>
    </g>
    <g aria-label="OUT 3">
     <path d="m22.571 120.89c0.28315 0 0.51236-0.22922 0.51236-0.51237v-1.1461c0-0.28315-0.22922-0.51237-0.51236-0.51237s-0.51236 0.22922-0.51236 0.51237v1.1461c0 0.28315 0.22922 0.51237 0.51236 0.51237zm0-1.9551c0.1618 0 0.29663 0.13484 0.29663 0.29664v1.1461c0 0.16518-0.13483 0.29664-0.29663 0.29664-0.16517 0-0.29663-0.13146-0.29663-0.29664v-1.1461c0-0.1618 0.13146-0.29664 0.29663-0.29664z"/>
     <path d="m23.673 120.37v-1.5506c0-0.064-0.05056-0.10787-0.10787-0.10787-0.06405 0-0.10787 0.0438-0.10787 0.10787v1.5506c0 0.28315 0.22922 0.51237 0.51236 0.51237 0.27978 0 0.51236-0.22922 0.51236-0.51237v-1.5506c0-0.064-0.05056-0.10787-0.10787-0.10787-0.06405 0-0.10787 0.0438-0.10787 0.10787v1.5506c0 0.16518-0.13483 0.29664-0.29663 0.29664-0.16517 0-0.29663-0.13146-0.29663-0.29664z"/>
     <path d="m25.746 118.73h-0.87641c-0.0573 0-0.10787 0.0438-0.10787 0.10787 0 0.064 0.05056 0.10787 0.10787 0.10787h0.33034v1.8337c0 0.064 0.05056 0.10787 0.10787 0.10787 0.06405 0 0.10787-0.0438 0.10787-0.10787v-1.8337h0.33034c0.06405 0 0.10787-0.0438 0.10787-0.10787 0-0.064-0.04382-0.10787-0.10787-0.10787z"/>
     <path d="m27.253 120.66c-0.13146 0.0371-0.2663-0.0202-0.33371-0.1382-0.03034-0.0506-0.09775-0.0674-0.14832-0.0405-0.05056 0.0303-0.07079 0.0978-0.04045 0.14832 0.11461 0.20225 0.35394 0.3 0.57641 0.23933 0.22922-0.064 0.3809-0.26293 0.3809-0.49552v-0.20224c0-0.16517-0.07753-0.31012-0.19888-0.4045 0.12135-0.0944 0.19888-0.23933 0.19888-0.4045v-0.13483c0-0.23259-0.15169-0.43147-0.3809-0.49551-0.22584-0.0641-0.45843 0.0404-0.57641 0.23932-0.03034 0.0506-0.01011 0.11798 0.04045 0.14832 0.05056 0.0303 0.11798 0.0101 0.14832-0.0404 0.06742-0.11798 0.20225-0.17528 0.33371-0.1382 0.13146 0.0371 0.2191 0.15168 0.2191 0.28652v0.13483c0 0.16517-0.13483 0.29663-0.29663 0.29663-0.06405 0-0.10787 0.0438-0.10787 0.10787 0 0.064 0.04382 0.10786 0.10787 0.10786 0.1618 0 0.29663 0.13484 0.29663 0.29664v0.20224c0 0.13484-0.08764 0.24945-0.2191 0.28652z"/>
    </g>
    <g aria-label="OUT 2">
     <path d="m12.511 120.89c0.28315 0 0.51236-0.22922 0.51236-0.51236v-1.1461c0-0.28315-0.22922-0.51237-0.51236-0.51237-0.28315 0-0.51236 0.22922-0.51236 0.51237v1.1461c0 0.28314 0.22922 0.51236 0.51236 0.51236zm0-1.9551c0.1618 0 0.29663 0.13484 0.29663 0.29664v1.1461c0 0.16517-0.13483 0.29663-0.29663 0.29663-0.16517 0-0.29663-0.13146-0.29663-0.29663v-1.1461c0-0.1618 0.13146-0.29664 0.29663-0.29664z"/>
     <path d="m13.613 120.37v-1.5506c0-0.064-0.05056-0.10787-0.10787-0.10787-0.06404 0-0.10787 0.0438-0.10787 0.10787v1.5506c0 0.28314 0.22922 0.51236 0.51236 0.51236 0.27978 0 0.51236-0.22922 0.51236-0.51236v-1.5506c0-0.064-0.05056-0.10787-0.10787-0.10787-0.06405 0-0.10787 0.0438-0.10787 0.10787v1.5506c0 0.16517-0.13483 0.29663-0.29663 0.29663-0.16517 0-0.29663-0.13146-0.29663-0.29663z"/>
     <path d="m15.686 118.73h-0.87641c-0.0573 0-0.10787 0.0438-0.10787 0.10786 0 0.0641 0.05056 0.10787 0.10787 0.10787h0.33034v1.8337c0 0.064 0.05056 0.10787 0.10787 0.10787 0.06405 0 0.10787-0.0438 0.10787-0.10787v-1.8337h0.33034c0.06405 0 0.10787-0.0438 0.10787-0.10787 0-0.064-0.04382-0.10786-0.10787-0.10786z"/>
     <path d="m16.758 119.12c0.05056 0.0303 0.11798 0.0101 0.14832-0.0405 0.03708-0.0674 0.09775-0.11461 0.17528-0.1382 0.07753-0.0202 0.15169-0.0101 0.22247 0.027 0.07079 0.0371 0.11798 0.0978 0.14157 0.17529 0.0236 0.0775 0.01685 0.15168-0.02022 0.22247l-0.70787 1.3483c-0.02022 0.0337-0.02022 0.0708 0.0034 0.10786 0.01685 0.0337 0.04719 0.0506 0.09101 0.0506h0.75506c0.0573 0 0.10787-0.0438 0.10787-0.10787 0-0.064-0.05056-0.10787-0.10787-0.10787h-0.57641c0.06405-0.12135 0.2191-0.41798 0.36068-0.68764 0.0809-0.15843 0.16854-0.3236 0.26292-0.50226 0.06405-0.12472 0.07753-0.25618 0.03708-0.38764-0.03708-0.13146-0.12472-0.23596-0.2427-0.3-0.11798-0.064-0.25281-0.0809-0.38427-0.0438-0.13483 0.0337-0.23596 0.11123-0.30674 0.23595-0.03034 0.0506-0.01011 0.11798 0.04045 0.14832z"/>
    </g>
    <g aria-label="OUT 1">
     <path d="m2.6749 120.89c0.28315 0 0.51236-0.22922 0.51236-0.51236v-1.1461c0-0.28315-0.22922-0.51237-0.51236-0.51237-0.28315 0-0.51236 0.22922-0.51236 0.51237v1.1461c0 0.28314 0.22922 0.51236 0.51236 0.51236zm0-1.9551c0.1618 0 0.29663 0.13484 0.29663 0.29664v1.1461c0 0.16517-0.13483 0.29663-0.29663 0.29663-0.16517 0-0.29663-0.13146-0.29663-0.29663v-1.1461c0-0.1618 0.13146-0.29664 0.29663-0.29664z"/>
     <path d="m3.7771 120.37v-1.5506c0-0.064-0.050562-0.10787-0.10787-0.10787-0.064046 0-0.10787 0.0438-0.10787 0.10787v1.5506c0 0.28314 0.22922 0.51236 0.51236 0.51236 0.27978 0 0.51236-0.22922 0.51236-0.51236v-1.5506c0-0.064-0.050562-0.10787-0.10787-0.10787-0.064046 0-0.10787 0.0438-0.10787 0.10787v1.5506c0 0.16517-0.13483 0.29663-0.29663 0.29663-0.16517 0-0.29663-0.13146-0.29663-0.29663z"/>
     <path d="m5.8502 118.73h-0.87641c-0.057304 0-0.10787 0.0438-0.10787 0.10786 0 0.0641 0.050562 0.10787 0.10787 0.10787h0.33034v1.8337c0 0.064 0.050562 0.10787 0.10787 0.10787 0.064046 0 0.10787-0.0438 0.10787-0.10787v-1.8337h0.33034c0.064046 0 0.10787-0.0438 0.10787-0.10787 0-0.064-0.043821-0.10786-0.10787-0.10786z"/>
     <path d="m7.1176 119.31 0.22247-0.22248v1.6955c0 0.064 0.043821 0.10787 0.10787 0.10787 0.057304 0 0.10787-0.0438 0.10787-0.10787v-1.9551c0-0.0506-0.023596-0.0843-0.067416-0.10113-0.04045-0.0135-0.087641-7e-3 -0.11798 0.0236l-0.4045 0.4045c-0.020225 0.0236-0.030337 0.0472-0.030337 0.0775s0.010112 0.0539 0.030337 0.0775c0.023596 0.0202 0.047191 0.0303 0.077529 0.0303 0.030337 0 0.053933-0.0101 0.074158-0.0303z"/>
    </g>
    <g aria-label="IN 3">
     <path d="m23.052 107.83c0.06405 0 0.10787-0.0438 0.10787-0.10787v-1.9551c0-0.064-0.04382-0.10786-0.10787-0.10786-0.0573 0-0.10787 0.0438-0.10787 0.10786v1.9551c0 0.064 0.05056 0.10787 0.10787 0.10787z"/>
     <path d="m24.677 107.82c0.05056-0.0101 0.08427-0.0539 0.08427-0.1045v-1.9551c0-0.064-0.04382-0.10786-0.10787-0.10786-0.06405 0-0.10787 0.0438-0.10787 0.10786v1.4832c-0.12472-0.25956-0.31349-0.6472-0.46517-0.96069-0.09101-0.18539-0.18202-0.37753-0.27304-0.56967-0.0236-0.0438-0.07079-0.0674-0.12135-0.0573s-0.08427 0.0539-0.08427 0.10449v1.9551c0 0.064 0.04382 0.10787 0.10787 0.10787 0.06405 0 0.10787-0.0438 0.10787-0.10787v-1.4832c0.12472 0.25955 0.31012 0.6472 0.4618 0.96068 0.09101 0.1854 0.18202 0.37753 0.27641 0.56967 0.0236 0.0438 0.07079 0.0708 0.12135 0.0573z"/>
     <path d="m26.295 107.6c-0.13146 0.0371-0.26629-0.0202-0.33371-0.1382-0.03034-0.0506-0.09775-0.0674-0.14832-0.0404-0.05056 0.0303-0.07079 0.0977-0.04045 0.14831 0.11461 0.20225 0.35394 0.30001 0.57641 0.23933 0.22922-0.064 0.3809-0.26292 0.3809-0.49551v-0.20225c0-0.16517-0.07753-0.31011-0.19888-0.4045 0.12135-0.0944 0.19888-0.23932 0.19888-0.40449v-0.13484c0-0.23258-0.15169-0.43146-0.3809-0.49551-0.22584-0.064-0.45843 0.0404-0.57641 0.23933-0.03034 0.0506-0.01011 0.11798 0.04045 0.14832 0.05056 0.0303 0.11798 0.0101 0.14832-0.0405 0.06742-0.11798 0.20225-0.17529 0.33371-0.13821 0.13146 0.0371 0.2191 0.15169 0.2191 0.28652v0.13484c0 0.16517-0.13483 0.29663-0.29663 0.29663-0.06405 0-0.10787 0.0438-0.10787 0.10786 0 0.0641 0.04382 0.10787 0.10787 0.10787 0.1618 0 0.29663 0.13483 0.29663 0.29663v0.20225c0 0.13483-0.08764 0.24944-0.2191 0.28652z"/>
    </g>
    <g aria-label="IN 2">
     <path d="m13.029 107.83c0.06405 0 0.10787-0.0438 0.10787-0.10787v-1.9551c0-0.064-0.04382-0.10786-0.10787-0.10786-0.0573 0-0.10787 0.0438-0.10787 0.10786v1.9551c0 0.064 0.05056 0.10787 0.10787 0.10787z"/>
     <path d="m14.653 107.82c0.05056-0.0101 0.08427-0.0539 0.08427-0.1045v-1.9551c0-0.064-0.04382-0.10786-0.10787-0.10786-0.06405 0-0.10787 0.0438-0.10787 0.10786v1.4832c-0.12472-0.25956-0.31349-0.6472-0.46517-0.96069-0.09101-0.18539-0.18202-0.37753-0.27304-0.56967-0.0236-0.0438-0.07079-0.0674-0.12135-0.0573s-0.08427 0.0539-0.08427 0.10449v1.9551c0 0.064 0.04382 0.10787 0.10787 0.10787 0.06405 0 0.10787-0.0438 0.10787-0.10787v-1.4832c0.12472 0.25955 0.31012 0.6472 0.4618 0.96068 0.09101 0.1854 0.18202 0.37753 0.27641 0.56967 0.0236 0.0438 0.07079 0.0708 0.12135 0.0573z"/>
     <path d="m15.836 106.06c0.05056 0.0303 0.11798 0.0101 0.14832-0.0405 0.03708-0.0674 0.09775-0.11461 0.17528-0.13821 0.07753-0.0202 0.15169-0.0101 0.22247 0.027 0.07079 0.0371 0.11798 0.0978 0.14158 0.17528 0.0236 0.0775 0.01685 0.15169-0.02022 0.22248l-0.70787 1.3483c-0.02022 0.0337-0.02022 0.0708 0.0034 0.10787 0.01685 0.0337 0.04719 0.0506 0.09101 0.0506h0.75506c0.0573 0 0.10787-0.0438 0.10787-0.10786 0-0.064-0.05056-0.10787-0.10787-0.10787h-0.57641c0.06405-0.12135 0.2191-0.41798 0.36068-0.68765 0.0809-0.15843 0.16854-0.3236 0.26292-0.50225 0.06405-0.12472 0.07753-0.25618 0.03708-0.38764-0.03708-0.13147-0.12472-0.23596-0.2427-0.30001-0.11798-0.064-0.25281-0.0809-0.38427-0.0438-0.13483 0.0337-0.23596 0.11124-0.30674 0.23596-0.03034 0.0506-0.01011 0.11798 0.04045 0.14832z"/>
    </g>
    <g aria-label="IN 1">
     <path d="m3.2003 107.83c0.064046 0 0.10787-0.0438 0.10787-0.10787v-1.9551c0-0.064-0.043821-0.10786-0.10787-0.10786-0.057304 0-0.10787 0.0438-0.10787 0.10786v1.9551c0 0.064 0.050562 0.10787 0.10787 0.10787z"/>
     <path d="m4.825 107.82c0.050562-0.0101 0.08427-0.0539 0.08427-0.1045v-1.9551c0-0.064-0.043821-0.10786-0.10787-0.10786-0.064046 0-0.10787 0.0438-0.10787 0.10786v1.4832c-0.12472-0.25956-0.31349-0.6472-0.46517-0.96069-0.091012-0.18539-0.18202-0.37753-0.27304-0.56967-0.023596-0.0438-0.070787-0.0674-0.12135-0.0573-0.050562 0.0101-0.08427 0.0539-0.08427 0.10449v1.9551c0 0.064 0.043821 0.10787 0.10787 0.10787 0.064046 0 0.10787-0.0438 0.10787-0.10787v-1.4832c0.12472 0.25955 0.31012 0.6472 0.4618 0.96068 0.091012 0.1854 0.18202 0.37753 0.27641 0.56967 0.023596 0.0438 0.070787 0.0708 0.12135 0.0573z"/>
     <path d="m6.2037 106.24 0.22247-0.22247v1.6955c0 0.064 0.043821 0.10787 0.10787 0.10787 0.057304 0 0.10787-0.0438 0.10787-0.10787v-1.9551c0-0.0506-0.023596-0.0843-0.067416-0.10112-0.04045-0.0135-0.087641-7e-3 -0.11798 0.0236l-0.4045 0.40449c-0.020225 0.0236-0.030337 0.0472-0.030337 0.0775s0.010112 0.0539 0.030337 0.0775c0.023596 0.0202 0.047192 0.0303 0.077529 0.0303s0.053933-0.0101 0.074158-0.0303z"/>
    </g>
    <g aria-label="[MIX]">
     <path d="m23.166 123.1h0.24694c0.04692 0 0.07902-0.0321 0.07902-0.079s-0.0321-0.079-0.07902-0.079h-0.16792v-1.6496h0.16792c0.04692 0 0.07902-0.0321 0.07902-0.079s-0.0321-0.079-0.07902-0.079h-0.24694c-0.04692 0-0.07902 0.0321-0.07902 0.079v1.8076c0 0.0469 0.0321 0.079 0.07902 0.079z"/>
     <path d="m23.782 122.91c0.04198 0 0.07902-0.0321 0.07902-0.079v-1.0792c0.0568 0.12595 0.11853 0.25436 0.16545 0.35313 0.02716 0.0568 0.05433 0.1136 0.07902 0.16793 0.01235 0.0296 0.03704 0.0444 0.07161 0.0444 0.0321 0 0.05433-0.0148 0.07161-0.0444 0.02469-0.0543 0.05186-0.11113 0.07902-0.16793 0.04692-0.0988 0.10619-0.22718 0.16545-0.35313v1.0792c0 0.0469 0.0321 0.079 0.07902 0.079 0.04198 0 0.07902-0.0321 0.07902-0.079v-1.4323c0-0.037-0.02469-0.0691-0.06174-0.0766-0.03704-7e-3 -0.07161 0.01-0.0889 0.042-0.04198 0.0914-0.08396 0.18027-0.12594 0.2667-0.07161 0.1457-0.15064 0.32103-0.19756 0.42228-0.04939-0.10125-0.12841-0.27411-0.19756-0.42228-0.04198-0.0864-0.08396-0.17533-0.12594-0.2667-0.01729-0.0321-0.05186-0.0494-0.0889-0.042-0.03704 7e-3 -0.06174 0.0395-0.06174 0.0766v1.4323c0 0.0469 0.0321 0.079 0.07902 0.079z"/>
     <path d="m25.051 122.91c0.04692 0 0.07902-0.0321 0.07902-0.079v-1.4323c0-0.0469-0.0321-0.079-0.07902-0.079-0.04198 0-0.07902 0.0321-0.07902 0.079v1.4323c0 0.0469 0.03704 0.079 0.07902 0.079z"/>
     <path d="m25.398 122.91c0.03704 0.0198 0.08643 2e-3 0.10619-0.037l0.2988-0.5976 0.2988 0.5976c0.01976 0.0395 0.06668 0.0568 0.10619 0.037 0.03951-0.0198 0.05433-0.0667 0.03704-0.10618l-0.35313-0.70626 0.32844-0.65687c0.01729-0.037 0.0025-0.0864-0.03704-0.10619-0.03951-0.0173-0.08643-2e-3 -0.10619 0.037l-0.27411 0.54822-0.27411-0.54822c-0.01975-0.0395-0.06914-0.0543-0.10619-0.037-0.03951 0.0198-0.0568 0.0691-0.03704 0.10619l0.32844 0.65687-0.35313 0.70626c-0.01975 0.0395-0.0025 0.0864 0.03704 0.10618z"/>
     <path d="m26.693 121.14h-0.24694c-0.04692 0-0.07902 0.0321-0.07902 0.079s0.0321 0.079 0.07902 0.079h0.16792v1.6496h-0.16792c-0.04692 0-0.07902 0.0321-0.07902 0.079s0.0321 0.079 0.07902 0.079h0.24694c0.04198 0 0.07902-0.0321 0.07902-0.079v-1.8076c0-0.0469-0.03704-0.079-0.07902-0.079z"/>
    </g>
   </g>
   <path transform="translate(-.14081 -168.49)" d="m5.9157 262.2-0.98928 1.7135-0.98928-1.7135z" stroke-linecap="square" stroke-linejoin="bevel" stroke-width=".79375"/>
   <path transform="translate(-.14081 -168.49)" d="m25.967 262.2-0.98928 1.7135-0.98928-1.7135z" stroke-linecap="square" stroke-linejoin="bevel" stroke-width=".79375"/>
   <path d="m20.693 0.49135v1.2086h-0.41076v0.47394h0.41076v1.9116h0.47396v-1.9116h0.41076v-0.47394h-0.41076v-1.2086h-0.47396m-1.0664 8e-3v3.5862h0.47395v-3.5862h-0.47395m-6.1377 1.2007v2.3856h0.47395v-1.0664c0-0.17416-0.03025-0.38003 0.03574-0.54505 0.02142-0.0535 0.05924-0.10106 0.09887-0.14217 0.21986-0.22826 0.57232-0.19859 0.74878 0.0711 0.10392 0.15883 0.07241 0.3645 0.07241 0.54504v1.1375h0.47395v-1.0743c0-0.16605-0.03074-0.37282 0.03641-0.52924 0.1592-0.37118 0.65344-0.40792 0.86319-0.0632 0.09435 0.15507 0.06416 0.36388 0.06416 0.53715v1.1296h0.47395v-1.1138c0-0.25668 0.01742-0.51369-0.10092-0.75043-0.24674-0.49347-0.90443-0.68039-1.3683-0.37384-0.07382 0.0488-0.14421 0.10504-0.19749 0.17636h-0.0083c-0.26926-0.3605-0.82119-0.40908-1.1928-0.19748v-0.12639h-0.47395m4.6289 4e-3c-0.18264 0.0216-0.35629 0.0709-0.51345 0.16902-0.13615 0.085-0.26115 0.2009-0.35253 0.33305-0.35881 0.51884-0.25397 1.2483 0.24984 1.634 0.10343 0.0791 0.21648 0.14229 0.33967 0.18502 0.17619 0.0611 0.36895 0.0727 0.55295 0.0504 0.16241-0.0195 0.31896-0.0766 0.45816-0.16194 0.59502-0.36504 0.74894-1.1713 0.33824-1.7313-0.0789-0.10754-0.17292-0.19827-0.28294-0.27365-0.1111-0.0761-0.23271-0.13665-0.36337-0.17063-0.13654-0.0355-0.2859-0.0506-0.42656-0.0341m5.6084 2.0345v-8e-3l-0.22907-0.22908c-0.02583-0.0259-0.06358-0.0801-0.10269-0.0844-0.03583-5e-3 -0.07533 0.0437-0.10269 0.0623-0.06749 0.046-0.14242 0.0833-0.22118 0.10532-0.27608 0.0775-0.56629-0.0305-0.74632-0.24918-0.05124-0.0623-0.08157-0.13289-0.1147-0.20537h1.6983c0.03583 0 0.10609 0.0132 0.13603-0.01 0.02108-0.0163 0.02042-0.053 0.02341-0.0769 0.0083-0.0673 0.01383-0.13781 0.0083-0.20538-0.02358-0.28235-0.11778-0.54544-0.31234-0.75801-0.53004-0.5791-1.4916-0.46996-1.9004 0.18927-0.07666 0.1236-0.12915 0.25974-0.15522 0.40285-0.02883 0.15826-0.0275 0.32465 0.0083 0.48185 0.15901 0.70534 0.9355 1.118 1.6079 0.85141 0.15127-0.06 0.28784-0.15234 0.40286-0.26686m0.55294-2.038v2.3856h0.47395v-0.94001c0-0.21659-0.01175-0.43601 0.09843-0.63194 0.20719-0.36838 0.74672-0.45258 1.0786-0.19795 0.09479 0.0727 0.15972 0.17568 0.20514 0.28484 0.07374 0.17715 0.0555 0.37346 0.0555 0.56085v0.92421h0.47396v-0.90842c0-0.23904 0.01067-0.47291-0.06615-0.70302-0.03774-0.11278-0.09563-0.21858-0.16333-0.31598-0.29741-0.42813-0.87602-0.54803-1.3583-0.40489-0.11746 0.0349-0.21826 0.092-0.32386 0.15212v-0.20538h-0.47396m-5.4584 0.78992-0.37127 0.2398-0.22907 0.13937 0.03158 0.0553 0.60824-0.38706c0.11198 0.21131 0.12529 0.45477 0.017 0.67143-0.1971 0.39421-0.74142 0.54048-1.0912 0.24957-0.07949-0.066-0.14766-0.15004-0.19529-0.24168-0.18315-0.35236-0.02483-0.79012 0.32167-0.97208 0.28548-0.14993 0.75606-0.0613 0.9084 0.24536m4.7316 0.16588h-1.3429c0.16872-0.48527 0.79655-0.64053 1.169-0.28375 0.07682 0.0736 0.15475 0.17677 0.17386 0.28375m-3.4362 2.0775v1.4376c-0.11983-0.0902-0.25771-0.15957-0.40285-0.19827-0.64117-0.17096-1.3369 0.22933-1.4816 0.8855-0.04583 0.2078-0.03474 0.42897 0.02841 0.63194 0.04491 0.1443 0.11468 0.27994 0.21297 0.39496 0.10815 0.12657 0.23796 0.23494 0.38704 0.31003 0.18239 0.0919 0.37372 0.12553 0.57663 0.12443 0.25356-2e-3 0.46496-0.10703 0.67934-0.22908v0.22908h0.47395v-3.5862h-0.47395m3.2703 0v3.5862h0.47395v-3.5862h-0.47396m-11.32 1.2007v2.3856h0.47395v-1.0664c0-0.17416-0.03025-0.38003 0.03575-0.54504 0.02142-0.0535 0.05924-0.10107 0.09887-0.14218 0.21984-0.22824 0.57231-0.19859 0.74877 0.0711 0.10392 0.15884 0.07241 0.3645 0.07241 0.54505v1.1375h0.47396v-1.0743c0-0.16605-0.03074-0.37282 0.03641-0.52925 0.1592-0.37118 0.65344-0.4079 0.86319-0.0632 0.09435 0.15507 0.06416 0.36387 0.06416 0.53715v1.1296h0.47395v-1.1138c0-0.25666 0.01742-0.51368-0.10092-0.75042-0.24674-0.49347-0.90443-0.68039-1.3683-0.37385-0.07382 0.0488-0.14421 0.10505-0.19748 0.17638h-0.0083c-0.26927-0.36051-0.82122-0.40908-1.1928-0.19749v-0.12638h-0.47395m4.6289 4e-3c-0.18264 0.0216-0.35629 0.0709-0.51345 0.16902-0.13616 0.085-0.26114 0.2009-0.35253 0.33305-0.3588 0.51883-0.25396 1.2483 0.24985 1.634 0.10343 0.0792 0.21648 0.1423 0.33967 0.18505 0.17619 0.0611 0.36895 0.0727 0.55294 0.0504 0.16242-0.0195 0.31895-0.0765 0.45815-0.16191 0.59503-0.36502 0.74894-1.1713 0.33824-1.7313-0.07882-0.10753-0.17292-0.19825-0.28293-0.27363-0.1111-0.0761-0.23271-0.13666-0.36337-0.17063-0.13654-0.0355-0.28591-0.0506-0.42656-0.0341m4.0997-4e-3c0 0.62433-0.094 1.356 0.27158 1.9037 0.07049 0.10552 0.15466 0.20055 0.25767 0.27513 0.58771 0.42561 1.4319 0.15135 1.723-0.49631 0.11241-0.25018 0.12458-0.51239 0.13366-0.78202 0.01-0.29978 0.0075-0.60023 0.0075-0.90052h-0.47398v0.75832c0 0.23221-8.33e-4 0.47696-0.09076 0.69514-0.14266 0.34587-0.58312 0.58595-0.93614 0.39034-0.10972-0.0608-0.19811-0.16471-0.26044-0.27185-0.14842-0.25528-0.15822-0.56624-0.15822-0.85312v-0.71883h-0.47395m5.1819 2.1565v0.22908h0.47396v-2.3856h-0.47396v0.23698c-0.1241-0.0935-0.26778-0.16361-0.41866-0.20141-0.14685-0.0369-0.30009-0.0457-0.45026-0.0272-0.13626 0.0168-0.27292 0.0574-0.39496 0.12089-0.64189 0.3337-0.82926 1.1479-0.43952 1.7428 0.10411 0.15899 0.26028 0.28499 0.42371 0.37894 0.18437 0.10601 0.39149 0.1346 0.60035 0.13452 0.2557-8e-5 0.46336-0.10501 0.67933-0.22908m0.67933-2.1565v2.3856h0.47395v-0.77412c0-0.31286-0.03208-0.63289 0.20569-0.87675 0.04491-0.046 0.09495-0.0862 0.14976-0.11993 0.06891-0.0424 0.14306-0.0733 0.22118-0.0942 0.12417-0.0333 0.25088-0.0466 0.37916-0.0466v-0.47395c-0.23761 0-0.47482 0.0338-0.69513 0.12659-0.09218 0.0388-0.17441 0.0924-0.26067 0.14198v-0.26857h-0.47395m-9.8582 1.2086h0.0083l0.03949-0.0395v-8e-3l-0.29291-0.30806-0.19686-0.22118c0.24418-0.17481 0.553-0.21612 0.82151-0.0601 0.39715 0.23079 0.46357 0.78068 0.15689 1.1106-0.06566 0.0706-0.14727 0.13147-0.23588 0.1702-0.07382 0.0323-0.14962 0.0463-0.22907 0.0554-0.3397 0.0391-0.67176-0.20763-0.75686-0.53368-0.04841-0.18535-0.015-0.38884 0.08066-0.55294 0.02025-0.0348 0.06907-0.12132 0.11544-0.12132 0.05008 0 0.10468 0.0884 0.13529 0.12132 0.11747 0.12633 0.25426 0.24634 0.35439 0.38706m2.7568-0.71884-0.17378 0.69514 0.06316 8e-3 0.17378-0.67934c0.10631 0.0216 0.20085 0.0912 0.27648 0.16595 0.20878 0.20658 0.28239 0.50538 0.16991 0.78196-0.12907 0.31712-0.45984 0.49549-0.79395 0.4373-0.09335-0.0162-0.1821-0.05-0.26067-0.10308-0.08963-0.0605-0.17115-0.13922-0.22825-0.23153-0.20277-0.32777-0.09051-0.75514 0.22036-0.97095 0.16941-0.11763 0.35534-0.13032 0.55294-0.10334m6.2009 1.2165c-0.04566 0.0527-0.10506 0.0936-0.16588 0.12726-0.44607 0.24673-1.0149-0.0999-1.0495-0.59332-0.0093-0.13243 0.02358-0.26189 0.08389-0.37916 0.03533-0.0686 0.08132-0.12754 0.13618-0.18153 0.31376-0.30883 0.8088-0.25147 1.0765 0.0868 0.15222 0.1923 0.1846 0.47941 0.08555 0.70303-0.02374 0.0537-0.05175 0.12449-0.09771 0.16309-0.04649 0.039-0.094-0.0301-0.12433-0.0604-0.09621-0.0962-0.18839-0.19609-0.28438-0.29227-0.01775-0.0178-0.10672-0.12914-0.13428-0.0903-0.02442 0.0345 0.07882 0.11473 0.09921 0.1377 0.11762 0.13252 0.24945 0.25388 0.37474 0.37916z"/>
   <path transform="translate(-.14081 -168.49)" d="m15.967 262.2-0.98928 1.7135-0.98928-1.7135z" stroke-linecap="square" stroke-linejoin="bevel" stroke-width=".79375"/>
   <g stroke-width=".2726">
    <g aria-label="AUDIO">
     <path d="m3.3229 66.1-0.34893-1.2649c-0.00872-0.03271-0.034893-0.05234-0.067605-0.05234s-0.058882 0.01963-0.067605 0.05234l-0.34893 1.2649c-0.010904 0.03707 0.010904 0.07415 0.047978 0.08505 0.041435 0.0109 0.076328-0.0109 0.087232-0.04798 0.00654-0.02181 0.013085-0.0458 0.019627-0.07197 0.015266-0.0458 0.02617-0.10686 0.050159-0.18319h0.42308c0.019627 0.07633 0.034893 0.13739 0.050159 0.18319 0.00654 0.02617 0.013085 0.05016 0.019627 0.07197 0.010904 0.03707 0.047978 0.05888 0.085052 0.04798 0.041435-0.0109 0.061063-0.04798 0.050159-0.08505zm-0.24425-0.35765h-0.34457c0.058882-0.2159 0.12649-0.47106 0.17228-0.62807 0.041435 0.15702 0.1134 0.41217 0.17228 0.62807z"/>
     <path d="m3.6305 65.856v-1.0032c0-0.04143-0.032712-0.06979-0.069786-0.06979-0.041435 0-0.069786 0.02835-0.069786 0.06979v1.0032c0 0.18319 0.1483 0.33148 0.33148 0.33148 0.18101 0 0.33148-0.1483 0.33148-0.33148v-1.0032c0-0.04143-0.032712-0.06979-0.069786-0.06979-0.041435 0-0.069786 0.02835-0.069786 0.06979v1.0032c0 0.10686-0.087232 0.19191-0.19191 0.19191-0.10686 0-0.19191-0.08505-0.19191-0.19191z"/>
     <path d="m4.7471 64.791h-0.2617c-0.041435 0-0.069786 0.02835-0.069786 0.06979v1.2474c0 0.04144 0.028351 0.06979 0.069786 0.06979h0.2617c0.18319 0 0.33148-0.1483 0.33148-0.33148v-0.72403c0-0.18319-0.1483-0.33148-0.33148-0.33148zm0.19191 0.33148v0.72403c0 0.10686-0.085052 0.19191-0.19191 0.19191h-0.19191v-1.1079h0.19191c0.10686 0 0.19191 0.08723 0.19191 0.19191z"/>
     <path d="m5.4015 66.187c0.041435 0 0.069786-0.02835 0.069786-0.06979v-1.2649c0-0.04143-0.028351-0.06979-0.069786-0.06979-0.037074 0-0.069786 0.02835-0.069786 0.06979v1.2649c0 0.04144 0.032712 0.06979 0.069786 0.06979z"/>
     <path d="m6.0558 66.187c0.18319 0 0.33148-0.1483 0.33148-0.33148v-0.74148c0-0.18319-0.1483-0.33148-0.33148-0.33148s-0.33148 0.1483-0.33148 0.33148v0.74148c0 0.18319 0.1483 0.33148 0.33148 0.33148zm0-1.2649c0.10468 0 0.19191 0.08723 0.19191 0.19191v0.74148c0 0.10686-0.087232 0.19191-0.19191 0.19191-0.10686 0-0.19191-0.08505-0.19191-0.19191v-0.74148c0-0.10468 0.085052-0.19191 0.19191-0.19191z"/>
    </g>
    <g aria-label="CV ATT">
     <path d="m2.4563 68.293c0.14393 0.03925 0.29877-0.02399 0.37292-0.15484 0.017446-0.03271 0.00654-0.07633-0.02617-0.09596-0.032712-0.01745-0.076328-0.0065-0.095956 0.02617-0.043616 0.07633-0.13085 0.1134-0.2159 0.08941-0.085052-0.02399-0.14175-0.09814-0.14175-0.18537v-0.74147c0-0.08723 0.056701-0.16138 0.14175-0.18537 0.085052-0.02399 0.17228 0.01309 0.2159 0.08941 0.019627 0.03271 0.063244 0.0458 0.095956 0.02617s0.043616-0.06324 0.02617-0.09596c-0.076328-0.12866-0.2268-0.19626-0.37292-0.15483-0.1483 0.041435-0.24643 0.1701-0.24643 0.32058v0.74148c0 0.15048 0.098136 0.27914 0.24643 0.32058z"/>
     <path d="m2.9841 66.989 0.34893 1.2649c0.00872 0.02835 0.034893 0.05016 0.067605 0.05016s0.058882-0.02181 0.065424-0.05016l0.34893-1.2649c0.010904-0.03707-0.010904-0.07633-0.047978-0.08723-0.037074-0.0087-0.076328 0.01309-0.085052 0.05016-0.037074 0.13303-0.074148 0.26388-0.10904 0.39036-0.058882 0.21372-0.13085 0.47106-0.17228 0.63025-0.047977-0.1592-0.11558-0.41436-0.17446-0.63026-0.034893-0.12649-0.071967-0.25734-0.10904-0.39036-0.00872-0.03707-0.047978-0.05888-0.085051-0.05016-0.037074 0.0109-0.058882 0.05016-0.047978 0.08723z"/>
     <path d="m5.1586 68.216-0.34893-1.2649c-0.00872-0.03271-0.034893-0.05234-0.067605-0.05234s-0.058882 0.01963-0.067605 0.05234l-0.34893 1.2649c-0.010904 0.03707 0.010904 0.07415 0.047978 0.08505 0.041435 0.0109 0.076328-0.0109 0.087232-0.04798 0.00654-0.02181 0.013085-0.0458 0.019627-0.07197 0.015266-0.0458 0.02617-0.10686 0.050159-0.18319h0.42308c0.019627 0.07633 0.034893 0.13739 0.050159 0.18319 0.00654 0.02617 0.013085 0.05016 0.019627 0.07197 0.010904 0.03707 0.047978 0.05888 0.085052 0.04798 0.041435-0.0109 0.061063-0.04798 0.050159-0.08505zm-0.24425-0.35765h-0.34457c0.058882-0.2159 0.12649-0.47106 0.17228-0.62807 0.041435 0.15702 0.1134 0.41217 0.17228 0.62807z"/>
     <path d="m5.7845 66.908h-0.56701c-0.037074 0-0.069786 0.02835-0.069786 0.06979 0 0.04143 0.032712 0.06979 0.069786 0.06979h0.21372v1.1864c0 0.04143 0.032712 0.06979 0.069786 0.06979 0.041435 0 0.069786-0.02835 0.069786-0.06979v-1.1864h0.21372c0.041435 0 0.069786-0.02835 0.069786-0.06979s-0.028351-0.06979-0.069786-0.06979z"/>
     <path d="m6.5959 66.908h-0.56701c-0.037074 0-0.069786 0.02835-0.069786 0.06979 0 0.04143 0.032712 0.06979 0.069786 0.06979h0.21372v1.1864c0 0.04143 0.032712 0.06979 0.069786 0.06979 0.041435 0 0.069786-0.02835 0.069786-0.06979v-1.1864h0.21372c0.041435 0 0.069786-0.02835 0.069786-0.06979s-0.028351-0.06979-0.069786-0.06979z"/>
    </g>
    <g aria-label="CV INV">
     <path d="m2.4751 70.409c0.14393 0.03925 0.29877-0.02399 0.37292-0.15484 0.017447-0.03271 0.00654-0.07633-0.02617-0.09596-0.032712-0.01745-0.076328-0.0065-0.095956 0.02617-0.043616 0.07633-0.13085 0.1134-0.2159 0.08941-0.085052-0.02399-0.14175-0.09814-0.14175-0.18537v-0.74148c0-0.08723 0.056701-0.16138 0.14175-0.18537 0.085052-0.02399 0.17228 0.01308 0.2159 0.08941 0.019627 0.03271 0.063244 0.0458 0.095956 0.02617s0.043616-0.06324 0.02617-0.09596c-0.076328-0.12867-0.2268-0.19627-0.37292-0.15484-0.1483 0.04143-0.24643 0.1701-0.24643 0.32058v0.74148c0 0.15048 0.098136 0.27914 0.24643 0.32058z"/>
     <path d="m3.003 69.105 0.34893 1.2649c0.00872 0.02835 0.034893 0.05016 0.067605 0.05016s0.058882-0.02181 0.065424-0.05016l0.34893-1.2649c0.010904-0.03707-0.010904-0.07633-0.047978-0.08723-0.037074-0.0087-0.076328 0.01309-0.085052 0.05016-0.037074 0.13303-0.074148 0.26388-0.10904 0.39036-0.058882 0.21372-0.13085 0.47106-0.17228 0.63025-0.047977-0.1592-0.11558-0.41436-0.17446-0.63026-0.034893-0.12649-0.071967-0.25734-0.10904-0.39036-0.00872-0.03707-0.047978-0.05888-0.085052-0.05016-0.037074 0.0109-0.058882 0.05016-0.047978 0.08723z"/>
     <path d="m4.5079 70.42c0.041435 0 0.069786-0.02835 0.069786-0.06979v-1.2649c0-0.04144-0.028351-0.06979-0.069786-0.06979-0.037074 0-0.069786 0.02835-0.069786 0.06979v1.2649c0 0.04144 0.032712 0.06979 0.069786 0.06979z"/>
     <path d="m5.5526 70.418c0.032712-0.0065 0.05452-0.03489 0.05452-0.06761v-1.2649c0-0.04144-0.028351-0.06979-0.069786-0.06979s-0.069786 0.02835-0.069786 0.06979v0.95956c-0.08069-0.16792-0.20281-0.41871-0.30095-0.62153-0.058882-0.11994-0.11776-0.24425-0.17665-0.36856-0.015266-0.02835-0.045797-0.04362-0.078509-0.03707-0.032712 0.0065-0.05452 0.03489-0.05452 0.06761v1.2649c0 0.04144 0.028351 0.06979 0.069786 0.06979s0.069786-0.02835 0.069786-0.06979v-0.95956c0.08069 0.16792 0.20063 0.41872 0.29877 0.62153 0.058882 0.11994 0.11776 0.24425 0.17883 0.36856 0.015266 0.02835 0.045797 0.0458 0.078509 0.03707z"/>
     <path d="m5.8122 69.105 0.34893 1.2649c0.00872 0.02835 0.034893 0.05016 0.067605 0.05016s0.058882-0.02181 0.065424-0.05016l0.34893-1.2649c0.010904-0.03707-0.010904-0.07633-0.047978-0.08723-0.037074-0.0087-0.076328 0.01309-0.085052 0.05016-0.037074 0.13303-0.074147 0.26388-0.10904 0.39036-0.058882 0.21372-0.13085 0.47106-0.17228 0.63025-0.047977-0.1592-0.11558-0.41436-0.17446-0.63026-0.034893-0.12649-0.071967-0.25734-0.10904-0.39036-0.00872-0.03707-0.047978-0.05888-0.085052-0.05016-0.037074 0.0109-0.058882 0.05016-0.047978 0.08723z"/>
    </g>
    <g aria-label="AUDIO">
     <path d="m3.3439 9.5469-0.34893-1.2649c-0.00872-0.032712-0.034893-0.052339-0.067605-0.052339s-0.058882 0.019627-0.067605 0.052339l-0.34893 1.2649c-0.010904 0.037074 0.010904 0.074148 0.047978 0.085052 0.041435 0.010904 0.076328-0.010904 0.087232-0.047978 0.00654-0.021808 0.013085-0.045797 0.019627-0.071967 0.015266-0.045797 0.02617-0.10686 0.050159-0.18319h0.42308c0.019627 0.076328 0.034893 0.13739 0.050159 0.18319 0.00654 0.02617 0.013085 0.050159 0.019627 0.071967 0.010904 0.037074 0.047978 0.058882 0.085052 0.047978 0.041435-0.010904 0.061063-0.047978 0.050159-0.085052zm-0.24425-0.35765h-0.34457c0.058882-0.2159 0.12649-0.47105 0.17228-0.62807 0.041435 0.15702 0.1134 0.41217 0.17228 0.62807z"/>
     <path d="m3.6515 9.3026v-1.0032c0-0.041435-0.032712-0.069786-0.069786-0.069786-0.041435 0-0.069786 0.028351-0.069786 0.069786v1.0032c0 0.18319 0.1483 0.33148 0.33148 0.33148 0.18101 0 0.33148-0.1483 0.33148-0.33148v-1.0032c0-0.041435-0.032712-0.069786-0.069786-0.069786-0.041435 0-0.069786 0.028351-0.069786 0.069786v1.0032c0 0.10686-0.087232 0.19191-0.19191 0.19191-0.10686 0-0.19191-0.085052-0.19191-0.19191z"/>
     <path d="m4.7682 8.2384h-0.2617c-0.041435 0-0.069786 0.028351-0.069786 0.069786v1.2474c0 0.041435 0.028351 0.069786 0.069786 0.069786h0.2617c0.18319 0 0.33148-0.1483 0.33148-0.33148v-0.72403c0-0.18319-0.1483-0.33148-0.33148-0.33148zm0.19191 0.33148v0.72403c0 0.10686-0.085052 0.19191-0.19191 0.19191h-0.19191v-1.1079h0.19191c0.10686 0 0.19191 0.087232 0.19191 0.19191z"/>
     <path d="m5.4225 9.6341c0.041435 0 0.069786-0.028351 0.069786-0.069786v-1.2649c0-0.041435-0.028351-0.069786-0.069786-0.069786-0.037074 0-0.069786 0.028351-0.069786 0.069786v1.2649c0 0.041435 0.032712 0.069786 0.069786 0.069786z"/>
     <path d="m6.0768 9.6341c0.18319 0 0.33148-0.1483 0.33148-0.33148v-0.74148c0-0.18319-0.1483-0.33148-0.33148-0.33148-0.18319 0-0.33148 0.1483-0.33148 0.33148v0.74148c0 0.18319 0.1483 0.33148 0.33148 0.33148zm0-1.2649c0.10468 0 0.19191 0.087232 0.19191 0.19191v0.74148c0 0.10686-0.087232 0.19191-0.19191 0.19191-0.10686 0-0.19191-0.085052-0.19191-0.19191v-0.74148c0-0.10468 0.085052-0.19191 0.19191-0.19191z"/>
    </g>
    <g aria-label="CV ATT">
     <path d="m2.4773 11.74c0.14393 0.03925 0.29877-0.02399 0.37292-0.15484 0.017447-0.03271 0.00654-0.07633-0.02617-0.09596-0.032712-0.01745-0.076328-0.0065-0.095956 0.02617-0.043616 0.07633-0.13085 0.1134-0.2159 0.08941-0.085052-0.02399-0.14175-0.09814-0.14175-0.18537v-0.74148c0-0.08723 0.056701-0.16138 0.14175-0.18537 0.085052-0.02399 0.17228 0.01309 0.2159 0.08941 0.019627 0.03271 0.063244 0.0458 0.095956 0.02617s0.043616-0.06324 0.02617-0.09596c-0.076328-0.12865-0.2268-0.19626-0.37292-0.15482-0.1483 0.041436-0.24643 0.1701-0.24643 0.32058v0.74148c0 0.15048 0.098136 0.27914 0.24643 0.32058z"/>
     <path d="m3.0052 10.436 0.34893 1.2649c0.00872 0.02835 0.034893 0.05016 0.067605 0.05016s0.058882-0.02181 0.065424-0.05016l0.34893-1.2649c0.010904-0.03707-0.010904-0.07633-0.047978-0.08723-0.037074-0.0087-0.076328 0.01309-0.085052 0.05016-0.037074 0.13303-0.074148 0.26388-0.10904 0.39036-0.058882 0.21372-0.13085 0.47106-0.17228 0.63026-0.047978-0.1592-0.11558-0.41435-0.17446-0.63026-0.034893-0.12649-0.071967-0.25734-0.10904-0.39036-0.00872-0.03707-0.047978-0.05888-0.085052-0.05016-0.037074 0.0109-0.058882 0.05016-0.047978 0.08723z"/>
     <path d="m5.1796 11.664-0.34893-1.2649c-0.00872-0.03271-0.034893-0.05234-0.067605-0.05234s-0.058882 0.01963-0.067605 0.05234l-0.34893 1.2649c-0.010904 0.03707 0.010904 0.07415 0.047978 0.08505 0.041435 0.0109 0.076328-0.0109 0.087232-0.04798 0.00654-0.02181 0.013085-0.0458 0.019627-0.07197 0.015266-0.0458 0.02617-0.10686 0.050159-0.18319h0.42308c0.019627 0.07633 0.034893 0.13739 0.050159 0.18319 0.00654 0.02617 0.013085 0.05016 0.019627 0.07197 0.010904 0.03707 0.047978 0.05888 0.085052 0.04798 0.041435-0.0109 0.061063-0.04798 0.050159-0.08505zm-0.24425-0.35765h-0.34457c0.058882-0.2159 0.12649-0.47106 0.17228-0.62807 0.041435 0.15702 0.1134 0.41217 0.17228 0.62807z"/>
     <path d="m5.8056 10.355h-0.56701c-0.037074 0-0.069786 0.02835-0.069786 0.06979s0.032712 0.06979 0.069786 0.06979h0.21372v1.1864c0 0.04143 0.032712 0.06979 0.069786 0.06979 0.041435 0 0.069786-0.02835 0.069786-0.06979v-1.1864h0.21372c0.041435 0 0.069786-0.02835 0.069786-0.06979 0-0.04143-0.028351-0.06979-0.069786-0.06979z"/>
     <path d="m6.6169 10.355h-0.56701c-0.037074 0-0.069786 0.02835-0.069786 0.06979s0.032712 0.06979 0.069786 0.06979h0.21372v1.1864c0 0.04143 0.032712 0.06979 0.069786 0.06979 0.041435 0 0.069786-0.02835 0.069786-0.06979v-1.1864h0.21372c0.041435 0 0.069786-0.02835 0.069786-0.06979 0-0.04143-0.028351-0.06979-0.069786-0.06979z"/>
    </g>
    <g aria-label="CV INV">
     <path d="m2.4962 13.857c0.14393 0.03926 0.29877-0.02399 0.37292-0.15484 0.017446-0.03271 0.00654-0.07633-0.02617-0.09596-0.032712-0.01745-0.076328-0.0065-0.095956 0.02617-0.043616 0.07633-0.13085 0.1134-0.2159 0.08941-0.085051-0.02399-0.14175-0.09814-0.14175-0.18537v-0.74148c0-0.08723 0.056701-0.16138 0.14175-0.18537 0.085052-0.02399 0.17228 0.01309 0.2159 0.08941 0.019627 0.03271 0.063244 0.0458 0.095956 0.02617s0.043616-0.06324 0.02617-0.09596c-0.076328-0.12865-0.2268-0.19626-0.37292-0.15482-0.1483 0.041435-0.24643 0.1701-0.24643 0.32058v0.74148c0 0.15048 0.098136 0.27914 0.24643 0.32058z"/>
     <path d="m3.024 12.552 0.34893 1.2649c0.00872 0.02835 0.034893 0.05016 0.067605 0.05016s0.058882-0.02181 0.065424-0.05016l0.34893-1.2649c0.010904-0.03707-0.010904-0.07633-0.047978-0.08723-0.037074-0.0087-0.076328 0.01308-0.085052 0.05016-0.037074 0.13303-0.074148 0.26388-0.10904 0.39036-0.058882 0.21372-0.13085 0.47106-0.17228 0.63025-0.047978-0.1592-0.11558-0.41435-0.17446-0.63025-0.034893-0.12649-0.071967-0.25734-0.10904-0.39036-0.00872-0.03707-0.047978-0.05888-0.085052-0.05016-0.037074 0.0109-0.058882 0.05016-0.047978 0.08723z"/>
     <path d="m4.5289 13.867c0.041435 0 0.069786-0.02835 0.069786-0.06979v-1.2649c0-0.04144-0.028351-0.06979-0.069786-0.06979-0.037074 0-0.069786 0.02835-0.069786 0.06979v1.2649c0 0.04144 0.032712 0.06979 0.069786 0.06979z"/>
     <path d="m5.5736 13.865c0.032712-0.0065 0.05452-0.03489 0.05452-0.06761v-1.2649c0-0.04144-0.028351-0.06979-0.069786-0.06979s-0.069786 0.02835-0.069786 0.06979v0.95956c-0.08069-0.16792-0.20282-0.41872-0.30095-0.62153-0.058882-0.11994-0.11776-0.24425-0.17665-0.36856-0.015266-0.02835-0.045797-0.04362-0.078509-0.03707-0.032712 0.0065-0.05452 0.03489-0.05452 0.06761v1.2649c0 0.04144 0.02835 0.06979 0.069786 0.06979 0.041435 0 0.069786-0.02835 0.069786-0.06979v-0.95956c0.08069 0.16792 0.20063 0.41872 0.29877 0.62153 0.058882 0.11994 0.11776 0.24425 0.17883 0.36856 0.015266 0.02835 0.045797 0.0458 0.078509 0.03707z"/>
     <path d="m5.8332 12.552 0.34893 1.2649c0.00872 0.02835 0.034893 0.05016 0.067605 0.05016s0.058882-0.02181 0.065424-0.05016l0.34893-1.2649c0.010904-0.03707-0.010904-0.07633-0.047978-0.08723-0.037074-0.0087-0.076328 0.01308-0.085052 0.05016-0.037074 0.13303-0.074147 0.26388-0.10904 0.39036-0.058882 0.21372-0.13085 0.47106-0.17228 0.63025-0.047977-0.1592-0.11558-0.41436-0.17446-0.63026-0.034893-0.12649-0.071967-0.25734-0.10904-0.39036-0.00872-0.03707-0.047978-0.05888-0.085052-0.05016-0.037074 0.0109-0.058882 0.05016-0.047978 0.08723z"/>
    </g>
    <g aria-label="AUDIO">
     <path d="m24.178 38.219-0.34893-1.2649c-0.0087-0.03271-0.03489-0.05234-0.06761-0.05234-0.03271 0-0.05888 0.01963-0.0676 0.05234l-0.34893 1.2649c-0.0109 0.03707 0.0109 0.07415 0.04798 0.08505 0.04143 0.0109 0.07633-0.0109 0.08723-0.04798 0.0065-0.02181 0.01309-0.0458 0.01963-0.07197 0.01526-0.0458 0.02617-0.10686 0.05016-0.18319h0.42308c0.01963 0.07633 0.03489 0.13739 0.05016 0.18319 0.0065 0.02617 0.01309 0.05016 0.01963 0.07197 0.0109 0.03707 0.04798 0.05888 0.08505 0.04798 0.04143-0.0109 0.06106-0.04798 0.05016-0.08505zm-0.24425-0.35765h-0.34457c0.05888-0.2159 0.12649-0.47106 0.17228-0.62807 0.04143 0.15702 0.1134 0.41217 0.17228 0.62807z"/>
     <path d="m24.486 37.975v-1.0032c0-0.04144-0.03271-0.06979-0.06979-0.06979-0.04144 0-0.06979 0.02835-0.06979 0.06979v1.0032c0 0.18319 0.1483 0.33148 0.33148 0.33148 0.18101 0 0.33148-0.1483 0.33148-0.33148v-1.0032c0-0.04144-0.03271-0.06979-0.06979-0.06979-0.04143 0-0.06979 0.02835-0.06979 0.06979v1.0032c0 0.10686-0.08723 0.19191-0.19191 0.19191-0.10686 0-0.19191-0.08505-0.19191-0.19191z"/>
     <path d="m25.602 36.911h-0.2617c-0.04144 0-0.06979 0.02835-0.06979 0.06979v1.2474c0 0.04144 0.02835 0.06979 0.06979 0.06979h0.2617c0.18319 0 0.33148-0.1483 0.33148-0.33148v-0.72403c0-0.18319-0.1483-0.33148-0.33148-0.33148zm0.19191 0.33148v0.72403c0 0.10686-0.08505 0.19191-0.19191 0.19191h-0.19191v-1.1079h0.19191c0.10686 0 0.19191 0.08723 0.19191 0.19191z"/>
     <path d="m26.257 38.306c0.04144 0 0.06979-0.02835 0.06979-0.06979v-1.2649c0-0.04144-0.02835-0.06979-0.06979-0.06979-0.03707 0-0.06979 0.02835-0.06979 0.06979v1.2649c0 0.04144 0.03271 0.06979 0.06979 0.06979z"/>
     <path d="m26.911 38.306c0.18319 0 0.33148-0.1483 0.33148-0.33148v-0.74148c0-0.18319-0.1483-0.33148-0.33148-0.33148-0.18319 0-0.33148 0.1483-0.33148 0.33148v0.74148c0 0.18319 0.1483 0.33148 0.33148 0.33148zm0-1.2649c0.10468 0 0.19191 0.08723 0.19191 0.19191v0.74148c0 0.10686-0.08723 0.19191-0.19191 0.19191-0.10686 0-0.19191-0.08505-0.19191-0.19191v-0.74148c0-0.10468 0.08505-0.19191 0.19191-0.19191z"/>
    </g>
    <g aria-label="CV ATT">
     <path d="m23.311 40.412c0.14393 0.03925 0.29877-0.02399 0.37292-0.15484 0.01745-0.03271 0.0065-0.07633-0.02617-0.09596-0.03271-0.01745-0.07633-0.0065-0.09596 0.02617-0.04362 0.07633-0.13085 0.1134-0.2159 0.08941-0.08505-0.02399-0.14175-0.09814-0.14175-0.18537v-0.74148c0-0.08723 0.0567-0.16138 0.14175-0.18537 0.08505-0.02399 0.17228 0.01308 0.2159 0.08941 0.01963 0.03271 0.06324 0.0458 0.09596 0.02617 0.03271-0.01963 0.04362-0.06324 0.02617-0.09596-0.07633-0.12867-0.2268-0.19627-0.37292-0.15484-0.1483 0.04144-0.24643 0.1701-0.24643 0.32058v0.74148c0 0.15048 0.09814 0.27914 0.24643 0.32058z"/>
     <path d="m23.839 39.108 0.34893 1.2649c0.0087 0.02835 0.03489 0.05016 0.06761 0.05016 0.03271 0 0.05888-0.02181 0.06542-0.05016l0.34893-1.2649c0.0109-0.03707-0.0109-0.07633-0.04798-0.08723-0.03707-0.0087-0.07633 0.01308-0.08505 0.05016-0.03707 0.13303-0.07415 0.26388-0.10904 0.39036-0.05888 0.21372-0.13085 0.47106-0.17228 0.63025-0.04798-0.1592-0.11558-0.41435-0.17446-0.63025-0.03489-0.12649-0.07197-0.25734-0.10904-0.39036-0.0087-0.03707-0.04798-0.05888-0.08505-0.05016-0.03707 0.0109-0.05888 0.05016-0.04798 0.08723z"/>
     <path d="m26.014 40.336-0.34893-1.2649c-0.0087-0.03271-0.03489-0.05234-0.06761-0.05234-0.03271 0-0.05888 0.01963-0.06761 0.05234l-0.34893 1.2649c-0.0109 0.03707 0.0109 0.07415 0.04798 0.08505 0.04143 0.0109 0.07633-0.0109 0.08723-0.04798 0.0065-0.02181 0.01309-0.0458 0.01963-0.07197 0.01526-0.0458 0.02617-0.10686 0.05016-0.18319h0.42308c0.01963 0.07633 0.03489 0.13739 0.05016 0.18319 0.0065 0.02617 0.01309 0.05016 0.01963 0.07197 0.0109 0.03707 0.04798 0.05888 0.08505 0.04798 0.04143-0.0109 0.06106-0.04798 0.05016-0.08505zm-0.24425-0.35765h-0.34457c0.05888-0.2159 0.12649-0.47106 0.17228-0.62807 0.04143 0.15702 0.1134 0.41217 0.17228 0.62807z"/>
     <path d="m26.64 39.027h-0.56701c-0.03707 0-0.06979 0.02835-0.06979 0.06979 0 0.04143 0.03271 0.06979 0.06979 0.06979h0.21372v1.1864c0 0.04144 0.03271 0.06979 0.06979 0.06979 0.04144 0 0.06979-0.02835 0.06979-0.06979v-1.1864h0.21372c0.04143 0 0.06979-0.02835 0.06979-0.06979s-0.02835-0.06979-0.06979-0.06979z"/>
     <path d="m27.451 39.027h-0.56701c-0.03707 0-0.06979 0.02835-0.06979 0.06979 0 0.04143 0.03271 0.06979 0.06979 0.06979h0.21372v1.1864c0 0.04144 0.03271 0.06979 0.06979 0.06979 0.04144 0 0.06979-0.02835 0.06979-0.06979v-1.1864h0.21372c0.04143 0 0.06979-0.02835 0.06979-0.06979s-0.02835-0.06979-0.06979-0.06979z"/>
    </g>
    <g aria-label="CV INV">
     <path d="m23.33 42.529c0.14393 0.03926 0.29877-0.02399 0.37292-0.15484 0.01745-0.03271 0.0065-0.07633-0.02617-0.09596-0.03271-0.01745-0.07633-0.0065-0.09596 0.02617-0.04362 0.07633-0.13085 0.1134-0.2159 0.08941-0.08505-0.02399-0.14175-0.09814-0.14175-0.18537v-0.74148c0-0.08723 0.0567-0.16138 0.14175-0.18537 0.08505-0.02399 0.17228 0.01308 0.2159 0.08941 0.01963 0.03271 0.06324 0.0458 0.09596 0.02617 0.03271-0.01963 0.04362-0.06324 0.02617-0.09596-0.07633-0.12867-0.2268-0.19627-0.37292-0.15484-0.1483 0.04144-0.24643 0.1701-0.24643 0.32058v0.74148c0 0.15048 0.09814 0.27914 0.24643 0.32058z"/>
     <path d="m23.858 41.225 0.34893 1.2649c0.0087 0.02835 0.03489 0.05016 0.06761 0.05016 0.03271 0 0.05888-0.02181 0.06542-0.05016l0.34893-1.2649c0.0109-0.03707-0.0109-0.07633-0.04798-0.08723-0.03707-0.0087-0.07633 0.01309-0.08505 0.05016-0.03707 0.13303-0.07415 0.26388-0.10904 0.39036-0.05888 0.21372-0.13085 0.47106-0.17228 0.63025-0.04798-0.1592-0.11558-0.41435-0.17446-0.63025-0.03489-0.12649-0.07197-0.25734-0.10904-0.39036-0.0087-0.03707-0.04798-0.05888-0.08505-0.05016-0.03707 0.0109-0.05888 0.05016-0.04798 0.08723z"/>
     <path d="m25.363 42.54c0.04144 0 0.06979-0.02835 0.06979-0.06979v-1.2649c0-0.04143-0.02835-0.06979-0.06979-0.06979-0.03707 0-0.06979 0.02835-0.06979 0.06979v1.2649c0 0.04143 0.03271 0.06979 0.06979 0.06979z"/>
     <path d="m26.408 42.538c0.03271-0.0065 0.05452-0.03489 0.05452-0.06761v-1.2649c0-0.04143-0.02835-0.06979-0.06979-0.06979s-0.06979 0.02835-0.06979 0.06979v0.95956c-0.08069-0.16792-0.20282-0.41872-0.30095-0.62153-0.05888-0.11994-0.11776-0.24425-0.17664-0.36856-0.01527-0.02835-0.0458-0.04362-0.07851-0.03707-0.03271 0.0065-0.05452 0.03489-0.05452 0.06761v1.2649c0 0.04143 0.02835 0.06979 0.06979 0.06979 0.04143 0 0.06979-0.02835 0.06979-0.06979v-0.95956c0.08069 0.16792 0.20064 0.41872 0.29877 0.62153 0.05888 0.11994 0.11776 0.24425 0.17883 0.36856 0.01527 0.02835 0.0458 0.0458 0.07851 0.03707z"/>
     <path d="m26.667 41.225 0.34893 1.2649c0.0087 0.02835 0.03489 0.05016 0.06761 0.05016 0.03271 0 0.05888-0.02181 0.06543-0.05016l0.34893-1.2649c0.0109-0.03707-0.0109-0.07633-0.04798-0.08723-0.03707-0.0087-0.07633 0.01309-0.08505 0.05016-0.03707 0.13303-0.07415 0.26388-0.10904 0.39036-0.05888 0.21372-0.13085 0.47106-0.17228 0.63025-0.04798-0.1592-0.11558-0.41435-0.17446-0.63025-0.03489-0.12649-0.07197-0.25734-0.10904-0.39036-0.0087-0.03707-0.04798-0.05888-0.08505-0.05016-0.03707 0.0109-0.05888 0.05016-0.04798 0.08723z"/>
    </g>
   </g>
   <g stroke-linecap="round" stroke-width=".635">
    <circle cx="1.2208" cy="65.485" r=".64311" style="paint-order:fill markers stroke"/>
    <circle cx="1.2208" cy="67.601" r=".64311" style="paint-order:fill markers stroke"/>
    <circle cx="1.2208" cy="69.718" r=".64311" style="paint-order:fill markers stroke"/>
    <circle cx="1.2418" cy="8.9319" r=".64311" style="paint-order:fill markers stroke"/>
    <circle cx="1.2418" cy="11.049" r=".64311" style="paint-order:fill markers stroke"/>
    <circle cx="1.2418" cy="13.165" r=".64311" style="paint-order:fill markers stroke"/>
    <circle transform="scale(-1,1)" cx="-28.51" cy="37.604" r=".64311" style="paint-order:fill markers stroke"/>
    <circle transform="scale(-1,1)" cx="-28.51" cy="39.721" r=".64311" style="paint-order:fill markers stroke"/>
    <circle transform="scale(-1,1)" cx="-28.51" cy="41.838" r=".64311" style="paint-order:fill markers stroke"/>
   </g>
  </g>
  <g fill="none" stroke="#fff" stroke-linecap="round" stroke-width=".84376">
   <path transform="scale(-1,1)" d="m-16.112 56.589a7.3569 7.3569 0 0 1-2.5107-8.1456 7.3569 7.3569 0 0 1 6.8671-5.0495 7.3569 7.3569 0 0 1 7.0267 4.825 7.3569 7.3569 0 0 1-2.2462 8.2224"/>
   <path transform="scale(-1,1)" d="m-22.551 28.063a7.3569 7.3569 0 0 1-2.5107-8.1456 7.3569 7.3569 0 0 1 6.8671-5.0495 7.3569 7.3569 0 0 1 7.0267 4.825 7.3569 7.3569 0 0 1-2.2462 8.2224"/>
   <path transform="scale(-1,1)" d="m-22.551 84.629a7.3569 7.3569 0 0 1-2.5107-8.1456 7.3569 7.3569 0 0 1 6.8671-5.0495 7.3569 7.3569 0 0 1 7.0267 4.825 7.3569 7.3569 0 0 1-2.2462 8.2224"/>
  </g>
  <rect y="108.49" width="29.674" height="9.6778" rx="2.3679" ry="2.3679" fill="#fff"/>
  <path d="m5.6572 27.672h-4.0337c-0.20173 0-0.43695-0.27223-0.43695-0.61037v-8.7122c0-0.33815 0.23522-0.61037 0.43695-0.61037h4.0337c0.20173 0 0.45515 0.27222 0.45515 0.61037v8.7122c0 0.33814-0.25342 0.61037-0.45515 0.61037z" fill="none" stroke="#fff" stroke-linecap="round" stroke-width=".20268"/>
  <g transform="scale(1.0406 .96097)" fill="#fff" stroke-width=".26458" aria-label="10V">
   <path d="m12.892 96.175 0.16453-0.16453v1.2539c0 0.04736 0.03241 0.07977 0.07977 0.07977 0.04238 0 0.07977-0.03241 0.07977-0.07977v-1.4458c0-0.03739-0.01745-0.06232-0.04986-0.07479-0.02991-0.01-0.06481-5e-3 -0.08725 0.01745l-0.29914 0.29914c-0.01496 0.01745-0.02244 0.0349-0.02244 0.05734s0.0075 0.03988 0.02244 0.05734c0.01745 0.01496 0.0349 0.02244 0.05734 0.02244 0.02243 0 0.03988-0.0075 0.05484-0.02244z"/>
   <path d="m14.102 97.344c0.2069 0 0.37891-0.16951 0.37891-0.37891v-0.84756c0-0.2094-0.172-0.37891-0.37891-0.37891-0.2094 0-0.37891 0.16951-0.37891 0.37891v0.84756c0 0.2094 0.16951 0.37891 0.37891 0.37891zm0-1.4458c0.11966 0 0.21937 0.09971 0.21937 0.21937v0.84756c0 0.12215-0.09971 0.21937-0.21937 0.21937-0.12215 0-0.21937-0.09722-0.21937-0.21937v-0.84756c0-0.11966 0.09722-0.21937 0.21937-0.21937z"/>
   <path d="m14.695 95.841 0.39885 1.4458c0.01 0.03241 0.03989 0.05733 0.07728 0.05733s0.06731-0.02493 0.07478-0.05733l0.39885-1.4458c0.01246-0.04238-0.01246-0.08725-0.05484-0.09971-0.04238-0.01-0.08725 0.01496-0.09722 0.05734-0.04238 0.15206-0.08476 0.30163-0.12464 0.44622-0.06731 0.2443-0.14957 0.53845-0.19693 0.72043-0.05484-0.18198-0.13212-0.47364-0.19943-0.72043-0.03988-0.14458-0.08226-0.29415-0.12464-0.44622-0.01-0.04238-0.05484-0.06731-0.09722-0.05734-0.04238 0.01246-0.06731 0.05734-0.05484 0.09971z"/>
   <path d="m22.645 96.224 0.16453-0.16453v1.2539c0 0.04736 0.03241 0.07977 0.07977 0.07977 0.04238 0 0.07977-0.03241 0.07977-0.07977v-1.4458c0-0.03739-0.01745-0.06232-0.04986-0.07478-0.02991-0.01-0.06481-5e-3 -0.08725 0.01745l-0.29914 0.29914c-0.01496 0.01745-0.02244 0.0349-0.02244 0.05734s0.0075 0.03988 0.02244 0.05733c0.01745 0.01496 0.0349 0.02244 0.05733 0.02244 0.02244 0 0.03989-0.0075 0.05484-0.02244z"/>
   <path d="m23.856 97.393c0.2069 0 0.37891-0.16951 0.37891-0.37891v-0.84756c0-0.2094-0.172-0.37891-0.37891-0.37891-0.2094 0-0.37891 0.16951-0.37891 0.37891v0.84756c0 0.2094 0.16951 0.37891 0.37891 0.37891zm0-1.4458c0.11966 0 0.21937 0.09971 0.21937 0.21937v0.84756c0 0.12215-0.09971 0.21937-0.21937 0.21937-0.12215 0-0.21937-0.09722-0.21937-0.21937v-0.84756c0-0.11966 0.09722-0.21937 0.21937-0.21937z"/>
   <path d="m24.448 95.89 0.39885 1.4458c0.01 0.03241 0.03989 0.05734 0.07728 0.05734s0.06731-0.02493 0.07479-0.05734l0.39884-1.4458c0.01246-0.04238-0.01246-0.08725-0.05484-0.09971-0.04238-0.01-0.08725 0.01496-0.09722 0.05733-0.04238 0.15206-0.08476 0.30163-0.12464 0.44622-0.06731 0.2443-0.14957 0.53845-0.19693 0.72043-0.05484-0.18198-0.13212-0.47364-0.19943-0.72043-0.03988-0.14458-0.08226-0.29415-0.12464-0.44622-0.01-0.04238-0.05484-0.06731-0.09722-0.05733-0.04238 0.01246-0.06731 0.05733-0.05484 0.09971z"/>
  </g>
  <g fill="none" stroke="#fff">
   <path d="m1.2051 8.6176v5.9143c-0.0015 0.77801 2.4113 1.1895 2.3555 1.9143v1.2759" stroke-width=".26458px"/>
   <path d="m5.6418 84.225h-4.0337c-0.20173 0-0.43695-0.27223-0.43695-0.61037v-8.7122c0-0.33815 0.23522-0.61037 0.43695-0.61037h4.0337c0.20173 0 0.45515 0.27222 0.45515 0.61037v8.7122c0 0.33814-0.25342 0.61037-0.45515 0.61037z" stroke-linecap="round" stroke-width=".20268"/>
   <path d="m1.1897 65.17v5.9143c-0.0015 0.77801 2.4113 1.1895 2.3555 1.9143v1.2759" stroke-width=".26458px"/>
   <path d="m24.067 56.468h3.9713c0.20173 0 0.47726-0.27223 0.47726-0.61037v-8.7122c0-0.33815-0.27553-0.61037-0.47726-0.61037h-3.9713c-0.20173 0-0.47726 0.27222-0.47726 0.61037v8.7122c0 0.33814 0.27553 0.61037 0.47726 0.61037z" stroke-linecap="round" stroke-width=".20268"/>
   <path d="m28.497 37.414v5.9143c0.0015 0.77801-2.4113 1.1895-2.3555 1.9143v1.2759" stroke-width=".26458px"/>
  </g>
  <text transform="skewY(-2.9391)" x="21.501423" y="123.45103" fill="#ffffff" font-family="Miso" font-stretch="condensed" font-weight="bold" letter-spacing="-.015875px" stroke-width=".26458" word-spacing="0px" style="line-height:0%" xml:space="preserve"><tspan x="21.501423" y="123.45103" font-size="3.7042px" stroke-width=".26458" style="line-height:1.25"> </tspan></text>
 </g>
 <g display="none">
  <g fill="#f00">
   <circle cx="18.217" cy="22.18" r="1.707" display="inline"/>
   <circle cx="11.777" cy="50.761" r="1.707" display="inline"/>
   <circle cx="18.31" cy="78.89" r="1.707" display="inline"/>
  </g>
  <g fill="#0f0">
   <circle cx="5.008" cy="100.31" r="1.707" display="inline"/>
   <circle cx="14.993" cy="100.31" r="1.707" display="inline"/>
   <circle cx="24.978" cy="100.31" r="1.707" display="inline"/>
  </g>
  <g fill="#00f">
   <circle cx="5" cy="113.21" r="1.707" display="inline"/>
   <circle cx="14.978" cy="113.18" r="1.707" display="inline"/>
   <circle cx="25.014" cy="113.21" r="1.707" display="inline"/>
  </g>
  <g fill="#f00">
   <rect x="1.2981" y="17.851" width="1.7992" height="3.9197"/>
   <rect x="23.762" y="46.679" width="1.7992" height="3.9197" display="inline"/>
   <rect x="1.3403" y="74.461" width="1.7992" height="3.9197" display="inline"/>
  </g>
 </g>
</svg>
