<?xml version="1.0" encoding="UTF-8"?>
<svg width="81.28mm" height="128.5mm" version="1.1" viewBox="0 0 81.28 128.5" xmlns="http://www.w3.org/2000/svg" xmlns:cc="http://creativecommons.org/ns#" xmlns:dc="http://purl.org/dc/elements/1.1/" xmlns:rdf="http://www.w3.org/1999/02/22-rdf-syntax-ns#">
 <metadata>
  <rdf:RDF>
   <cc:Work rdf:about="">
    <dc:format>image/svg+xml</dc:format>
    <dc:type rdf:resource="http://purl.org/dc/dcmitype/StillImage"/>
   </cc:Work>
  </rdf:RDF>
 </metadata>
 <g transform="translate(0,-168.5)">
  <path d="m0.10024 168.6h81.08v128.3h-81.08z" fill="#171717" stroke="#000" stroke-linecap="round" stroke-width=".20048"/>
  <g transform="matrix(.28219 0 0 .28222 .91806 -.025819)" fill="none" stroke="#fff" stroke-linecap="round" stroke-width="1.3536">
   <path d="m4.3228 857.15h3.1859"/>
   <path d="m4.3228 839.54h3.1859"/>
   <path d="m4.3228 821.94h3.1859"/>
   <path d="m4.3228 804.34h3.1859"/>
   <path d="m4.3228 786.73h3.1859"/>
   <path d="m4.3228 769.13h3.1859"/>
   <path d="m4.3228 751.53h3.1859"/>
  </g>
  <g transform="matrix(.28219 0 0 .28222 11.053 -.025819)" fill="none" stroke="#fff" stroke-linecap="round" stroke-width="1.3536">
   <path d="m4.3228 857.15h3.1859"/>
   <path d="m4.3228 839.54h3.1859"/>
   <path d="m4.3228 821.94h3.1859"/>
   <path d="m4.3228 804.34h3.1859"/>
   <path d="m4.3228 786.73h3.1859"/>
   <path d="m4.3228 769.13h3.1859"/>
   <path d="m4.3228 751.53h3.1859"/>
  </g>
  <g transform="matrix(.28219 0 0 .28222 21.189 -.025819)" fill="none" stroke="#fff" stroke-linecap="round" stroke-width="1.3536">
   <path d="m4.3228 857.15h3.1859"/>
   <path d="m4.3228 839.54h3.1859"/>
   <path d="m4.3228 821.94h3.1859"/>
   <path d="m4.3228 804.34h3.1859"/>
   <path d="m4.3228 786.73h3.1859"/>
   <path d="m4.3228 769.13h3.1859"/>
   <path d="m4.3228 751.53h3.1859"/>
  </g>
  <g transform="matrix(.28219 0 0 .28222 31.324 -.025819)" fill="none" stroke="#fff" stroke-linecap="round" stroke-width="1.3536">
   <path d="m4.3228 857.15h3.1859"/>
   <path d="m4.3228 839.54h3.1859"/>
   <path d="m4.3228 821.94h3.1859"/>
   <path d="m4.3228 804.34h3.1859"/>
   <path d="m4.3228 786.73h3.1859"/>
   <path d="m4.3228 769.13h3.1859"/>
   <path d="m4.3228 751.53h3.1859"/>
  </g>
  <g transform="matrix(.28219 0 0 .28222 46.368 -.025819)" fill="none" stroke="#fff" stroke-linecap="round" stroke-width="1.3536">
   <path d="m4.3228 857.15h3.1859"/>
   <path d="m4.3228 839.54h3.1859"/>
   <path d="m4.3228 821.94h3.1859"/>
   <path d="m4.3228 804.34h3.1859"/>
   <path d="m4.3228 786.73h3.1859"/>
   <path d="m4.3228 769.13h3.1859"/>
   <path d="m4.3228 751.53h3.1859"/>
  </g>
  <g transform="matrix(.28219 0 0 .28222 56.503 -.025819)" fill="none" stroke="#fff" stroke-linecap="round" stroke-width="1.3536">
   <path d="m4.3228 857.15h3.1859"/>
   <path d="m4.3228 839.54h3.1859"/>
   <path d="m4.3228 821.94h3.1859"/>
   <path d="m4.3228 804.34h3.1859"/>
   <path d="m4.3228 786.73h3.1859"/>
   <path d="m4.3228 769.13h3.1859"/>
   <path d="m4.3228 751.53h3.1859"/>
  </g>
  <g transform="matrix(.28219 0 0 .28222 66.638 -.025819)" fill="none" stroke="#fff" stroke-linecap="round" stroke-width="1.3536">
   <path d="m4.3228 857.15h3.1859"/>
   <path d="m4.3228 839.54h3.1859"/>
   <path d="m4.3228 821.94h3.1859"/>
   <path d="m4.3228 804.34h3.1859"/>
   <path d="m4.3228 786.73h3.1859"/>
   <path d="m4.3228 769.13h3.1859"/>
   <path d="m4.3228 751.53h3.1859"/>
  </g>
  <g transform="matrix(.28219 0 0 .28222 76.774 -.025819)" fill="none" stroke="#fff" stroke-linecap="round" stroke-width="1.3536">
   <path d="m4.3228 857.15h3.1859"/>
   <path d="m4.3228 839.54h3.1859"/>
   <path d="m4.3228 821.94h3.1859"/>
   <path d="m4.3228 804.34h3.1859"/>
   <path d="m4.3228 786.73h3.1859"/>
   <path d="m4.3228 769.13h3.1859"/>
   <path d="m4.3228 751.53h3.1859"/>
  </g>
  <g transform="matrix(.28219 0 0 .28222 5.8229 -.025819)" fill="none" stroke="#fff" stroke-linecap="round" stroke-width="1.3536">
   <path d="m4.3228 857.15h3.1859"/>
   <path d="m4.3228 839.54h3.1859"/>
   <path d="m4.3228 821.94h3.1859"/>
   <path d="m4.3228 804.34h3.1859"/>
   <path d="m4.3228 786.73h3.1859"/>
   <path d="m4.3228 769.13h3.1859"/>
   <path d="m4.3228 751.53h3.1859"/>
  </g>
  <g transform="matrix(.28219 0 0 .28222 15.958 -.025819)" fill="none" stroke="#fff" stroke-linecap="round" stroke-width="1.3536">
   <path d="m4.3228 857.15h3.1859"/>
   <path d="m4.3228 839.54h3.1859"/>
   <path d="m4.3228 821.94h3.1859"/>
   <path d="m4.3228 804.34h3.1859"/>
   <path d="m4.3228 786.73h3.1859"/>
   <path d="m4.3228 769.13h3.1859"/>
   <path d="m4.3228 751.53h3.1859"/>
  </g>
  <g transform="matrix(.28219 0 0 .28222 26.093 -.025819)" fill="none" stroke="#fff" stroke-linecap="round" stroke-width="1.3536">
   <path d="m4.3228 857.15h3.1859"/>
   <path d="m4.3228 839.54h3.1859"/>
   <path d="m4.3228 821.94h3.1859"/>
   <path d="m4.3228 804.34h3.1859"/>
   <path d="m4.3228 786.73h3.1859"/>
   <path d="m4.3228 769.13h3.1859"/>
   <path d="m4.3228 751.53h3.1859"/>
  </g>
  <g transform="matrix(.28219 0 0 .28222 36.229 -.025819)" fill="none" stroke="#fff" stroke-linecap="round" stroke-width="1.3536">
   <path d="m4.3228 857.15h3.1859"/>
   <path d="m4.3228 839.54h3.1859"/>
   <path d="m4.3228 821.94h3.1859"/>
   <path d="m4.3228 804.34h3.1859"/>
   <path d="m4.3228 786.73h3.1859"/>
   <path d="m4.3228 769.13h3.1859"/>
   <path d="m4.3228 751.53h3.1859"/>
  </g>
  <g transform="matrix(.28219 0 0 .28222 41.473 -.025819)" fill="none" stroke="#fff" stroke-linecap="round" stroke-width="1.3536">
   <path d="m4.3228 857.15h3.1859"/>
   <path d="m4.3228 839.54h3.1859"/>
   <path d="m4.3228 821.94h3.1859"/>
   <path d="m4.3228 804.34h3.1859"/>
   <path d="m4.3228 786.73h3.1859"/>
   <path d="m4.3228 769.13h3.1859"/>
   <path d="m4.3228 751.53h3.1859"/>
  </g>
  <g transform="matrix(.28219 0 0 .28222 51.609 -.025819)" fill="none" stroke="#fff" stroke-linecap="round" stroke-width="1.3536">
   <path d="m4.3228 857.15h3.1859"/>
   <path d="m4.3228 839.54h3.1859"/>
   <path d="m4.3228 821.94h3.1859"/>
   <path d="m4.3228 804.34h3.1859"/>
   <path d="m4.3228 786.73h3.1859"/>
   <path d="m4.3228 769.13h3.1859"/>
   <path d="m4.3228 751.53h3.1859"/>
  </g>
  <g transform="matrix(.28219 0 0 .28222 61.744 -.025819)" fill="none" stroke="#fff" stroke-linecap="round" stroke-width="1.3536">
   <path d="m4.3228 857.15h3.1859"/>
   <path d="m4.3228 839.54h3.1859"/>
   <path d="m4.3228 821.94h3.1859"/>
   <path d="m4.3228 804.34h3.1859"/>
   <path d="m4.3228 786.73h3.1859"/>
   <path d="m4.3228 769.13h3.1859"/>
   <path d="m4.3228 751.53h3.1859"/>
  </g>
  <g transform="matrix(.28219 0 0 .28222 71.879 -.025819)" fill="none" stroke="#fff" stroke-linecap="round" stroke-width="1.3536">
   <path d="m4.3228 857.15h3.1859"/>
   <path d="m4.3228 839.54h3.1859"/>
   <path d="m4.3228 821.94h3.1859"/>
   <path d="m4.3228 804.34h3.1859"/>
   <path d="m4.3228 786.73h3.1859"/>
   <path d="m4.3228 769.13h3.1859"/>
   <path d="m4.3228 751.53h3.1859"/>
  </g>
  <g fill="#fff">
   <g transform="matrix(.28221 0 0 .28224 .017639 168.2)" aria-label="GATE MODE">
    <path d="m251.02 78.083h-1.1249c-0.29248 0-0.53997 0.24748-0.53997 0.53997 0 0.30373 0.24749 0.53997 0.53997 0.53997h0.58497v1.2599c0 0.44997-0.35998 0.80995-0.80995 0.80995-0.43873 0-0.80996-0.35998-0.80996-0.80995v-3.8248c0-0.35998 0.24749-0.68621 0.60747-0.7762 0.34873-0.10124 0.71996 0.05625 0.91119 0.37123 0.14625 0.25874 0.47248 0.34873 0.73121 0.20249 0.25874-0.15749 0.34873-0.48372 0.20249-0.74246-0.42747-0.74246-1.3049-1.1024-2.1261-0.87745-0.83245 0.21374-1.4062 0.96744-1.4062 1.8224v3.8248c0 1.0462 0.85495 1.8899 1.8899 1.8899 1.0462 0 1.8899-0.8437 1.8899-1.8899v-1.7999c0-0.29248-0.23624-0.53997-0.53997-0.53997z"/>
    <path d="m254.85 75.102c-0.0563-0.23624-0.26999-0.39373-0.51747-0.39373-0.24749 0-0.46123 0.15749-0.51747 0.39373l-1.7999 6.5246c-0.0788 0.29248 0.09 0.58497 0.37123 0.66371 0.29248 0.07875 0.58496-0.09 0.66371-0.37123 0 0 0.13499-0.48372 0.32623-1.1812h1.9124c0.19124 0.69746 0.32623 1.1812 0.32623 1.1812 0.0788 0.28123 0.37123 0.44997 0.66371 0.37123 0.28124-0.07874 0.44998-0.37123 0.37123-0.66371zm-1.1699 4.556c0.21374-0.7762 0.44998-1.6424 0.65247-2.3736 0.20248 0.73121 0.43872 1.5974 0.65246 2.3736z"/>
    <path d="m256.81 74.753c-0.29248 0-0.53997 0.24749-0.53997 0.53997 0 0.30373 0.24749 0.53997 0.53997 0.53997h0.92245v5.9397c0 0.30373 0.24748 0.53997 0.53997 0.53997 0.30373 0 0.53996-0.23624 0.53996-0.53997v-5.9397h0.92245c0.30373 0 0.53997-0.23624 0.53997-0.53997 0-0.29248-0.23624-0.53997-0.53997-0.53997z"/>
    <path d="m260.94 75.293v6.4346c0 0.30373 0.24748 0.53997 0.53997 0.53997h2.2499c0.30373 0 0.53996-0.23624 0.53996-0.53997 0-0.29248-0.23623-0.53997-0.53996-0.53997h-1.7099v-2.2499h1.4849c0.30373 0 0.53997-0.23624 0.53997-0.53997 0-0.29248-0.23624-0.53997-0.53997-0.53997h-1.4849v-2.0249h1.7099c0.30373 0 0.53996-0.23624 0.53996-0.53997 0-0.29248-0.23623-0.53997-0.53996-0.53997h-2.2499c-0.29249 0-0.53997 0.24749-0.53997 0.53997z"/>
    <path d="m247.39 91.312c0.29249 0 0.53997-0.23624 0.53997-0.53997v-4.106c0.37123 0.7987 0.76496 1.6312 0.76496 1.6312 0.09 0.19124 0.28123 0.31498 0.49497 0.31498 0.20249 0 0.39373-0.12374 0.48372-0.31498 0 0 0.39373-0.83245 0.77621-1.6312v4.106c0 0.30373 0.23623 0.53997 0.53997 0.53997 0.29248 0 0.53996-0.23624 0.53996-0.53997v-6.5246c0-0.24749-0.17999-0.47247-0.42747-0.52872-0.24749-0.05625-0.49497 0.0675-0.60747 0.30373 0 0-0.78745 1.6762-1.3049 2.7786-0.51747-1.1024-1.3162-2.7786-1.3162-2.7786-0.10125-0.23624-0.35998-0.35998-0.60747-0.30373-0.24748 0.05625-0.41622 0.28123-0.41622 0.52872v6.5246c0 0.30373 0.23623 0.53997 0.53996 0.53997z"/>
    <path d="m254.39 91.312c1.0462 0 1.8899-0.8437 1.8899-1.8899v-3.8248c0-1.0462-0.8437-1.8899-1.8899-1.8899-1.0462 0-1.8899 0.8437-1.8899 1.8899v3.8248c0 1.0462 0.84371 1.8899 1.8899 1.8899zm0-6.5246c0.44998 0 0.80996 0.35998 0.80996 0.80995v3.8248c0 0.44997-0.35998 0.80995-0.80996 0.80995-0.44997 0-0.80995-0.35998-0.80995-0.80995v-3.8248c0-0.44997 0.35998-0.80995 0.80995-0.80995z"/>
    <path d="m257.79 83.753c-0.30373 0-0.53997 0.24749-0.53997 0.53997v6.4346c0 0.30373 0.23624 0.53997 0.53997 0.53997h1.3499c1.0462 0 1.8899-0.8437 1.8899-1.8899v-3.7348c0-1.0462-0.8437-1.8899-1.8899-1.8899zm2.1599 1.8899v3.7348c0 0.44997-0.35998 0.80995-0.80996 0.80995h-0.80995v-5.3547h0.80995c0.44998 0 0.80996 0.35998 0.80996 0.80995z"/>
    <path d="m262.01 84.293v6.4346c0 0.30373 0.24749 0.53997 0.53997 0.53997h2.2499c0.30373 0 0.53997-0.23624 0.53997-0.53997 0-0.29248-0.23624-0.53997-0.53997-0.53997h-1.7099v-2.2499h1.4849c0.30373 0 0.53997-0.23624 0.53997-0.53997 0-0.29248-0.23624-0.53997-0.53997-0.53997h-1.4849v-2.0249h1.7099c0.30373 0 0.53997-0.23624 0.53997-0.53997 0-0.29248-0.23624-0.53997-0.53997-0.53997h-2.2499c-0.29248 0-0.53997 0.24749-0.53997 0.53997z"/>
   </g>
   <path d="m60.169 183.86h6.375" stroke="#fff" stroke-width=".282"/>
   <g>
    <g transform="matrix(.28221 0 0 .28224 .017639 168.2)" aria-label="CLOCK OUT">
     <path d="m209.82 131.66c0.83246 0.22499 1.6987-0.13499 2.1261-0.87745 0.15749-0.25873 0.0675-0.58496-0.19124-0.74245-0.25873-0.14625-0.58496-0.0563-0.74245 0.20248-0.17999 0.31499-0.55122 0.47248-0.9112 0.38248-0.34873-0.10124-0.59622-0.41622-0.59622-0.78745v-3.8248c0-0.35998 0.24749-0.68621 0.59622-0.7762 0.35998-0.10125 0.73121 0.0562 0.9112 0.37122 0.15749 0.25874 0.48372 0.34873 0.74245 0.20249 0.25874-0.15749 0.34873-0.48372 0.19124-0.74245-0.42747-0.74246-1.2937-1.1024-2.1261-0.87745-0.8212 0.21373-1.3949 0.96744-1.3949 1.8224v3.8248c0 0.85495 0.57371 1.6086 1.3949 1.8224z"/>
     <path d="m213.37 131.68h2.2499c0.29248 0 0.53997-0.23624 0.53997-0.53997 0-0.29248-0.24749-0.53997-0.53997-0.53997h-1.7099v-5.9396c0-0.29248-0.24748-0.53997-0.53997-0.53997-0.30373 0-0.53997 0.24749-0.53997 0.53997v6.4796c0 0.30373 0.23624 0.53997 0.53997 0.53997z"/>
     <path d="m218.44 131.73c1.0462 0 1.8899-0.8437 1.8899-1.8899v-3.8248c0-1.0462-0.8437-1.8899-1.8899-1.8899s-1.8899 0.8437-1.8899 1.8899v3.8248c0 1.0462 0.8437 1.8899 1.8899 1.8899zm0-6.5246c0.44997 0 0.80995 0.35998 0.80995 0.80995v3.8248c0 0.44997-0.35998 0.80995-0.80995 0.80995s-0.80995-0.35998-0.80995-0.80995v-3.8248c0-0.44997 0.35998-0.80995 0.80995-0.80995z"/>
     <path d="m222.56 131.66c0.83245 0.22499 1.6986-0.13499 2.1261-0.87745 0.15749-0.25873 0.0675-0.58496-0.19124-0.74245-0.25873-0.14625-0.58496-0.0563-0.74245 0.20248-0.17999 0.31499-0.55122 0.47248-0.9112 0.38248-0.34873-0.10124-0.59621-0.41622-0.59621-0.78745v-3.8248c0-0.35998 0.24748-0.68621 0.59621-0.7762 0.35998-0.10125 0.73121 0.0562 0.9112 0.37122 0.15749 0.25874 0.48372 0.34873 0.74245 0.20249 0.25874-0.15749 0.34873-0.48372 0.19124-0.74245-0.42747-0.74246-1.2937-1.1024-2.1261-0.87745-0.82121 0.21373-1.3949 0.96744-1.3949 1.8224v3.8248c0 0.85495 0.57371 1.6086 1.3949 1.8224z"/>
     <path d="m227.79 127.35 1.6874-2.3736c0.17999-0.24749 0.12374-0.58497-0.12374-0.75371-0.23624-0.16874-0.57372-0.11249-0.75371 0.12375l-1.9461 2.7336v-2.4186c0-0.29248-0.23623-0.53997-0.53997-0.53997-0.29248 0-0.53996 0.24749-0.53996 0.53997v6.5246c0 0.30373 0.24748 0.53997 0.53996 0.53997 0.30374 0 0.53997-0.23624 0.53997-0.53997v-2.2499l0.42748-0.58497 1.4737 3.0711c0.13499 0.26998 0.44998 0.38247 0.71996 0.24748 0.26998-0.12374 0.38248-0.44997 0.25874-0.71996z"/>
     <path d="m234.1 131.73c1.0462 0 1.8899-0.8437 1.8899-1.8899v-3.8248c0-1.0462-0.8437-1.8899-1.8899-1.8899s-1.8899 0.8437-1.8899 1.8899v3.8248c0 1.0462 0.8437 1.8899 1.8899 1.8899zm0-6.5246c0.44998 0 0.80996 0.35998 0.80996 0.80995v3.8248c0 0.44997-0.35998 0.80995-0.80996 0.80995-0.44997 0-0.80995-0.35998-0.80995-0.80995v-3.8248c0-0.44997 0.35998-0.80995 0.80995-0.80995z"/>
     <path d="m237.96 129.84v-5.1747c0-0.29248-0.24749-0.53997-0.53997-0.53997-0.30374 0-0.53997 0.24749-0.53997 0.53997v5.1747c0 1.0462 0.8437 1.8899 1.8899 1.8899 1.0349 0 1.8899-0.8437 1.8899-1.8899v-5.1747c0-0.29248-0.24749-0.53997-0.53997-0.53997-0.30373 0-0.53997 0.24749-0.53997 0.53997v5.1747c0 0.44997-0.37123 0.80995-0.80995 0.80995-0.44998 0-0.80995-0.35998-0.80995-0.80995z"/>
     <path d="m241.77 124.17c-0.29248 0-0.53997 0.24748-0.53997 0.53997 0 0.30373 0.24749 0.53996 0.53997 0.53996h0.92245v5.9397c0 0.30373 0.24748 0.53997 0.53997 0.53997 0.30373 0 0.53997-0.23624 0.53997-0.53997v-5.9397h0.92244c0.30373 0 0.53997-0.23623 0.53997-0.53996 0-0.29249-0.23624-0.53997-0.53997-0.53997z"/>
    </g>
    <g transform="matrix(.28221 0 0 .28224 .017639 168.2)" aria-label="MUXLICER  ">
     <path d="m115.33 18.328c0.46797 0 0.86395-0.37798 0.86395-0.86395v-6.5696c0.59397 1.2779 1.2239 2.6098 1.2239 2.6098 0.14399 0.30598 0.44997 0.50397 0.79195 0.50397 0.32398 0 0.62997-0.19799 0.77396-0.50397 0 0 0.62996-1.3319 1.2419-2.6098v6.5696c0 0.48597 0.37797 0.86395 0.86395 0.86395 0.46797 0 0.86395-0.37798 0.86395-0.86395v-10.439c0-0.39598-0.28799-0.75596-0.68396-0.84595-0.39598-0.089995-0.79196 0.10799-0.97195 0.48597 0 0-1.2599 2.6818-2.0879 4.4457-0.82795-1.7639-2.1059-4.4457-2.1059-4.4457-0.162-0.37798-0.57597-0.57597-0.97195-0.48597-0.39598 0.089995-0.66596 0.44997-0.66596 0.84595v10.439c0 0.48597 0.37798 0.86395 0.86395 0.86395z"/>
     <path d="m125.94 15.304v-8.2795c0-0.46797-0.39598-0.86395-0.86395-0.86395-0.48597 0-0.86395 0.39598-0.86395 0.86395v8.2795c0 1.6739 1.3499 3.0238 3.0238 3.0238 1.6559 0 3.0238-1.3499 3.0238-3.0238v-8.2795c0-0.46797-0.39598-0.86395-0.86395-0.86395-0.48597 0-0.86395 0.39598-0.86395 0.86395v8.2795c0 0.71996-0.59396 1.2959-1.2959 1.2959-0.71996 0-1.2959-0.57597-1.2959-1.2959z"/>
     <path d="m132.3 18.238c0.43198 0.21599 0.95395 0.036 1.1699-0.37798l1.9259-3.8698 1.9259 3.8698c0.21599 0.41398 0.73796 0.59396 1.1519 0.37798 0.43198-0.21599 0.61197-0.73796 0.39598-1.1519l-2.5018-5.0217 2.3219-4.6437c0.21599-0.43197 0.036-0.95394-0.39598-1.1699-0.41397-0.21599-0.93594-0.035998-1.1519 0.39598l-1.7459 3.4918-1.7459-3.4918c-0.21598-0.43197-0.73795-0.61196-1.1699-0.39598-0.41397 0.21599-0.59396 0.73796-0.37798 1.1699l2.3219 4.6437-2.5019 5.0217c-0.21598 0.41398-0.036 0.93594 0.37798 1.1519z"/>
     <path d="m141.53 18.256h3.5998c0.46798 0 0.86395-0.37798 0.86395-0.86395 0-0.46797-0.39597-0.86395-0.86395-0.86395h-2.7358v-9.5034c0-0.46797-0.39598-0.86395-0.86395-0.86395-0.48597 0-0.86395 0.39598-0.86395 0.86395v10.367c0 0.48597 0.37798 0.86395 0.86395 0.86395z"/>
     <path d="m148.33 18.328c0.48597 0 0.86394-0.37798 0.86394-0.86395v-10.439c0-0.46797-0.37797-0.86395-0.86394-0.86395-0.46798 0-0.86395 0.39598-0.86395 0.86395v10.439c0 0.48597 0.39597 0.86395 0.86395 0.86395z"/>
     <path d="m153.61 18.22c1.3319 0.35998 2.7178-0.21599 3.4018-1.4039 0.25199-0.41398 0.108-0.93595-0.30598-1.1879-0.41397-0.23399-0.93594-0.09-1.1879 0.32398-0.28798 0.50397-0.88195 0.75596-1.4579 0.61196-0.55796-0.16199-0.95394-0.66596-0.95394-1.2599v-6.1196c0-0.57597 0.39598-1.0979 0.95394-1.2419 0.57597-0.16199 1.1699 0.089995 1.4579 0.59397 0.25199 0.41398 0.77396 0.55797 1.1879 0.32398 0.41398-0.25199 0.55797-0.77396 0.30598-1.1879-0.68396-1.1879-2.0699-1.7639-3.4018-1.4039-1.3139 0.34198-2.2319 1.5479-2.2319 2.9158v6.1196c0 1.3679 0.91795 2.5739 2.2319 2.9158z"/>
     <path d="m159.06 7.0964v10.295c0 0.48597 0.39598 0.86395 0.86395 0.86395h3.5998c0.48597 0 0.86395-0.37798 0.86395-0.86395 0-0.46797-0.37798-0.86395-0.86395-0.86395h-2.7358v-3.5998h2.3759c0.48597 0 0.86395-0.37798 0.86395-0.86395 0-0.46797-0.37798-0.86395-0.86395-0.86395h-2.3759v-3.2398h2.7358c0.48597 0 0.86395-0.37798 0.86395-0.86395 0-0.46797-0.37798-0.86395-0.86395-0.86395h-3.5998c-0.46797 0-0.86395 0.39598-0.86395 0.86395z"/>
     <path d="m172.26 10.264v-1.0079c0-1.6739-1.3499-3.0238-3.0238-3.0238h-2.1599c-0.46797 0-0.86395 0.39598-0.86395 0.86395v10.367c0 0.48597 0.39598 0.86395 0.86395 0.86395 0.48598 0 0.86395-0.37798 0.86395-0.86395v-4.1758h0.97195l1.6739 4.4817c0.17999 0.44997 0.66596 0.66596 1.1159 0.50397 0.44997-0.16199 0.68396-0.66596 0.50397-1.1159l-1.5659-4.2118c0.97194-0.50397 1.6199-1.5119 1.6199-2.6818zm-4.3198-2.3039h1.2959c0.71996 0 1.2959 0.57597 1.2959 1.2959v1.0079c0 0.71996-0.57596 1.2959-1.2959 1.2959h-1.2959z"/>
    </g>
    <g transform="matrix(.28221 0 0 .28224 .017639 168.2)" aria-label="ADDRESS">
     <path d="m48.82 69.655c-0.05625-0.23624-0.26998-0.39373-0.51747-0.39373-0.24748 0-0.46122 0.15749-0.51747 0.39373l-1.7999 6.5246c-0.07875 0.29248 0.08999 0.58497 0.37123 0.66371 0.29248 0.07875 0.58497-0.08999 0.66371-0.37123 0 0 0.13499-0.48372 0.32623-1.1812h1.9124c0.19124 0.69746 0.32623 1.1812 0.32623 1.1812 0.07875 0.28123 0.37123 0.44997 0.66371 0.37123 0.28123-0.07875 0.44997-0.37123 0.37123-0.66371zm-1.1699 4.556c0.21374-0.7762 0.44997-1.6424 0.65246-2.3736 0.20249 0.73121 0.43872 1.5974 0.65246 2.3736z"/>
     <path d="m51.793 69.307c-0.30373 0-0.53997 0.24749-0.53997 0.53997v6.4346c0 0.30373 0.23624 0.53997 0.53997 0.53997h1.3499c1.0462 0 1.8899-0.8437 1.8899-1.8899v-3.7348c0-1.0462-0.8437-1.8899-1.8899-1.8899zm2.1599 1.8899v3.7348c0 0.44997-0.35998 0.80995-0.80995 0.80995h-0.80995v-5.3547h0.80995c0.44997 0 0.80995 0.35998 0.80995 0.80995z"/>
     <path d="m56.545 69.307c-0.30373 0-0.53997 0.24749-0.53997 0.53997v6.4346c0 0.30373 0.23624 0.53997 0.53997 0.53997h1.3499c1.0462 0 1.8899-0.8437 1.8899-1.8899v-3.7348c0-1.0462-0.8437-1.8899-1.8899-1.8899zm2.1599 1.8899v3.7348c0 0.44997-0.35998 0.80995-0.80995 0.80995h-0.80995v-5.3547h0.80995c0.44997 0 0.80995 0.35998 0.80995 0.80995z"/>
     <path d="m64.536 71.827v-0.62996c0-1.0462-0.8437-1.8899-1.8899-1.8899h-1.3499c-0.29248 0-0.53997 0.24749-0.53997 0.53997v6.4796c0 0.30373 0.24749 0.53997 0.53997 0.53997 0.30373 0 0.53997-0.23624 0.53997-0.53997v-2.6098h0.60746l1.0462 2.8011c0.11249 0.28123 0.41623 0.41622 0.69746 0.31498 0.28123-0.10124 0.42748-0.41623 0.31498-0.69746l-0.97869-2.6323c0.60746-0.31498 1.0124-0.94495 1.0124-1.6762zm-2.6998-1.4399h0.80995c0.44997 0 0.80995 0.35998 0.80995 0.80995v0.62996c0 0.44997-0.35998 0.80995-0.80995 0.80995h-0.80995z"/>
     <path d="m65.377 69.847v6.4346c0 0.30373 0.24749 0.53997 0.53997 0.53997h2.2499c0.30373 0 0.53997-0.23624 0.53997-0.53997 0-0.29248-0.23624-0.53997-0.53997-0.53997h-1.7099v-2.2499h1.4849c0.30373 0 0.53997-0.23624 0.53997-0.53997 0-0.29248-0.23624-0.53997-0.53997-0.53997h-1.4849v-2.0249h1.7099c0.30373 0 0.53997-0.23624 0.53997-0.53997 0-0.29248-0.23624-0.53997-0.53997-0.53997h-2.2499c-0.29248 0-0.53997 0.24749-0.53997 0.53997z"/>
     <path d="m71.461 75.606c-0.20249 0.15749-0.44997 0.21374-0.69746 0.16874-0.24748-0.05625-0.44997-0.20249-0.57372-0.41623-0.15749-0.25874-0.48372-0.34873-0.74246-0.20249-0.25874 0.14624-0.34873 0.48372-0.19124 0.74246 0.26998 0.47247 0.74246 0.8212 1.2937 0.9337 0.55122 0.10124 1.1137-0.0225 1.5637-0.35998 0.43872-0.33748 0.71996-0.8437 0.76496-1.4062 0.045-0.55122-0.15749-1.1024-0.55122-1.5074l-1.7886-1.8449c-0.16874-0.16874-0.24748-0.39373-0.22499-0.61871 0.01125-0.23624 0.12374-0.44997 0.31498-0.58497 0.19124-0.14624 0.41623-0.20249 0.65246-0.15749 0.22499 0.05625 0.41623 0.19124 0.53997 0.39373 0.14624 0.25874 0.47247 0.34873 0.73121 0.20249 0.25874-0.15749 0.34873-0.48372 0.20249-0.74246-0.26998-0.47247-0.73121-0.7987-1.2599-0.9112-0.52872-0.10124-1.0912 0.0225-1.5187 0.34873-0.42748 0.32623-0.69746 0.8212-0.74246 1.3612-0.045 0.53997 0.14624 1.0799 0.52872 1.4624l1.7999 1.8449c0.16874 0.17999 0.25874 0.42748 0.23624 0.67496-0.0225 0.24749-0.13499 0.47247-0.33748 0.61871z"/>
     <path d="m75.707 75.606c-0.20249 0.15749-0.44997 0.21374-0.69746 0.16874-0.24749-0.05625-0.44997-0.20249-0.57372-0.41623-0.15749-0.25874-0.48372-0.34873-0.74246-0.20249-0.25874 0.14624-0.34873 0.48372-0.19124 0.74246 0.26998 0.47247 0.74246 0.8212 1.2937 0.9337 0.55122 0.10124 1.1137-0.0225 1.5637-0.35998 0.43872-0.33748 0.71996-0.8437 0.76496-1.4062 0.045-0.55122-0.15749-1.1024-0.55122-1.5074l-1.7886-1.8449c-0.16874-0.16874-0.24749-0.39373-0.22499-0.61871 0.01125-0.23624 0.12374-0.44997 0.31498-0.58497 0.19124-0.14624 0.41623-0.20249 0.65246-0.15749 0.22499 0.05625 0.41622 0.19124 0.53997 0.39373 0.14624 0.25874 0.47247 0.34873 0.73121 0.20249 0.25874-0.15749 0.34873-0.48372 0.20249-0.74246-0.26998-0.47247-0.73121-0.7987-1.2599-0.9112-0.52872-0.10124-1.0912 0.0225-1.5187 0.34873-0.42748 0.32623-0.69746 0.8212-0.74246 1.3612-0.045 0.53997 0.14624 1.0799 0.52872 1.4624l1.7999 1.8449c0.16874 0.17999 0.25874 0.42748 0.23624 0.67496-0.0225 0.24749-0.13499 0.47247-0.33748 0.61871z"/>
    </g>
   </g>
  </g>
  <g transform="matrix(.28219 0 0 .28222 .036214 -.025819)">
   <path d="m88.465 651.68h-37.325" fill="#fff" stroke="#fff" stroke-width=".99927"/>
  </g>
  <g transform="matrix(.29187 0 0 .29191 -.25137 167.68)">
   <path transform="matrix(.83504 0 0 .83512 -82.005 -127.77)" d="m121.54 240.41a23.963 23.963 0 0 1-11.42-26.995 23.963 23.963 0 0 1 23.247-17.853 23.963 23.963 0 0 1 23.133 18 23.963 23.963 0 0 1-11.592 26.922" enable-background="new" fill="none" stroke="#fff" stroke-width="1.3702px"/>
   <path transform="translate(.01355 -596.08)" d="m39.69 667.85c-0.5816-0.33577-1.3254-0.13648-1.6612 0.44511-0.3358 0.58164-0.1365 1.3254 0.4451 1.6612 0.5817 0.33584 1.3254 0.13655 1.6612-0.44511 0.3358-0.58157 0.1365-1.3254-0.4451-1.6612" enable-background="new" fill="#fff"/>
   <path transform="translate(.01355 -596.08)" d="m20.596 668.9c-1e-4 -0.67166-0.5446-1.2162-1.2163-1.2162-0.6717 3e-5 -1.2163 0.54461-1.2163 1.2163 0 0.67173 0.5445 1.2163 1.2163 1.2162 0.6717 3e-5 1.2162-0.54454 1.2163-1.2163" enable-background="new" fill="#fff"/>
  </g>
  <g transform="matrix(.23991 0 0 .23993 -19.341 173.95)">
   <g transform="matrix(.10651 0 0 .10651 205.15 467.13)" fill="#fff">
    <g fill="#fff">
     <path d="m640.94 328.3h-69.249v-39.014h34.624l1e-3 8.779h34.624v-39.013h-103.87v103.87h103.87z"/>
     <path d="m415.82 300.99v61.936h34.56v-30.232h34.625v30.232h34.688v-103.87h-61.938zm69.206 10-34.668-2e-3 34.668-31.582z"/>
     <path d="m104.15 259.06v-17.561h-34.668l0.156 121.43h103.87v-103.87zm51.598 56.566h-17.33v15.064h-9.383v-15.064h-3.296l-21.749 15.064v-15.064h-17.041v-8.779h17.041v-15.063l21.748 15.063h3.297v-15.063h9.383v15.063h17.33z"/>
     <path d="m658.25 259.06v103.87h103.87v-103.87zm69.123 69.248h-34.624v-34.623h34.624z"/>
     <path d="m231.13 310.99 23.266 21.703h-63.569v30.233h103.87v-30.233l-22.332-21.583 22.332-21.823v-30.234h-103.87v30.234h62.691z"/>
     <path d="m355.54 363.29v-30.73l20.426-21.446-20.426-21.84 50.142 0.137 30.872-30.234h-124.21v30.234l21.492 21.703-21.492 21.752v30.184z"/>
    </g>
   </g>
  </g>
  <g fill="#fff">
   <g transform="matrix(.28221 0 0 .28224 .017639 168.2)" aria-label="COM I/O">
    <path d="m111.33 362.36c0.83245 0.22499 1.6986-0.13499 2.1261-0.87745 0.15749-0.25873 0.0675-0.58496-0.19124-0.74245-0.25873-0.14624-0.58496-0.0562-0.74245 0.20249-0.17999 0.31498-0.55122 0.47247-0.9112 0.38247-0.34873-0.10124-0.59622-0.41622-0.59622-0.78745v-3.8248c0-0.35998 0.24749-0.68621 0.59622-0.7762 0.35998-0.10125 0.73121 0.0562 0.9112 0.37123 0.15749 0.25873 0.48372 0.34873 0.74245 0.20248 0.25874-0.15749 0.34873-0.48372 0.19124-0.74245-0.42747-0.74246-1.2937-1.1024-2.1261-0.87745-0.82121 0.21374-1.3949 0.96744-1.3949 1.8224v3.8248c0 0.85495 0.57371 1.6087 1.3949 1.8224z"/>
    <path d="m116.1 362.43c1.0462 0 1.8899-0.8437 1.8899-1.8899v-3.8248c0-1.0462-0.8437-1.8899-1.8899-1.8899s-1.8899 0.8437-1.8899 1.8899v3.8248c0 1.0462 0.8437 1.8899 1.8899 1.8899zm0-6.5246c0.44998 0 0.80996 0.35998 0.80996 0.80995v3.8248c0 0.44997-0.35998 0.80995-0.80996 0.80995-0.44997 0-0.80995-0.35998-0.80995-0.80995v-3.8248c0-0.44997 0.35998-0.80995 0.80995-0.80995z"/>
    <path d="m119.5 362.43c0.29248 0 0.53997-0.23624 0.53997-0.53997v-4.106c0.37123 0.7987 0.76495 1.6312 0.76495 1.6312 0.09 0.19123 0.28124 0.31498 0.49498 0.31498 0.20248 0 0.39372-0.12375 0.48372-0.31498 0 0 0.39373-0.83246 0.7762-1.6312v4.106c0 0.30373 0.23624 0.53997 0.53997 0.53997 0.29248 0 0.53997-0.23624 0.53997-0.53997v-6.5246c0-0.24749-0.17999-0.47247-0.42747-0.52872-0.24749-0.0562-0.49498 0.0675-0.60747 0.30373 0 0-0.78745 1.6762-1.3049 2.7786-0.51747-1.1024-1.3162-2.7786-1.3162-2.7786-0.10124-0.23623-0.35998-0.35998-0.60746-0.30373-0.24749 0.0563-0.41623 0.28123-0.41623 0.52872v6.5246c0 0.30373 0.23624 0.53997 0.53997 0.53997z"/>
    <path d="m112.24 371.31c0.30373 0 0.53997-0.23623 0.53997-0.53996v-6.5246c0-0.29248-0.23624-0.53996-0.53997-0.53996-0.29248 0-0.53997 0.24748-0.53997 0.53996v6.5246c0 0.30373 0.24749 0.53996 0.53997 0.53996z"/>
    <path d="m117.18 363.29c-0.28123-0.10124-0.59621 0.045-0.69746 0.32623l-2.6998 7.4246c-0.10124 0.28123 0.045 0.58497 0.32623 0.68621 0.28124 0.10124 0.58497-0.045 0.68621-0.32623l2.6998-7.4246c0.11249-0.26998-0.0337-0.58497-0.31499-0.68621z"/>
    <path d="m120.25 371.31c1.0462 0 1.8899-0.8437 1.8899-1.8899v-3.8248c0-1.0462-0.8437-1.8899-1.8899-1.8899s-1.8899 0.8437-1.8899 1.8899v3.8248c0 1.0462 0.8437 1.8899 1.8899 1.8899zm0-6.5246c0.44997 0 0.80995 0.35998 0.80995 0.80996v3.8248c0 0.44998-0.35998 0.80996-0.80995 0.80996s-0.80995-0.35998-0.80995-0.80996v-3.8248c0-0.44998 0.35998-0.80996 0.80995-0.80996z"/>
   </g>
   <g transform="matrix(.28221 0 0 .28224 .017639 168.2)" aria-label="ALL IN">
    <path d="m43.376 355.48c-0.05625-0.23624-0.26998-0.39373-0.51747-0.39373-0.24749 0-0.46122 0.15749-0.51747 0.39373l-1.7999 6.5246c-0.07874 0.29248 0.09 0.58497 0.37123 0.66371 0.29248 0.0788 0.58497-0.09 0.66371-0.37123 0 0 0.13499-0.48372 0.32623-1.1812h1.9124c0.19124 0.69746 0.32623 1.1812 0.32623 1.1812 0.07875 0.28124 0.37123 0.44998 0.66371 0.37123 0.28123-0.0787 0.44997-0.37123 0.37123-0.66371zm-1.1699 4.556c0.21374-0.77621 0.44997-1.6424 0.65246-2.3736 0.20249 0.73121 0.43872 1.5974 0.65246 2.3736z"/>
    <path d="m46.349 362.65h2.2499c0.29248 0 0.53997-0.23623 0.53997-0.53996 0-0.29249-0.24748-0.53997-0.53997-0.53997h-1.7099v-5.9397c0-0.29248-0.24749-0.53997-0.53997-0.53997-0.30373 0-0.53997 0.24749-0.53997 0.53997v6.4796c0 0.30373 0.23624 0.53996 0.53997 0.53996z"/>
    <path d="m50.2 362.65h2.2499c0.29248 0 0.53997-0.23623 0.53997-0.53996 0-0.29249-0.24749-0.53997-0.53997-0.53997h-1.7099v-5.9397c0-0.29248-0.24749-0.53997-0.53997-0.53997-0.30373 0-0.53997 0.24749-0.53997 0.53997v6.4796c0 0.30373 0.23624 0.53996 0.53997 0.53996z"/>
    <path d="m44.039 371.58c0.30373 0 0.53997-0.23624 0.53997-0.53997v-6.5246c0-0.29249-0.23624-0.53997-0.53997-0.53997-0.29248 0-0.53997 0.24748-0.53997 0.53997v6.5246c0 0.30373 0.24748 0.53997 0.53997 0.53997z"/>
    <path d="m49.494 371.57c0.23624-0.0562 0.41623-0.28124 0.41623-0.52872v-6.5246c0-0.29249-0.24748-0.53997-0.53997-0.53997-0.30373 0-0.53997 0.24748-0.53997 0.53997v4.1622c-0.9337-1.9349-2.1261-4.3985-2.1261-4.3985-0.11249-0.22499-0.35998-0.34873-0.60746-0.29248-0.24749 0.0562-0.41623 0.28123-0.41623 0.52872v6.5246c0 0.30373 0.23624 0.53997 0.53997 0.53997 0.29248 0 0.53997-0.23624 0.53997-0.53997v-4.1623c0.9337 1.9349 2.1261 4.3985 2.1261 4.3985 0.10124 0.22499 0.35998 0.34873 0.60746 0.29249z"/>
   </g>
   <g transform="matrix(.28221 0 0 .28224 .017639 168.2)" aria-label="MUX I/Os">
    <path d="m125.97 430.82c0.33798 0 0.62396-0.27298 0.62396-0.62396v-4.7447c0.42897 0.92295 0.88395 1.8849 0.88395 1.8849 0.10399 0.22099 0.32498 0.36398 0.57197 0.36398 0.23398 0 0.45497-0.14299 0.55896-0.36398 0 0 0.45498-0.96194 0.89695-1.8849v4.7447c0 0.35098 0.27298 0.62396 0.62396 0.62396 0.33798 0 0.62397-0.27298 0.62397-0.62396v-7.5396c0-0.28599-0.20799-0.54597-0.49397-0.61097-0.28599-0.065-0.57197 0.078-0.70196 0.35098 0 0-0.90995 1.9369-1.5079 3.2108-0.59797-1.2739-1.5209-3.2108-1.5209-3.2108-0.11699-0.27298-0.41597-0.41597-0.70196-0.35098-0.28598 0.065-0.48097 0.32498-0.48097 0.61097v7.5396c0 0.35098 0.27299 0.62396 0.62397 0.62396z"/>
    <path d="m133.18 428.63v-5.9796c0-0.33798-0.28598-0.62397-0.62396-0.62397-0.35098 0-0.62396 0.28599-0.62396 0.62397v5.9796c0 1.2089 0.97494 2.1839 2.1839 2.1839 1.1959 0 2.1839-0.97494 2.1839-2.1839v-5.9796c0-0.33798-0.28598-0.62397-0.62396-0.62397-0.35098 0-0.62397 0.28599-0.62397 0.62397v5.9796c0 0.51997-0.42897 0.93594-0.93594 0.93594-0.51997 0-0.93595-0.41597-0.93595-0.93594z"/>
    <path d="m137.32 430.75c0.31198 0.15599 0.68896 0.026 0.84495-0.27299l1.3909-2.7948 1.3909 2.7948c0.15599 0.29898 0.53297 0.42898 0.83195 0.27299 0.31198-0.156 0.44197-0.53297 0.28598-0.83196l-1.8069-3.6268 1.6769-3.3538c0.15599-0.31198 0.026-0.68896-0.28598-0.84495-0.29898-0.15599-0.67596-0.026-0.83195 0.28598l-1.2609 2.5219-1.2609-2.5219c-0.15599-0.31198-0.53297-0.44197-0.84495-0.28598-0.29898 0.15599-0.42897 0.53297-0.27298 0.84495l1.6769 3.3538-1.8069 3.6268c-0.156 0.29899-0.026 0.67596 0.27298 0.83196z"/>
    <path d="m145.96 430.82c0.35098 0 0.62397-0.27298 0.62397-0.62396v-7.5396c0-0.33798-0.27299-0.62397-0.62397-0.62397-0.33798 0-0.62396 0.28599-0.62396 0.62397v7.5396c0 0.35098 0.28598 0.62396 0.62396 0.62396z"/>
    <path d="m151.68 421.55c-0.32499-0.11699-0.68896 0.052-0.80596 0.37698l-3.1198 8.5795c-0.11699 0.32498 0.052 0.67596 0.37698 0.79295 0.32498 0.117 0.67596-0.052 0.79296-0.37697l3.1198-8.5795c0.13-0.31198-0.039-0.67596-0.36397-0.79295z"/>
    <path d="m155.24 430.82c1.2089 0 2.1839-0.97494 2.1839-2.1839v-4.4197c0-1.2089-0.97495-2.1839-2.1839-2.1839s-2.1839 0.97495-2.1839 2.1839v4.4197c0 1.2089 0.97494 2.1839 2.1839 2.1839zm0-7.5396c0.51997 0 0.93595 0.41598 0.93595 0.93595v4.4197c0 0.51997-0.41598 0.93594-0.93595 0.93594s-0.93594-0.41597-0.93594-0.93594v-4.4197c0-0.51997 0.41597-0.93595 0.93594-0.93595z"/>
    <path d="m160.37 429.44c-0.14299 0.12999-0.32498 0.19499-0.51997 0.15599-0.19499-0.026-0.36398-0.14299-0.45498-0.31198-0.15599-0.27298-0.51997-0.36398-0.80595-0.20799-0.27298 0.15599-0.36398 0.51997-0.20799 0.79296 0.27299 0.48097 0.74096 0.80595 1.2869 0.88395 0.54597 0.091 1.0919-0.078 1.4949-0.44198 0.41598-0.37698 0.62396-0.90995 0.58497-1.4559-0.039-0.54597-0.31198-1.0399-0.76696-1.3649l-1.2089-0.84496c-0.14299-0.10399-0.23398-0.25998-0.24698-0.44197s0.052-0.35098 0.19498-0.46797c0.13-0.117 0.29899-0.18199 0.48098-0.14299 0.16899 0.026 0.32498 0.12999 0.41597 0.28598 0.15599 0.27298 0.51997 0.36398 0.79296 0.20799 0.28598-0.15599 0.37697-0.51997 0.22098-0.79296-0.27298-0.46797-0.72795-0.77995-1.2479-0.85795-0.53297-0.091-1.0659 0.078-1.4559 0.42898-0.40298 0.36398-0.59796 0.88395-0.57197 1.4169 0.039 0.53296 0.31199 1.0139 0.74096 1.3259l1.2219 0.84495c0.15599 0.10399 0.24699 0.28598 0.25998 0.48097 0.013 0.19499-0.052 0.37698-0.20798 0.50697z"/>
   </g>
  </g>
  <g transform="matrix(.28219 0 0 .28222 .032391 168.2)" fill="none" stroke="#fff" stroke-linecap="round" stroke-linejoin="round" stroke-width="1.0412">
   <path transform="matrix(1.1368 0 0 1.1368 -422.42 -16.222)" d="m372.08 358.92a18.222 18.222 0 0 1 15.736-8.2556 18.222 18.222 0 0 1 15.283 9.0674"/>
   <path transform="matrix(1.1368 0 0 1.1368 -386.53 -16.222)" d="m403.02 378.17a18.222 18.222 0 0 1-15.798 8.9299 18.222 18.222 0 0 1-15.676-9.142"/>
   <path transform="matrix(1.1368 0 0 1.1368 -350.64 -16.222)" d="m403.07 378.08a18.222 18.222 0 0 1-15.769 9.0191 18.222 18.222 0 0 1-15.728-9.0914"/>
   <path transform="matrix(1.1368 0 0 1.1368 -207.09 -16.222)" d="m403.09 378.05a18.222 18.222 0 0 1-15.8 9.0514 18.222 18.222 0 0 1-15.746-9.1436"/>
   <path transform="matrix(1.1368 0 0 1.1368 -171.2 -16.222)" d="m371.59 359.71a18.222 18.222 0 0 1 14.906-9.0349 18.222 18.222 0 0 1 15.676 7.6193"/>
   <path transform="matrix(1.1368 0 0 -1.1368 -386.53 822.37)" d="m393.78 385.92a18.222 18.222 0 0 1-22.234-7.968"/>
   <path transform="matrix(1.1368 0 0 -1.1368 -350.53 822.37)" d="m403.08 378.06a18.222 18.222 0 0 1-22.241 7.8414"/>
   <path transform="matrix(1.1368 0 0 -1.1368 -314.75 822.37)" d="m393.7 385.95a18.222 18.222 0 0 1-22.05-7.8217"/>
   <path transform="matrix(1.1368 0 0 -1.1368 -242.97 822.37)" d="m403.09 378.05a18.222 18.222 0 0 1-15.722 9.0507 18.222 18.222 0 0 1-15.746-9.0096"/>
   <path transform="matrix(1.1368 0 0 -1.1368 -207.09 822.37)" d="m403.11 378a18.222 18.222 0 0 1-15.784 9.0954 18.222 18.222 0 0 1-15.772-9.117"/>
   <path transform="matrix(1.1368 0 0 1.1368 -314.83 -16.222)" d="m384.97 386.94a18.222 18.222 0 0 1-13.389-8.9226"/>
   <path transform="matrix(1.1368 0 0 1.1368 -278.94 -16.222)" d="m403.07 378.08a18.222 18.222 0 0 1-13.639 8.899"/>
   <path transform="matrix(1.1368 0 0 1.1368 -242.95 -16.222)" d="m403.07 378.08a18.222 18.222 0 0 1-15.769 9.0191 18.222 18.222 0 0 1-15.728-9.0914"/>
   <path transform="matrix(-1.1368 0 0 -1.1368 601.92 822.37)" d="m393.93 385.87a18.222 18.222 0 0 1-22.286-7.7447"/>
   <path transform="matrix(1.1368 0 0 -1.1368 -422.42 822.38)" d="m372.08 358.92a18.222 18.222 0 0 1 15.736-8.2556 18.222 18.222 0 0 1 15.283 9.0674"/>
   <path transform="matrix(1.1368 0 0 -1.1368 -171.2 822.37)" d="m371.59 359.71a18.222 18.222 0 0 1 14.906-9.0349 18.222 18.222 0 0 1 15.676 7.6193"/>
  </g>
  <g transform="matrix(.28221 0 0 .28224 .017639 168.2)" fill="#fff" aria-label="CLOCK IN">
   <path d="m157.7 131.66c0.83245 0.22499 1.6986-0.13499 2.1261-0.87745 0.15749-0.25873 0.0675-0.58496-0.19124-0.74245-0.25874-0.14625-0.58497-0.0563-0.74246 0.20248-0.17999 0.31499-0.55122 0.47248-0.9112 0.38248-0.34873-0.10124-0.59621-0.41622-0.59621-0.78745v-3.8248c0-0.35998 0.24748-0.68621 0.59621-0.77621 0.35998-0.10124 0.73121 0.0562 0.9112 0.37123 0.15749 0.25874 0.48372 0.34873 0.74246 0.20249 0.25873-0.15749 0.34873-0.48372 0.19124-0.74246-0.42748-0.74245-1.2937-1.1024-2.1261-0.87744-0.8212 0.21373-1.3949 0.96744-1.3949 1.8224v3.8248c0 0.85495 0.57372 1.6086 1.3949 1.8224z"/>
   <path d="m161.25 131.68h2.2499c0.29248 0 0.53997-0.23624 0.53997-0.53997 0-0.29248-0.24749-0.53997-0.53997-0.53997h-1.7099v-5.9396c0-0.29249-0.24749-0.53997-0.53997-0.53997-0.30373 0-0.53997 0.24748-0.53997 0.53997v6.4796c0 0.30373 0.23624 0.53997 0.53997 0.53997z"/>
   <path d="m166.32 131.73c1.0462 0 1.8899-0.8437 1.8899-1.8899v-3.8248c0-1.0462-0.8437-1.8899-1.8899-1.8899s-1.8899 0.8437-1.8899 1.8899v3.8248c0 1.0462 0.8437 1.8899 1.8899 1.8899zm0-6.5246c0.44997 0 0.80995 0.35998 0.80995 0.80995v3.8248c0 0.44997-0.35998 0.80995-0.80995 0.80995-0.44998 0-0.80996-0.35998-0.80996-0.80995v-3.8248c0-0.44997 0.35998-0.80995 0.80996-0.80995z"/>
   <path d="m170.44 131.66c0.83245 0.22499 1.6986-0.13499 2.1261-0.87745 0.15749-0.25873 0.0675-0.58496-0.19124-0.74245-0.25873-0.14625-0.58497-0.0563-0.74246 0.20248-0.17999 0.31499-0.55121 0.47248-0.91119 0.38248-0.34873-0.10124-0.59622-0.41622-0.59622-0.78745v-3.8248c0-0.35998 0.24749-0.68621 0.59622-0.77621 0.35998-0.10124 0.7312 0.0562 0.91119 0.37123 0.15749 0.25874 0.48373 0.34873 0.74246 0.20249 0.25874-0.15749 0.34873-0.48372 0.19124-0.74246-0.42748-0.74245-1.2937-1.1024-2.1261-0.87744-0.8212 0.21373-1.3949 0.96744-1.3949 1.8224v3.8248c0 0.85495 0.57372 1.6086 1.3949 1.8224z"/>
   <path d="m175.67 127.35 1.6874-2.3736c0.17999-0.24749 0.12375-0.58497-0.12374-0.75371-0.23623-0.16874-0.57372-0.11249-0.7537 0.12375l-1.9461 2.7336v-2.4186c0-0.29249-0.23624-0.53997-0.53997-0.53997-0.29248 0-0.53997 0.24748-0.53997 0.53997v6.5246c0 0.30373 0.24749 0.53997 0.53997 0.53997 0.30373 0 0.53997-0.23624 0.53997-0.53997v-2.2499l0.42747-0.58497 1.4737 3.0711c0.13499 0.26998 0.44997 0.38247 0.71996 0.24748 0.26998-0.12374 0.38247-0.44997 0.25873-0.71996z"/>
   <path d="m180.77 131.73c0.30373 0 0.53997-0.23624 0.53997-0.53997v-6.5246c0-0.29249-0.23624-0.53997-0.53997-0.53997-0.29248 0-0.53997 0.24748-0.53997 0.53997v6.5246c0 0.30373 0.24749 0.53997 0.53997 0.53997z"/>
   <path d="m186.22 131.72c0.23624-0.0563 0.41623-0.28124 0.41623-0.52872v-6.5246c0-0.29249-0.24749-0.53997-0.53997-0.53997-0.30373 0-0.53997 0.24748-0.53997 0.53997v4.1623c-0.93369-1.9349-2.1261-4.3985-2.1261-4.3985-0.1125-0.22499-0.35998-0.34873-0.60747-0.29248-0.24748 0.0563-0.41623 0.28123-0.41623 0.52872v6.5246c0 0.30373 0.23624 0.53997 0.53997 0.53997 0.29249 0 0.53997-0.23624 0.53997-0.53997v-4.1623c0.9337 1.9349 2.1261 4.3985 2.1261 4.3985 0.10124 0.22498 0.35998 0.34873 0.60746 0.29248z"/>
  </g>
  <path d="m38.282 194.37a6.4946 6.496 0 0 1 0.0042 6.4908" enable-background="new" fill="none" stroke="#fff" stroke-width=".33399px"/>
  <path d="m39.016 193.95a7.3426 7.3441 0 0 1 0.0046 7.3371" enable-background="new" fill="none" stroke="#fff" stroke-width=".33399px"/>
  <g transform="matrix(.28221 0 0 .28224 .017639 168.2)" fill="#fff" aria-label="SPEED  DIV/MULT">
   <path d="m107.8 132.53c-0.20249 0.15749-0.44997 0.21374-0.69746 0.16874-0.24748-0.0562-0.44997-0.20248-0.57371-0.41622-0.15749-0.25874-0.48373-0.34873-0.74246-0.20249-0.25874 0.14624-0.34873 0.48372-0.19124 0.74246 0.26998 0.47247 0.74246 0.8212 1.2937 0.93369 0.55121 0.10125 1.1137-0.0225 1.5636-0.35998 0.43873-0.33748 0.71996-0.8437 0.76496-1.4062 0.045-0.55121-0.15749-1.1024-0.55122-1.5074l-1.7886-1.8449c-0.16874-0.16874-0.24749-0.39373-0.22499-0.61871 0.0113-0.23624 0.12374-0.44998 0.31498-0.58497 0.19124-0.14624 0.41623-0.20249 0.65246-0.15749 0.22499 0.0562 0.41623 0.19124 0.53997 0.39373 0.14624 0.25873 0.47247 0.34873 0.73121 0.20248 0.25873-0.15749 0.34873-0.48372 0.20249-0.74245-0.26999-0.47248-0.73121-0.79871-1.2599-0.9112-0.52872-0.10124-1.0912 0.0225-1.5187 0.34873-0.42748 0.32623-0.69746 0.8212-0.74246 1.3612s0.14624 1.0799 0.52872 1.4624l1.7999 1.8449c0.16874 0.17999 0.25873 0.42747 0.23623 0.67496-0.0225 0.24748-0.13499 0.47247-0.33748 0.61871z"/>
   <path d="m110.04 126.77v6.4796c0 0.30373 0.23624 0.53997 0.53997 0.53997 0.29249 0 0.53997-0.23624 0.53997-0.53997v-2.6098h0.80995c1.0462 0 1.8899-0.8437 1.8899-1.8899v-0.62996c0-1.0462-0.8437-1.8899-1.8899-1.8899h-1.3499c-0.30373 0-0.53997 0.24748-0.53997 0.53997zm2.6998 1.3499v0.62996c0 0.44998-0.35998 0.80996-0.80996 0.80996h-0.80995v-2.2499h0.80995c0.44998 0 0.80996 0.35998 0.80996 0.80995z"/>
   <path d="m114.48 126.77v6.4346c0 0.30374 0.24749 0.53997 0.53997 0.53997h2.2499c0.30373 0 0.53997-0.23623 0.53997-0.53997 0-0.29248-0.23624-0.53996-0.53997-0.53996h-1.7099v-2.2499h1.4849c0.30373 0 0.53997-0.23624 0.53997-0.53997 0-0.29249-0.23624-0.53997-0.53997-0.53997h-1.4849v-2.0249h1.7099c0.30373 0 0.53997-0.23624 0.53997-0.53997 0-0.29249-0.23624-0.53997-0.53997-0.53997h-2.2499c-0.29248 0-0.53997 0.24748-0.53997 0.53997z"/>
   <path d="m118.55 126.77v6.4346c0 0.30374 0.24749 0.53997 0.53997 0.53997h2.2499c0.30373 0 0.53997-0.23623 0.53997-0.53997 0-0.29248-0.23624-0.53996-0.53997-0.53996h-1.7099v-2.2499h1.4849c0.30374 0 0.53997-0.23624 0.53997-0.53997 0-0.29249-0.23623-0.53997-0.53997-0.53997h-1.4849v-2.0249h1.7099c0.30373 0 0.53997-0.23624 0.53997-0.53997 0-0.29249-0.23624-0.53997-0.53997-0.53997h-2.2499c-0.29248 0-0.53997 0.24748-0.53997 0.53997z"/>
   <path d="m123.16 126.23c-0.30373 0-0.53996 0.24748-0.53996 0.53997v6.4346c0 0.30374 0.23623 0.53997 0.53996 0.53997h1.3499c1.0462 0 1.8899-0.8437 1.8899-1.8899v-3.7348c0-1.0462-0.84371-1.8899-1.8899-1.8899zm2.1599 1.8899v3.7348c0 0.44998-0.35998 0.80996-0.80995 0.80996h-0.80996v-5.3547h0.80996c0.44997 0 0.80995 0.35998 0.80995 0.80995z"/>
   <path d="m99.915 134.9c-0.30373 0-0.53997 0.24748-0.53997 0.53996v6.4346c0 0.30373 0.23624 0.53997 0.53997 0.53997h1.3499c1.0462 0 1.8899-0.8437 1.8899-1.8899v-3.7348c0-1.0462-0.8437-1.8899-1.8899-1.8899zm2.1599 1.8899v3.7348c0 0.44997-0.35998 0.80995-0.80995 0.80995h-0.80996v-5.3547h0.80996c0.44997 0 0.80995 0.35998 0.80995 0.80996z"/>
   <path d="m104.67 142.46c0.30373 0 0.53997-0.23624 0.53997-0.53997v-6.5246c0-0.29249-0.23624-0.53997-0.53997-0.53997-0.29248 0-0.53997 0.24748-0.53997 0.53997v6.5246c0 0.30373 0.24749 0.53997 0.53997 0.53997z"/>
   <path d="m107.73 142.06c0.0675 0.23624 0.28124 0.39373 0.52872 0.39373 0.23624 0 0.44998-0.15749 0.51747-0.39373l1.7999-6.5246c0.0787-0.29248-0.09-0.58497-0.38248-0.66371-0.28123-0.0788-0.58497 0.09-0.66371 0.37123 0 0-0.75371 2.7336-1.2712 4.646-0.52872-1.9124-1.2824-4.646-1.2824-4.646-0.0787-0.28124-0.38248-0.44998-0.66371-0.37123-0.29249 0.0787-0.46123 0.37123-0.38248 0.66371z"/>
   <path d="m114.58 134.43c-0.28123-0.10124-0.59621 0.045-0.69746 0.32623l-2.6998 7.4246c-0.10124 0.28124 0.045 0.58497 0.32623 0.68621 0.28124 0.10125 0.58497-0.045 0.68621-0.32623l2.6998-7.4246c0.11249-0.26998-0.0337-0.58496-0.31499-0.68621z"/>
   <path d="m116.44 142.46c0.29248 0 0.53997-0.23624 0.53997-0.53997v-4.106c0.37123 0.7987 0.76496 1.6312 0.76496 1.6312 0.09 0.19124 0.28123 0.31498 0.49497 0.31498 0.20249 0 0.39372-0.12374 0.48372-0.31498 0 0 0.39373-0.83245 0.7762-1.6312v4.106c0 0.30373 0.23624 0.53997 0.53997 0.53997 0.29249 0 0.53997-0.23624 0.53997-0.53997v-6.5246c0-0.24749-0.17999-0.47248-0.42747-0.52872-0.24749-0.0563-0.49497 0.0675-0.60747 0.30373 0 0-0.78745 1.6762-1.3049 2.7786-0.51747-1.1024-1.3162-2.7786-1.3162-2.7786-0.10124-0.23624-0.35998-0.35998-0.60746-0.30373-0.24749 0.0562-0.41623 0.28123-0.41623 0.52872v6.5246c0 0.30373 0.23624 0.53997 0.53997 0.53997z"/>
   <path d="m122.67 140.57v-5.1747c0-0.29249-0.24749-0.53997-0.53997-0.53997-0.30374 0-0.53997 0.24748-0.53997 0.53997v5.1747c0 1.0462 0.8437 1.8899 1.8899 1.8899 1.0349 0 1.8899-0.8437 1.8899-1.8899v-5.1747c0-0.29249-0.24749-0.53997-0.53997-0.53997-0.30373 0-0.53997 0.24748-0.53997 0.53997v5.1747c0 0.44997-0.37123 0.80995-0.80995 0.80995-0.44998 0-0.80995-0.35998-0.80995-0.80995z"/>
   <path d="m126.93 142.41h2.2499c0.29249 0 0.53997-0.23624 0.53997-0.53997 0-0.29248-0.24748-0.53997-0.53997-0.53997h-1.7099v-5.9396c0-0.29249-0.24748-0.53997-0.53996-0.53997-0.30374 0-0.53997 0.24748-0.53997 0.53997v6.4796c0 0.30373 0.23623 0.53997 0.53997 0.53997z"/>
   <path d="m129.65 134.9c-0.29249 0-0.53997 0.24748-0.53997 0.53996 0 0.30374 0.24748 0.53997 0.53997 0.53997h0.92244v5.9397c0 0.30373 0.24749 0.53997 0.53997 0.53997 0.30374 0 0.53997-0.23624 0.53997-0.53997v-5.9397h0.92245c0.30373 0 0.53997-0.23623 0.53997-0.53997 0-0.29248-0.23624-0.53996-0.53997-0.53996z"/>
  </g>
  <g transform="matrix(.28643 0 0 .2962 -.8732 166.83)" fill="none" stroke="#fff">
   <path transform="matrix(.83504 0 0 .83512 32.023 -125.89)" d="m133.29 243.49a23.963 23.963 0 0 1-23.962-23.962 23.963 23.963 0 0 1 23.96-23.965" enable-background="new" stroke-width="1.3731"/>
   <path d="m143.32 77.44h35.428" stroke-width="1.1467"/>
   <path d="m143.27 37.418h35.466" stroke-width="1.1467"/>
  </g>
  <path d="m39.793 193.5a8.2404 8.2422 0 0 1 0.0026 8.2425" enable-background="new" fill="none" stroke="#fff" stroke-width=".33399px"/>
  <g transform="matrix(.28221 0 0 .28224 .017639 168.2)" fill="#fff" aria-label="ALL GATES  ">
   <path d="m182.09 355.48c-0.0563-0.23623-0.26999-0.39372-0.51747-0.39372-0.24749 0-0.46123 0.15749-0.51747 0.39372l-1.7999 6.5246c-0.0787 0.29248 0.09 0.58496 0.37123 0.66371 0.29248 0.0787 0.58497-0.09 0.66371-0.37123 0 0 0.13499-0.48372 0.32623-1.1812h1.9124c0.19124 0.69746 0.32623 1.1812 0.32623 1.1812 0.0787 0.28123 0.37123 0.44997 0.66371 0.37123 0.28124-0.0787 0.44998-0.37123 0.37123-0.66371zm-1.1699 4.556c0.21373-0.7762 0.44997-1.6424 0.65246-2.3736 0.20249 0.73121 0.43872 1.5974 0.65246 2.3736z"/>
   <path d="m185.06 362.65h2.2499c0.29248 0 0.53997-0.23624 0.53997-0.53997 0-0.29248-0.24749-0.53997-0.53997-0.53997h-1.7099v-5.9396c0-0.29249-0.24749-0.53997-0.53997-0.53997-0.30373 0-0.53997 0.24748-0.53997 0.53997v6.4796c0 0.30373 0.23624 0.53997 0.53997 0.53997z"/>
   <path d="m188.91 362.65h2.2499c0.29248 0 0.53997-0.23624 0.53997-0.53997 0-0.29248-0.24749-0.53997-0.53997-0.53997h-1.7099v-5.9396c0-0.29249-0.24749-0.53997-0.53997-0.53997-0.30373 0-0.53997 0.24748-0.53997 0.53997v6.4796c0 0.30373 0.23624 0.53997 0.53997 0.53997z"/>
   <path d="m178.41 367.35h-1.1249c-0.29248 0-0.53996 0.24748-0.53996 0.53996 0 0.30374 0.24748 0.53997 0.53996 0.53997h0.58497v1.2599c0 0.44997-0.35998 0.80995-0.80995 0.80995-0.43873 0-0.80996-0.35998-0.80996-0.80995v-3.8248c0-0.35998 0.24749-0.68621 0.60747-0.7762 0.34873-0.10125 0.71996 0.0562 0.9112 0.37123 0.14624 0.25873 0.47247 0.34873 0.7312 0.20248 0.25874-0.15749 0.34873-0.48372 0.20249-0.74245-0.42747-0.74246-1.3049-1.1024-2.1261-0.87745-0.83246 0.21374-1.4062 0.96744-1.4062 1.8224v3.8248c0 1.0462 0.85495 1.8899 1.8899 1.8899 1.0462 0 1.8899-0.8437 1.8899-1.8899v-1.7999c0-0.29248-0.23624-0.53996-0.53997-0.53996z"/>
   <path d="m182.24 364.37c-0.0563-0.23624-0.26999-0.39373-0.51747-0.39373-0.24749 0-0.46123 0.15749-0.51747 0.39373l-1.7999 6.5246c-0.0787 0.29248 0.09 0.58497 0.37123 0.66371 0.29248 0.0788 0.58497-0.09 0.66371-0.37123 0 0 0.13499-0.48372 0.32623-1.1812h1.9124c0.19124 0.69746 0.32623 1.1812 0.32623 1.1812 0.0787 0.28124 0.37123 0.44998 0.66371 0.37123 0.28124-0.0787 0.44998-0.37123 0.37123-0.66371zm-1.1699 4.556c0.21374-0.7762 0.44998-1.6424 0.65247-2.3736 0.20248 0.73121 0.43872 1.5974 0.65246 2.3736z"/>
   <path d="m184.19 364.02c-0.29248 0-0.53997 0.24748-0.53997 0.53997 0 0.30373 0.24749 0.53997 0.53997 0.53997h0.92245v5.9396c0 0.30373 0.24748 0.53997 0.53997 0.53997 0.30373 0 0.53997-0.23624 0.53997-0.53997v-5.9396h0.92244c0.30373 0 0.53997-0.23624 0.53997-0.53997 0-0.29249-0.23624-0.53997-0.53997-0.53997z"/>
   <path d="m188.33 364.56v6.4346c0 0.30374 0.24748 0.53997 0.53997 0.53997h2.2499c0.30373 0 0.53997-0.23623 0.53997-0.53997 0-0.29248-0.23624-0.53996-0.53997-0.53996h-1.7099v-2.2499h1.4849c0.30373 0 0.53997-0.23624 0.53997-0.53997 0-0.29249-0.23624-0.53997-0.53997-0.53997h-1.4849v-2.0249h1.7099c0.30373 0 0.53997-0.23624 0.53997-0.53997 0-0.29249-0.23624-0.53997-0.53997-0.53997h-2.2499c-0.29249 0-0.53997 0.24748-0.53997 0.53997z"/>
   <path d="m194.41 370.32c-0.20248 0.15749-0.44997 0.21374-0.69745 0.16874-0.24749-0.0562-0.44998-0.20248-0.57372-0.41622-0.15749-0.25874-0.48372-0.34873-0.74246-0.20249-0.25873 0.14624-0.34873 0.48372-0.19124 0.74246 0.26999 0.47247 0.74246 0.8212 1.2937 0.93369 0.55122 0.10125 1.1137-0.0225 1.5637-0.35998 0.43872-0.33748 0.71995-0.8437 0.76495-1.4062 0.045-0.55121-0.15749-1.1024-0.55122-1.5074l-1.7886-1.8449c-0.16874-0.16874-0.24749-0.39373-0.22499-0.61871 0.0112-0.23624 0.12374-0.44998 0.31498-0.58497 0.19124-0.14624 0.41623-0.20249 0.65247-0.15749 0.22498 0.0562 0.41622 0.19124 0.53996 0.39373 0.14625 0.25873 0.47248 0.34873 0.73121 0.20248 0.25874-0.15749 0.34873-0.48372 0.20249-0.74245-0.26998-0.47248-0.73121-0.79871-1.2599-0.9112-0.52872-0.10124-1.0912 0.0225-1.5187 0.34873-0.42747 0.32623-0.69746 0.8212-0.74246 1.3612s0.14625 1.0799 0.52872 1.4624l1.7999 1.8449c0.16874 0.17999 0.25873 0.42747 0.23624 0.67496-0.0225 0.24748-0.135 0.47247-0.33749 0.61871z"/>
  </g>
  <g transform="matrix(.28219 0 0 -.28222 .068862 200.27)" fill="#fff" stroke="#fff" stroke-linecap="square">
   <g transform="matrix(1.503 0 0 1.1886 -70.939 -767.97)" stroke-width=".30502">
    <path transform="matrix(-2.4816 0 0 -2.4209 754.43 915.27)" d="m239.86 87.252 2.2675-1.3091v2.6183z" enable-background="new"/>
    <path transform="matrix(-2.4816 0 0 -2.4209 754.43 915.27)" d="m239.86 87.252 2.2675-1.3091v2.6183z" enable-background="new"/>
   </g>
   <path transform="matrix(.54022 -.31163 .31163 .54022 -126.33 34.952)" d="m391.65 296.03-10.178-5.8763 5.8763-10.178 10.178 5.8763z" stroke-width="1.8977"/>
  </g>
  <g transform="matrix(.28219 0 0 .28222 -2.2461 179.78)">
   <g transform="translate(134.53 -102.12)">
    <g transform="matrix(1.503 0 0 1.1886 -201.51 -708.31)" fill="none">
     <path transform="matrix(-2.4816 0 0 -2.4209 757.25 913.87)" d="m239.86 87.252 2.2675-1.3091v2.6183z" enable-background="new" fill="#fff" stroke="#fff" stroke-linecap="square" stroke-width=".30502"/>
    </g>
    <g stroke="#000" stroke-width=".35435" aria-label="1">
     <path d="m34.701 125.83s0.16228-0.17001 0.29365-0.29365v3.5856c0 0.20865 0.16228 0.37092 0.37092 0.37092 0.20092 0 0.37092-0.16227 0.37092-0.37092v-4.482c0-0.14683-0.09273-0.28593-0.23183-0.34002-0.1391-0.0618-0.29365-0.0309-0.40184 0.0773l-0.92731 0.92731c-0.14682 0.14682-0.14682 0.37865 0 0.52548 0.14682 0.14682 0.37865 0.14682 0.52548 0z" stroke="#000" stroke-width=".35435"/>
    </g>
   </g>
   <g transform="matrix(1.2646 0 0 1.2752 -54.847 -4.0652)" stroke="#fff">
    <g transform="matrix(-.10908 0 0 .1055 206.79 17.248)" fill="none">
     <path d="m175.54 73.603a23.543 23.652 0 0 1-23.542-23.651 23.543 23.652 0 0 1 23.539-23.653" enable-background="new" stroke-width="8.6883"/>
     <path d="m175.54 73.596h24.526" stroke-width="8.6883"/>
     <path d="m175.54 26.295h32.678" stroke-width="8.6883"/>
    </g>
    <path transform="matrix(.78662 0 0 .84306 -4.1638 -48.512)" d="m239.86 87.252 2.2675-1.3091v2.6183z" enable-background="new" fill="#fff" stroke-linecap="square" stroke-width=".96629"/>
   </g>
  </g>
  <g transform="matrix(.3697 0 0 .37437 -49.235 195.28)">
   <path d="m176.05 29.899 5.9239-10.26" fill="none" stroke="#fff" stroke-linecap="round" stroke-width=".75801"/>
   <g transform="translate(134.53 -102.12)">
    <g transform="matrix(1.503 0 0 1.1886 -201.51 -708.31)" fill="none">
     <path transform="matrix(-2.4816 0 0 -2.4209 757.25 913.87)" d="m239.86 87.252 2.2675-1.3091v2.6183z" enable-background="new" fill="#fff" stroke="#fff" stroke-linecap="square" stroke-width=".23138"/>
    </g>
    <g stroke="#000" stroke-width=".2688" aria-label="1">
     <path d="m34.701 125.77s0.16228-0.17001 0.29365-0.29365v3.5856c0 0.20865 0.16228 0.37092 0.37092 0.37092 0.20092 0 0.37092-0.16227 0.37092-0.37092v-4.482c0-0.14683-0.09273-0.28593-0.23183-0.34002-0.1391-0.0618-0.29365-0.0309-0.40184 0.0773l-0.92731 0.92731c-0.14682 0.14682-0.14682 0.37865 0 0.52548 0.14682 0.14682 0.37865 0.14682 0.52548 0z" stroke="#000" stroke-width=".2688"/>
    </g>
   </g>
   <g transform="matrix(1.2646 0 0 1.2752 -54.847 -4.0652)" stroke="#fff">
    <g transform="matrix(-.10908 0 0 .1055 206.79 17.248)" fill="none">
     <path d="m146.25 67.287a20.01 20.012 0 0 1-20.01-20.011 20.01 20.012 0 0 1 20.007-20.013" enable-background="new" stroke-width="6.5906"/>
     <path d="m146.12 67.282h27.58" stroke-width="6.5906"/>
     <path d="m146.07 27.26h28.824" stroke-width="6.5906"/>
    </g>
    <path transform="matrix(.66858 0 0 .71332 27.3 -37.864)" d="m239.86 87.252 2.2675-1.3091v2.6183z" enable-background="new" fill="#fff" stroke-linecap="square" stroke-width=".86436"/>
   </g>
  </g>
  <g fill="#fff">
   <path d="m43.237 183.86h5.4755" stroke="#fff" stroke-width=".282"/>
   <g>
    <g transform="matrix(.28221 0 0 .28224 .017639 168.2)" aria-label="GATES">
     <path d="m136.45 302.47h-1.1249c-0.29248 0-0.53996 0.24749-0.53996 0.53997 0 0.30373 0.24748 0.53997 0.53996 0.53997h0.58497v1.2599c0 0.44997-0.35998 0.80995-0.80995 0.80995-0.43873 0-0.80996-0.35998-0.80996-0.80995v-3.8248c0-0.35998 0.24749-0.68621 0.60747-0.77621 0.34873-0.10124 0.71996 0.0563 0.9112 0.37123 0.14624 0.25874 0.47247 0.34873 0.7312 0.20249 0.25874-0.15749 0.34873-0.48372 0.20249-0.74246-0.42747-0.74245-1.3049-1.1024-2.1261-0.87744-0.83246 0.21373-1.4062 0.96744-1.4062 1.8224v3.8248c0 1.0462 0.85495 1.8899 1.8899 1.8899 1.0462 0 1.8899-0.8437 1.8899-1.8899v-1.7999c0-0.29248-0.23624-0.53997-0.53997-0.53997z"/>
     <path d="m140.28 299.49c-0.0562-0.23624-0.26999-0.39373-0.51747-0.39373-0.24749 0-0.46123 0.15749-0.51747 0.39373l-1.7999 6.5246c-0.0787 0.29248 0.09 0.58496 0.37123 0.66371 0.29248 0.0787 0.58497-0.09 0.66371-0.37123 0 0 0.13499-0.48372 0.32623-1.1812h1.9124c0.19124 0.69746 0.32623 1.1812 0.32623 1.1812 0.0788 0.28123 0.37123 0.44997 0.66371 0.37123 0.28124-0.0788 0.44998-0.37123 0.37123-0.66371zm-1.1699 4.556c0.21374-0.7762 0.44998-1.6424 0.65247-2.3736 0.20249 0.73121 0.43872 1.5974 0.65246 2.3736z"/>
     <path d="m142.24 299.14c-0.29248 0-0.53997 0.24748-0.53997 0.53997 0 0.30373 0.24749 0.53996 0.53997 0.53996h0.92245v5.9397c0 0.30373 0.24748 0.53997 0.53997 0.53997 0.30373 0 0.53997-0.23624 0.53997-0.53997v-5.9397h0.92244c0.30373 0 0.53997-0.23623 0.53997-0.53996 0-0.29249-0.23624-0.53997-0.53997-0.53997z"/>
     <path d="m146.37 299.68v6.4346c0 0.30373 0.24749 0.53997 0.53997 0.53997h2.2499c0.30373 0 0.53997-0.23624 0.53997-0.53997 0-0.29248-0.23624-0.53997-0.53997-0.53997h-1.7099v-2.2499h1.4849c0.30373 0 0.53997-0.23623 0.53997-0.53996 0-0.29249-0.23624-0.53997-0.53997-0.53997h-1.4849v-2.0249h1.7099c0.30373 0 0.53997-0.23623 0.53997-0.53996 0-0.29249-0.23624-0.53997-0.53997-0.53997h-2.2499c-0.29248 0-0.53997 0.24748-0.53997 0.53997z"/>
     <path d="m152.46 305.44c-0.20249 0.15749-0.44998 0.21374-0.69746 0.16874-0.24749-0.0563-0.44998-0.20249-0.57372-0.41622-0.15749-0.25874-0.48372-0.34873-0.74246-0.20249-0.25873 0.14624-0.34873 0.48372-0.19124 0.74245 0.26999 0.47248 0.74246 0.82121 1.2937 0.9337 0.55122 0.10124 1.1137-0.0225 1.5637-0.35998 0.43872-0.33748 0.71996-0.8437 0.76495-1.4062 0.045-0.55122-0.15749-1.1024-0.55122-1.5074l-1.7886-1.8449c-0.16874-0.16874-0.24749-0.39373-0.22499-0.61872 0.0113-0.23623 0.12374-0.44997 0.31498-0.58496 0.19124-0.14624 0.41623-0.20249 0.65247-0.15749 0.22498 0.0562 0.41622 0.19124 0.53996 0.39372 0.14625 0.25874 0.47248 0.34873 0.73121 0.20249 0.25874-0.15749 0.34873-0.48372 0.20249-0.74246-0.26998-0.47247-0.73121-0.7987-1.2599-0.91119-0.52872-0.10125-1.0912 0.0225-1.5187 0.34873-0.42747 0.32623-0.69746 0.8212-0.74246 1.3612s0.14625 1.0799 0.52872 1.4624l1.7999 1.8449c0.16874 0.17999 0.25873 0.42747 0.23624 0.67496-0.0225 0.24748-0.135 0.47247-0.33748 0.61871z"/>
    </g>
    <path d="m67.739 178.34 0.81208-0.0525-0.45727-0.68z" enable-background="new" stroke="#fff" stroke-linecap="square" stroke-width=".282"/>
    <g transform="matrix(.28221 0 0 .28224 .017639 168.2)" aria-label="EOC">
     <path d="m270.51 360.67v6.4346c0 0.30374 0.24748 0.53997 0.53997 0.53997h2.2499c0.30373 0 0.53996-0.23623 0.53996-0.53997 0-0.29248-0.23623-0.53996-0.53996-0.53996h-1.7099v-2.2499h1.4849c0.30373 0 0.53997-0.23624 0.53997-0.53997 0-0.29249-0.23624-0.53997-0.53997-0.53997h-1.4849v-2.0249h1.7099c0.30373 0 0.53996-0.23624 0.53996-0.53997 0-0.29249-0.23623-0.53997-0.53996-0.53997h-2.2499c-0.29249 0-0.53997 0.24748-0.53997 0.53997z"/>
     <path d="m276.34 367.69c1.0462 0 1.8899-0.8437 1.8899-1.8899v-3.8248c0-1.0462-0.8437-1.8899-1.8899-1.8899s-1.8899 0.8437-1.8899 1.8899v3.8248c0 1.0462 0.8437 1.8899 1.8899 1.8899zm0-6.5246c0.44997 0 0.80995 0.35998 0.80995 0.80995v3.8248c0 0.44997-0.35998 0.80995-0.80995 0.80995-0.44998 0-0.80995-0.35998-0.80995-0.80995v-3.8248c0-0.44997 0.35997-0.80995 0.80995-0.80995z"/>
     <path d="m280.46 367.63c0.83246 0.22499 1.6987-0.13499 2.1261-0.87745 0.15749-0.25873 0.0675-0.58496-0.19124-0.74245-0.25873-0.14624-0.58496-0.0562-0.74245 0.20249-0.17999 0.31498-0.55122 0.47247-0.9112 0.38247-0.34873-0.10124-0.59622-0.41622-0.59622-0.78745v-3.8248c0-0.35998 0.24749-0.68621 0.59622-0.7762 0.35998-0.10125 0.73121 0.0562 0.9112 0.37123 0.15749 0.25873 0.48372 0.34872 0.74245 0.20248 0.25874-0.15749 0.34873-0.48372 0.19124-0.74245-0.42747-0.74246-1.2937-1.1024-2.1261-0.87745-0.8212 0.21373-1.3949 0.96744-1.3949 1.8224v3.8248c0 0.85495 0.57371 1.6087 1.3949 1.8224z"/>
    </g>
    <path d="m76.932 178.34-0.81208-0.0525 0.45727-0.68z" enable-background="new" stroke="#fff" stroke-linecap="square" stroke-width=".282"/>
   </g>
   <g stroke="#fff">
    <path d="m65.74 187.27 1.299-0.69232" stroke-width=".13551"/>
    <path d="m65.74 187.27 1.299-0.69232" stroke-width=".236"/>
    <path d="m68.765 190.13 0.70197-1.2346" stroke-width=".236"/>
   </g>
  </g>
  <g transform="matrix(.36995 0 0 .36999 -21.109 162.1)" stroke="#fff">
   <path d="m239.53 76.37h-1.2v-5.3064h-6.1117v5.3064h-1.2862" fill="none" stroke-width=".59242"/>
   <g transform="translate(-.16466 -.35319)" fill="#fff" fill-rule="evenodd" stroke-width=".64492">
    <path d="m233.69 76.156 3.4219-3.4219"/>
    <path d="m237.11 76.156-3.4219-3.4219"/>
   </g>
  </g>
  <path d="m60.782 265.11v3.8828" fill="none" stroke="#fff" stroke-width=".632"/>
  <g transform="matrix(.28219 0 0 .28222 .017648 168.2)">
   <g fill="none" stroke="#fff" stroke-width="2.1738">
    <path d="m219.36 341.92h12.962"/>
    <path d="m233.42 341.92h2.1789"/>
    <path d="m237.17 341.92h2.1789"/>
    <path d="m241.42 341.92h2.1789"/>
    <path d="m246.48 341.92h2.1789"/>
    <path d="m252.48 341.92h2.1789"/>
    <path d="m258.48 341.92h2.1789"/>
    <path d="m264.48 341.92h2.1789"/>
   </g>
  </g>
  <g transform="matrix(-.28219 0 0 .28222 121.84 168.2)">
   <g fill="none" stroke="#fff" stroke-width="2.1738">
    <path d="m219.36 341.92h12.962"/>
    <path d="m233.42 341.92h2.1789"/>
    <path d="m237.17 341.92h2.1789"/>
    <path d="m241.42 341.92h2.1789"/>
    <path d="m246.48 341.92h2.1789"/>
    <path d="m252.48 341.92h2.1789"/>
    <path d="m258.48 341.92h2.1789"/>
    <path d="m264.48 341.92h2.1789"/>
    <path d="m270.48 341.92h2.1789"/>
    <path d="m300.65 341.92h2.1789"/>
    <path d="m306.65 341.92h2.1789"/>
    <path d="m312.65 341.92h2.1789"/>
    <path d="m318.65 341.92h2.1789"/>
    <path d="m324.65 341.92h2.1789"/>
    <path d="m330.65 341.92h2.1789"/>
    <path d="m336.65 341.92h2.1789"/>
    <path d="m372.9 341.92h2.1789"/>
    <path d="m379.02 341.92h2.1789"/>
    <path d="m385.15 341.92h2.1789"/>
    <path d="m391.27 341.92h2.1789"/>
    <path d="m397.4 341.92h2.1789"/>
    <path d="m403.4 341.92h2.1789"/>
    <path d="m409.4 341.92h2.1789"/>
    <path d="m342.65 341.92h2.1789"/>
    <path d="m276.48 341.92h2.1789"/>
    <path d="m282.48 341.92h2.1789"/>
    <path d="m288.48 341.92h2.1789"/>
    <path d="m294.48 341.92h2.1789"/>
    <path d="m348.65 341.92h2.1789"/>
    <path d="m354.65 341.92h2.1789"/>
    <path d="m360.65 341.92h2.1789"/>
    <path d="m366.77 341.92h2.1789"/>
   </g>
  </g>
  <path d="m35.311 202.43a5.4725 5.4731 25.35 0 1-7.4455-2.1121 5.4725 5.4731 25.35 0 1 2.1125-7.4462 5.4725 5.4731 25.35 0 1 7.4455 2.1121 5.4725 5.4731 25.35 0 1-2.1125 7.4462z" enable-background="new" fill="none" stroke="#fff" stroke-width=".617"/>
  <path d="m69.499 188.98a5.8405 5.8417 0 0 1-2.7835-6.5808 5.8405 5.8417 0 0 1 5.666-4.352 5.8405 5.8417 0 0 1 5.6381 4.3881 5.8405 5.8417 0 0 1-2.8254 6.5629" enable-background="new" fill="none" stroke="#fff" stroke-width=".33399px"/>
  <path d="m75.399 188.63c-0.16975-0.098-0.38685-0.0399-0.48486 0.12993-0.09801 0.16979-0.03984 0.38691 0.12991 0.48491 0.16979 0.098 0.38685 0.0399 0.48486-0.12993 0.09802-0.16976 0.03984-0.38688-0.12991-0.48491" enable-background="new" fill="#fff"/>
  <path d="m69.826 188.94c-2.8e-5 -0.19606-0.15895-0.35502-0.355-0.35503-0.19605 1e-5 -0.35501 0.15898-0.35501 0.35504 0 0.19609 0.15893 0.35504 0.35501 0.35504 0.19605 0 0.35498-0.15895 0.355-0.35505" enable-background="new" fill="#fff"/>
  <path d="m68.457 177.87a7.2501 7.2542 0 0 1 7.7509-0.0388" enable-background="new" fill="none" stroke="#fff" stroke-linecap="round" stroke-width=".33399px"/>
  <g transform="matrix(.28219 0 0 .28222 .32247 168.2)" stroke="#fff">
   <path d="m14.53 34.273a25.692 25.704 0 0 1 27.467-0.13749" enable-background="new" fill="none" stroke-linecap="round" stroke-width="1.1835px"/>
   <path transform="matrix(.91182 -.61324 -.61889 -.92023 -152.73 263.29)" d="m239.86 87.252 2.2675-1.3091v2.6183z" enable-background="new" fill="#fff" stroke-linecap="square" stroke-width=".90521"/>
   <path transform="matrix(-.91182 -.61324 .61889 -.92023 209.27 263.29)" d="m239.86 87.252 2.2675-1.3091v2.6183z" enable-background="new" fill="#fff" stroke-linecap="square" stroke-width=".90521"/>
  </g>
  <g fill="#fff">
   <path d="m1.7214 187.27 1.299-0.69232" stroke="#fff" stroke-width=".236"/>
   <path d="m4.7462 190.13 0.70197-1.2346" stroke="#fff" stroke-width=".236"/>
   <g>
    <g transform="matrix(.28221 0 0 .28224 .017639 168.2)" aria-label="1">
     <path d="m8.2242 35.107s0.23624-0.24749 0.42748-0.42748v5.2197c0 0.30373 0.23624 0.53997 0.53997 0.53997 0.29248 0 0.53997-0.23624 0.53997-0.53997v-6.5246c0-0.21374-0.13499-0.41623-0.33748-0.49497-0.20249-0.09-0.42748-0.045-0.58497 0.11249l-1.3499 1.3499c-0.21374 0.21374-0.21374 0.55122 0 0.76496 0.21374 0.21374 0.55122 0.21374 0.76496 0z"/>
    </g>
    <g transform="matrix(.28221 0 0 .28224 .017639 168.2)" aria-label="8">
     <path d="m49.887 40.439c1.0462 0 1.8899-0.8437 1.8899-1.8899v-0.67496c0-0.52872-0.21374-1.0012-0.56247-1.3499 0.34873-0.33748 0.56247-0.8212 0.56247-1.3499v-0.44997c0-1.0462-0.8437-1.8899-1.8899-1.8899-1.0349 0-1.8899 0.8437-1.8899 1.8899v0.44997c0 0.52872 0.22499 1.0124 0.57372 1.3499-0.34873 0.34873-0.57372 0.8212-0.57372 1.3499v0.67496c0 1.0462 0.85495 1.8899 1.8899 1.8899zm-0.80995-5.2647v-0.44997c0-0.44997 0.37123-0.80995 0.80995-0.80995 0.44997 0 0.80995 0.35998 0.80995 0.80995v0.44997c0 0.44997-0.35998 0.80995-0.80995 0.80995-0.43872 0-0.80995-0.35998-0.80995-0.80995zm1.6199 2.6998v0.67496c0 0.44997-0.35998 0.80995-0.80995 0.80995-0.43872 0-0.80995-0.35998-0.80995-0.80995v-0.67496c0-0.44997 0.37123-0.80995 0.80995-0.80995 0.44997 0 0.80995 0.35998 0.80995 0.80995z"/>
    </g>
    <g transform="matrix(.28221 0 0 .28224 .017639 168.2)" aria-label="RUN">
     <path d="m5.1405 73.031v-0.55997c0-0.92995-0.74996-1.6799-1.6799-1.6799h-1.1999c-0.25998 0-0.47997 0.21999-0.47997 0.47997v5.7597c0 0.26998 0.21999 0.47997 0.47997 0.47997 0.26998 0 0.47997-0.20999 0.47997-0.47997v-2.3199h0.53997l0.92995 2.4899c0.099994 0.24999 0.36998 0.36998 0.61996 0.27998 0.24999-0.09 0.37998-0.36998 0.27998-0.61996l-0.86995-2.3399c0.53997-0.27998 0.89995-0.83995 0.89995-1.4899zm-2.3999-1.2799h0.71996c0.39998 0 0.71996 0.31998 0.71996 0.71996v0.55997c0 0.39998-0.31998 0.71996-0.71996 0.71996h-0.71996z"/>
     <path d="m6.7605 75.831v-4.5997c0-0.25998-0.21999-0.47997-0.47997-0.47997-0.26998 0-0.47997 0.21999-0.47997 0.47997v4.5997c0 0.92995 0.74996 1.6799 1.6799 1.6799 0.91995 0 1.6799-0.74996 1.6799-1.6799v-4.5997c0-0.25998-0.21999-0.47997-0.47997-0.47997-0.26998 0-0.47997 0.21999-0.47997 0.47997v4.5997c0 0.39998-0.32998 0.71996-0.71996 0.71996-0.39998 0-0.71996-0.31998-0.71996-0.71996z"/>
     <path d="m13.448 77.501c0.20999-0.05 0.36998-0.24999 0.36998-0.46997v-5.7997c0-0.25998-0.21999-0.47997-0.47997-0.47997-0.26998 0-0.47997 0.21999-0.47997 0.47997v3.6998c-0.82995-1.7199-1.8899-3.9098-1.8899-3.9098-0.09999-0.19999-0.31998-0.30998-0.53997-0.25998-0.21999 0.05-0.36998 0.24999-0.36998 0.46997v5.7997c0 0.26998 0.20999 0.47997 0.47997 0.47997 0.25998 0 0.47997-0.20999 0.47997-0.47997v-3.6998c0.82995 1.7199 1.8899 3.9098 1.8899 3.9098 0.09 0.19999 0.31998 0.30998 0.53997 0.25998z"/>
    </g>
   </g>
  </g>
  <g fill="none" stroke="#fff">
   <path d="m41.807 196.51a9.2167 9.2186 0 0 1 0.0081 2.1525" enable-background="new" stroke-width=".33399px"/>
   <path d="m42.789 196.51a10.192 10.194 0 0 1 0.0054 2.1579" enable-background="new" stroke-width=".33399px"/>
   <g stroke-width=".33399px">
    <path d="m53.954 196.51a21.325 21.329 0 0 1 0.0026 2.1691" enable-background="new"/>
    <path d="m55.092 196.5a22.462 22.467 0 0 1 0.0038 2.1676" enable-background="new"/>
    <path d="m56.312 196.49a23.681 23.686 0 0 1 0.0036 2.1722" enable-background="new"/>
    <path d="m57.452 196.51a24.819 24.824 0 0 1 0.0028 2.1545" enable-background="new"/>
   </g>
   <path d="m58.509 196.51a25.875 25.881 0 0 1 0.0031 2.136" enable-background="new" stroke-width=".33399px"/>
   <path d="m80.349 179.64h-0.44392v-1.9633h-0.4578v1.9633h-0.43798v-1.9633h-0.4496v1.9633h-0.46715v-1.9633h-0.44846v1.9633h-0.47584" stroke-width=".21918"/>
   <path d="m67.505 179.64h-0.44392v-1.9633h-2.261v1.9633h-0.47584" stroke-width=".21918"/>
  </g>
  <path d="m60.727 263.59v1.347" fill-rule="evenodd"/>
  <g fill="#fff">
   <path d="m67.06 183.84-1.0858 0.61642v-1.2328z" enable-background="new" stroke="#fff" stroke-linecap="square" stroke-width=".282"/>
   <g transform="matrix(.28221 0 0 .28224 .017639 168.2)" aria-label="  +">
    <path d="m64.385 49.897h-1.0386v-1.0386c0-0.37506-0.31736-0.69242-0.69242-0.69242-0.38949 0-0.69242 0.31736-0.69242 0.69242v1.0386h-1.0386c-0.38949 0-0.69242 0.31736-0.69242 0.69242 0 0.38949 0.30294 0.69242 0.69242 0.69242h1.0386v1.0386c0 0.38949 0.30294 0.69242 0.69242 0.69242 0.37506 0 0.69242-0.30294 0.69242-0.69242v-1.0386h1.0386c0.37506 0 0.69242-0.30294 0.69242-0.69242 0-0.37506-0.31736-0.69242-0.69242-0.69242z"/>
   </g>
   <g stroke="#fff">
    <path d="m13.505 183.89 1.0858 0.61642v-1.2328z" enable-background="new" stroke-linecap="square" stroke-width=".282"/>
    <path d="m37.507 276.48 0.24425-0.48914" stroke-linecap="round" stroke-width=".332"/>
    <path d="m43.51 276.48-0.27071-0.48914" stroke-linecap="round" stroke-width=".332"/>
   </g>
   <path d="m66.118 270.74a5.3434 5.3441 0 0 1-5.3434 5.3441 5.3434 5.3441 0 0 1-5.3434-5.3441 5.3434 5.3441 0 0 1 5.3434-5.3441 5.3434 5.3441 0 0 1 5.3434 5.3441z"/>
  </g>
  <g transform="matrix(.28219 0 0 .28222 .017648 168.2)" stroke="#fff">
   <path transform="matrix(0 -2.5678 -2.3953 0 352.34 1012.1)" d="m239.86 87.252 2.2675-1.3091v2.6183z" enable-background="new" fill="#fff" stroke-linecap="square" stroke-width=".40292"/>
   <path transform="matrix(0 2.5678 -2.3953 0 352.34 -235.29)" d="m239.86 87.252 2.2675-1.3091v2.6183z" enable-background="new" fill="#fff" stroke-linecap="square" stroke-width=".40292"/>
   <path d="m143.34 384.82v7.5" fill="none" stroke-linecap="round" stroke-width="2.2466"/>
  </g>
  <g transform="matrix(.28219 0 0 .28222 .66273 168.18)" fill="#fff" stroke="#fff" stroke-linecap="round" stroke-width="1.1764">
   <path d="m58.853 383.77 0.86557-1.7332"/>
   <path d="m80.126 383.77-0.95933-1.7332"/>
  </g>
  <g transform="matrix(.19955 -.19957 .19955 .19957 .017639 168.2)" fill="#fff" aria-label="  +">
   <path d="m124.66 193.78h-1.0386v-1.0386c0-0.37507-0.31736-0.69243-0.69243-0.69243-0.38948 0-0.69242 0.31736-0.69242 0.69243v1.0386h-1.0386c-0.38949 0-0.69243 0.31736-0.69243 0.69243 0 0.38948 0.30294 0.69242 0.69243 0.69242h1.0386v1.0386c0 0.38949 0.30294 0.69243 0.69242 0.69243 0.37507 0 0.69243-0.30294 0.69243-0.69243v-1.0386h1.0386c0.37506 0 0.69242-0.30294 0.69242-0.69242 0-0.37507-0.31736-0.69243-0.69242-0.69243z"/>
  </g>
  <g transform="matrix(.28219 0 0 .28222 .017648 168.2)" stroke="#fff">
   <path d="m71.776 373.72v13.154" fill="none" stroke-linecap="round" stroke-width="2.2466"/>
   <path transform="matrix(0 -2.5678 -2.3953 0 280.77 1006.1)" d="m239.86 87.252 2.2675-1.3091v2.6183z" enable-background="new" fill="#fff" stroke-linecap="square" stroke-width=".40292"/>
  </g>
  <path d="m4.9879 264.71a5.163 5.1636 0 0 1-4.1095-2.1288" fill="none" stroke="#fff" stroke-width=".634"/>
  <path d="m76.218 264.71a5.163 5.1636 0 0 0 4.1095-2.1288" fill="none" stroke="#fff" stroke-width=".634"/>
  <g transform="matrix(.28219 0 0 .28222 .017648 168.65)">
   <path d="m213.35 335.73h3.9612c1.4652 0 2.6448 1.1796 2.6448 2.6448v19.341c0 1.4652-1.1796 2.6448-2.6448 2.6448h-3.9612c-1.4652 0-2.6448-1.1796-2.6448-2.6448v-19.341c0-1.4652 1.1796-2.6448 2.6448-2.6448z" fill="#fff"/>
   <path d="m212.97 340.36h4.7216" stroke="#000" stroke-linecap="round" stroke-width="1.4142"/>
   <path d="m215.33 338v4.7216" stroke="#000" stroke-linecap="round" stroke-width="1.4142"/>
  </g>
  <path d="m69.457 196.49a23.681 23.686 0 0 1 0.0036 2.1722" enable-background="new" fill="none" stroke="#fff" stroke-width=".33399px"/>
  <path d="m70.596 196.51a24.819 24.824 0 0 1 0.0028 2.1545" enable-background="new" fill="none" stroke="#fff" stroke-width=".33399px"/>
 </g>
</svg>
