<?xml version="1.0" encoding="UTF-8"?>
<svg width="60.96mm" height="128.5mm" version="1.1" viewBox="0 0 60.902 128.5" xmlns="http://www.w3.org/2000/svg" xmlns:cc="http://creativecommons.org/ns#" xmlns:dc="http://purl.org/dc/elements/1.1/" xmlns:rdf="http://www.w3.org/1999/02/22-rdf-syntax-ns#">
 <metadata>
  <rdf:RDF>
   <cc:Work rdf:about="">
    <dc:format>image/svg+xml</dc:format>
    <dc:type rdf:resource="http://purl.org/dc/dcmitype/StillImage"/>
   </cc:Work>
  </rdf:RDF>
 </metadata>
 <g>
  <g transform="matrix(.4248 0 0 .28222 -.029572 .10021)">
   <path d="m0.35433-5.4095e-5h142.8v454.61h-142.8z" fill="#171717" stroke="#000" stroke-linejoin="round" stroke-width=".70807"/>
  </g>
  <text x="17.913191" y="107.12122" enable-background="new" fill="#ffffff" font-family="Miso" font-size="3.3878px" font-stretch="condensed" font-weight="bold" letter-spacing="-.014251px" stroke-width=".28232" word-spacing="0px" style="line-height:0%" xml:space="preserve"><tspan x="17.913191" y="107.12122" fill="#ffffff" font-size="3.3253px" stroke-width=".28232" style="line-height:1.25"> </tspan></text>
  <path d="m23.315 19.812c0.52633 3.7282 3.327 6.0743 7.0921 6.074 3.7651-2.9e-4 6.9555-2.7726 7.4813-6.5008" fill="none" stroke="#000" stroke-linecap="round" stroke-width=".083081"/>
  <g fill="#fff">
   <g stroke="#100" stroke-linecap="round" stroke-width=".063393">
    <rect x="50.962" y="108.88" width="9.367" height="11.512" rx="1.4788" ry="1.5396"/>
    <rect x="40.837" y="108.88" width="9.367" height="11.512" rx="1.4788" ry="1.5396"/>
    <rect x="50.962" y="96.876" width="9.367" height="11.512" rx="1.4788" ry="1.5396"/>
   </g>
   <g stroke-width=".28232" aria-label="PERCALL">
    <path d="m22.82 1.3477q0-0.10587 0.07411-0.17998 0.07411-0.074109 0.17998-0.074109h0.63522q0.18527 0 0.34408 0.068816 0.1641 0.068816 0.28585 0.19057 0.12175 0.12175 0.19057 0.28585 0.06882 0.15881 0.06882 0.34408v0.29644q0 0.18527-0.06882 0.34937-0.06882 0.15881-0.19057 0.28056-0.12175 0.12175-0.28585 0.19057-0.15881 0.068816-0.34408 0.068816h-0.38113v1.2281q0 0.10587-0.07411 0.17998-0.07411 0.074109-0.17998 0.074109t-0.17998-0.074109q-0.07411-0.074109-0.07411-0.17998v-3.0491zm1.2704 0.63522q0-0.15881-0.11116-0.26997-0.11116-0.11116-0.26997-0.11116h-0.38113v1.0587h0.38113q0.15881 0 0.26997-0.11116 0.11116-0.11116 0.11116-0.26997z"/>
    <path d="m25.091 1.3477q0-0.10587 0.07411-0.17998 0.07411-0.074109 0.17998-0.074109h1.0587q0.10587 0 0.17998 0.074109 0.07411 0.074109 0.07411 0.17998 0 0.10587-0.07411 0.17998-0.07411 0.074109-0.17998 0.074109h-0.80461v0.95283h0.69874q0.10587 0 0.17998 0.074109 0.07411 0.074109 0.07411 0.17998 0 0.10587-0.07411 0.17998-0.07411 0.074109-0.17998 0.074109h-0.69874v1.0587h0.80461q0.10587 0 0.17998 0.074109 0.07411 0.074109 0.07411 0.17998 0 0.10587-0.07411 0.17998-0.07411 0.074109-0.17998 0.074109h-1.0587q-0.10587 0-0.17998-0.074109-0.07411-0.074109-0.07411-0.17998z"/>
    <path d="m28.971 2.2794q0 0.25938-0.13234 0.47112-0.12704 0.20645-0.34408 0.31761l0.46054 1.2387q0.04235 0.10058-0.0053 0.19586-0.04235 0.095283-0.14292 0.13234-0.10058 0.037055-0.19586-0.00529-0.08999-0.042348-0.13234-0.14292l-0.4923-1.3181h-0.28585v1.2281q0 0.10587-0.07411 0.17998-0.07411 0.074109-0.17998 0.074109t-0.17998-0.074109q-0.07411-0.074109-0.07411-0.17998v-3.0491q0-0.10587 0.07411-0.17998 0.07411-0.074109 0.17998-0.074109h0.63522q0.18527 0 0.34408 0.068816 0.1641 0.068816 0.28585 0.19057 0.12175 0.12175 0.19057 0.28585 0.06882 0.15881 0.06882 0.34408v0.29644zm-1.2704 0.38113h0.38113q0.15881 0 0.26997-0.11116 0.11116-0.11116 0.11116-0.26997v-0.29644q0-0.15881-0.11116-0.26997-0.11116-0.11116-0.26997-0.11116h-0.38113z"/>
    <path d="m30.14 4.6191q-0.14292-0.037055-0.26468-0.11646-0.12175-0.084696-0.21174-0.19586-0.084696-0.11646-0.13234-0.25409-0.047641-0.13763-0.047641-0.29114v-1.7998q0-0.14822 0.04764-0.28585 0.04764-0.14292 0.13234-0.25409 0.08999-0.11646 0.21174-0.19586 0.12175-0.084696 0.26468-0.12175 0.29644-0.079403 0.5717 0.037054 0.27526 0.11116 0.42877 0.37584 0.05823 0.08999 0.02647 0.19057-0.02647 0.10058-0.11646 0.15881-0.08999 0.052935-0.19057 0.026467-0.10058-0.031761-0.1588-0.12175-0.06352-0.11116-0.18527-0.15881-0.11646-0.052935-0.2435-0.01588-0.12175 0.031761-0.20115 0.13763-0.0794 0.10058-0.0794 0.22762v1.7998q0 0.13234 0.0794 0.23291t0.20115 0.13763q0.12704 0.031761 0.2435-0.015881 0.12175-0.052935 0.18527-0.1641 0.05823-0.08999 0.1588-0.11646 0.10058-0.031761 0.19057 0.021174 0.08999 0.058229 0.11646 0.15881 0.03176 0.10058-0.02647 0.19057-0.15351 0.26468-0.42877 0.37584-0.27526 0.11646-0.5717 0.037055z"/>
    <path d="m33.697 4.328q0.02647 0.10587-0.02647 0.19586-0.04764 0.08999-0.14822 0.11646-0.10587 0.026468-0.19586-0.026467-0.08999-0.047642-0.11646-0.14822-0.02117-0.063522-0.04235-0.15351-0.02117-0.074109-0.05293-0.17469-0.02647-0.10587-0.05823-0.22762h-0.8999q-0.03705 0.12175-0.06352 0.22762-0.02647 0.10058-0.04764 0.17469-0.02117 0.08999-0.04235 0.15351-0.02647 0.10058-0.11646 0.14822-0.08999 0.052935-0.19586 0.026467-0.10058-0.026467-0.15351-0.11646-0.04764-0.08999-0.02117-0.19586l0.84696-3.0702q0.02117-0.084696 0.0847-0.13234 0.06881-0.052935 0.1588-0.052935 0.08999 0 0.15351 0.052935 0.06882 0.047642 0.08999 0.13234zm-0.78344-0.92636q-0.07411-0.27526-0.15351-0.56641-0.0794-0.29114-0.15351-0.55052-0.07411 0.25938-0.15351 0.55052-0.0794 0.29114-0.15351 0.56641z"/>
    <path d="m34.433 4.6297q-0.10587 0-0.17998-0.074109-0.07411-0.074109-0.07411-0.17998v-3.0491q0-0.10587 0.07411-0.17998 0.07411-0.074109 0.17998-0.074109 0.10587 0 0.17998 0.074109 0.07411 0.074109 0.07411 0.17998v2.795h0.80461q0.10587 0 0.17998 0.074109 0.07411 0.074109 0.07411 0.17998 0 0.10587-0.07411 0.17998-0.07411 0.074109-0.17998 0.074109z"/>
    <path d="m36.429 4.6297q-0.10587 0-0.17998-0.074109-0.07411-0.074109-0.07411-0.17998v-3.0491q0-0.10587 0.07411-0.17998 0.07411-0.074109 0.17998-0.074109t0.17998 0.074109q0.07411 0.074109 0.07411 0.17998v2.795h0.80461q0.10587 0 0.17998 0.074109 0.07411 0.074109 0.07411 0.17998 0 0.10587-0.07411 0.17998-0.07411 0.074109-0.17998 0.074109h-1.0587z"/>
   </g>
  </g>
  <g transform="matrix(.24002 0 0 .24002 -29.628 5.4691)">
   <g transform="matrix(.10651 0 0 .10651 205.15 467.13)" fill="#fff">
    <g fill="#fff">
     <polygon points="606.32 289.29 606.32 298.07 640.94 298.07 640.94 259.06 537.07 259.06 537.07 362.93 640.94 362.93 640.94 328.3 606.32 328.3 571.69 328.3 571.69 305.22 571.69 289.29"/>
     <path d="m415.82 300.99v61.936h34.56v-30.232h34.625v30.232h34.688v-103.87h-61.938zm69.206 10-34.668-2e-3 34.668-31.582z"/>
     <path d="m104.15 259.06v-17.561h-34.668l0.156 121.43h103.87v-103.87zm51.598 56.566h-17.33v15.064h-9.383v-15.064h-3.296l-21.749 15.064v-15.064h-17.041v-8.779h17.041v-15.063l21.748 15.063h3.297v-15.063h9.383v15.063h17.33z"/>
     <path d="m658.25 259.06v103.87h103.87v-103.87zm69.123 69.248h-34.624v-34.623h34.624z"/>
     <polygon points="294.7 332.7 272.37 311.11 294.7 289.29 294.7 259.06 190.82 259.06 190.82 289.29 253.52 289.29 231.13 310.99 254.39 332.7 190.82 332.7 190.82 362.93 294.7 362.93"/>
     <polygon points="355.54 332.56 375.97 311.11 355.54 289.27 405.68 289.41 436.56 259.18 312.34 259.18 312.34 289.41 333.84 311.11 312.34 332.86 312.34 363.05 355.54 363.29"/>
    </g>
   </g>
  </g>
  <g transform="matrix(.21535 0 0 .21535 -136.73 -77.016)" enable-background="new">
   <g transform="matrix(1.435 0 0 1.435 -259.64 -278.08)">
    <g fill="#fff">
     <path transform="matrix(-.76289 0 0 .76296 894.69 408.98)" d="m121.54 240.41a23.963 23.963 0 0 1-11.42-26.995 23.963 23.963 0 0 1 23.247-17.853 23.963 23.963 0 0 1 23.133 18 23.963 23.963 0 0 1-11.592 26.922" enable-background="new" fill="none" stroke="#fff" stroke-width="1.4171px"/>
     <path d="m783.5 591.28c0.53135-0.30675 1.2108-0.12468 1.5176 0.40665 0.30678 0.53139 0.1247 1.2109-0.40666 1.5177-0.53138 0.30682-1.2109 0.12475-1.5176-0.40665-0.3068-0.53132-0.12473-1.2108 0.40665-1.5177" enable-background="new" fill="#fff"/>
     <path d="m800.95 592.24c3e-5 -0.61363 0.49753-1.1111 1.1112-1.1112 0.61369 3e-5 1.1112 0.49755 1.1112 1.1112 2e-5 0.61369-0.49748 1.1112-1.1112 1.1112-0.61364 3e-5 -1.1112-0.49749-1.1112-1.1112" enable-background="new" fill="#fff"/>
    </g>
   </g>
  </g>
  <g transform="matrix(.21535 0 0 .21535 -151.41 -77.016)" enable-background="new">
   <g transform="matrix(1.435 0 0 1.435 -259.64 -278.08)">
    <g fill="#fff">
     <path transform="matrix(-.76289 0 0 .76296 894.69 408.98)" d="m121.54 240.41a23.963 23.963 0 0 1-11.42-26.995 23.963 23.963 0 0 1 23.247-17.853 23.963 23.963 0 0 1 23.133 18 23.963 23.963 0 0 1-11.592 26.922" enable-background="new" fill="none" stroke="#fff" stroke-width="1.4171px"/>
     <path d="m783.5 591.28c0.53135-0.30675 1.2108-0.12468 1.5176 0.40665 0.30678 0.53139 0.1247 1.2109-0.40666 1.5177-0.53138 0.30682-1.2109 0.12475-1.5176-0.40665-0.3068-0.53132-0.12473-1.2108 0.40665-1.5177" enable-background="new" fill="#fff"/>
     <path d="m800.95 592.24c3e-5 -0.61363 0.49753-1.1111 1.1112-1.1112 0.61369 3e-5 1.1112 0.49755 1.1112 1.1112 2e-5 0.61369-0.49748 1.1112-1.1112 1.1112-0.61364 3e-5 -1.1112-0.49749-1.1112-1.1112" enable-background="new" fill="#fff"/>
    </g>
   </g>
  </g>
  <g transform="matrix(.21535 0 0 .21535 -166.23 -77.016)" enable-background="new">
   <g transform="matrix(1.435 0 0 1.435 -259.64 -278.08)">
    <g fill="#fff">
     <path transform="matrix(-.76289 0 0 .76296 894.69 408.98)" d="m121.54 240.41a23.963 23.963 0 0 1-11.42-26.995 23.963 23.963 0 0 1 23.247-17.853 23.963 23.963 0 0 1 23.133 18 23.963 23.963 0 0 1-11.592 26.922" enable-background="new" fill="none" stroke="#fff" stroke-width="1.4171px"/>
     <path d="m783.5 591.28c0.53135-0.30675 1.2108-0.12468 1.5176 0.40665 0.30678 0.53139 0.1247 1.2109-0.40666 1.5177-0.53138 0.30682-1.2109 0.12475-1.5176-0.40665-0.3068-0.53132-0.12473-1.2108 0.40665-1.5177" enable-background="new" fill="#fff"/>
     <path d="m800.95 592.24c3e-5 -0.61363 0.49753-1.1111 1.1112-1.1112 0.61369 3e-5 1.1112 0.49755 1.1112 1.1112 2e-5 0.61369-0.49748 1.1112-1.1112 1.1112-0.61364 3e-5 -1.1112-0.49749-1.1112-1.1112" enable-background="new" fill="#fff"/>
    </g>
   </g>
  </g>
  <g transform="matrix(.21535 0 0 .21535 -181.05 -77.016)" enable-background="new">
   <g transform="matrix(1.435 0 0 1.435 -259.64 -278.08)">
    <g fill="#fff">
     <path transform="matrix(-.76289 0 0 .76296 894.69 408.98)" d="m121.54 240.41a23.963 23.963 0 0 1-11.42-26.995 23.963 23.963 0 0 1 23.247-17.853 23.963 23.963 0 0 1 23.133 18 23.963 23.963 0 0 1-11.592 26.922" enable-background="new" fill="none" stroke="#fff" stroke-width="1.4171px"/>
     <path d="m783.5 591.28c0.53135-0.30675 1.2108-0.12468 1.5176 0.40665 0.30678 0.53139 0.1247 1.2109-0.40666 1.5177-0.53138 0.30682-1.2109 0.12475-1.5176-0.40665-0.3068-0.53132-0.12473-1.2108 0.40665-1.5177" enable-background="new" fill="#fff"/>
     <path d="m800.95 592.24c3e-5 -0.61363 0.49753-1.1111 1.1112-1.1112 0.61369 3e-5 1.1112 0.49755 1.1112 1.1112 2e-5 0.61369-0.49748 1.1112-1.1112 1.1112-0.61364 3e-5 -1.1112-0.49749-1.1112-1.1112" enable-background="new" fill="#fff"/>
    </g>
   </g>
  </g>
  <g transform="matrix(.28232 0 0 .28232 -.028855 .05315)" fill="none" stroke="#fff" stroke-linecap="round" stroke-width="1.3216">
   <path d="m15.254 313.29 4.8124 2.5e-4"/>
   <path d="m15.254 310.45h4.8124"/>
   <path d="m15.254 306.18h4.8124"/>
   <path d="m15.254 299.06h4.8124"/>
   <path d="m15.254 287.68h4.8124"/>
   <path d="m15.254 270.6h4.8124"/>
   <path d="m15.254 244.99h4.8124"/>
   <path d="m15.254 206.56h4.8124"/>
   <path d="m37.254 313.29 4.8124 2.5e-4"/>
   <path d="m37.254 310.45h4.8124"/>
   <path d="m37.254 306.18h4.8124"/>
   <path d="m37.254 299.06h4.8124"/>
   <path d="m37.254 287.68h4.8124"/>
   <path d="m37.254 270.6h4.8124"/>
   <path d="m37.254 206.56h4.8124"/>
  </g>
  <g fill="none" stroke="#fff" stroke-width=".28232px">
   <path d="m41.625 24.037 10.94 0.92222"/>
   <path d="m45.508 12.851h7.058"/>
   <path d="m8.0557 24.884 10.995-0.87783"/>
   <path d="m7.2531 12.851h7.8964"/>
  </g>
  <text x="48.363892" y="122.95276" enable-background="new" fill="#ffffff" font-family="Miso" font-size="3.3878px" font-stretch="condensed" font-weight="bold" letter-spacing="-.014251px" stroke-width=".28232" word-spacing="0px" style="line-height:0%" xml:space="preserve"><tspan x="48.363892" y="122.95276" fill="#ffffff" font-size="3.3253px" stroke-width=".28232" style="line-height:1.25">OUTs</tspan></text>
  <g fill="#fff" stroke-width=".28232">
   <g enable-background="new" aria-label="INs">
    <path d="m28.991 8.8142q-0.07905 0-0.13438-0.055335-0.05533-0.055335-0.05533-0.13438v-2.2924q0-0.07905 0.05533-0.13438 0.05533-0.055335 0.13438-0.055335 0.07905 0 0.13438 0.055335 0.05533 0.055335 0.05533 0.13438v2.2924q0 0.07905-0.05533 0.13438-0.05533 0.055335-0.13438 0.055335z"/>
    <path d="m30.915 8.8102q-0.06719 0.01581-0.12648-0.01581-0.05929-0.027667-0.08695-0.086954-0.11858-0.25296-0.24901-0.51778-0.11067-0.22529-0.24505-0.49801-0.13043-0.27272-0.25296-0.52963v1.4624q0 0.07905-0.05533 0.13438-0.05533 0.055335-0.13438 0.055335-0.07905 0-0.13438-0.055335-0.05533-0.055335-0.05533-0.13438v-2.2924q0-0.067192 0.03952-0.11857 0.03953-0.051382 0.10672-0.067192 0.06719-0.01581 0.12253 0.01581 0.05929 0.027667 0.09091 0.086955 0.11857 0.25296 0.24901 0.51777 0.11067 0.22529 0.2411 0.49801 0.13043 0.27272 0.25691 0.52963v-1.4624q0-0.07905 0.05533-0.13438 0.05534-0.055335 0.13438-0.055335 0.07905 0 0.13438 0.055335 0.05533 0.055335 0.05533 0.13438v2.2924q0 0.067192-0.04348 0.11857-0.03952 0.051382-0.10276 0.067192z"/>
    <path d="m32.005 8.3952q0.07115-0.059287 0.06324-0.15415-0.0079-0.098812-0.07905-0.14624l-0.37153-0.25691q-0.09881-0.071145-0.1581-0.17391-0.05929-0.10672-0.06719-0.22924t0.03557-0.2332q0.04743-0.11462 0.13834-0.19762 0.09091-0.07905 0.20553-0.11462 0.11462-0.035572 0.23715-0.01581 0.11857 0.019762 0.21739 0.086955 0.09881 0.067192 0.16205 0.17391 0.03557 0.06324 0.01581 0.13438-0.01581 0.071145-0.083 0.10672-0.06324 0.035572-0.13438 0.019762-0.07114-0.019762-0.10672-0.083002-0.04348-0.075097-0.12648-0.086955-0.07905-0.01581-0.14624 0.043477-0.06719 0.055335-0.05929 0.14229 0.0079 0.083002 0.0751 0.13438l0.36758 0.25691q0.10276 0.075097 0.16205 0.18181 0.06324 0.10672 0.07114 0.2332 0.0079 0.12648-0.03953 0.2411-0.04348 0.11462-0.13834 0.20158-0.09091 0.083002-0.20948 0.11857-0.11857 0.035572-0.24505 0.01581-0.12648-0.019762-0.22924-0.086954-0.09881-0.071145-0.16205-0.18181-0.03557-0.06324-0.01976-0.13438 0.01976-0.071145 0.083-0.10672 0.06719-0.035572 0.13834-0.01581 0.07114 0.01581 0.10672 0.07905 0.04348 0.083002 0.13834 0.09486 0.08695 0.01581 0.1581-0.04743z"/>
   </g>
   <g enable-background="new" aria-label="TRIGGERS">
    <path d="m26.353 28.481q0.06651 0 0.11306 0.04655 0.04655 0.04655 0.04655 0.11306 0 0.0665-0.04655 0.11306-0.04655 0.04655-0.11306 0.04655h-0.27267v1.7557q0 0.06651-0.04655 0.11306-0.04655 0.04655-0.11306 0.04655-0.0665 0-0.11306-0.04655-0.04655-0.04655-0.04655-0.11306v-1.7557h-0.27268q-0.0665 0-0.11306-0.04655-0.04655-0.04655-0.04655-0.11306 0-0.0665 0.04655-0.11306 0.04655-0.04655 0.11306-0.04655z"/>
    <path d="m27.828 29.225q0 0.16294-0.08313 0.29595-0.07981 0.12968-0.21614 0.19952l0.2893 0.77811q0.0266 0.06318-0.0033 0.12304-0.0266 0.05985-0.08978 0.08313t-0.12304-0.0033q-0.05653-0.0266-0.08313-0.08978l-0.30925-0.82799h-0.17956v0.77146q0 0.06651-0.04655 0.11306-0.04655 0.04655-0.11306 0.04655-0.0665 0-0.11306-0.04655-0.04655-0.04655-0.04655-0.11306v-1.9154q0-0.0665 0.04655-0.11306 0.04655-0.04655 0.11306-0.04655h0.39903q0.11638 0 0.21614 0.04323 0.10308 0.04323 0.17956 0.11971 0.07648 0.07648 0.11971 0.17956 0.04323 0.09976 0.04323 0.21614v0.18622zm-0.79806 0.23942h0.23942q0.09976 0 0.16959-0.06983 0.06983-0.06983 0.06983-0.16959v-0.18622q0-0.09976-0.06983-0.16959-0.06983-0.06983-0.16959-0.06983h-0.23942z"/>
    <path d="m28.24 30.715q-0.0665 0-0.11306-0.04655-0.04655-0.04655-0.04655-0.11306v-1.9287q0-0.06651 0.04655-0.11306 0.04655-0.04655 0.11306-0.04655 0.06651 0 0.11306 0.04655t0.04655 0.11306v1.9287q0 0.06651-0.04655 0.11306-0.04655 0.04655-0.11306 0.04655z"/>
    <path d="m29.648 29.465q0.06651 0 0.11306 0.04655 0.04655 0.04655 0.04655 0.11306v0.53204q0 0.11638-0.04323 0.21947-0.04323 0.09976-0.11971 0.17624-0.07648 0.07648-0.17956 0.11971-0.09976 0.04323-0.21614 0.04323-0.11638 0-0.21947-0.04323-0.09976-0.04323-0.17624-0.11971-0.07315-0.07648-0.11971-0.17624-0.04323-0.10308-0.04323-0.21947v-1.1306q0-0.09311 0.02993-0.17956 0.02993-0.08978 0.08313-0.15961 0.05653-0.07316 0.13301-0.12304 0.07648-0.0532 0.16959-0.07648 0.08978-0.02328 0.18289-0.01663 0.09311 0.0033 0.17624 0.0399 0.08313 0.03325 0.15296 0.09311 0.06983 0.05985 0.11638 0.14299 0.03325 0.05653 0.0133 0.11971-0.01663 0.06318-0.07316 0.09976-0.05653 0.03325-0.11971 0.01663-0.06318-0.01995-0.09643-0.07648-0.04323-0.06983-0.11971-0.09976-0.07316-0.03325-0.14964-0.01-0.07981 0.01995-0.12969 0.08646-0.04988 0.06318-0.04988 0.14299v1.1306q0 0.09976 0.06983 0.16959 0.07316 0.06983 0.16959 0.06983 0.09976 0 0.16959-0.06983 0.06983-0.06983 0.06983-0.16959v-0.37243h-0.17291q-0.0665 0-0.11306-0.04655-0.04655-0.04655-0.04655-0.11306 0-0.06651 0.04655-0.11306 0.04655-0.04655 0.11306-0.04655h0.33253z"/>
    <path d="m31.004 29.465q0.06651 0 0.11306 0.04655 0.04655 0.04655 0.04655 0.11306v0.53204q0 0.11638-0.04323 0.21947-0.04323 0.09976-0.11971 0.17624-0.07648 0.07648-0.17956 0.11971-0.09976 0.04323-0.21614 0.04323-0.11638 0-0.21947-0.04323-0.09976-0.04323-0.17624-0.11971-0.07316-0.07648-0.11971-0.17624-0.04323-0.10308-0.04323-0.21947v-1.1306q0-0.09311 0.02993-0.17956 0.02993-0.08978 0.08313-0.15961 0.05653-0.07316 0.13301-0.12304 0.07648-0.0532 0.16959-0.07648 0.08978-0.02328 0.18289-0.01663 0.09311 0.0033 0.17624 0.0399 0.08313 0.03325 0.15296 0.09311 0.06983 0.05985 0.11638 0.14299 0.03325 0.05653 0.0133 0.11971-0.01663 0.06318-0.07316 0.09976-0.05653 0.03325-0.11971 0.01663-0.06318-0.01995-0.09643-0.07648-0.04323-0.06983-0.11971-0.09976-0.07316-0.03325-0.14964-0.01-0.07981 0.01995-0.12969 0.08646-0.04988 0.06318-0.04988 0.14299v1.1306q0 0.09976 0.06983 0.16959 0.07316 0.06983 0.16959 0.06983 0.09976 0 0.16959-0.06983 0.06983-0.06983 0.06983-0.16959v-0.37243h-0.17291q-0.06651 0-0.11306-0.04655-0.04655-0.04655-0.04655-0.11306 0-0.06651 0.04655-0.11306 0.04655-0.04655 0.11306-0.04655h0.33253z"/>
    <path d="m31.442 28.64q0-0.0665 0.04655-0.11306 0.04655-0.04655 0.11306-0.04655h0.66505q0.0665 0 0.11306 0.04655 0.04655 0.04655 0.04655 0.11306 0 0.0665-0.04655 0.11306-0.04655 0.04655-0.11306 0.04655h-0.50544v0.59855h0.43894q0.0665 0 0.11306 0.04655 0.04655 0.04655 0.04655 0.11306t-0.04655 0.11306q-0.04655 0.04655-0.11306 0.04655h-0.43894v0.66505h0.50544q0.0665 0 0.11306 0.04655 0.04655 0.04655 0.04655 0.11306 0 0.06651-0.04655 0.11306t-0.11306 0.04655h-0.66505q-0.0665 0-0.11306-0.04655-0.04655-0.04655-0.04655-0.11306v-1.9021z"/>
    <path d="m33.769 29.225q0 0.16294-0.08313 0.29595-0.07981 0.12968-0.21614 0.19952l0.2893 0.77811q0.0266 0.06318-0.0033 0.12304-0.0266 0.05985-0.08978 0.08313t-0.12304-0.0033q-0.05653-0.0266-0.08313-0.08978l-0.30925-0.82799h-0.17956v0.77146q0 0.06651-0.04655 0.11306-0.04655 0.04655-0.11306 0.04655-0.0665 0-0.11306-0.04655-0.04655-0.04655-0.04655-0.11306v-1.9154q0-0.0665 0.04655-0.11306 0.04655-0.04655 0.11306-0.04655h0.39903q0.11638 0 0.21614 0.04323 0.10308 0.04323 0.17956 0.11971 0.07648 0.07648 0.11971 0.17956 0.04323 0.09976 0.04323 0.21614v0.18622zm-0.79806 0.23942h0.23942q0.09976 0 0.16959-0.06983 0.06983-0.06983 0.06983-0.16959v-0.18622q0-0.09976-0.06983-0.16959-0.06983-0.06983-0.16959-0.06983h-0.23942z"/>
    <path d="m34.616 30.343q0.04655-0.03325 0.06983-0.07981 0.02328-0.04655 0.02993-0.10308 0.01-0.11306-0.06983-0.19952l-0.53204-0.54534q-0.08646-0.08646-0.12636-0.19952-0.0399-0.11306-0.02993-0.23277 0.01-0.11971 0.06651-0.22279 0.05653-0.10641 0.15296-0.17956 0.09643-0.07316 0.21282-0.09976 0.11971-0.0266 0.2361-0.0033 0.11638 0.0266 0.21282 0.09643 0.09976 0.0665 0.15961 0.17291 0.03325 0.05653 0.0133 0.11971-0.01663 0.06318-0.07316 0.09976-0.05653 0.03325-0.11971 0.01663-0.06318-0.01995-0.09643-0.07648-0.05653-0.08978-0.15961-0.11638-0.10641-0.01995-0.19286 0.04655-0.08646 0.06318-0.09311 0.17291-0.01 0.10641 0.06651 0.18289l0.52872 0.54534q0.08646 0.08978 0.12968 0.20617 0.04323 0.11638 0.03325 0.23942-0.01 0.12636-0.06983 0.23277-0.05985 0.10641-0.15629 0.18289-0.09976 0.07648-0.21947 0.10308-0.11971 0.0266-0.24274 0.0033-0.12304-0.0266-0.22279-0.09643-0.09976-0.07316-0.15961-0.17956-0.03658-0.05653-0.01995-0.11971 0.01995-0.06651 0.07648-0.09976t0.11971-0.0133q0.06318 0.01663 0.09976 0.07316 0.05653 0.09643 0.16959 0.12304 0.11638 0.01995 0.20617-0.04988z"/>
   </g>
   <g enable-background="new" aria-label="VOL">
    <path d="m28.543 45.269q-0.01663-0.0665 0.0133-0.12304 0.03325-0.05653 0.09976-0.07316 0.06318-0.01663 0.11971 0.01663 0.05985 0.02993 0.07648 0.09311 0.06318 0.2361 0.12969 0.47551 0.05653 0.20617 0.12304 0.44559 0.0665 0.23942 0.12636 0.45224 0.05653-0.21282 0.12304-0.45224 0.06651-0.23942 0.12304-0.44559 0.06318-0.23942 0.12969-0.47551 0.01663-0.06318 0.07316-0.09311 0.05985-0.03325 0.12304-0.01663 0.0665 0.01663 0.09643 0.07316 0.03325 0.05653 0.01663 0.12304l-0.53204 1.9287q-0.01663 0.0532-0.05986 0.08313-0.0399 0.03325-0.09311 0.03325-0.05653 0-0.09976-0.03325-0.0399-0.02993-0.05653-0.08313z"/>
    <path d="m30.617 47.314q-0.11638 0-0.21947-0.04323-0.09976-0.04323-0.17624-0.11971-0.07648-0.07648-0.11971-0.17624-0.04323-0.10308-0.04323-0.21947v-1.1306q0-0.11638 0.04323-0.21614 0.04323-0.10308 0.11971-0.17956 0.07648-0.07648 0.17624-0.11971 0.10308-0.04323 0.21947-0.04323 0.11638 0 0.21614 0.04323 0.10308 0.04323 0.17956 0.11971 0.07648 0.07648 0.11971 0.17956 0.04323 0.09976 0.04323 0.21614v1.1306q0 0.11638-0.04323 0.21947-0.04323 0.09976-0.11971 0.17624-0.07648 0.07648-0.17956 0.11971-0.09976 0.04323-0.21614 0.04323zm0-1.9287q-0.09976 0-0.16959 0.06983-0.06983 0.06983-0.06983 0.16959v1.1306q0 0.09976 0.06983 0.16959 0.06983 0.06983 0.16959 0.06983 0.09976 0 0.16959-0.06983 0.06983-0.06983 0.06983-0.16959v-1.1306q0-0.09976-0.06983-0.16959-0.06983-0.06983-0.16959-0.06983z"/>
    <path d="m31.627 47.301q-0.06651 0-0.11306-0.04655t-0.04655-0.11306v-1.9154q0-0.06651 0.04655-0.11306 0.04655-0.04655 0.11306-0.04655 0.0665 0 0.11306 0.04655 0.04655 0.04655 0.04655 0.11306v1.7557h0.50544q0.0665 0 0.11306 0.04655 0.04655 0.04655 0.04655 0.11306 0 0.06651-0.04655 0.11306t-0.11306 0.04655h-0.66505z"/>
   </g>
   <g enable-background="new" aria-label="CVs">
    <path d="m18.914 107.72q-0.08978-0.0233-0.16626-0.0731-0.07648-0.0532-0.13301-0.12304-0.0532-0.0732-0.08313-0.15961-0.02993-0.0865-0.02993-0.18289v-1.1306q0-0.0931 0.02993-0.17957 0.02993-0.0898 0.08313-0.15961 0.05653-0.0732 0.13301-0.12304 0.07648-0.0532 0.16626-0.0765 0.18622-0.0499 0.35913 0.0233 0.17291 0.0698 0.26935 0.23609 0.03658 0.0565 0.01663 0.11971-0.01663 0.0632-0.07316 0.0998-0.05653 0.0333-0.11971 0.0166-0.06318-0.02-0.09976-0.0765-0.0399-0.0698-0.11638-0.0998-0.07316-0.0332-0.15296-0.01-0.07648 0.02-0.12636 0.0865-0.04988 0.0632-0.04988 0.14299v1.1306q0 0.0831 0.04988 0.14631 0.04988 0.0632 0.12636 0.0865 0.07981 0.02 0.15296-0.01 0.07648-0.0332 0.11638-0.10308 0.03658-0.0565 0.09976-0.0732 0.06318-0.02 0.11971 0.0133 0.05653 0.0366 0.07316 0.0998 0.01995 0.0632-0.01663 0.11971-0.09643 0.16626-0.26935 0.23609-0.17291 0.0732-0.35913 0.0233z"/>
    <path d="m19.695 105.7q-0.01663-0.0665 0.0133-0.12303 0.03325-0.0565 0.09976-0.0732 0.06318-0.0166 0.11971 0.0166 0.05986 0.0299 0.07648 0.0931 0.06318 0.2361 0.12968 0.47552 0.05653 0.20617 0.12304 0.44558 0.06651 0.23942 0.12636 0.45224 0.05653-0.21282 0.12304-0.45224 0.06651-0.23941 0.12304-0.44558 0.06318-0.23942 0.12969-0.47552 0.01663-0.0632 0.07316-0.0931 0.05985-0.0333 0.12304-0.0166 0.0665 0.0166 0.09643 0.0732 0.03325 0.0565 0.01663 0.12303l-0.53204 1.9287q-0.01663 0.0532-0.05985 0.0831-0.0399 0.0333-0.09311 0.0333-0.05653 0-0.09976-0.0333-0.0399-0.0299-0.05653-0.0831z"/>
    <path d="m21.745 107.39q0.05985-0.0499 0.0532-0.12968-0.0066-0.0831-0.0665-0.12304l-0.31258-0.21614q-0.08313-0.0598-0.13301-0.14631-0.04988-0.0898-0.05653-0.19287-0.0066-0.10308 0.02993-0.19619 0.0399-0.0964 0.11638-0.16626 0.07648-0.0665 0.17291-0.0964 0.09643-0.0299 0.19952-0.0133 0.09976 0.0166 0.18289 0.0731t0.13634 0.14631q0.02993 0.0532 0.0133 0.11306-0.0133 0.0599-0.06983 0.0898-0.0532 0.0299-0.11306 0.0166-0.05985-0.0166-0.08978-0.0698-0.03658-0.0632-0.10641-0.0732-0.0665-0.0133-0.12304 0.0366-0.05653 0.0466-0.04988 0.11971 0.0067 0.0698 0.06318 0.11306l0.30925 0.21614q0.08646 0.0632 0.13634 0.15297 0.0532 0.0898 0.05985 0.19619 0.0067 0.10641-0.03325 0.20284-0.03658 0.0964-0.11638 0.16959-0.07648 0.0698-0.17624 0.0998-0.09976 0.0299-0.20617 0.0133-0.10641-0.0166-0.19286-0.0732-0.08313-0.0598-0.13634-0.15296-0.02993-0.0532-0.01663-0.11306 0.01663-0.0599 0.06983-0.0898 0.05653-0.0299 0.11638-0.0133 0.05985 0.0133 0.08978 0.0665 0.03658 0.0698 0.11638 0.0798 0.07316 0.0133 0.13301-0.0399z"/>
   </g>
  </g>
  <g fill="none" stroke="#fff" stroke-linecap="round">
   <path d="m32.948 7.6811a11.443 11.443 0 0 1 3.6335 1.6106" opacity=".96" stroke-width=".36713"/>
   <path transform="rotate(-5.4928)" d="m21.821 31.548a11.443 11.443 0 0 1-4.5222-4.7425" opacity=".96" stroke-width=".266"/>
   <path d="m23.891 9.2407a11.443 11.443 0 0 1 4.1086-1.6818" opacity=".96" stroke-width=".36713"/>
   <path transform="rotate(4.9976)" d="m42.286 22.049a11.443 11.443 0 0 1-4.2418 4.1324" opacity=".96" stroke-width=".266"/>
  </g>
  <g enable-background="new" fill="#fff" stroke-width=".28232" aria-label="DECAY">
   <path d="m27.87 91.28q0.11638 0 0.21614 0.04323 0.10308 0.04323 0.17956 0.11971 0.07648 0.07648 0.11971 0.17956 0.04323 0.09976 0.04323 0.21614v1.104q0 0.11638-0.04323 0.21947-0.04323 0.09976-0.11971 0.17624-0.07648 0.07648-0.17956 0.11971-0.09976 0.04323-0.21614 0.04323h-0.39903q-0.0665 0-0.11306-0.04655-0.04655-0.04655-0.04655-0.11306v-1.9021q0-0.0665 0.04655-0.11306 0.04655-0.04655 0.11306-0.04655zm0.23942 0.55865q0-0.09976-0.06983-0.16959-0.06983-0.06983-0.16959-0.06983h-0.23942v1.5828h0.23942q0.09976 0 0.16959-0.06983 0.06983-0.06983 0.06983-0.16959v-1.104z"/>
   <path d="m28.72 91.44q0-0.0665 0.04655-0.11306 0.04655-0.04655 0.11306-0.04655h0.66505q0.0665 0 0.11306 0.04655 0.04655 0.04655 0.04655 0.11306 0 0.06651-0.04655 0.11306-0.04655 0.04655-0.11306 0.04655h-0.50544v0.59855h0.43894q0.0665 0 0.11306 0.04655 0.04655 0.04655 0.04655 0.11306 0 0.0665-0.04655 0.11306-0.04655 0.04655-0.11306 0.04655h-0.43894v0.66505h0.50544q0.0665 0 0.11306 0.04655 0.04655 0.04655 0.04655 0.11306 0 0.0665-0.04655 0.11306-0.04655 0.04655-0.11306 0.04655h-0.66505q-0.0665 0-0.11306-0.04655-0.04655-0.04655-0.04655-0.11306v-1.9021z"/>
   <path d="m30.302 93.495q-0.08978-0.02328-0.16626-0.07316-0.07648-0.0532-0.13301-0.12304-0.0532-0.07316-0.08313-0.15961-0.02993-0.08646-0.02993-0.18289v-1.1306q0-0.09311 0.02993-0.17956 0.02993-0.08978 0.08313-0.15961 0.05653-0.07316 0.13301-0.12304 0.07648-0.0532 0.16626-0.07648 0.18622-0.04988 0.35913 0.02328 0.17291 0.06983 0.26935 0.23609 0.03658 0.05653 0.01663 0.11971-0.01663 0.06318-0.07316 0.09976-0.05653 0.03325-0.11971 0.01663-0.06318-0.01995-0.09976-0.07648-0.0399-0.06983-0.11638-0.09976-0.07315-0.03325-0.15296-0.01-0.07648 0.01995-0.12636 0.08646-0.04988 0.06318-0.04988 0.14299v1.1306q0 0.08313 0.04988 0.14631 0.04988 0.06318 0.12636 0.08646 0.07981 0.01995 0.15296-0.01 0.07648-0.03325 0.11638-0.10308 0.03658-0.05653 0.09976-0.07316 0.06318-0.01995 0.11971 0.0133 0.05653 0.03658 0.07316 0.09976 0.01995 0.06318-0.01663 0.11971-0.09643 0.16626-0.26935 0.23609-0.17291 0.07316-0.35913 0.02328z"/>
   <path d="m32.426 93.312q0.01663 0.06651-0.01663 0.12304-0.02993 0.05653-0.09311 0.07316-0.0665 0.01663-0.12304-0.01663-0.05653-0.02993-0.07316-0.09311-0.0133-0.0399-0.0266-0.09643-0.0133-0.04655-0.03325-0.10973-0.01663-0.06651-0.03658-0.14299h-0.5653q-0.02328 0.07648-0.0399 0.14299-0.01663 0.06318-0.02993 0.10973-0.0133 0.05653-0.0266 0.09643-0.01663 0.06318-0.07316 0.09311-0.05653 0.03325-0.12304 0.01663-0.06318-0.01663-0.09643-0.07316-0.02993-0.05653-0.0133-0.12304l0.53204-1.9287q0.0133-0.05321 0.0532-0.08313 0.04323-0.03325 0.09976-0.03325t0.09643 0.03325q0.04323 0.02993 0.05653 0.08313zm-0.49214-0.58192q-0.04655-0.17291-0.09643-0.3558t-0.09643-0.34583q-0.04655 0.16294-0.09643 0.34583t-0.09643 0.3558z"/>
   <path d="m32.947 93.515q-0.0665 0-0.11306-0.04655-0.04655-0.04655-0.04655-0.11306v-0.961l-0.44891-0.8945q-0.02993-0.05985-0.01-0.12304 0.02328-0.06318 0.08313-0.09311 0.05653-0.02993 0.11971-0.0067 0.06318 0.01995 0.09311 0.07981l0.10973 0.21947q0.04655 0.09643 0.10308 0.20949 0.05653 0.11306 0.10973 0.21614 0.04988-0.10308 0.10641-0.21614 0.05985-0.11306 0.10641-0.20949l0.10973-0.21947q0.02993-0.05985 0.09311-0.07981 0.06318-0.02328 0.11971 0.0067 0.05985 0.02993 0.07981 0.09311 0.02328 0.06318-0.0067 0.12304l-0.44891 0.8945v0.961q0 0.0665-0.04655 0.11306-0.04655 0.04655-0.11306 0.04655z"/>
  </g>
  <path d="m36.621 9.2961a5.1555 5.1555 0 0 1 5.6017-1.1281 5.1555 5.1555 0 0 1 3.2018 4.7328" fill="none" opacity=".96" stroke="#fff" stroke-linecap="round" stroke-width=".36713"/>
  <path transform="scale(-1,1)" d="m-23.943 9.2961a5.1555 5.1555 0 0 1 5.6017-1.1281 5.1555 5.1555 0 0 1 3.2018 4.7328" fill="none" opacity=".96" stroke="#fff" stroke-linecap="round" stroke-width=".36718"/>
  <g enable-background="new" fill="#fff" stroke-width=".28232" aria-label="ENV OUTs">
   <path d="m15.481 119.03q0-0.0665 0.04655-0.11306 0.04655-0.0466 0.11306-0.0466h0.66505q0.06651 0 0.11306 0.0466t0.04655 0.11306q0 0.0665-0.04655 0.11306-0.04655 0.0466-0.11306 0.0466h-0.50544v0.59854h0.43894q0.0665 0 0.11306 0.0466 0.04655 0.0465 0.04655 0.11306 0 0.0665-0.04655 0.11306-0.04655 0.0466-0.11306 0.0466h-0.43894v0.66505h0.50544q0.06651 0 0.11306 0.0466 0.04655 0.0465 0.04655 0.11306 0 0.0665-0.04655 0.11306-0.04655 0.0465-0.11306 0.0465h-0.66505q-0.0665 0-0.11306-0.0465-0.04655-0.0466-0.04655-0.11306v-1.9021z"/>
   <path d="m17.817 121.1q-0.05653 0.0133-0.10641-0.0133-0.04988-0.0233-0.07316-0.0732-0.09976-0.21282-0.20949-0.43561-0.09311-0.18954-0.20617-0.41898-0.10973-0.22945-0.21282-0.44559v1.2304q0 0.0665-0.04655 0.11306-0.04655 0.0466-0.11306 0.0466-0.0665 0-0.11306-0.0466-0.04655-0.0466-0.04655-0.11306v-1.9287q0-0.0565 0.03325-0.0998 0.03325-0.0432 0.08978-0.0565t0.10308 0.0133q0.04988 0.0233 0.07648 0.0731 0.09976 0.21282 0.20949 0.43561 0.09311 0.18954 0.20284 0.41899 0.10973 0.22944 0.21614 0.44558v-1.2304q0-0.0665 0.04655-0.11306 0.04655-0.0466 0.11306-0.0466 0.0665 0 0.11306 0.0466 0.04655 0.0466 0.04655 0.11306v1.9287q0 0.0565-0.03658 0.0998-0.03325 0.0432-0.08646 0.0565z"/>
   <path d="m18.159 119.06q-0.01663-0.0665 0.0133-0.12303 0.03325-0.0565 0.09976-0.0732 0.06318-0.0166 0.11971 0.0166 0.05985 0.0299 0.07648 0.0931 0.06318 0.2361 0.12969 0.47552 0.05653 0.20616 0.12304 0.44558 0.0665 0.23942 0.12636 0.45224 0.05653-0.21282 0.12304-0.45224 0.0665-0.23942 0.12304-0.44558 0.06318-0.23942 0.12969-0.47552 0.01663-0.0632 0.07316-0.0931 0.05985-0.0333 0.12303-0.0166 0.06651 0.0166 0.09643 0.0732 0.03325 0.0565 0.01663 0.12303l-0.53204 1.9287q-0.01663 0.0532-0.05985 0.0831-0.0399 0.0333-0.09311 0.0333-0.05653 0-0.09976-0.0333-0.0399-0.0299-0.05653-0.0831z"/>
   <path d="m20.89 121.1q-0.11638 0-0.21947-0.0432-0.09976-0.0432-0.17624-0.11971-0.07648-0.0765-0.11971-0.17624-0.04323-0.10308-0.04323-0.21946v-1.1306q0-0.11638 0.04323-0.21614 0.04323-0.10308 0.11971-0.17956 0.07648-0.0765 0.17624-0.11971 0.10308-0.0432 0.21947-0.0432t0.21614 0.0432q0.10308 0.0432 0.17956 0.11971 0.07648 0.0765 0.11971 0.17956 0.04323 0.0998 0.04323 0.21614v1.1306q0 0.11638-0.04323 0.21946-0.04323 0.0998-0.11971 0.17624-0.07648 0.0765-0.17956 0.11971-0.09976 0.0432-0.21614 0.0432zm0-1.9286q-0.09976 0-0.16959 0.0698-0.06983 0.0698-0.06983 0.16958v1.1306q0 0.0998 0.06983 0.16959 0.06983 0.0698 0.16959 0.0698 0.09976 0 0.16959-0.0698 0.06983-0.0698 0.06983-0.16959v-1.1306q0-0.0998-0.06983-0.16958-0.06983-0.0698-0.16959-0.0698z"/>
   <path d="m22.033 120.55q0 0.0998 0.06983 0.16959 0.06983 0.0698 0.16959 0.0698 0.09643 0 0.16626-0.0698 0.07316-0.0698 0.07316-0.16959v-1.5296q0-0.0665 0.04655-0.11306 0.04655-0.0466 0.11306-0.0466 0.06651 0 0.11306 0.0466 0.04655 0.0466 0.04655 0.11306v1.5296q0 0.11638-0.04655 0.21946-0.04323 0.0998-0.11971 0.17624-0.07316 0.0765-0.17624 0.11971-0.10308 0.0432-0.21614 0.0432-0.11638 0-0.21947-0.0432-0.09976-0.0432-0.17624-0.11971-0.07648-0.0765-0.11971-0.17624-0.04323-0.10308-0.04323-0.21946v-1.5296q0-0.0665 0.04655-0.11306 0.04655-0.0466 0.11306-0.0466 0.06651 0 0.11306 0.0466t0.04655 0.11306v1.5296z"/>
   <path d="m24.028 118.87q0.0665 0 0.11306 0.0466 0.04655 0.0466 0.04655 0.11306 0 0.0665-0.04655 0.11306-0.04655 0.0466-0.11306 0.0466h-0.27267v1.7557q0 0.0665-0.04655 0.11306-0.04655 0.0466-0.11306 0.0466-0.06651 0-0.11306-0.0466t-0.04655-0.11306v-1.7557h-0.27267q-0.06651 0-0.11306-0.0466-0.04655-0.0465-0.04655-0.11306 0-0.0665 0.04655-0.11306 0.04655-0.0466 0.11306-0.0466z"/>
   <path d="m24.848 120.75q0.05985-0.0499 0.0532-0.12968-0.0067-0.0831-0.06651-0.12304l-0.31258-0.21614q-0.08313-0.0598-0.13301-0.14631-0.04988-0.0898-0.05653-0.19287-0.0067-0.10308 0.02993-0.19619 0.0399-0.0964 0.11638-0.16626 0.07648-0.0665 0.17291-0.0964 0.09643-0.0299 0.19952-0.0133 0.09976 0.0166 0.18289 0.0732 0.08313 0.0565 0.13634 0.14631 0.02993 0.0532 0.0133 0.11306-0.0133 0.0599-0.06983 0.0898-0.05321 0.0299-0.11306 0.0166-0.05985-0.0166-0.08978-0.0698-0.03658-0.0632-0.10641-0.0732-0.06651-0.0133-0.12304 0.0366-0.05653 0.0466-0.04988 0.11971 0.0067 0.0698 0.06318 0.11306l0.30925 0.21614q0.08646 0.0632 0.13634 0.15297 0.0532 0.0898 0.05985 0.19619 0.0067 0.1064-0.03325 0.20284-0.03658 0.0964-0.11638 0.16959-0.07648 0.0698-0.17624 0.0998-0.09976 0.0299-0.20617 0.0133-0.10641-0.0166-0.19287-0.0732-0.08313-0.0599-0.13634-0.15296-0.02993-0.0532-0.01663-0.11306 0.01663-0.0599 0.06983-0.0898 0.05653-0.0299 0.11638-0.0133 0.05985 0.0133 0.08978 0.0665 0.03658 0.0698 0.11638 0.0798 0.07316 0.0133 0.13301-0.0399z"/>
  </g>
  <g transform="matrix(.28232 0 0 .28232 -.43955 -2.5546)" fill="#fff">
   <path transform="scale(-1,1)" d="m-65.941 247.03v6.1998l-5.3692-3.0999z"/>
   <g enable-background="new" aria-label="CHOKE">
    <path d="m46.337 253.45q-0.27-0.07-0.5-0.22-0.23-0.16-0.4-0.37-0.16-0.22-0.25-0.48t-0.09-0.55v-3.4q0-0.28 0.09-0.54 0.09-0.27 0.25-0.48 0.17-0.22 0.4-0.37 0.23-0.16 0.5-0.23 0.56-0.15 1.08 0.07 0.52 0.21 0.81 0.71 0.11 0.17 0.05 0.36-0.05 0.19-0.22 0.3-0.17 0.1-0.36 0.05-0.19-0.06-0.3-0.23-0.12-0.21-0.35-0.3-0.22-0.1-0.46-0.03-0.23 0.06-0.38 0.26-0.15 0.19-0.15 0.43v3.4q0 0.25 0.15 0.44t0.38 0.26q0.24 0.06 0.46-0.03 0.23-0.1 0.35-0.31 0.11-0.17 0.3-0.22 0.19-0.06 0.36 0.04 0.17 0.11 0.22 0.3 0.06 0.19-0.05 0.36-0.29 0.5-0.81 0.71-0.52 0.22-1.08 0.07z"/>
    <path d="m51.43 247.23q0-0.2 0.14-0.34t0.34-0.14 0.34 0.14 0.14 0.34v5.8q0 0.2-0.14 0.34t-0.34 0.14-0.34-0.14-0.14-0.34v-2.52h-1.44v2.52q0 0.2-0.14 0.34t-0.34 0.14-0.34-0.14-0.14-0.34v-5.8q0-0.2 0.14-0.34t0.34-0.14 0.34 0.14 0.14 0.34v2.32h1.44z"/>
    <path d="m54.954 253.51q-0.35 0-0.66-0.13-0.3-0.13-0.53-0.36t-0.36-0.53q-0.13-0.31-0.13-0.66v-3.4q0-0.35 0.13-0.65 0.13-0.31 0.36-0.54t0.53-0.36q0.31-0.13 0.66-0.13t0.65 0.13q0.31 0.13 0.54 0.36t0.36 0.54q0.13 0.3 0.13 0.65v3.4q0 0.35-0.13 0.66-0.13 0.3-0.36 0.53t-0.54 0.36q-0.3 0.13-0.65 0.13zm0-5.8q-0.3 0-0.51 0.21t-0.21 0.51v3.4q0 0.3 0.21 0.51t0.51 0.21 0.51-0.21 0.21-0.51v-3.4q0-0.3-0.21-0.51t-0.51-0.21z"/>
    <path d="m61.037 252.82q0.08 0.18 0.01 0.37-0.06 0.19-0.24 0.27-0.18 0.09-0.37 0.02-0.18-0.06-0.27-0.24l-1.31-2.73-0.38 0.52v2q0 0.2-0.14 0.34t-0.34 0.14-0.34-0.14-0.14-0.34v-5.8q0-0.2 0.14-0.34t0.34-0.14 0.34 0.14 0.14 0.34v2.15l1.73-2.43q0.12-0.16 0.31-0.19 0.2-0.03 0.36 0.08 0.17 0.11 0.2 0.31 0.03 0.19-0.09 0.36l-1.5 2.11z"/>
    <path d="m61.691 247.27q0-0.2 0.14-0.34t0.34-0.14h2q0.2 0 0.34 0.14t0.14 0.34-0.14 0.34-0.34 0.14h-1.52v1.8h1.32q0.2 0 0.34 0.14t0.14 0.34-0.14 0.34-0.34 0.14h-1.32v2h1.52q0.2 0 0.34 0.14t0.14 0.34-0.14 0.34-0.34 0.14h-2q-0.2 0-0.34-0.14t-0.14-0.34z"/>
   </g>
  </g>
  <rect x="40.837" y="96.876" width="9.367" height="11.512" rx="1.4788" ry="1.5396" fill="#fff" stroke="#100" stroke-linecap="round" stroke-width=".063393"/>
  <g>
   <g enable-background="new" aria-label="1">
    <path d="m48.801 105.92q-0.04941 0.0494-0.11999 0.0494-0.07058 0-0.11999-0.0494-0.04941-0.0494-0.04941-0.11998 0-0.0706 0.04941-0.11999l0.42348-0.42348q0.08117-0.0812 0.18351-0.0353 0.04941 0.0176 0.07764 0.0635 0.02823 0.0423 0.02823 0.0918v2.0468q0 0.0706-0.04941 0.11998-0.04941 0.0494-0.11999 0.0494-0.07058 0-0.11999-0.0494-0.04941-0.0494-0.04941-0.11998v-1.6375q-0.0247 0.0212-0.04941 0.0459-0.02117 0.0247-0.03882 0.0423-0.02117 0.0247-0.04588 0.0459z" stroke-width=".28232"/>
   </g>
   <g enable-background="new" aria-label="2">
    <path d="m58.754 106.02q-0.05999-0.0388-0.08117-0.10587-0.01764-0.067 0.01765-0.12705 0.11999-0.20821 0.35643-0.27526 0.11293-0.0318 0.22586-0.0176 0.11646 0.0141 0.2188 0.0706 0.21174 0.11292 0.28232 0.34937 0.03176 0.11292 0.02117 0.22938-0.01059 0.11293-0.06352 0.21527-0.12352 0.23644-0.23997 0.45524-0.04941 0.0953-0.10234 0.1941-0.04941 0.0988-0.10234 0.19409-0.04941 0.0918-0.09528 0.17645-0.04235 0.0812-0.07411 0.14469h0.5117q0.07058 0 0.11999 0.0494 0.04941 0.0494 0.04941 0.11998 0 0.0706-0.04941 0.11999-0.04941 0.0494-0.11999 0.0494h-0.7905q-0.09175 0-0.14469-0.0812-0.04588-0.0776-0.0071-0.16587l0.74462-1.4116q0.04588-0.0953 0.01765-0.19409-0.03176-0.0988-0.11999-0.14822-0.09175-0.0494-0.1941-0.0212-0.09528 0.0282-0.15175 0.11645-0.03529 0.06-0.10234 0.0812-0.06705 0.0177-0.12704-0.0176z" stroke-width=".28232"/>
   </g>
   <g enable-background="new" aria-label="3">
    <path d="m49.113 119.38q0.08117-0.0247 0.1341-0.0918 0.05294-0.067 0.05294-0.15528v-0.21174q0-0.10587-0.07411-0.17998-0.07411-0.0741-0.17998-0.0741-0.07058 0-0.11999-0.0494-0.04941-0.0494-0.04941-0.11999 0-0.0706 0.04941-0.11998 0.04941-0.0494 0.11999-0.0494 0.10587 0 0.17998-0.0741 0.07411-0.0741 0.07411-0.17998v-0.14116q0-0.0847-0.05294-0.15175-0.05293-0.0706-0.1341-0.0917-0.0847-0.0247-0.16586 0.0106-0.07764 0.0318-0.11999 0.10587-0.03882 0.06-0.10587 0.0812-0.06705 0.0177-0.12704-0.0176-0.05999-0.0388-0.08117-0.10587-0.01764-0.067 0.01765-0.12704 0.04941-0.0882 0.12352-0.15175 0.07411-0.0635 0.16233-0.0988 0.08823-0.0388 0.18704-0.0423 0.09881-7e-3 0.1941 0.0176 0.09881 0.0247 0.17998 0.0812 0.08117 0.0529 0.13763 0.13057 0.05999 0.0741 0.09175 0.1694 0.03176 0.0918 0.03176 0.19056v0.14116q0 0.12352-0.04941 0.23292-0.04588 0.10939-0.13057 0.19056 0.0847 0.0812 0.13057 0.19057 0.04941 0.1094 0.04941 0.23291v0.21174q0 0.10234-0.03176 0.1941-0.03176 0.0918-0.09175 0.16939-0.05646 0.0741-0.13763 0.13057-0.08117 0.0529-0.17998 0.0776-0.09528 0.0282-0.1941 0.0212-0.09881-7e-3 -0.18704-0.0459-0.08823-0.0353-0.16233-0.0988-0.07411-0.0635-0.12352-0.15174-0.03529-0.06-0.01765-0.12705 0.02117-0.067 0.08117-0.10587 0.05999-0.0353 0.12704-0.0141 0.06705 0.0176 0.10587 0.0776 0.04235 0.0741 0.11999 0.10939 0.08117 0.0318 0.16586 0.0106z" stroke-width=".28232"/>
   </g>
  </g>
  <g enable-background="new" fill="#050000" stroke-width=".28232" aria-label="[MIX]">
   <path d="m53.942 120.3q-0.047 0-0.07991-0.0329-0.0329-0.0329-0.0329-0.0799v-1.7203q0-0.047 0.0329-0.0799t0.07991-0.0329h0.23502q0.047 0 0.07991 0.0329 0.0329 0.0329 0.0329 0.0799t-0.0329 0.0799-0.07991 0.0329h-0.12221v1.4947h0.12221q0.047 0 0.07991 0.0329 0.0329 0.0329 0.0329 0.0799t-0.0329 0.0799-0.07991 0.0329h-0.23502z"/>
   <path d="m54.533 120.12q-0.047 0-0.07991-0.0329-0.0329-0.0329-0.0329-0.0799v-1.3631q0-0.04 0.0235-0.0705t0.06345-0.0399q0.03995-9e-3 0.07521 9e-3 0.03525 0.0164 0.0517 0.054 0.047 0.10341 0.09636 0.20447 0.03995 0.0893 0.08931 0.19036 0.04935 0.0987 0.08931 0.18567 0.03995-0.087 0.08696-0.18567 0.04935-0.10106 0.08931-0.19036 0.047-0.10106 0.09636-0.20447 0.0188-0.0376 0.0517-0.054 0.03525-0.0188 0.07521-9e-3 0.03995 9e-3 0.06345 0.0399 0.02585 0.0306 0.02585 0.0705v1.3631q0 0.047-0.0329 0.0799t-0.07991 0.0329q-0.047 0-0.07991-0.0329-0.0329-0.0329-0.0329-0.0799v-0.85781q-0.03055 0.0635-0.05875 0.12456-0.0282 0.0611-0.0517 0.1081-0.02585 0.0564-0.0517 0.10811-0.0141 0.0306-0.0423 0.0494-0.02585 0.0165-0.05876 0.0165-0.07286 0-0.10341-0.0658-0.02585-0.0517-0.0517-0.10811-0.0235-0.047-0.0517-0.1081t-0.05641-0.12456v0.85781q0 0.047-0.0329 0.0799t-0.07991 0.0329z"/>
   <path d="m55.745 120.12q-0.047 0-0.07991-0.0329-0.0329-0.0329-0.0329-0.0799v-1.3631q0-0.047 0.0329-0.0799t0.07991-0.0329q0.047 0 0.07991 0.0329 0.0329 0.0329 0.0329 0.0799v1.3631q0 0.047-0.0329 0.0799t-0.07991 0.0329z"/>
   <path d="m56.061 120.11q-0.03995-0.0212-0.05641-0.0658-0.0141-0.0447 0.0071-0.0846l0.32668-0.6557-0.30317-0.60635q-0.02115-0.0423-0.0071-0.087 0.01645-0.0447 0.05641-0.0658 0.0423-0.0212 0.08696-5e-3 0.04465 0.0141 0.0658 0.0564l0.22797 0.45594 0.22797-0.45594q0.02115-0.0423 0.06581-0.0564 0.04465-0.0165 0.08461 5e-3 0.0423 0.0211 0.0564 0.0658 0.01645 0.0447-0.0047 0.087l-0.30317 0.60635 0.32668 0.6557q0.02115 0.0399 0.0047 0.0846-0.0141 0.0446-0.0564 0.0658-0.03995 0.0212-0.08461 5e-3 -0.04465-0.0141-0.06581-0.0541l-0.25147-0.50529-0.25147 0.50529q-0.02115 0.04-0.0658 0.0541-0.04465 0.0165-0.08696-5e-3z"/>
   <path d="m57.318 118.36q0.047 0 0.07991 0.0329 0.0329 0.0329 0.0329 0.0799v1.7203q0 0.047-0.0329 0.0799t-0.07991 0.0329h-0.23502q-0.047 0-0.07991-0.0329-0.0329-0.0329-0.0329-0.0799t0.0329-0.0799 0.07991-0.0329h0.12221v-1.4947h-0.12221q-0.047 0-0.07991-0.0329-0.0329-0.0329-0.0329-0.0799t0.0329-0.0799 0.07991-0.0329h0.23502z"/>
  </g>
  <g enable-background="new" fill="#050000" aria-label="4">
   <path d="m58.678 119.24q-0.08822 0-0.13763-0.0706-0.04941-0.0635-0.0247-0.15175l0.49406-1.5528q0.02117-0.0671 0.08117-0.0988 0.06352-0.0318 0.1341-0.0106 0.05293 0.0177 0.0847 0.0635 0.03176 0.0459 0.03176 0.0988 0 0.0176-0.0071 0.0529-0.09175 0.28585-0.17292 0.54347-0.03529 0.1094-0.07058 0.22585-0.03529 0.11293-0.07058 0.2188-0.03529 0.10234-0.06352 0.1941-0.02823 0.0882-0.04588 0.14821h0.30349v-0.32466q0-0.0706 0.04941-0.11999 0.04941-0.0494 0.11999-0.0494 0.07058 0 0.11999 0.0494 0.04941 0.0494 0.04941 0.11999v0.32466h0.11293q0.07058 0 0.11999 0.0494 0.04941 0.0494 0.04941 0.11999 0 0.0706-0.04941 0.11998-0.04941 0.0494-0.11999 0.0494h-0.11293v0.32467q0 0.0706-0.04941 0.11998-0.04941 0.0494-0.11999 0.0494-0.07058 0-0.11999-0.0494-0.04941-0.0494-0.04941-0.11998v-0.32467h-0.53637z" fill="#050000" stroke-width=".28232"/>
  </g>
  <path d="m4.9871 96.571 2.828e-4 23.266c1.6e-5 1.5049 0.97874 2.1517 2.1945 2.1517h26.381c1.3896-0.0274 1.9136-1.0803 1.8932-2.2586l-0.0262-23.223c0.07178-1.2903 0.8897-1.8617 2.1458-1.7677h18.959c1.2157 0 2.6086-1.2806 2.6086-2.7855v-37.145c0-1.5049-0.97874-2.7164-2.1945-2.7164h-53.297 1.07e-5c1.0444-0.0126 1.6808-0.0204-0.017734 0-1.2157 0.0146-2.1768 1.2115-2.1768 2.7164v37.145l-0.00254 0.7017c-0.030166 0.50987 0.15295 1.0095 0.50599 1.3805 0.35304 0.37104 0.84462 0.58054 1.3347 0.57294 1.1148 9e-3 1.7331 0.96944 1.6913 1.9611z" fill="none" stroke="#fff" stroke-linecap="round" stroke-width=".47116"/>
  <g transform="matrix(.28232 0 0 .28232 14.787 .05315)" fill="none" stroke="#fff" stroke-linecap="round" stroke-width="1.3216">
   <path d="m15.254 313.29 4.8124 2.5e-4"/>
   <path d="m15.254 310.45h4.8124"/>
   <path d="m15.254 306.18h4.8124"/>
   <path d="m15.254 299.06h4.8124"/>
   <path d="m15.254 287.68h4.8124"/>
   <path d="m15.254 270.6h4.8124"/>
   <path d="m15.254 206.56h4.8124"/>
   <path d="m37.254 313.29 4.8124 2.5e-4"/>
   <path d="m37.254 310.45h4.8124"/>
   <path d="m37.254 306.18h4.8124"/>
   <path d="m37.254 299.06h4.8124"/>
   <path d="m37.254 287.68h4.8124"/>
   <path d="m37.254 270.6h4.8124"/>
   <path d="m37.254 244.99h4.8124"/>
   <path d="m37.254 206.56h4.8124"/>
  </g>
  <g transform="matrix(.28232 0 0 .28232 29.618 .05315)" fill="none" stroke="#fff" stroke-linecap="round" stroke-width="1.3216">
   <path d="m15.254 313.29 4.8124 2.5e-4"/>
   <path d="m15.254 310.45h4.8124"/>
   <path d="m15.254 306.18h4.8124"/>
   <path d="m15.254 299.06h4.8124"/>
   <path d="m15.254 287.68h4.8124"/>
   <path d="m15.254 270.6h4.8124"/>
   <path d="m15.254 244.99h4.8124"/>
   <path d="m15.254 206.56h4.8124"/>
   <path d="m37.254 313.29 4.8124 2.5e-4"/>
   <path d="m37.254 310.45h4.8124"/>
   <path d="m37.254 306.18h4.8124"/>
   <path d="m37.254 299.06h4.8124"/>
   <path d="m37.254 287.68h4.8124"/>
   <path d="m37.254 270.6h4.8124"/>
   <path d="m37.254 206.56h4.8124"/>
  </g>
  <g transform="matrix(.2823 .0029456 -.0029456 .2823 -.052318 -.53242)" enable-background="new" fill="#fff" aria-label="STRENGTH!!">
   <path d="m88.034 80.937q0.19022 0.06986 0.3729 0.04507 0.18268-0.0248 0.36138-0.11816 0.35075-0.19645 0.44447-0.60254l0.53398-2.6453q0.08045-0.42555 0.33165-0.76796 0.2512-0.34241 0.62142-0.55214 0.37022-0.20972 0.78469-0.25004 0.4242-0.04695 0.83074 0.08924 0.40654 0.13618 0.71666 0.42367 0.31676 0.29721 0.48093 0.68424 0.15444 0.39367 0.14255 0.81523 0.0045 0.42465-0.18744 0.81218-0.09906 0.21013-0.32376 0.27784-0.21807 0.07744-0.43793-0.01498-0.21013-0.09906-0.28757-0.31712-0.06771-0.2247 0.03135-0.43483 0.14991-0.34461 0.02202-0.69935-0.15399-0.3512-0.52115-0.47147-0.35743-0.1269-0.69182 0.07264-0.33129 0.18318-0.40246 0.55963l-0.54062 2.6356q-0.09018 0.43219-0.34448 0.79096-0.2543 0.35878-0.63424 0.57514-0.38968 0.223-0.82052 0.26022-0.43084 0.03722-0.84711-0.09233-0.4229-0.13928-0.73967-0.43649t-0.4942-0.7037q-0.16771-0.41313-0.16246-0.84442 0.01498-0.43792 0.2069-0.82545 0.09242-0.21986 0.31048-0.2973 0.23443-0.07435 0.44456 0.02471t0.27784 0.32376q0.07744 0.21807-0.01498 0.43792-0.16937 0.35788-0.02157 0.74182 0.1739 0.38039 0.55743 0.50375z"/>
   <path d="m96.856 80.678q0.17646 0.15606 0.19074 0.38882 0.01428 0.23276-0.14177 0.40922-0.15606 0.17646-0.38882 0.19074-0.23276 0.01428-0.40922-0.14177l-0.72349-0.63983-4.1199 4.6586q-0.15606 0.17646-0.38882 0.19074-0.23276 0.01428-0.40922-0.14177-0.17646-0.15606-0.19074-0.38882-0.01428-0.23276 0.14177-0.40922l4.1199-4.6586-0.72349-0.63983q-0.17646-0.15606-0.19074-0.38882-0.01428-0.23276 0.14177-0.40922 0.15606-0.17646 0.38882-0.19074 0.23276-0.01428 0.40922 0.14177z"/>
   <path d="m99.655 85.175q-0.26126 0.51462-0.7371 0.80142-0.46 0.28163-1.0026 0.28358l-0.33394 2.9214q-0.01729 0.2422-0.20778 0.38326-0.17999 0.14639-0.41686 0.1186-0.23687-0.02779-0.38326-0.20778-0.13589-0.17466-0.1186-0.41686l0.35091-3.111-0.56713-0.28792-1.237 2.4366q-0.10664 0.21005-0.32832 0.28244-0.22168 0.07239-0.43173-0.03425-0.21005-0.10664-0.28244-0.32832-0.07239-0.22168 0.03425-0.43173l3.0712-6.0494q0.10664-0.21005 0.32832-0.28244 0.22168-0.07239 0.43173 0.03425l1.2603 0.63982q0.36759 0.18662 0.61335 0.4831 0.25626 0.30182 0.37519 0.66601 0.11892 0.36419 0.0902 0.75908-0.0234 0.38439-0.21004 0.75197l-0.29858 0.58814zm-2.9045-0.52347 0.75618 0.38389q0.31507 0.15996 0.6476 0.05137 0.33252-0.10858 0.49248-0.42366l0.29858-0.58814q0.15996-0.31507 0.05137-0.6476-0.10858-0.33252-0.42366-0.49248l-0.75618-0.3839z"/>
   <path d="m101.1 83.426q0.0556-0.22891 0.25479-0.35021 0.19917-0.1213 0.42807-0.06568l2.2891 0.55618q0.2289 0.05562 0.35021 0.25479 0.1213 0.19917 0.0657 0.42808-0.0556 0.22891-0.25479 0.35021-0.19916 0.1213-0.42807 0.06569l-1.7397-0.4227-0.50057 2.0602 1.5108 0.36708q0.2289 0.05562 0.35021 0.25479 0.1213 0.19917 0.0657 0.42808t-0.25479 0.35021q-0.19916 0.1213-0.42807 0.06569l-1.5108-0.36708-0.55618 2.2891 1.7397 0.4227q0.22891 0.05562 0.35021 0.25479 0.12131 0.19917 0.0657 0.42808-0.0556 0.22891-0.25479 0.35021-0.19917 0.1213-0.42807 0.06568l-2.2891-0.55618q-0.22891-0.05562-0.35021-0.25479-0.1213-0.19917-0.06568-0.42808l1.5907-6.5468z"/>
   <path d="m108.84 91.756q-0.20123 0.04269-0.37578-0.05541-0.17482-0.08632-0.25335-0.26477-0.33666-0.76142-0.70786-1.5589-0.31492-0.67847-0.69738-1.4998-0.37069-0.82108-0.71886-1.5945l-0.096 4.357q-5e-3 0.23551-0.17368 0.39674-0.16849 0.16122-0.404 0.15603-0.23552-0.0052-0.39674-0.17368-0.16122-0.16849-0.15603-0.404l0.15053-6.8298q4e-3 -0.20018 0.12554-0.35067 0.12113-0.15049 0.32235-0.19318 0.20123-0.04269 0.36401 0.05515 0.17481 0.08632 0.26513 0.26503 0.33665 0.76142 0.70785 1.5589 0.31493 0.67847 0.68561 1.4996 0.37069 0.82108 0.73063 1.5948l0.096-4.357q5e-3 -0.23551 0.17368-0.39674 0.1685-0.16122 0.40401-0.15603 0.23551 0.0052 0.39673 0.17368 0.16123 0.16849 0.15603 0.404l-0.15053 6.8298q-4e-3 0.20018-0.13732 0.35041-0.12113 0.15049-0.31057 0.19344z"/>
   <path d="m113.99 86.496q0.23025-0.04978 0.42627 0.07654 0.19602 0.12632 0.2458 0.35657l0.39828 1.842q0.0871 0.40293 0.0146 0.79218-0.075 0.37773-0.28251 0.69977-0.20754 0.32204-0.53206 0.54886-0.31301 0.22434-0.71594 0.31146-0.40294 0.08712-0.79218 0.01463-0.37773-0.07498-0.69977-0.28252-0.31052-0.21002-0.54637-0.52054-0.22683-0.32452-0.31395-0.72746l-0.84634-3.9142q-0.0697-0.32235-0.0308-0.64407 0.0364-0.33324 0.16833-0.61482 0.14094-0.29559 0.36839-0.52553 0.22496-0.24145 0.52988-0.39174 0.29341-0.1478 0.62073-0.19447 0.32484-0.05819 0.64003 0.0062 0.3127 0.05289 0.59926 0.20784 0.28657 0.15495 0.50997 0.40791 0.15745 0.17082 0.13567 0.40449-0.0103 0.23118-0.1786 0.40013-0.17082 0.15744-0.402 0.14718-0.23367-0.02178-0.39111-0.1926-0.20193-0.2094-0.48912-0.25576-0.27816-0.06036-0.52552 0.07748-0.26137 0.12882-0.38427 0.3964-0.12539 0.25607-0.0656 0.53237l0.84634 3.9142q0.0747 0.34537 0.36871 0.53486 0.30554 0.187 0.6394 0.11481 0.34537-0.07468 0.53486-0.36871 0.18948-0.29403 0.11481-0.6394l-0.2788-1.2894-0.59864 0.12944q-0.23025 0.04978-0.42627-0.07654-0.19602-0.12632-0.24581-0.35657-0.0498-0.23025 0.0765-0.42627 0.12632-0.19602 0.35657-0.24581l1.1512-0.24892z"/>
   <path d="m117.19 81.427q0.21383-0.09884 0.4327-0.01835t0.31771 0.29432q0.0988 0.21383 0.0183 0.4327t-0.29432 0.31771l-0.8767 0.40525 2.6094 5.6451q0.0988 0.21383 0.0183 0.4327-0.0805 0.21887-0.29432 0.31771-0.21383 0.09884-0.43269 0.01835-0.21887-0.08049-0.31771-0.29432l-2.6094-5.6451-0.8767 0.40525q-0.21383 0.09884-0.4327 0.01835t-0.31771-0.29432q-0.0988-0.21383-0.0183-0.4327 0.0805-0.21887 0.29432-0.31771z"/>
   <path d="m120.46 79.733q-0.14406-0.18639-0.11443-0.4177 0.0296-0.23131 0.21602-0.37537 0.18638-0.14406 0.41769-0.11443 0.23132 0.02963 0.37537 0.21602l4.1777 5.4052q0.14406 0.18639 0.11443 0.4177-0.0296 0.23131-0.21602 0.37537-0.18638 0.14406-0.4177 0.11443-0.23131-0.02963-0.37536-0.21602l-1.8151-2.3485-1.342 1.0372 1.8151 2.3485q0.14406 0.18639 0.11443 0.4177-0.0296 0.23131-0.21602 0.37537-0.18639 0.14406-0.4177 0.11443t-0.37536-0.21602l-4.1777-5.4052q-0.14406-0.18639-0.11443-0.4177 0.0296-0.23131 0.21602-0.37537 0.18638-0.14406 0.41769-0.11443t0.37537 0.21602l1.6711 2.1621 1.342-1.0372z"/>
   <path d="m127.97 82.691q-0.18806 0.21106-0.47076 0.22735-0.2827 0.0163-0.49376-0.17176-0.21106-0.18805-0.22735-0.47076-0.0163-0.2827 0.17175-0.49376 0.18806-0.21106 0.47076-0.22735 0.2827-0.01629 0.49376 0.17176 0.21106 0.18805 0.22735 0.47076 0.0163 0.2827-0.17175 0.49376zm-5.7229-4.3419q-0.17588-0.15671-0.1893-0.38952-0.0134-0.23281 0.14329-0.4087 0.15671-0.17588 0.38952-0.1893 0.23282-0.01342 0.4087 0.14329l3.5176 3.1342q0.17589 0.15671 0.18931 0.38952 0.0134 0.23281-0.14329 0.4087-0.15671 0.17588-0.38953 0.1893-0.23281 0.01342-0.40869-0.14329z"/>
   <path d="m130.17 79.862q-0.15845 0.23409-0.43651 0.28767-0.27806 0.05358-0.51215-0.10488-0.2341-0.15846-0.28767-0.43652-0.0536-0.27806 0.10488-0.51215 0.15846-0.23409 0.43651-0.28767 0.27806-0.05357 0.51216 0.10488 0.23409 0.15846 0.28767 0.43652 0.0536 0.27806-0.10489 0.51215zm-6.2473-3.5461q-0.19508-0.13205-0.2392-0.36104-0.0441-0.22899 0.0879-0.42407 0.13205-0.19508 0.36104-0.2392 0.22899-0.04412 0.42407 0.08793l3.9016 2.641q0.19508 0.13205 0.2392 0.36104 0.0441 0.22899-0.0879 0.42407-0.13205 0.19508-0.36104 0.2392-0.22899 0.04412-0.42407-0.08793z"/>
  </g>
  <g transform="matrix(.28232 0 0 .28232 44.448 .05315)" fill="none" stroke="#fff" stroke-linecap="round" stroke-width="1.3216">
   <path d="m15.254 313.29 4.8124 2.5e-4"/>
   <path d="m15.254 310.45h4.8124"/>
   <path d="m15.254 306.18h4.8124"/>
   <path d="m15.254 299.06h4.8124"/>
   <path d="m15.254 287.68h4.8124"/>
   <path d="m15.254 270.6h4.8124"/>
   <path d="m15.254 206.56h4.8124"/>
   <path d="m37.254 313.29 4.8124 2.5e-4"/>
   <path d="m37.254 310.45h4.8124"/>
   <path d="m37.254 306.18h4.8124"/>
   <path d="m37.254 299.06h4.8124"/>
   <path d="m37.254 287.68h4.8124"/>
   <path d="m37.254 270.6h4.8124"/>
   <path d="m37.254 244.99h4.8124"/>
   <path d="m37.254 206.56h4.8124"/>
  </g>
  <g transform="matrix(.28232 0 0 .28232 29.224 -2.5477)" fill="#fff">
   <path transform="scale(-1,1)" d="m-65.941 247.03v6.1998l-5.3692-3.0999z"/>
   <g enable-background="new" aria-label="CHOKE">
    <path d="m46.337 253.45q-0.27-0.07-0.5-0.22-0.23-0.16-0.4-0.37-0.16-0.22-0.25-0.48t-0.09-0.55v-3.4q0-0.28 0.09-0.54 0.09-0.27 0.25-0.48 0.17-0.22 0.4-0.37 0.23-0.16 0.5-0.23 0.56-0.15 1.08 0.07 0.52 0.21 0.81 0.71 0.11 0.17 0.05 0.36-0.05 0.19-0.22 0.3-0.17 0.1-0.36 0.05-0.19-0.06-0.3-0.23-0.12-0.21-0.35-0.3-0.22-0.1-0.46-0.03-0.23 0.06-0.38 0.26-0.15 0.19-0.15 0.43v3.4q0 0.25 0.15 0.44t0.38 0.26q0.24 0.06 0.46-0.03 0.23-0.1 0.35-0.31 0.11-0.17 0.3-0.22 0.19-0.06 0.36 0.04 0.17 0.11 0.22 0.3 0.06 0.19-0.05 0.36-0.29 0.5-0.81 0.71-0.52 0.22-1.08 0.07z"/>
    <path d="m51.43 247.23q0-0.2 0.14-0.34t0.34-0.14 0.34 0.14 0.14 0.34v5.8q0 0.2-0.14 0.34t-0.34 0.14-0.34-0.14-0.14-0.34v-2.52h-1.44v2.52q0 0.2-0.14 0.34t-0.34 0.14-0.34-0.14-0.14-0.34v-5.8q0-0.2 0.14-0.34t0.34-0.14 0.34 0.14 0.14 0.34v2.32h1.44z"/>
    <path d="m54.954 253.51q-0.35 0-0.66-0.13-0.3-0.13-0.53-0.36t-0.36-0.53q-0.13-0.31-0.13-0.66v-3.4q0-0.35 0.13-0.65 0.13-0.31 0.36-0.54t0.53-0.36q0.31-0.13 0.66-0.13t0.65 0.13q0.31 0.13 0.54 0.36t0.36 0.54q0.13 0.3 0.13 0.65v3.4q0 0.35-0.13 0.66-0.13 0.3-0.36 0.53t-0.54 0.36q-0.3 0.13-0.65 0.13zm0-5.8q-0.3 0-0.51 0.21t-0.21 0.51v3.4q0 0.3 0.21 0.51t0.51 0.21 0.51-0.21 0.21-0.51v-3.4q0-0.3-0.21-0.51t-0.51-0.21z"/>
    <path d="m61.037 252.82q0.08 0.18 0.01 0.37-0.06 0.19-0.24 0.27-0.18 0.09-0.37 0.02-0.18-0.06-0.27-0.24l-1.31-2.73-0.38 0.52v2q0 0.2-0.14 0.34t-0.34 0.14-0.34-0.14-0.14-0.34v-5.8q0-0.2 0.14-0.34t0.34-0.14 0.34 0.14 0.14 0.34v2.15l1.73-2.43q0.12-0.16 0.31-0.19 0.2-0.03 0.36 0.08 0.17 0.11 0.2 0.31 0.03 0.19-0.09 0.36l-1.5 2.11z"/>
    <path d="m61.691 247.27q0-0.2 0.14-0.34t0.34-0.14h2q0.2 0 0.34 0.14t0.14 0.34-0.14 0.34-0.34 0.14h-1.52v1.8h1.32q0.2 0 0.34 0.14t0.14 0.34-0.14 0.34-0.34 0.14h-1.32v2h1.52q0.2 0 0.34 0.14t0.14 0.34-0.14 0.34-0.34 0.14h-2q-0.2 0-0.34-0.14t-0.14-0.34z"/>
   </g>
  </g>
 </g>
 <g display="none" fill-rule="evenodd">
  <g fill="#0f0">
   <circle cx="5.0373" cy="101.84" r="2" display="inline" style="paint-order:normal"/>
   <circle cx="15.159" cy="101.84" r="2" display="inline" style="paint-order:normal"/>
   <circle cx="25.28" cy="101.84" r="2" display="inline" style="paint-order:normal"/>
   <circle cx="35.402" cy="101.84" r="2" display="inline" style="paint-order:normal"/>
  </g>
  <g fill="#00f">
   <circle cx="45.524" cy="101.84" r="2" display="inline" style="paint-order:normal"/>
   <circle cx="55.645" cy="101.84" r="2" display="inline" style="paint-order:normal"/>
   <circle cx="5.0373" cy="113.77" r="2" display="inline" style="paint-order:normal"/>
   <circle cx="15.159" cy="113.77" r="2" display="inline" style="paint-order:normal"/>
   <circle cx="25.28" cy="113.77" r="2" display="inline" style="paint-order:normal"/>
   <circle cx="35.402" cy="113.77" r="2" display="inline" style="paint-order:normal"/>
   <circle cx="45.524" cy="113.77" r="2" display="inline" style="paint-order:normal"/>
   <circle cx="55.645" cy="113.77" r="2" display="inline" style="paint-order:normal"/>
  </g>
  <g fill="#0f0">
   <circle cx="7.1501" cy="24.827" r="2" display="inline" style="paint-order:normal"/>
   <circle cx="18.488" cy="23.941" r="2" display="inline" style="paint-order:normal"/>
   <circle cx="42.171" cy="23.95" r="2" display="inline" style="paint-order:normal"/>
   <circle cx="53.437" cy="24.827" r="2" display="inline" style="paint-order:normal"/>
   <circle cx="30.282" cy="18.221" r="2" display="inline" style="paint-order:normal"/>
   <circle cx="7.1501" cy="12.905" r="2" display="inline" style="paint-order:normal"/>
   <circle cx="20.298" cy="12.905" r="2" display="inline" style="paint-order:normal"/>
   <circle cx="40.266" cy="12.905" r="2" display="inline" style="paint-order:normal"/>
   <circle cx="53.437" cy="12.905" r="2" display="inline" style="paint-order:normal"/>
  </g>
  <g fill="#f00" fill-opacity=".50196">
   <circle cx="8.048" cy="41.265" r="2" display="inline" style="paint-order:normal"/>
   <circle cx="22.879" cy="41.265" r="2" display="inline" style="paint-order:normal"/>
   <circle cx="37.709" cy="41.265" r="2" display="inline" style="paint-order:normal"/>
   <circle cx="52.54" cy="41.265" r="2" display="inline" style="paint-order:normal"/>
  </g>
  <g fill="#f0f" fill-opacity=".50196">
   <circle cx="52.589" cy="49.221" r=".91254" display="inline" style="paint-order:normal"/>
   <circle cx="37.762" cy="49.221" r=".91254" display="inline" style="paint-order:normal"/>
   <circle cx="22.934" cy="49.221" r=".91254" display="inline" style="paint-order:normal"/>
   <circle cx="8.1069" cy="49.221" r=".91254" display="inline" style="paint-order:normal"/>
  </g>
  <g fill="#f00" fill-opacity=".50196">
   <rect x="5.3848" y="53.912" width=".55881" height="1.1008" display="inline" style="paint-order:normal"/>
   <rect x="13.365" y="58.672" width="2.6466" height="5.2802" display="inline" style="paint-order:normal"/>
   <rect x="20.292" y="53.912" width=".55881" height="1.1008" display="inline" style="paint-order:normal"/>
   <rect x="35.173" y="53.912" width=".55881" height="1.1008" display="inline" style="paint-order:normal"/>
   <rect x="42.993" y="58.672" width="2.6466" height="5.2802" display="inline" style="paint-order:normal"/>
   <rect x="49.987" y="53.912" width=".55881" height="1.1008" display="inline" style="paint-order:normal"/>
  </g>
 </g>
</svg>
