<?xml version="1.0" encoding="UTF-8"?>
<svg width="20mm" height="128.5mm" version="1.1" viewBox="0 0 20 128.5" xmlns="http://www.w3.org/2000/svg" xmlns:cc="http://creativecommons.org/ns#" xmlns:dc="http://purl.org/dc/elements/1.1/" xmlns:rdf="http://www.w3.org/1999/02/22-rdf-syntax-ns#">
 <metadata>
  <rdf:RDF>
   <cc:Work rdf:about="">
    <dc:format>image/svg+xml</dc:format>
    <dc:type rdf:resource="http://purl.org/dc/dcmitype/StillImage"/>
   </cc:Work>
  </rdf:RDF>
 </metadata>
 <g>
  <path d="m0.0816 0.0816v128.34h19.837v-128.34z" fill="#171717" stroke="#000" stroke-width=".1632"/>
  <g fill="#ffffff" font-family="Miso" font-size="3.3867px" font-stretch="condensed" font-weight="bold" letter-spacing="-.014246px" word-spacing="0px">
   <text x="41.689617" y="171.8221" enable-background="new" style="line-height:0%" xml:space="preserve"/>
   <text x="11.527104" y="171.8221" enable-background="new" style="line-height:0%" xml:space="preserve"/>
   <text x="68.677139" y="171.8221" enable-background="new" style="line-height:0%" xml:space="preserve"/>
  </g>
  <g fill="#fff" stroke-width=".28222">
   <g enable-background="new" aria-label="VCO">
    <path d="m14.348 4.6669 0.54187 1.9643c0.01355 0.044027 0.05419 0.077894 0.10499 0.077894 0.0508 0 0.09144-0.033867 0.1016-0.077894l0.54187-1.9643c0.016934-0.057573-0.016933-0.11853-0.074506-0.13547-0.057574-0.013547-0.11853 0.02032-0.13208 0.077893-0.057573 0.20659-0.11515 0.40979-0.16933 0.60621-0.09144 0.33189-0.2032 0.73152-0.26755 0.97875-0.074507-0.24723-0.17949-0.64347-0.27093-0.97875-0.054186-0.19643-0.11176-0.39963-0.16933-0.60621-0.01355-0.057573-0.07451-0.09144-0.13208-0.077893-0.05757 0.016933-0.09144 0.077893-0.07451 0.13547z"/>
    <path d="m16.413 6.6921c0.22352 0.06096 0.46397-0.037253 0.57912-0.24045 0.02709-0.0508 0.01016-0.11853-0.04064-0.14901-0.0508-0.027093-0.11853-0.01016-0.14901 0.04064-0.06773 0.11853-0.2032 0.17611-0.33528 0.13885-0.13208-0.037253-0.22013-0.1524-0.22013-0.28787v-1.1515c0-0.13547 0.08805-0.25061 0.22013-0.28787 0.13208-0.037253 0.26755 0.02032 0.33528 0.13885 0.03048 0.0508 0.09821 0.07112 0.14901 0.04064 0.0508-0.03048 0.06773-0.098213 0.04064-0.14901-0.11853-0.19981-0.35221-0.3048-0.57912-0.24045-0.23029 0.064347-0.38269 0.26416-0.38269 0.49784v1.1515c0 0.23368 0.1524 0.43349 0.38269 0.49784z"/>
    <path d="m17.939 6.7091c0.28448 0 0.51477-0.23029 0.51477-0.51477v-1.1515c0-0.28448-0.23029-0.51477-0.51477-0.51477-0.28448 0-0.51477 0.23029-0.51477 0.51477v1.1515c0 0.28448 0.23029 0.51477 0.51477 0.51477zm0-1.9643c0.16256 0 0.29803 0.13547 0.29803 0.29803v1.1515c0 0.16595-0.13547 0.29803-0.29803 0.29803-0.16595 0-0.29803-0.13208-0.29803-0.29803v-1.1515c0-0.16256 0.13208-0.29803 0.29803-0.29803z"/>
   </g>
   <path d="m14.427 123.92v-0.53635h-1.1448l5e-3 3.7089h3.4302v-3.1725h-2.2905zm1.7039 1.7277h-0.57228v0.46009h-0.30985v-0.46009h-0.10885l-0.7182 0.46009v-0.46009h-0.56274v-0.26813h0.56274v-0.46006l0.71817 0.46006h0.10888v-0.46006h0.30985v0.46006h0.57228z"/>
   <g enable-background="new" aria-label="TIMBRE">
    <path d="m12.46 92.667h-0.79798c-0.05218 0-0.09821 0.0399-0.09821 0.09821 0 0.05832 0.04604 0.09821 0.09821 0.09821h0.30078v1.6696c0 0.05832 0.04604 0.09821 0.09821 0.09821 0.05831 0 0.09821-0.0399 0.09821-0.09821v-1.6696h0.30078c0.05831 0 0.09821-0.0399 0.09821-0.09821s-0.0399-0.09821-0.09821-0.09821z"/>
    <path d="m12.937 94.631c0.05832 0 0.09821-0.0399 0.09821-0.09821v-1.7801c0-0.05831-0.0399-0.09821-0.09821-0.09821-0.05218 0-0.09821 0.0399-0.09821 0.09821v1.7801c0 0.05832 0.04604 0.09821 0.09821 0.09821z"/>
    <path d="m13.536 94.631c0.05218 0 0.09821-0.0399 0.09821-0.09821v-1.3412c0.07059 0.15653 0.14732 0.31612 0.20564 0.43889 0.03376 0.07059 0.06752 0.14118 0.09821 0.2087 0.01535 0.03683 0.04604 0.05524 0.08901 0.05524 0.0399 0 0.06752-0.01842 0.08901-0.05524 0.03069-0.06752 0.06445-0.13811 0.09821-0.2087 0.05832-0.12277 0.13198-0.28236 0.20564-0.43889v1.3412c0 0.05832 0.0399 0.09821 0.09821 0.09821 0.05218 0 0.09821-0.0399 0.09821-0.09821v-1.7801c0-0.04604-0.03069-0.08594-0.07673-0.09515-0.04604-0.0092-0.08901 0.01228-0.11049 0.05218-0.05218 0.11356-0.10435 0.22405-0.15653 0.33147-0.08901 0.18108-0.18722 0.39899-0.24553 0.52483-0.06138-0.12584-0.1596-0.34068-0.24553-0.52483-0.05218-0.10742-0.10435-0.21791-0.15653-0.33147-0.02149-0.0399-0.06445-0.06138-0.11049-0.05218s-0.07673 0.04911-0.07673 0.09515v1.7801c0 0.05832 0.0399 0.09821 0.09821 0.09821z"/>
    <path d="m15.02 92.765v1.7556c0 0.05831 0.0399 0.09821 0.09821 0.09821h0.3683c0.25781 0 0.46651-0.2087 0.46651-0.46651v-0.17187c0-0.15039-0.07059-0.28236-0.18108-0.3683 0.11049-0.08594 0.18108-0.21791 0.18108-0.3683v-0.11049c0-0.25781-0.2087-0.46651-0.46651-0.46651h-0.3683c-0.05832 0-0.09821 0.0399-0.09821 0.09821zm0.7366 1.2154v0.17187c0 0.15039-0.12277 0.27009-0.27009 0.27009h-0.27009v-0.71205h0.27009c0.14732 0 0.27009 0.12277 0.27009 0.27009zm0-0.84709v0.11049c0 0.15039-0.12277 0.27009-0.27009 0.27009h-0.27009v-0.65066h0.27009c0.14732 0 0.27009 0.12277 0.27009 0.27009z"/>
    <path d="m17.252 93.305v-0.17187c0-0.25781-0.2087-0.46651-0.46651-0.46651h-0.3683c-0.05218 0-0.09821 0.0399-0.09821 0.09821v1.7678c0 0.05832 0.04604 0.09821 0.09821 0.09821 0.05831 0 0.09821-0.0399 0.09821-0.09821v-0.76115h0.25167l0.29464 0.79492c0.02148 0.05218 0.07673 0.0798 0.12584 0.05831 0.05218-0.02148 0.0798-0.07673 0.05831-0.12584l-0.28236-0.76115c0.17187-0.07059 0.2885-0.23633 0.2885-0.43275zm-0.46651 0.27009h-0.27009v-0.71205h0.27009c0.15039 0 0.27009 0.12277 0.27009 0.27009v0.17187c0 0.15039-0.1197 0.27009-0.27009 0.27009z"/>
    <path d="m17.582 92.765v1.7556c0 0.05831 0.0399 0.09821 0.09821 0.09821h0.61383c0.05832 0 0.09821-0.0399 0.09821-0.09821s-0.0399-0.09821-0.09821-0.09821h-0.51562v-0.71205h0.45424c0.05831 0 0.09821-0.0399 0.09821-0.09821s-0.0399-0.09821-0.09821-0.09821h-0.45424v-0.65066h0.51562c0.05832 0 0.09821-0.0399 0.09821-0.09821s-0.0399-0.09821-0.09821-0.09821h-0.61383c-0.05831 0-0.09821 0.0399-0.09821 0.09821z"/>
   </g>
   <g enable-background="new" aria-label="TZ-FM">
    <path d="m2.9248 92.667h-0.79798c-0.052176 0-0.098213 0.0399-0.098213 0.09821 0 0.05832 0.046038 0.09821 0.098213 0.09821h0.30078v1.6696c0 0.05832 0.046038 0.09821 0.098213 0.09821 0.058314 0 0.098213-0.0399 0.098213-0.09821v-1.6696h0.30078c0.058314 0 0.098213-0.0399 0.098213-0.09821s-0.039899-0.09821-0.098213-0.09821z"/>
    <path d="m3.2174 94.521c0 0.01534 0.00614 0.03376 0.015346 0.05524 0.018415 0.02762 0.046038 0.04297 0.082868 0.04297h0.7366c0.058314 0 0.098213-0.0399 0.098213-0.09821s-0.039899-0.09821-0.098213-0.09821h-0.58928c0.049107-0.11356 0.21484-0.51869 0.37751-0.8962 0.092075-0.22098 0.19336-0.46344 0.30385-0.72432 0.00307-0.01535 0.00614-0.02762 0.00614-0.03683 0-0.01534-0.00614-0.03376-0.015346-0.05524-0.018415-0.02762-0.046037-0.04297-0.082868-0.04297h-0.7366c-0.058314 0-0.098213 0.0399-0.098213 0.09821 0 0.05832 0.039899 0.09821 0.098213 0.09821h0.58928c-0.049107 0.11663-0.22098 0.52483-0.37751 0.89927-0.092075 0.22098-0.19336 0.46038-0.30078 0.72126-0.00614 0.01228-0.00921 0.02455-0.00921 0.03683z"/>
    <path d="m5.3639 93.735c0-0.05831-0.046037-0.09821-0.098213-0.09821h-0.7366c-0.058314 0-0.098213 0.0399-0.098213 0.09821s0.039899 0.09821 0.098213 0.09821h0.7366c0.052176 0 0.098213-0.0399 0.098213-0.09821z"/>
    <path d="m5.8284 94.619c0.058314 0 0.098213-0.0399 0.098213-0.09821v-0.81026h0.45424c0.058314 0 0.098213-0.0399 0.098213-0.09821s-0.039899-0.09821-0.098213-0.09821h-0.45424v-0.65066h0.51562c0.058314 0 0.098213-0.0399 0.098213-0.09821s-0.039899-0.09821-0.098213-0.09821h-0.61383c-0.052176 0-0.098213 0.0399-0.098213 0.09821v1.7556c0 0.05831 0.046038 0.09821 0.098213 0.09821z"/>
    <path d="m6.9191 94.631c0.052176 0 0.098213-0.0399 0.098213-0.09821v-1.3412c0.070591 0.15653 0.14732 0.31612 0.20563 0.43889 0.033761 0.07059 0.067522 0.14118 0.098213 0.2087 0.015346 0.03683 0.046038 0.05524 0.089006 0.05524 0.039899 0 0.067522-0.01842 0.089006-0.05524 0.030692-0.06752 0.064452-0.13811 0.098213-0.2087 0.058314-0.12277 0.13197-0.28236 0.20563-0.43889v1.3412c0 0.05832 0.039899 0.09821 0.098213 0.09821 0.052176 0 0.098213-0.0399 0.098213-0.09821v-1.7801c0-0.04604-0.030692-0.08594-0.076729-0.09515-0.046038-0.0092-0.089006 0.01228-0.11049 0.05218-0.052176 0.11356-0.10435 0.22405-0.15653 0.33147-0.089006 0.18108-0.18722 0.39899-0.24553 0.52483-0.061382-0.12584-0.1596-0.34068-0.24553-0.52483-0.052176-0.10742-0.10435-0.21791-0.15653-0.33147-0.021484-0.0399-0.064453-0.06138-0.11049-0.05218-0.046038 0.0092-0.076729 0.04911-0.076729 0.09515v1.7801c0 0.05832 0.039899 0.09821 0.098213 0.09821z"/>
   </g>
  </g>
  <g transform="matrix(.98282 0 0 1.0411 -307.25 -176.3)">
   <g transform="matrix(.28077 0 0 .26458 102.17 15.428)">
    <path d="m791.6 975.45h24.587c2.9019 0 5.2382 2.4322 5.2382 5.4533v34.374c0 3.0211-2.3362 5.4532-5.2382 5.4532h-24.587c-2.9019 0-5.2382-2.4321-5.2382-5.4532v-34.374c0-3.0211 2.3362-5.4533 5.2382-5.4533z" fill="#fff"/>
   </g>
  </g>
  <g transform="scale(1.0212 .97919)" enable-background="new" stroke-width=".2298" aria-label="OUT">
   <path d="m13.232 123.21c0.29633 0 0.53622-0.23989 0.53622-0.53622v-1.1994c0-0.29634-0.23989-0.53623-0.53622-0.53623-0.29633 0-0.53622 0.23989-0.53622 0.53623v1.1994c0 0.29633 0.23989 0.53622 0.53622 0.53622zm0-2.0461c0.16933 0 0.31044 0.14111 0.31044 0.31045v1.1994c0 0.17286-0.14111 0.31045-0.31044 0.31045-0.17286 0-0.31044-0.13759-0.31044-0.31045v-1.1994c0-0.16934 0.13758-0.31045 0.31044-0.31045z"/>
   <path d="m14.391 122.67v-1.6228c0-0.067-0.05292-0.11289-0.11289-0.11289-0.06703 0-0.11289 0.0459-0.11289 0.11289v1.6228c0 0.29633 0.23989 0.53622 0.53622 0.53622 0.29281 0 0.53622-0.23989 0.53622-0.53622v-1.6228c0-0.067-0.05292-0.11289-0.11289-0.11289-0.06703 0-0.11289 0.0459-0.11289 0.11289v1.6228c0 0.17286-0.14111 0.31045-0.31044 0.31045-0.17286 0-0.31044-0.13759-0.31044-0.31045z"/>
   <path d="m16.567 120.95h-0.91722c-0.05997 0-0.11289 0.0459-0.11289 0.11289 0 0.067 0.05292 0.11289 0.11289 0.11289h0.34572v1.9191c0 0.067 0.05292 0.11289 0.11289 0.11289 0.06703 0 0.11289-0.0459 0.11289-0.11289v-1.9191h0.34572c0.06703 0 0.11289-0.0459 0.11289-0.11289 0-0.067-0.04586-0.11289-0.11289-0.11289z"/>
  </g>
  <g enable-background="new" fill="#fff" stroke-width=".28222" aria-label="VCA">
   <path d="m3.1806 118.67 0.49107 1.7801c0.012277 0.0399 0.049107 0.0706 0.095144 0.0706 0.046038 0 0.082868-0.0307 0.092075-0.0706l0.49107-1.7801c0.015346-0.0522-0.015346-0.10742-0.067522-0.12277-0.052176-0.0123-0.10742 0.0184-0.1197 0.0706-0.052176 0.18722-0.10435 0.37137-0.15346 0.54938-0.082868 0.30078-0.18415 0.66294-0.24246 0.88699-0.067522-0.22405-0.16267-0.58314-0.24553-0.88699-0.049107-0.17801-0.10128-0.36216-0.15346-0.54938-0.012277-0.0522-0.067522-0.0829-0.1197-0.0706-0.052176 0.0154-0.082868 0.0706-0.067522 0.12277z"/>
   <path d="m4.9556 120.51c0.20257 0.0553 0.42048-0.0338 0.52483-0.21791 0.024553-0.046 0.00921-0.10742-0.03683-0.13504-0.046037-0.0246-0.10742-9e-3 -0.13504 0.0368-0.061383 0.10742-0.18415 0.15959-0.30385 0.12583-0.1197-0.0338-0.1995-0.13811-0.1995-0.26088v-1.0435c0-0.12276 0.079798-0.22711 0.1995-0.26088 0.1197-0.0338 0.24246 0.0184 0.30385 0.12584 0.027623 0.046 0.089006 0.0645 0.13504 0.0368 0.046038-0.0276 0.061383-0.089 0.03683-0.13504-0.10742-0.18108-0.31919-0.27623-0.52483-0.21791-0.2087 0.0583-0.34682 0.23939-0.34682 0.45116v1.0435c0 0.21177 0.13811 0.39286 0.34682 0.45117z"/>
   <path d="m6.8535 120.4-0.49107-1.7801c-0.012277-0.046-0.049107-0.0737-0.095144-0.0737-0.046038 0-0.082868 0.0276-0.095144 0.0737l-0.49107 1.7801c-0.015346 0.0522 0.015346 0.10435 0.067522 0.1197 0.058314 0.0153 0.10742-0.0153 0.12277-0.0675 0.00921-0.0307 0.018415-0.0645 0.027622-0.10129 0.021484-0.0645 0.03683-0.15039 0.070591-0.25781h0.59542c0.027622 0.10742 0.049107 0.19336 0.070591 0.25781 0.00921 0.0368 0.018415 0.0706 0.027623 0.10129 0.015346 0.0522 0.067522 0.0829 0.1197 0.0675 0.058314-0.0153 0.085937-0.0675 0.070591-0.1197zm-0.34375-0.50334h-0.48493c0.082868-0.30385 0.17801-0.66295 0.24246-0.88393 0.058314 0.22098 0.1596 0.58008 0.24246 0.88393z"/>
  </g>
  <g enable-background="new" fill="#fff" stroke-width=".28222" aria-label="V/OCT">
   <path d="m2.0035 105.69 0.49107 1.7801c0.012277 0.0399 0.049107 0.0706 0.095144 0.0706 0.046038 0 0.082868-0.0307 0.092075-0.0706l0.49107-1.7801c0.015346-0.0522-0.015346-0.10742-0.067522-0.12277-0.052176-0.0123-0.10742 0.0184-0.1197 0.0706-0.052176 0.18722-0.10435 0.37137-0.15346 0.54939-0.082868 0.30077-0.18415 0.66294-0.24246 0.88699-0.067522-0.22405-0.16267-0.58315-0.24553-0.88699-0.049107-0.17802-0.10128-0.36217-0.15346-0.54939-0.012277-0.0522-0.067522-0.0829-0.1197-0.0706-0.052176 0.0153-0.082868 0.0706-0.067522 0.12277z"/>
   <path d="m4.3003 105.45c-0.049107-0.0215-0.10435 9e-3 -0.12584 0.0583l-0.7366 2.0256c-0.021484 0.0522 0.00921 0.10435 0.058314 0.12584 0.052176 0.0215 0.10435-6e-3 0.12584-0.0583l0.7366-2.0256c0.021484-0.0522-0.00614-0.10435-0.058314-0.12583z"/>
   <path d="m5.1608 107.55c0.25781 0 0.46651-0.2087 0.46651-0.46651v-1.0435c0-0.25781-0.2087-0.46652-0.46651-0.46652s-0.46651 0.20871-0.46651 0.46652v1.0435c0 0.25781 0.2087 0.46651 0.46651 0.46651zm0-1.7801c0.14732 0 0.27009 0.12277 0.27009 0.27009v1.0435c0 0.15038-0.12277 0.27008-0.27009 0.27008-0.15039 0-0.27009-0.1197-0.27009-0.27008v-1.0435c0-0.14732 0.1197-0.27009 0.27009-0.27009z"/>
   <path d="m6.3036 107.53c0.20257 0.0553 0.42048-0.0338 0.52483-0.21791 0.024553-0.046 0.00921-0.10742-0.03683-0.13504-0.046038-0.0245-0.10742-9e-3 -0.13504 0.0368-0.061383 0.10742-0.18415 0.1596-0.30385 0.12583-0.1197-0.0338-0.1995-0.13811-0.1995-0.26087v-1.0435c0-0.12277 0.079798-0.22712 0.1995-0.26088 0.1197-0.0338 0.24246 0.0184 0.30385 0.12583 0.027623 0.046 0.089006 0.0645 0.13504 0.0368 0.046038-0.0276 0.061383-0.089 0.03683-0.13504-0.10742-0.18108-0.31919-0.27622-0.52483-0.21791-0.2087 0.0583-0.34682 0.23939-0.34682 0.45117v1.0435c0 0.21177 0.13811 0.39285 0.34682 0.45116z"/>
   <path d="m7.9344 105.58h-0.79798c-0.052176 0-0.098213 0.0399-0.098213 0.0982s0.046038 0.0982 0.098213 0.0982h0.30078v1.6696c0 0.0583 0.046038 0.0982 0.098213 0.0982 0.058314 0 0.098213-0.0399 0.098213-0.0982v-1.6696h0.30078c0.058314 0 0.098213-0.0399 0.098213-0.0982s-0.039899-0.0982-0.098213-0.0982z"/>
  </g>
  <g fill="none" stroke="#fff">
   <g stroke-width="1.1395">
    <g transform="matrix(-.13867 0 0 .10667 102.27 -10.066)">
     <title>Lienzo 1</title>
     <g fill="none" stroke="#fff" stroke-width="1.1395">
      <title>Capa 1</title>
      <path d="m691.01 739.53-5.3845-6.112-10.49 12.095-5.2917-5.9829" fill="none" stroke="#fff" stroke-linecap="square" stroke-width="2.1523"/>
      <line x1="692.88" x2="667.95" y1="739.46" y2="739.46" fill="none" stroke="#fff" stroke-linecap="square" stroke-width=".95656"/>
     </g>
    </g>
    <g transform="matrix(-.13867 0 0 .11497 81.387 -15.621)">
     <title>Lienzo 1</title>
     <g fill="none" stroke="#fff" stroke-width="1.1395">
      <title>Capa 1</title>
      <path d="m479.95 734.78v-5.9786h-10.533v11.067h-10.533v-6.9333" fill="none" stroke="#fff" stroke-linecap="square" stroke-width="2.073"/>
      <line x1="456.88" x2="481.81" y1="734.33" y2="734.33" fill="none" stroke="#fff" stroke-linecap="square" stroke-width=".92135"/>
     </g>
    </g>
    <g transform="matrix(-.13867 0 0 .091121 76.11 .57413)">
     <title>Lienzo 1</title>
     <g fill="none" stroke="#fff" stroke-width="1.1395">
      <title>Capa 1</title>
      <path d="m532.75 748.96-2.4379-5.4838c-0.71793-1.6149-2.6091-2.342-4.224-1.6242-0.72946 0.3243-1.3114 0.90959-1.6315 1.6408l-4.6785 10.687c-0.70873 1.6189-2.5957 2.3569-4.2147 1.6482-0.72959-0.31938-1.3139-0.89941-1.6386-1.6266l-2.3407-5.2415" fill="none" stroke="#fff" stroke-linecap="square" stroke-width="2.3286"/>
      <line x1="534.62" x2="509.69" y1="748.84" y2="748.84" fill="none" stroke="#fff" stroke-linecap="square" stroke-width="1.0349"/>
     </g>
    </g>
    <g transform="matrix(.13867 0 0 .10638 -68.107 -8.6087)">
     <title>Lienzo 1</title>
     <g fill="none" stroke="#fff" stroke-width="1.1395">
      <title>Capa 1</title>
      <path d="m588.8 727.58-5.3845-5.9787 0.0437 11.962-10.792-11.828v12l-5.0326-6.1547" fill="none" stroke="#fff" stroke-linecap="square" stroke-width="2.1552"/>
      <line x1="590.8" x2="565.86" y1="727.76" y2="727.76" fill="none" stroke="#fff" stroke-linecap="square" stroke-width=".95785"/>
     </g>
    </g>
   </g>
   <path d="m14.081 72.983h0.84541c0.40762 0 0.73578 0.33972 0.73578 0.76171v4.0196c0 0.42198-0.32816 0.76171-0.73578 0.76171h-9.8528c-0.40762 0-0.73578-0.33973-0.73578-0.76171v-4.0196c0-0.42199 0.32816-0.76171 0.73578-0.76171h0.76935" stroke-linecap="round" stroke-width=".3" style="paint-order:fill markers stroke"/>
  </g>
  <g transform="translate(-26.917 -163.46)" fill="#fff">
   <circle transform="scale(1,-1)" cx="34.062" cy="-236.43" r=".71453" style="paint-order:fill markers stroke"/>
   <circle transform="scale(1,-1)" cx="35.965" cy="-236.43" r=".71453" style="paint-order:fill markers stroke"/>
   <circle transform="scale(1,-1)" cx="37.868" cy="-236.43" r=".71453" style="paint-order:fill markers stroke"/>
   <circle cx="39.771" cy="236.43" r=".71453" style="paint-order:fill markers stroke"/>
  </g>
  <g fill="none" stroke="#fff" stroke-linecap="round" stroke-width=".265">
   <path d="m12.876 72.525 2e-3 -0.0499c0.15175-0.54168 0.88809-0.89745 1.5399-1.0778 0.79208-0.21909 1.7873-0.5137 1.8088-1.1746"/>
   <path d="m9.0428 72.525h0.0118c-8e-3 -0.37568 0.051-0.69191-0.44666-1.1095-0.69413-0.4522-0.7361-0.74632-0.69574-1.1928"/>
   <path d="m7.0977 72.525-2e-3 -0.0499c-0.15562-0.54165-0.91068-0.89742-1.5791-1.0777-0.81222-0.21909-1.8327-0.5137-1.8548-1.1746"/>
   <path d="m10.973 72.525h-0.0118c8e-3 -0.37568-0.051-0.69191 0.44666-1.1095 0.69414-0.4522 0.7361-0.74632 0.69575-1.1928"/>
  </g>
  <g fill="#fff" stroke-width=".28222">
   <g enable-background="new" aria-label="OCT">
    <path d="m4.7728 63.704c0.25781 0 0.46651-0.2087 0.46651-0.46651v-1.0435c0-0.25781-0.2087-0.46651-0.46651-0.46651-0.25781 0-0.46651 0.2087-0.46651 0.46651v1.0435c0 0.25781 0.2087 0.46651 0.46651 0.46651zm0-1.7801c0.14732 0 0.27009 0.12277 0.27009 0.27009v1.0435c0 0.15039-0.12277 0.27009-0.27009 0.27009-0.15039 0-0.27009-0.1197-0.27009-0.27009v-1.0435c0-0.14732 0.1197-0.27009 0.27009-0.27009z"/>
    <path d="m5.9156 63.689c0.20257 0.05524 0.42048-0.03376 0.52483-0.21791 0.024553-0.04604 0.00921-0.10742-0.03683-0.13504-0.046038-0.02455-0.10742-0.0092-0.13504 0.03683-0.061383 0.10742-0.18415 0.1596-0.30385 0.12584-0.1197-0.03376-0.1995-0.13811-0.1995-0.26088v-1.0435c0-0.12277 0.079798-0.22712 0.1995-0.26088 0.1197-0.03376 0.24246 0.01841 0.30385 0.12584 0.027623 0.04604 0.089006 0.06445 0.13504 0.03683 0.046038-0.02762 0.061383-0.08901 0.03683-0.13504-0.10742-0.18108-0.31919-0.27622-0.52483-0.21791-0.2087 0.05831-0.34682 0.2394-0.34682 0.45117v1.0435c0 0.21177 0.13811 0.39285 0.34682 0.45117z"/>
    <path d="m7.5465 61.74h-0.79798c-0.052176 0-0.098213 0.0399-0.098213 0.09821 0 0.05832 0.046038 0.09821 0.098213 0.09821h0.30078v1.6696c0 0.05832 0.046038 0.09821 0.098213 0.09821 0.058314 0 0.098213-0.0399 0.098213-0.09821v-1.6696h0.30078c0.058314 0 0.098213-0.0399 0.098213-0.09821s-0.039899-0.09821-0.098213-0.09821z"/>
   </g>
   <g enable-background="new" aria-label="TIMBRE">
    <path d="m12.487 64.992h-0.79798c-0.05218 0-0.09821 0.0399-0.09821 0.09821s0.04604 0.09821 0.09821 0.09821h0.30078v1.6696c0 0.05831 0.04604 0.09821 0.09821 0.09821 0.05831 0 0.09821-0.0399 0.09821-0.09821v-1.6696h0.30078c0.05831 0 0.09821-0.0399 0.09821-0.09821s-0.0399-0.09821-0.09821-0.09821z"/>
    <path d="m12.964 66.956c0.05831 0 0.09821-0.0399 0.09821-0.09821v-1.7801c0-0.05831-0.0399-0.09821-0.09821-0.09821-0.05218 0-0.09821 0.0399-0.09821 0.09821v1.7801c0 0.05831 0.04604 0.09821 0.09821 0.09821z"/>
    <path d="m13.563 66.956c0.05218 0 0.09821-0.0399 0.09821-0.09821v-1.3412c0.07059 0.15653 0.14732 0.31612 0.20563 0.43889 0.03376 0.07059 0.06752 0.14118 0.09821 0.2087 0.01535 0.03683 0.04604 0.05524 0.08901 0.05524 0.0399 0 0.06752-0.01842 0.08901-0.05524 0.03069-0.06752 0.06445-0.13811 0.09821-0.2087 0.05831-0.12277 0.13197-0.28236 0.20563-0.43889v1.3412c0 0.05831 0.0399 0.09821 0.09821 0.09821 0.05218 0 0.09821-0.0399 0.09821-0.09821v-1.7801c0-0.04604-0.03069-0.08594-0.07673-0.09514s-0.08901 0.01228-0.11049 0.05218c-0.05218 0.11356-0.10435 0.22405-0.15653 0.33147-0.08901 0.18108-0.18722 0.39899-0.24553 0.52483-0.06138-0.12584-0.1596-0.34068-0.24553-0.52483-0.05218-0.10742-0.10435-0.21791-0.15653-0.33147-0.02148-0.0399-0.06445-0.06138-0.11049-0.05218s-0.07673 0.04911-0.07673 0.09514v1.7801c0 0.05831 0.0399 0.09821 0.09821 0.09821z"/>
    <path d="m15.047 65.09v1.7556c0 0.05832 0.0399 0.09821 0.09821 0.09821h0.3683c0.25781 0 0.46651-0.2087 0.46651-0.46651v-0.17187c0-0.15039-0.07059-0.28236-0.18108-0.3683 0.11049-0.08594 0.18108-0.21791 0.18108-0.3683v-0.11049c0-0.25781-0.2087-0.46651-0.46651-0.46651h-0.3683c-0.05831 0-0.09821 0.0399-0.09821 0.09821zm0.7366 1.2154v0.17187c0 0.15039-0.12277 0.27009-0.27009 0.27009h-0.27009v-0.71205h0.27009c0.14732 0 0.27009 0.12277 0.27009 0.27009zm0-0.84709v0.11049c0 0.15039-0.12277 0.27009-0.27009 0.27009h-0.27009v-0.65066h0.27009c0.14732 0 0.27009 0.12277 0.27009 0.27009z"/>
    <path d="m17.279 65.63v-0.17187c0-0.25781-0.2087-0.46651-0.46651-0.46651h-0.3683c-0.05218 0-0.09821 0.0399-0.09821 0.09821v1.7678c0 0.05831 0.04604 0.09821 0.09821 0.09821 0.05831 0 0.09821-0.0399 0.09821-0.09821v-0.76115h0.25167l0.29464 0.79492c0.02148 0.05218 0.07673 0.0798 0.12584 0.05831 0.05218-0.02148 0.0798-0.07673 0.05831-0.12584l-0.28236-0.76115c0.17187-0.07059 0.2885-0.23633 0.2885-0.43275zm-0.46651 0.27009h-0.27009v-0.71205h0.27009c0.15039 0 0.27009 0.12277 0.27009 0.27009v0.17187c0 0.15039-0.1197 0.27009-0.27009 0.27009z"/>
    <path d="m17.609 65.09v1.7556c0 0.05832 0.0399 0.09821 0.09821 0.09821h0.61383c0.05831 0 0.09821-0.0399 0.09821-0.09821s-0.0399-0.09821-0.09821-0.09821h-0.51562v-0.71205h0.45424c0.05831 0 0.09821-0.0399 0.09821-0.09821s-0.0399-0.09821-0.09821-0.09821h-0.45424v-0.65066h0.51562c0.05831 0 0.09821-0.0399 0.09821-0.09821s-0.0399-0.09821-0.09821-0.09821h-0.61383c-0.05831 0-0.09821 0.0399-0.09821 0.09821z"/>
   </g>
   <g enable-background="new" aria-label="FREQ">
    <path d="m7.9156 24.208c0.058314 0 0.098213-0.0399 0.098213-0.09821v-0.81026h0.45424c0.058314 0 0.098213-0.0399 0.098213-0.09821s-0.039899-0.09821-0.098213-0.09821h-0.45424v-0.65066h0.51562c0.058314 0 0.098213-0.0399 0.098213-0.09821 0-0.05832-0.039899-0.09821-0.098213-0.09821h-0.61383c-0.052176 0-0.098213 0.0399-0.098213 0.09821v1.7556c0 0.05831 0.046038 0.09821 0.098213 0.09821z"/>
    <path d="m9.841 22.895v-0.17187c0-0.25781-0.2087-0.46651-0.46651-0.46651h-0.3683c-0.052176 0-0.098213 0.0399-0.098213 0.09821v1.7678c0 0.05832 0.046038 0.09821 0.098213 0.09821 0.058314 0 0.098213-0.0399 0.098213-0.09821v-0.76115h0.25167l0.29464 0.79492c0.021484 0.05218 0.076729 0.0798 0.12584 0.05832 0.052176-0.02148 0.079798-0.07673 0.058314-0.12584l-0.28236-0.76116c0.17187-0.07059 0.2885-0.23633 0.2885-0.43275zm-0.46651 0.27009h-0.27009v-0.71205h0.27009c0.15039 0 0.27009 0.12277 0.27009 0.27009v0.17187c0 0.15039-0.1197 0.27009-0.27009 0.27009z"/>
    <path d="m10.171 22.354v1.7556c0 0.05831 0.0399 0.09821 0.09821 0.09821h0.61383c0.05831 0 0.09821-0.0399 0.09821-0.09821s-0.0399-0.09821-0.09821-0.09821h-0.51562v-0.71205h0.45424c0.05832 0 0.09821-0.0399 0.09821-0.09821s-0.0399-0.09821-0.09821-0.09821h-0.45424v-0.65066h0.51562c0.05831 0 0.09821-0.0399 0.09821-0.09821 0-0.05832-0.0399-0.09821-0.09821-0.09821h-0.61383c-0.05831 0-0.09821 0.0399-0.09821 0.09821z"/>
    <path d="m11.249 22.71v1.0435c0 0.25781 0.2087 0.46651 0.46651 0.46651 0.04911 0 0.09821-0.0092 0.14425-0.02148l0.13811 0.24246c0.02762 0.04604 0.08901 0.06138 0.13504 0.03683 0.04604-0.02762 0.06445-0.08901 0.03683-0.13504l-0.14118-0.24246c0.09514-0.08594 0.15346-0.2087 0.15346-0.34682v-1.0435c0-0.25781-0.2087-0.46651-0.46651-0.46651-0.25781 0-0.46651 0.2087-0.46651 0.46651zm0.46651-0.27009c0.15039 0 0.27009 0.12277 0.27009 0.27009v1.0435c0 0.15039-0.1197 0.27009-0.27009 0.27009-0.14732 0-0.27009-0.1197-0.27009-0.27009v-1.0435c0-0.14732 0.12277-0.27009 0.27009-0.27009z"/>
   </g>
  </g>
  <text x="14.740106" y="10.968515" fill="#000000" font-family="Miso" font-size="3.3867px" font-stretch="condensed" font-weight="bold" letter-spacing="-.016933px" stroke-width=".28222" word-spacing="0px" style="line-height:0%" xml:space="preserve"><tspan x="14.740106" y="10.968515" font-size="2.8222px" stroke-width=".28222" style="line-height:1.25"> </tspan></text>
  <g transform="matrix(.19321 0 0 .19321 2.7916 -121.13)" stroke-width="1.3694">
   <path d="m33.945 667.01c7.4e-5 -1.7803 1.4695-3.2237 3.282-3.2238 1.8126 1e-4 3.2821 1.4435 3.282 3.2239 4.5e-5 1.7805-1.4693 3.2239-3.282 3.2238-1.8124 6e-5 -3.2819-1.4433-3.282-3.2239" enable-background="new" fill="#fff"/>
  </g>
  <g fill="#fff">
   <g enable-background="new" stroke-width=".28222" aria-label="LFO">
    <path d="m15.908 32.568h0.49389c0.04198 0 0.07902-0.0321 0.07902-0.07902s-0.03704-0.07902-0.07902-0.07902h-0.41487v-1.3434c0-0.04692-0.03704-0.07902-0.07902-0.07902-0.04692 0-0.07902 0.0321-0.07902 0.07902v1.4224c0 0.04692 0.0321 0.07902 0.07902 0.07902z"/>
    <path d="m16.757 32.568c0.04692 0 0.07902-0.0321 0.07902-0.07902v-0.65193h0.36548c0.04692 0 0.07902-0.0321 0.07902-0.07902s-0.0321-0.07902-0.07902-0.07902h-0.36548v-0.52352h0.41487c0.04692 0 0.07902-0.0321 0.07902-0.07902s-0.0321-0.07902-0.07902-0.07902h-0.49389c-0.04198 0-0.07902 0.0321-0.07902 0.07902v1.4125c0 0.04692 0.03704 0.07902 0.07902 0.07902z"/>
    <path d="m17.902 32.578c0.20743 0 0.37536-0.16792 0.37536-0.37536v-0.83961c0-0.20743-0.16792-0.37535-0.37536-0.37535s-0.37536 0.16792-0.37536 0.37535v0.83961c0 0.20743 0.16792 0.37536 0.37536 0.37536zm0-1.4323c0.11853 0 0.21731 0.09878 0.21731 0.21731v0.83961c0 0.121-0.09878 0.21731-0.21731 0.21731-0.121 0-0.21731-0.09631-0.21731-0.21731v-0.83961c0-0.11853 0.09631-0.21731 0.21731-0.21731z"/>
   </g>
   <g enable-background="new" stroke-width=".28222" aria-label="VCO">
    <path d="m1.3431 25.489 0.39511 1.4323c0.00988 0.0321 0.039511 0.0568 0.076553 0.0568s0.066675-0.02469 0.074083-0.0568l0.39511-1.4323c0.012347-0.04198-0.012347-0.08643-0.054328-0.09878-0.04198-0.0099-0.08643 0.01482-0.096308 0.0568-0.041981 0.15064-0.083961 0.2988-0.12347 0.44203-0.066675 0.242-0.14817 0.5334-0.19509 0.71367-0.054328-0.18027-0.13088-0.46919-0.19756-0.71367-0.039511-0.14323-0.081491-0.29139-0.12347-0.44203-0.00988-0.04198-0.054328-0.06668-0.096308-0.0568-0.04198 0.01235-0.066675 0.0568-0.054328 0.09878z"/>
    <path d="m2.7723 26.965c0.16298 0.04445 0.33831-0.02716 0.42227-0.17533 0.019756-0.03704 0.00741-0.08643-0.029633-0.10866-0.037042-0.01975-0.08643-0.0074-0.10866 0.02963-0.049389 0.08643-0.14817 0.12841-0.24447 0.10125-0.096308-0.02716-0.16051-0.11112-0.16051-0.2099v-0.83961c0-0.09878 0.064205-0.18274 0.16051-0.2099 0.096308-0.02716 0.19509 0.01482 0.24447 0.10125 0.022225 0.03704 0.071614 0.05186 0.10866 0.02963 0.037042-0.02222 0.049389-0.07161 0.029633-0.10866-0.08643-0.1457-0.25682-0.22225-0.42227-0.17533-0.16792 0.04692-0.27905 0.19262-0.27905 0.36301v0.83961c0 0.17039 0.11112 0.31609 0.27905 0.36301z"/>
    <path d="m3.809 26.978c0.20743 0 0.37535-0.16792 0.37535-0.37536v-0.83961c0-0.20743-0.16792-0.37536-0.37535-0.37536s-0.37535 0.16792-0.37535 0.37536v0.83961c0 0.20743 0.16792 0.37536 0.37535 0.37536zm0-1.4323c0.11853 0 0.21731 0.09878 0.21731 0.21731v0.83961c0 0.121-0.098778 0.21731-0.21731 0.21731-0.121 0-0.21731-0.09631-0.21731-0.21731v-0.83961c0-0.11853 0.096308-0.21731 0.21731-0.21731z"/>
   </g>
   <g>
    <circle transform="scale(-1,1)" cx="-11.069" cy="26.183" r=".36484" style="paint-order:fill markers stroke"/>
    <circle transform="scale(-1,1)" cx="-9.1335" cy="26.183" r=".4975" style="paint-order:fill markers stroke"/>
    <circle transform="scale(-1,1)" cx="-7.0109" cy="26.183" r=".71453" style="paint-order:fill markers stroke"/>
    <circle transform="scale(1,-1)" cx="13.098" cy="-31.782" r=".71453" style="paint-order:fill markers stroke"/>
   </g>
  </g>
  <g fill="none" stroke="#fff" stroke-linecap="round">
   <path d="m4.0668 27.741v3.3103c0 0.40763 0.32816 0.73578 0.73578 0.73578h6.648m4.1724-1.5768v-3.2827c0-0.40762-0.32815-0.73578-0.73578-0.73578h-2.8406" stroke-width=".3" style="paint-order:fill markers stroke"/>
   <g stroke-width=".35">
    <path d="m11.484 61.254 6.9528-6e-3c0.40762-3.5e-4 0.73578 0.33972 0.73578 0.76171v13.224c0 0.42198-0.32816 0.76171-0.73578 0.76171h-2.7448" style="paint-order:fill markers stroke"/>
    <path d="m6.5038 21.327a6.9907 6.9907 0 0 1-3.4669-7.3091 6.9907 6.9907 0 0 1 5.7528-5.6874" stroke-dasharray="1.05, 1.05" stroke-dashoffset="2.66" style="paint-order:fill markers stroke"/>
    <path d="m11.402 7.1863a7.9186 7.9186 0 0 1 6.3213 6.4207 7.9186 7.9186 0 0 1-3.7791 8.1794" stroke-dashoffset="1.505" style="paint-order:fill markers stroke"/>
    <path d="m6.0624 22.114a7.9186 7.9186 0 0 1-3.9422-8.2698 7.9186 7.9186 0 0 1 6.5005-6.4555" stroke-dashoffset="1.505" style="paint-order:fill markers stroke"/>
    <path transform="scale(-1,1)" d="m-13.466 21.094a6.9907 6.9907 0 0 1-3.4669-7.3091 6.9907 6.9907 0 0 1 5.7528-5.6874" stroke-dasharray="1.05, 1.05" stroke-dashoffset="2.66" style="paint-order:fill markers stroke"/>
   </g>
  </g>
  <g fill="#fff">
   <g enable-background="new" stroke-width=".28222" aria-label="PONY">
    <path d="m13.163 1.9141v1.9507c0 0.064347 0.04403 0.10837 0.10837 0.10837 0.06435 0 0.10837-0.044027 0.10837-0.10837v-0.83989h0.29803c0.28448 0 0.51477-0.23029 0.51477-0.51477v-0.18965c0-0.28448-0.23029-0.51477-0.51477-0.51477h-0.4064c-0.06435 0-0.10837 0.044027-0.10837 0.10837zm0.8128 0.4064v0.18965c0 0.16595-0.13547 0.29803-0.29803 0.29803h-0.29803v-0.78571h0.29803c0.16256 0 0.29803 0.13547 0.29803 0.29803z"/>
    <path d="m14.978 3.9732c0.28448 0 0.51477-0.23029 0.51477-0.51477v-1.1515c0-0.28448-0.23029-0.51477-0.51477-0.51477-0.28448 0-0.51477 0.23029-0.51477 0.51477v1.1515c0 0.28448 0.23029 0.51477 0.51477 0.51477zm0-1.9643c0.16256 0 0.29803 0.13547 0.29803 0.29803v1.1515c0 0.16595-0.13547 0.29803-0.29803 0.29803-0.16595 0-0.29803-0.13208-0.29803-0.29803v-1.1515c0-0.16256 0.13208-0.29803 0.29803-0.29803z"/>
    <path d="m16.979 3.9698c0.0508-0.01016 0.08467-0.054187 0.08467-0.10499v-1.9643c0-0.064347-0.04403-0.10837-0.10837-0.10837-0.06435 0-0.10837 0.044027-0.10837 0.10837v1.4901c-0.12531-0.26077-0.31496-0.65024-0.46736-0.9652-0.09144-0.18627-0.18288-0.37931-0.27432-0.57235-0.023707-0.044027-0.07112-0.067733-0.12192-0.057573s-0.08467 0.054187-0.08467 0.10499v1.9643c0 0.064347 0.04403 0.10837 0.10837 0.10837 0.06435 0 0.10837-0.044027 0.10837-0.10837v-1.4901c0.12531 0.26077 0.31157 0.65024 0.46397 0.9652 0.09144 0.18627 0.18288 0.37931 0.27771 0.57235 0.02371 0.044027 0.07112 0.07112 0.12192 0.057573z"/>
    <path d="m17.852 2.8759v0.98891c0 0.064347 0.04403 0.10837 0.10837 0.10837 0.06435 0 0.10837-0.044027 0.10837-0.10837v-0.98891l0.46397-0.92795c0.02709-0.0508 0.0034-0.11853-0.0508-0.14563-0.05419-0.023707-0.11853-0.00339-0.14563 0.0508l-0.37592 0.75184-0.37592-0.75184c-0.02709-0.054187-0.09483-0.074507-0.14563-0.0508-0.05419 0.027093-0.07789 0.094827-0.0508 0.14563z"/>
   </g>
   <g enable-background="new" stroke-width=".28222" aria-label="RANGE">
    <path d="m7.8865 34.073v-0.17187c0-0.25781-0.2087-0.46651-0.46651-0.46651h-0.3683c-0.052176 0-0.098213 0.0399-0.098213 0.09821v1.7678c0 0.05832 0.046038 0.09821 0.098213 0.09821 0.058314 0 0.098213-0.0399 0.098213-0.09821v-0.76115h0.25167l0.29464 0.79492c0.021484 0.05218 0.076729 0.0798 0.12584 0.05832 0.052176-0.02148 0.079798-0.07673 0.058314-0.12584l-0.28236-0.76116c0.17187-0.07059 0.2885-0.23633 0.2885-0.43275zm-0.46651 0.27009h-0.27009v-0.71205h0.27009c0.15039 0 0.27009 0.12277 0.27009 0.27009v0.17187c0 0.15039-0.1197 0.27009-0.27009 0.27009z"/>
    <path d="m9.2564 35.276-0.49107-1.7801c-0.012277-0.04604-0.049107-0.07366-0.095144-0.07366-0.046038 0-0.082868 0.02762-0.095144 0.07366l-0.49107 1.7801c-0.015346 0.05218 0.015346 0.10435 0.067522 0.1197 0.058314 0.01535 0.10742-0.01535 0.12277-0.06752 0.00921-0.03069 0.018415-0.06445 0.027623-0.10128 0.021484-0.06445 0.03683-0.15039 0.070591-0.25781h0.59542c0.027622 0.10742 0.049107 0.19336 0.070591 0.25781 0.00921 0.03683 0.018415 0.07059 0.027622 0.10128 0.015346 0.05218 0.067522 0.08287 0.1197 0.06752 0.058314-0.01535 0.085937-0.06752 0.070591-0.1197zm-0.34375-0.50334h-0.48493c0.082868-0.30385 0.17801-0.66294 0.24246-0.88392 0.058314 0.22098 0.1596 0.58007 0.24246 0.88392z"/>
    <path d="m10.507 35.396c0.04604-0.0092 0.07673-0.04911 0.07673-0.09515v-1.7801c0-0.05831-0.0399-0.09821-0.09821-0.09821s-0.09821 0.0399-0.09821 0.09821v1.3504c-0.11356-0.23633-0.28543-0.58928-0.42355-0.87471-0.082868-0.1688-0.16574-0.34375-0.2486-0.51869-0.021484-0.0399-0.064452-0.06138-0.11049-0.05217-0.046038 0.0092-0.076729 0.04911-0.076729 0.09514v1.7801c0 0.05832 0.039899 0.09821 0.098213 0.09821s0.098213-0.0399 0.098213-0.09821v-1.3504c0.11356 0.23633 0.28236 0.58928 0.42048 0.87471 0.08287 0.1688 0.16574 0.34375 0.25167 0.51869 0.02148 0.0399 0.06445 0.06445 0.11049 0.05218z"/>
    <path d="m10.95 33.889v1.0435c0 0.25781 0.2087 0.46651 0.46651 0.46651s0.46651-0.2087 0.46651-0.46651v-0.49107c0-0.05831-0.0399-0.09821-0.09821-0.09821h-0.30692c-0.05218 0-0.09821 0.0399-0.09821 0.09821s0.04604 0.09821 0.09821 0.09821h0.2087v0.39285c0 0.15039-0.1197 0.27009-0.27009 0.27009-0.14732 0-0.27009-0.1197-0.27009-0.27009v-1.0435c0-0.12277 0.08287-0.22712 0.20256-0.26088 0.1197-0.03376 0.24246 0.01841 0.30078 0.12584 0.02762 0.04604 0.08901 0.06445 0.13504 0.03683 0.04911-0.02762 0.06445-0.08901 0.03683-0.13504-0.10742-0.18108-0.31919-0.27622-0.52483-0.21791-0.20563 0.05831-0.34682 0.2394-0.34682 0.45117z"/>
    <path d="m12.237 33.533v1.7556c0 0.05831 0.0399 0.09821 0.09821 0.09821h0.61383c0.05832 0 0.09821-0.0399 0.09821-0.09821s-0.0399-0.09821-0.09821-0.09821h-0.51562v-0.71205h0.45424c0.05831 0 0.09821-0.0399 0.09821-0.09821s-0.0399-0.09821-0.09821-0.09821h-0.45424v-0.65066h0.51562c0.05832 0 0.09821-0.0399 0.09821-0.09821 0-0.05832-0.0399-0.09821-0.09821-0.09821h-0.61383c-0.05831 0-0.09821 0.0399-0.09821 0.09821z"/>
   </g>
   <g>
    <path transform="rotate(180 0 -84.25)" d="m-4.5246-195.33 1e-7 1.2898-1.117-0.64492z" style="paint-order:fill markers stroke"/>
    <path transform="matrix(1 0 0 -1 0 -168.5)" d="m15.497-200.93v1.2898l-1.117-0.64491z" style="paint-order:fill markers stroke"/>
    <path d="m9.4771 6.8512c0.35089-0.0209 0.7027-0.017 1.0531 0.0115l-0.51317 8.1363z" stroke="#fff" stroke-dashoffset="1.505" stroke-linecap="round" stroke-width=".35" style="paint-order:fill markers stroke"/>
   </g>
  </g>
  <g transform="matrix(1 0 0 .66954 7.4991 -102.35)" fill="none" stroke="#fff" stroke-linecap="round" stroke-miterlimit="10">
   <g stroke-width=".42774">
    <path d="m10.902 214.2-1.3582-7e-5"/>
    <path d="m10.902 219.22h-1.3582"/>
    <path d="m10.902 224.24h-1.3582"/>
   </g>
   <path d="m10.959 229.26h-1.4707" stroke-width=".54995"/>
   <g stroke-width=".42774">
    <path d="m10.902 234.28h-1.3582"/>
    <path d="m10.902 239.3h-1.3582"/>
    <path d="m5.4211 214.2-1.3582-7e-5"/>
    <path d="m5.4211 219.22h-1.3582"/>
    <path d="m5.4211 224.24h-1.3582"/>
   </g>
   <path d="m5.4774 229.26h-1.4707" stroke-width=".54995"/>
   <path d="m5.4211 234.28h-1.3582" stroke-width=".42774"/>
   <path d="m5.4211 239.3h-1.3582" stroke-width=".42774"/>
  </g>
  <rect x=".63512" y="47.463" width="9.0241" height="2.2588" rx=".5191" ry=".5191" fill="#fff" style="paint-order:fill markers stroke"/>
  <g enable-background="new" stroke-width=".28222" aria-label="0">
   <path d="m1.9476 49.397c0.2075 0 0.38-0.17 0.38-0.38v-0.85c0-0.21-0.1725-0.38-0.38-0.38-0.21 0-0.38 0.17-0.38 0.38v0.85c0 0.21 0.17 0.38 0.38 0.38zm0-1.45c0.12 0 0.22 0.1 0.22 0.22v0.85c0 0.1225-0.1 0.22-0.22 0.22-0.1225 0-0.22-0.0975-0.22-0.22v-0.85c0-0.12 0.0975-0.22 0.22-0.22z"/>
  </g>
  <g fill="#fff">
   <g>
    <circle transform="scale(-1)" cx="-1.9513" cy="-43.521" r=".56706" style="paint-order:fill markers stroke"/>
    <circle transform="scale(-1)" cx="-1.9513" cy="-46.057" r=".56706" style="paint-order:fill markers stroke"/>
    <circle transform="scale(-1)" cx="-1.9513" cy="-51.149" r=".56706" style="paint-order:fill markers stroke"/>
    <circle transform="scale(-1)" cx="-1.9513" cy="-53.668" r=".56706" style="paint-order:fill markers stroke"/>
    <circle transform="scale(-1)" cx="-1.9513" cy="-56.203" r=".56706" style="paint-order:fill markers stroke"/>
    <circle transform="scale(-1)" cx="-1.9513" cy="-58.738" r=".56706" style="paint-order:fill markers stroke"/>
   </g>
   <g enable-background="new" stroke-width=".28222" aria-label="SYNC">
    <path d="m13.198 107.29c-0.06752 0.0522-0.14425 0.0675-0.22712 0.0522-0.08287-0.0153-0.15039-0.0645-0.19029-0.13504-0.02762-0.0491-0.08901-0.0645-0.13504-0.0368-0.04604 0.0276-0.06138 0.0859-0.03683 0.13504 0.07059 0.1197 0.18722 0.20257 0.32226 0.23019 0.13504 0.0276 0.27623-6e-3 0.38672-0.089 0.11049-0.0829 0.17801-0.20871 0.19029-0.34682 0.0092-0.13811-0.0399-0.27316-0.13504-0.37137l-0.49107-0.50641c-0.05525-0.0583-0.0798-0.12891-0.07366-0.20871 0.0061-0.0829 0.0399-0.14732 0.10435-0.19335 0.06445-0.0491 0.13811-0.0645 0.21791-0.0491 0.0798 0.0153 0.14118 0.0583 0.18108 0.1289 0.02455 0.046 0.08594 0.0645 0.13198 0.0368 0.04911-0.0276 0.06445-0.089 0.03683-0.13504-0.07059-0.1197-0.17801-0.19643-0.30999-0.22405-0.13198-0.0276-0.26702 3e-3 -0.37444 0.0859s-0.17494 0.20256-0.18415 0.33761c-0.01228 0.13197 0.03376 0.26395 0.1289 0.35909l0.49107 0.50334c0.05831 0.0583 0.08901 0.13812 0.0798 0.22098-0.0061 0.0859-0.04297 0.15346-0.11356 0.20564z"/>
    <path d="m14.138 106.55v0.8962c0 0.0583 0.0399 0.0982 0.09821 0.0982s0.09821-0.0399 0.09821-0.0982v-0.8962l0.42048-0.84095c0.02455-0.046 0.0031-0.10743-0.04604-0.13198-0.04911-0.0215-0.10742-3e-3 -0.13197 0.046l-0.34068 0.68135-0.34068-0.68135c-0.02455-0.0491-0.08594-0.0675-0.13197-0.046-0.04911 0.0246-0.07059 0.0859-0.04604 0.13198z"/>
    <path d="m16.027 107.54c0.04604-9e-3 0.07673-0.0491 0.07673-0.0951v-1.7801c0-0.0583-0.0399-0.0982-0.09821-0.0982s-0.09821 0.0399-0.09821 0.0982v1.3504c-0.11356-0.23632-0.28543-0.58928-0.42355-0.87471-0.08287-0.16881-0.16574-0.34375-0.2486-0.51869-0.02148-0.0399-0.06445-0.0614-0.11049-0.0522-0.04604 9e-3 -0.07673 0.0491-0.07673 0.0951v1.7801c0 0.0583 0.0399 0.0982 0.09821 0.0982s0.09821-0.0399 0.09821-0.0982v-1.3504c0.11356 0.23633 0.28236 0.58928 0.42048 0.87471 0.08287 0.16881 0.16574 0.34375 0.25167 0.51869 0.02148 0.0399 0.06445 0.0645 0.11049 0.0522z"/>
    <path d="m16.817 107.53c0.20257 0.0553 0.42048-0.0338 0.52483-0.21791 0.02455-0.046 0.0092-0.10742-0.03683-0.13504-0.04604-0.0245-0.10742-9e-3 -0.13504 0.0368-0.06138 0.10742-0.18415 0.1596-0.30385 0.12583-0.1197-0.0338-0.1995-0.13811-0.1995-0.26087v-1.0435c0-0.12277 0.0798-0.22712 0.1995-0.26088 0.1197-0.0338 0.24246 0.0184 0.30385 0.12583 0.02762 0.046 0.08901 0.0645 0.13504 0.0368 0.04604-0.0276 0.06138-0.089 0.03683-0.13504-0.10742-0.18108-0.31919-0.27622-0.52483-0.21791-0.2087 0.0583-0.34682 0.23939-0.34682 0.45117v1.0435c0 0.21177 0.13811 0.39285 0.34682 0.45116z"/>
   </g>
  </g>
 </g>
 <g display="none">
  <g transform="matrix(1 0 0 1.1762 40.076 -228.2)" display="inline" stroke-width=".92207">
   <g transform="matrix(.26458 0 0 .26458 -31.558 175.07)" display="inline">
    <rect x="20.156" y="194.57" width="8.6812" height="82.813" rx="4.3406" ry="5.0774" display="inline" fill="#333" stroke="#000" stroke-width=".31015"/>
    <g transform="translate(-167.14 -255.25)" display="inline" stroke-width=".92207"></g>
   </g>
  </g>
  <rect transform="matrix(0,1,1,0,0,0)" x="41.404" y="3.8" width="19.49" height="4.1" display="inline" fill="#404040"/>
  <g transform="matrix(1.3987 0 0 -1.2508 -90.409 351.63)" display="inline" stroke-width=".75603">
   <g transform="matrix(0 .74601 -.72475 0 242.52 234.14)" stroke-width="1.0721">
    <rect transform="scale(-1)" x="-10.071" y="-241.58" width="3.8262" height="3.8163" fill="#8c8c8c"/>
    <g fill="none" stroke="#000" stroke-linejoin="round">
     <rect transform="scale(-1)" x="-10.071" y="-241.58" width="3.8262" height="3.8163" stroke-linecap="round" stroke-width=".18637"/>
     <g stroke-linecap="square" stroke-width=".37274">
      <line x1="9.061" x2="9.061" y1="241.41" y2="237.92"/>
      <line x1="8.1347" x2="8.1347" y1="241.44" y2="237.96"/>
      <line x1="7.1242" x2="7.1242" y1="241.44" y2="237.96"/>
     </g>
    </g>
   </g>
  </g>
  <g transform="rotate(-90 -26.264 208.7)" display="inline">
   <rect transform="rotate(-90)" x="-249.37" y="104.81" width="8.8261" height="3.2748" display="inline" fill="#404040" stroke="#000" stroke-linecap="round" stroke-linejoin="round" stroke-width=".13969"/>
   <g transform="translate(37.622 3.0636)" display="inline">
    <g transform="matrix(0 .74601 -.72475 0 242.52 234.14)" stroke-width="1.418">
     <rect transform="scale(-1)" x="-10.071" y="-241.58" width="3.8262" height="3.8163" fill="#8c8c8c"/>
     <g fill="none" stroke="#000" stroke-linejoin="round">
      <rect transform="scale(-1)" x="-10.071" y="-241.58" width="3.8262" height="3.8163" stroke-linecap="round" stroke-width=".24651"/>
      <g stroke-linecap="square" stroke-width=".49302">
       <line x1="9.061" x2="9.061" y1="241.41" y2="237.92"/>
       <line x1="8.1347" x2="8.1347" y1="241.44" y2="237.96"/>
       <line x1="7.1242" x2="7.1242" y1="241.44" y2="237.96"/>
      </g>
     </g>
    </g>
   </g>
  </g>
  <g transform="matrix(1 0 0 -1 -.17224 229.37)" display="inline">
   <rect transform="scale(-1)" x="-14.447" y="-202.07" width="8.8603" height="3.3206" display="inline" fill="#404040" stroke="#000" stroke-linecap="round" stroke-linejoin="round" stroke-width=".13969"/>
   <g transform="matrix(0 -.99678 .96589 0 -224.87 269)" display="inline" stroke-width="1.0192">
    <g transform="matrix(0 .74601 -.72475 0 242.52 234.14)">
     <g stroke-width="1.4452">
      <rect transform="scale(-1)" x="-10.071" y="-241.58" width="3.8262" height="3.8163" fill="#8c8c8c"/>
      <rect transform="scale(-1)" x="-10.071" y="-241.58" width="3.8262" height="3.8163" fill="none" stroke="#000" stroke-linecap="round" stroke-linejoin="round" stroke-width=".25123"/>
     </g>
     <g fill="none" stroke="#000" stroke-linecap="square" stroke-linejoin="round" stroke-width=".50246">
      <line x1="9.061" x2="9.061" y1="241.41" y2="237.92"/>
      <line x1="8.1347" x2="8.1347" y1="241.44" y2="237.96"/>
      <line x1="7.1242" x2="7.1242" y1="241.44" y2="237.96"/>
     </g>
    </g>
   </g>
  </g>
  <circle cx="10" cy="14.999" r="2.4821" fill="#f00" stroke-dasharray="1.05833, 0.264583" stroke-miterlimit="1.5" stroke-width=".05"/>
  <g fill="#0f0" stroke-dasharray="1.05833, 0.264583" stroke-miterlimit="1.5" stroke-width=".05">
   <circle cx="5.014" cy="87.455" r="2.4821" display="inline"/>
   <circle cx="5.014" cy="100.41" r="2.4821" display="inline"/>
   <circle cx="5.014" cy="113.41" r="2.4821" display="inline"/>
  </g>
  <g stroke-dasharray="1.05833, 0.264583" stroke-miterlimit="1.5" stroke-width=".05">
   <circle cx="15" cy="113.36" r="2.4821" display="inline" fill="#00f"/>
   <circle cx="14.978" cy="87.455" r="2.4821" display="inline" fill="#0f0"/>
   <circle cx="14.978" cy="100.41" r="2.4821" display="inline" fill="#0f0"/>
  </g>
  <g fill="#f00" stroke-miterlimit="1.5">
   <rect x="3.8" y="41.404" width="2.6003" height="6.6189" stroke-dasharray="1.05833, 0.264583" stroke-width=".05"/>
   <rect x="5.6813" y="74.436" width="3.8489" height="2.561" display="inline" stroke-dasharray="0.800917, 0.20023" stroke-width=".037839"/>
   <rect x="13.557" y="38.104" width="2.0521" height="4.0971" display="inline" stroke-dasharray="0.739694, 0.184924" stroke-width=".034946"/>
   <rect x="5.4978" y="27.414" width="2.0521" height="4.0971" display="inline" stroke-dasharray="0.739694, 0.184924" stroke-width=".034946"/>
  </g>
 </g>
</svg>
