<?xml version="1.0" encoding="UTF-8"?>
<!-- Created with Inkscape (http://www.inkscape.org/) -->
<svg width="270.03" height="380" version="1.1" xmlns="http://www.w3.org/2000/svg" xmlns:cc="http://creativecommons.org/ns#" xmlns:dc="http://purl.org/dc/elements/1.1/" xmlns:rdf="http://www.w3.org/1999/02/22-rdf-syntax-ns#">
 <metadata>
  <rdf:RDF>
   <cc:Work rdf:about="">
    <dc:format>image/svg+xml</dc:format>
    <dc:type rdf:resource="http://purl.org/dc/dcmitype/StillImage"/>
   </cc:Work>
  </rdf:RDF>
 </metadata>
 <g transform="translate(.011755 -74.387)">
  <rect x="-.011755" y="74.387" width="270.03" height="380" fill="#171717" fill-rule="evenodd" style="paint-order:normal"/>
  <g fill="#fff">
   <g transform="matrix(.83463 0 0 .83463 -.001944 75.142)" aria-label="EXP. CV">
    <path d="m45.406 389.37v8.008c0 0.378 0.308 0.672 0.672 0.672h2.8c0.378 0 0.672-0.294 0.672-0.672 0-0.364-0.294-0.672-0.672-0.672h-2.128v-2.8h1.848c0.378 0 0.672-0.294 0.672-0.672 0-0.364-0.294-0.672-0.672-0.672h-1.848v-2.52h2.128c0.378 0 0.672-0.294 0.672-0.672 0-0.364-0.294-0.672-0.672-0.672h-2.8c-0.364 0-0.672 0.308-0.672 0.672z"/>
    <path d="m50.305 398.04c0.336 0.168 0.742 0.028 0.91-0.294l1.498-3.01 1.498 3.01c0.168 0.322 0.574 0.462 0.896 0.294 0.336-0.168 0.476-0.574 0.308-0.896l-1.946-3.906 1.806-3.612c0.168-0.336 0.028-0.742-0.308-0.91-0.322-0.168-0.728-0.028-0.896 0.308l-1.358 2.716-1.358-2.716c-0.168-0.336-0.574-0.476-0.91-0.308-0.322 0.168-0.462 0.574-0.294 0.91l1.806 3.612-1.946 3.906c-0.168 0.322-0.028 0.728 0.294 0.896z"/>
    <path d="m56.333 389.37v8.064c0 0.378 0.294 0.672 0.672 0.672 0.364 0 0.672-0.294 0.672-0.672v-3.248h1.008c1.302 0 2.352-1.05 2.352-2.352v-0.784c0-1.302-1.05-2.352-2.352-2.352h-1.68c-0.378 0-0.672 0.308-0.672 0.672zm3.36 1.68v0.784c0 0.56-0.448 1.008-1.008 1.008h-1.008v-2.8h1.008c0.56 0 1.008 0.448 1.008 1.008z"/>
    <path d="m60.152 397.3c0 0.448 0.364 0.812 0.812 0.812s0.812-0.364 0.812-0.812-0.364-0.812-0.812-0.812-0.812 0.364-0.812 0.812z"/>
    <path d="m67.155 398.03c1.036 0.28 2.114-0.168 2.646-1.092 0.196-0.322 0.084-0.728-0.238-0.924-0.322-0.182-0.728-0.07-0.924 0.252-0.224 0.392-0.686 0.588-1.134 0.476-0.434-0.126-0.742-0.518-0.742-0.98v-4.76c0-0.448 0.308-0.854 0.742-0.966 0.448-0.126 0.91 0.07 1.134 0.462 0.196 0.322 0.602 0.434 0.924 0.252 0.322-0.196 0.434-0.602 0.238-0.924-0.532-0.924-1.61-1.372-2.646-1.092-1.022 0.266-1.736 1.204-1.736 2.268v4.76c0 1.064 0.714 2.002 1.736 2.268z"/>
    <path d="m72.678 397.62c0.084 0.294 0.35 0.49 0.658 0.49 0.294 0 0.56-0.196 0.644-0.49l2.24-8.12c0.098-0.364-0.112-0.728-0.476-0.826-0.35-0.098-0.728 0.112-0.826 0.462 0 0-0.938 3.402-1.582 5.782-0.658-2.38-1.596-5.782-1.596-5.782-0.098-0.35-0.476-0.56-0.826-0.462-0.364 0.098-0.574 0.462-0.476 0.826z"/>
   </g>
   <g transform="matrix(.83463 0 0 .83463 -.001944 75.142)" aria-label="RISE">
    <path d="m23.626 299.6v-0.896c0-1.488-1.2-2.688-2.688-2.688h-1.92c-0.416 0-0.768 0.352-0.768 0.768v9.216c0 0.432 0.352 0.768 0.768 0.768 0.432 0 0.768-0.336 0.768-0.768v-3.712h0.864l1.488 3.984c0.16 0.4 0.592 0.592 0.992 0.448s0.608-0.592 0.448-0.992l-1.392-3.744c0.864-0.448 1.44-1.344 1.44-2.384zm-3.84-2.048h1.152c0.64 0 1.152 0.512 1.152 1.152v0.896c0 0.64-0.512 1.152-1.152 1.152h-1.152z"/>
    <path d="m25.615 306.77c0.432 0 0.768-0.336 0.768-0.768v-9.28c0-0.416-0.336-0.768-0.768-0.768-0.416 0-0.768 0.352-0.768 0.768v9.28c0 0.432 0.352 0.768 0.768 0.768z"/>
    <path d="m30.838 304.97c-0.288 0.224-0.64 0.304-0.992 0.24-0.352-0.08-0.64-0.288-0.816-0.592-0.224-0.368-0.688-0.496-1.056-0.288s-0.496 0.688-0.272 1.056c0.384 0.672 1.056 1.168 1.84 1.328 0.784 0.144 1.584-0.032 2.224-0.512 0.624-0.48 1.024-1.2 1.088-2 0.064-0.784-0.224-1.568-0.784-2.144l-2.544-2.624c-0.24-0.24-0.352-0.56-0.32-0.88 0.016-0.336 0.176-0.64 0.448-0.832 0.272-0.208 0.592-0.288 0.928-0.224 0.32 0.08 0.592 0.272 0.768 0.56 0.208 0.368 0.672 0.496 1.04 0.288 0.368-0.224 0.496-0.688 0.288-1.056-0.384-0.672-1.04-1.136-1.792-1.296-0.752-0.144-1.552 0.032-2.16 0.496s-0.992 1.168-1.056 1.936 0.208 1.536 0.752 2.08l2.56 2.624c0.24 0.256 0.368 0.608 0.336 0.96s-0.192 0.672-0.48 0.88z"/>
    <path d="m34.039 296.78v9.152c0 0.432 0.352 0.768 0.768 0.768h3.2c0.432 0 0.768-0.336 0.768-0.768 0-0.416-0.336-0.768-0.768-0.768h-2.432v-3.2h2.112c0.432 0 0.768-0.336 0.768-0.768 0-0.416-0.336-0.768-0.768-0.768h-2.112v-2.88h2.432c0.432 0 0.768-0.336 0.768-0.768 0-0.416-0.336-0.768-0.768-0.768h-3.2c-0.416 0-0.768 0.352-0.768 0.768z"/>
   </g>
   <g transform="matrix(.83463 0 0 .83463 -.001944 75.142)" aria-label="FALL">
    <path d="m67.803 306.72c0.432 0 0.768-0.336 0.768-0.768v-3.968h2.112c0.432 0 0.768-0.336 0.768-0.768 0-0.416-0.336-0.768-0.768-0.768h-2.112v-2.88h2.432c0.432 0 0.768-0.336 0.768-0.768 0-0.416-0.336-0.768-0.768-0.768h-3.2c-0.416 0-0.768 0.352-0.768 0.768v9.152c0 0.432 0.352 0.768 0.768 0.768z"/>
    <path d="m75.46 296.53c-0.08-0.336-0.384-0.56-0.736-0.56s-0.656 0.224-0.736 0.56l-2.56 9.28c-0.112 0.416 0.128 0.832 0.528 0.944 0.416 0.112 0.832-0.128 0.944-0.528 0 0 0.192-0.688 0.464-1.68h2.72c0.272 0.992 0.464 1.68 0.464 1.68 0.112 0.4 0.528 0.64 0.944 0.528 0.4-0.112 0.64-0.528 0.528-0.944zm-1.664 6.48c0.304-1.104 0.64-2.336 0.928-3.376 0.288 1.04 0.624 2.272 0.928 3.376z"/>
    <path d="m79.714 306.72h3.2c0.416 0 0.768-0.336 0.768-0.768 0-0.416-0.352-0.768-0.768-0.768h-2.432v-8.448c0-0.416-0.352-0.768-0.768-0.768-0.432 0-0.768 0.352-0.768 0.768v9.216c0 0.432 0.336 0.768 0.768 0.768z"/>
    <path d="m85.216 306.72h3.2c0.416 0 0.768-0.336 0.768-0.768 0-0.416-0.352-0.768-0.768-0.768h-2.432v-8.448c0-0.416-0.352-0.768-0.768-0.768-0.432 0-0.768 0.352-0.768 0.768v9.216c0 0.432 0.336 0.768 0.768 0.768z"/>
   </g>
   <g transform="matrix(.83463 0 0 .83463 -.001944 75.142)" aria-label="RISE CV">
    <path d="m13.499 357.59v-0.784c0-1.302-1.05-2.352-2.352-2.352h-1.68c-0.364 0-0.672 0.308-0.672 0.672v8.064c0 0.378 0.308 0.672 0.672 0.672 0.378 0 0.672-0.294 0.672-0.672v-3.248h0.756l1.302 3.486c0.14 0.35 0.518 0.518 0.868 0.392s0.532-0.518 0.392-0.868l-1.218-3.276c0.756-0.392 1.26-1.176 1.26-2.086zm-3.36-1.792h1.008c0.56 0 1.008 0.448 1.008 1.008v0.784c0 0.56-0.448 1.008-1.008 1.008h-1.008z"/>
    <path d="m15.231 363.86c0.378 0 0.672-0.294 0.672-0.672v-8.12c0-0.364-0.294-0.672-0.672-0.672-0.364 0-0.672 0.308-0.672 0.672v8.12c0 0.378 0.308 0.672 0.672 0.672z"/>
    <path d="m19.794 362.29c-0.252 0.196-0.56 0.266-0.868 0.21-0.308-0.07-0.56-0.252-0.714-0.518-0.196-0.322-0.602-0.434-0.924-0.252s-0.434 0.602-0.238 0.924c0.336 0.588 0.924 1.022 1.61 1.162 0.686 0.126 1.386-0.028 1.946-0.448 0.546-0.42 0.896-1.05 0.952-1.75 0.056-0.686-0.196-1.372-0.686-1.876l-2.226-2.296c-0.21-0.21-0.308-0.49-0.28-0.77 0.014-0.294 0.154-0.56 0.392-0.728 0.238-0.182 0.518-0.252 0.812-0.196 0.28 0.07 0.518 0.238 0.672 0.49 0.182 0.322 0.588 0.434 0.91 0.252 0.322-0.196 0.434-0.602 0.252-0.924-0.336-0.588-0.91-0.994-1.568-1.134-0.658-0.126-1.358 0.028-1.89 0.434s-0.868 1.022-0.924 1.694 0.182 1.344 0.658 1.82l2.24 2.296c0.21 0.224 0.322 0.532 0.294 0.84s-0.168 0.588-0.42 0.77z"/>
    <path d="m22.587 355.13v8.008c0 0.378 0.308 0.672 0.672 0.672h2.8c0.378 0 0.672-0.294 0.672-0.672 0-0.364-0.294-0.672-0.672-0.672h-2.128v-2.8h1.848c0.378 0 0.672-0.294 0.672-0.672 0-0.364-0.294-0.672-0.672-0.672h-1.848v-2.52h2.128c0.378 0 0.672-0.294 0.672-0.672 0-0.364-0.294-0.672-0.672-0.672h-2.8c-0.364 0-0.672 0.308-0.672 0.672z"/>
    <path d="m31.856 363.78c1.036 0.28 2.114-0.168 2.646-1.092 0.196-0.322 0.084-0.728-0.238-0.924-0.322-0.182-0.728-0.07-0.924 0.252-0.224 0.392-0.686 0.588-1.134 0.476-0.434-0.126-0.742-0.518-0.742-0.98v-4.76c0-0.448 0.308-0.854 0.742-0.966 0.448-0.126 0.91 0.07 1.134 0.462 0.196 0.322 0.602 0.434 0.924 0.252 0.322-0.196 0.434-0.602 0.238-0.924-0.532-0.924-1.61-1.372-2.646-1.092-1.022 0.266-1.736 1.204-1.736 2.268v4.76c0 1.064 0.714 2.002 1.736 2.268z"/>
    <path d="m37.378 363.37c0.084 0.294 0.35 0.49 0.658 0.49 0.294 0 0.56-0.196 0.644-0.49l2.24-8.12c0.098-0.364-0.112-0.728-0.476-0.826-0.35-0.098-0.728 0.112-0.826 0.462 0 0-0.938 3.402-1.582 5.782-0.658-2.38-1.596-5.782-1.596-5.782-0.098-0.35-0.476-0.56-0.826-0.462-0.364 0.098-0.574 0.462-0.476 0.826z"/>
   </g>
   <g transform="matrix(.83463 0 0 .83463 -.001944 75.142)" aria-label="FALL CV">
    <path d="m80.471 363.81c0.378 0 0.672-0.294 0.672-0.672v-3.472h1.848c0.378 0 0.672-0.294 0.672-0.672 0-0.364-0.294-0.672-0.672-0.672h-1.848v-2.52h2.128c0.378 0 0.672-0.294 0.672-0.672 0-0.364-0.294-0.672-0.672-0.672h-2.8c-0.364 0-0.672 0.308-0.672 0.672v8.008c0 0.378 0.308 0.672 0.672 0.672z"/>
    <path d="m87.164 354.89c-0.07-0.294-0.336-0.49-0.644-0.49s-0.574 0.196-0.644 0.49l-2.24 8.12c-0.098 0.364 0.112 0.728 0.462 0.826 0.364 0.098 0.728-0.112 0.826-0.462 0 0 0.168-0.602 0.406-1.47h2.38c0.238 0.868 0.406 1.47 0.406 1.47 0.098 0.35 0.462 0.56 0.826 0.462 0.35-0.098 0.56-0.462 0.462-0.826zm-1.456 5.67c0.266-0.966 0.56-2.044 0.812-2.954 0.252 0.91 0.546 1.988 0.812 2.954z"/>
    <path d="m90.879 363.81h2.8c0.364 0 0.672-0.294 0.672-0.672 0-0.364-0.308-0.672-0.672-0.672h-2.128v-7.392c0-0.364-0.308-0.672-0.672-0.672-0.378 0-0.672 0.308-0.672 0.672v8.064c0 0.378 0.294 0.672 0.672 0.672z"/>
    <path d="m95.686 363.81h2.8c0.364 0 0.672-0.294 0.672-0.672 0-0.364-0.308-0.672-0.672-0.672h-2.128v-7.392c0-0.364-0.308-0.672-0.672-0.672-0.378 0-0.672 0.308-0.672 0.672v8.064c0 0.378 0.294 0.672 0.672 0.672z"/>
    <path d="m104.01 363.78c1.036 0.28 2.114-0.168 2.646-1.092 0.196-0.322 0.084-0.728-0.238-0.924-0.322-0.182-0.728-0.07-0.924 0.252-0.224 0.392-0.686 0.588-1.134 0.476-0.434-0.126-0.742-0.518-0.742-0.98v-4.76c0-0.448 0.308-0.854 0.742-0.966 0.448-0.126 0.91 0.07 1.134 0.462 0.196 0.322 0.602 0.434 0.924 0.252 0.322-0.196 0.434-0.602 0.238-0.924-0.532-0.924-1.61-1.372-2.646-1.092-1.022 0.266-1.736 1.204-1.736 2.268v4.76c0 1.064 0.714 2.002 1.736 2.268z"/>
    <path d="m109.53 363.37c0.084 0.294 0.35 0.49 0.658 0.49 0.294 0 0.56-0.196 0.644-0.49l2.24-8.12c0.098-0.364-0.112-0.728-0.476-0.826-0.35-0.098-0.728 0.112-0.826 0.462 0 0-0.938 3.402-1.582 5.782-0.658-2.38-1.596-5.782-1.596-5.782-0.098-0.35-0.476-0.56-0.826-0.462-0.364 0.098-0.574 0.462-0.476 0.826z"/>
   </g>
   <g transform="matrix(.83463 0 0 .83463 -.001944 75.142)" aria-label="OUT A">
    <path d="m127.5 277.16c1.302 0 2.352-1.05 2.352-2.352v-4.76c0-1.302-1.05-2.352-2.352-2.352-1.302 0-2.352 1.05-2.352 2.352v4.76c0 1.302 1.05 2.352 2.352 2.352zm0-8.12c0.55999 0 1.008 0.448 1.008 1.008v4.76c0 0.56-0.448 1.008-1.008 1.008-0.56 0-1.008-0.448-1.008-1.008v-4.76c0-0.56 0.448-1.008 1.008-1.008z"/>
    <path d="m132.31 274.81v-6.44c0-0.364-0.308-0.672-0.672-0.672-0.378 0-0.672 0.308-0.672 0.672v6.44c0 1.302 1.05 2.352 2.352 2.352 1.288 0 2.352-1.05 2.352-2.352v-6.44c0-0.364-0.308-0.672-0.672-0.672-0.378 0-0.672 0.308-0.672 0.672v6.44c0 0.56-0.462 1.008-1.008 1.008-0.56 0-1.008-0.448-1.008-1.008z"/>
    <path d="m137.06 267.75c-0.364 0-0.672 0.308-0.672 0.672 0 0.378 0.308 0.672 0.672 0.672h1.148v7.392c0 0.378 0.308 0.672 0.672 0.672 0.378 0 0.672-0.294 0.672-0.672v-7.392h1.148c0.378 0 0.672-0.294 0.672-0.672 0-0.364-0.294-0.672-0.672-0.672z"/>
    <path d="m147.78 268.19c-0.07-0.294-0.336-0.49-0.64399-0.49-0.308 0-0.574 0.196-0.644 0.49l-2.24 8.12c-0.098 0.364 0.112 0.728 0.462 0.826 0.364 0.098 0.728-0.112 0.826-0.462 0 0 0.168-0.602 0.406-1.47h2.38c0.238 0.868 0.406 1.47 0.406 1.47 0.098 0.35 0.462 0.56 0.826 0.462 0.35-0.098 0.56-0.462 0.462-0.826zm-1.456 5.67c0.266-0.966 0.56-2.044 0.812-2.954 0.25199 0.91 0.54599 1.988 0.81199 2.954z"/>
   </g>
   <g transform="matrix(.83463 0 0 .83463 -.001944 75.142)" aria-label="OUT B">
    <path d="m176.1 277.16c1.302 0 2.352-1.05 2.352-2.352v-4.76c0-1.302-1.05-2.352-2.352-2.352s-2.352 1.05-2.352 2.352v4.76c0 1.302 1.05 2.352 2.352 2.352zm0-8.12c0.56 0 1.008 0.448 1.008 1.008v4.76c0 0.56-0.448 1.008-1.008 1.008s-1.008-0.448-1.008-1.008v-4.76c0-0.56 0.448-1.008 1.008-1.008z"/>
    <path d="m180.92 274.81v-6.44c0-0.364-0.308-0.672-0.672-0.672-0.378 0-0.672 0.308-0.672 0.672v6.44c0 1.302 1.05 2.352 2.352 2.352 1.288 0 2.352-1.05 2.352-2.352v-6.44c0-0.364-0.308-0.672-0.672-0.672-0.378 0-0.672 0.308-0.672 0.672v6.44c0 0.56-0.462 1.008-1.008 1.008-0.56 0-1.008-0.448-1.008-1.008z"/>
    <path d="m185.67 267.75c-0.364 0-0.672 0.308-0.672 0.672 0 0.378 0.308 0.672 0.672 0.672h1.148v7.392c0 0.378 0.308 0.672 0.672 0.672 0.378 0 0.672-0.294 0.672-0.672v-7.392h1.148c0.378 0 0.672-0.294 0.672-0.672 0-0.364-0.294-0.672-0.672-0.672z"/>
    <path d="m198.15 270.61v-0.504c0-1.302-1.064-2.352-2.352-2.352h-1.68c-0.378 0-0.672 0.308-0.672 0.672v8.008c0 0.378 0.294 0.672 0.672 0.672h1.68c1.288 0 2.352-1.05 2.352-2.352v-0.784c0-0.658-0.28-1.246-0.714-1.68 0.434-0.42 0.714-1.022 0.714-1.68zm-1.344 3.36v0.784c0 0.56-0.448 1.008-1.008 1.008h-1.008v-2.8h1.008c0.56 0 1.008 0.448 1.008 1.008zm-2.016-2.352v-2.52h1.008c0.56 0 1.008 0.448 1.008 1.008v0.504c0 0.56-0.448 1.008-1.008 1.008z"/>
   </g>
   <g transform="matrix(.83463 0 0 .83463 -.001944 75.142)" aria-label="TRIGG">
    <path d="m73.894 82.493c-0.364 0-0.672 0.308-0.672 0.672 0 0.378 0.308 0.672 0.672 0.672h1.148v7.392c0 0.378 0.308 0.672 0.672 0.672 0.378 0 0.672-0.294 0.672-0.672v-7.392h1.148c0.378 0 0.672-0.294 0.672-0.672 0-0.364-0.294-0.672-0.672-0.672z"/>
    <path d="m83.498 85.629v-0.784c0-1.302-1.05-2.352-2.352-2.352h-1.68c-0.364 0-0.672 0.308-0.672 0.672v8.064c0 0.378 0.308 0.672 0.672 0.672 0.378 0 0.672-0.294 0.672-0.672v-3.248h0.756l1.302 3.486c0.14 0.35 0.518 0.518 0.868 0.392s0.532-0.518 0.392-0.868l-1.218-3.276c0.756-0.392 1.26-1.176 1.26-2.086zm-3.36-1.792h1.008c0.56 0 1.008 0.448 1.008 1.008v0.784c0 0.56-0.448 1.008-1.008 1.008h-1.008z"/>
    <path d="m84.971 91.901c0.378 0 0.672-0.294 0.672-0.672v-8.12c0-0.364-0.294-0.672-0.672-0.672-0.364 0-0.672 0.308-0.672 0.672v8.12c0 0.378 0.308 0.672 0.672 0.672z"/>
    <path d="m90.632 86.637h-1.4c-0.364 0-0.672 0.308-0.672 0.672 0 0.378 0.308 0.672 0.672 0.672h0.728v1.568c0 0.56-0.448 1.008-1.008 1.008-0.546 0-1.008-0.448-1.008-1.008v-4.76c0-0.448 0.308-0.854 0.756-0.966 0.434-0.126 0.896 0.07 1.134 0.462 0.182 0.322 0.588 0.434 0.91 0.252 0.322-0.196 0.434-0.602 0.252-0.924-0.532-0.924-1.624-1.372-2.646-1.092-1.036 0.266-1.75 1.204-1.75 2.268v4.76c0 1.302 1.064 2.352 2.352 2.352 1.302 0 2.352-1.05 2.352-2.352v-2.24c0-0.364-0.294-0.672-0.672-0.672z"/>
    <path d="m96.081 86.637h-1.4c-0.364 0-0.672 0.308-0.672 0.672 0 0.378 0.308 0.672 0.672 0.672h0.728v1.568c0 0.56-0.448 1.008-1.008 1.008-0.546 0-1.008-0.448-1.008-1.008v-4.76c0-0.448 0.308-0.854 0.756-0.966 0.434-0.126 0.896 0.07 1.134 0.462 0.182 0.322 0.588 0.434 0.91 0.252 0.322-0.196 0.434-0.602 0.252-0.924-0.532-0.924-1.624-1.372-2.646-1.092-1.036 0.266-1.75 1.204-1.75 2.268v4.76c0 1.302 1.064 2.352 2.352 2.352 1.302 0 2.352-1.05 2.352-2.352v-2.24c0-0.364-0.294-0.672-0.672-0.672z"/>
   </g>
   <g transform="matrix(.83463 0 0 .83463 -.001944 75.142)" aria-label="IN A">
    <path d="m24.928 79.618c0.378 0 0.672-0.294 0.672-0.672v-8.12c0-0.364-0.294-0.672-0.672-0.672-0.364 0-0.672 0.308-0.672 0.672v8.12c0 0.378 0.308 0.672 0.672 0.672z"/>
    <path d="m31.471 79.604c0.294-0.07 0.518-0.35 0.518-0.658v-8.12c0-0.364-0.308-0.672-0.672-0.672-0.378 0-0.672 0.308-0.672 0.672v5.18c-1.162-2.408-2.646-5.474-2.646-5.474-0.14-0.28-0.448-0.434-0.756-0.364s-0.518 0.35-0.518 0.658v8.12c0 0.378 0.294 0.672 0.672 0.672 0.364 0 0.672-0.294 0.672-0.672v-5.18c1.162 2.408 2.646 5.474 2.646 5.474 0.126 0.28 0.448 0.434 0.756 0.364z"/>
    <path d="m38.431 70.644c-0.07-0.294-0.336-0.49-0.644-0.49s-0.574 0.196-0.644 0.49l-2.24 8.12c-0.098 0.364 0.112 0.728 0.462 0.826 0.364 0.098 0.728-0.112 0.826-0.462 0 0 0.168-0.602 0.406-1.47h2.38c0.238 0.868 0.406 1.47 0.406 1.47 0.098 0.35 0.462 0.56 0.826 0.462 0.35-0.098 0.56-0.462 0.462-0.826zm-1.456 5.67c0.266-0.966 0.56-2.044 0.812-2.954 0.252 0.91 0.546 1.988 0.812 2.954z"/>
   </g>
   <g transform="matrix(.83463 0 0 .83463 -.001944 75.142)" aria-label="RISE">
    <path d="m240.81 299.6v-0.896c0-1.488-1.2-2.688-2.688-2.688h-1.92c-0.416 0-0.768 0.352-0.768 0.768v9.216c0 0.432 0.352 0.768 0.768 0.768 0.432 0 0.768-0.336 0.768-0.768v-3.712h0.864l1.488 3.984c0.16 0.4 0.592 0.592 0.992 0.448s0.608-0.592 0.448-0.992l-1.392-3.744c0.864-0.448 1.44-1.344 1.44-2.384zm-3.84-2.048h1.152c0.64 0 1.152 0.512 1.152 1.152v0.896c0 0.64-0.512 1.152-1.152 1.152h-1.152z"/>
    <path d="m242.8 306.77c0.432 0 0.768-0.336 0.768-0.768v-9.28c0-0.416-0.336-0.768-0.768-0.768-0.416 0-0.768 0.352-0.768 0.768v9.28c0 0.432 0.352 0.768 0.768 0.768z"/>
    <path d="m248.02 304.97c-0.288 0.224-0.64 0.304-0.992 0.24-0.352-0.08-0.64-0.288-0.816-0.592-0.224-0.368-0.688-0.496-1.056-0.288s-0.496 0.688-0.272 1.056c0.384 0.672 1.056 1.168 1.84 1.328 0.784 0.144 1.584-0.032 2.224-0.512 0.624-0.48 1.024-1.2 1.088-2 0.064-0.784-0.224-1.568-0.784-2.144l-2.544-2.624c-0.24-0.24-0.352-0.56-0.32-0.88 0.016-0.336 0.176-0.64 0.448-0.832 0.272-0.208 0.592-0.288 0.928-0.224 0.32 0.08 0.592 0.272 0.768 0.56 0.208 0.368 0.672 0.496 1.04 0.288 0.368-0.224 0.496-0.688 0.288-1.056-0.384-0.672-1.04-1.136-1.792-1.296-0.752-0.144-1.552 0.032-2.16 0.496s-0.992 1.168-1.056 1.936 0.208 1.536 0.752 2.08l2.56 2.624c0.24 0.256 0.368 0.608 0.336 0.96s-0.192 0.672-0.48 0.88z"/>
    <path d="m251.22 296.78v9.152c0 0.432 0.352 0.768 0.768 0.768h3.2c0.432 0 0.768-0.336 0.768-0.768 0-0.416-0.336-0.768-0.768-0.768h-2.432v-3.2h2.112c0.432 0 0.768-0.336 0.768-0.768 0-0.416-0.336-0.768-0.768-0.768h-2.112v-2.88h2.432c0.432 0 0.768-0.336 0.768-0.768 0-0.416-0.336-0.768-0.768-0.768h-3.2c-0.416 0-0.768 0.352-0.768 0.768z"/>
   </g>
   <g transform="matrix(.83463 0 0 .83463 -.001944 75.142)" aria-label="FALL">
    <path d="m284.85 306.72c0.432 0 0.768-0.336 0.768-0.768v-3.968h2.112c0.432 0 0.768-0.336 0.768-0.768 0-0.416-0.336-0.768-0.768-0.768h-2.112v-2.88h2.432c0.432 0 0.768-0.336 0.768-0.768 0-0.416-0.336-0.768-0.768-0.768h-3.2c-0.416 0-0.768 0.352-0.768 0.768v9.152c0 0.432 0.352 0.768 0.768 0.768z"/>
    <path d="m292.5 296.53c-0.08-0.336-0.384-0.56-0.736-0.56s-0.656 0.224-0.736 0.56l-2.56 9.28c-0.112 0.416 0.128 0.832 0.528 0.944 0.416 0.112 0.832-0.128 0.944-0.528 0 0 0.192-0.688 0.464-1.68h2.72c0.272 0.992 0.464 1.68 0.464 1.68 0.112 0.4 0.528 0.64 0.944 0.528 0.4-0.112 0.64-0.528 0.528-0.944zm-1.664 6.48c0.304-1.104 0.64-2.336 0.928-3.376 0.288 1.04 0.624 2.272 0.928 3.376z"/>
    <path d="m296.76 306.72h3.2c0.416 0 0.768-0.336 0.768-0.768 0-0.416-0.352-0.768-0.768-0.768h-2.432v-8.448c0-0.416-0.352-0.768-0.768-0.768-0.432 0-0.768 0.352-0.768 0.768v9.216c0 0.432 0.336 0.768 0.768 0.768z"/>
    <path d="m302.26 306.72h3.2c0.416 0 0.768-0.336 0.768-0.768 0-0.416-0.352-0.768-0.768-0.768h-2.432v-8.448c0-0.416-0.352-0.768-0.768-0.768-0.432 0-0.768 0.352-0.768 0.768v9.216c0 0.432 0.336 0.768 0.768 0.768z"/>
   </g>
   <g transform="matrix(.83463 0 0 .83463 -.001944 75.142)" aria-label="RISE CV">
    <path d="m215.76 357.59v-0.784c0-1.302-1.05-2.352-2.352-2.352h-1.68c-0.364 0-0.672 0.308-0.672 0.672v8.064c0 0.378 0.308 0.672 0.672 0.672 0.378 0 0.672-0.294 0.672-0.672v-3.248h0.756l1.302 3.486c0.14 0.35 0.518 0.518 0.868 0.392s0.532-0.518 0.392-0.868l-1.218-3.276c0.756-0.392 1.26-1.176 1.26-2.086zm-3.36-1.792h1.008c0.56 0 1.008 0.448 1.008 1.008v0.784c0 0.56-0.448 1.008-1.008 1.008h-1.008z"/>
    <path d="m217.5 363.86c0.378 0 0.672-0.294 0.672-0.672v-8.12c0-0.364-0.294-0.672-0.672-0.672-0.364 0-0.672 0.308-0.672 0.672v8.12c0 0.378 0.308 0.672 0.672 0.672z"/>
    <path d="m222.06 362.29c-0.252 0.196-0.56 0.266-0.868 0.21-0.308-0.07-0.56-0.252-0.714-0.518-0.196-0.322-0.602-0.434-0.924-0.252s-0.434 0.602-0.238 0.924c0.336 0.588 0.924 1.022 1.61 1.162 0.686 0.126 1.386-0.028 1.946-0.448 0.546-0.42 0.896-1.05 0.952-1.75 0.056-0.686-0.196-1.372-0.686-1.876l-2.226-2.296c-0.21-0.21-0.308-0.49-0.28-0.77 0.014-0.294 0.154-0.56 0.392-0.728 0.238-0.182 0.518-0.252 0.812-0.196 0.28 0.07 0.518 0.238 0.672 0.49 0.182 0.322 0.588 0.434 0.91 0.252 0.322-0.196 0.434-0.602 0.252-0.924-0.336-0.588-0.91-0.994-1.568-1.134-0.658-0.126-1.358 0.028-1.89 0.434s-0.868 1.022-0.924 1.694 0.182 1.344 0.658 1.82l2.24 2.296c0.21 0.224 0.322 0.532 0.294 0.84s-0.168 0.588-0.42 0.77z"/>
    <path d="m224.85 355.13v8.008c0 0.378 0.308 0.672 0.672 0.672h2.8c0.378 0 0.672-0.294 0.672-0.672 0-0.364-0.294-0.672-0.672-0.672h-2.128v-2.8h1.848c0.378 0 0.672-0.294 0.672-0.672 0-0.364-0.294-0.672-0.672-0.672h-1.848v-2.52h2.128c0.378 0 0.672-0.294 0.672-0.672 0-0.364-0.294-0.672-0.672-0.672h-2.8c-0.364 0-0.672 0.308-0.672 0.672z"/>
    <path d="m234.12 363.78c1.036 0.28 2.114-0.168 2.646-1.092 0.196-0.322 0.084-0.728-0.238-0.924-0.322-0.182-0.728-0.07-0.924 0.252-0.224 0.392-0.686 0.588-1.134 0.476-0.434-0.126-0.742-0.518-0.742-0.98v-4.76c0-0.448 0.308-0.854 0.742-0.966 0.448-0.126 0.91 0.07 1.134 0.462 0.196 0.322 0.602 0.434 0.924 0.252 0.322-0.196 0.434-0.602 0.238-0.924-0.532-0.924-1.61-1.372-2.646-1.092-1.022 0.266-1.736 1.204-1.736 2.268v4.76c0 1.064 0.714 2.002 1.736 2.268z"/>
    <path d="m239.64 363.37c0.084 0.294 0.35 0.49 0.658 0.49 0.294 0 0.56-0.196 0.644-0.49l2.24-8.12c0.098-0.364-0.112-0.728-0.476-0.826-0.35-0.098-0.728 0.112-0.826 0.462 0 0-0.938 3.402-1.582 5.782-0.658-2.38-1.596-5.782-1.596-5.782-0.098-0.35-0.476-0.56-0.826-0.462-0.364 0.098-0.574 0.462-0.476 0.826z"/>
   </g>
   <g transform="matrix(.83463 0 0 .83463 -.001944 75.142)" aria-label="FALL CV">
    <path d="m282.74 363.81c0.378 0 0.672-0.294 0.672-0.672v-3.472h1.848c0.378 0 0.672-0.294 0.672-0.672 0-0.364-0.294-0.672-0.672-0.672h-1.848v-2.52h2.128c0.378 0 0.672-0.294 0.672-0.672 0-0.364-0.294-0.672-0.672-0.672h-2.8c-0.364 0-0.672 0.308-0.672 0.672v8.008c0 0.378 0.308 0.672 0.672 0.672z"/>
    <path d="m289.43 354.89c-0.07-0.294-0.336-0.49-0.644-0.49s-0.574 0.196-0.644 0.49l-2.24 8.12c-0.098 0.364 0.112 0.728 0.462 0.826 0.364 0.098 0.728-0.112 0.826-0.462 0 0 0.168-0.602 0.406-1.47h2.38c0.238 0.868 0.406 1.47 0.406 1.47 0.098 0.35 0.462 0.56 0.826 0.462 0.35-0.098 0.56-0.462 0.462-0.826zm-1.456 5.67c0.266-0.966 0.56-2.044 0.812-2.954 0.252 0.91 0.546 1.988 0.812 2.954z"/>
    <path d="m293.14 363.81h2.8c0.364 0 0.672-0.294 0.672-0.672 0-0.364-0.308-0.672-0.672-0.672h-2.128v-7.392c0-0.364-0.308-0.672-0.672-0.672-0.378 0-0.672 0.308-0.672 0.672v8.064c0 0.378 0.294 0.672 0.672 0.672z"/>
    <path d="m297.95 363.81h2.8c0.364 0 0.672-0.294 0.672-0.672 0-0.364-0.308-0.672-0.672-0.672h-2.128v-7.392c0-0.364-0.308-0.672-0.672-0.672-0.378 0-0.672 0.308-0.672 0.672v8.064c0 0.378 0.294 0.672 0.672 0.672z"/>
    <path d="m306.27 363.78c1.036 0.28 2.114-0.168 2.646-1.092 0.196-0.322 0.084-0.728-0.238-0.924-0.322-0.182-0.728-0.07-0.924 0.252-0.224 0.392-0.686 0.588-1.134 0.476-0.434-0.126-0.742-0.518-0.742-0.98v-4.76c0-0.448 0.308-0.854 0.742-0.966 0.448-0.126 0.91 0.07 1.134 0.462 0.196 0.322 0.602 0.434 0.924 0.252 0.322-0.196 0.434-0.602 0.238-0.924-0.532-0.924-1.61-1.372-2.646-1.092-1.022 0.266-1.736 1.204-1.736 2.268v4.76c0 1.064 0.714 2.002 1.736 2.268z"/>
    <path d="m311.8 363.37c0.084 0.294 0.35 0.49 0.658 0.49 0.294 0 0.56-0.196 0.644-0.49l2.24-8.12c0.098-0.364-0.112-0.728-0.476-0.826-0.35-0.098-0.728 0.112-0.826 0.462 0 0-0.938 3.402-1.582 5.782-0.658-2.38-1.596-5.782-1.596-5.782-0.098-0.35-0.476-0.56-0.826-0.462-0.364 0.098-0.574 0.462-0.476 0.826z"/>
   </g>
   <g transform="matrix(.83463 0 0 .83463 -.001944 75.142)" aria-label="IN B">
    <path d="m282.66 79.618c0.378 0 0.672-0.294 0.672-0.672v-8.12c0-0.364-0.294-0.672-0.672-0.672-0.364 0-0.672 0.308-0.672 0.672v8.12c0 0.378 0.308 0.672 0.672 0.672z"/>
    <path d="m289.2 79.604c0.294-0.07 0.518-0.35 0.518-0.658v-8.12c0-0.364-0.308-0.672-0.672-0.672-0.378 0-0.672 0.308-0.672 0.672v5.18c-1.162-2.408-2.646-5.474-2.646-5.474-0.14-0.28-0.448-0.434-0.756-0.364s-0.518 0.35-0.518 0.658v8.12c0 0.378 0.294 0.672 0.672 0.672 0.364 0 0.672-0.294 0.672-0.672v-5.18c1.162 2.408 2.646 5.474 2.646 5.474 0.126 0.28 0.448 0.434 0.756 0.364z"/>
    <path d="m297.93 73.066v-0.504c0-1.302-1.064-2.352-2.352-2.352h-1.68c-0.378 0-0.672 0.308-0.672 0.672v8.008c0 0.378 0.294 0.672 0.672 0.672h1.68c1.288 0 2.352-1.05 2.352-2.352v-0.784c0-0.658-0.28-1.246-0.714-1.68 0.434-0.42 0.714-1.022 0.714-1.68zm-1.344 3.36v0.784c0 0.56-0.448 1.008-1.008 1.008h-1.008v-2.8h1.008c0.56 0 1.008 0.448 1.008 1.008zm-2.016-2.352v-2.52h1.008c0.56 0 1.008 0.448 1.008 1.008v0.504c0 0.56-0.448 1.008-1.008 1.008z"/>
   </g>
   <g transform="matrix(.83463 0 0 .83463 -.001944 75.142)" aria-label="CYCLE">
    <path d="m150.77 348.04c1.036 0.28 2.114-0.168 2.646-1.092 0.196-0.322 0.084-0.728-0.238-0.924-0.322-0.182-0.728-0.07-0.924 0.252-0.224 0.392-0.686 0.588-1.134 0.476-0.434-0.126-0.742-0.518-0.742-0.98v-4.76c0-0.448 0.308-0.854 0.742-0.966 0.448-0.126 0.91 0.07 1.134 0.462 0.196 0.322 0.602 0.434 0.924 0.252 0.322-0.196 0.434-0.602 0.238-0.924-0.532-0.924-1.61-1.372-2.646-1.092-1.022 0.266-1.736 1.204-1.736 2.268v4.76c0 1.064 0.714 2.002 1.736 2.268z"/>
    <path d="m156.62 348.12c0.364 0 0.672-0.294 0.672-0.672v-4.046l1.89-3.766c0.168-0.336 0.028-0.742-0.308-0.91-0.322-0.168-0.728-0.028-0.896 0.308 0 0-0.784 1.554-1.358 2.716-0.574-1.162-1.358-2.716-1.358-2.716-0.168-0.336-0.574-0.476-0.896-0.308-0.336 0.168-0.476 0.574-0.308 0.91l1.89 3.766v4.046c0 0.378 0.294 0.672 0.672 0.672z"/>
    <path d="m161.67 348.04c1.036 0.28 2.114-0.168 2.646-1.092 0.196-0.322 0.084-0.728-0.238-0.924-0.322-0.182-0.728-0.07-0.924 0.252-0.224 0.392-0.686 0.588-1.134 0.476-0.434-0.126-0.742-0.518-0.742-0.98v-4.76c0-0.448 0.308-0.854 0.742-0.966 0.448-0.126 0.91 0.07 1.134 0.462 0.196 0.322 0.602 0.434 0.924 0.252 0.322-0.196 0.434-0.602 0.238-0.924-0.532-0.924-1.61-1.372-2.646-1.092-1.022 0.266-1.736 1.204-1.736 2.268v4.76c0 1.064 0.714 2.002 1.736 2.268z"/>
    <path d="m166.1 348.07h2.8c0.364 0 0.672-0.294 0.672-0.672 0-0.364-0.308-0.672-0.672-0.672h-2.128v-7.392c0-0.364-0.308-0.672-0.672-0.672-0.378 0-0.672 0.308-0.672 0.672v8.064c0 0.378 0.294 0.672 0.672 0.672z"/>
    <path d="m170.24 339.39v8.008c0 0.378 0.308 0.672 0.672 0.672h2.8c0.378 0 0.672-0.294 0.672-0.672 0-0.364-0.294-0.672-0.672-0.672h-2.128v-2.8h1.848c0.378 0 0.672-0.294 0.672-0.672 0-0.364-0.294-0.672-0.672-0.672h-1.848v-2.52h2.128c0.378 0 0.672-0.294 0.672-0.672 0-0.364-0.294-0.672-0.672-0.672h-2.8c-0.364 0-0.672 0.308-0.672 0.672z"/>
   </g>
   <g transform="matrix(.83463 0 0 .83463 -.001944 75.142)" aria-label="BALANCE ">
    <path d="m147.06 138.56v-0.504c0-1.302-1.064-2.352-2.352-2.352h-1.68c-0.378 0-0.672 0.308-0.672 0.672v8.008c0 0.378 0.294 0.672 0.672 0.672h1.68c1.288 0 2.352-1.05 2.352-2.352v-0.784c0-0.658-0.28-1.246-0.714-1.68 0.434-0.42 0.714-1.022 0.714-1.68zm-1.344 3.36v0.784c0 0.56-0.448 1.008-1.008 1.008h-1.008v-2.8h1.008c0.56 0 1.008 0.448 1.008 1.008zm-2.016-2.352v-2.52h1.008c0.56 0 1.008 0.448 1.008 1.008v0.504c0 0.56-0.448 1.008-1.008 1.008z"/>
    <path d="m151.09 136.13c-0.07-0.294-0.336-0.49-0.644-0.49s-0.574 0.196-0.644 0.49l-2.24 8.12c-0.098 0.364 0.112 0.728 0.462 0.826 0.364 0.098 0.728-0.112 0.826-0.462 0 0 0.168-0.602 0.406-1.47h2.38c0.238 0.868 0.406 1.47 0.406 1.47 0.098 0.35 0.462 0.56 0.826 0.462 0.35-0.098 0.56-0.462 0.462-0.826zm-1.456 5.67c0.266-0.966 0.56-2.044 0.812-2.954 0.252 0.91 0.546 1.988 0.812 2.954z"/>
    <path d="m154.8 145.05h2.8c0.364 0 0.672-0.294 0.672-0.672 0-0.364-0.308-0.672-0.672-0.672h-2.128v-7.392c0-0.364-0.308-0.672-0.672-0.672-0.378 0-0.672 0.308-0.672 0.672v8.064c0 0.378 0.294 0.672 0.672 0.672z"/>
    <path d="m161.88 136.13c-0.07-0.294-0.336-0.49-0.644-0.49s-0.574 0.196-0.644 0.49l-2.24 8.12c-0.098 0.364 0.112 0.728 0.462 0.826 0.364 0.098 0.728-0.112 0.826-0.462 0 0 0.168-0.602 0.406-1.47h2.38c0.238 0.868 0.406 1.47 0.406 1.47 0.098 0.35 0.462 0.56 0.826 0.462 0.35-0.098 0.56-0.462 0.462-0.826zm-1.456 5.67c0.266-0.966 0.56-2.044 0.812-2.954 0.252 0.91 0.546 1.988 0.812 2.954z"/>
    <path d="m169.67 145.09c0.294-0.07 0.518-0.35 0.518-0.658v-8.12c0-0.364-0.308-0.672-0.672-0.672-0.378 0-0.672 0.308-0.672 0.672v5.18c-1.162-2.408-2.646-5.474-2.646-5.474-0.14-0.28-0.448-0.434-0.756-0.364s-0.518 0.35-0.518 0.658v8.12c0 0.378 0.294 0.672 0.672 0.672 0.364 0 0.672-0.294 0.672-0.672v-5.18c1.162 2.408 2.646 5.474 2.646 5.474 0.126 0.28 0.448 0.434 0.756 0.364z"/>
    <path d="m173.16 145.02c1.036 0.28 2.114-0.168 2.646-1.092 0.196-0.322 0.084-0.728-0.238-0.924-0.322-0.182-0.728-0.07-0.924 0.252-0.224 0.392-0.686 0.588-1.134 0.476-0.434-0.126-0.742-0.518-0.742-0.98v-4.76c0-0.448 0.308-0.854 0.742-0.966 0.448-0.126 0.91 0.07 1.134 0.462 0.196 0.322 0.602 0.434 0.924 0.252 0.322-0.196 0.434-0.602 0.238-0.924-0.532-0.924-1.61-1.372-2.646-1.092-1.022 0.266-1.736 1.204-1.736 2.268v4.76c0 1.064 0.714 2.002 1.736 2.268z"/>
    <path d="m176.92 136.37v8.008c0 0.378 0.308 0.672 0.672 0.672h2.8c0.378 0 0.672-0.294 0.672-0.672 0-0.364-0.294-0.672-0.672-0.672h-2.128v-2.8h1.848c0.378 0 0.672-0.294 0.672-0.672 0-0.364-0.294-0.672-0.672-0.672h-1.848v-2.52h2.128c0.378 0 0.672-0.294 0.672-0.672 0-0.364-0.294-0.672-0.672-0.672h-2.8c-0.364 0-0.672 0.308-0.672 0.672z"/>
   </g>
   <g transform="matrix(.83463 0 0 .83463 -.001944 75.142)" aria-label="RANGE">
    <path d="m152.28 74.27v-0.784c0-1.302-1.05-2.352-2.352-2.352h-1.68c-0.364 0-0.672 0.308-0.672 0.672v8.064c0 0.378 0.308 0.672 0.672 0.672 0.378 0 0.672-0.294 0.672-0.672v-3.248h0.756l1.302 3.486c0.14 0.35 0.518 0.518 0.868 0.392s0.532-0.518 0.392-0.868l-1.218-3.276c0.756-0.392 1.26-1.176 1.26-2.086zm-3.36-1.792h1.008c0.56 0 1.008 0.448 1.008 1.008v0.784c0 0.56-0.448 1.008-1.008 1.008h-1.008z"/>
    <path d="m156.28 71.568c-0.07-0.294-0.336-0.49-0.644-0.49s-0.574 0.196-0.644 0.49l-2.24 8.12c-0.098 0.364 0.112 0.728 0.462 0.826 0.364 0.098 0.728-0.112 0.826-0.462 0 0 0.168-0.602 0.406-1.47h2.38c0.238 0.868 0.406 1.47 0.406 1.47 0.098 0.35 0.462 0.56 0.826 0.462 0.35-0.098 0.56-0.462 0.462-0.826zm-1.456 5.67c0.266-0.966 0.56-2.044 0.812-2.954 0.252 0.91 0.546 1.988 0.812 2.954z"/>
    <path d="m164.07 80.528c0.294-0.07 0.518-0.35 0.518-0.658v-8.12c0-0.364-0.308-0.672-0.672-0.672-0.378 0-0.672 0.308-0.672 0.672v5.18c-1.162-2.408-2.646-5.474-2.646-5.474-0.14-0.28-0.448-0.434-0.756-0.364s-0.518 0.35-0.518 0.658v8.12c0 0.378 0.294 0.672 0.672 0.672 0.364 0 0.672-0.294 0.672-0.672v-5.18c1.162 2.408 2.646 5.474 2.646 5.474 0.126 0.28 0.448 0.434 0.756 0.364z"/>
    <path d="m169.85 75.278h-1.4c-0.364 0-0.672 0.308-0.672 0.672 0 0.378 0.308 0.672 0.672 0.672h0.728v1.568c0 0.56-0.448 1.008-1.008 1.008-0.546 0-1.008-0.448-1.008-1.008v-4.76c0-0.448 0.308-0.854 0.756-0.966 0.434-0.126 0.896 0.07 1.134 0.462 0.182 0.322 0.588 0.434 0.91 0.252 0.322-0.196 0.434-0.602 0.252-0.924-0.532-0.924-1.624-1.372-2.646-1.092-1.036 0.266-1.75 1.204-1.75 2.268v4.76c0 1.302 1.064 2.352 2.352 2.352 1.302 0 2.352-1.05 2.352-2.352v-2.24c0-0.364-0.294-0.672-0.672-0.672z"/>
    <path d="m171.7 71.806v8.008c0 0.378 0.308 0.672 0.672 0.672h2.8c0.378 0 0.672-0.294 0.672-0.672 0-0.364-0.294-0.672-0.672-0.672h-2.128v-2.8h1.848c0.378 0 0.672-0.294 0.672-0.672 0-0.364-0.294-0.672-0.672-0.672h-1.848v-2.52h2.128c0.378 0 0.672-0.294 0.672-0.672 0-0.364-0.294-0.672-0.672-0.672h-2.8c-0.364 0-0.672 0.308-0.672 0.672z"/>
   </g>
   <g transform="matrix(.83463 0 0 .83463 -.001944 75.142)" aria-label="B&gt;A">
    <path d="m186.73 172.15v-0.504c0-1.302-1.064-2.352-2.352-2.352h-1.68c-0.378 0-0.672 0.308-0.672 0.672v8.008c0 0.378 0.294 0.672 0.672 0.672h1.68c1.288 0 2.352-1.05 2.352-2.352v-0.784c0-0.658-0.28-1.246-0.714-1.68 0.434-0.42 0.714-1.022 0.714-1.68zm-1.344 3.36v0.784c0 0.56-0.448 1.008-1.008 1.008h-1.008v-2.8h1.008c0.56 0 1.008 0.448 1.008 1.008zm-2.016-2.352v-2.52h1.008c0.56 0 1.008 0.448 1.008 1.008v0.504c0 0.56-0.448 1.008-1.008 1.008z"/>
    <path d="m187.9 177.19c0 0.154 0.056 0.308 0.154 0.434 0.238 0.28 0.658 0.322 0.952 0.084l3.36-2.8c0.154-0.126 0.238-0.322 0.238-0.518s-0.084-0.392-0.238-0.518l-3.36-2.8c-0.294-0.238-0.714-0.196-0.952 0.084-0.098 0.126-0.154 0.28-0.154 0.434 0 0.196 0.084 0.378 0.238 0.518 0 0 1.918 1.596 2.744 2.282-0.826 0.686-2.744 2.282-2.744 2.282-0.154 0.14-0.238 0.322-0.238 0.518z"/>
    <path d="m196.66 169.72c-0.07-0.294-0.336-0.49-0.644-0.49s-0.574 0.196-0.644 0.49l-2.24 8.12c-0.098 0.364 0.112 0.728 0.462 0.826 0.364 0.098 0.728-0.112 0.826-0.462 0 0 0.168-0.602 0.406-1.47h2.38c0.238 0.868 0.406 1.47 0.406 1.47 0.098 0.35 0.462 0.56 0.826 0.462 0.35-0.098 0.56-0.462 0.462-0.826zm-1.456 5.67c0.266-0.966 0.56-2.044 0.812-2.954 0.252 0.91 0.546 1.988 0.812 2.954z"/>
   </g>
  </g>
  <g transform="matrix(.65881 0 0 .78357 -285.36 -195.49)" fill="none" stroke="#fff">
   <path d="m629.08 688.33 5.048-5.73 4.8114 5.5478 4.9766-5.515 5.007 5.6973" stroke-linecap="square" stroke-width="1.6464"/>
   <path d="m627.33 688.23h23.375" stroke-linecap="round" stroke-width="1.453"/>
  </g>
  <g transform="matrix(.65881 0 0 .78357 -285.36 -197.73)" fill="none" stroke="#fff">
   <path d="m629.08 704.38 5.048-5.73 4.8114 5.5478" stroke-linecap="square" stroke-width="1.6464"/>
   <path d="m627.33 704.27h23.375" stroke-linecap="round" stroke-width="1.4521"/>
  </g>
  <g fill="#fff">
   <g transform="matrix(.83463 0 0 .83463 91.401 320.16)">
    <g transform="matrix(.13465 0 0 .13465 13.344 124.45)" fill="#fff" stroke-width="0">
     <g fill="#fff" stroke-width="0">
      <g transform="matrix(3.9379 0 0 3.9379 -915.87 -430.93)" fill="#fff" stroke-width="0">
       <path transform="matrix(1.886 0 0 1.886 .85263 -680.66)" d="m124.95 438.29v13.336h13.73v-10.961h-9.2246v-2.2832zm4.5059 5.6035h4.8711v1.6738h-0.73047v-1.1875h-1.1875v1.2793h-0.24414l-2.0078-1.3711v1.3105h-0.70117zm4.0801 2.7695h0.82227v1.584h-4.9336v-1.5234h0.73242v1.2793l2.0391-1.3086h0.30468v1.2168h1.0352z"/>
       <path d="m275.94 156.58h-10.336v-6.1439h21.016v5.2826l-5.1103 5.1678 5.1103 5.1678-0.1148 5.1678h-20.901v-6.4884h10.048l-3.9045-3.8471z"/>
       <path d="m289.78 171.16h7.3497v-5.9716h3.2155l4.4213-4.3065-4.3639-4.3639h10.45v-6.0865h-21.016v5.2252l4.9381 5.0529h-4.9955z"/>
       <path transform="matrix(1.886 0 0 1.886 .85263 -680.66)" d="m168.73 440.64-5.3594 4.6875v6.3633l3.8672-0.0293v-1.6758h3.4707v1.7051h3.8047v-11.051zm1.8574 3.2578v2.709h-3.2285z"/>
       <path d="m333.08 150.43h21.073v8.5555h-7.3497v-2.4116h-6.431v8.1536h13.781v6.5458h-21.073z"/>
       <path transform="matrix(1.886 0 0 1.886 .85263 -680.66)" d="m192.62 440.68v0.91016l-3.7109 0.0195v9.0723h3.6836v1.0039h3.7754v-1.0039h3.7305v-9.0918h-3.7207v-0.91016zm0.18359 3.7598h3.3906v3.3281h-3.3906z"/>
      </g>
     </g>
    </g>
   </g>
   <g transform="matrix(.83463 0 0 .83463 -.001944 75.142)" aria-label="RISING">
    <path d="m16.193 427.11v-0.784c0-1.302-1.05-2.352-2.352-2.352h-1.68c-0.364 0-0.672 0.308-0.672 0.672v8.064c0 0.378 0.308 0.672 0.672 0.672 0.378 0 0.672-0.294 0.672-0.672v-3.248h0.756l1.302 3.486c0.14 0.35 0.518 0.518 0.868 0.392s0.532-0.518 0.392-0.868l-1.218-3.276c0.756-0.392 1.26-1.176 1.26-2.086zm-3.36-1.792h1.008c0.56 0 1.008 0.448 1.008 1.008v0.784c0 0.56-0.448 1.008-1.008 1.008h-1.008z"/>
    <path d="m17.665 433.38c0.378 0 0.672-0.294 0.672-0.672v-8.12c0-0.364-0.294-0.672-0.672-0.672-0.364 0-0.672 0.308-0.672 0.672v8.12c0 0.378 0.308 0.672 0.672 0.672z"/>
    <path d="m21.968 431.81c-0.252 0.196-0.56 0.266-0.868 0.21-0.308-0.07-0.56-0.252-0.714-0.518-0.196-0.322-0.602-0.434-0.924-0.252s-0.434 0.602-0.238 0.924c0.336 0.588 0.924 1.022 1.61 1.162 0.686 0.126 1.386-0.028 1.946-0.448 0.546-0.42 0.896-1.05 0.952-1.75 0.056-0.686-0.196-1.372-0.686-1.876l-2.226-2.296c-0.21-0.21-0.308-0.49-0.28-0.77 0.014-0.294 0.154-0.56 0.392-0.728 0.238-0.182 0.518-0.252 0.812-0.196 0.28 0.07 0.518 0.238 0.672 0.49 0.182 0.322 0.588 0.434 0.91 0.252 0.322-0.196 0.434-0.602 0.252-0.924-0.336-0.588-0.91-0.994-1.568-1.134-0.658-0.126-1.358 0.028-1.89 0.434s-0.868 1.022-0.924 1.694 0.182 1.344 0.658 1.82l2.24 2.296c0.21 0.224 0.322 0.532 0.294 0.84s-0.168 0.588-0.42 0.77z"/>
    <path d="m25.173 433.38c0.378 0 0.672-0.294 0.672-0.672v-8.12c0-0.364-0.294-0.672-0.672-0.672-0.364 0-0.672 0.308-0.672 0.672v8.12c0 0.378 0.308 0.672 0.672 0.672z"/>
    <path d="m31.716 433.37c0.294-0.07 0.518-0.35 0.518-0.658v-8.12c0-0.364-0.308-0.672-0.672-0.672-0.378 0-0.672 0.308-0.672 0.672v5.18c-1.162-2.408-2.646-5.474-2.646-5.474-0.14-0.28-0.448-0.434-0.756-0.364s-0.518 0.35-0.518 0.658v8.12c0 0.378 0.294 0.672 0.672 0.672 0.364 0 0.672-0.294 0.672-0.672v-5.18c1.162 2.408 2.646 5.474 2.646 5.474 0.126 0.28 0.448 0.434 0.756 0.364z"/>
    <path d="m37.241 428.12h-1.4c-0.364 0-0.672 0.308-0.672 0.672 0 0.378 0.308 0.672 0.672 0.672h0.728v1.568c0 0.56-0.448 1.008-1.008 1.008-0.546 0-1.008-0.448-1.008-1.008v-4.76c0-0.448 0.308-0.854 0.756-0.966 0.434-0.126 0.896 0.07 1.134 0.462 0.182 0.322 0.588 0.434 0.91 0.252 0.322-0.196 0.434-0.602 0.252-0.924-0.532-0.924-1.624-1.372-2.646-1.092-1.036 0.266-1.75 1.204-1.75 2.268v4.76c0 1.302 1.064 2.352 2.352 2.352 1.302 0 2.352-1.05 2.352-2.352v-2.24c0-0.364-0.294-0.672-0.672-0.672z"/>
   </g>
   <g transform="matrix(.83463 0 0 .83463 -.001944 75.142)" aria-label="FALLING">
    <path d="m81.983 433.32c0.378 0 0.672-0.294 0.672-0.672v-3.472h1.848c0.378 0 0.672-0.294 0.672-0.672 0-0.364-0.294-0.672-0.672-0.672h-1.848v-2.52h2.128c0.378 0 0.672-0.294 0.672-0.672 0-0.364-0.294-0.672-0.672-0.672h-2.8c-0.364 0-0.672 0.308-0.672 0.672v8.008c0 0.378 0.308 0.672 0.672 0.672z"/>
    <path d="m88.415 424.41c-0.07-0.294-0.336-0.49-0.644-0.49s-0.574 0.196-0.644 0.49l-2.24 8.12c-0.098 0.364 0.112 0.728 0.462 0.826 0.364 0.098 0.728-0.112 0.826-0.462 0 0 0.168-0.602 0.406-1.47h2.38c0.238 0.868 0.406 1.47 0.406 1.47 0.098 0.35 0.462 0.56 0.826 0.462 0.35-0.098 0.56-0.462 0.462-0.826zm-1.456 5.67c0.266-0.966 0.56-2.044 0.812-2.954 0.252 0.91 0.546 1.988 0.812 2.954z"/>
    <path d="m91.87 433.32h2.8c0.364 0 0.672-0.294 0.672-0.672 0-0.364-0.308-0.672-0.672-0.672h-2.128v-7.392c0-0.364-0.308-0.672-0.672-0.672-0.378 0-0.672 0.308-0.672 0.672v8.064c0 0.378 0.294 0.672 0.672 0.672z"/>
    <path d="m96.417 433.32h2.8c0.364 0 0.672-0.294 0.672-0.672 0-0.364-0.308-0.672-0.672-0.672h-2.128v-7.392c0-0.364-0.308-0.672-0.672-0.672-0.378 0-0.672 0.308-0.672 0.672v8.064c0 0.378 0.294 0.672 0.672 0.672z"/>
    <path d="m100.96 433.38c0.378 0 0.672-0.294 0.672-0.672v-8.12c0-0.364-0.294-0.672-0.672-0.672-0.364 0-0.672 0.308-0.672 0.672v8.12c0 0.378 0.308 0.672 0.672 0.672z"/>
    <path d="m107.51 433.37c0.294-0.07 0.518-0.35 0.518-0.658v-8.12c0-0.364-0.308-0.672-0.672-0.672-0.378 0-0.672 0.308-0.672 0.672v5.18c-1.162-2.408-2.646-5.474-2.646-5.474-0.14-0.28-0.448-0.434-0.756-0.364s-0.518 0.35-0.518 0.658v8.12c0 0.378 0.294 0.672 0.672 0.672 0.364 0 0.672-0.294 0.672-0.672v-5.18c1.162 2.408 2.646 5.474 2.646 5.474 0.126 0.28 0.448 0.434 0.756 0.364z"/>
    <path d="m113.03 428.12h-1.4c-0.364 0-0.672 0.308-0.672 0.672 0 0.378 0.308 0.672 0.672 0.672h0.728v1.568c0 0.56-0.448 1.008-1.008 1.008-0.546 0-1.008-0.448-1.008-1.008v-4.76c0-0.448 0.308-0.854 0.756-0.966 0.434-0.126 0.896 0.07 1.134 0.462 0.182 0.322 0.588 0.434 0.91 0.252 0.322-0.196 0.434-0.602 0.252-0.924-0.532-0.924-1.624-1.372-2.646-1.092-1.036 0.266-1.75 1.204-1.75 2.268v4.76c0 1.302 1.064 2.352 2.352 2.352 1.302 0 2.352-1.05 2.352-2.352v-2.24c0-0.364-0.294-0.672-0.672-0.672z"/>
   </g>
   <g transform="matrix(.83463 0 0 .83463 -.001944 75.142)" aria-label="EOC">
    <path d="m132.71 424.64v8.008c0 0.378 0.308 0.672 0.672 0.672h2.8c0.378 0 0.672-0.294 0.672-0.672 0-0.364-0.294-0.672-0.672-0.672h-2.128v-2.8h1.848c0.378 0 0.672-0.294 0.672-0.672 0-0.364-0.294-0.672-0.672-0.672h-1.848v-2.52h2.128c0.378 0 0.672-0.294 0.672-0.672 0-0.364-0.294-0.672-0.672-0.672h-2.8c-0.364 0-0.672 0.308-0.672 0.672z"/>
    <path d="m139.72 433.38c1.302 0 2.352-1.05 2.352-2.352v-4.76c0-1.302-1.05-2.352-2.352-2.352s-2.352 1.05-2.352 2.352v4.76c0 1.302 1.05 2.352 2.352 2.352zm0-8.12c0.56 0 1.008 0.448 1.008 1.008v4.76c0 0.56-0.448 1.008-1.008 1.008s-1.008-0.448-1.008-1.008v-4.76c0-0.56 0.448-1.008 1.008-1.008z"/>
    <path d="m144.61 433.3c1.036 0.28 2.114-0.168 2.646-1.092 0.196-0.322 0.084-0.728-0.238-0.924-0.322-0.182-0.728-0.07-0.924 0.252-0.224 0.392-0.686 0.588-1.134 0.476-0.434-0.126-0.742-0.518-0.742-0.98v-4.76c0-0.448 0.308-0.854 0.742-0.966 0.448-0.126 0.91 0.07 1.134 0.462 0.196 0.322 0.602 0.434 0.924 0.252 0.322-0.196 0.434-0.602 0.238-0.924-0.532-0.924-1.61-1.372-2.646-1.092-1.022 0.266-1.736 1.204-1.736 2.268v4.76c0 1.064 0.714 2.002 1.736 2.268z"/>
   </g>
   <g transform="matrix(.83463 0 0 .83463 -.001944 75.142)" aria-label="RISING">
    <path d="m218.75 427.11v-0.784c0-1.302-1.05-2.352-2.352-2.352h-1.68c-0.364 0-0.672 0.308-0.672 0.672v8.064c0 0.378 0.308 0.672 0.672 0.672 0.378 0 0.672-0.294 0.672-0.672v-3.248h0.756l1.302 3.486c0.14 0.35 0.518 0.518 0.868 0.392s0.532-0.518 0.392-0.868l-1.218-3.276c0.756-0.392 1.26-1.176 1.26-2.086zm-3.36-1.792h1.008c0.56 0 1.008 0.448 1.008 1.008v0.784c0 0.56-0.448 1.008-1.008 1.008h-1.008z"/>
    <path d="m220.22 433.38c0.378 0 0.672-0.294 0.672-0.672v-8.12c0-0.364-0.294-0.672-0.672-0.672-0.364 0-0.672 0.308-0.672 0.672v8.12c0 0.378 0.308 0.672 0.672 0.672z"/>
    <path d="m224.52 431.81c-0.252 0.196-0.56 0.266-0.868 0.21-0.308-0.07-0.56-0.252-0.714-0.518-0.196-0.322-0.602-0.434-0.924-0.252s-0.434 0.602-0.238 0.924c0.336 0.588 0.924 1.022 1.61 1.162 0.686 0.126 1.386-0.028 1.946-0.448 0.546-0.42 0.896-1.05 0.952-1.75 0.056-0.686-0.196-1.372-0.686-1.876l-2.226-2.296c-0.21-0.21-0.308-0.49-0.28-0.77 0.014-0.294 0.154-0.56 0.392-0.728 0.238-0.182 0.518-0.252 0.812-0.196 0.28 0.07 0.518 0.238 0.672 0.49 0.182 0.322 0.588 0.434 0.91 0.252 0.322-0.196 0.434-0.602 0.252-0.924-0.336-0.588-0.91-0.994-1.568-1.134-0.658-0.126-1.358 0.028-1.89 0.434s-0.868 1.022-0.924 1.694 0.182 1.344 0.658 1.82l2.24 2.296c0.21 0.224 0.322 0.532 0.294 0.84s-0.168 0.588-0.42 0.77z"/>
    <path d="m227.73 433.38c0.378 0 0.672-0.294 0.672-0.672v-8.12c0-0.364-0.294-0.672-0.672-0.672-0.364 0-0.672 0.308-0.672 0.672v8.12c0 0.378 0.308 0.672 0.672 0.672z"/>
    <path d="m234.27 433.37c0.294-0.07 0.518-0.35 0.518-0.658v-8.12c0-0.364-0.308-0.672-0.672-0.672-0.378 0-0.672 0.308-0.672 0.672v5.18c-1.162-2.408-2.646-5.474-2.646-5.474-0.14-0.28-0.448-0.434-0.756-0.364s-0.518 0.35-0.518 0.658v8.12c0 0.378 0.294 0.672 0.672 0.672 0.364 0 0.672-0.294 0.672-0.672v-5.18c1.162 2.408 2.646 5.474 2.646 5.474 0.126 0.28 0.448 0.434 0.756 0.364z"/>
    <path d="m239.8 428.12h-1.4c-0.364 0-0.672 0.308-0.672 0.672 0 0.378 0.308 0.672 0.672 0.672h0.728v1.568c0 0.56-0.448 1.008-1.008 1.008-0.546 0-1.008-0.448-1.008-1.008v-4.76c0-0.448 0.308-0.854 0.756-0.966 0.434-0.126 0.896 0.07 1.134 0.462 0.182 0.322 0.588 0.434 0.91 0.252 0.322-0.196 0.434-0.602 0.252-0.924-0.532-0.924-1.624-1.372-2.646-1.092-1.036 0.266-1.75 1.204-1.75 2.268v4.76c0 1.302 1.064 2.352 2.352 2.352 1.302 0 2.352-1.05 2.352-2.352v-2.24c0-0.364-0.294-0.672-0.672-0.672z"/>
   </g>
   <g transform="matrix(.83463 0 0 .83463 -.001944 75.142)" aria-label="FALLING">
    <path d="m283.19 433.32c0.378 0 0.672-0.294 0.672-0.672v-3.472h1.848c0.378 0 0.672-0.294 0.672-0.672 0-0.364-0.294-0.672-0.672-0.672h-1.848v-2.52h2.128c0.378 0 0.672-0.294 0.672-0.672 0-0.364-0.294-0.672-0.672-0.672h-2.8c-0.364 0-0.672 0.308-0.672 0.672v8.008c0 0.378 0.308 0.672 0.672 0.672z"/>
    <path d="m289.62 424.41c-0.07-0.294-0.336-0.49-0.644-0.49s-0.574 0.196-0.644 0.49l-2.24 8.12c-0.098 0.364 0.112 0.728 0.462 0.826 0.364 0.098 0.728-0.112 0.826-0.462 0 0 0.168-0.602 0.406-1.47h2.38c0.238 0.868 0.406 1.47 0.406 1.47 0.098 0.35 0.462 0.56 0.826 0.462 0.35-0.098 0.56-0.462 0.462-0.826zm-1.456 5.67c0.266-0.966 0.56-2.044 0.812-2.954 0.252 0.91 0.546 1.988 0.812 2.954z"/>
    <path d="m293.08 433.32h2.8c0.364 0 0.672-0.294 0.672-0.672 0-0.364-0.308-0.672-0.672-0.672h-2.128v-7.392c0-0.364-0.308-0.672-0.672-0.672-0.378 0-0.672 0.308-0.672 0.672v8.064c0 0.378 0.294 0.672 0.672 0.672z"/>
    <path d="m297.62 433.32h2.8c0.364 0 0.672-0.294 0.672-0.672 0-0.364-0.308-0.672-0.672-0.672h-2.128v-7.392c0-0.364-0.308-0.672-0.672-0.672-0.378 0-0.672 0.308-0.672 0.672v8.064c0 0.378 0.294 0.672 0.672 0.672z"/>
    <path d="m302.17 433.38c0.378 0 0.672-0.294 0.672-0.672v-8.12c0-0.364-0.294-0.672-0.672-0.672-0.364 0-0.672 0.308-0.672 0.672v8.12c0 0.378 0.308 0.672 0.672 0.672z"/>
    <path d="m308.71 433.37c0.294-0.07 0.518-0.35 0.518-0.658v-8.12c0-0.364-0.308-0.672-0.672-0.672-0.378 0-0.672 0.308-0.672 0.672v5.18c-1.162-2.408-2.646-5.474-2.646-5.474-0.14-0.28-0.448-0.434-0.756-0.364s-0.518 0.35-0.518 0.658v8.12c0 0.378 0.294 0.672 0.672 0.672 0.364 0 0.672-0.294 0.672-0.672v-5.18c1.162 2.408 2.646 5.474 2.646 5.474 0.126 0.28 0.448 0.434 0.756 0.364z"/>
    <path d="m314.24 428.12h-1.4c-0.364 0-0.672 0.308-0.672 0.672 0 0.378 0.308 0.672 0.672 0.672h0.728v1.568c0 0.56-0.448 1.008-1.008 1.008-0.546 0-1.008-0.448-1.008-1.008v-4.76c0-0.448 0.308-0.854 0.756-0.966 0.434-0.126 0.896 0.07 1.134 0.462 0.182 0.322 0.588 0.434 0.91 0.252 0.322-0.196 0.434-0.602 0.252-0.924-0.532-0.924-1.624-1.372-2.646-1.092-1.036 0.266-1.75 1.204-1.75 2.268v4.76c0 1.302 1.064 2.352 2.352 2.352 1.302 0 2.352-1.05 2.352-2.352v-2.24c0-0.364-0.294-0.672-0.672-0.672z"/>
   </g>
   <g transform="matrix(.83463 0 0 .83463 -.001944 75.142)" aria-label="EOC">
    <path d="m176.35 424.64v8.008c0 0.378 0.308 0.672 0.672 0.672h2.8c0.378 0 0.672-0.294 0.672-0.672 0-0.364-0.294-0.672-0.672-0.672h-2.128v-2.8h1.848c0.378 0 0.672-0.294 0.672-0.672 0-0.364-0.294-0.672-0.672-0.672h-1.848v-2.52h2.128c0.378 0 0.672-0.294 0.672-0.672 0-0.364-0.294-0.672-0.672-0.672h-2.8c-0.364 0-0.672 0.308-0.672 0.672z"/>
    <path d="m183.35 433.38c1.302 0 2.352-1.05 2.352-2.352v-4.76c0-1.302-1.05-2.352-2.352-2.352s-2.352 1.05-2.352 2.352v4.76c0 1.302 1.05 2.352 2.352 2.352zm0-8.12c0.56 0 1.008 0.448 1.008 1.008v4.76c0 0.56-0.448 1.008-1.008 1.008s-1.008-0.448-1.008-1.008v-4.76c0-0.56 0.448-1.008 1.008-1.008z"/>
    <path d="m188.24 433.3c1.036 0.28 2.114-0.168 2.646-1.092 0.196-0.322 0.084-0.728-0.238-0.924-0.322-0.182-0.728-0.07-0.924 0.252-0.224 0.392-0.686 0.588-1.134 0.476-0.434-0.126-0.742-0.518-0.742-0.98v-4.76c0-0.448 0.308-0.854 0.742-0.966 0.448-0.126 0.91 0.07 1.134 0.462 0.196 0.322 0.602 0.434 0.924 0.252 0.322-0.196 0.434-0.602 0.238-0.924-0.532-0.924-1.61-1.372-2.646-1.092-1.022 0.266-1.736 1.204-1.736 2.268v4.76c0 1.064 0.714 2.002 1.736 2.268z"/>
   </g>
   <g stroke="#fff" stroke-linejoin="round">
    <g transform="matrix(.83463 0 0 .83463 15.263 74.613)">
     <path transform="matrix(.62436 0 0 .62436 53.279 18.221)" d="m151.43 44.734a6.9048 6.9048 0 0 1-6.9048 6.9048 6.9048 6.9048 0 0 1-6.9048-6.9048 6.9048 6.9048 0 0 1 6.9048-6.9048 6.9048 6.9048 0 0 1 6.9048 6.9048z" stroke-width="1.7025"/>
     <path d="m134.76 46.151h17.509" stroke-linecap="round" stroke-width="1.063"/>
    </g>
    <g transform="matrix(.83463 0 0 .83463 15.263 74.134)">
     <path transform="matrix(.1801 0 0 .1801 117.48 49.503)" d="m151.43 44.734a6.9048 6.9048 0 0 1-6.9048 6.9048 6.9048 6.9048 0 0 1-6.9048-6.9048 6.9048 6.9048 0 0 1 6.9048-6.9048 6.9048 6.9048 0 0 1 6.9048 6.9048z" stroke-width="5.9022"/>
     <path d="m134.76 57.559h17.509" stroke-linecap="round" stroke-width="1.063"/>
    </g>
    <g transform="matrix(.83463 0 0 .83463 15.263 74.613)">
     <path transform="matrix(.40267 0 0 .40267 85.318 49.805)" d="m151.43 44.734a6.9048 6.9048 0 0 1-6.9048 6.9048 6.9048 6.9048 0 0 1-6.9048-6.9048 6.9048 6.9048 0 0 1 6.9048-6.9048 6.9048 6.9048 0 0 1 6.9048 6.9048z" stroke-width="2.6398"/>
     <path d="m134.79 67.818h17.509" stroke-linecap="round" stroke-width="1.063"/>
    </g>
   </g>
  </g>
  <g transform="matrix(.89981 0 0 .90028 -2.4088 53.453)" stroke="#fff">
   <path d="m171 143.83 3.4388 5.7451h13.822" fill="none" stroke-width="1.3143"/>
   <path d="m134.77 143.83-3.4388 5.7451h-13.822" fill="none" stroke-width="1.3143"/>
   <g stroke-width=".92732">
    <path transform="translate(8.3851 -131.45)" d="m105.39 280.98 3.7965-2.1919v4.3838z" fill="#fff"/>
    <path transform="matrix(-1 0 0 1 296.96 -131.45)" d="m105.39 280.98 3.7965-2.1919v4.3838z" fill="#fff"/>
    <g transform="translate(-378.79 -648.41)">
     <g transform="translate(-.087096 .26689)" stroke="#fff" stroke-width=".92732">
      <g transform="matrix(1.25 0 0 1.25 -1523.5 794.54)" enable-background="new" fill="#fff" stroke="#fff" stroke-width=".92732">
       <path d="m1659.3-3.5325c0.4981 0.49814 0.4981 1.3058 0 1.804-0.4982 0.49814-1.3059 0.49814-1.804 0-0.4981-0.49814-0.4981-1.3058 0-1.804 0.4981-0.49814 1.3058-0.49814 1.804 0" enable-background="new"/>
       <path d="m1630.9-3.2571c0.4981 0.49814 0.4981 1.3058 0 1.804-0.4981 0.49814-1.3058 0.49814-1.804 0-0.4981-0.49814-0.4981-1.3058 0-1.804 0.4982-0.49814 1.3059-0.49814 1.804 0" enable-background="new"/>
      </g>
     </g>
    </g>
   </g>
  </g>
  <g transform="matrix(.89981 0 0 .90028 5.5795 51.652)" stroke="#fff">
   <path d="m144.99 106.94c0.62263-0.62268 0.62263-1.6323 0-2.255-0.62262-0.62268-1.6322-0.62268-2.255 0-0.62263 0.62267-0.62263 1.6323 0 2.255 0.62275 0.62268 1.6324 0.62268 2.255 0" enable-background="new" fill="#fff" stroke-width=".92732"/>
   <path d="m143.87 106.42v3.7714" fill-rule="evenodd" stroke-linecap="round" stroke-width="1.5837"/>
  </g>
  <g fill="#fff">
   <g transform="matrix(.83463 0 0 .83463 -.001944 75.142)" aria-label="RAMPAGE">
    <path d="m134.69 15.327q-0.154 0-0.224-0.028-0.056-0.014-0.126-0.112l-2.142-4.144h-1.596v4.102q0 0.182-0.182 0.182h-1.246q-0.168 0-0.168-0.182v-10.206q0-0.07 0.042-0.112 0.056-0.056 0.126-0.056h2.828q1.554 0 2.464 0.756t0.91 2.352q0 1.022-0.448 1.736-0.448 0.7-1.232 1.064l2.338 4.452q0.112 0.196-0.168 0.196zm-4.088-9.086v3.346h1.148q0.924 0 1.47-0.392 0.546-0.406 0.546-1.33 0-0.798-0.434-1.204-0.42-0.42-1.134-0.42z"/>
    <path d="m144.95 15.327q-0.098 0-0.14-0.028-0.042-0.014-0.084-0.112l-1.008-2.52h-4.564l-1.008 2.52q-0.028 0.098-0.07 0.112-0.042 0.028-0.14 0.028h-1.288q-0.252 0-0.168-0.196l4.088-10.206q0.042-0.112 0.056-0.126 0.028-0.028 0.168-0.028h1.302q0.126 0 0.154 0.028 0.028 0.014 0.07 0.126l4.088 10.206q0.07 0.196-0.168 0.196zm-5.222-4.13h3.402l-1.694-4.312z"/>
    <path d="m157.16 15.327q-0.112 0-0.14-0.042-0.028-0.028-0.028-0.112v-7.602l-3.038 7.574q-0.028 0.07-0.07 0.084-0.028 0.014-0.168 0.014h-1.12q-0.14 0-0.182-0.014-0.028-0.014-0.056-0.084l-3.038-7.574v7.602q0 0.084-0.028 0.112-0.028 0.042-0.14 0.042h-1.302q-0.168 0-0.168-0.154v-10.108q0-0.196 0.042-0.238 0.042-0.056 0.266-0.056h1.666q0.098 0 0.112 0.042 0.028 0.028 0.07 0.126l3.318 8.232 3.318-8.232q0.042-0.098 0.056-0.126 0.028-0.042 0.126-0.042h1.666q0.224 0 0.266 0.056 0.042 0.042 0.042 0.238v10.108q0 0.154-0.168 0.154z"/>
    <path d="m162.86 11.043v4.102q0 0.182-0.182 0.182h-1.246q-0.168 0-0.168-0.182v-10.206q0-0.07 0.042-0.112 0.056-0.056 0.126-0.056h2.828q1.554 0 2.45 0.756 0.91 0.756 0.91 2.352 0 0.77-0.266 1.372-0.252 0.588-0.728 0.994-0.462 0.392-1.106 0.602-0.63 0.196-1.386 0.196zm0-4.802v3.346h1.134q0.938 0 1.484-0.392 0.546-0.406 0.546-1.33 0-0.798-0.434-1.204-0.434-0.42-1.134-0.42z"/>
    <path d="m175.26 15.327q-0.098 0-0.14-0.028-0.042-0.014-0.084-0.112l-1.008-2.52h-4.564l-1.008 2.52q-0.028 0.098-0.07 0.112-0.042 0.028-0.14 0.028h-1.288q-0.252 0-0.168-0.196l4.088-10.206q0.042-0.112 0.056-0.126 0.028-0.028 0.168-0.028h1.302q0.126 0 0.154 0.028 0.028 0.014 0.07 0.126l4.088 10.206q0.07 0.196-0.168 0.196zm-5.222-4.13h3.402l-1.694-4.312z"/>
    <path d="m186.22 15.005q-0.252 0.126-0.616 0.21-0.364 0.098-0.798 0.168-0.42 0.07-0.868 0.098-0.434 0.042-0.826 0.042-1.162 0-2.156-0.364-0.98-0.364-1.694-1.064t-1.12-1.722-0.406-2.324q0-1.19 0.378-2.184 0.378-1.008 1.078-1.736t1.694-1.134 2.24-0.406q0.84 0 1.498 0.098 0.658 0.084 1.246 0.266 0.154 0.042 0.182 0.098 0.028 0.042 0.014 0.098l-0.168 1.19q-0.014 0.098-0.07 0.14t-0.21-0.014q-0.658-0.21-1.246-0.294-0.588-0.098-1.26-0.098-0.84 0-1.526 0.294-0.686 0.28-1.176 0.812-0.49 0.518-0.77 1.246-0.266 0.728-0.266 1.624 0 0.966 0.266 1.722 0.28 0.742 0.77 1.26 0.504 0.504 1.19 0.77 0.686 0.252 1.512 0.252 0.63 0 1.092-0.056t0.686-0.168v-2.814h-2.31q-0.084 0-0.14-0.042-0.042-0.056-0.042-0.126v-1.12q0-0.084 0.056-0.14 0.07-0.056 0.14-0.056h3.584q0.21 0 0.266 0.07t0.056 0.28v4.62q0 0.21-0.084 0.322t-0.196 0.182z"/>
    <path d="m189.58 15.341q-0.28 0-0.336-0.056-0.056-0.042-0.056-0.35v-9.786q0-0.28 0.042-0.322 0.056-0.056 0.322-0.056h4.97q0.154 0 0.182 0.056 0.028 0.042 0.028 0.168v1.036q0 0.14-0.042 0.196-0.042 0.042-0.168 0.042h-3.794v2.856h3.612q0.21 0 0.21 0.224v1.05q0 0.238-0.21 0.238h-3.612v3.192h3.962q0.196 0 0.196 0.238v1.05q0 0.224-0.196 0.224z"/>
   </g>
   <g transform="matrix(.83463 0 0 .83463 -.001944 75.142)" aria-label="MIN">
    <path d="m115.78 230.28c0.364 0 0.672-0.294 0.672-0.672v-5.11c0.462 0.994 0.952 2.03 0.952 2.03 0.112 0.238 0.35 0.392 0.616 0.392 0.252 0 0.49-0.154 0.602-0.392 0 0 0.49-1.036 0.966-2.03v5.11c0 0.378 0.294 0.672 0.672 0.672 0.364 0 0.672-0.294 0.672-0.672v-8.12c0-0.308-0.224-0.588-0.532-0.658s-0.616 0.084-0.756 0.378c0 0-0.98 2.086-1.624 3.458-0.644-1.372-1.638-3.458-1.638-3.458-0.126-0.294-0.448-0.448-0.756-0.378s-0.518 0.35-0.518 0.658v8.12c0 0.378 0.294 0.672 0.672 0.672z"/>
    <path d="m122.99 230.28c0.378 0 0.672-0.294 0.672-0.672v-8.12c0-0.364-0.294-0.672-0.672-0.672-0.364 0-0.672 0.308-0.672 0.672v8.12c0 0.378 0.308 0.672 0.672 0.672z"/>
    <path d="m129.8 230.26c0.294-0.07 0.518-0.35 0.518-0.658v-8.12c0-0.364-0.308-0.672-0.672-0.672-0.378 0-0.672 0.308-0.672 0.672v5.18c-1.162-2.408-2.646-5.474-2.646-5.474-0.14-0.28-0.448-0.434-0.756-0.364s-0.518 0.35-0.518 0.658v8.12c0 0.378 0.294 0.672 0.672 0.672 0.364 0 0.672-0.294 0.672-0.672v-5.18c1.162 2.408 2.646 5.474 2.646 5.474 0.126 0.28 0.448 0.434 0.756 0.364z"/>
   </g>
   <g transform="matrix(.83463 0 0 .83463 -.001944 75.142)" aria-label="MAX">
    <path d="m192.52 230.28c0.364 0 0.672-0.294 0.672-0.672v-5.11c0.462 0.994 0.952 2.03 0.952 2.03 0.112 0.238 0.35 0.392 0.616 0.392 0.252 0 0.49-0.154 0.602-0.392 0 0 0.49-1.036 0.966-2.03v5.11c0 0.378 0.294 0.672 0.672 0.672 0.364 0 0.672-0.294 0.672-0.672v-8.12c0-0.308-0.224-0.588-0.532-0.658s-0.616 0.084-0.756 0.378c0 0-0.98 2.086-1.624 3.458-0.644-1.372-1.638-3.458-1.638-3.458-0.126-0.294-0.448-0.448-0.756-0.378s-0.518 0.35-0.518 0.658v8.12c0 0.378 0.294 0.672 0.672 0.672z"/>
    <path d="m202.01 221.3c-0.07-0.294-0.336-0.49-0.644-0.49s-0.574 0.196-0.644 0.49l-2.24 8.12c-0.098 0.364 0.112 0.728 0.462 0.826 0.364 0.098 0.728-0.112 0.826-0.462 0 0 0.168-0.602 0.406-1.47h2.38c0.238 0.868 0.406 1.47 0.406 1.47 0.098 0.35 0.462 0.56 0.826 0.462 0.35-0.098 0.56-0.462 0.462-0.826zm-1.456 5.67c0.266-0.966 0.56-2.044 0.812-2.954 0.252 0.91 0.546 1.988 0.812 2.954z"/>
    <path d="m204.87 230.21c0.336 0.168 0.742 0.028 0.91-0.294l1.498-3.01 1.498 3.01c0.168 0.322 0.574 0.462 0.896 0.294 0.336-0.168 0.476-0.574 0.308-0.896l-1.946-3.906 1.806-3.612c0.168-0.336 0.028-0.742-0.308-0.91-0.322-0.168-0.728-0.028-0.896 0.308l-1.358 2.716-1.358-2.716c-0.168-0.336-0.574-0.476-0.91-0.308-0.322 0.168-0.462 0.574-0.294 0.91l1.806 3.612-1.946 3.906c-0.168 0.322-0.028 0.728 0.294 0.896z"/>
   </g>
  </g>
  <g fill="none" stroke="#fff" stroke-linecap="round" stroke-linejoin="round" stroke-width="1.1829">
   <path d="m119.31 276.31 8.0984-11.386"/>
   <path d="m150.46 276-7.9472-11.026"/>
   <path d="m135 241.9v-14.418"/>
  </g>
  <g transform="matrix(.83463 0 0 .83463 -.001944 75.142)" fill="#fff" aria-label="EXP. CV">
   <path d="m247.78 389.37v8.008c0 0.378 0.308 0.672 0.672 0.672h2.8c0.378 0 0.672-0.294 0.672-0.672 0-0.364-0.294-0.672-0.672-0.672h-2.128v-2.8h1.848c0.378 0 0.672-0.294 0.672-0.672 0-0.364-0.294-0.672-0.672-0.672h-1.848v-2.52h2.128c0.378 0 0.672-0.294 0.672-0.672 0-0.364-0.294-0.672-0.672-0.672h-2.8c-0.364 0-0.672 0.308-0.672 0.672z"/>
   <path d="m252.68 398.04c0.336 0.168 0.742 0.028 0.91-0.294l1.498-3.01 1.498 3.01c0.168 0.322 0.574 0.462 0.896 0.294 0.336-0.168 0.476-0.574 0.308-0.896l-1.946-3.906 1.806-3.612c0.168-0.336 0.028-0.742-0.308-0.91-0.322-0.168-0.728-0.028-0.896 0.308l-1.358 2.716-1.358-2.716c-0.168-0.336-0.574-0.476-0.91-0.308-0.322 0.168-0.462 0.574-0.294 0.91l1.806 3.612-1.946 3.906c-0.168 0.322-0.028 0.728 0.294 0.896z"/>
   <path d="m258.71 389.37v8.064c0 0.378 0.294 0.672 0.672 0.672 0.364 0 0.672-0.294 0.672-0.672v-3.248h1.008c1.302 0 2.352-1.05 2.352-2.352v-0.784c0-1.302-1.05-2.352-2.352-2.352h-1.68c-0.378 0-0.672 0.308-0.672 0.672zm3.36 1.68v0.784c0 0.56-0.448 1.008-1.008 1.008h-1.008v-2.8h1.008c0.56 0 1.008 0.448 1.008 1.008z"/>
   <path d="m262.53 397.3c0 0.448 0.364 0.812 0.812 0.812s0.812-0.364 0.812-0.812-0.364-0.812-0.812-0.812-0.812 0.364-0.812 0.812z"/>
   <path d="m269.53 398.03c1.036 0.28 2.114-0.168 2.646-1.092 0.196-0.322 0.084-0.728-0.238-0.924-0.322-0.182-0.728-0.07-0.924 0.252-0.224 0.392-0.686 0.588-1.134 0.476-0.434-0.126-0.742-0.518-0.742-0.98v-4.76c0-0.448 0.308-0.854 0.742-0.966 0.448-0.126 0.91 0.07 1.134 0.462 0.196 0.322 0.602 0.434 0.924 0.252 0.322-0.196 0.434-0.602 0.238-0.924-0.532-0.924-1.61-1.372-2.646-1.092-1.022 0.266-1.736 1.204-1.736 2.268v4.76c0 1.064 0.714 2.002 1.736 2.268z"/>
   <path d="m275.05 397.62c0.084 0.294 0.35 0.49 0.658 0.49 0.294 0 0.56-0.196 0.644-0.49l2.24-8.12c0.098-0.364-0.112-0.728-0.476-0.826-0.35-0.098-0.728 0.112-0.826 0.462 0 0-0.938 3.402-1.582 5.782-0.658-2.38-1.596-5.782-1.596-5.782-0.098-0.35-0.476-0.56-0.826-0.462-0.364 0.098-0.574 0.462-0.476 0.826z"/>
  </g>
  <g fill="none" stroke="#fff" stroke-linecap="round" stroke-linejoin="round" stroke-width="1.1829">
   <path d="m147.02 250.63 13.454-4.0832"/>
   <path d="m122.57 250.54c-4.4301-1.0554-8.7066-2.6343-13.285-4.0653"/>
   <path d="m114.78 365.82v-28.302"/>
   <path d="m155.12 365.82v-28.302"/>
  </g>
  <g fill="#fff" stroke="#fff" stroke-linecap="round" stroke-linejoin="round" stroke-width="1.1829">
   <path d="m20.76 405.31v-13.511"/>
   <path d="m80.461 405.31v-13.511"/>
   <path d="m189.57 405.31v-13.511"/>
   <path d="m249.32 405.31v-13.511"/>
  </g>
  <g stroke="#fff">
   <path d="m21.092 186.1a20.882 20.872 0 0 1 0.24765-16.64 20.882 20.872 0 0 1 12.343-11.17" fill="none" stroke-linejoin="round" stroke-width=".8872"/>
   <path d="m59.774 186.1a20.882 20.872 0 0 0-0.24765-16.64 20.882 20.872 0 0 0-12.343-11.17" fill="none" stroke-linejoin="round" stroke-width=".8872"/>
   <g transform="matrix(.33064 0 0 .31662 69.52 161.23)" fill="none" stroke-width="2.7421">
    <path d="m-48.432 106.46c-0.39085-11.769 3.9966-18.587 15.576-17.954"/>
    <path d="m-16.689 104.98c-10.602 0.39085-16.819-6.3646-16.249-17.944"/>
   </g>
   <g transform="matrix(.33372 0 0 .43697 51.547 127.52)" stroke-width="1.3098">
    <g transform="matrix(1 0 0 .8113 0 -29.739)" stroke="#fff" stroke-width="1.2166">
     <path d="m-50.21 130.6 16.657-16.26 16.62 16.233" fill="none" stroke="#fff" stroke-width="2.5794"/>
    </g>
   </g>
   <g transform="matrix(-.33064 0 0 .31662 11.51 161.23)" fill="none" stroke-width="2.7421">
    <path d="m-48.432 106.46c-0.39085-11.769 3.9966-18.587 15.576-17.954"/>
    <path d="m-16.689 104.98c-10.602 0.39085-16.819-6.3646-16.249-17.944"/>
   </g>
  </g>
  <g fill="none" stroke="#fff">
   <g stroke-linecap="square" stroke-width="1.3486">
    <path d="m7.4293 309.69h11.992"/>
    <path d="m7.4293 307.34h11.992"/>
    <path d="m7.4293 303.81h11.992"/>
    <path d="m7.4293 297.93h11.992"/>
    <path d="m7.4293 288.53h11.992"/>
    <path d="m7.4293 274.43h11.992"/>
    <path d="m7.4293 253.27h11.992"/>
    <path d="m7.4293 222.42h11.992"/>
   </g>
   <g>
    <path d="m216.59 377.63v-7.5036l-27.409-14.5" stroke-width=".83397"/>
    <path d="m221.97 377.63v-7.5036l27.409-14.5" stroke-width=".83397"/>
    <path d="m210.37 186.1a20.882 20.872 0 0 1 0.24765-16.64 20.882 20.872 0 0 1 12.343-11.17" stroke-linejoin="round" stroke-width=".8872"/>
    <path d="m249.05 186.1a20.882 20.872 0 0 0-0.24765-16.64 20.882 20.872 0 0 0-12.343-11.17" stroke-linejoin="round" stroke-width=".8872"/>
   </g>
  </g>
  <g stroke="#fff">
   <g transform="matrix(.33064 0 0 .31662 258.79 161.23)" fill="none" stroke-width="2.7421">
    <path d="m-48.432 106.46c-0.39085-11.769 3.9966-18.587 15.576-17.954"/>
    <path d="m-16.689 104.98c-10.602 0.39085-16.819-6.3646-16.249-17.944"/>
   </g>
   <g transform="matrix(.33372 0 0 .43697 240.82 127.52)" stroke-width="1.3098">
    <g transform="matrix(1 0 0 .8113 0 -29.739)" stroke="#fff" stroke-width="1.2166">
     <path d="m-50.21 130.6 16.657-16.26 16.62 16.233" fill="none" stroke="#fff" stroke-width="2.5794"/>
    </g>
   </g>
   <g transform="matrix(-.33064 0 0 .31662 200.78 161.23)" fill="none" stroke-width="2.7421">
    <path d="m-48.432 106.46c-0.39085-11.769 3.9966-18.587 15.576-17.954"/>
    <path d="m-16.689 104.98c-10.602 0.39085-16.819-6.3646-16.249-17.944"/>
   </g>
  </g>
  <g fill="none" stroke="#fff">
   <g stroke-linecap="square" stroke-width="1.3486">
    <path d="m28.163 309.69h32.674"/>
    <path d="m28.163 307.34h32.674"/>
    <path d="m28.163 303.81h32.674"/>
    <path d="m28.163 297.93h32.674"/>
    <path d="m28.163 288.53h32.674"/>
    <path d="m28.163 274.43h32.674"/>
    <path d="m28.163 253.27h32.674"/>
    <path d="m28.163 222.42h32.674"/>
    <path d="m69.511 309.69h12.119"/>
    <path d="m69.511 307.34h12.119"/>
    <path d="m69.511 303.81h12.119"/>
    <path d="m69.511 297.93h12.119"/>
    <path d="m69.511 288.53h12.119"/>
    <path d="m69.511 274.43h12.119"/>
    <path d="m69.511 253.27h12.119"/>
    <path d="m69.511 222.42h12.119"/>
    <path d="m188.61 309.69h12.118"/>
    <path d="m188.61 307.34h12.118"/>
    <path d="m188.61 303.81h12.118"/>
    <path d="m188.61 297.93h12.118"/>
    <path d="m188.61 288.53h12.118"/>
    <path d="m188.61 274.43h12.118"/>
    <path d="m188.61 253.27h12.118"/>
    <path d="m188.61 222.42h12.118"/>
    <path d="m209.38 309.69h32.574"/>
    <path d="m209.38 307.34h32.574"/>
    <path d="m209.38 303.81h32.574"/>
    <path d="m209.38 297.93h32.574"/>
    <path d="m209.38 288.53h32.574"/>
    <path d="m209.38 274.43h32.574"/>
    <path d="m209.38 253.27h32.574"/>
    <path d="m209.38 222.42h32.574"/>
    <path d="m250.69 309.69h12.119"/>
    <path d="m250.69 307.34h12.119"/>
    <path d="m250.69 303.81h12.119"/>
    <path d="m250.69 297.93h12.119"/>
    <path d="m250.69 288.53h12.119"/>
    <path d="m250.69 274.43h12.119"/>
    <path d="m250.69 253.27h12.119"/>
    <path d="m250.69 222.42h12.119"/>
   </g>
   <g stroke-width=".83397">
    <path d="m47.991 377.63v-7.5036l-27.409-14.5"/>
    <path d="m53.375 377.63v-7.5036l27.409-14.5"/>
    <path d="m86.138 169.99v-25.911l-15.724-14.5"/>
   </g>
  </g>
  <g transform="matrix(.83463 0 0 .83463 -.001944 75.142)" fill="#fff" aria-label="TRIGG">
   <path d="m227.31 82.493c-0.364 0-0.672 0.308-0.672 0.672 0 0.378 0.308 0.672 0.672 0.672h1.148v7.392c0 0.378 0.308 0.672 0.672 0.672 0.378 0 0.672-0.294 0.672-0.672v-7.392h1.148c0.378 0 0.672-0.294 0.672-0.672 0-0.364-0.294-0.672-0.672-0.672z"/>
   <path d="m236.91 85.629v-0.784c0-1.302-1.05-2.352-2.352-2.352h-1.68c-0.364 0-0.672 0.308-0.672 0.672v8.064c0 0.378 0.308 0.672 0.672 0.672 0.378 0 0.672-0.294 0.672-0.672v-3.248h0.756l1.302 3.486c0.14 0.35 0.518 0.518 0.868 0.392s0.532-0.518 0.392-0.868l-1.218-3.276c0.756-0.392 1.26-1.176 1.26-2.086zm-3.36-1.792h1.008c0.56 0 1.008 0.448 1.008 1.008v0.784c0 0.56-0.448 1.008-1.008 1.008h-1.008z"/>
   <path d="m238.38 91.901c0.378 0 0.672-0.294 0.672-0.672v-8.12c0-0.364-0.294-0.672-0.672-0.672-0.364 0-0.672 0.308-0.672 0.672v8.12c0 0.378 0.308 0.672 0.672 0.672z"/>
   <path d="m244.04 86.637h-1.4c-0.364 0-0.672 0.308-0.672 0.672 0 0.378 0.308 0.672 0.672 0.672h0.728v1.568c0 0.56-0.448 1.008-1.008 1.008-0.546 0-1.008-0.448-1.008-1.008v-4.76c0-0.448 0.308-0.854 0.756-0.966 0.434-0.126 0.896 0.07 1.134 0.462 0.182 0.322 0.588 0.434 0.91 0.252 0.322-0.196 0.434-0.602 0.252-0.924-0.532-0.924-1.624-1.372-2.646-1.092-1.036 0.266-1.75 1.204-1.75 2.268v4.76c0 1.302 1.064 2.352 2.352 2.352 1.302 0 2.352-1.05 2.352-2.352v-2.24c0-0.364-0.294-0.672-0.672-0.672z"/>
   <path d="m249.49 86.637h-1.4c-0.364 0-0.672 0.308-0.672 0.672 0 0.378 0.308 0.672 0.672 0.672h0.728v1.568c0 0.56-0.448 1.008-1.008 1.008-0.546 0-1.008-0.448-1.008-1.008v-4.76c0-0.448 0.308-0.854 0.756-0.966 0.434-0.126 0.896 0.07 1.134 0.462 0.182 0.322 0.588 0.434 0.91 0.252 0.322-0.196 0.434-0.602 0.252-0.924-0.532-0.924-1.624-1.372-2.646-1.092-1.036 0.266-1.75 1.204-1.75 2.268v4.76c0 1.302 1.064 2.352 2.352 2.352 1.302 0 2.352-1.05 2.352-2.352v-2.24c0-0.364-0.294-0.672-0.672-0.672z"/>
  </g>
  <path d="m183.77 169.99v-25.911l15.724-14.5" fill="none" stroke="#fff" stroke-width=".83397"/>
  <g transform="matrix(.83463 0 0 .83463 -.001944 75.142)" fill="#fff" aria-label="(MIN,MAX,B&gt;A)">
   <path d="m144.79 154.31c-0.304-0.392-0.544-0.824-0.704-1.296-0.152-0.456-0.232-0.936-0.232-1.424s0.08-0.96 0.232-1.424c0.16-0.472 0.4-0.904 0.704-1.296 0.136-0.168 0.104-0.408-0.064-0.544-0.168-0.128-0.408-0.096-0.536 0.064-0.36 0.464-0.64 0.976-0.832 1.528-0.184 0.544-0.272 1.104-0.272 1.672s0.088 1.128 0.272 1.672c0.192 0.552 0.472 1.064 0.832 1.528 0.128 0.168 0.368 0.192 0.536 0.064 0.168-0.136 0.2-0.376 0.064-0.544z"/>
   <path d="m145.65 154.29c0.208 0 0.384-0.168 0.384-0.384v-2.92c0.264 0.568 0.544 1.16 0.544 1.16 0.064 0.136 0.2 0.224 0.352 0.224 0.144 0 0.28-0.088 0.344-0.224 0 0 0.28-0.592 0.552-1.16v2.92c0 0.216 0.168 0.384 0.384 0.384 0.208 0 0.384-0.168 0.384-0.384v-4.64c0-0.176-0.128-0.336-0.304-0.376s-0.352 0.048-0.432 0.216c0 0-0.56 1.192-0.928 1.976-0.368-0.784-0.936-1.976-0.936-1.976-0.072-0.168-0.256-0.256-0.432-0.216s-0.296 0.2-0.296 0.376v4.64c0 0.216 0.168 0.384 0.384 0.384z"/>
   <path d="m149.75 154.29c0.216 0 0.384-0.168 0.384-0.384v-4.64c0-0.208-0.168-0.384-0.384-0.384-0.208 0-0.384 0.176-0.384 0.384v4.64c0 0.216 0.176 0.384 0.384 0.384z"/>
   <path d="m153.61 154.28c0.168-0.04 0.296-0.2 0.296-0.376v-4.64c0-0.208-0.176-0.384-0.384-0.384-0.216 0-0.384 0.176-0.384 0.384v2.96c-0.664-1.376-1.512-3.128-1.512-3.128-0.08-0.16-0.256-0.248-0.432-0.208s-0.296 0.2-0.296 0.376v4.64c0 0.216 0.168 0.384 0.384 0.384 0.208 0 0.384-0.168 0.384-0.384v-2.96c0.664 1.376 1.512 3.128 1.512 3.128 0.072 0.16 0.256 0.248 0.432 0.208z"/>
   <path d="m154.77 154.18c-0.192 0.08-0.28 0.288-0.2 0.48 0.08 0.184 0.288 0.272 0.48 0.192 0.288-0.12 0.48-0.4 0.48-0.72v-0.384c0-0.2-0.168-0.36-0.368-0.36h-0.256c-0.2 0-0.36 0.16-0.36 0.36 0 0.16 0.104 0.304 0.256 0.352v0.032c0 0.024-0.016 0.04-0.032 0.048z"/>
   <path d="m156.53 154.29c0.208 0 0.384-0.168 0.384-0.384v-2.92c0.264 0.568 0.544 1.16 0.544 1.16 0.064 0.136 0.2 0.224 0.352 0.224 0.144 0 0.28-0.088 0.344-0.224 0 0 0.28-0.592 0.552-1.16v2.92c0 0.216 0.168 0.384 0.384 0.384 0.208 0 0.384-0.168 0.384-0.384v-4.64c0-0.176-0.128-0.336-0.304-0.376s-0.352 0.048-0.432 0.216c0 0-0.56 1.192-0.928 1.976-0.368-0.784-0.936-1.976-0.936-1.976-0.072-0.168-0.256-0.256-0.432-0.216s-0.296 0.2-0.296 0.376v4.64c0 0.216 0.168 0.384 0.384 0.384z"/>
   <path d="m161.93 149.16c-0.04-0.168-0.192-0.28-0.368-0.28s-0.328 0.112-0.368 0.28l-1.28 4.64c-0.056 0.208 0.064 0.416 0.264 0.472 0.208 0.056 0.416-0.064 0.472-0.264 0 0 0.096-0.344 0.232-0.84h1.36c0.136 0.496 0.232 0.84 0.232 0.84 0.056 0.2 0.264 0.32 0.472 0.264 0.2-0.056 0.32-0.264 0.264-0.472zm-0.832 3.24c0.152-0.552 0.32-1.168 0.464-1.688 0.144 0.52 0.312 1.136 0.464 1.688z"/>
   <path d="m163.54 154.25c0.192 0.096 0.424 0.016 0.52-0.168l0.856-1.72 0.856 1.72c0.096 0.184 0.328 0.264 0.512 0.168 0.192-0.096 0.272-0.328 0.176-0.512l-1.112-2.232 1.032-2.064c0.096-0.192 0.016-0.424-0.176-0.52-0.184-0.096-0.416-0.016-0.512 0.176l-0.776 1.552-0.776-1.552c-0.096-0.192-0.328-0.272-0.52-0.176-0.184 0.096-0.264 0.328-0.168 0.52l1.032 2.064-1.112 2.232c-0.096 0.184-0.016 0.416 0.168 0.512z"/>
   <path d="m167.04 154.18c-0.192 0.08-0.28 0.288-0.2 0.48 0.08 0.184 0.288 0.272 0.48 0.192 0.288-0.12 0.48-0.4 0.48-0.72v-0.384c0-0.2-0.168-0.36-0.368-0.36h-0.256c-0.2 0-0.36 0.16-0.36 0.36 0 0.16 0.104 0.304 0.256 0.352v0.032c0 0.024-0.016 0.04-0.032 0.048z"/>
   <path d="m171.11 150.55v-0.288c0-0.744-0.608-1.344-1.344-1.344h-0.96c-0.216 0-0.384 0.176-0.384 0.384v4.576c0 0.216 0.168 0.384 0.384 0.384h0.96c0.736 0 1.344-0.6 1.344-1.344v-0.448c0-0.376-0.16-0.712-0.408-0.96 0.248-0.24 0.408-0.584 0.408-0.96zm-0.768 1.92v0.448c0 0.32-0.256 0.576-0.576 0.576h-0.576v-1.6h0.576c0.32 0 0.576 0.256 0.576 0.576zm-1.152-1.344v-1.44h0.576c0.32 0 0.576 0.256 0.576 0.576v0.288c0 0.32-0.256 0.576-0.576 0.576z"/>
   <path d="m171.76 153.43c0 0.088 0.032 0.176 0.088 0.248 0.136 0.16 0.376 0.184 0.544 0.048l1.92-1.6c0.088-0.072 0.136-0.184 0.136-0.296s-0.048-0.224-0.136-0.296l-1.92-1.6c-0.168-0.136-0.408-0.112-0.544 0.048-0.056 0.072-0.088 0.16-0.088 0.248 0 0.112 0.048 0.216 0.136 0.296 0 0 1.096 0.912 1.568 1.304-0.472 0.392-1.568 1.304-1.568 1.304-0.088 0.08-0.136 0.184-0.136 0.296z"/>
   <path d="m176.74 149.16c-0.04-0.168-0.192-0.28-0.368-0.28s-0.328 0.112-0.368 0.28l-1.28 4.64c-0.056 0.208 0.064 0.416 0.264 0.472 0.208 0.056 0.416-0.064 0.472-0.264 0 0 0.096-0.344 0.232-0.84h1.36c0.136 0.496 0.232 0.84 0.232 0.84 0.056 0.2 0.264 0.32 0.472 0.264 0.2-0.056 0.32-0.264 0.264-0.472zm-0.832 3.24c0.152-0.552 0.32-1.168 0.464-1.688 0.144 0.52 0.312 1.136 0.464 1.688z"/>
   <path d="m179.86 151.51c0-0.568-0.096-1.128-0.28-1.672-0.184-0.552-0.464-1.064-0.824-1.528-0.128-0.16-0.368-0.192-0.536-0.064-0.168 0.136-0.2 0.376-0.072 0.544 0.312 0.392 0.552 0.824 0.712 1.296 0.152 0.464 0.232 0.936 0.232 1.424s-0.08 0.968-0.232 1.424c-0.16 0.472-0.4 0.904-0.712 1.296-0.128 0.168-0.096 0.408 0.072 0.544 0.168 0.128 0.408 0.104 0.536-0.064 0.36-0.464 0.64-0.976 0.824-1.528 0.184-0.544 0.28-1.104 0.28-1.672z"/>
  </g>
 </g>
</svg>
