<?xml version="1.0" encoding="UTF-8"?>
<svg width="40.64mm" height="128.5mm" version="1.1" viewBox="0 0 40.64 128.5" xmlns="http://www.w3.org/2000/svg" xmlns:cc="http://creativecommons.org/ns#" xmlns:dc="http://purl.org/dc/elements/1.1/" xmlns:rdf="http://www.w3.org/1999/02/22-rdf-syntax-ns#">
 <metadata>
  <rdf:RDF>
   <cc:Work rdf:about="">
    <dc:format>image/svg+xml</dc:format>
    <dc:type rdf:resource="http://purl.org/dc/dcmitype/StillImage"/>
   </cc:Work>
  </rdf:RDF>
 </metadata>
 <g transform="matrix(.28222 0 0 .29092 -50.693 -87.564)" fill="#171717" stroke="#000" stroke-width=".34899">
  <path d="m179.8 301.17h143.65v441.36h-143.65z" fill="#171717" stroke="#000" stroke-width=".35179"/>
 </g>
 <text x="8.2960205" y="34.899475" fill="#000000" font-family="Miso" font-size="3.3866px" font-stretch="condensed" font-weight="bold" letter-spacing="-.016933px" stroke-width=".28222" word-spacing="0px" style="line-height:0%" xml:space="preserve"><tspan x="8.2960205" y="34.899475" font-size="3.1044px" stroke-width=".28222" style="line-height:1.25"> </tspan></text>
 <g fill="#fff">
  <g transform="matrix(.029024 0 0 .029024 11.832 119.83)" stroke-width="0">
   <g fill="#fff" stroke-width="0">
    <g transform="matrix(3.9379 0 0 3.9379 -915.87 -430.93)" fill="#fff" stroke-width="0">
     <path d="m236.5 145.96v25.15h25.896v-20.671h-17.398v-4.3065z" fill="#fff"/>
     <path d="m246.31 157.27v2.469h-1.3207v-3.2155h9.1871v3.1581h-1.3781v-2.2394h-2.2394v2.4116h-0.45935z" fill="#000"/>
     <path d="m246.31 164.27v-2.4116h-1.3781v2.871h9.302v-2.9858h-1.5503v2.3542h-1.9523v-2.2968h-0.57419z" fill="#000"/>
     <g fill="#fff">
      <path d="m275.94 156.58h-10.336v-6.1439h21.016v5.2826l-5.1103 5.1678 5.1103 5.1678-0.1148 5.1678h-20.901v-6.4884h10.048l-3.9045-3.8471z"/>
      <path d="m289.78 171.16h7.3497v-5.9716h3.2155l4.4213-4.3065-4.3639-4.3639h10.45v-6.0865h-21.016v5.2252l4.9381 5.0529h-4.9955z"/>
      <path d="m316.25 171.16v-3.1581h6.5458v3.2155h7.1774v-20.843h-10.91l-10.106 8.8426v12.001z"/>
     </g>
     <path d="m316.48 161.63h6.0865v-5.1103z" fill="#000"/>
     <path d="m333.08 150.43h21.073v8.5555h-7.3497v-2.4116h-6.431v8.1536h13.781v6.5458h-21.073z" fill="#fff"/>
     <path d="m357.13 152.21v17.111h6.9478v1.8948h7.12v-1.8948h7.0378v-17.147h-7.0177v-1.7143h-7.0896v1.7143z" fill="#fff"/>
     <path d="m364.48 157.55h6.3923v6.276h-6.3923z" fill="#000"/>
    </g>
   </g>
  </g>
  <g>
   <g stroke-width=".28222">
    <g aria-label="RATE">
     <path d="m8.1521 45.759q0 0.1936-0.098777 0.35164-0.094826 0.15409-0.25682 0.23706l0.34374 0.92455q0.031609 0.07507-0.00395 0.14619-0.031609 0.07112-0.10668 0.09878-0.07507 0.02766-0.14619-4e-3 -0.067168-0.03161-0.098777-0.10668l-0.36745-0.98377h-0.21336v0.91665q0 0.07902-0.055315 0.13434-0.055315 0.05532-0.13434 0.05532-0.079021 0-0.13434-0.05532-0.055315-0.05532-0.055315-0.13434v-2.2758q0-0.07902 0.055315-0.13434 0.055315-0.05531 0.13434-0.05531h0.47413q0.13829 0 0.25682 0.05136 0.12248 0.05136 0.21336 0.14224 0.090875 0.09087 0.14224 0.21336 0.051364 0.11853 0.051364 0.25682v0.22126zm-0.94826 0.28448h0.28448q0.11853 0 0.2015-0.08297 0.082972-0.08297 0.082972-0.2015v-0.22126q0-0.11853-0.082972-0.2015-0.082973-0.08297-0.2015-0.08297h-0.28448z"/>
     <path d="m9.9132 47.288q0.019755 0.07902-0.019755 0.14619-0.03556 0.06717-0.11063 0.08692-0.079021 0.01975-0.14619-0.01976-0.067168-0.03556-0.086923-0.11063-0.015804-0.04741-0.031609-0.11458-0.015804-0.05532-0.039511-0.13039-0.019755-0.07902-0.043462-0.1699h-0.67168q-0.027658 0.09087-0.047413 0.1699-0.019755 0.07507-0.03556 0.13039-0.015804 0.06717-0.031609 0.11458-0.019755 0.07507-0.086924 0.11063-0.067168 0.03951-0.14619 0.01976-0.07507-0.01976-0.11458-0.08692-0.03556-0.06717-0.015804-0.14619l0.63217-2.2916q0.015804-0.06322 0.063217-0.09878 0.051364-0.03951 0.11853-0.03951 0.067168 0 0.11458 0.03951 0.051364 0.03556 0.067168 0.09878zm-0.58476-0.69144q-0.055315-0.20546-0.11458-0.42276-0.059266-0.21731-0.11458-0.41091-0.055315 0.1936-0.11458 0.41091t-0.11458 0.42276z"/>
     <path d="m11.003 44.874q0.07902 0 0.13434 0.05531 0.05532 0.05532 0.05532 0.13434 0 0.07902-0.05532 0.13434-0.05532 0.05531-0.13434 0.05531h-0.32399v2.0862q0 0.07902-0.05531 0.13434-0.05532 0.05532-0.13434 0.05532-0.07902 0-0.13434-0.05532-0.05531-0.05532-0.05531-0.13434v-2.0862h-0.324q-0.079021 0-0.13434-0.05531-0.055315-0.05532-0.055315-0.13434 0-0.07902 0.055315-0.13434 0.055315-0.05531 0.13434-0.05531z"/>
     <path d="m11.428 45.063q0-0.07902 0.05532-0.13434 0.05531-0.05531 0.13434-0.05531h0.79021q0.07902 0 0.13434 0.05531 0.05532 0.05532 0.05532 0.13434 0 0.07902-0.05532 0.13434-0.05532 0.05531-0.13434 0.05531h-0.60056v0.71119h0.52154q0.07902 0 0.13434 0.05532 0.05532 0.05532 0.05532 0.13434 0 0.07902-0.05532 0.13434-0.05531 0.05532-0.13434 0.05532h-0.52154v0.79021h0.60056q0.07902 0 0.13434 0.05532 0.05532 0.05532 0.05532 0.13434 0 0.07902-0.05532 0.13434-0.05532 0.05532-0.13434 0.05532h-0.79022q-0.07902 0-0.13434-0.05532-0.05532-0.05532-0.05532-0.13434v-2.26z"/>
    </g>
    <g aria-label="HOLD">
     <path d="m18.415 117q0-0.079 0.05532-0.13433 0.05532-0.0553 0.13434-0.0553 0.07902 0 0.13434 0.0553 0.05532 0.0553 0.05532 0.13433v2.2916q0 0.079-0.05532 0.13434-0.05532 0.0553-0.13434 0.0553-0.07902 0-0.13434-0.0553-0.05532-0.0553-0.05532-0.13434v-0.99567h-0.56895v0.99567q0 0.079-0.05532 0.13434-0.05532 0.0553-0.13434 0.0553-0.07902 0-0.13434-0.0553-0.05532-0.0553-0.05532-0.13434v-2.2916q0-0.079 0.05532-0.13433 0.05532-0.0553 0.13434-0.0553 0.07902 0 0.13434 0.0553 0.05532 0.0553 0.05532 0.13433v0.91665h0.56895z"/>
     <path d="m19.805 119.48q-0.13829 0-0.26077-0.0514-0.11853-0.0514-0.20941-0.14224-0.09088-0.0909-0.14224-0.2094-0.05136-0.12249-0.05136-0.26077v-1.3434q0-0.13829 0.05136-0.25682 0.05136-0.12248 0.14224-0.21336 0.09087-0.0909 0.20941-0.14223 0.12248-0.0514 0.26077-0.0514 0.13829 0 0.25682 0.0514 0.12248 0.0514 0.21336 0.14223 0.09088 0.0909 0.14224 0.21336 0.05136 0.11853 0.05136 0.25682v1.3434q0 0.13828-0.05136 0.26077-0.05136 0.11853-0.14224 0.2094-0.09087 0.0909-0.21336 0.14224-0.11853 0.0514-0.25682 0.0514zm0-2.2916q-0.11853 0-0.2015 0.083-0.08297 0.083-0.08297 0.2015v1.3434q0 0.11853 0.08297 0.2015 0.08297 0.083 0.2015 0.083 0.11853 0 0.2015-0.083 0.08297-0.083 0.08297-0.2015v-1.3434q0-0.11853-0.08297-0.2015-0.08297-0.083-0.2015-0.083z"/>
     <path d="m21.005 119.46q-0.07902 0-0.13434-0.0553-0.05532-0.0553-0.05532-0.13434v-2.2758q0-0.079 0.05532-0.13433 0.05532-0.0553 0.13434-0.0553 0.07902 0 0.13434 0.0553 0.05532 0.0553 0.05532 0.13433v2.0862h0.60056q0.07902 0 0.13434 0.0553 0.05532 0.0553 0.05532 0.13434 0 0.079-0.05532 0.13434-0.05532 0.0553-0.13434 0.0553h-0.79021z"/>
     <path d="m22.837 116.82q0.13829 0 0.25682 0.0514 0.12248 0.0514 0.21336 0.14224 0.09088 0.0909 0.14224 0.21336 0.05136 0.11853 0.05136 0.25682v1.3118q0 0.13829-0.05136 0.26077-0.05136 0.11853-0.14224 0.20941-0.09087 0.0909-0.21336 0.14224-0.11853 0.0514-0.25682 0.0514h-0.47413q-0.07902 0-0.13434-0.0553-0.05532-0.0553-0.05532-0.13434v-2.26q0-0.079 0.05532-0.13434 0.05532-0.0553 0.13434-0.0553zm0.28448 0.66378q0-0.11854-0.08297-0.20151-0.08297-0.083-0.2015-0.083h-0.28448v1.8807h0.28448q0.11853 0 0.2015-0.083 0.08297-0.083 0.08297-0.20151v-1.3118z"/>
    </g>
    <g aria-label="IN">
     <path d="m6.3676 122.47q-0.079021 0-0.13434-0.0553-0.055315-0.0553-0.055315-0.13433v-2.2916q0-0.079 0.055315-0.13434 0.055315-0.0553 0.13434-0.0553 0.079021 0 0.13434 0.0553 0.055315 0.0553 0.055315 0.13434v2.2916q0 0.079-0.055315 0.13433-0.055315 0.0553-0.13434 0.0553z"/>
     <path d="m8.2907 122.47q-0.067168 0.0158-0.12643-0.0158-0.059266-0.0277-0.086924-0.0869-0.11853-0.25287-0.24892-0.51759-0.11063-0.22521-0.24497-0.49784-0.13039-0.27262-0.25287-0.52944v1.4619q0 0.079-0.055315 0.13433-0.055315 0.0553-0.13434 0.0553-0.079021 0-0.13434-0.0553-0.055315-0.0553-0.055315-0.13433v-2.2916q0-0.0672 0.039511-0.11854 0.039511-0.0514 0.10668-0.0672 0.067168-0.0158 0.12248 0.0158 0.059266 0.0277 0.090875 0.0869 0.11853 0.25287 0.24892 0.51759 0.11063 0.22521 0.24102 0.49784 0.13039 0.27262 0.25682 0.52944v-1.4619q0-0.079 0.055315-0.13434 0.055315-0.0553 0.13434-0.0553 0.079021 0 0.13434 0.0553 0.055315 0.0553 0.055315 0.13434v2.2916q0 0.0672-0.043462 0.11853-0.039511 0.0514-0.10273 0.0672z"/>
    </g>
    <g aria-label="OUT">
     <path d="m31.515 122.47q-0.13829 0-0.26077-0.0514-0.11853-0.0514-0.20941-0.14223-0.09087-0.0909-0.14224-0.20941-0.05136-0.12248-0.05136-0.26077v-1.3434q0-0.13828 0.05136-0.25682 0.05136-0.12248 0.14224-0.21335 0.09087-0.0909 0.20941-0.14224 0.12248-0.0514 0.26077-0.0514 0.13829 0 0.25682 0.0514 0.12248 0.0514 0.21336 0.14224 0.09088 0.0909 0.14224 0.21335 0.05136 0.11854 0.05136 0.25682v1.3434q0 0.13829-0.05136 0.26077-0.05136 0.11853-0.14224 0.20941-0.09087 0.0909-0.21336 0.14223-0.11853 0.0514-0.25682 0.0514zm0-2.2916q-0.11853 0-0.2015 0.083-0.08297 0.083-0.08297 0.2015v1.3434q0 0.11853 0.08297 0.2015 0.08297 0.083 0.2015 0.083 0.11853 0 0.2015-0.083 0.08297-0.083 0.08297-0.2015v-1.3434q0-0.11853-0.08297-0.2015-0.08297-0.083-0.2015-0.083z"/>
     <path d="m32.873 121.81q0 0.11853 0.08297 0.2015 0.08297 0.083 0.2015 0.083 0.11458 0 0.19755-0.083 0.08692-0.083 0.08692-0.2015v-1.8175q0-0.079 0.05532-0.13434 0.05532-0.0553 0.13434-0.0553 0.07902 0 0.13434 0.0553 0.05532 0.0553 0.05532 0.13434v1.8175q0 0.13829-0.05532 0.26077-0.05136 0.11853-0.14224 0.20941-0.08692 0.0909-0.20941 0.14223-0.12248 0.0514-0.25682 0.0514-0.13829 0-0.26077-0.0514-0.11853-0.0514-0.20941-0.14223-0.09087-0.0909-0.14224-0.20941-0.05136-0.12248-0.05136-0.26077v-1.8175q0-0.079 0.05532-0.13434 0.05532-0.0553 0.13434-0.0553 0.07902 0 0.13434 0.0553 0.05532 0.0553 0.05532 0.13434v1.8175z"/>
     <path d="m35.242 119.82q0.07902 0 0.13434 0.0553 0.05532 0.0553 0.05532 0.13434 0 0.079-0.05532 0.13434-0.05532 0.0553-0.13434 0.0553h-0.32399v2.0862q0 0.079-0.05532 0.13433-0.05532 0.0553-0.13434 0.0553-0.07902 0-0.13434-0.0553-0.05532-0.0553-0.05532-0.13433v-2.0862h-0.32399q-0.07902 0-0.13434-0.0553-0.05532-0.0553-0.05532-0.13434 0-0.079 0.05532-0.13434 0.05532-0.0553 0.13434-0.0553z"/>
    </g>
    <g aria-label="CLOCK/ SYNC IN">
     <path d="m3.4789 24.573q-0.10668-0.02766-0.19755-0.08692-0.090875-0.06322-0.15804-0.14619-0.063217-0.08692-0.098777-0.18965-0.03556-0.10273-0.03556-0.21731v-1.3434q0-0.11063 0.03556-0.21336 0.03556-0.10668 0.098777-0.18965 0.067168-0.08692 0.15804-0.14619 0.090875-0.06322 0.19755-0.09088 0.22126-0.05927 0.42672 0.02766 0.20546 0.08297 0.32004 0.28053 0.043462 0.06717 0.019755 0.14224-0.019755 0.07507-0.086924 0.11853-0.067168 0.03951-0.14224 0.01976-0.07507-0.02371-0.11853-0.09088-0.047413-0.08297-0.13829-0.11853-0.086924-0.03951-0.18175-0.01185-0.090875 0.02371-0.15014 0.10273-0.059266 0.07507-0.059266 0.1699v1.3434q0 0.09878 0.059266 0.17385 0.059266 0.07507 0.15014 0.10273 0.094826 0.02371 0.18175-0.01185 0.090875-0.03951 0.13829-0.12248 0.043462-0.06717 0.11853-0.08692 0.07507-0.02371 0.14224 0.01581 0.067168 0.04346 0.086924 0.11853 0.023707 0.07507-0.019755 0.14224-0.11458 0.19755-0.32004 0.28053-0.20546 0.08692-0.42672 0.02766z"/>
     <path d="m4.7303 24.581q-0.079021 0-0.13434-0.05531-0.055315-0.05532-0.055315-0.13434v-2.2758q0-0.07902 0.055315-0.13434 0.055315-0.05532 0.13434-0.05532 0.079021 0 0.13434 0.05532 0.055315 0.05532 0.055315 0.13434v2.0862h0.60056q0.079021 0 0.13434 0.05531 0.055315 0.05532 0.055315 0.13434 0 0.07902-0.055315 0.13434-0.055315 0.05531-0.13434 0.05531h-0.79021z"/>
     <path d="m6.515 24.597q-0.13829 0-0.26077-0.05136-0.11853-0.05136-0.20941-0.14224-0.090875-0.09088-0.14224-0.20941-0.051364-0.12248-0.051364-0.26077v-1.3434q0-0.13829 0.051364-0.25682 0.051364-0.12248 0.14224-0.21336 0.090875-0.09087 0.20941-0.14224 0.12248-0.05136 0.26077-0.05136t0.25682 0.05136q0.12248 0.05136 0.21336 0.14224 0.090875 0.09088 0.14224 0.21336 0.051364 0.11853 0.051364 0.25682v1.3434q0 0.13829-0.051364 0.26077-0.051364 0.11853-0.14224 0.20941-0.090875 0.09087-0.21336 0.14224-0.11853 0.05136-0.25682 0.05136zm0-2.2916q-0.11853 0-0.2015 0.08297-0.082972 0.08297-0.082972 0.2015v1.3434q0 0.11853 0.082972 0.2015 0.082973 0.08297 0.2015 0.08297 0.11853 0 0.2015-0.08297 0.082972-0.08297 0.082972-0.2015v-1.3434q0-0.11853-0.082972-0.2015-0.082973-0.08297-0.2015-0.08297z"/>
     <path d="m7.9679 24.573q-0.10668-0.02766-0.19755-0.08692-0.090875-0.06322-0.15804-0.14619-0.063217-0.08692-0.098777-0.18965-0.03556-0.10273-0.03556-0.21731v-1.3434q0-0.11063 0.03556-0.21336 0.03556-0.10668 0.098777-0.18965 0.067168-0.08692 0.15804-0.14619 0.090875-0.06322 0.19755-0.09088 0.22126-0.05927 0.42672 0.02766 0.20546 0.08297 0.32004 0.28053 0.043462 0.06717 0.019755 0.14224-0.019755 0.07507-0.086923 0.11853-0.067168 0.03951-0.14224 0.01976-0.07507-0.02371-0.11853-0.09088-0.047413-0.08297-0.13829-0.11853-0.086924-0.03951-0.18175-0.01185-0.090875 0.02371-0.15014 0.10273-0.059266 0.07507-0.059266 0.1699v1.3434q0 0.09878 0.059266 0.17385 0.059266 0.07507 0.15014 0.10273 0.094826 0.02371 0.18175-0.01185 0.090875-0.03951 0.13829-0.12248 0.043462-0.06717 0.11853-0.08692 0.07507-0.02371 0.14224 0.01581 0.067168 0.04346 0.086923 0.11853 0.023707 0.07507-0.019755 0.14224-0.11458 0.19755-0.32004 0.28053-0.20546 0.08692-0.42672 0.02766z"/>
     <path d="m10.42 24.325q0.03161 0.07112 4e-3 0.14619-0.02371 0.07507-0.09483 0.10668-0.07112 0.03556-0.14619 0.0079-0.07112-0.02371-0.10668-0.09483l-0.51764-1.0786-0.15014 0.20546v0.79021q0 0.07902-0.055315 0.13434-0.055315 0.05532-0.13434 0.05532-0.079021 0-0.13434-0.05532-0.055315-0.05532-0.055315-0.13434v-2.2916q0-0.07902 0.055315-0.13434 0.055315-0.05532 0.13434-0.05532 0.079021 0 0.13434 0.05532 0.055315 0.05532 0.055315 0.13434v0.84948l0.68354-0.96011q0.04741-0.06322 0.12248-0.07507 0.07902-0.01185 0.14224 0.03161 0.06717 0.04346 0.07902 0.12248 0.01185 0.07507-0.03556 0.14224l-0.59266 0.83368z"/>
     <path d="m11.834 21.78q0.07507 0.02766 0.10668 0.09878 0.03556 0.07112 4e-3 0.14224l-0.94826 2.6077q-0.02766 0.07507-0.09878 0.10668-0.06717 0.03556-0.14224 0.0079-0.07507-0.02766-0.11063-0.09878-0.03161-0.06717-4e-3 -0.14224l0.94826-2.6077q0.02766-0.07507 0.09878-0.10668 0.07112-0.03556 0.14619-0.0079z"/>
     <path d="m3.4473 27.276q0.055315-0.03951 0.082972-0.09483t0.03556-0.12248q0.011853-0.13434-0.082972-0.23706l-0.63217-0.64797q-0.10273-0.10273-0.15014-0.23706-0.047413-0.13434-0.03556-0.27658 0.011853-0.14224 0.079021-0.26472 0.067168-0.12643 0.18175-0.21336 0.11458-0.08692 0.25287-0.11853 0.14224-0.03161 0.28053-4e-3 0.13829 0.03161 0.25287 0.11458 0.11853 0.07902 0.18965 0.20546 0.039511 0.06717 0.015804 0.14224-0.019755 0.07507-0.086924 0.11853-0.067168 0.03951-0.14224 0.01975-0.07507-0.02371-0.11458-0.09088-0.067168-0.10668-0.18965-0.13829-0.12643-0.02371-0.22916 0.05531-0.10273 0.07507-0.11063 0.20546-0.011853 0.12643 0.079021 0.21731l0.62822 0.64798q0.10273 0.10668 0.15409 0.24497 0.051364 0.13829 0.039511 0.28448-0.011853 0.15014-0.082972 0.27658-0.071119 0.12644-0.1857 0.21731-0.11853 0.09088-0.26077 0.12248-0.14224 0.03161-0.28843 4e-3 -0.14619-0.03161-0.26472-0.11458-0.11853-0.08692-0.18965-0.21336-0.043462-0.06717-0.023706-0.14224 0.023706-0.07902 0.090875-0.11853 0.067168-0.03951 0.14224-0.0158 0.07507 0.01975 0.11853 0.08692 0.067168 0.11458 0.2015 0.14619 0.13829 0.02371 0.24497-0.05927z"/>
     <path d="m4.8211 27.719q-0.079021 0-0.13434-0.05532-0.055315-0.05532-0.055315-0.13434v-1.1419l-0.53339-1.0628q-0.03556-0.07112-0.011853-0.14619 0.027657-0.07507 0.098777-0.11063 0.067168-0.03556 0.14224-0.0079 0.07507 0.02371 0.11063 0.09483l0.13039 0.26077q0.055315 0.11458 0.12248 0.24892 0.067168 0.13434 0.13039 0.25682 0.059266-0.12248 0.12643-0.25682 0.071119-0.13434 0.12643-0.24892l0.13038-0.26078q0.03556-0.07112 0.11063-0.09483 0.07507-0.02766 0.14224 0.0079 0.071119 0.03556 0.094826 0.11063 0.027658 0.07507-0.0079 0.14619l-0.53339 1.0628v1.1419q0 0.07902-0.055315 0.13434-0.055315 0.05532-0.13434 0.05532z"/>
     <path d="m7.1432 27.715q-0.067168 0.0158-0.12643-0.01581-0.059266-0.02766-0.086924-0.08692-0.11853-0.25287-0.24892-0.51759-0.11063-0.22521-0.24497-0.49784-0.13039-0.27262-0.25287-0.52944v1.4619q0 0.07902-0.055315 0.13434-0.055315 0.05532-0.13434 0.05532-0.079021 0-0.13434-0.05532-0.055315-0.05532-0.055315-0.13434v-2.2916q0-0.06717 0.039511-0.11853 0.039511-0.05136 0.10668-0.06717 0.067168-0.0158 0.12248 0.0158 0.059266 0.02766 0.090875 0.08692 0.11853 0.25287 0.24892 0.51759 0.11063 0.22521 0.24102 0.49784t0.25682 0.52944v-1.4619q0-0.07902 0.055315-0.13434 0.055315-0.05532 0.13434-0.05532 0.079021 0 0.13434 0.05532 0.055315 0.05532 0.055315 0.13434v2.2916q0 0.06717-0.043462 0.11853-0.039511 0.05136-0.10273 0.06717z"/>
     <path d="m8.1259 27.695q-0.10668-0.02766-0.19755-0.08692-0.090875-0.06322-0.15804-0.14619-0.063217-0.08692-0.098777-0.18965-0.03556-0.10273-0.03556-0.21731v-1.3434q0-0.11063 0.03556-0.21336 0.03556-0.10668 0.098777-0.18965 0.067168-0.08692 0.15804-0.14619 0.090875-0.06322 0.19755-0.09087 0.22126-0.05927 0.42672 0.02766 0.20546 0.08297 0.32004 0.28053 0.043462 0.06717 0.019755 0.14224-0.019755 0.07507-0.086923 0.11853-0.067168 0.03951-0.14224 0.01975-0.07507-0.02371-0.11853-0.09088-0.047413-0.08297-0.13829-0.11853-0.086923-0.03951-0.18175-0.01185-0.090875 0.02371-0.15014 0.10273-0.059266 0.07507-0.059266 0.1699v1.3434q0 0.09878 0.059266 0.17385 0.059266 0.07507 0.15014 0.10273 0.094826 0.02371 0.18175-0.01185 0.090875-0.03951 0.13829-0.12248 0.043462-0.06717 0.11853-0.08692 0.07507-0.02371 0.14224 0.0158 0.067168 0.04346 0.086923 0.11853 0.023706 0.07507-0.019755 0.14224-0.11458 0.19755-0.32004 0.28053-0.20546 0.08692-0.42672 0.02766z"/>
     <path d="m10.119 27.719q-0.07902 0-0.13434-0.05532-0.055315-0.05532-0.055315-0.13434v-2.2916q0-0.07902 0.055315-0.13434 0.055315-0.05532 0.13434-0.05532 0.07902 0 0.13434 0.05532 0.05532 0.05532 0.05532 0.13434v2.2916q0 0.07902-0.05532 0.13434-0.05531 0.05532-0.13434 0.05532z"/>
     <path d="m12.042 27.715q-0.06717 0.0158-0.12643-0.01581-0.05927-0.02766-0.08692-0.08692-0.11853-0.25287-0.24892-0.51759-0.11063-0.22521-0.24497-0.49784-0.13039-0.27262-0.25287-0.52944v1.4619q0 0.07902-0.05532 0.13434-0.05532 0.05532-0.13434 0.05532-0.07902 0-0.13434-0.05532-0.05532-0.05532-0.05532-0.13434v-2.2916q0-0.06717 0.03951-0.11853 0.03951-0.05136 0.10668-0.06717 0.06717-0.0158 0.12248 0.0158 0.05927 0.02766 0.09088 0.08692 0.11853 0.25287 0.24892 0.51759 0.11063 0.22521 0.24102 0.49784 0.13038 0.27262 0.25682 0.52944v-1.4619q0-0.07902 0.05532-0.13434 0.05532-0.05532 0.13434-0.05532 0.07902 0 0.13434 0.05532 0.05532 0.05532 0.05532 0.13434v2.2916q0 0.06717-0.04346 0.11853-0.03951 0.05136-0.10273 0.06717z"/>
    </g>
    <g aria-label="TRIGG OUT ">
     <path d="m30.983 21.869q0.07902 0 0.13434 0.05532 0.05532 0.05532 0.05532 0.13434 0 0.07902-0.05532 0.13434-0.05532 0.05531-0.13434 0.05531h-0.32399v2.0862q0 0.07902-0.05532 0.13434-0.05532 0.05532-0.13434 0.05532-0.07902 0-0.13434-0.05532-0.05532-0.05532-0.05532-0.13434v-2.0862h-0.32399q-0.07902 0-0.13434-0.05531-0.05532-0.05532-0.05532-0.13434 0-0.07902 0.05532-0.13434 0.05532-0.05532 0.13434-0.05532z"/>
     <path d="m32.736 22.754q0 0.1936-0.09878 0.35165-0.09483 0.15409-0.25682 0.23706l0.34374 0.92455q0.03161 0.07507-4e-3 0.14619-0.03161 0.07112-0.10668 0.09878-0.07507 0.02766-0.14619-4e-3 -0.06717-0.03161-0.09878-0.10668l-0.36745-0.98382h-0.21336v0.91665q0 0.07902-0.05532 0.13434-0.05532 0.05532-0.13434 0.05532-0.07902 0-0.13434-0.05532-0.05532-0.05532-0.05532-0.13434v-2.2758q0-0.07902 0.05532-0.13434 0.05532-0.05532 0.13434-0.05532h0.47413q0.13829 0 0.25682 0.05136 0.12248 0.05136 0.21336 0.14224 0.09087 0.09088 0.14224 0.21336 0.05136 0.11853 0.05136 0.25682v0.22126zm-0.94826 0.28448h0.28448q0.11853 0 0.2015-0.08297 0.08297-0.08297 0.08297-0.2015v-0.22126q0-0.11853-0.08297-0.2015-0.08297-0.08297-0.2015-0.08297h-0.28448z"/>
     <path d="m33.225 24.524q-0.07902 0-0.13434-0.05532-0.05531-0.05532-0.05531-0.13434v-2.2916q0-0.07902 0.05531-0.13434 0.05532-0.05532 0.13434-0.05532 0.07902 0 0.13434 0.05532 0.05532 0.05532 0.05532 0.13434v2.2916q0 0.07902-0.05532 0.13434-0.05532 0.05532-0.13434 0.05532z"/>
     <path d="m34.899 23.038q0.07902 0 0.13434 0.05531 0.05532 0.05531 0.05532 0.13434v0.63217q0 0.13829-0.05136 0.26077-0.05136 0.11853-0.14224 0.20941-0.09087 0.09088-0.21336 0.14224-0.11853 0.05136-0.25682 0.05136-0.13829 0-0.26077-0.05136-0.11853-0.05136-0.20941-0.14224-0.08692-0.09087-0.14224-0.20941-0.05136-0.12248-0.05136-0.26077v-1.3434q0-0.11063 0.03556-0.21336 0.03556-0.10668 0.09878-0.18965 0.06717-0.08692 0.15804-0.14619 0.09087-0.06322 0.2015-0.09088 0.10668-0.02766 0.21731-0.01975 0.11063 4e-3 0.20941 0.04741 0.09878 0.03951 0.18175 0.11063 0.08297 0.07112 0.13829 0.1699 0.03951 0.06717 0.01581 0.14224-0.01976 0.07507-0.08692 0.11853-0.06717 0.03951-0.14224 0.01975-0.07507-0.02371-0.11458-0.09087-0.05136-0.08297-0.14224-0.11853-0.08692-0.03951-0.1778-0.01185-0.09483 0.02371-0.15409 0.10273-0.05927 0.07507-0.05927 0.1699v1.3434q0 0.11853 0.08297 0.2015 0.08692 0.08297 0.2015 0.08297 0.11853 0 0.2015-0.08297 0.08297-0.08297 0.08297-0.2015v-0.44252h-0.20546q-0.07902 0-0.13434-0.05532-0.05532-0.05532-0.05532-0.13434 0-0.07902 0.05532-0.13434 0.05532-0.05531 0.13434-0.05531h0.39511z"/>
     <path d="m36.51 23.038q0.07902 0 0.13434 0.05531 0.05531 0.05531 0.05531 0.13434v0.63217q0 0.13829-0.05136 0.26077-0.05136 0.11853-0.14224 0.20941-0.09088 0.09088-0.21336 0.14224-0.11853 0.05136-0.25682 0.05136-0.13829 0-0.26077-0.05136-0.11853-0.05136-0.20941-0.14224-0.08692-0.09087-0.14224-0.20941-0.05136-0.12248-0.05136-0.26077v-1.3434q0-0.11063 0.03556-0.21336 0.03556-0.10668 0.09878-0.18965 0.06717-0.08692 0.15804-0.14619 0.09088-0.06322 0.2015-0.09088 0.10668-0.02766 0.21731-0.01975 0.11063 4e-3 0.20941 0.04741 0.09878 0.03951 0.18175 0.11063 0.08297 0.07112 0.13829 0.1699 0.03951 0.06717 0.0158 0.14224-0.01975 0.07507-0.08692 0.11853-0.06717 0.03951-0.14224 0.01975-0.07507-0.02371-0.11458-0.09087-0.05136-0.08297-0.14224-0.11853-0.08692-0.03951-0.1778-0.01185-0.09483 0.02371-0.15409 0.10273-0.05927 0.07507-0.05927 0.1699v1.3434q0 0.11853 0.08297 0.2015 0.08692 0.08297 0.2015 0.08297 0.11853 0 0.2015-0.08297 0.08297-0.08297 0.08297-0.2015v-0.44252h-0.20546q-0.07902 0-0.13434-0.05532-0.05532-0.05532-0.05532-0.13434 0-0.07902 0.05532-0.13434 0.05532-0.05531 0.13434-0.05531h0.39511z"/>
     <path d="m31.7 27.645q-0.13829 0-0.26077-0.05136-0.11853-0.05136-0.20941-0.14224-0.09088-0.09087-0.14224-0.20941-0.05136-0.12248-0.05136-0.26077v-1.3434q0-0.13829 0.05136-0.25682 0.05136-0.12248 0.14224-0.21336 0.09087-0.09087 0.20941-0.14224 0.12248-0.05136 0.26077-0.05136 0.13829 0 0.25682 0.05136 0.12248 0.05136 0.21336 0.14224 0.09087 0.09088 0.14224 0.21336 0.05136 0.11853 0.05136 0.25682v1.3434q0 0.13829-0.05136 0.26077-0.05136 0.11853-0.14224 0.20941-0.09087 0.09087-0.21336 0.14224-0.11853 0.05136-0.25682 0.05136zm0-2.2916q-0.11853 0-0.2015 0.08297-0.08297 0.08297-0.08297 0.2015v1.3434q0 0.11853 0.08297 0.2015 0.08297 0.08297 0.2015 0.08297 0.11853 0 0.2015-0.08297 0.08297-0.08297 0.08297-0.2015v-1.3434q0-0.11853-0.08297-0.2015-0.08297-0.08297-0.2015-0.08297z"/>
     <path d="m33.058 26.982q0 0.11853 0.08297 0.2015 0.08297 0.08297 0.2015 0.08297 0.11458 0 0.19755-0.08297 0.08692-0.08297 0.08692-0.2015v-1.8175q0-0.07902 0.05531-0.13434 0.05532-0.05532 0.13434-0.05532 0.07902 0 0.13434 0.05532 0.05532 0.05532 0.05532 0.13434v1.8175q0 0.13829-0.05532 0.26077-0.05136 0.11853-0.14224 0.20941-0.08692 0.09087-0.20941 0.14224-0.12248 0.05136-0.25682 0.05136-0.13829 0-0.26077-0.05136-0.11853-0.05136-0.20941-0.14224-0.09087-0.09087-0.14224-0.20941-0.05136-0.12248-0.05136-0.26077v-1.8175q0-0.07902 0.05532-0.13434 0.05532-0.05532 0.13434-0.05532 0.07902 0 0.13434 0.05532 0.05532 0.05532 0.05532 0.13434v1.8175z"/>
     <path d="m35.428 24.99q0.07902 0 0.13434 0.05532 0.05532 0.05531 0.05532 0.13434 0 0.07902-0.05532 0.13434-0.05532 0.05532-0.13434 0.05532h-0.32399v2.0862q0 0.07902-0.05532 0.13434-0.05532 0.05532-0.13434 0.05532-0.07902 0-0.13434-0.05532-0.05532-0.05532-0.05532-0.13434v-2.0862h-0.32399q-0.07902 0-0.13434-0.05532-0.05532-0.05532-0.05532-0.13434 0-0.07902 0.05532-0.13434 0.05532-0.05532 0.13434-0.05532z"/>
    </g>
    <g aria-label="INT">
     <path d="m18.948 47.045q-0.06773 0-0.11515-0.04741-0.04741-0.04741-0.04741-0.11514v-1.9642q0-0.06773 0.04741-0.11514 0.04741-0.04741 0.11515-0.04741 0.06773 0 0.11514 0.04741 0.04741 0.04741 0.04741 0.11514v1.9642q0 0.06773-0.04741 0.11514-0.04741 0.04741-0.11514 0.04741z"/>
     <path d="m20.594 47.041q-0.05757 0.01355-0.10837-0.01355-0.0508-0.02371-0.07451-0.07451-0.1016-0.21674-0.21336-0.44365-0.09483-0.19304-0.20997-0.42672-0.11176-0.23368-0.21674-0.45381v1.2531q0 0.06773-0.04741 0.11514-0.04741 0.04741-0.11514 0.04741-0.06773 0-0.11515-0.04741-0.04741-0.04741-0.04741-0.11514v-1.9642q0-0.05757 0.03387-0.1016 0.03387-0.04403 0.09144-0.05757 0.05757-0.01355 0.10498 0.01355 0.0508 0.02371 0.07789 0.07451 0.1016 0.21674 0.21336 0.44365 0.09483 0.19304 0.20658 0.42672 0.11176 0.23368 0.22013 0.45381v-1.2531q0-0.06773 0.04741-0.11514 0.04741-0.04741 0.11514-0.04741 0.06773 0 0.11515 0.04741 0.04741 0.04741 0.04741 0.11514v1.9642q0 0.05757-0.03725 0.1016-0.03387 0.04403-0.08805 0.05757z"/>
     <path d="m21.962 44.769q0.06773 0 0.11514 0.04741 0.04741 0.04741 0.04741 0.11515 0 0.06773-0.04741 0.11514-0.04741 0.04741-0.11514 0.04741h-0.2777v1.7881q0 0.06773-0.04741 0.11514-0.04741 0.04741-0.11515 0.04741-0.06773 0-0.11514-0.04741-0.04741-0.04741-0.04741-0.11514v-1.7881h-0.2777q-0.06773 0-0.11514-0.04741-0.04741-0.04741-0.04741-0.11514 0-0.06773 0.04741-0.11515 0.04741-0.04741 0.11514-0.04741z"/>
    </g>
    <g aria-label="EXT">
     <path d="m18.459 58.684q0-0.06773 0.04741-0.11514 0.04741-0.04741 0.11514-0.04741h0.67733q0.06773 0 0.11515 0.04741 0.04741 0.04741 0.04741 0.11514 0 0.06773-0.04741 0.11515-0.04741 0.04741-0.11515 0.04741h-0.51477v0.60959h0.44704q0.06773 0 0.11514 0.04741 0.04741 0.04741 0.04741 0.11514 0 0.06773-0.04741 0.11515-0.04741 0.04741-0.11514 0.04741h-0.44704v0.67733h0.51477q0.06773 0 0.11515 0.04741 0.04741 0.04741 0.04741 0.11515 0 0.06773-0.04741 0.11514-0.04741 0.04741-0.11515 0.04741h-0.67733q-0.06773 0-0.11514-0.04741-0.04741-0.04741-0.04741-0.11514v-1.9372z"/>
     <path d="m19.644 60.78q-0.05757-0.03048-0.08128-0.09482-0.02032-0.06435 0.01016-0.12192l0.47074-0.94487-0.43688-0.87375q-0.03048-0.06096-0.01016-0.12531 0.02371-0.06435 0.08128-0.09483 0.06096-0.03048 0.1253-0.0068 0.06435 0.02032 0.09483 0.08128l0.3285 0.65701 0.3285-0.65701q0.03048-0.06096 0.09483-0.08128 0.06435-0.02371 0.12192 0.0068 0.06096 0.03048 0.08128 0.09483 0.02371 0.06435-0.0068 0.12531l-0.43688 0.87375 0.47074 0.94487q0.03048 0.05757 0.0068 0.12192-0.02032 0.06435-0.08128 0.09482-0.05757 0.03048-0.12192 0.0068-0.06435-0.02032-0.09483-0.07789l-0.36237-0.72812-0.36237 0.72812q-0.03048 0.05757-0.09483 0.07789-0.06435 0.02371-0.1253-0.0068z"/>
     <path d="m22.008 58.521q0.06773 0 0.11514 0.04741 0.04741 0.04741 0.04741 0.11514 0 0.06773-0.04741 0.11515-0.04741 0.04741-0.11514 0.04741h-0.2777v1.7881q0 0.06773-0.04741 0.11515-0.04741 0.04741-0.11514 0.04741-0.06773 0-0.11515-0.04741-0.04741-0.04741-0.04741-0.11515v-1.7881h-0.27771q-0.06773 0-0.11515-0.04741-0.04741-0.04741-0.04741-0.11515 0-0.06773 0.04741-0.11514 0.04741-0.04741 0.11515-0.04741z"/>
    </g>
   </g>
   <g aria-label="SAMPLING MODULATOR">
    <path d="m13.173 2.9292q0 0.34192-0.29063 0.55639-0.28907 0.21292-0.7864 0.21292-0.28752 0-0.50199-0.049733-0.21292-0.051287-0.39942-0.129v-0.55484h0.06528q0.18494 0.14765 0.41341 0.22691 0.23002 0.079262 0.44138 0.079262 0.05439 0 0.14298-0.00932 0.08859-0.00933 0.14454-0.031083 0.06838-0.027975 0.1119-0.069937 0.04507-0.041962 0.04507-0.12433 0-0.076154-0.06527-0.13055-0.06372-0.05595-0.18805-0.085479-0.13055-0.031083-0.27664-0.057504-0.14455-0.02798-0.27199-0.069942-0.29218-0.094804-0.42118-0.25644-0.12744-0.16319-0.12744-0.40408 0-0.32327 0.28907-0.52686 0.29063-0.20515 0.746-0.20515 0.22846 0 0.45071 0.045071 0.2238 0.043516 0.38698 0.11035v0.53308h-0.06372q-0.13988-0.1119-0.34347-0.1865-0.20204-0.076154-0.41341-0.076154-0.0746 0-0.1492 0.010879-0.07305 0.00932-0.14143 0.0373-0.06061 0.023312-0.10413 0.071491-0.04352 0.046625-0.04352 0.10724 0 0.091696 0.06994 0.14143 0.06994 0.048179 0.26421 0.088587 0.12744 0.026421 0.244 0.051287 0.11812 0.024867 0.25333 0.068383 0.26576 0.087033 0.39165 0.23779 0.12744 0.1492 0.12744 0.38854z"/>
    <path d="m15.705 3.6566h-0.617l-0.16008-0.4678h-0.8579l-0.16008 0.4678h-0.60146l0.85479-2.3141h0.68694zm-0.92162-0.89209-0.28441-0.82992-0.28441 0.82992z"/>
    <path d="m18.448 3.6566h-0.59369v-1.5495l-0.42895 1.0055h-0.41185l-0.42895-1.0055v1.5495h-0.56261v-2.3141h0.69316l0.52064 1.161 0.51909-1.161h0.69316z"/>
    <path d="m20.933 2.0729q0 0.15542-0.0544 0.30462-0.0544 0.14765-0.15542 0.24867-0.13832 0.13677-0.30928 0.2067-0.1694 0.069937-0.42273 0.069937h-0.37144v0.75377h-0.5968v-2.3141h0.98223q0.22069 0 0.37144 0.038854 0.15231 0.0373 0.26887 0.11345 0.13987 0.091695 0.21292 0.23468 0.0746 0.14298 0.0746 0.34347zm-0.617 0.013987q0-0.097912-0.05284-0.16785-0.05284-0.071491-0.12278-0.099466-0.09325-0.0373-0.18184-0.040408-0.08859-0.00466-0.23623-0.00466h-0.10258v0.69315h0.17096q0.15231 0 0.25022-0.01865 0.09947-0.01865 0.1663-0.0746 0.0575-0.049733 0.08237-0.11812 0.02642-0.069937 0.02642-0.1694z"/>
    <path d="m23.009 3.6566h-1.6692v-2.3141h0.5968v1.8665h1.0724z"/>
    <path d="m24.604 3.6566h-1.3552v-0.4103h0.37922v-1.4935h-0.37922v-0.4103h1.3552v0.4103h-0.37922v1.4935h0.37922z"/>
    <path d="m27.179 3.6566h-0.57504l-0.98223-1.5884v1.5884h-0.54706v-2.3141h0.71336l0.84391 1.3257v-1.3257h0.54706z"/>
    <path d="m29.801 3.5245q-0.15542 0.060612-0.41185 0.12122-0.25644 0.059058-0.51132 0.059058-0.59058 0-0.92472-0.32016-0.33414-0.32171-0.33414-0.88743 0-0.53929 0.33725-0.86878 0.33725-0.33104 0.94027-0.33104 0.22846 0 0.43516 0.041962 0.2067 0.040408 0.46003 0.16319v0.5424h-0.06683q-0.04352-0.032637-0.12744-0.091696-0.08392-0.060612-0.16163-0.10257-0.09014-0.049733-0.21137-0.085479-0.11967-0.035746-0.25488-0.035746-0.15852 0-0.28752 0.046625t-0.23157 0.14298q-0.09791 0.09325-0.15542 0.23779-0.05595 0.14298-0.05595 0.33104 0 0.38388 0.2036 0.58747 0.2036 0.20359 0.60146 0.20359 0.03419 0 0.0746-0.00155 0.04196-0.00155 0.07615-0.00466v-0.45382h-0.46159v-0.43672h1.0677z"/>
    <path d="m11.902 6.6803h-0.59369v-1.5495l-0.42895 1.0055h-0.41185l-0.42895-1.0055v1.5495h-0.56261v-2.3141h0.69316l0.52064 1.161 0.51909-1.161h0.69316z"/>
    <path d="m14.727 5.524q0 0.55328-0.31705 0.87965-0.31705 0.32482-0.87655 0.32482-0.55794 0-0.87499-0.32482-0.31705-0.32637-0.31705-0.87965 0-0.55794 0.31705-0.88121 0.31705-0.32482 0.87499-0.32482 0.55639 0 0.87499 0.32482 0.3186 0.32327 0.3186 0.88121zm-0.79107 0.58592q0.08703-0.10568 0.129-0.24867 0.04196-0.14454 0.04196-0.33881 0-0.20826-0.04818-0.35435-0.04818-0.14609-0.12589-0.23623-0.07926-0.09325-0.18339-0.13521-0.10257-0.041962-0.21447-0.041962-0.11345 0-0.21447 0.040408-0.09947 0.040408-0.18339 0.13366-0.07771 0.087033-0.12744 0.24089-0.04818 0.15231-0.04818 0.35435 0 0.2067 0.04662 0.35279 0.04818 0.14454 0.12589 0.23623 0.07771 0.091695 0.18184 0.13521 0.10413 0.043517 0.21914 0.043517t0.21914-0.043517q0.10413-0.045071 0.18184-0.13832z"/>
    <path d="m17.354 5.5256q0 0.32327-0.14765 0.5797-0.14764 0.25488-0.373 0.39165-0.1694 0.10257-0.37144 0.14298-0.20204 0.040408-0.47868 0.040408h-0.81593v-2.3141h0.83925q0.28286 0 0.48801 0.048179 0.20515 0.046625 0.34502 0.13366 0.23934 0.14609 0.37611 0.39476 0.13832 0.24711 0.13832 0.58281zm-0.617-0.00466q0-0.22846-0.08393-0.39009-0.08237-0.16319-0.26265-0.25488-0.09169-0.045071-0.18805-0.060612-0.0948-0.017096-0.28752-0.017096h-0.15075v1.4485h0.15075q0.21292 0 0.31239-0.01865 0.09947-0.020204 0.19427-0.071491 0.16319-0.09325 0.23934-0.24867 0.07615-0.15697 0.07615-0.38699z"/>
    <path d="m19.82 5.8426q0 0.42895-0.2611 0.65741-0.2611 0.22846-0.76931 0.22846t-0.76931-0.22846q-0.25954-0.22846-0.25954-0.65586v-1.478h0.59991v1.4438q0 0.24089 0.10102 0.35901 0.10102 0.11812 0.32793 0.11812 0.2238 0 0.32637-0.11345 0.10413-0.11345 0.10413-0.36367v-1.4438h0.59991z"/>
    <path d="m22.031 6.6803h-1.6692v-2.3141h0.5968v1.8665h1.0724z"/>
    <path d="m24.513 6.6803h-0.617l-0.16008-0.4678h-0.8579l-0.16008 0.4678h-0.60146l0.85479-2.3141h0.68694zm-0.92162-0.89209-0.28441-0.82992-0.28441 0.82992z"/>
    <path d="m26.641 4.8138h-0.72268v1.8665h-0.5968v-1.8665h-0.72268v-0.4476h2.0422z"/>
    <path d="m29.235 5.524q0 0.55328-0.31705 0.87965-0.31705 0.32482-0.87655 0.32482-0.55794 0-0.87499-0.32482-0.31705-0.32637-0.31705-0.87965 0-0.55794 0.31705-0.88121 0.31705-0.32482 0.87499-0.32482 0.55639 0 0.87499 0.32482 0.3186 0.32327 0.3186 0.88121zm-0.79107 0.58592q0.08703-0.10568 0.129-0.24867 0.04196-0.14454 0.04196-0.33881 0-0.20826-0.04818-0.35435-0.04818-0.14609-0.12589-0.23623-0.07926-0.09325-0.18339-0.13521-0.10258-0.041962-0.21447-0.041962-0.11345 0-0.21447 0.040408-0.09947 0.040408-0.18339 0.13366-0.07771 0.087033-0.12744 0.24089-0.04818 0.15231-0.04818 0.35435 0 0.2067 0.04663 0.35279 0.04818 0.14454 0.12589 0.23623 0.07771 0.091695 0.18184 0.13521 0.10413 0.043517 0.21914 0.043517t0.21914-0.043517q0.10413-0.045071 0.18184-0.13832z"/>
    <path d="m30.972 5.0749q0-0.087033-0.03575-0.1492-0.03575-0.062166-0.12278-0.097912-0.06061-0.024867-0.14143-0.029529-0.08082-0.00622-0.18805-0.00622h-0.21603v0.62322h0.18339q0.14298 0 0.23934-0.013987 0.09636-0.013987 0.16163-0.063721 0.06217-0.048179 0.09014-0.10568 0.02953-0.059058 0.02953-0.15697zm0.93094 1.6054h-0.7289l-0.63099-0.84857h-0.27509v0.84857h-0.59369v-2.3141h1.0009q0.20515 0 0.3528 0.023312 0.14764 0.023312 0.27664 0.10102 0.13055 0.077708 0.2067 0.20204 0.07771 0.12278 0.07771 0.30928 0 0.25644-0.11967 0.41807-0.11812 0.16163-0.33881 0.26887z"/>
   </g>
   <g stroke-width=".28222">
    <g aria-label="V/Oct CV  ">
     <path d="m16.915 33.452q-0.01838-0.07353 0.0147-0.13602 0.03676-0.0625 0.11029-0.08088 0.06985-0.01838 0.13234 0.01838 0.06617 0.03309 0.08455 0.10294 0.06985 0.26102 0.14338 0.52571 0.0625 0.22793 0.13602 0.49262 0.07353 0.26469 0.1397 0.49997 0.0625-0.23528 0.13602-0.49997 0.07353-0.26469 0.13602-0.49262 0.06985-0.26469 0.14338-0.52571 0.01838-0.06985 0.08088-0.10294 0.06617-0.03676 0.13602-0.01838 0.07352 0.01838 0.10661 0.08088 0.03676 0.0625 0.01838 0.13602l-0.5882 2.1322q-0.01838 0.05882-0.06617 0.09191-0.04411 0.03676-0.10294 0.03676-0.0625 0-0.11029-0.03676-0.04411-0.03309-0.0625-0.09191z"/>
     <path d="m19.748 33.092q0.06985 0.02573 0.09926 0.09191 0.03309 0.06617 0.0037 0.13234l-0.8823 2.4263q-0.02573 0.06985-0.09191 0.09926-0.0625 0.03309-0.13235 0.0074-0.06985-0.02573-0.10294-0.09191-0.02941-0.0625-0.0037-0.13235l0.8823-2.4263q0.02573-0.06985 0.09191-0.09926 0.06617-0.03309 0.13602-0.0074z"/>
     <path d="m20.758 35.713q-0.12867 0-0.24263-0.04779-0.11029-0.04779-0.19484-0.13235-0.08455-0.08455-0.13235-0.19484-0.04779-0.11396-0.04779-0.24263v-1.2499q0-0.12867 0.04779-0.23896 0.04779-0.11396 0.13235-0.19852 0.08455-0.08455 0.19484-0.13235 0.11396-0.04779 0.24263-0.04779 0.12867 0 0.23896 0.04779 0.11396 0.04779 0.19852 0.13235 0.08455 0.08455 0.13235 0.19852 0.04779 0.11029 0.04779 0.23896v1.2499q0 0.12867-0.04779 0.24263-0.04779 0.11029-0.13235 0.19484-0.08455 0.08455-0.19852 0.13235-0.11029 0.04779-0.23896 0.04779zm0-2.1322q-0.11029 0-0.18749 0.0772-0.0772 0.0772-0.0772 0.18749v1.2499q0 0.11029 0.0772 0.18749 0.0772 0.0772 0.18749 0.0772 0.11029 0 0.18749-0.0772 0.0772-0.0772 0.0772-0.18749v-1.2499q0-0.11029-0.0772-0.18749-0.0772-0.0772-0.18749-0.0772z"/>
     <path d="m21.992 35.662q-0.15073-0.0625-0.23896-0.19484-0.08823-0.13235-0.08823-0.29778v-0.73525q0-0.16543 0.08823-0.29778 0.08823-0.13234 0.23896-0.19484 0.1544-0.0625 0.30881-0.02941 0.15808 0.02941 0.27204 0.14705 0.05147 0.04779 0.05147 0.11764 0 0.06617-0.05147 0.11396-0.04779 0.05147-0.11764 0.05147-0.06617 0-0.11396-0.05147-0.04412-0.04411-0.10661-0.05514-0.05882-0.01103-0.11396 0.01103-0.05882 0.02573-0.09191 0.0772-0.03309 0.04779-0.03309 0.11029v0.73525q0 0.0625 0.03309 0.11396 0.03309 0.04779 0.09191 0.07353 0.05514 0.02206 0.11396 0.01103 0.0625-0.01103 0.10661-0.05514 0.04779-0.05147 0.11396-0.05147 0.06985 0 0.11764 0.05147 0.05147 0.05147 0.05147 0.11764t-0.05147 0.11764q-0.11396 0.11396-0.27204 0.14338-0.1544 0.03309-0.30881-0.02941z"/>
     <path d="m22.903 34.246q-0.06985 0-0.11764-0.04779t-0.04779-0.11764q0-0.06985 0.04779-0.11764t0.11764-0.04779h0.12867v-0.58453q0-0.06985 0.04779-0.11764t0.11764-0.04779q0.06985 0 0.11764 0.04779 0.04779 0.04779 0.04779 0.11764v0.58453h0.2022q0.06985 0 0.11764 0.04779 0.04779 0.04779 0.04779 0.11764t-0.04779 0.11764q-0.04779 0.04779-0.11764 0.04779h-0.2022v0.92274q0 0.08456 0.05882 0.14338 0.05882 0.05882 0.14337 0.05882 0.06985 0 0.11764 0.04779 0.04779 0.04779 0.04779 0.11764t-0.04779 0.11764q-0.04779 0.04779-0.11764 0.04779-0.11029 0-0.20955-0.04411-0.09558-0.04044-0.16911-0.11029-0.06985-0.07352-0.11396-0.16911-0.04044-0.09926-0.04044-0.20955v-0.92274h-0.12867z"/>
     <path d="m19.397 38.595q-0.09926-0.02573-0.18381-0.08088-0.08455-0.05882-0.14705-0.13602-0.05882-0.08088-0.09191-0.17646-0.03309-0.09558-0.03309-0.2022v-1.2499q0-0.10294 0.03309-0.19852 0.03309-0.09926 0.09191-0.17646 0.0625-0.08088 0.14705-0.13602 0.08455-0.05882 0.18381-0.08455 0.20587-0.05514 0.39704 0.02573 0.19117 0.0772 0.29778 0.26102 0.04044 0.0625 0.01838 0.13235-0.01838 0.06985-0.08088 0.11029-0.0625 0.03676-0.13235 0.01838-0.06985-0.02206-0.11029-0.08455-0.04412-0.0772-0.12867-0.11029-0.08088-0.03676-0.16911-0.01103-0.08455 0.02206-0.1397 0.09558-0.05514 0.06985-0.05514 0.15808v1.2499q0 0.09191 0.05514 0.16176 0.05514 0.06985 0.1397 0.09558 0.08823 0.02206 0.16911-0.01103 0.08455-0.03676 0.12867-0.11396 0.04044-0.0625 0.11029-0.08088 0.06985-0.02206 0.13235 0.0147 0.0625 0.04044 0.08088 0.11029 0.02206 0.06985-0.01838 0.13235-0.10661 0.18381-0.29778 0.26102-0.19117 0.08088-0.39704 0.02573z"/>
     <path d="m20.259 36.356q-0.01838-0.07353 0.0147-0.13602 0.03676-0.0625 0.11029-0.08088 0.06985-0.01838 0.13235 0.01838 0.06617 0.03309 0.08455 0.10294 0.06985 0.26102 0.14338 0.52571 0.0625 0.22793 0.13602 0.49262 0.07353 0.26469 0.1397 0.49997 0.0625-0.23528 0.13602-0.49997 0.07353-0.26469 0.13602-0.49262 0.06985-0.26469 0.14338-0.52571 0.01838-0.06985 0.08088-0.10294 0.06617-0.03676 0.13602-0.01838 0.07353 0.01838 0.10661 0.08088 0.03676 0.0625 0.01838 0.13602l-0.5882 2.1322q-0.01838 0.05882-0.06617 0.09191-0.04412 0.03676-0.10294 0.03676-0.0625 0-0.11029-0.03676-0.04411-0.03309-0.0625-0.09191z"/>
    </g>
    <g aria-label="CLOCK OUT ">
     <path d="m14.218 22.237q-0.10876-0.0282-0.2014-0.08862-0.09265-0.06445-0.16112-0.14904-0.06445-0.08862-0.1007-0.19335-0.03625-0.10473-0.03625-0.22155v-1.3696q0-0.11279 0.03625-0.21752 0.03625-0.10876 0.1007-0.19335 0.06848-0.08862 0.16112-0.14904 0.09265-0.06445 0.2014-0.09265 0.22557-0.06042 0.43504 0.0282 0.20946 0.08459 0.32628 0.286 0.04431 0.06848 0.02014 0.14501-0.02014 0.07653-0.08862 0.12084-0.06848 0.04028-0.14501 0.02014-0.07653-0.02417-0.12084-0.09265-0.04834-0.08459-0.14098-0.12084-0.08862-0.04028-0.18529-0.01208-0.09265 0.02417-0.15307 0.10473-0.06042 0.07653-0.06042 0.17321v1.3696q0 0.1007 0.06042 0.17724 0.06042 0.07653 0.15307 0.10473 0.09667 0.02417 0.18529-0.01208 0.09265-0.04028 0.14098-0.12487 0.04431-0.06848 0.12084-0.08862 0.07653-0.02417 0.14501 0.01611 0.06848 0.04431 0.08862 0.12084 0.02417 0.07653-0.02014 0.14501-0.11682 0.2014-0.32628 0.286-0.20946 0.08862-0.43504 0.0282z"/>
     <path d="m15.491 22.245q-0.08056 0-0.13696-0.05639-0.05639-0.05639-0.05639-0.13696v-2.3202q0-0.08056 0.05639-0.13696 0.05639-0.05639 0.13696-0.05639 0.08056 0 0.13696 0.05639 0.05639 0.05639 0.05639 0.13696v2.1268h0.61227q0.08056 0 0.13696 0.05639 0.05639 0.05639 0.05639 0.13696 0 0.08056-0.05639 0.13696-0.05639 0.05639-0.13696 0.05639h-0.80562z"/>
     <path d="m17.308 22.261q-0.14098 0-0.26586-0.05237-0.12084-0.05236-0.21349-0.14501-0.09265-0.09265-0.14501-0.21349-0.05237-0.12487-0.05237-0.26586v-1.3696q0-0.14098 0.05237-0.26183 0.05236-0.12487 0.14501-0.21752 0.09265-0.09265 0.21349-0.14501 0.12487-0.05236 0.26586-0.05236 0.14098 0 0.26183 0.05236 0.12487 0.05237 0.21752 0.14501 0.09265 0.09265 0.14501 0.21752 0.05236 0.12084 0.05236 0.26183v1.3696q0 0.14098-0.05236 0.26586-0.05237 0.12084-0.14501 0.21349-0.09265 0.09265-0.21752 0.14501-0.12084 0.05237-0.26183 0.05237zm0-2.3363q-0.12084 0-0.20543 0.08459-0.08459 0.08459-0.08459 0.20543v1.3696q0 0.12084 0.08459 0.20543t0.20543 0.08459q0.12084 0 0.20543-0.08459t0.08459-0.20543v-1.3696q0-0.12084-0.08459-0.20543t-0.20543-0.08459z"/>
     <path d="m18.786 22.237q-0.10876-0.0282-0.2014-0.08862-0.09265-0.06445-0.16112-0.14904-0.06445-0.08862-0.1007-0.19335-0.03625-0.10473-0.03625-0.22155v-1.3696q0-0.11279 0.03625-0.21752 0.03625-0.10876 0.1007-0.19335 0.06848-0.08862 0.16112-0.14904 0.09265-0.06445 0.2014-0.09265 0.22557-0.06042 0.43504 0.0282 0.20946 0.08459 0.32628 0.286 0.04431 0.06848 0.02014 0.14501-0.02014 0.07653-0.08862 0.12084-0.06848 0.04028-0.14501 0.02014-0.07653-0.02417-0.12084-0.09265-0.04834-0.08459-0.14098-0.12084-0.08862-0.04028-0.18529-0.01208-0.09265 0.02417-0.15307 0.10473-0.06042 0.07653-0.06042 0.17321v1.3696q0 0.1007 0.06042 0.17724 0.06042 0.07653 0.15307 0.10473 0.09667 0.02417 0.18529-0.01208 0.09265-0.04028 0.14098-0.12487 0.04431-0.06848 0.12084-0.08862 0.07653-0.02417 0.14501 0.01611 0.06848 0.04431 0.08862 0.12084 0.02417 0.07653-0.02014 0.14501-0.11682 0.2014-0.32628 0.286-0.20946 0.08862-0.43504 0.0282z"/>
     <path d="m21.283 21.984q0.03223 0.07251 4e-3 0.14904-0.02417 0.07653-0.09667 0.10876-0.07251 0.03625-0.14904 0.0081-0.0725-0.02417-0.10876-0.09668l-0.52766-1.0997-0.15307 0.20946v0.80562q0 0.08056-0.05639 0.13696-0.05639 0.05639-0.13696 0.05639-0.08056 0-0.13696-0.05639-0.05639-0.05639-0.05639-0.13696v-2.3363q0-0.08056 0.05639-0.13696 0.05639-0.05639 0.13696-0.05639 0.08056 0 0.13696 0.05639 0.05639 0.05639 0.05639 0.13696v0.86604l0.69686-0.97883q0.04834-0.06445 0.12487-0.07653 0.08056-0.01208 0.14501 0.03222 0.06848 0.04431 0.08056 0.12487 0.01208 0.07653-0.03625 0.14501l-0.60422 0.84993z"/>
     <path d="m22.923 22.261q-0.14098 0-0.26585-0.05237-0.12084-0.05236-0.21349-0.14501-0.09265-0.09265-0.14501-0.21349-0.05236-0.12487-0.05236-0.26586v-1.3696q0-0.14098 0.05236-0.26183 0.05237-0.12487 0.14501-0.21752 0.09265-0.09265 0.21349-0.14501 0.12487-0.05236 0.26585-0.05236 0.14098 0 0.26183 0.05236 0.12487 0.05237 0.21752 0.14501 0.09265 0.09265 0.14501 0.21752 0.05237 0.12084 0.05237 0.26183v1.3696q0 0.14098-0.05237 0.26586-0.05236 0.12084-0.14501 0.21349-0.09265 0.09265-0.21752 0.14501-0.12084 0.05237-0.26183 0.05237zm0-2.3363q-0.12084 0-0.20543 0.08459t-0.08459 0.20543v1.3696q0 0.12084 0.08459 0.20543t0.20543 0.08459 0.20543-0.08459q0.08459-0.08459 0.08459-0.20543v-1.3696q0-0.12084-0.08459-0.20543t-0.20543-0.08459z"/>
     <path d="m24.304 21.585q0 0.12084 0.08459 0.20543t0.20543 0.08459q0.11682 0 0.2014-0.08459 0.08862-0.08459 0.08862-0.20543v-1.8529q0-0.08056 0.05639-0.13696 0.05639-0.05639 0.13696-0.05639 0.08056 0 0.13696 0.05639 0.05639 0.05639 0.05639 0.13696v1.8529q0 0.14098-0.05639 0.26586-0.05237 0.12084-0.14501 0.21349-0.08862 0.09265-0.21349 0.14501-0.12487 0.05237-0.26183 0.05237-0.14098 0-0.26585-0.05237-0.12084-0.05236-0.21349-0.14501-0.09265-0.09265-0.14501-0.21349-0.05237-0.12487-0.05237-0.26586v-1.8529q0-0.08056 0.05639-0.13696 0.05639-0.05639 0.13696-0.05639 0.08056 0 0.13696 0.05639 0.05639 0.05639 0.05639 0.13696v1.8529z"/>
     <path d="m26.717 19.555q0.08056 0 0.13696 0.05639 0.05639 0.05639 0.05639 0.13696 0 0.08056-0.05639 0.13696-0.05639 0.05639-0.13696 0.05639h-0.3303v2.1268q0 0.08056-0.05639 0.13696-0.05639 0.05639-0.13696 0.05639-0.08056 0-0.13696-0.05639-0.05639-0.05639-0.05639-0.13696v-2.1268h-0.3303q-0.08056 0-0.13696-0.05639-0.05639-0.05639-0.05639-0.13696 0-0.08056 0.05639-0.13696 0.05639-0.05639 0.13696-0.05639z"/>
    </g>
    <g aria-label="FINE">
     <path d="m28.454 47.513q-0.07902 0-0.13434-0.05532-0.05532-0.05532-0.05532-0.13434v-2.26q0-0.07902 0.05532-0.13434 0.05532-0.05531 0.13434-0.05531h0.79021q0.07902 0 0.13434 0.05531 0.05532 0.05532 0.05532 0.13434 0 0.07902-0.05532 0.13434-0.05532 0.05531-0.13434 0.05531h-0.60056v0.71119h0.52154q0.07902 0 0.13434 0.05532 0.05532 0.05532 0.05532 0.13434 0 0.07902-0.05532 0.13434-0.05532 0.05532-0.13434 0.05532h-0.52154v0.97986q0 0.07902-0.05532 0.13434-0.05532 0.05532-0.13434 0.05532z"/>
     <path d="m29.859 47.529q-0.07902 0-0.13434-0.05532-0.05532-0.05532-0.05532-0.13434v-2.2916q0-0.07902 0.05532-0.13434 0.05531-0.05532 0.13434-0.05532 0.07902 0 0.13434 0.05532 0.05532 0.05532 0.05532 0.13434v2.2916q0 0.07902-0.05532 0.13434-0.05532 0.05532-0.13434 0.05532z"/>
     <path d="m31.782 47.525q-0.06717 0.0158-0.12643-0.0158-0.05927-0.02766-0.08692-0.08692-0.11853-0.25287-0.24892-0.51759-0.11063-0.22521-0.24497-0.49784-0.13039-0.27262-0.25287-0.52944v1.4619q0 0.07902-0.05532 0.13434-0.05532 0.05532-0.13434 0.05532-0.07902 0-0.13434-0.05532-0.05531-0.05532-0.05531-0.13434v-2.2916q0-0.06717 0.03951-0.11853 0.03951-0.05136 0.10668-0.06717 0.06717-0.01581 0.12248 0.0158 0.05927 0.02766 0.09088 0.08692 0.11853 0.25287 0.24892 0.51759 0.11063 0.22521 0.24102 0.49784 0.13038 0.27262 0.25682 0.52944v-1.4619q0-0.07902 0.05531-0.13434 0.05532-0.05532 0.13434-0.05532 0.07902 0 0.13434 0.05532 0.05532 0.05532 0.05532 0.13434v2.2916q0 0.06717-0.04346 0.11853-0.03951 0.05136-0.10273 0.06717z"/>
     <path d="m32.323 45.063q0-0.07902 0.05532-0.13434 0.05532-0.05531 0.13434-0.05531h0.79022q0.07902 0 0.13434 0.05531 0.05532 0.05532 0.05532 0.13434 0 0.07902-0.05532 0.13434-0.05532 0.05531-0.13434 0.05531h-0.60056v0.71119h0.52154q0.07902 0 0.13434 0.05532 0.05532 0.05532 0.05532 0.13434 0 0.07902-0.05532 0.13434-0.05531 0.05532-0.13434 0.05532h-0.52154v0.79021h0.60056q0.07902 0 0.13434 0.05532 0.05532 0.05532 0.05532 0.13434 0 0.07902-0.05532 0.13434-0.05532 0.05532-0.13434 0.05532h-0.79022q-0.07902 0-0.13434-0.05532-0.05532-0.05532-0.05532-0.13434z"/>
    </g>
   </g>
  </g>
  <g transform="matrix(.19603 0 0 .19603 -26.602 -74.172)">
   <g>
    <g transform="translate(0 597.4)" aria-label="RESET">
     <path d="m251.18 304.95q0 0.686-0.35 1.246-0.336 0.546-0.91 0.84l1.218 3.276q0.112 0.266-0.014 0.518-0.112 0.252-0.378 0.35t-0.518-0.014q-0.238-0.112-0.35-0.378l-1.302-3.486h-0.756v3.248q0 0.28-0.196 0.476t-0.476 0.196-0.476-0.196-0.196-0.476v-8.064q0-0.28 0.196-0.476t0.476-0.196h1.68q0.49 0 0.91 0.182 0.434 0.182 0.756 0.504t0.504 0.756q0.182 0.42 0.182 0.91zm-3.36 1.008h1.008q0.42 0 0.714-0.294t0.294-0.714v-0.784q0-0.42-0.294-0.714t-0.714-0.294h-1.008z"/>
     <path d="m252.24 302.49q0-0.28 0.196-0.476t0.476-0.196h2.8q0.28 0 0.476 0.196t0.196 0.476-0.196 0.476-0.476 0.196h-2.128v2.52h1.848q0.28 0 0.476 0.196t0.196 0.476-0.196 0.476-0.476 0.196h-1.848v2.8h2.128q0.28 0 0.476 0.196t0.196 0.476-0.196 0.476-0.476 0.196h-2.8q-0.28 0-0.476-0.196t-0.196-0.476z"/>
     <path d="m259.84 309.65q0.196-0.14 0.294-0.336t0.126-0.434q0.042-0.476-0.294-0.84l-2.24-2.296q-0.364-0.364-0.532-0.84t-0.126-0.98 0.28-0.938q0.238-0.448 0.644-0.756t0.896-0.42q0.504-0.112 0.994-0.014 0.49 0.112 0.896 0.406 0.42 0.28 0.672 0.728 0.14 0.238 0.056 0.504-0.07 0.266-0.308 0.42-0.238 0.14-0.504 0.07-0.266-0.084-0.406-0.322-0.238-0.378-0.672-0.49-0.448-0.084-0.812 0.196-0.364 0.266-0.392 0.728-0.042 0.448 0.28 0.77l2.226 2.296q0.364 0.378 0.546 0.868t0.14 1.008q-0.042 0.532-0.294 0.98t-0.658 0.77q-0.42 0.322-0.924 0.434t-1.022 0.014q-0.518-0.112-0.938-0.406-0.42-0.308-0.672-0.756-0.154-0.238-0.084-0.504 0.084-0.28 0.322-0.42t0.504-0.056q0.266 0.07 0.42 0.308 0.238 0.406 0.714 0.518 0.49 0.084 0.868-0.21z"/>
     <path d="m262.62 302.49q0-0.28 0.196-0.476t0.476-0.196h2.8q0.28 0 0.476 0.196t0.196 0.476-0.196 0.476-0.476 0.196h-2.128v2.52h1.848q0.28 0 0.476 0.196t0.196 0.476-0.196 0.476-0.476 0.196h-1.848v2.8h2.128q0.28 0 0.476 0.196t0.196 0.476-0.196 0.476-0.476 0.196h-2.8q-0.28 0-0.476-0.196t-0.196-0.476z"/>
     <path d="m271.46 301.81q0.28 0 0.476 0.196t0.196 0.476-0.196 0.476-0.476 0.196h-1.148v7.392q0 0.28-0.196 0.476t-0.476 0.196-0.476-0.196-0.196-0.476v-7.392h-1.148q-0.28 0-0.476-0.196t-0.196-0.476 0.196-0.476 0.476-0.196z"/>
    </g>
    <g transform="translate(0 597.4)" aria-label="OFF">
     <path d="m248.66 301.22q-0.49 0-0.924-0.182-0.42-0.182-0.742-0.504t-0.504-0.742q-0.182-0.434-0.182-0.924v-4.76q0-0.49 0.182-0.91 0.182-0.434 0.504-0.756t0.742-0.504q0.434-0.182 0.924-0.182t0.91 0.182q0.434 0.182 0.756 0.504t0.504 0.756q0.182 0.42 0.182 0.91v4.76q0 0.49-0.182 0.924-0.182 0.42-0.504 0.742t-0.756 0.504q-0.42 0.182-0.91 0.182zm0-8.12q-0.42 0-0.714 0.294t-0.294 0.714v4.76q0 0.42 0.294 0.714t0.714 0.294 0.714-0.294 0.294-0.714v-4.76q0-0.42-0.294-0.714t-0.714-0.294z"/>
     <path d="m252.91 301.17q-0.28 0-0.476-0.196t-0.196-0.476v-8.008q0-0.28 0.196-0.476t0.476-0.196h2.8q0.28 0 0.476 0.196t0.196 0.476-0.196 0.476-0.476 0.196h-2.128v2.52h1.848q0.28 0 0.476 0.196t0.196 0.476-0.196 0.476-0.476 0.196h-1.848v3.472q0 0.28-0.196 0.476t-0.476 0.196z"/>
     <path d="m257.89 301.17q-0.28 0-0.476-0.196t-0.196-0.476v-8.008q0-0.28 0.196-0.476t0.476-0.196h2.8q0.28 0 0.476 0.196t0.196 0.476-0.196 0.476-0.476 0.196h-2.128v2.52h1.848q0.28 0 0.476 0.196t0.196 0.476-0.196 0.476-0.476 0.196h-1.848v3.472q0 0.28-0.196 0.476t-0.476 0.196z"/>
    </g>
    <g transform="translate(0 597.4)" aria-label="ON">
     <path d="m248.66 291.22q-0.49 0-0.924-0.182-0.42-0.182-0.742-0.504t-0.504-0.742q-0.182-0.434-0.182-0.924v-4.76q0-0.49 0.182-0.91 0.182-0.434 0.504-0.756t0.742-0.504q0.434-0.182 0.924-0.182t0.91 0.182q0.434 0.182 0.756 0.504t0.504 0.756q0.182 0.42 0.182 0.91v4.76q0 0.49-0.182 0.924-0.182 0.42-0.504 0.742t-0.756 0.504q-0.42 0.182-0.91 0.182zm0-8.12q-0.42 0-0.714 0.294t-0.294 0.714v4.76q0 0.42 0.294 0.714t0.714 0.294 0.714-0.294 0.294-0.714v-4.76q0-0.42-0.294-0.714t-0.714-0.294z"/>
     <path d="m256.98 291.21q-0.238 0.056-0.448-0.056-0.21-0.098-0.308-0.308-0.42-0.896-0.882-1.834-0.392-0.798-0.868-1.764-0.462-0.966-0.896-1.876v5.18q0 0.28-0.196 0.476t-0.476 0.196-0.476-0.196-0.196-0.476v-8.12q0-0.238 0.14-0.42t0.378-0.238 0.434 0.056q0.21 0.098 0.322 0.308 0.42 0.896 0.882 1.834 0.392 0.798 0.854 1.764t0.91 1.876v-5.18q0-0.28 0.196-0.476t0.476-0.196 0.476 0.196 0.196 0.476v8.12q0 0.238-0.154 0.42-0.14 0.182-0.364 0.238z"/>
    </g>
   </g>
   <circle transform="translate(3.25 593.65)" cx="237" cy="299.96" r="3.25" stroke="#fff" stroke-width="1.9487"/>
   <g transform="translate(-20.329 30.229)" stroke="#fff">
    <path d="m260.66 858.01v-9.3743" stroke-width="3.9892"/>
    <path transform="matrix(.22082 0 0 .28356 203.3 781.12)" d="m259.75 237.46 8.663 15.005-17.326-1e-5z" stroke-width="15.942"/>
   </g>
   <g transform="matrix(1 0 0 -1 -20.329 1756.7)" stroke="#fff">
    <path d="m260.66 858.01v-9.3743" stroke-width="3.9892"/>
    <path transform="matrix(.22082 0 0 .28356 203.3 781.12)" d="m259.75 237.46 8.663 15.005-17.326-1e-5z" stroke-width="15.942"/>
   </g>
  </g>
 </g>
 <g transform="matrix(.28222 0 0 .28222 26.503 -34.965)" fill="#fff">
  <path d="m-84.532 257.35c0.76244 0.44023 1.0237 1.4153 0.58352 2.1778-0.44027 0.76251-1.4154 1.0238-2.1778 0.58352-0.76254-0.4402-1.0238-1.4152-0.58352-2.1777 0.44016-0.76248 1.4153-1.0238 2.1778-0.58354" enable-background="new"/>
  <path d="m-32.873 257.35c0.76243 0.44023 1.0237 1.4153 0.58352 2.1778-0.44027 0.76251-1.4154 1.0238-2.1778 0.58352-0.76254-0.4402-1.0238-1.4152-0.58352-2.1777 0.44016-0.76248 1.4153-1.0238 2.1778-0.58354" enable-background="new"/>
  <path d="m-84.036 263.87c0.8503 0.22787 1.355 1.102 1.1272 1.9523-0.22791 0.85039-1.1021 1.3551-1.9524 1.1272-0.85043-0.22784-1.3551-1.102-1.1272-1.9523 0.2278-0.85035 1.1019-1.3551 1.9524-1.1272" enable-background="new"/>
  <path d="m-34.138 250.5c0.8503 0.22788 1.355 1.102 1.1272 1.9523-0.22791 0.85041-1.1021 1.3551-1.9524 1.1272-0.85043-0.22785-1.3551-1.102-1.1272-1.9524 0.22778-0.85034 1.1019-1.355 1.9524-1.1272" enable-background="new"/>
  <path d="m-81.868 270.05c0.88053 5e-5 1.5944 0.71394 1.5945 1.5945-4.3e-5 0.88062-0.71396 1.5946-1.5945 1.5945-0.88062 3e-5 -1.5945-0.71386-1.5945-1.5945-4.3e-5 -0.88054 0.71388-1.5945 1.5945-1.5945" enable-background="new"/>
  <path d="m-37.131 244.22c0.88053 4e-5 1.5944 0.71393 1.5945 1.5945-4.3e-5 0.88061-0.71396 1.5946-1.5945 1.5945-0.88062 3e-5 -1.5945-0.71386-1.5945-1.5945-2.8e-5 -0.88054 0.71389-1.5945 1.5945-1.5945" enable-background="new"/>
  <path d="m-78.176 275.45c0.85032-0.2278 1.7245 0.27688 1.9523 1.1272 0.22783 0.85041-0.27688 1.7246-1.1272 1.9524-0.8504 0.2279-1.7245-0.27676-1.9523-1.1272-0.2279-0.85031 0.2768-1.7245 1.1272-1.9524" enable-background="new"/>
  <path d="m-41.648 238.92c0.85033-0.2278 1.7245 0.27686 1.9523 1.1272 0.22783 0.85041-0.27688 1.7246-1.1272 1.9524-0.8504 0.22791-1.7245-0.27678-1.9523-1.1272-0.2279-0.8503 0.2768-1.7245 1.1272-1.9524" enable-background="new"/>
  <path d="m-73.211 279.72c0.76246-0.44017 1.7375-0.17891 2.1778 0.58352 0.44022 0.76252 0.17894 1.7376-0.58354 2.1778-0.76251 0.44027-1.7375 0.17901-2.1777-0.58353-0.44024-0.76242-0.17898-1.7375 0.58352-2.1778" enable-background="new"/>
  <path d="m-47.382 234.98c0.76246-0.44017 1.7375-0.17891 2.1778 0.58353 0.44022 0.76252 0.17894 1.7376-0.58354 2.1778-0.76251 0.44027-1.7375 0.17901-2.1777-0.58352-0.44024-0.76242-0.17898-1.7375 0.58352-2.1778" enable-background="new"/>
  <path d="m-53.942 232.65c0.62268-0.62261 1.6323-0.62262 2.255 0 0.62267 0.62272 0.62267 1.6324 0 2.255-0.62268 0.62271-1.6323 0.62271-2.255 0-0.62267-0.6226-0.62267-1.6323 0-2.255" enable-background="new"/>
  <path d="m-60.88 232.1c0.44024-0.76244 1.4153-1.0237 2.1778-0.58353 0.76251 0.44027 1.0238 1.4154 0.58354 2.1778-0.4402 0.76254-1.4153 1.0238-2.1778 0.58353-0.76246-0.44016-1.0237-1.4152-0.58354-2.1778" enable-background="new"/>
  <path d="m-67.725 233.37c0.22788-0.8503 1.102-1.355 1.9523-1.1272 0.85041 0.22792 1.3551 1.1021 1.1272 1.9524-0.22784 0.85043-1.102 1.3551-1.9523 1.1272-0.85034-0.22778-1.355-1.1019-1.1272-1.9524" enable-background="new"/>
  <path d="m-48.18 281.1c4.3e-5 -0.88053 0.71393-1.5944 1.5945-1.5945 0.88062 4e-5 1.5946 0.71396 1.5945 1.5945 2.9e-5 0.88062-0.71386 1.5945-1.5945 1.5945-0.88054 4e-5 -1.5945-0.71388-1.5945-1.5945" enable-background="new"/>
  <path d="m-74.009 236.36c4.3e-5 -0.88054 0.71393-1.5944 1.5945-1.5945 0.88062 4e-5 1.5946 0.71396 1.5945 1.5945 2.9e-5 0.88062-0.71386 1.5945-1.5945 1.5945-0.88055 3e-5 -1.5945-0.71389-1.5945-1.5945" enable-background="new"/>
  <path d="m-42.776 277.4c-0.2278-0.85032 0.27687-1.7244 1.1272-1.9523 0.85041-0.22783 1.7246 0.27688 1.9524 1.1272 0.2279 0.85039-0.27676 1.7245-1.1272 1.9523-0.85031 0.2279-1.7245-0.27681-1.9524-1.1272" enable-background="new"/>
  <path d="m-79.304 240.88c-0.2278-0.85032 0.27686-1.7244 1.1272-1.9523 0.85041-0.22783 1.7246 0.27688 1.9524 1.1272 0.22791 0.85039-0.27677 1.7245-1.1272 1.9523-0.8503 0.2279-1.7245-0.27681-1.9524-1.1272" enable-background="new"/>
  <path d="m-38.512 272.44c-0.44017-0.76246-0.17891-1.7375 0.58352-2.1778 0.76252-0.44021 1.7376-0.17893 2.1778 0.58354 0.44027 0.76251 0.17901 1.7376-0.58352 2.1778-0.76242 0.44024-1.7375 0.17898-2.1778-0.58353" enable-background="new"/>
  <path d="m-83.249 246.61c-0.44017-0.76247-0.17891-1.7375 0.58352-2.1778 0.76252-0.44022 1.7376-0.17894 2.1778 0.58354 0.44027 0.7625 0.17901 1.7375-0.58352 2.1777-0.76242 0.44025-1.7375 0.17898-2.1778-0.58352" enable-background="new"/>
  <path d="m-35.678 266.54c-0.62261-0.62269-0.62263-1.6323 0-2.255 0.62271-0.62267 1.6324-0.62267 2.255 0 0.62271 0.62268 0.62271 1.6323 0 2.255-0.6226 0.62267-1.6323 0.62267-2.255 0" enable-background="new"/>
  <path d="m-85.576 253.17c-0.62261-0.62268-0.62263-1.6323 0-2.255 0.62271-0.62267 1.6324-0.62267 2.255 0 0.62271 0.62268 0.62271 1.6323 0 2.255-0.6226 0.62267-1.6323 0.62267-2.255 0" enable-background="new"/>
 </g>
 <g transform="matrix(.28222 0 0 .28222 47.668 -34.965)" fill="#fff">
  <path d="m-84.532 257.35c0.76244 0.44023 1.0237 1.4153 0.58352 2.1778-0.44027 0.76251-1.4154 1.0238-2.1778 0.58352-0.76254-0.4402-1.0238-1.4152-0.58352-2.1777 0.44016-0.76248 1.4153-1.0238 2.1778-0.58354" enable-background="new"/>
  <path d="m-32.873 257.35c0.76243 0.44023 1.0237 1.4153 0.58352 2.1778-0.44027 0.76251-1.4154 1.0238-2.1778 0.58352-0.76254-0.4402-1.0238-1.4152-0.58352-2.1777 0.44016-0.76248 1.4153-1.0238 2.1778-0.58354" enable-background="new"/>
  <path d="m-84.036 263.87c0.8503 0.22787 1.355 1.102 1.1272 1.9523-0.22791 0.85039-1.1021 1.3551-1.9524 1.1272-0.85043-0.22784-1.3551-1.102-1.1272-1.9523 0.2278-0.85035 1.1019-1.3551 1.9524-1.1272" enable-background="new"/>
  <path d="m-34.138 250.5c0.8503 0.22788 1.355 1.102 1.1272 1.9523-0.22791 0.85041-1.1021 1.3551-1.9524 1.1272-0.85043-0.22785-1.3551-1.102-1.1272-1.9524 0.22778-0.85034 1.1019-1.355 1.9524-1.1272" enable-background="new"/>
  <path d="m-81.868 270.05c0.88053 5e-5 1.5944 0.71394 1.5945 1.5945-4.3e-5 0.88062-0.71396 1.5946-1.5945 1.5945-0.88062 3e-5 -1.5945-0.71386-1.5945-1.5945-4.3e-5 -0.88054 0.71388-1.5945 1.5945-1.5945" enable-background="new"/>
  <path d="m-37.131 244.22c0.88053 4e-5 1.5944 0.71393 1.5945 1.5945-4.3e-5 0.88061-0.71396 1.5946-1.5945 1.5945-0.88062 3e-5 -1.5945-0.71386-1.5945-1.5945-2.8e-5 -0.88054 0.71389-1.5945 1.5945-1.5945" enable-background="new"/>
  <path d="m-78.176 275.45c0.85032-0.2278 1.7245 0.27688 1.9523 1.1272 0.22783 0.85041-0.27688 1.7246-1.1272 1.9524-0.8504 0.2279-1.7245-0.27676-1.9523-1.1272-0.2279-0.85031 0.2768-1.7245 1.1272-1.9524" enable-background="new"/>
  <path d="m-41.648 238.92c0.85033-0.2278 1.7245 0.27686 1.9523 1.1272 0.22783 0.85041-0.27688 1.7246-1.1272 1.9524-0.8504 0.22791-1.7245-0.27678-1.9523-1.1272-0.2279-0.8503 0.2768-1.7245 1.1272-1.9524" enable-background="new"/>
  <path d="m-73.211 279.72c0.76246-0.44017 1.7375-0.17891 2.1778 0.58352 0.44022 0.76252 0.17894 1.7376-0.58354 2.1778-0.76251 0.44027-1.7375 0.17901-2.1777-0.58353-0.44024-0.76242-0.17898-1.7375 0.58352-2.1778" enable-background="new"/>
  <path d="m-47.382 234.98c0.76246-0.44017 1.7375-0.17891 2.1778 0.58353 0.44022 0.76252 0.17894 1.7376-0.58354 2.1778-0.76251 0.44027-1.7375 0.17901-2.1777-0.58352-0.44024-0.76242-0.17898-1.7375 0.58352-2.1778" enable-background="new"/>
  <path d="m-53.942 232.65c0.62268-0.62261 1.6323-0.62262 2.255 0 0.62267 0.62272 0.62267 1.6324 0 2.255-0.62268 0.62271-1.6323 0.62271-2.255 0-0.62267-0.6226-0.62267-1.6323 0-2.255" enable-background="new"/>
  <path d="m-60.88 232.1c0.44024-0.76244 1.4153-1.0237 2.1778-0.58353 0.76251 0.44027 1.0238 1.4154 0.58354 2.1778-0.4402 0.76254-1.4153 1.0238-2.1778 0.58353-0.76246-0.44016-1.0237-1.4152-0.58354-2.1778" enable-background="new"/>
  <path d="m-67.725 233.37c0.22788-0.8503 1.102-1.355 1.9523-1.1272 0.85041 0.22792 1.3551 1.1021 1.1272 1.9524-0.22784 0.85043-1.102 1.3551-1.9523 1.1272-0.85034-0.22778-1.355-1.1019-1.1272-1.9524" enable-background="new"/>
  <path d="m-48.18 281.1c4.3e-5 -0.88053 0.71393-1.5944 1.5945-1.5945 0.88062 4e-5 1.5946 0.71396 1.5945 1.5945 2.9e-5 0.88062-0.71386 1.5945-1.5945 1.5945-0.88054 4e-5 -1.5945-0.71388-1.5945-1.5945" enable-background="new"/>
  <path d="m-74.009 236.36c4.3e-5 -0.88054 0.71393-1.5944 1.5945-1.5945 0.88062 4e-5 1.5946 0.71396 1.5945 1.5945 2.9e-5 0.88062-0.71386 1.5945-1.5945 1.5945-0.88055 3e-5 -1.5945-0.71389-1.5945-1.5945" enable-background="new"/>
  <path d="m-42.776 277.4c-0.2278-0.85032 0.27687-1.7244 1.1272-1.9523 0.85041-0.22783 1.7246 0.27688 1.9524 1.1272 0.2279 0.85039-0.27676 1.7245-1.1272 1.9523-0.85031 0.2279-1.7245-0.27681-1.9524-1.1272" enable-background="new"/>
  <path d="m-79.304 240.88c-0.2278-0.85032 0.27686-1.7244 1.1272-1.9523 0.85041-0.22783 1.7246 0.27688 1.9524 1.1272 0.22791 0.85039-0.27677 1.7245-1.1272 1.9523-0.8503 0.2279-1.7245-0.27681-1.9524-1.1272" enable-background="new"/>
  <path d="m-38.512 272.44c-0.44017-0.76246-0.17891-1.7375 0.58352-2.1778 0.76252-0.44021 1.7376-0.17893 2.1778 0.58354 0.44027 0.76251 0.17901 1.7376-0.58352 2.1778-0.76242 0.44024-1.7375 0.17898-2.1778-0.58353" enable-background="new"/>
  <path d="m-83.249 246.61c-0.44017-0.76247-0.17891-1.7375 0.58352-2.1778 0.76252-0.44022 1.7376-0.17894 2.1778 0.58354 0.44027 0.7625 0.17901 1.7375-0.58352 2.1777-0.76242 0.44025-1.7375 0.17898-2.1778-0.58352" enable-background="new"/>
  <path d="m-35.678 266.54c-0.62261-0.62269-0.62263-1.6323 0-2.255 0.62271-0.62267 1.6324-0.62267 2.255 0 0.62271 0.62268 0.62271 1.6323 0 2.255-0.6226 0.62267-1.6323 0.62267-2.255 0" enable-background="new"/>
  <path d="m-85.576 253.17c-0.62261-0.62268-0.62263-1.6323 0-2.255 0.62271-0.62267 1.6324-0.62267 2.255 0 0.62271 0.62268 0.62271 1.6323 0 2.255-0.6226 0.62267-1.6323 0.62267-2.255 0" enable-background="new"/>
 </g>
 <g display="none" stroke-linejoin="round" stroke-width=".353">
  <g fill="#f00">
   <circle cx="20.313" cy="52.642" r="3.3073" display="inline"/>
   <circle cx="30.921" cy="38.019" r="3.3073"/>
   <circle cx="9.7198" cy="38.019" r="3.3073"/>
  </g>
  <circle cx="7.4257" cy="16.737" r="3.3073" fill="#0f0"/>
  <circle cx="20.313" cy="14.417" r="3.3073" fill="#00f"/>
  <circle cx="33.224" cy="16.737" r="3.3073" fill="#00f"/>
  <g fill="#0f0">
   <circle cx="20.313" cy="28.175" r="3.3073" display="inline"/>
   <circle cx="7.4257" cy="114.48" r="3.3073" display="inline"/>
   <circle cx="20.342" cy="111.76" r="3.3073" display="inline"/>
  </g>
  <circle cx="33.224" cy="114.48" r="3.3073" display="inline" fill="#00f"/>
  <g fill="#f00">
   <circle cx="8.3193" cy="57.761" r="3.3073" display="inline"/>
   <circle cx="8.3193" cy="71.758" r="3.3073" display="inline"/>
   <circle cx="8.3193" cy="85.769" r="3.3073" display="inline"/>
   <circle cx="8.3193" cy="99.804" r="3.3073" display="inline"/>
   <circle cx="32.326" cy="57.761" r="3.3073" display="inline"/>
   <circle cx="32.326" cy="71.758" r="3.3073" display="inline"/>
   <circle cx="32.326" cy="85.769" r="3.3073" display="inline"/>
   <circle cx="32.326" cy="99.804" r="3.3073" display="inline"/>
  </g>
  <g fill="#f0f">
   <circle cx="16.921" cy="62.208" r=".60136"/>
   <circle cx="23.722" cy="62.208" r=".60136" display="inline"/>
   <circle cx="16.921" cy="73.011" r=".60136" display="inline"/>
   <circle cx="23.722" cy="73.011" r=".60136" display="inline"/>
   <circle cx="16.921" cy="83.814" r=".60136" display="inline"/>
   <circle cx="23.722" cy="83.814" r=".60136" display="inline"/>
   <circle cx="16.921" cy="94.617" r=".60136" display="inline"/>
   <circle cx="23.722" cy="94.617" r=".60136" display="inline"/>
  </g>
 </g>
</svg>
