<?xml version="1.0" encoding="UTF-8"?>
<!-- Created with Inkscape (http://www.inkscape.org/) -->
<svg width="90" height="380" version="1.1" xmlns="http://www.w3.org/2000/svg" xmlns:cc="http://creativecommons.org/ns#" xmlns:dc="http://purl.org/dc/elements/1.1/" xmlns:rdf="http://www.w3.org/1999/02/22-rdf-syntax-ns#" xmlns:xlink="http://www.w3.org/1999/xlink">
 <metadata>
  <rdf:RDF>
   <cc:Work rdf:about="">
    <dc:format>image/svg+xml</dc:format>
    <dc:type rdf:resource="http://purl.org/dc/dcmitype/StillImage"/>
   </cc:Work>
  </rdf:RDF>
 </metadata>
 <g transform="translate(0 -74.961)">
  <g transform="matrix(.84667 0 0 .83524 0 74.961)" stroke-width="1.1892">
   <rect y="2.1943e-5" width="106.3" height="454.96" fill="#171717" style="paint-order:normal"/>
   <g fill="#fff">
    <g>
     <path d="m42.213 103.85c-0.252 0.196-0.56 0.266-0.868 0.21-0.308-0.07-0.56-0.252-0.714-0.518-0.196-0.322-0.602-0.434-0.924-0.252s-0.434 0.602-0.238 0.924c0.336 0.588 0.924 1.022 1.61 1.162 0.686 0.126 1.386-0.028 1.946-0.448 0.546-0.42 0.896-1.05 0.952-1.75 0.056-0.686-0.196-1.372-0.686-1.876l-2.226-2.296c-0.21-0.21-0.308-0.49-0.28-0.77 0.014-0.294 0.154-0.56 0.392-0.728 0.238-0.182 0.518-0.252 0.812-0.196 0.28 0.07 0.518 0.238 0.672 0.49 0.182 0.322 0.588 0.434 0.91 0.252 0.322-0.196 0.434-0.602 0.252-0.924-0.336-0.588-0.91-0.994-1.568-1.134-0.658-0.126-1.358 0.028-1.89 0.434s-0.868 1.022-0.924 1.694 0.182 1.344 0.658 1.82l2.24 2.296c0.21 0.224 0.322 0.532 0.294 0.84s-0.168 0.588-0.42 0.77z"/>
     <path d="m48.366 96.63v3.248h-2.016v-3.248c0-0.364-0.294-0.672-0.672-0.672-0.364 0-0.672 0.308-0.672 0.672v8.12c0 0.378 0.308 0.672 0.672 0.672 0.378 0 0.672-0.294 0.672-0.672v-3.528h2.016v3.528c0 0.378 0.308 0.672 0.672 0.672 0.378 0 0.672-0.294 0.672-0.672v-8.12c0-0.364-0.294-0.672-0.672-0.672-0.364 0-0.672 0.308-0.672 0.672z"/>
     <path d="m54.038 96.448c-0.07-0.294-0.336-0.49-0.644-0.49s-0.574 0.196-0.644 0.49l-2.24 8.12c-0.098 0.364 0.112 0.728 0.462 0.826 0.364 0.098 0.728-0.112 0.826-0.462 0 0 0.168-0.602 0.406-1.47h2.38c0.238 0.868 0.406 1.47 0.406 1.47 0.098 0.35 0.462 0.56 0.826 0.462 0.35-0.098 0.56-0.462 0.462-0.826zm-1.456 5.67c0.266-0.966 0.56-2.044 0.812-2.954 0.252 0.91 0.546 1.988 0.812 2.954z"/>
     <path d="m57.081 96.686v8.064c0 0.378 0.294 0.672 0.672 0.672 0.364 0 0.672-0.294 0.672-0.672v-3.248h1.008c1.302 0 2.352-1.05 2.352-2.352v-0.784c0-1.302-1.05-2.352-2.352-2.352h-1.68c-0.378 0-0.672 0.308-0.672 0.672zm3.36 1.68v0.784c0 0.56-0.448 1.008-1.008 1.008h-1.008v-2.8h1.008c0.56 0 1.008 0.448 1.008 1.008z"/>
     <path d="m62.627 96.686v8.008c0 0.378 0.308 0.672 0.672 0.672h2.8c0.378 0 0.672-0.294 0.672-0.672 0-0.364-0.294-0.672-0.672-0.672h-2.128v-2.8h1.848c0.378 0 0.672-0.294 0.672-0.672 0-0.364-0.294-0.672-0.672-0.672h-1.848v-2.52h2.128c0.378 0 0.672-0.294 0.672-0.672 0-0.364-0.294-0.672-0.672-0.672h-2.8c-0.364 0-0.672 0.308-0.672 0.672z"/>
     <path d="m74.879 431.09c1.302 0 2.352-1.05 2.352-2.352v-4.76c0-1.302-1.05-2.352-2.352-2.352s-2.352 1.05-2.352 2.352v4.76c0 1.302 1.05 2.352 2.352 2.352zm0-8.12c0.56 0 1.008 0.448 1.008 1.008v4.76c0 0.56-0.448 1.008-1.008 1.008s-1.008-0.448-1.008-1.008v-4.76c0-0.56 0.448-1.008 1.008-1.008z"/>
     <path d="m79.691 428.73v-6.44c0-0.364-0.308-0.672-0.672-0.672-0.378 0-0.672 0.308-0.672 0.672v6.44c0 1.302 1.05 2.352 2.352 2.352 1.288 0 2.352-1.05 2.352-2.352v-6.44c0-0.364-0.308-0.672-0.672-0.672-0.378 0-0.672 0.308-0.672 0.672v6.44c0 0.56-0.462 1.008-1.008 1.008-0.56 0-1.008-0.448-1.008-1.008z"/>
     <path d="m84.445 421.68c-0.364 0-0.672 0.308-0.672 0.672 0 0.378 0.308 0.672 0.672 0.672h1.148v7.392c0 0.378 0.308 0.672 0.672 0.672 0.378 0 0.672-0.294 0.672-0.672v-7.392h1.148c0.378 0 0.672-0.294 0.672-0.672 0-0.364-0.294-0.672-0.672-0.672z"/>
     <path d="m64.815 371.37c0.378 0 0.672-0.294 0.672-0.672v-3.472h1.848c0.378 0 0.672-0.294 0.672-0.672 0-0.364-0.294-0.672-0.672-0.672h-1.848v-2.52h2.128c0.378 0 0.672-0.294 0.672-0.672 0-0.364-0.294-0.672-0.672-0.672h-2.8c-0.364 0-0.672 0.308-0.672 0.672v8.008c0 0.378 0.308 0.672 0.672 0.672z"/>
     <path d="m71.507 362.45c-0.07-0.294-0.336-0.49-0.644-0.49s-0.574 0.196-0.644 0.49l-2.24 8.12c-0.098 0.364 0.112 0.728 0.462 0.826 0.364 0.098 0.728-0.112 0.826-0.462 0 0 0.168-0.602 0.406-1.47h2.38c0.238 0.868 0.406 1.47 0.406 1.47 0.098 0.35 0.462 0.56 0.826 0.462 0.35-0.098 0.56-0.462 0.462-0.826zm-1.456 5.67c0.266-0.966 0.56-2.044 0.812-2.954 0.252 0.91 0.546 1.988 0.812 2.954z"/>
     <path d="m75.222 371.37h2.8c0.364 0 0.672-0.294 0.672-0.672 0-0.364-0.308-0.672-0.672-0.672h-2.128v-7.392c0-0.364-0.308-0.672-0.672-0.672-0.378 0-0.672 0.308-0.672 0.672v8.064c0 0.378 0.294 0.672 0.672 0.672z"/>
     <path d="m80.029 371.37h2.8c0.364 0 0.672-0.294 0.672-0.672 0-0.364-0.308-0.672-0.672-0.672h-2.128v-7.392c0-0.364-0.308-0.672-0.672-0.672-0.378 0-0.672 0.308-0.672 0.672v8.064c0 0.378 0.294 0.672 0.672 0.672z"/>
     <path d="m88.352 371.34c1.036 0.28 2.114-0.168 2.646-1.092 0.196-0.322 0.084-0.728-0.238-0.924-0.322-0.182-0.728-0.07-0.924 0.252-0.224 0.392-0.686 0.588-1.134 0.476-0.434-0.126-0.742-0.518-0.742-0.98v-4.76c0-0.448 0.308-0.854 0.742-0.966 0.448-0.126 0.91 0.07 1.134 0.462 0.196 0.322 0.602 0.434 0.924 0.252 0.322-0.196 0.434-0.602 0.238-0.924-0.532-0.924-1.61-1.372-2.646-1.092-1.022 0.266-1.736 1.204-1.736 2.268v4.76c0 1.064 0.714 2.002 1.736 2.268z"/>
     <path d="m93.875 370.93c0.084 0.294 0.35 0.49 0.658 0.49 0.294 0 0.56-0.196 0.644-0.49l2.24-8.12c0.098-0.364-0.112-0.728-0.476-0.826-0.35-0.098-0.728 0.112-0.826 0.462 0 0-0.938 3.402-1.582 5.782-0.658-2.38-1.596-5.782-1.596-5.782-0.098-0.35-0.476-0.56-0.826-0.462-0.364 0.098-0.574 0.462-0.476 0.826z"/>
     <path d="m22.962 431.07c0.378 0 0.672-0.294 0.672-0.672v-8.12c0-0.364-0.294-0.672-0.672-0.672-0.364 0-0.672 0.308-0.672 0.672v8.12c0 0.378 0.308 0.672 0.672 0.672z"/>
     <path d="m29.765 431.05c0.294-0.07 0.518-0.35 0.518-0.658v-8.12c0-0.364-0.308-0.672-0.672-0.672-0.378 0-0.672 0.308-0.672 0.672v5.18c-1.162-2.408-2.646-5.474-2.646-5.474-0.14-0.28-0.448-0.434-0.756-0.364s-0.518 0.35-0.518 0.658v8.12c0 0.378 0.294 0.672 0.672 0.672 0.364 0 0.672-0.294 0.672-0.672v-5.18c1.162 2.408 2.646 5.474 2.646 5.474 0.126 0.28 0.448 0.434 0.756 0.364z"/>
     <path d="m59.88 14.217q-0.364 0.392-0.938 0.658-0.56 0.28-1.19 0.336-0.336 0.028-0.756 0-0.406-0.028-0.798-0.098-0.378-0.056-0.7-0.14-0.308-0.07-0.448-0.14-0.21-0.098-0.252-0.154-0.042-0.042-0.014-0.196l0.098-1.036q0.014-0.112 0.07-0.14t0.21 0.042q0.168 0.07 0.476 0.168 0.308 0.084 0.686 0.154 0.378 0.056 0.756 0.07 0.392 0.014 0.7-0.056 0.406-0.098 0.658-0.252 0.252-0.168 0.392-0.378 0.154-0.224 0.21-0.476 0.056-0.266 0.056-0.546 0-0.266-0.35-0.728-0.336-0.462-0.98-0.84-0.784-0.462-1.358-0.854-0.574-0.406-0.952-0.798-0.364-0.392-0.546-0.812t-0.182-0.924q0-0.574 0.238-1.092 0.252-0.532 0.672-0.924 0.434-0.392 1.022-0.616 0.602-0.238 1.316-0.238 0.728 0 1.19 0.098 0.476 0.084 0.812 0.21 0.154 0.056 0.182 0.126 0.042 0.056 0.014 0.154l-0.182 0.896q-0.028 0.154-0.098 0.21-0.056 0.056-0.21 0-0.21-0.07-0.462-0.126-0.252-0.07-0.518-0.112t-0.518-0.056q-0.238-0.014-0.434 0.014-0.784 0.126-1.106 0.518-0.308 0.378-0.308 0.966 0 0.35 0.364 0.784 0.364 0.42 1.064 0.84 0.882 0.532 1.442 0.952 0.574 0.42 0.896 0.812 0.336 0.378 0.462 0.77 0.14 0.392 0.14 0.854 0 1.232-0.826 2.1z"/>
     <path d="m62.76 14.973q-0.07 0-0.126-0.056-0.042-0.042-0.042-0.112v-10.22q0-0.07 0.042-0.112 0.056-0.056 0.126-0.056h1.26q0.07 0 0.112 0.056 0.056 0.042 0.056 0.112v8.918h3.626q0.168 0 0.168 0.182v1.12q0 0.07-0.056 0.112-0.042 0.056-0.112 0.056z"/>
     <path d="m69.833 14.987q-0.28 0-0.336-0.056-0.056-0.042-0.056-0.35v-9.786q0-0.28 0.042-0.322 0.056-0.056 0.322-0.056h4.97q0.154 0 0.182 0.056 0.028 0.042 0.028 0.168v1.036q0 0.14-0.042 0.196-0.042 0.042-0.168 0.042h-3.794v2.856h3.612q0.21 0 0.21 0.224v1.05q0 0.238-0.21 0.238h-3.612v3.192h3.962q0.196 0 0.196 0.238v1.05q0 0.224-0.196 0.224z"/>
     <path d="m87.403 14.819q-0.028 0.112-0.07 0.126-0.042 0.028-0.154 0.028h-1.33q-0.112 0-0.154-0.028-0.042-0.014-0.07-0.126l-2.324-7.952-2.324 7.952q-0.028 0.112-0.07 0.126-0.028 0.028-0.154 0.028h-1.33q-0.112 0-0.154-0.028-0.042-0.014-0.07-0.126l-2.954-10.206q-0.028-0.098 0-0.14 0.028-0.056 0.21-0.056h1.162q0.098 0 0.14 0.028 0.042 0.014 0.07 0.112l2.324 7.882 2.268-7.882q0.028-0.098 0.07-0.112 0.056-0.028 0.154-0.028h1.316q0.098 0 0.14 0.028 0.056 0.014 0.084 0.112l2.268 7.882 2.324-7.882q0.028-0.098 0.07-0.112 0.042-0.028 0.14-0.028h1.162q0.182 0 0.21 0.056 0.028 0.042 0 0.14z"/>
     <path d="m15.33 364.85v-0.784c0-1.302-1.05-2.352-2.352-2.352h-1.68c-0.364 0-0.672 0.308-0.672 0.672v8.064c0 0.378 0.308 0.672 0.672 0.672 0.378 0 0.672-0.294 0.672-0.672v-3.248h0.756l1.302 3.486c0.14 0.35 0.518 0.518 0.868 0.392s0.532-0.518 0.392-0.868l-1.218-3.276c0.756-0.392 1.26-1.176 1.26-2.086zm-3.36-1.792h1.008c0.56 0 1.008 0.448 1.008 1.008v0.784c0 0.56-0.448 1.008-1.008 1.008h-1.008z"/>
     <path d="m17.063 371.12c0.378 0 0.672-0.294 0.672-0.672v-8.12c0-0.364-0.294-0.672-0.672-0.672-0.364 0-0.672 0.308-0.672 0.672v8.12c0 0.378 0.308 0.672 0.672 0.672z"/>
     <path d="m21.626 369.56c-0.252 0.196-0.56 0.266-0.868 0.21-0.308-0.07-0.56-0.252-0.714-0.518-0.196-0.322-0.602-0.434-0.924-0.252s-0.434 0.602-0.238 0.924c0.336 0.588 0.924 1.022 1.61 1.162 0.686 0.126 1.386-0.028 1.946-0.448 0.546-0.42 0.896-1.05 0.952-1.75 0.056-0.686-0.196-1.372-0.686-1.876l-2.226-2.296c-0.21-0.21-0.308-0.49-0.28-0.77 0.014-0.294 0.154-0.56 0.392-0.728 0.238-0.182 0.518-0.252 0.812-0.196 0.28 0.07 0.518 0.238 0.672 0.49 0.182 0.322 0.588 0.434 0.91 0.252 0.322-0.196 0.434-0.602 0.252-0.924-0.336-0.588-0.91-0.994-1.568-1.134-0.658-0.126-1.358 0.028-1.89 0.434s-0.868 1.022-0.924 1.694 0.182 1.344 0.658 1.82l2.24 2.296c0.21 0.224 0.322 0.532 0.294 0.84s-0.168 0.588-0.42 0.77z"/>
     <path d="m24.419 362.39v8.008c0 0.378 0.308 0.672 0.672 0.672h2.8c0.378 0 0.672-0.294 0.672-0.672 0-0.364-0.294-0.672-0.672-0.672h-2.128v-2.8h1.848c0.378 0 0.672-0.294 0.672-0.672 0-0.364-0.294-0.672-0.672-0.672h-1.848v-2.52h2.128c0.378 0 0.672-0.294 0.672-0.672 0-0.364-0.294-0.672-0.672-0.672h-2.8c-0.364 0-0.672 0.308-0.672 0.672z"/>
     <path d="m33.687 371.04c1.036 0.28 2.114-0.168 2.646-1.092 0.196-0.322 0.084-0.728-0.238-0.924-0.322-0.182-0.728-0.07-0.924 0.252-0.224 0.392-0.686 0.588-1.134 0.476-0.434-0.126-0.742-0.518-0.742-0.98v-4.76c0-0.448 0.308-0.854 0.742-0.966 0.448-0.126 0.91 0.07 1.134 0.462 0.196 0.322 0.602 0.434 0.924 0.252 0.322-0.196 0.434-0.602 0.238-0.924-0.532-0.924-1.61-1.372-2.646-1.092-1.022 0.266-1.736 1.204-1.736 2.268v4.76c0 1.064 0.714 2.002 1.736 2.268z"/>
     <path d="m39.21 370.63c0.084 0.294 0.35 0.49 0.658 0.49 0.294 0 0.56-0.196 0.644-0.49l2.24-8.12c0.098-0.364-0.112-0.728-0.476-0.826-0.35-0.098-0.728 0.112-0.826 0.462 0 0-0.938 3.402-1.582 5.782-0.658-2.38-1.596-5.782-1.596-5.782-0.098-0.35-0.476-0.56-0.826-0.462-0.364 0.098-0.574 0.462-0.476 0.826z"/>
     <g stroke-width="0">
      <path d="m42.975 439.26v10.186h10.488v-8.3711h-7.0469v-1.7442zm3.4414 4.2793h3.7207v1.2793h-0.55664v-0.90821h-0.9082v0.97657h-0.18555l-1.5352-1.0449v1h-0.53516zm3.1172 2.1152h0.62695v1.209h-3.7676v-1.1621h0.55859v0.97656l1.5586-1h0.23242v0.92969h0.79102z"/>
      <path d="m58.95 443.56h-4.1856v-2.4881h8.5108v2.1393l-2.0696 2.0928 2.0696 2.0928-0.04649 2.0928h-8.4643v-2.6276h4.0694l-1.5812-1.558z"/>
      <path d="m64.554 449.47h2.9764v-2.4184h1.3022l1.7905-1.744-1.7673-1.7673h4.2321v-2.4649h-8.5108v2.1161l1.9998 2.0463h-2.0231z"/>
      <path d="m76.414 441.05-4.0938 3.5801v4.8613l2.9531-0.0234v-1.2793h2.6523v1.3027h2.9062v-8.4414zm1.418 2.4883v2.0684h-2.4648z"/>
      <path d="m82.088 441.07h8.534v3.4648h-2.9764v-0.97665h-2.6044v3.302h5.5808v2.6509h-8.534z"/>
      <path d="m94.664 441.08v0.69336l-2.834 0.0156v6.9297h2.8145v0.76757h2.8828v-0.76757h2.8516v-6.9453h-2.8438v-0.69336zm0.14258 2.8711h2.5879v2.541h-2.5879z"/>
     </g>
     <path d="m47.964 26.973q-0.07 0-0.126-0.056-0.042-0.042-0.042-0.112v-10.22q0-0.07 0.042-0.112 0.056-0.056 0.126-0.056h1.26q0.07 0 0.112 0.056 0.056 0.042 0.056 0.112v8.918h3.626q0.168 0 0.168 0.182v1.12q0 0.07-0.056 0.112-0.042 0.056-0.112 0.056z"/>
     <path d="m55.918 26.791q0 0.182-0.182 0.182h-1.274q-0.182 0-0.182-0.182v-10.192q0-0.182 0.182-0.182h1.274q0.182 0 0.182 0.182z"/>
     <path d="m67.356 26.973q-0.112 0-0.14-0.042-0.028-0.028-0.028-0.112v-7.602l-3.038 7.574q-0.028 0.07-0.07 0.084-0.028 0.014-0.168 0.014h-1.12q-0.14 0-0.182-0.014-0.028-0.014-0.056-0.084l-3.038-7.574v7.602q0 0.084-0.028 0.112-0.028 0.042-0.14 0.042h-1.302q-0.168 0-0.168-0.154v-10.108q0-0.196 0.042-0.238 0.042-0.056 0.266-0.056h1.666q0.098 0 0.112 0.042 0.028 0.028 0.07 0.126l3.318 8.232 3.318-8.232q0.042-0.098 0.056-0.126 0.028-0.042 0.126-0.042h1.666q0.224 0 0.266 0.056 0.042 0.042 0.042 0.238v10.108q0 0.154-0.168 0.154z"/>
     <path d="m72.754 26.791q0 0.182-0.182 0.182h-1.274q-0.182 0-0.182-0.182v-10.192q0-0.182 0.182-0.182h1.274q0.182 0 0.182 0.182z"/>
     <path d="m78.13 17.887v8.918q0 0.168-0.168 0.168h-1.246q-0.168 0-0.168-0.168v-8.918h-2.716q-0.07 0-0.126-0.042-0.042-0.056-0.042-0.14v-1.12q0-0.07 0.042-0.112 0.056-0.056 0.126-0.056h7.028q0.07 0 0.112 0.056 0.056 0.042 0.056 0.112v1.12q0 0.182-0.168 0.182z"/>
     <path d="m82.774 26.987q-0.28 0-0.336-0.056-0.056-0.042-0.056-0.35v-9.786q0-0.28 0.042-0.322 0.056-0.056 0.322-0.056h4.97q0.154 0 0.182 0.056 0.028 0.042 0.028 0.168v1.036q0 0.14-0.042 0.196-0.042 0.042-0.168 0.042h-3.794v2.856h3.612q0.21 0 0.21 0.224v1.05q0 0.238-0.21 0.238h-3.612v3.192h3.962q0.196 0 0.196 0.238v1.05q0 0.224-0.196 0.224z"/>
     <path d="m96.046 26.973q-0.154 0-0.224-0.028-0.056-0.014-0.126-0.112l-2.142-4.144h-1.596v4.102q0 0.182-0.182 0.182h-1.246q-0.168 0-0.168-0.182v-10.206q0-0.07 0.042-0.112 0.056-0.056 0.126-0.056h2.828q1.554 0 2.464 0.756t0.91 2.352q0 1.022-0.448 1.736-0.448 0.7-1.232 1.064l2.338 4.452q0.112 0.196-0.168 0.196zm-4.088-9.086v3.346h1.148q0.924 0 1.47-0.392 0.546-0.406 0.546-1.33 0-0.798-0.434-1.204-0.42-0.42-1.134-0.42z"/>
    </g>
    <g stroke="#fff" stroke-linecap="square" stroke-width="1.9214">
     <path d="m7.0193 241.52h14.368"/>
     <path d="m7.0193 238.7h14.368"/>
     <path d="m7.0193 234.48h14.368"/>
     <path d="m7.0193 227.44h14.368"/>
     <path d="m7.0193 216.17h14.368"/>
     <path d="m7.0193 199.27h14.368"/>
     <path d="m7.0193 173.92h14.368"/>
     <path d="m7.0193 136.96h14.368"/>
     <path d="m31.861 241.52h42.551"/>
     <path d="m31.861 238.7h42.551"/>
     <path d="m31.861 234.48h42.551"/>
     <path d="m31.861 227.44h42.551"/>
     <path d="m31.861 216.17h42.551"/>
     <path d="m31.861 199.27h42.551"/>
     <path d="m31.861 173.92h42.551"/>
     <path d="m31.861 136.96h42.551"/>
     <path d="m84.937 241.52h14.521"/>
     <path d="m84.937 238.7h14.521"/>
     <path d="m84.937 234.48h14.521"/>
     <path d="m84.937 227.44h14.521"/>
     <path d="m84.937 216.17h14.521"/>
     <path d="m84.937 199.27h14.521"/>
     <path d="m84.937 173.92h14.521"/>
     <path d="m84.937 136.96h14.521"/>
    </g>
   </g>
   <g stroke="#fff">
    <path d="m26.595 273.45v26.665" fill="none" stroke-width="2.5281"/>
    <path transform="matrix(.61174 0 0 1 46.186 105.9)" d="m-32.051 160.8 5.9791 10.356h-11.958z" fill="#fff" stroke-width=".53872"/>
    <path d="m79.731 293.54v-26.665" fill="none" stroke-width="2.5281"/>
    <path transform="matrix(.61174 0 0 -1 99.477 461.09)" d="m-32.051 160.8 5.9791 10.356h-11.958z" fill="#fff" stroke-width=".53872"/>
   </g>
   <g fill="none" stroke="#fff">
    <path transform="scale(-1,1)" d="m-74.948 83.61a26.59 26.582 0 0 1 4.2701-34.729 26.59 26.582 0 0 1 34.999-0.41032 26.59 26.582 0 0 1 5.0836 34.619" stroke-linejoin="round" stroke-width="1.2641"/>
    <g>
     <path d="m67.731 94.179c-0.16455-4.7454 1.6826-7.4947 6.5576-7.2396" stroke-width="1.2641"/>
     <path d="m81.095 93.581c-4.4637 0.1576-7.0808-2.5664-6.8408-7.2355" stroke-width="1.2641"/>
     <path d="m40.352 93.864-7.0779-7.3415-7.0625 7.3289" stroke-width="1.2641"/>
    </g>
   </g>
  </g>
 </g>
</svg>
