<?xml version="1.0" encoding="UTF-8"?>
<!-- Created with Inkscape (http://www.inkscape.org/) -->
<svg width="120" height="380" enable-background="new" version="1.1" viewBox="0 0 120 380" xml:space="preserve" xmlns="http://www.w3.org/2000/svg" xmlns:cc="http://creativecommons.org/ns#" xmlns:dc="http://purl.org/dc/elements/1.1/" xmlns:rdf="http://www.w3.org/1999/02/22-rdf-syntax-ns#" xmlns:xlink="http://www.w3.org/1999/xlink"><metadata><rdf:RDF><cc:Work rdf:about=""><dc:format>image/svg+xml</dc:format><dc:type rdf:resource="http://purl.org/dc/dcmitype/StillImage"/></cc:Work></rdf:RDF></metadata><g transform="translate(-.63027 -75.615)"><g transform="matrix(.84667 0 0 .83459 .096641 75.365)" stroke-width="1.1896"><rect x=".63027" y=".30019" width="141.73" height="455.31" fill="#171717" style="paint-order:normal"/><g fill="#fff"><g><path d="m41.53 380.47c0.37588 0 0.66824-0.29377 0.66824-0.67147v-8.1137c0-0.36371-0.29235-0.67148-0.66824-0.67148-0.36196 0-0.66824 0.30777-0.66824 0.67148v8.1137c0 0.3777 0.30628 0.67147 0.66824 0.67147z"/><path d="m48.295 380.46c0.29235-0.07 0.5151-0.34974 0.5151-0.65749v-8.1137c0-0.36371-0.30628-0.67148-0.66824-0.67148-0.37588 0-0.66824 0.30777-0.66824 0.67148v5.176c-1.1555-2.4061-2.6312-5.4697-2.6312-5.4697-0.13922-0.27978-0.44549-0.43366-0.75177-0.36372-0.30628 0.07-0.5151 0.34973-0.5151 0.65749v8.1137c0 0.3777 0.29235 0.67147 0.66824 0.67147 0.36196 0 0.66824-0.29377 0.66824-0.67147v-5.176c1.1555 2.4061 2.6312 5.4698 2.6312 5.4698 0.1253 0.27978 0.44549 0.43366 0.75177 0.36372z"/><path d="m54.118 373.84s0.29235-0.30775 0.52902-0.53158v6.491c0 0.3777 0.29235 0.67147 0.66824 0.67147 0.36196 0 0.66824-0.29377 0.66824-0.67147v-8.1137c0-0.2658-0.16706-0.51759-0.41765-0.61552-0.25059-0.11191-0.52902-0.0559-0.72392 0.13989l-1.6706 1.6787c-0.26451 0.2658-0.26451 0.68547 0 0.95126 0.26451 0.26579 0.68216 0.26579 0.94667 0z"/><path d="m87.085 380.47c0.37588 0 0.66824-0.29377 0.66824-0.67147v-8.1137c0-0.36371-0.29235-0.67148-0.66824-0.67148-0.36196 0-0.66824 0.30777-0.66824 0.67148v8.1137c0 0.3777 0.30628 0.67147 0.66824 0.67147z"/><path d="m93.85 380.46c0.29235-0.07 0.5151-0.34974 0.5151-0.65749v-8.1137c0-0.36371-0.30628-0.67148-0.66824-0.67148-0.37588 0-0.66824 0.30777-0.66824 0.67148v5.176c-1.1555-2.4061-2.6312-5.4697-2.6312-5.4697-0.13922-0.27978-0.44549-0.43366-0.75177-0.36372-0.30628 0.07-0.5151 0.34973-0.5151 0.65749v8.1137c0 0.3777 0.29235 0.67147 0.66824 0.67147 0.36196 0 0.66824-0.29377 0.66824-0.67147v-5.176c1.1555 2.4061 2.6312 5.4698 2.6312 5.4698 0.12529 0.27978 0.44549 0.43366 0.75177 0.36372z"/><path d="m98.588 373.11c0.3202 0.18185 0.72392 0.07 0.9049-0.2518 0.13922-0.22382 0.34804-0.3917 0.59863-0.46165 0.26451-0.07 0.52902-0.042 0.76568 0.0839 0.22275 0.1259 0.38981 0.33573 0.47334 0.58754 0.0696 0.25181 0.0418 0.53159-0.0696 0.7694l-2.9375 5.5956c-0.09745 0.20984-0.09745 0.44765 0.02784 0.65749 0.12529 0.19584 0.33412 0.32175 0.57079 0.32175h3.1184c0.36196 0 0.66824-0.29377 0.66824-0.67149 0-0.3637-0.30628-0.67147-0.66824-0.67147h-2.0186c0.71-1.343 2.4224-4.6164 2.4224-4.6164 0.27843-0.54558 0.33411-1.1751 0.16706-1.7626-0.18099-0.60153-0.57079-1.0912-1.1137-1.3849-0.54293-0.29377-1.1694-0.3777-1.7541-0.20983-0.59863 0.16786-1.0998 0.55956-1.4061 1.0912-0.18098 0.32175-0.06961 0.72743 0.25059 0.92328z"/><path d="m66.946 298.52v3.2455h-2.0047v-3.2455c0-0.36372-0.29235-0.67148-0.66824-0.67148-0.36196 0-0.66824 0.30776-0.66824 0.67148v8.1137c0 0.37771 0.30628 0.67148 0.66824 0.67148 0.37588 0 0.66824-0.29377 0.66824-0.67148v-3.5253h2.0047v3.5253c0 0.37771 0.30628 0.67148 0.66824 0.67148 0.37588 0 0.66824-0.29377 0.66824-0.67148v-8.1137c0-0.36372-0.29235-0.67148-0.66824-0.67148-0.36196 0-0.66824 0.30776-0.66824 0.67148z"/><path d="m69.663 298.57v8.0577c0 0.37771 0.29235 0.67148 0.66824 0.67148 0.36196 0 0.66824-0.29377 0.66824-0.67148v-3.2455h1.0024c1.2947 0 2.3388-1.0492 2.3388-2.3502v-0.7834c0-1.301-1.0441-2.3502-2.3388-2.3502h-1.6706c-0.37588 0-0.66824 0.30775-0.66824 0.67147zm3.3412 1.6787v0.7834c0 0.55956-0.44549 1.0072-1.0024 1.0072h-1.0024v-2.7978h1.0024c0.55686 0 1.0024 0.44765 1.0024 1.0072z"/><path d="m75.846 307.25c0.37588 0 0.66824-0.29378 0.66824-0.67148v-3.4693h1.8376c0.37588 0 0.66824-0.29377 0.66824-0.67147 0-0.36372-0.29235-0.67149-0.66824-0.67149h-1.8376v-2.518h2.1161c0.37588 0 0.66824-0.29378 0.66824-0.67148 0-0.36372-0.29235-0.67147-0.66824-0.67147h-2.7843c-0.36196 0-0.66824 0.30775-0.66824 0.67147v8.0018c0 0.3777 0.30628 0.67148 0.66824 0.67148z"/><path d="m9.8203 334.37c1.0302 0.27977 2.1022-0.16788 2.6312-1.0912 0.1949-0.32174 0.08353-0.72742-0.23667-0.92328-0.3202-0.18186-0.72392-0.07-0.91883 0.25181-0.22274 0.3917-0.68216 0.58754-1.1276 0.47563-0.43157-0.1259-0.73784-0.5176-0.73784-0.97924v-4.7563c0-0.44765 0.30628-0.85333 0.73784-0.96525 0.44549-0.12589 0.9049 0.07 1.1276 0.46165 0.1949 0.32174 0.59863 0.43365 0.91883 0.25179 0.3202-0.19584 0.43157-0.60152 0.23667-0.92328-0.52902-0.92328-1.601-1.3709-2.6312-1.0911-1.0163 0.26579-1.7263 1.2031-1.7263 2.2662v4.7563c0 1.0632 0.71 2.0004 1.7263 2.2662z"/><path d="m15.312 333.97c0.08353 0.29378 0.34804 0.48962 0.65432 0.48962 0.29235 0 0.55686-0.19584 0.64039-0.48962l2.2275-8.1137c0.09745-0.36372-0.11137-0.72743-0.47333-0.82536-0.34804-0.0979-0.72392 0.11191-0.82138 0.46164 0 0-0.93275 3.3994-1.5731 5.7775-0.65432-2.3782-1.5871-5.7775-1.5871-5.7775-0.09745-0.34973-0.47334-0.55956-0.82138-0.46164-0.36196 0.0979-0.57078 0.46164-0.47333 0.82536z"/><path d="m22.998 334.46c0.37588 0 0.66824-0.29377 0.66824-0.67147v-8.1137c0-0.36372-0.29235-0.67148-0.66824-0.67148-0.36196 0-0.66824 0.30776-0.66824 0.67148v8.1137c0 0.3777 0.30627 0.67147 0.66824 0.67147z"/><path d="m29.763 334.44c0.29235-0.07 0.5151-0.34973 0.5151-0.65748v-8.1137c0-0.36372-0.30628-0.67148-0.66824-0.67148-0.37588 0-0.66824 0.30776-0.66824 0.67148v5.176c-1.1555-2.4061-2.6312-5.4697-2.6312-5.4697-0.13922-0.27979-0.44549-0.43366-0.75177-0.36372-0.30628 0.07-0.5151 0.34973-0.5151 0.65749v8.1137c0 0.3777 0.29235 0.67147 0.66824 0.67147 0.36196 0 0.66824-0.29377 0.66824-0.67147v-5.176c1.1555 2.4061 2.6312 5.4698 2.6312 5.4698 0.1253 0.27978 0.44549 0.43366 0.75177 0.36371z"/><path d="m35.587 327.83s0.29235-0.30776 0.52902-0.53158v6.491c0 0.3777 0.29235 0.67147 0.66824 0.67147 0.36196 0 0.66824-0.29377 0.66824-0.67147v-8.1137c0-0.2658-0.16706-0.51759-0.41765-0.61552-0.25059-0.11191-0.52902-0.0559-0.72392 0.13989l-1.6706 1.6787c-0.26451 0.2658-0.26451 0.68547 0 0.95126 0.26451 0.26579 0.68216 0.26579 0.94667 0z"/><path d="m105.79 334.37c1.0302 0.27977 2.1022-0.16788 2.6312-1.0912 0.1949-0.32174 0.0835-0.72742-0.23667-0.92328-0.3202-0.18186-0.72392-0.07-0.91883 0.25181-0.22274 0.3917-0.68216 0.58754-1.1276 0.47563-0.43156-0.1259-0.73784-0.5176-0.73784-0.97924v-4.7563c0-0.44765 0.30628-0.85333 0.73784-0.96525 0.44549-0.12589 0.90491 0.07 1.1276 0.46165 0.19491 0.32174 0.59863 0.43365 0.91883 0.25179 0.3202-0.19584 0.43157-0.60152 0.23667-0.92328-0.52903-0.92328-1.601-1.3709-2.6312-1.0911-1.0163 0.26579-1.7263 1.2031-1.7263 2.2662v4.7563c0 1.0632 0.71 2.0004 1.7263 2.2662z"/><path d="m111.28 333.97c0.0835 0.29378 0.34805 0.48962 0.65432 0.48962 0.29235 0 0.55686-0.19584 0.6404-0.48962l2.2274-8.1137c0.0975-0.36372-0.11138-0.72743-0.47333-0.82536-0.34805-0.0979-0.72393 0.11191-0.82138 0.46164 0 0-0.93274 3.3994-1.5731 5.7775-0.65432-2.3782-1.5871-5.7775-1.5871-5.7775-0.0975-0.34973-0.47333-0.55956-0.82138-0.46164-0.36196 0.0979-0.57079 0.46164-0.47333 0.82536z"/><path d="m118.97 334.46c0.37588 0 0.66823-0.29377 0.66823-0.67147v-8.1137c0-0.36372-0.29235-0.67148-0.66823-0.67148-0.36196 0-0.66824 0.30776-0.66824 0.67148v8.1137c0 0.3777 0.30628 0.67147 0.66824 0.67147z"/><path d="m125.73 334.44c0.29236-0.07 0.5151-0.34973 0.5151-0.65748v-8.1137c0-0.36372-0.30627-0.67148-0.66823-0.67148-0.37589 0-0.66825 0.30776-0.66825 0.67148v5.176c-1.1555-2.4061-2.6312-5.4697-2.6312-5.4697-0.13923-0.27979-0.44549-0.43366-0.75177-0.36372-0.30628 0.07-0.51511 0.34973-0.51511 0.65749v8.1137c0 0.3777 0.29237 0.67147 0.66825 0.67147 0.36196 0 0.66823-0.29377 0.66823-0.67147v-5.176c1.1555 2.4061 2.6312 5.4698 2.6312 5.4698 0.12529 0.27978 0.44549 0.43366 0.75176 0.36371z"/><path d="m130.47 327.1c0.3202 0.18186 0.72393 0.07 0.90491-0.25179 0.13921-0.22384 0.34804-0.3917 0.59862-0.46165 0.26451-0.07 0.52903-0.042 0.7657 0.0839 0.22274 0.1259 0.38979 0.33573 0.47333 0.58754 0.0696 0.2518 0.0418 0.53159-0.0696 0.7694l-2.9375 5.5956c-0.0975 0.20984-0.0975 0.44765 0.0278 0.65749 0.1253 0.19584 0.33412 0.32175 0.57079 0.32175h3.1184c0.36196 0 0.66823-0.29377 0.66823-0.67149 0-0.3637-0.30627-0.67147-0.66823-0.67147h-2.0186c0.71-1.343 2.4224-4.6164 2.4224-4.6164 0.27844-0.54557 0.33412-1.1751 0.16707-1.7626-0.18098-0.60153-0.57079-1.0912-1.1137-1.3849-0.54294-0.29377-1.1694-0.3777-1.7541-0.20983-0.59863 0.16786-1.0998 0.55956-1.4061 1.0911-0.18097 0.32176-0.0696 0.72744 0.25059 0.92328z"/><path d="m16.888 423.15c0.36196 0 0.66824-0.29377 0.66824-0.67148v-5.106c0.45941 0.99322 0.94667 2.0284 0.94667 2.0284 0.11137 0.23781 0.34804 0.3917 0.61255 0.3917 0.25059 0 0.48726-0.15389 0.59863-0.3917 0 0 0.48726-1.0352 0.96059-2.0284v5.106c0 0.37771 0.29235 0.67148 0.66824 0.67148 0.36196 0 0.66824-0.29377 0.66824-0.67148v-8.1137c0-0.30775-0.22275-0.58754-0.52902-0.65749-0.30627-0.07-0.61255 0.0839-0.75177 0.37772 0 0-0.97451 2.0844-1.6149 3.4553-0.64039-1.3709-1.6288-3.4553-1.6288-3.4553-0.12529-0.29377-0.44549-0.44766-0.75177-0.37772-0.30628 0.07-0.5151 0.34974-0.5151 0.65749v8.1137c0 0.37771 0.29235 0.67148 0.66824 0.67148z"/><path d="m24.061 423.15c0.37588 0 0.66824-0.29377 0.66824-0.67148v-8.1137c0-0.36372-0.29235-0.67147-0.66824-0.67147-0.36196 0-0.66824 0.30775-0.66824 0.67147v8.1137c0 0.37771 0.30628 0.67148 0.66824 0.67148z"/><path d="m25.925 423.08c0.33412 0.16787 0.73784 0.028 0.9049-0.29377l1.4896-3.0077 1.4896 3.0077c0.16706 0.32175 0.57079 0.46164 0.89098 0.29377 0.33412-0.16787 0.47334-0.57355 0.30628-0.8953l-1.9351-3.903 1.7959-3.6092c0.16706-0.33575 0.02784-0.74143-0.30628-0.9093-0.3202-0.16787-0.72392-0.028-0.89098 0.30776l-1.3504 2.7139-1.3504-2.7139c-0.16706-0.33574-0.57078-0.47563-0.9049-0.30776-0.3202 0.16787-0.45941 0.57355-0.29235 0.9093l1.7959 3.6092-1.9351 3.903c-0.16706 0.32175-0.02784 0.72743 0.29235 0.8953z"/><path d="m110.07 413.71c-0.34804 0.0979-0.57079 0.46165-0.48725 0.81137l1.949 8.1137c0.0696 0.30776 0.34804 0.5176 0.65432 0.5176s0.57078-0.20984 0.64039-0.5176c0 0 0.72392-3.0077 1.3086-5.3998 0.57078 2.3921 1.2947 5.3998 1.2947 5.3998 0.0696 0.30776 0.34804 0.5176 0.65432 0.5176 0.30627 0 0.57078-0.20984 0.64039-0.5176l1.949-8.1137c0.0975-0.34972-0.1253-0.71344-0.48726-0.81137-0.36197-0.0839-0.72393 0.1399-0.80746 0.50361 0 0-0.72392 3.0077-1.2947 5.3998-0.58471-2.3921-1.3086-5.3998-1.3086-5.3998-0.0696-0.30775-0.33412-0.51759-0.6404-0.51759-0.30627 0-0.58471 0.20984-0.65432 0.51759 0 0-0.72392 3.0077-1.2947 5.3998-0.58471-2.3921-1.3086-5.3998-1.3086-5.3998-0.0835-0.36371-0.44549-0.58754-0.80746-0.50361z"/><path d="m119.65 414.42v8.0018c0 0.37771 0.30627 0.67148 0.66823 0.67148h2.7843c0.37588 0 0.66824-0.29377 0.66824-0.67148 0-0.36371-0.29236-0.67147-0.66824-0.67147h-2.1161v-2.7978h1.8376c0.37588 0 0.66824-0.29378 0.66824-0.67148 0-0.36372-0.29236-0.67148-0.66824-0.67148h-1.8376v-2.518h2.1161c0.37588 0 0.66824-0.29377 0.66824-0.67148 0-0.36371-0.29236-0.67148-0.66824-0.67148h-2.7843c-0.36196 0-0.66823 0.30777-0.66823 0.67148z"/><path d="m124.81 413.75c-0.36196 0-0.66823 0.30777-0.66823 0.67148 0 0.37771 0.30627 0.67148 0.66823 0.67148h1.1416v7.3862c0 0.37771 0.30626 0.67148 0.66823 0.67148 0.37588 0 0.66824-0.29377 0.66824-0.67148v-7.3862h1.1416c0.37589 0 0.66825-0.29377 0.66825-0.67148 0-0.36371-0.29236-0.67148-0.66825-0.67148z"/><path d="m55.18 11.054q-0.32294 0.34948-0.8322 0.58662-0.49684 0.24962-1.0558 0.29955-0.2981 0.02496-0.67073 0-0.36021-0.02496-0.708-0.08737-0.33537-0.04992-0.62105-0.12481-0.27326-0.06241-0.39747-0.12481-0.18632-0.08737-0.22358-0.13729-0.03726-0.03744-0.01242-0.17474l0.08695-0.92361q0.01242-0.09985 0.06211-0.12481 0.04968-0.02496 0.18632 0.03744 0.14905 0.06241 0.42231 0.14977 0.27326 0.07489 0.60863 0.13729 0.33537 0.04992 0.67073 0.06241 0.34779 0.01248 0.62105-0.04992 0.36021-0.08737 0.58379-0.22466 0.22358-0.14978 0.34779-0.33699 0.13663-0.1997 0.18631-0.42436 0.04968-0.23714 0.04968-0.48677 0-0.23714-0.31052-0.64902-0.29811-0.41188-0.86947-0.74888-0.69557-0.41188-1.2048-0.76135-0.50926-0.36196-0.84463-0.71143-0.32294-0.34947-0.48442-0.72391-0.16147-0.37444-0.16147-0.82376 0-0.51173 0.21116-0.97353 0.22358-0.47429 0.59621-0.82376 0.38505-0.34947 0.90673-0.54917 0.5341-0.21218 1.1676-0.21218 0.64589 0 1.0558 0.087368 0.42231 0.074887 0.72042 0.18722 0.13663 0.049925 0.16147 0.11233 0.03726 0.049925 0.01242 0.13729l-0.16147 0.7988q-0.02484 0.13729-0.08695 0.18722-0.04968 0.049925-0.18631 0-0.18632-0.062406-0.40989-0.11233-0.22358-0.062406-0.45958-0.099849-0.236-0.037444-0.45958-0.049925-0.21116-0.012481-0.38505 0.012481-0.69557 0.11233-0.98126 0.46181-0.27326 0.33699-0.27326 0.8612 0 0.31203 0.32295 0.69895 0.32294 0.37444 0.94399 0.74887 0.78252 0.47429 1.2794 0.84872 0.50926 0.37444 0.79494 0.72391 0.2981 0.33699 0.40989 0.68647 0.12421 0.34947 0.12421 0.76135 0 1.0983-0.73284 1.8722z"/><path d="m59.101 7.9088v3.657q0 0.16226-0.16147 0.16226h-1.1055q-0.14905 0-0.14905-0.16226v-9.0988q0-0.062406 0.03726-0.099849 0.04968-0.049925 0.11179-0.049925h2.509q1.3787 0 2.1737 0.67399 0.80736 0.67399 0.80736 2.0968 0 0.68647-0.236 1.2232-0.22358 0.52421-0.64589 0.88617-0.40989 0.34947-0.98126 0.53669-0.55894 0.17474-1.2297 0.17474zm0-4.2811v2.983h1.0061q0.8322 0 1.3166-0.34947 0.48442-0.36196 0.48442-1.1857 0-0.71143-0.38505-1.0734-0.38505-0.37444-1.0061-0.37444z"/><path d="m69.818 11.728q-0.13663 0-0.19874-0.02496-0.04968-0.01248-0.11179-0.09985l-1.9004-3.6944h-1.416v3.657q0 0.16226-0.16147 0.16226h-1.1055q-0.14905 0-0.14905-0.16226v-9.0988q0-0.062406 0.03726-0.099849 0.04968-0.049925 0.11179-0.049925h2.509q1.3787 0 2.1861 0.67399 0.80736 0.67399 0.80736 2.0968 0 0.91113-0.39747 1.5477-0.39747 0.62406-1.093 0.94857l2.0743 3.969q0.09937 0.17474-0.14905 0.17474zm-3.6269-8.1003v2.983h1.0185q0.81978 0 1.3042-0.34947 0.48442-0.36196 0.48442-1.1857 0-0.71143-0.38505-1.0734-0.37263-0.37444-1.0061-0.37444z"/><path d="m73.592 11.566q0 0.16226-0.16147 0.16226h-1.1303q-0.16147 0-0.16147-0.16226v-9.0863q0-0.16226 0.16147-0.16226h1.1303q0.16147 0 0.16147 0.16226z"/><path d="m80.869 11.728q-0.09937 0-0.14905-0.03744-0.04968-0.03744-0.12421-0.16226l-3.9002-6.7399v6.7399q0 0.12481-0.03726 0.16226-0.03726 0.03744-0.16147 0.03744h-1.0309q-0.09937 0-0.14905-0.03744-0.04968-0.03744-0.04968-0.16226v-8.999q0-0.14977 0.04968-0.18722 0.04968-0.049925 0.18632-0.049925h1.1427q0.09937 0 0.14905 0.037443 0.04968 0.024962 0.12421 0.16226l3.9002 6.7274v-6.7274q0-0.12481 0.03726-0.16226 0.03726-0.037443 0.16147-0.037443h1.0309q0.12421 0 0.14905 0.037443 0.03726 0.037444 0.03726 0.16226v8.999q0 0.14978-0.04968 0.18722-0.03726 0.04992-0.17389 0.04992z"/><path d="m91.605 11.441q-0.22358 0.11233-0.54652 0.18722-0.32295 0.08737-0.708 0.14978-0.37263 0.06241-0.7701 0.08737-0.38505 0.03744-0.73284 0.03744-1.0309 0-1.9128-0.32451-0.86947-0.32451-1.5029-0.94857-0.63347-0.62406-0.99368-1.5352-0.36021-0.91113-0.36021-2.0719 0-1.0609 0.33537-1.9471 0.33537-0.89865 0.95642-1.5477 0.62105-0.64902 1.5029-1.011t1.9874-0.36196q0.74526 0 1.329 0.087368 0.58379 0.074887 1.1055 0.23714 0.13663 0.037444 0.16147 0.087368 0.02484 0.037443 0.01242 0.087368l-0.14905 1.0609q-0.01242 0.087368-0.0621 0.12481-0.04969 0.037444-0.18632-0.012481-0.58379-0.18722-1.1055-0.26211-0.52168-0.087368-1.1179-0.087368-0.74526 0-1.3539 0.26211-0.60863 0.24962-1.0434 0.72391-0.43473 0.4618-0.68315 1.1108-0.236 0.64902-0.236 1.4478 0 0.8612 0.236 1.5352 0.24842 0.6615 0.68315 1.1233 0.44716 0.44932 1.0558 0.68647 0.60863 0.22466 1.3415 0.22466 0.55894 0 0.96884-0.04992 0.40989-0.04993 0.60863-0.14978v-2.5087h-2.0495q-0.07453 0-0.12421-0.037444-0.03726-0.049925-0.03726-0.11233v-0.9985q0-0.074887 0.04968-0.12481 0.0621-0.049925 0.12421-0.049925h3.1798q0.18632 0 0.236 0.062406 0.04969 0.062406 0.04969 0.24962v4.1188q0 0.18722-0.07453 0.28707-0.07453 0.09985-0.17389 0.16226z"/><path d="m55.017 22.587q-0.13663 0-0.19874-0.02496-0.04968-0.01248-0.11179-0.09985l-1.9004-3.6944h-1.416v3.657q0 0.16226-0.16147 0.16226h-1.1055q-0.14905 0-0.14905-0.16226v-9.0988q0-0.06241 0.03726-0.09985 0.04968-0.04992 0.11179-0.04992h2.509q1.3787 0 2.1861 0.67398t0.80736 2.0968q0 0.91113-0.39747 1.5477-0.39747 0.62406-1.093 0.94857l2.0743 3.969q0.09937 0.17474-0.14905 0.17474zm-3.6269-8.1003v2.983h1.0185q0.81978 0 1.3042-0.34947 0.48442-0.36196 0.48442-1.1857 0-0.71143-0.38505-1.0734-0.37263-0.37444-1.0061-0.37444z"/><path d="m58.008 22.599q-0.24842 0-0.2981-0.04992-0.04968-0.03744-0.04968-0.31203v-8.7244q0-0.24962 0.03726-0.28707 0.04968-0.04992 0.28568-0.04992h4.4094q0.13663 0 0.16147 0.04992 0.02484 0.03744 0.02484 0.14978v0.92361q0 0.12481-0.03726 0.17474-0.03726 0.03744-0.14905 0.03744h-3.3661v2.5462h3.2046q0.18631 0 0.18631 0.1997v0.93609q0 0.21218-0.18631 0.21218h-3.2046v2.8457h3.5151q0.17389 0 0.17389 0.21218v0.93609q0 0.1997-0.17389 0.1997z"/><path d="m68.478 22.449q-0.03726 0.09985-0.07453 0.11233-0.03726 0.02496-0.12421 0.02496h-1.0806q-0.08695 0-0.12421-0.02496-0.03726-0.01248-0.07453-0.11233l-3.3909-9.0988q-0.02484-0.08737 0-0.12481 0.02484-0.04992 0.19874-0.04992h1.0682q0.09937 0 0.13663 0.02496 0.03726 0.01248 0.06211 0.09985l2.6457 7.2641 2.6705-7.2641q0.03726-0.08737 0.07453-0.09985 0.03726-0.02496 0.13663-0.02496h1.0682q0.16147 0 0.18632 0.04992 0.03726 0.03744 0.01242 0.12481z"/><path d="m73.331 22.599q-0.24842 0-0.2981-0.04992-0.04968-0.03744-0.04968-0.31203v-8.7244q0-0.24962 0.03726-0.28707 0.04968-0.04992 0.28568-0.04992h4.4094q0.13663 0 0.16147 0.04992 0.02484 0.03744 0.02484 0.14978v0.92361q0 0.12481-0.03726 0.17474-0.03726 0.03744-0.14905 0.03744h-3.3661v2.5462h3.2046q0.18631 0 0.18631 0.1997v0.93609q0 0.21218-0.18631 0.21218h-3.2046v2.8457h3.5151q0.17389 0 0.17389 0.21218v0.93609q0 0.1997-0.17389 0.1997z"/><path d="m85.105 22.587q-0.13663 0-0.19874-0.02496-0.04968-0.01248-0.11179-0.09985l-1.9004-3.6944h-1.416v3.657q0 0.16226-0.16147 0.16226h-1.1055q-0.14905 0-0.14905-0.16226v-9.0988q0-0.06241 0.03726-0.09985 0.04968-0.04992 0.11179-0.04992h2.509q1.3787 0 2.1861 0.67398t0.80736 2.0968q0 0.91113-0.39747 1.5477-0.39747 0.62406-1.093 0.94857l2.0743 3.969q0.09937 0.17474-0.14905 0.17474zm-3.6269-8.1003v2.983h1.0185q0.81978 0 1.3042-0.34947 0.48442-0.36196 0.48442-1.1857 0-0.71143-0.38505-1.0734-0.37263-0.37444-1.0061-0.37444z"/><path d="m87.81 22.587q-0.14905 0-0.14905-0.12481v-9.1113q0-0.17474 0.14905-0.17474h2.1488q1.416 0 2.1985 0.58662 0.79494 0.58662 0.79494 1.7973 0 0.74887-0.31052 1.2856-0.2981 0.52421-0.85705 0.82376 0.36021 0.13729 0.62105 0.36196 0.27326 0.22466 0.44716 0.51173 0.18632 0.28707 0.27326 0.61158 0.08695 0.31203 0.08695 0.62406 0 1.4104-0.91915 2.1093-0.91915 0.69895-2.6581 0.69895zm1.2669-8.0878v2.5337h0.67073q0.98126 0 1.3911-0.37444 0.40989-0.38692 0.40989-0.98602 0-0.52421-0.36021-0.84872-0.36021-0.32451-1.2297-0.32451zm-0.02484 3.8817v2.8707h0.60863q1.1924 0 1.6644-0.37444 0.48442-0.38692 0.48442-1.0484 0-0.67398-0.52168-1.0609-0.52168-0.38692-1.7638-0.38692z"/><g stroke-width="0"><path d="m43.232 439.85v10.178h10.428v-8.3652h-7.0059v-1.7422zm3.4219 4.2754h3.6992v1.2774h-0.55469v-0.90625h-0.90234v0.97656h-0.18359l-1.5273-1.0449v0.99804h-0.53125zm3.0977 2.1133h0.625v1.209h-3.7461v-1.1621h0.55469v0.97656l1.5508-1h0.23047v0.92969h0.78516z"/><path d="m59.117 444.14h-4.1622v-2.4862h8.4631v2.1377l-2.058 2.0912 2.058 2.0912-0.04623 2.0912h-8.4169v-2.6256h4.0466l-1.5724-1.5568z"/><path d="m64.69 450.05h2.9598v-2.4165h1.2949l1.7805-1.7426-1.7574-1.7659h4.2084v-2.463h-8.4631v2.1144l1.9886 2.0447h-2.0117z"/><path d="m76.482 441.63-4.0684 3.5781v4.8555l2.9355-0.0234v-1.2773h2.6367v1.3008h2.8906v-8.4336zm1.4121 2.4863v2.0684h-2.4512z"/><path d="m82.125 441.66h8.4862v3.4621h-2.9598v-0.97589h-2.5898v3.2994h5.5496v2.6488h-8.4862z"/><path d="m94.632 441.67v0.69336l-2.8184 0.0156v6.9238h2.7969v0.76563h2.8672v-0.76563h2.834v-6.9394h-2.8262v-0.69336zm0.14062 2.8691h2.5742v2.5391h-2.5742z"/></g><path d="m31.276 121.52c-0.37588 0-0.66824 0.30776-0.66824 0.67148v8.0018c0 0.3777 0.29235 0.67147 0.66824 0.67147h1.6706c1.2947 0 2.3388-1.0492 2.3388-2.3502v-4.6444c0-1.301-1.0441-2.3502-2.3388-2.3502zm2.6729 2.3502v4.6444c0 0.55956-0.44549 1.0072-1.0024 1.0072h-1.0024v-6.6588h1.0024c0.55686 0 1.0024 0.44765 1.0024 1.0072z"/><path d="m41.568 124.66v-0.78339c0-1.301-1.0441-2.3502-2.3388-2.3502h-1.6706c-0.36196 0-0.66824 0.30776-0.66824 0.67148v8.0577c0 0.3777 0.30628 0.67147 0.66824 0.67147 0.37588 0 0.66824-0.29377 0.66824-0.67147v-3.2455h0.75177l1.2947 3.4833c0.13922 0.34973 0.5151 0.51759 0.86314 0.3917 0.34804-0.12591 0.52902-0.5176 0.3898-0.86733l-1.2112-3.2735c0.75177-0.39169 1.2529-1.1751 1.2529-2.0844zm-3.3412-1.7906h1.0024c0.55686 0 1.0024 0.44765 1.0024 1.0072v0.78339c0 0.55956-0.44549 1.0072-1.0024 1.0072h-1.0024z"/><path d="m44.813 130.92c0.36196 0 0.66824-0.29377 0.66824-0.67147v-4.0429l1.8794-3.7631c0.16706-0.33574 0.02784-0.74142-0.30628-0.90929-0.3202-0.16787-0.72392-0.028-0.89098 0.30775 0 0-0.77961 1.5528-1.3504 2.7139-0.57078-1.1611-1.3504-2.7139-1.3504-2.7139-0.16706-0.33573-0.57079-0.47562-0.89098-0.30775-0.33412 0.16787-0.47334 0.57355-0.30628 0.90929l1.8794 3.7631v4.0429c0 0.3777 0.29235 0.67147 0.66824 0.67147z"/><path d="m33.065 137.98c-0.32455-0.42053-0.58077-0.88396-0.75158-1.3903-0.16227-0.48919-0.24768-1.0041-0.24768-1.5276 0-0.52351 0.0854-1.0299 0.24768-1.5276 0.17081-0.50634 0.42704-0.96977 0.75158-1.3903 0.14519-0.18023 0.11103-0.43769-0.06832-0.58358-0.17936-0.13732-0.43558-0.10299-0.57223 0.0687-0.38433 0.49776-0.68326 1.047-0.88823 1.6392-0.19644 0.58359-0.29038 1.1843-0.29038 1.7937 0 0.60933 0.09394 1.2101 0.29038 1.7937 0.20498 0.59216 0.5039 1.1414 0.88823 1.6392 0.13665 0.18022 0.39287 0.20598 0.57223 0.0687 0.17935-0.1459 0.21352-0.40336 0.06832-0.58358z"/><path d="m34.007 137.97c0.2306 0 0.40995-0.18022 0.40995-0.41194v-4.9776c0-0.22314-0.17936-0.41194-0.40995-0.41194-0.22206 0-0.40995 0.1888-0.40995 0.41194v4.9776c0 0.23172 0.1879 0.41194 0.40995 0.41194z"/><path d="m38.157 137.96c0.17936-0.0429 0.31601-0.21456 0.31601-0.40336v-4.9776c0-0.22314-0.1879-0.41194-0.40995-0.41194-0.2306 0-0.40995 0.1888-0.40995 0.41194v3.1754c-0.70888-1.4761-1.6142-3.3556-1.6142-3.3556-0.0854-0.17165-0.2733-0.26605-0.4612-0.22313-0.1879 0.0429-0.31601 0.21455-0.31601 0.40335v4.9776c0 0.23172 0.17936 0.41194 0.40995 0.41194 0.22206 0 0.40995-0.18022 0.40995-0.41194v-3.1754c0.70888 1.4761 1.6142 3.3556 1.6142 3.3556 0.07686 0.17165 0.2733 0.26605 0.4612 0.22314z"/><path d="m41.73 133.9s0.17935-0.18881 0.32455-0.32612v3.9821c0 0.23172 0.17935 0.41194 0.40995 0.41194 0.22206 0 0.40995-0.18022 0.40995-0.41194v-4.9776c0-0.16306-0.10249-0.31753-0.25622-0.37761-0.15373-0.0687-0.32455-0.0344-0.44412 0.0858l-1.0249 1.0299c-0.16227 0.16305-0.16227 0.42052 0 0.58358s0.41849 0.16306 0.58077 0z"/><path d="m45.946 134.98c0-0.60933-0.10249-1.2101-0.29892-1.7937-0.19644-0.59217-0.49536-1.1414-0.87969-1.6392-0.13665-0.17163-0.39287-0.20596-0.57223-0.0687-0.17936 0.1459-0.21352 0.40336-0.07686 0.58359 0.33309 0.42051 0.58931 0.88395 0.76012 1.3903 0.16227 0.49776 0.24768 1.0041 0.24768 1.5276 0 0.5235-0.0854 1.0384-0.24768 1.5276-0.17081 0.50634-0.42704 0.96978-0.76012 1.3903-0.13665 0.18021-0.10249 0.43769 0.07686 0.58358 0.17935 0.13731 0.43558 0.11157 0.57223-0.0687 0.38433-0.49776 0.68326-1.047 0.87969-1.6392 0.19644-0.58358 0.29892-1.1843 0.29892-1.7936z"/><path d="m57.735 432.38c0.36196 0 0.66824-0.29377 0.66824-0.67148v-5.106c0.45941 0.99323 0.94667 2.0284 0.94667 2.0284 0.11137 0.23782 0.34804 0.3917 0.61255 0.3917 0.25059 0 0.48726-0.15388 0.59863-0.3917 0 0 0.48726-1.0352 0.96059-2.0284v5.106c0 0.37771 0.29235 0.67148 0.66824 0.67148 0.36196 0 0.66824-0.29377 0.66824-0.67148v-8.1137c0-0.30776-0.22275-0.58754-0.52902-0.65748-0.30628-0.07-0.61255 0.0839-0.75177 0.37771 0 0-0.97451 2.0844-1.6149 3.4553-0.64039-1.3709-1.6288-3.4553-1.6288-3.4553-0.1253-0.29378-0.44549-0.44766-0.75177-0.37771-0.30628 0.07-0.5151 0.34972-0.5151 0.65748v8.1137c0 0.37771 0.29235 0.67148 0.66824 0.67148z"/><path d="m64.908 432.38c0.37588 0 0.66824-0.29377 0.66824-0.67148v-8.1137c0-0.36371-0.29235-0.67147-0.66824-0.67147-0.36196 0-0.66824 0.30776-0.66824 0.67147v8.1137c0 0.37771 0.30628 0.67148 0.66824 0.67148z"/><path d="m66.773 432.31c0.33412 0.16788 0.73784 0.028 0.9049-0.29377l1.4896-3.0077 1.4896 3.0077c0.16706 0.32175 0.57079 0.46165 0.89098 0.29377 0.33412-0.16787 0.47333-0.57356 0.30628-0.8953l-1.9351-3.903 1.7959-3.6092c0.16706-0.33574 0.02784-0.74142-0.30628-0.9093-0.3202-0.16786-0.72392-0.028-0.89098 0.30776l-1.3504 2.7139-1.3504-2.7139c-0.16706-0.33574-0.57079-0.47562-0.9049-0.30776-0.3202 0.16788-0.45941 0.57356-0.29235 0.9093l1.7959 3.6092-1.9351 3.903c-0.16706 0.32174-0.02784 0.72743 0.29235 0.8953z"/><path d="m76.931 432.29c1.0302 0.27977 2.1022-0.16788 2.6312-1.0912 0.1949-0.32175 0.08353-0.72743-0.23667-0.92328-0.3202-0.18186-0.72392-0.07-0.91882 0.25181-0.22275 0.39169-0.68216 0.58754-1.1276 0.47563-0.43157-0.12591-0.73784-0.5176-0.73784-0.97924v-4.7563c0-0.44765 0.30628-0.85334 0.73784-0.96525 0.44549-0.12591 0.9049 0.07 1.1276 0.46164 0.1949 0.32175 0.59863 0.43366 0.91882 0.2518 0.3202-0.19584 0.43157-0.60153 0.23667-0.92328-0.52902-0.92328-1.601-1.3709-2.6312-1.0912-1.0163 0.2658-1.7263 1.2031-1.7263 2.2662v4.7563c0 1.0632 0.71 2.0004 1.7263 2.2662z"/><path d="m82.423 431.89c0.08353 0.29377 0.34804 0.48962 0.65432 0.48962 0.29235 0 0.55686-0.19585 0.64039-0.48962l2.2275-8.1137c0.09745-0.36372-0.11137-0.72743-0.47333-0.82535-0.34804-0.0979-0.72392 0.11191-0.82137 0.46163 0 0-0.93275 3.3994-1.5731 5.7775-0.65432-2.3782-1.5871-5.7775-1.5871-5.7775-0.09745-0.34972-0.47333-0.55956-0.82137-0.46163-0.36196 0.0979-0.57079 0.46163-0.47334 0.82535z"/><path d="m95.294 121.51c-0.34804 0.0979-0.57078 0.46165-0.48726 0.81137l1.949 8.1137c0.06961 0.30776 0.34804 0.5176 0.65432 0.5176 0.30628 0 0.57079-0.20984 0.64039-0.5176 0 0 0.72392-3.0077 1.3086-5.3998 0.57079 2.3921 1.2947 5.3998 1.2947 5.3998 0.0696 0.30776 0.34804 0.5176 0.65431 0.5176 0.30628 0 0.57079-0.20984 0.6404-0.5176l1.949-8.1137c0.0975-0.34972-0.1253-0.71344-0.48725-0.81137-0.36196-0.0839-0.72393 0.1399-0.80746 0.50361 0 0-0.72392 3.0077-1.2947 5.3998-0.5847-2.3921-1.3086-5.3998-1.3086-5.3998-0.06963-0.30775-0.33412-0.51759-0.64039-0.51759s-0.58471 0.20984-0.65432 0.51759c0 0-0.72392 3.0077-1.2947 5.3998-0.58471-2.3921-1.3086-5.3998-1.3086-5.3998-0.08353-0.36371-0.44549-0.58754-0.80745-0.50361z"/><path d="m104.87 122.22v8.0018c0 0.37771 0.30628 0.67148 0.66824 0.67148h2.7843c0.37588 0 0.66824-0.29377 0.66824-0.67148 0-0.36371-0.29236-0.67147-0.66824-0.67147h-2.1161v-2.7978h1.8377c0.37588 0 0.66823-0.29378 0.66823-0.67148 0-0.36372-0.29235-0.67148-0.66823-0.67148h-1.8377v-2.518h2.1161c0.37588 0 0.66824-0.29377 0.66824-0.67148 0-0.36371-0.29236-0.67148-0.66824-0.67148h-2.7843c-0.36196 0-0.66824 0.30777-0.66824 0.67148z"/><path d="m110.04 121.55c-0.36196 0-0.66824 0.30777-0.66824 0.67148 0 0.37771 0.30628 0.67148 0.66824 0.67148h1.1416v7.3863c0 0.3777 0.30628 0.67147 0.66824 0.67147 0.37588 0 0.66823-0.29377 0.66823-0.67147v-7.3863h1.1416c0.37588 0 0.66823-0.29377 0.66823-0.67148 0-0.36371-0.29235-0.67148-0.66823-0.67148z"/><path d="m95.69 137.93c-0.31836-0.41251-0.56969-0.8671-0.73724-1.3638-0.15918-0.47985-0.24296-0.98495-0.24296-1.4985s0.08378-1.0102 0.24296-1.4985c0.16756-0.49669 0.41889-0.95128 0.73724-1.3638 0.14242-0.17678 0.10891-0.42934-0.06702-0.57245-0.17593-0.13469-0.42727-0.10102-0.56131 0.0674-0.377 0.48827-0.67022 1.027-0.87129 1.6079-0.19269 0.57246-0.28484 1.1617-0.28484 1.7594 0 0.59771 0.09216 1.187 0.28484 1.7594 0.20107 0.58088 0.49429 1.1196 0.87129 1.6079 0.13404 0.17679 0.38538 0.20204 0.56131 0.0674 0.17593-0.1431 0.20944-0.39565 0.06702-0.57244z"/><path d="m96.614 137.91c0.2262 0 0.40213-0.17679 0.40213-0.40409v-4.8827c0-0.21887-0.17593-0.40408-0.40213-0.40408-0.21782 0-0.40213 0.18521-0.40213 0.40408v4.8827c0 0.2273 0.18431 0.40409 0.40213 0.40409z"/><path d="m100.69 137.9c0.17593-0.0421 0.30998-0.21046 0.30998-0.39567v-4.8827c0-0.21887-0.18431-0.40408-0.40213-0.40408-0.2262 0-0.40213 0.18521-0.40213 0.40408v3.1148c-0.69536-1.448-1.5834-3.2916-1.5834-3.2916-0.08378-0.16837-0.26809-0.26097-0.4524-0.21888-0.18431 0.0421-0.30998 0.21046-0.30998 0.39566v4.8827c0 0.2273 0.17593 0.40409 0.40213 0.40409 0.21782 0 0.40213-0.17679 0.40213-0.40409v-3.1148c0.69535 1.448 1.5834 3.2916 1.5834 3.2916 0.0754 0.16837 0.26809 0.26097 0.45239 0.21888z"/><path d="m104.19 133.92s0.17594-0.18521 0.31835-0.31991v3.9061c0 0.2273 0.17594 0.40409 0.40214 0.40409 0.21782 0 0.40212-0.17679 0.40212-0.40409v-4.8827c0-0.15995-0.10052-0.31148-0.25133-0.37041-0.15079-0.0674-0.31835-0.0337-0.43564 0.0842l-1.0053 1.0102c-0.15917 0.15995-0.15917 0.4125 0 0.57246 0.15918 0.15994 0.41051 0.15994 0.56969 0z"/><path d="m109.16 134.91h-0.6032v-0.60613c0-0.21888-0.18432-0.40408-0.40214-0.40408-0.22619 0-0.40213 0.1852-0.40213 0.40408v0.60613h-0.60319c-0.22621 0-0.40214 0.18519-0.40214 0.40407 0 0.2273 0.17593 0.40409 0.40214 0.40409h0.60319v0.60612c0 0.22729 0.17594 0.40408 0.40213 0.40408 0.21782 0 0.40214-0.17679 0.40214-0.40408v-0.60612h0.6032c0.21782 0 0.40212-0.17679 0.40212-0.40409 0-0.21888-0.1843-0.40407-0.40212-0.40407z"/><path d="m110.44 133.48c0.19269 0.10943 0.43564 0.0421 0.54456-0.15154 0.0838-0.13469 0.20944-0.23571 0.36024-0.2778 0.15917-0.0421 0.31835-0.0253 0.46077 0.0505 0.13405 0.0758 0.23458 0.20204 0.28485 0.35357 0.0419 0.15153 0.0251 0.3199-0.0419 0.46302l-1.7677 3.3673c-0.0587 0.12629-0.0587 0.26939 0.0168 0.39567 0.0754 0.11786 0.20106 0.19363 0.34349 0.19363h1.8766c0.21782 0 0.40212-0.17679 0.40212-0.40409 0-0.21888-0.1843-0.40408-0.40212-0.40408h-1.2148c0.42726-0.80817 1.4577-2.7781 1.4577-2.7781 0.16755-0.32831 0.20106-0.70715 0.10053-1.0607-0.10891-0.362-0.34348-0.65664-0.67022-0.83342-0.32673-0.17679-0.70373-0.2273-1.0556-0.12628-0.36024 0.10102-0.66184 0.33673-0.84615 0.65664-0.10891 0.19362-0.0419 0.43774 0.1508 0.55561z"/><path d="m115.22 134.98c0-0.5977-0.10054-1.187-0.29322-1.7594-0.1927-0.58087-0.48592-1.1196-0.86291-1.6079-0.13405-0.16836-0.38538-0.20203-0.56131-0.0674-0.17594 0.14311-0.20945 0.39567-0.0754 0.57244 0.32673 0.41251 0.57806 0.8671 0.74561 1.3638 0.15918 0.48826 0.24295 0.98495 0.24295 1.4985s-0.0838 1.0186-0.24295 1.4985c-0.16755 0.49669-0.41888 0.95128-0.74561 1.3638-0.13405 0.17677-0.10054 0.42933 0.0754 0.57244 0.17593 0.13469 0.42726 0.10944 0.56131-0.0674 0.37699-0.48827 0.67021-1.027 0.86291-1.6079 0.19268-0.57245 0.29322-1.1617 0.29322-1.7594z"/></g><path d="m23.664 256.4v39.796" stroke="#fff" stroke-width="3.0939"/><g><path d="m67.906 315.78c-0.38699-0.50144-0.69251-1.054-0.89619-1.6578-0.1935-0.5833-0.29534-1.1973-0.29534-1.8215 0-0.62423 0.10184-1.228 0.29534-1.8215 0.20368-0.60377 0.5092-1.1564 0.89619-1.6578 0.17313-0.2149 0.13239-0.5219-0.08147-0.69587-0.21386-0.16373-0.51938-0.12279-0.68232 0.0819-0.45828 0.59354-0.81471 1.2485-1.0591 1.9546-0.23423 0.69587-0.34625 1.4122-0.34625 2.1388 0 0.72657 0.11202 1.4429 0.34625 2.1388 0.24441 0.70609 0.60085 1.361 1.0591 1.9546 0.16294 0.2149 0.46846 0.2456 0.68232 0.0819 0.21386-0.17397 0.2546-0.48096 0.08147-0.69586z"/><path d="m69.029 315.75c0.27497 0 0.48883-0.2149 0.48883-0.4912v-5.9353c0-0.26606-0.21386-0.4912-0.48883-0.4912-0.26478 0-0.48883 0.22514-0.48883 0.4912v5.9353c0 0.2763 0.22405 0.4912 0.48883 0.4912z"/><path d="m73.978 315.74c0.21386-0.0511 0.3768-0.25583 0.3768-0.48096v-5.9353c0-0.26606-0.22405-0.4912-0.48883-0.4912-0.27496 0-0.48883 0.22514-0.48883 0.4912v3.7863c-0.84527-1.7601-1.9248-4.0012-1.9248-4.0012-0.10184-0.20466-0.32589-0.31722-0.54993-0.26606-0.22405 0.0511-0.37681 0.25583-0.37681 0.48096v5.9353c0 0.2763 0.21386 0.4912 0.48883 0.4912 0.26478 0 0.48883-0.2149 0.48883-0.4912v-3.7863c0.84526 1.7601 1.9248 4.0012 1.9248 4.0012 0.09166 0.20467 0.32589 0.31723 0.54993 0.26606z"/><path d="m77.167 312.19c0-0.72656-0.12221-1.4429-0.35644-2.1388-0.23423-0.7061-0.59067-1.361-1.0489-1.9546-0.16294-0.20466-0.46846-0.24559-0.68232-0.0819-0.21386 0.17397-0.2546 0.48097-0.09166 0.69587 0.39717 0.50143 0.70269 1.054 0.90637 1.6578 0.19349 0.59354 0.29533 1.1973 0.29533 1.8215s-0.10184 1.2382-0.29533 1.8215c-0.20368 0.60375-0.5092 1.1564-0.90637 1.6578-0.16294 0.2149-0.12221 0.5219 0.09166 0.69586 0.21386 0.16374 0.51938 0.13304 0.68232-0.0819 0.45828-0.59352 0.81471-1.2484 1.0489-1.9546 0.23423-0.69586 0.35644-1.4122 0.35644-2.1388z"/></g><path d="m119.34 256.08v40.05" stroke="#fff" stroke-width="3.0939"/><g><path d="m49 231.02h2.4c0.26 0 0.48-0.21 0.48-0.48 0-0.26-0.22-0.48-0.48-0.48h-2.4c-0.27 0-0.48 0.22-0.48 0.48 0 0.27 0.21 0.48 0.48 0.48z"/><path d="m53.74 228.88s0.21-0.22 0.38-0.38v4.64c0 0.27 0.21 0.48 0.48 0.48 0.26 0 0.48-0.21 0.48-0.48v-5.8c0-0.19-0.12-0.37-0.3-0.44-0.18-0.08-0.38-0.04-0.52 0.1l-1.2 1.2c-0.19 0.19-0.19 0.49 0 0.68s0.49 0.19 0.68 0z"/><path d="m57.12 228.36c0.23 0.13 0.52 0.05 0.65-0.18 0.1-0.16 0.25-0.28 0.43-0.33 0.19-0.05 0.38-0.03 0.55 0.06 0.16 0.09 0.28 0.24 0.34 0.42 0.05 0.18 0.03 0.38-0.05 0.55l-2.11 4c-0.07 0.15-0.07 0.32 0.02 0.47 0.09 0.14 0.24 0.23 0.41 0.23h2.24c0.26 0 0.48-0.21 0.48-0.48 0-0.26-0.22-0.48-0.48-0.48h-1.45c0.51-0.96 1.74-3.3 1.74-3.3 0.2-0.39 0.24-0.84 0.12-1.26-0.13-0.43-0.41-0.78-0.8-0.99s-0.84-0.27-1.26-0.15c-0.43 0.12-0.79 0.4-1.01 0.78-0.13 0.23-0.05 0.52 0.18 0.66z"/><path d="m50.787 216.85h2.4c0.26 0 0.48-0.21 0.48-0.48 0-0.26-0.22-0.48-0.48-0.48h-2.4c-0.27 0-0.48 0.22-0.48 0.48 0 0.27 0.21 0.48 0.48 0.48z"/><path d="m56.238 219.45c0.93 0 1.68-0.75 1.68-1.68v-1c0-0.93-0.75-1.68-1.68-1.68-0.26 0-0.5 0.06-0.72 0.16v-0.88c0-0.32 0.22-0.61 0.54-0.69 0.31-0.09 0.64 0.05 0.81 0.33 0.13 0.23 0.42 0.31 0.65 0.18 0.23-0.14 0.31-0.43 0.18-0.66-0.38-0.66-1.16-0.98-1.89-0.78-0.74 0.19-1.25 0.86-1.25 1.62v3.4c0 0.93 0.76 1.68 1.68 1.68zm0-3.4c0.4 0 0.72 0.32 0.72 0.72v1c0 0.4-0.32 0.72-0.72 0.72s-0.72-0.32-0.72-0.72v-1c0-0.4 0.32-0.72 0.72-0.72z"/><path d="m56.293 204.57c0.92 0 1.68-0.75 1.68-1.68v-3.4c0-0.93-0.76-1.68-1.68-1.68-0.93 0-1.68 0.75-1.68 1.68v3.4c0 0.93 0.75 1.68 1.68 1.68zm0-5.8c0.39 0 0.72 0.32 0.72 0.72v3.4c0 0.4-0.33 0.72-0.72 0.72-0.4 0-0.72-0.32-0.72-0.72v-3.4c0-0.4 0.32-0.72 0.72-0.72z"/><path d="m56.293 189.66c0.93 0 1.68-0.75 1.68-1.68v-1c0-0.93-0.75-1.68-1.68-1.68-0.26 0-0.5 0.06-0.72 0.16v-0.88c0-0.32 0.22-0.61 0.54-0.69 0.31-0.09 0.64 0.05 0.81 0.33 0.13 0.23 0.42 0.31 0.65 0.18 0.23-0.14 0.31-0.43 0.18-0.66-0.38-0.66-1.16-0.98-1.89-0.78-0.74 0.19-1.25 0.86-1.25 1.62v3.4c0 0.93 0.76 1.68 1.68 1.68zm0-3.4c0.4 0 0.72 0.32 0.72 0.72v1c0 0.4-0.32 0.72-0.72 0.72s-0.72-0.32-0.72-0.72v-1c0-0.4 0.32-0.72 0.72-0.72z"/><path d="m56.293 172.45c0.26 0 0.51-0.06 0.72-0.16v0.88c0 0.33-0.22 0.61-0.53 0.7-0.31 0.08-0.65-0.06-0.81-0.34-0.13-0.23-0.43-0.31-0.66-0.18-0.22 0.14-0.3 0.43-0.17 0.66 0.38 0.66 1.16 0.98 1.89 0.78 0.73-0.19 1.24-0.86 1.24-1.62v-3.4c0-0.93-0.75-1.68-1.68-1.68-0.92 0-1.68 0.75-1.68 1.68v1c0 0.93 0.76 1.68 1.68 1.68zm0-3.4c0.4 0 0.72 0.32 0.72 0.72v1c0 0.4-0.32 0.72-0.72 0.72-0.39 0-0.72-0.32-0.72-0.72v-1c0-0.4 0.33-0.72 0.72-0.72z"/><path d="m53.468 155.18s0.21-0.22 0.38-0.38v4.64c0 0.27 0.21 0.48 0.48 0.48 0.26 0 0.48-0.21 0.48-0.48v-5.8c0-0.19-0.12-0.37-0.3-0.44-0.18-0.08-0.38-0.04-0.52 0.1l-1.2 1.2c-0.19 0.19-0.19 0.49 0 0.68s0.49 0.19 0.68 0z"/><path d="m56.848 154.66c0.23 0.13 0.52 0.05 0.65-0.18 0.1-0.16 0.25-0.28 0.43-0.33 0.19-0.05 0.38-0.03 0.55 0.06 0.16 0.09 0.28 0.24 0.34 0.42 0.05 0.18 0.03 0.38-0.05 0.55l-2.11 4c-0.07 0.15-0.07 0.32 0.02 0.47 0.09 0.14 0.24 0.23 0.41 0.23h2.24c0.26 0 0.48-0.21 0.48-0.48 0-0.26-0.22-0.48-0.48-0.48h-1.45c0.51-0.96 1.74-3.3 1.74-3.3 0.2-0.39 0.24-0.84 0.12-1.26-0.13-0.43-0.41-0.78-0.8-0.99s-0.84-0.27-1.26-0.15c-0.43 0.12-0.79 0.4-1.01 0.78-0.13 0.23-0.05 0.52 0.18 0.66z"/><path d="m53.273 140.3s0.21-0.22 0.38-0.38v4.64c0 0.27 0.21 0.48 0.48 0.48 0.26 0 0.48-0.21 0.48-0.48v-5.8c0-0.19-0.12-0.37-0.3-0.44-0.18-0.08-0.38-0.04-0.52 0.1l-1.2 1.2c-0.19 0.19-0.19 0.49 0 0.68s0.49 0.19 0.68 0z"/><path d="m56.713 143.64h1.52v0.92c0 0.27 0.21 0.48 0.48 0.48 0.26 0 0.48-0.21 0.48-0.48v-0.92h0.32c0.26 0 0.48-0.21 0.48-0.48 0-0.26-0.22-0.48-0.48-0.48h-0.32v-0.92c0-0.26-0.22-0.48-0.48-0.48-0.27 0-0.48 0.22-0.48 0.48v0.92h-0.86c0.29-0.92 1.2-3.77 1.2-3.77 0.01-0.05 0.02-0.1 0.02-0.15 0-0.2-0.13-0.39-0.33-0.46-0.26-0.08-0.53 0.06-0.61 0.31l-1.4 4.4c-0.04 0.15-0.02 0.31 0.07 0.43 0.09 0.13 0.24 0.2 0.39 0.2z"/><path d="m49.851 238.39c-0.297 0-0.528 0.242-0.528 0.528v6.292c0 0.297 0.231 0.528 0.528 0.528h1.32c1.023 0 1.848-0.825 1.848-1.848v-3.652c0-1.023-0.825-1.848-1.848-1.848zm2.112 1.848v3.652c0 0.44-0.352 0.792-0.792 0.792h-0.792v-5.236h0.792c0.44 0 0.792 0.352 0.792 0.792z"/><path d="m57.724 240.63v-0.396c0-1.023-0.836-1.848-1.848-1.848h-1.32c-0.297 0-0.528 0.242-0.528 0.528v6.292c0 0.297 0.231 0.528 0.528 0.528h1.32c1.012 0 1.848-0.825 1.848-1.848v-0.616c0-0.517-0.22-0.979-0.561-1.32 0.341-0.33 0.561-0.803 0.561-1.32zm-1.056 2.64v0.616c0 0.44-0.352 0.792-0.792 0.792h-0.792v-2.2h0.792c0.44 0 0.792 0.352 0.792 0.792zm-1.584-1.848v-1.98h0.792c0.44 0 0.792 0.352 0.792 0.792v0.396c0 0.44-0.352 0.792-0.792 0.792z"/><path d="m60.273 245.7h1.1c0.275 0 0.495-0.22 0.495-0.495v-4.356c0-0.275-0.22-0.495-0.495-0.495s-0.495 0.22-0.495 0.495v3.861h-0.605c-0.33 0-0.605-0.275-0.605-0.605v-3.256c0-0.275-0.22-0.495-0.495-0.495s-0.495 0.22-0.495 0.495v3.256c0 0.88 0.715 1.595 1.595 1.595z"/><path d="m83.755 233.62c0.92 0 1.68-0.75 1.68-1.68v-3.4c0-0.93-0.76-1.68-1.68-1.68-0.93 0-1.68 0.75-1.68 1.68v3.4c0 0.93 0.75 1.68 1.68 1.68zm0-5.8c0.39 0 0.72 0.32 0.72 0.72v3.4c0 0.4-0.33 0.72-0.72 0.72-0.4 0-0.72-0.32-0.72-0.72v-3.4c0-0.4 0.32-0.72 0.72-0.72z"/><path d="m86.215 233.04c0 0.32 0.26 0.58 0.58 0.58s0.58-0.26 0.58-0.58-0.26-0.58-0.58-0.58-0.58 0.26-0.58 0.58z"/><path d="m88.659 230.7c0.21 0.06 0.43-0.03 0.54-0.22 0.16-0.28 0.49-0.42 0.81-0.33 0.31 0.08 0.53 0.37 0.53 0.69v1.1c0 0.33-0.22 0.61-0.53 0.7-0.32 0.08-0.65-0.06-0.81-0.34-0.14-0.23-0.43-0.31-0.66-0.18-0.23 0.14-0.31 0.43-0.17 0.66 0.38 0.66 1.15 0.98 1.89 0.78 0.73-0.19 1.24-0.86 1.24-1.62v-1.1c0-0.76-0.51-1.43-1.24-1.62-0.34-0.09-0.69-0.07-1 0.04v-1.4h1.6c0.26 0 0.48-0.21 0.48-0.48 0-0.26-0.22-0.48-0.48-0.48h-2.08c-0.26 0-0.48 0.22-0.48 0.48v2.86c0 0.22 0.15 0.41 0.36 0.46z"/><path d="m86.457 214.71s0.21002-0.22001 0.38004-0.38v4.64c0 0.26999 0.21002 0.47999 0.48005 0.47999 0.26003 0 0.48005-0.21 0.48005-0.47999v-5.8c0-0.19-0.12001-0.37-0.30003-0.44001-0.18002-0.08-0.38004-0.04-0.52005 0.10001l-1.2001 1.2c-0.19002 0.19-0.19002 0.49001 0 0.68001 0.19002 0.19 0.49005 0.19 0.68007 0z"/><path d="m85.402 199.31c0.23 0.13 0.52 0.05 0.65-0.18 0.1-0.16 0.25-0.28 0.43-0.33 0.19-0.05 0.38-0.03 0.55 0.06 0.16 0.09 0.28 0.24 0.34 0.42 0.05 0.18 0.03 0.38-0.05 0.55l-2.11 4c-0.07 0.15-0.07 0.32 0.02 0.47 0.09 0.14 0.24 0.23 0.41 0.23h2.24c0.26 0 0.48-0.21 0.48-0.48 0-0.26-0.22-0.48-0.48-0.48h-1.45c0.51-0.96 1.74-3.3 1.74-3.3 0.2-0.39 0.24-0.84 0.12-1.26-0.13-0.43-0.41-0.78-0.8-0.99s-0.84-0.27-1.26-0.15c-0.43 0.12-0.79 0.4-1.01 0.78-0.13 0.23-0.05 0.52 0.18 0.66z"/><path d="m85.377 188.26h1.52v0.92c0 0.27 0.21 0.48 0.48 0.48 0.26 0 0.48-0.21 0.48-0.48v-0.92h0.32c0.26 0 0.48-0.21 0.48-0.48 0-0.26-0.22-0.48-0.48-0.48h-0.32v-0.92c0-0.26-0.22-0.48-0.48-0.48-0.27 0-0.48 0.22-0.48 0.48v0.92h-0.86c0.29-0.92 1.2-3.77 1.2-3.77 0.01-0.05 0.02-0.1 0.02-0.15 0-0.2-0.13-0.39-0.33-0.46-0.26-0.08-0.53 0.06-0.61 0.31l-1.4 4.4c-0.04 0.15-0.02 0.31 0.07 0.43 0.09 0.13 0.24 0.2 0.39 0.2z"/><path d="m86.787 174.79c0.93 0 1.68-0.75 1.68-1.68v-1c0-0.93-0.75-1.68-1.68-1.68-0.26 0-0.5 0.06-0.72 0.16v-0.88c0-0.32 0.22-0.61 0.54-0.69 0.31-0.09 0.64 0.05 0.81 0.33 0.13 0.23 0.42 0.31 0.65 0.18 0.23-0.14 0.31-0.43 0.18-0.66-0.38-0.66-1.16-0.98-1.89-0.78-0.74 0.19-1.25 0.86-1.25 1.62v3.4c0 0.93 0.76 1.68 1.68 1.68zm0-3.4c0.4 0 0.72 0.32 0.72 0.72v1c0 0.4-0.32 0.72-0.72 0.72s-0.72-0.32-0.72-0.72v-1c0-0.4 0.32-0.72 0.72-0.72z"/><path d="m86.787 159.93c0.92974 0 1.6795-0.74999 1.6795-1.68v-0.6c0-0.47-0.18995-0.89-0.49986-1.2 0.30991-0.29999 0.49986-0.72999 0.49986-1.2v-0.4c0-0.93-0.74979-1.68-1.6795-1.68-0.91974 0-1.6795 0.75-1.6795 1.68v0.4c0 0.47 0.19994 0.9 0.50986 1.2-0.30991 0.31001-0.50986 0.73001-0.50986 1.2v0.6c0 0.93 0.75979 1.68 1.6795 1.68zm-0.7198-4.68v-0.4c0-0.4 0.32991-0.72 0.7198-0.72 0.39989 0 0.7198 0.32 0.7198 0.72v0.4c0 0.4-0.31991 0.72-0.7198 0.72-0.38989 0-0.7198-0.32-0.7198-0.72zm1.4396 2.4v0.6c0 0.39999-0.31991 0.72-0.7198 0.72-0.38989 0-0.7198-0.32001-0.7198-0.72v-0.6c0-0.4 0.32991-0.72 0.7198-0.72 0.39989 0 0.7198 0.32 0.7198 0.72z"/><path d="m83.897 140.31s0.21-0.22 0.38-0.38v4.64c0 0.27 0.21 0.48 0.48 0.48 0.26 0 0.48-0.21 0.48-0.48v-5.8c0-0.19-0.12-0.37-0.3-0.44-0.18-0.08-0.38-0.04-0.52 0.1l-1.2 1.2c-0.19 0.19-0.19 0.49 0 0.68s0.49 0.19 0.68 0z"/><path d="m88.677 145.05c0.92 0 1.68-0.75 1.68-1.68v-3.4c0-0.93-0.76-1.68-1.68-1.68-0.93 0-1.68 0.75-1.68 1.68v3.4c0 0.93 0.75 1.68 1.68 1.68zm0-5.8c0.39 0 0.72 0.32 0.72 0.72v3.4c0 0.4-0.33 0.72-0.72 0.72-0.4 0-0.72-0.32-0.72-0.72v-3.4c0-0.4 0.32-0.72 0.72-0.72z"/><path d="m81.945 244.3c0.066 0.231 0.275 0.385 0.517 0.385 0.231 0 0.44-0.154 0.506-0.385l1.76-6.38c0.077-0.286-0.088-0.572-0.374-0.649-0.275-0.077-0.572 0.088-0.649 0.363 0 0-0.737 2.673-1.243 4.543-0.517-1.87-1.254-4.543-1.254-4.543-0.077-0.275-0.374-0.44-0.649-0.363-0.286 0.077-0.451 0.363-0.374 0.649z"/><path d="m86.007 246.85c0.275 0 0.495-0.22 0.495-0.495v-1.749h0.605c0.88 0 1.595-0.715 1.595-1.595v-2.112c0-0.88-0.715-1.595-1.595-1.595h-1.1c-0.275 0-0.495 0.22-0.495 0.495v6.556c0 0.275 0.22 0.495 0.495 0.495zm1.705-3.839c0 0.33-0.275 0.605-0.605 0.605h-0.605v-3.322h0.605c0.33 0 0.605 0.275 0.605 0.605z"/><path d="m90.283 246.85c0.275 0 0.495-0.22 0.495-0.495v-1.749h0.605c0.88 0 1.595-0.715 1.595-1.595v-2.112c0-0.88-0.715-1.595-1.595-1.595h-1.1c-0.275 0-0.495 0.22-0.495 0.495v6.556c0 0.275 0.22 0.495 0.495 0.495zm1.705-3.839c0 0.33-0.275 0.605-0.605 0.605h-0.605v-3.322h0.605c0.33 0 0.605 0.275 0.605 0.605z"/><g><path d="m46.464 271.84c0.76244 0.44023 1.0237 1.4153 0.58352 2.1778-0.44027 0.76251-1.4154 1.0238-2.1778 0.58352-0.76254-0.4402-1.0238-1.4152-0.58352-2.1777 0.44016-0.76248 1.4153-1.0238 2.1778-0.58354" enable-background="new"/><path d="m98.123 271.84c0.76243 0.44023 1.0237 1.4153 0.58352 2.1778-0.44027 0.76251-1.4154 1.0238-2.1778 0.58352-0.76254-0.4402-1.0238-1.4152-0.58352-2.1777 0.44016-0.76248 1.4153-1.0238 2.1778-0.58354" enable-background="new"/><path d="m46.96 278.37c0.8503 0.22787 1.355 1.102 1.1272 1.9523-0.22791 0.85039-1.1021 1.3551-1.9524 1.1272-0.85043-0.22784-1.3551-1.102-1.1272-1.9523 0.2278-0.85035 1.1019-1.3551 1.9524-1.1272" enable-background="new"/><path d="m96.858 265c0.8503 0.22788 1.355 1.102 1.1272 1.9523-0.22791 0.85041-1.1021 1.3551-1.9524 1.1272-0.85043-0.22785-1.3551-1.102-1.1272-1.9524 0.22778-0.85034 1.1019-1.355 1.9524-1.1272" enable-background="new"/><path d="m49.128 284.54c0.88053 5e-5 1.5944 0.71394 1.5945 1.5945-4.3e-5 0.88062-0.71396 1.5946-1.5945 1.5945-0.88062 3e-5 -1.5945-0.71386-1.5945-1.5945-4.3e-5 -0.88054 0.71388-1.5945 1.5945-1.5945" enable-background="new"/><path d="m93.865 258.71c0.88053 4e-5 1.5944 0.71393 1.5945 1.5945-4.3e-5 0.88061-0.71396 1.5946-1.5945 1.5945-0.88062 3e-5 -1.5945-0.71386-1.5945-1.5945-2.8e-5 -0.88054 0.71389-1.5945 1.5945-1.5945" enable-background="new"/><path d="m52.82 289.94c0.85032-0.2278 1.7245 0.27688 1.9523 1.1272 0.22783 0.85041-0.27688 1.7246-1.1272 1.9524-0.8504 0.2279-1.7245-0.27676-1.9523-1.1272-0.2279-0.85031 0.2768-1.7245 1.1272-1.9524" enable-background="new"/><path d="m89.348 253.42c0.85033-0.2278 1.7245 0.27686 1.9523 1.1272 0.22783 0.85041-0.27688 1.7246-1.1272 1.9524-0.8504 0.22791-1.7245-0.27678-1.9523-1.1272-0.2279-0.8503 0.2768-1.7245 1.1272-1.9524" enable-background="new"/><path d="m57.785 294.21c0.76246-0.44017 1.7375-0.17891 2.1778 0.58352 0.44022 0.76252 0.17894 1.7376-0.58354 2.1778-0.76251 0.44027-1.7375 0.17901-2.1777-0.58353-0.44024-0.76242-0.17898-1.7375 0.58352-2.1778" enable-background="new"/><path d="m83.614 249.47c0.76246-0.44017 1.7375-0.17891 2.1778 0.58353 0.44022 0.76252 0.17894 1.7376-0.58354 2.1778-0.76251 0.44027-1.7375 0.17901-2.1777-0.58352-0.44024-0.76242-0.17898-1.7375 0.58352-2.1778" enable-background="new"/><path d="m77.054 247.14c0.62268-0.62261 1.6323-0.62262 2.255 0 0.62267 0.62272 0.62267 1.6324 0 2.255-0.62268 0.62271-1.6323 0.62271-2.255 0-0.62267-0.6226-0.62267-1.6323 0-2.255" enable-background="new"/><path d="m70.116 246.59c0.44024-0.76244 1.4153-1.0237 2.1778-0.58353 0.76251 0.44027 1.0238 1.4154 0.58354 2.1778-0.4402 0.76254-1.4153 1.0238-2.1778 0.58353-0.76246-0.44016-1.0237-1.4152-0.58354-2.1778" enable-background="new"/><path d="m63.271 247.86c0.22788-0.8503 1.102-1.355 1.9523-1.1272 0.85041 0.22792 1.3551 1.1021 1.1272 1.9524-0.22784 0.85043-1.102 1.3551-1.9523 1.1272-0.85034-0.22778-1.355-1.1019-1.1272-1.9524" enable-background="new"/><path d="m82.816 295.59c4.3e-5 -0.88053 0.71393-1.5944 1.5945-1.5945 0.88062 4e-5 1.5946 0.71396 1.5945 1.5945 2.9e-5 0.88062-0.71386 1.5945-1.5945 1.5945-0.88054 4e-5 -1.5945-0.71388-1.5945-1.5945" enable-background="new"/><path d="m56.987 250.85c4.3e-5 -0.88054 0.71393-1.5944 1.5945-1.5945 0.88062 4e-5 1.5946 0.71396 1.5945 1.5945 2.9e-5 0.88062-0.71386 1.5945-1.5945 1.5945-0.88055 3e-5 -1.5945-0.71389-1.5945-1.5945" enable-background="new"/><path d="m88.22 291.9c-0.2278-0.85032 0.27687-1.7244 1.1272-1.9523 0.85041-0.22783 1.7246 0.27688 1.9524 1.1272 0.2279 0.85039-0.27676 1.7245-1.1272 1.9523-0.85031 0.2279-1.7245-0.27681-1.9524-1.1272" enable-background="new"/><path d="m51.692 255.37c-0.2278-0.85032 0.27686-1.7244 1.1272-1.9523 0.85041-0.22783 1.7246 0.27688 1.9524 1.1272 0.22791 0.85039-0.27677 1.7245-1.1272 1.9523-0.8503 0.2279-1.7245-0.27681-1.9524-1.1272" enable-background="new"/><path d="m92.484 286.93c-0.44017-0.76246-0.17891-1.7375 0.58352-2.1778 0.76252-0.44021 1.7376-0.17893 2.1778 0.58354 0.44027 0.76251 0.17901 1.7376-0.58352 2.1778-0.76242 0.44024-1.7375 0.17898-2.1778-0.58353" enable-background="new"/><path d="m47.747 261.1c-0.44017-0.76247-0.17891-1.7375 0.58352-2.1778 0.76252-0.44022 1.7376-0.17894 2.1778 0.58354 0.44027 0.7625 0.17901 1.7375-0.58352 2.1777-0.76242 0.44025-1.7375 0.17898-2.1778-0.58352" enable-background="new"/><path d="m95.318 281.03c-0.62261-0.62269-0.62263-1.6323 0-2.255 0.62271-0.62267 1.6324-0.62267 2.255 0 0.62271 0.62268 0.62271 1.6323 0 2.255-0.6226 0.62267-1.6323 0.62267-2.255 0" enable-background="new"/><path d="m45.42 267.66c-0.62261-0.62268-0.62263-1.6323 0-2.255 0.62271-0.62267 1.6324-0.62267 2.255 0 0.62271 0.62268 0.62271 1.6323 0 2.255-0.6226 0.62267-1.6323 0.62267-2.255 0" enable-background="new"/><path d="m23 78.838c0.87597 0.5058 1.1762 1.6261 0.67042 2.5021-0.50584 0.87608-1.6261 1.1763-2.5021 0.67045-0.87612-0.50578-1.1763-1.6261-0.67043-2.5021 0.50572-0.87605 1.626-1.1762 2.5022-0.67046" enable-background="new"/><path d="m122.09 78.838c0.87599 0.5058 1.1762 1.6261 0.67045 2.5021-0.50585 0.87608-1.6262 1.1763-2.5022 0.67045-0.87611-0.50578-1.1763-1.6261-0.67044-2.5021 0.50572-0.87605 1.626-1.1762 2.5021-0.67046" enable-background="new"/><path d="m24.247 91.478c0.97695 0.2618 1.5568 1.2661 1.2951 2.2431-0.26186 0.97707-1.2662 1.5569-2.2432 1.2951-0.9771-0.26176-1.5569-1.2661-1.2951-2.2431 0.26173-0.97702 1.2661-1.5569 2.2432-1.2951" enable-background="new"/><path d="m119.96 65.832c0.97695 0.26182 1.5568 1.2661 1.2951 2.2431-0.26188 0.97707-1.2662 1.5569-2.2432 1.2951-0.97708-0.26178-1.5569-1.2661-1.2951-2.2431 0.2617-0.97701 1.2661-1.5569 2.2432-1.2951" enable-background="new"/><path d="m28.722 103.37c1.0117 6e-5 1.8319 0.82027 1.832 1.832-5.9e-5 1.0118-0.82032 1.832-1.832 1.832-1.0118 2e-5 -1.832-0.8202-1.832-1.832-4.4e-5 -1.0117 0.8202-1.8319 1.832-1.832" enable-background="new"/><path d="m114.54 53.819c1.0117 5.9e-5 1.8319 0.82027 1.832 1.832-8e-5 1.0118-0.82033 1.832-1.832 1.832-1.0118 2.9e-5 -1.832-0.8202-1.832-1.832-3e-5 -1.0117 0.82023-1.8319 1.832-1.832" enable-background="new"/><path d="m36.122 113.69c0.97699-0.26173 1.9813 0.3181 2.2432 1.2951 0.26176 0.97708-0.31812 1.9815-1.2951 2.2432-0.97707 0.26183-1.9814-0.31801-2.2432-1.2951-0.26182-0.97697 0.31806-1.9813 1.2951-2.2432" enable-background="new"/><path d="m106.19 43.621c0.97699-0.26173 1.9813 0.3181 2.2432 1.2951 0.26176 0.97708-0.31813 1.9814-1.2951 2.2432-0.97706 0.26185-1.9814-0.31801-2.2432-1.2951-0.26183-0.97695 0.31804-1.9813 1.2951-2.2432" enable-background="new"/><path d="m95.488 35.93c0.87603-0.50575 1.9963-0.20557 2.5021 0.67042 0.50576 0.87611 0.20558 1.9964-0.67046 2.5022-0.87608 0.50586-1.9963 0.20567-2.5021-0.67044-0.50582-0.87599-0.20563-1.9963 0.67045-2.5021" enable-background="new"/><path d="m83.158 31.271c0.71542-0.71532 1.8754-0.71534 2.5908 0 0.71542 0.71548 0.71542 1.8755 0 2.5909-0.71542 0.71547-1.8754 0.71547-2.5908 0-0.71542-0.71534-0.71542-1.8754 0-2.5909" enable-background="new"/><path d="m70.044 29.962c0.50583-0.87599 1.6261-1.1762 2.5021-0.67044 0.87608 0.50583 1.1763 1.6262 0.67048 2.5021-0.50578 0.87612-1.6261 1.1763-2.5021 0.67045-0.87603-0.50573-1.1762-1.626-0.67048-2.5022" enable-background="new"/><path d="m57.038 32.092c0.26185-0.97695 1.2661-1.5568 2.2432-1.2951 0.97707 0.26186 1.5569 1.2662 1.2951 2.2432-0.26178 0.9771-1.2661 1.5569-2.2432 1.2951-0.97698-0.26172-1.5569-1.2661-1.2951-2.2432" enable-background="new"/><path d="m45.025 37.516c5.9e-5 -1.0117 0.82029-1.8319 1.832-1.832 1.0118 4.5e-5 1.8321 0.8203 1.832 1.832 4.4e-5 1.0118-0.8202 1.832-1.832 1.832-1.0117 2.9e-5 -1.832-0.82023-1.832-1.832" enable-background="new"/><path d="m104.9 115.93c-0.26173-0.977 0.31811-1.9813 1.2951-2.2431 0.97708-0.26178 1.9814 0.3181 2.2432 1.2951 0.26185 0.97705-0.318 1.9814-1.2951 2.2431-0.97698 0.26184-1.9813-0.31804-2.2432-1.2951" enable-background="new"/><path d="m34.827 45.864c-0.26173-0.97699 0.3181-1.9813 1.2951-2.2431 0.97708-0.26175 1.9815 0.31812 2.2432 1.2951 0.26185 0.97707-0.31801 1.9814-1.2951 2.2432-0.97693 0.26184-1.9813-0.31804-2.2432-1.2951" enable-background="new"/><path d="m112.95 106.11c-0.50573-0.87603-0.20555-1.9963 0.67043-2.5021 0.87611-0.50578 1.9964-0.20559 2.5021 0.67046 0.50587 0.87609 0.20569 1.9964-0.67042 2.5021-0.876 0.50582-1.9963 0.20563-2.5022-0.67045" enable-background="new"/><path d="m27.136 56.567c-0.50573-0.87603-0.20554-1.9963 0.67045-2.5021 0.87609-0.50578 1.9964-0.20558 2.5021 0.67046 0.50585 0.87606 0.20567 1.9963-0.67044 2.5021-0.87599 0.50582-1.9963 0.20563-2.5022-0.67045" enable-background="new"/><path d="m118.19 94.543c-0.71533-0.71542-0.71535-1.8754 0-2.5908 0.71547-0.71542 1.8755-0.71542 2.5909 0 0.71547 0.71542 0.71547 1.8754 0 2.5908-0.71533 0.71542-1.8754 0.71542-2.5909 0" enable-background="new"/><path d="m22.477 68.896c-0.71534-0.71542-0.71535-1.8754 0-2.5908 0.71547-0.71542 1.8755-0.71542 2.5909 0 0.71548 0.71542 0.71548 1.8754 0 2.5908-0.71534 0.71542-1.8754 0.71542-2.5909 0" enable-background="new"/></g></g></g></g></g></svg>
