<?xml version="1.0" encoding="UTF-8"?>
<svg width="30.024mm" height="128.5mm" version="1.1" viewBox="0 0 30.024 128.5" xmlns="http://www.w3.org/2000/svg" xmlns:cc="http://creativecommons.org/ns#" xmlns:dc="http://purl.org/dc/elements/1.1/" xmlns:rdf="http://www.w3.org/1999/02/22-rdf-syntax-ns#">
 <metadata>
  <rdf:RDF>
   <cc:Work rdf:about="">
    <dc:format>image/svg+xml</dc:format>
    <dc:type rdf:resource="http://purl.org/dc/dcmitype/StillImage"/>
   </cc:Work>
  </rdf:RDF>
 </metadata>
 <g transform="translate(20 -153.18)">
  <text x="22.02252" y="288.44272" font-family="Miso" font-size="10.583px" stroke-width=".26458" style="line-height:1.2" xml:space="preserve"/>
  <path d="m-19.914 153.27h29.852v128.33h-29.852z" fill="#171717" stroke="#000" stroke-linejoin="round" stroke-width=".17197"/>
  <g fill="#fff">
   <g stroke-width=".28222" aria-label="STEREO STRIP">
    <path d="m-4.1078 157.07c-0.091554 0.0708-0.19559 0.0915-0.30795 0.0708-0.11236-0.0208-0.20392-0.0874-0.25802-0.18311-0.037454-0.0666-0.12068-0.0874-0.18311-0.0499-0.062423 0.0375-0.083231 0.11652-0.049938 0.18311 0.095715 0.1623 0.25385 0.27466 0.43696 0.31211 0.18311 0.0375 0.37454-8e-3 0.52435-0.12068 0.14982-0.11236 0.24137-0.28299 0.25802-0.47026 0.012485-0.18727-0.0541-0.37037-0.18311-0.50354l-0.66585-0.68666c-0.074908-0.0791-0.1082-0.17478-0.099877-0.28298 0.00832-0.11236 0.0541-0.19976 0.14149-0.26218 0.087392-0.0666 0.18727-0.0874 0.29547-0.0666 0.1082 0.0208 0.19143 0.0791 0.24553 0.17478 0.033292 0.0624 0.11652 0.0874 0.17895 0.0499 0.066585-0.0375 0.087392-0.12068 0.049939-0.18311-0.095715-0.1623-0.24137-0.26634-0.42032-0.30379-0.17895-0.0374-0.36205 4e-3 -0.50771 0.11652-0.14565 0.11236-0.23721 0.27466-0.24969 0.45777-0.016646 0.17895 0.045777 0.35789 0.17478 0.4869l0.66585 0.6825c0.079069 0.0791 0.12068 0.18726 0.1082 0.29963-0.00832 0.11652-0.058261 0.20807-0.15398 0.27882z"/>
    <path d="m-2.0612 154.76h-1.082c-0.070746 0-0.13317 0.0541-0.13317 0.13317 0 0.0791 0.062423 0.13317 0.13317 0.13317h0.40783v2.2639c0 0.0791 0.062423 0.13317 0.13317 0.13317 0.079069 0 0.13317-0.0541 0.13317-0.13317v-2.2639h0.40783c0.079069 0 0.13317-0.0541 0.13317-0.13317 0-0.0791-0.0541-0.13317-0.13317-0.13317z"/>
    <path d="m-1.4044 154.89v2.3804c0 0.0791 0.0541 0.13317 0.13317 0.13317h0.83231c0.079069 0 0.13317-0.0541 0.13317-0.13317 0-0.0791-0.0541-0.13317-0.13317-0.13317h-0.69914v-0.96548h0.61591c0.079069 0 0.13317-0.0541 0.13317-0.13316 0-0.0791-0.0541-0.13317-0.13317-0.13317h-0.61591v-0.88225h0.69914c0.079069 0 0.13317-0.0541 0.13317-0.13317 0-0.0791-0.0541-0.13317-0.13317-0.13317h-0.83231c-0.079069 0-0.13317 0.0541-0.13317 0.13317z"/>
    <path d="m1.5093 155.62v-0.23304c0-0.34957-0.28298-0.63256-0.63255-0.63256h-0.49938c-0.070746 0-0.13317 0.0541-0.13317 0.13317v2.397c0 0.0791 0.062423 0.13317 0.13317 0.13317 0.079069 0 0.13317-0.0541 0.13317-0.13317v-1.0321h0.34125l0.39951 1.0778c0.029131 0.0708 0.10404 0.1082 0.17062 0.0791 0.070746-0.0291 0.1082-0.10403 0.079069-0.17062l-0.38286-1.0321c0.23305-0.0957 0.39118-0.32044 0.39118-0.58678zm-0.63255 0.36622h-0.36622v-0.96548h0.36622c0.20392 0 0.36622 0.16646 0.36622 0.36622v0.23304c0 0.20392-0.1623 0.36622-0.36622 0.36622z"/>
    <path d="m2.096 154.89v2.3804c0 0.0791 0.0541 0.13317 0.13317 0.13317h0.83231c0.079069 0 0.13317-0.0541 0.13317-0.13317 0-0.0791-0.0541-0.13317-0.13317-0.13317h-0.69914v-0.96548h0.61591c0.079069 0 0.13317-0.0541 0.13317-0.13316 0-0.0791-0.0541-0.13317-0.13317-0.13317h-0.61591v-0.88225h0.69914c0.079069 0 0.13317-0.0541 0.13317-0.13317 0-0.0791-0.0541-0.13317-0.13317-0.13317h-0.83231c-0.079069 0-0.13317 0.0541-0.13317 0.13317z"/>
    <path d="m4.3272 157.42c0.34957 0 0.63255-0.28299 0.63255-0.63256v-1.4149c0-0.34957-0.28298-0.63255-0.63255-0.63255-0.34957 0-0.63255 0.28298-0.63255 0.63255v1.4149c0 0.34957 0.28298 0.63256 0.63255 0.63256zm0-2.4137c0.19975 0 0.36622 0.16647 0.36622 0.36622v1.4149c0 0.20392-0.16646 0.36622-0.36622 0.36622-0.20392 0-0.36622-0.1623-0.36622-0.36622v-1.4149c0-0.19975 0.1623-0.36622 0.36622-0.36622z"/>
    <path d="m-2.8412 160.57c-0.091554 0.0708-0.19559 0.0916-0.30795 0.0708s-0.20392-0.0874-0.25802-0.18311c-0.037454-0.0666-0.12068-0.0874-0.18311-0.0499-0.062423 0.0375-0.083231 0.11653-0.049938 0.18311 0.095715 0.1623 0.25385 0.27466 0.43696 0.31212 0.18311 0.0374 0.37454-8e-3 0.52435-0.12069 0.14982-0.11236 0.24137-0.28298 0.25802-0.47025 0.012485-0.18727-0.0541-0.37038-0.18311-0.50355l-0.66585-0.68665c-0.074908-0.0791-0.1082-0.17479-0.099877-0.28299 0.00832-0.11236 0.0541-0.19975 0.14149-0.26218 0.087392-0.0666 0.18727-0.0874 0.29547-0.0666 0.1082 0.0208 0.19143 0.0791 0.24553 0.17478 0.033292 0.0624 0.11652 0.0874 0.17895 0.0499 0.066585-0.0375 0.087392-0.12068 0.049938-0.1831-0.095715-0.1623-0.24137-0.26634-0.42032-0.3038-0.17895-0.0375-0.36205 4e-3 -0.50771 0.11653-0.14565 0.11236-0.23721 0.27466-0.24969 0.45777-0.016646 0.17894 0.045777 0.35789 0.17478 0.4869l0.66585 0.68249c0.079069 0.0791 0.12068 0.18727 0.1082 0.29963-0.00832 0.11652-0.058261 0.20808-0.15398 0.27882z"/>
    <path d="m-0.79464 158.25h-1.082c-0.070746 0-0.13317 0.0541-0.13317 0.13317 0 0.0791 0.062423 0.13317 0.13317 0.13317h0.40783v2.2639c0 0.0791 0.062423 0.13317 0.13317 0.13317 0.079069 0 0.13317-0.0541 0.13317-0.13317v-2.2639h0.40783c0.079069 0 0.13317-0.0541 0.13317-0.13317 0-0.0791-0.0541-0.13317-0.13317-0.13317z"/>
    <path d="m1.1273 159.12v-0.23305c0-0.34957-0.28298-0.63256-0.63255-0.63256h-0.49938c-0.070746 0-0.13317 0.0541-0.13317 0.13317v2.397c0 0.0791 0.062423 0.13317 0.13317 0.13317 0.079069 0 0.13317-0.0541 0.13317-0.13317v-1.0321h0.34125l0.39951 1.0778c0.029131 0.0707 0.10404 0.1082 0.17062 0.0791 0.070746-0.0291 0.1082-0.10404 0.079069-0.17063l-0.38286-1.0321c0.23305-0.0957 0.39118-0.32044 0.39118-0.58677zm-0.63255 0.36621h-0.36622v-0.96548h0.36622c0.20392 0 0.36622 0.16646 0.36622 0.36622v0.23305c0 0.20391-0.1623 0.36621-0.36622 0.36621z"/>
    <path d="m1.8471 160.92c0.079069 0 0.13317-0.0541 0.13317-0.13317v-2.4137c0-0.0791-0.0541-0.13317-0.13317-0.13317-0.070746 0-0.13317 0.0541-0.13317 0.13317v2.4137c0 0.0791 0.062423 0.13317 0.13317 0.13317z"/>
    <path d="m2.6635 158.39v2.397c0 0.0791 0.0541 0.13317 0.13317 0.13317 0.079069 0 0.13317-0.0541 0.13317-0.13317v-1.0321h0.36622c0.34957 0 0.63255-0.28299 0.63255-0.63255v-0.23305c0-0.34957-0.28298-0.63256-0.63255-0.63256h-0.49938c-0.079069 0-0.13317 0.0541-0.13317 0.13317zm0.99877 0.49939v0.23305c0 0.20391-0.16646 0.36621-0.36622 0.36621h-0.36622v-0.96548h0.36622c0.19975 0 0.36622 0.16646 0.36622 0.36622z"/>
   </g>
   <g stroke-width=".28222" aria-label="LEVEL">
    <path d="m-7.7595 277.2h0.70556c0.059972 0 0.11289-0.0459 0.11289-0.11288 0-0.067-0.052917-0.11289-0.11289-0.11289h-0.59267v-1.9191c0-0.067-0.052917-0.11289-0.11289-0.11289-0.067028 0-0.11289 0.0459-0.11289 0.11289v2.032c0 0.067 0.045861 0.11288 0.11289 0.11288z"/>
    <path d="m-6.6732 275.06v2.0179c0 0.067 0.045861 0.11288 0.11289 0.11288h0.70556c0.067028 0 0.11289-0.0459 0.11289-0.11288 0-0.067-0.045861-0.11289-0.11289-0.11289h-0.59267v-0.81845h0.52211c0.067028 0 0.11289-0.0459 0.11289-0.11289 0-0.067-0.045861-0.11289-0.11289-0.11289h-0.52211v-0.74789h0.59267c0.067028 0 0.11289-0.0459 0.11289-0.11289 0-0.067-0.045861-0.11288-0.11289-0.11288h-0.70556c-0.067028 0-0.11289 0.0459-0.11289 0.11288z"/>
    <path d="m-5.525 275.08 0.56444 2.0461c0.014111 0.0459 0.056444 0.0811 0.10936 0.0811 0.052917 0 0.09525-0.0353 0.10583-0.0811l0.56444-2.0461c0.017639-0.06-0.017639-0.12347-0.077611-0.14111-0.059972-0.0141-0.12347 0.0212-0.13758 0.0811-0.059972 0.2152-0.11994 0.42686-0.17639 0.63147-0.09525 0.34573-0.21167 0.762-0.27869 1.0195-0.077611-0.25753-0.18697-0.67028-0.28222-1.0195-0.056445-0.20461-0.11642-0.41627-0.17639-0.63147-0.014111-0.06-0.077611-0.0953-0.13758-0.0811-0.059972 0.0176-0.09525 0.0811-0.077611 0.14111z"/>
    <path d="m-3.8544 275.06v2.0179c0 0.067 0.045861 0.11288 0.11289 0.11288h0.70556c0.067028 0 0.11289-0.0459 0.11289-0.11288 0-0.067-0.045861-0.11289-0.11289-0.11289h-0.59267v-0.81845h0.52211c0.067028 0 0.11289-0.0459 0.11289-0.11289 0-0.067-0.045861-0.11289-0.11289-0.11289h-0.52211v-0.74789h0.59267c0.067028 0 0.11289-0.0459 0.11289-0.11289 0-0.067-0.045861-0.11288-0.11289-0.11288h-0.70556c-0.067028 0-0.11289 0.0459-0.11289 0.11288z"/>
    <path d="m-2.4734 277.2h0.70556c0.059972 0 0.11289-0.0459 0.11289-0.11288 0-0.067-0.052917-0.11289-0.11289-0.11289h-0.59267v-1.9191c0-0.067-0.052917-0.11289-0.11289-0.11289-0.067028 0-0.11289 0.0459-0.11289 0.11289v2.032c0 0.067 0.045861 0.11288 0.11289 0.11288z"/>
   </g>
   <path d="m5.9009 280.67c-0.41719-0.0279-0.82759-0.18138-1.1342-0.47123-0.12142-0.11179-0.46434-0.34455-0.18701-0.41268 0.18845-0.0129 0.24511 0.53366 0.35121 0.29645-0.10332-0.41325 0.15084 0.33551 0.18616 0.0454-0.13639-0.20003 0.3469-0.10714 0.23755 0.0785-0.11976 0.25493 0.24362 0.24831 0.31128 0.15349-0.056255-0.14899-0.17628-0.31777 0.083179-0.21786 0.18734 0.0694 0.65051-0.027 0.44047 0.30081-0.019513 0.17601 0.19859-0.0516 0.25159-0.0759-0.042384-0.2582 0.39416-0.26846 0.52621-0.27984-0.060257 0.13131 0.099754 0.41275 0.13967 0.15342 0.01364-0.12233 0.016258-0.33383 0.077946-0.11173 0.21223-0.0168 0.071766-0.34412 0.33702-0.34334 0.11608-0.036 0.22549-0.17976 0.31306-0.0506 0.14343-0.21589 0.14745 0.15388-0.029991 0.16997-0.28968 0.27788-0.66582 0.43231-1.0088 0.629-0.27529 0.15828-0.58891 0.15238-0.89536 0.13613zm-0.084771-0.76692c-0.16512 8e-3 -0.39215-0.041-0.25947-0.2476-0.00998-0.22011-0.18364 0.025-0.18824 0.0581-0.070446-0.19871-0.12151-0.0357-0.11024 0.0763-0.18962-0.0114-0.29501-0.20878-0.38651-0.28856-0.071907 0.35703-0.24447-0.55955-0.25254-0.14571 0.012301 0.18109-0.30758-0.10334-0.36031-0.18068 0.021883-0.11473-0.03618-0.58623-0.14158-0.28701-0.050781 0.027-0.10416-0.42996-0.17345-0.14747 0.035841 0.10389 0.079021 0.29734-0.050481 0.10765-0.15534-0.34896-0.14376-0.74464-0.20751-1.1168-0.085514-0.76982-0.22978-1.5321-0.30115-2.3035 0.40301 0.14128 0.82057 0.24294 1.2468 0.2808 0.071759-0.14404-0.37002-0.0927-0.49758-0.1605-0.23726-0.055-0.56612-0.0823-0.70449-0.29276 0.035924-0.22643 0.2999-0.27697 0.44515-0.41218 0.2562-0.0571 0.53358-0.0815 0.80214-0.12739 0.61355-0.0619 1.2354-0.0787 1.849-0.0127 0.51099 0.079 1.0316 0.12612 1.5191 0.31029 0.23804 0.088 0.48756 0.16672 0.7014 0.30525 0.35017 0.22895-0.22939 0.32907-0.40448 0.3798-0.11083 0.0267-0.52342 0.0662-0.27419 0.18135 0.2642 4e-3 0.51879-0.0858 0.76353-0.17571-0.14795 0.70403-0.27207 1.4197-0.31469 2.1399 0.00849 0.20678-0.015028 0.40955-0.06629 0.60985-0.00608 0.21968-0.091914 0.39332-0.28183 0.50332-0.18194-0.0767-0.16125 0.29452-0.30532 0.19673-0.10346-0.29588 0.34217-0.19572 0.27286-0.4583 0.12586-0.17906 0.11236-0.40426 0.045007-0.60133 0.069402-0.30741-0.41193-0.39202-0.32083-0.64605 0.10382-0.0516 0.27268-0.0663 0.19985-0.2187 0.11692-0.0531 0.23547-0.0802 0.067716-0.12683 0.01047-0.0946 0.28605-0.1071 0.059059-0.14722 0.14399-0.0292 0.18485-0.18356 0.00166-0.0941-0.056491-0.10191 0.2455-0.14016 0.041103-0.24925-0.19998-0.13649-0.26605-0.49151-0.57461-0.52187-0.25791-0.24277-0.46275 0.0865-0.56074 0.32267-0.11299 0.23358-0.2556 0.45628-0.29934 0.71624-0.0059 0.18889 0.31755 0.39727 0.40563 0.46529 0.10389-5e-3 0.27137-0.0436 0.38984-0.0828-0.11462 0.2183-0.37627 0.35982-0.54875 0.54823-0.1454 0.2444-0.63791 0.41405-0.47142 0.73824 0.087815 0.26243 0.33968 0.49128 0.62951 0.45642 0.10869-0.10974 0.34074 0.0555 0.4069-0.1347 0.22068-0.0691 0.1106 0.30959-0.080799 0.29897-0.14092 0.17123-0.13397-0.23599-0.23631 0.01-0.079076 0.25918-0.43748 0.24378-0.6565 0.36109-0.24404 0.0434 0.035385-0.41224 0.0081-0.54275-0.058085 0.11706-0.19171 0.65328-0.22095 0.29932-0.012988-0.12963-0.00589-0.33706-0.1538-0.18901-0.17695 0.10023 0.12353 0.44518-0.042451 0.52577-0.13267 0.0256-0.27649 0.0367-0.40752 0.0204zm0.21955-0.52861c0.26113-0.12965-0.11813-0.4217-0.20715-0.57529-0.16003 0.17718-0.21496 0.63128 0.14012 0.61469l0.02976-0.0166 0.037274-0.0229zm-0.97939-0.26761c0.33029-0.0365 0.54643-0.31173 0.80539-0.48408 0.10132-0.2171 0.45714-0.45791 0.26953-0.67903-0.2957-0.35861-0.55307-0.74819-0.88206-1.0788-0.15734-0.17096-0.37171-0.54974-0.57998-0.5106-0.23589 0.0544-0.38515 0.25073-0.5383 0.42135 0.047816 0.13901-0.17088 0.2714-0.1845 0.42638-0.087301 0.14564-0.15095 0.28731-0.122 0.47072 0.00134 0.32719 0.081873 0.67695 0.33794 0.89987-0.22171-0.37376 0.31887 0.10049 0.21641 0.15971-0.10724-0.12797-0.31089-0.10274-0.095992-0.0126 0.067753 0.13841 0.47621 0.20775 0.41789 0.25856-0.11619-0.0454-0.40406 8e-3 -0.14777 0.0932 0.16353 0.0376 0.33686 0.057 0.50343 0.0353zm-0.26862-0.0259c-0.013451-0.0783 0.15241 0.0378 0 0zm0.27668-0.0306c0.00381-0.0268 0.026776 0.0242 0 0zm0.1025-0.0264c0.1251-0.0793 0.2392-0.0446 0.03646 5e-3 0.027531 0.0119-0.092198 0.0142-0.03646-5e-3zm-0.27568-0.0376c0.029905-7e-3 0.0015 0.0107 0 0zm0.37085-1.9529c-0.11713-0.0902-0.27338-0.35011-0.057993-0.12493 0.083562 0.0624 0.23793 0.31443 0.057994 0.12445zm-0.74246-0.5723c0.085458-0.0953 0.26348-0.0505 0.042652 6e-3 0.00816 0.0367-0.072497 0.0133-0.042652-6e-3zm2.0847 1.4978c0.021764-0.14031-0.21981-0.43907-0.34416-0.41558-0.21597 0.22743 0.11476 0.48929 0.34416 0.41558zm0.12329-0.25695c0.25082-0.14264 0.1873-0.33659-0.0055-0.5182-0.11931-0.0525-0.26482 0.26657-0.22711 0.33844 0.07175 0.0772 0.060555 0.27289 0.2326 0.17976zm-0.43467-0.93966c0.15653-0.15453-0.12426-0.47065-0.24919-0.51204-0.17654 0.22046-0.15636 0.5933 0.20587 0.52458l0.043318-0.0126zm-0.62342-0.26484c0.29165-0.0724 0.19001-0.29868 0.030562-0.46715-0.045755-0.17764-0.10251-0.24147-0.26134-0.24006-0.20155-9e-3 -0.37356 0.26732-0.2228 0.44418 0.080673 0.16484 0.26241 0.31484 0.45357 0.26303zm1.9108-0.61393c0.16821-0.0882-0.51285-0.0817-0.37416 0.0177 0.12413-3e-3 0.25275 7e-3 0.37416-0.0177zm-0.86407-0.0243c-0.15656-0.12735-0.52021-0.0576-0.75862-0.10695-0.28757-0.0105-0.085692 0.10945 0.078144 0.0808 0.22543 0.0172 0.4557 0.0546 0.68048 0.0261zm-1.5337-0.0865c0.13143-0.0988-0.50223-0.0688-0.19508 3e-3 0.064985 1e-3 0.13086 2e-3 0.19508-3e-3zm2.895 3.7955c-0.10164-0.15669 0.34452-0.60704 0.1604-0.24866-0.044276 0.0727-0.094345 0.24568-0.1604 0.24866z" stroke-width=".006613"/>
  </g>
  <g transform="matrix(.57436 0 0 .56419 -490.78 -82.323)" stroke-width=".83253">
   <g fill="#fff" stroke-width=".83253">
    <g fill="#fff" stroke-width=".83253">
     <path d="m835.52 630.33c0.77158-0.44543 1.7583-0.18106 2.2038 0.59045 0.44547 0.77165 0.1811 1.7584-0.59047 2.2038-0.77162 0.44552-1.7583 0.18116-2.2038-0.59046-0.44549-0.77155-0.18113-1.7583 0.59047-2.2038" enable-background="new"/>
     <path d="m853.91 631.73c4e-5 -0.89104 0.72244-1.6134 1.6135-1.6135 0.89112 5e-5 1.6136 0.72247 1.6135 1.6135 2e-5 0.89114-0.72237 1.6135-1.6135 1.6135-0.89105 3e-5 -1.6135-0.72238-1.6135-1.6135" enable-background="new"/>
    </g>
   </g>
  </g>
  <g>
   <text x="-2.0100055" y="172.56041" enable-background="new" fill="#ffffff" font-family="Miso" font-size="3.3867px" font-stretch="condensed" font-weight="bold" letter-spacing="-.014246px" stroke-width=".28222" word-spacing="0px" style="line-height:0%" xml:space="preserve"><tspan x="-2.0100055" y="172.56041" fill="#ffffff" font-family="Miso" font-size="3.3241px" font-stretch="condensed" font-weight="bold" stroke-width=".28222" style="line-height:1.25"> </tspan></text>
   <rect x=".39344" y="173.39" width="9.3878" height="10.972" rx=".88285" ry=".88285" fill="#fff" stroke="#fff" stroke-linecap="round" stroke-width=".1"/>
   <text x="-3.0683398" y="277.53384" enable-background="new" fill="#ffffff" font-family="Miso" font-size="3.3867px" font-stretch="condensed" font-weight="bold" letter-spacing="-.014246px" stroke-width=".28222" word-spacing="0px" style="line-height:0%" xml:space="preserve"><tspan x="-3.0683398" y="277.53384" fill="#ffffff" font-family="Miso" font-size="3.3241px" font-stretch="condensed" font-weight="bold" stroke-width=".28222" style="line-height:1.25"> </tspan></text>
  </g>
  <g fill="#fff">
   <rect x=".39344" y="161.9" width="9.3878" height="10.972" rx=".88285" ry=".88285" stroke="#fff" stroke-linecap="round" stroke-width=".1"/>
   <g stroke-width=".28473">
    <g aria-label="IN">
     <path d="m-15.909 187.3c0.07574 0 0.12756-0.0518 0.12756-0.12756v-2.312c0-0.0757-0.05182-0.12756-0.12756-0.12756-0.06777 0-0.12756 0.0518-0.12756 0.12756v2.312c0 0.0757 0.05979 0.12756 0.12756 0.12756z"/>
     <path d="m-13.988 187.3c0.05979-0.012 0.09966-0.0638 0.09966-0.12357v-2.312c0-0.0757-0.05182-0.12756-0.12756-0.12756-0.07574 0-0.12756 0.0518-0.12756 0.12756v1.754c-0.14749-0.30695-0.37072-0.76537-0.5501-1.1361-0.10763-0.21924-0.21526-0.44646-0.32289-0.67368-0.0279-0.0518-0.08371-0.0797-0.1435-0.0678-0.05979 0.012-0.09966 0.0638-0.09966 0.12358v2.312c0 0.0757 0.05182 0.12756 0.12756 0.12756s0.12756-0.0518 0.12756-0.12756v-1.754c0.14749 0.30694 0.36674 0.76536 0.54612 1.1361 0.10763 0.21925 0.21526 0.44647 0.32687 0.67368 0.0279 0.0518 0.08371 0.0837 0.14351 0.0678z"/>
    </g>
    <g aria-label="OUT">
     <path d="m3.6134 187.15c0.29633 0 0.53622-0.23988 0.53622-0.53622v-1.1994c0-0.29634-0.23989-0.53623-0.53622-0.53623s-0.53622 0.23989-0.53622 0.53623v1.1994c0 0.29634 0.23989 0.53622 0.53622 0.53622zm0-2.0461c0.16933 0 0.31044 0.14111 0.31044 0.31045v1.1994c0 0.17286-0.14111 0.31045-0.31044 0.31045-0.17286 0-0.31044-0.13759-0.31044-0.31045v-1.1994c0-0.16934 0.13758-0.31045 0.31044-0.31045z"/>
     <path d="m4.7676 186.62v-1.6228c0-0.067-0.052917-0.11289-0.11289-0.11289-0.067028 0-0.11289 0.0459-0.11289 0.11289v1.6228c0 0.29634 0.23989 0.53622 0.53622 0.53622 0.29281 0 0.53622-0.23988 0.53622-0.53622v-1.6228c0-0.067-0.052917-0.11289-0.11289-0.11289-0.067028 0-0.11289 0.0459-0.11289 0.11289v1.6228c0 0.17286-0.14111 0.31045-0.31044 0.31045-0.17286 0-0.31044-0.13759-0.31044-0.31045z"/>
     <path d="m6.9371 184.89h-0.91722c-0.059972 0-0.11289 0.0459-0.11289 0.11288 0 0.067 0.052917 0.11289 0.11289 0.11289h0.34572v1.9191c0 0.067 0.052917 0.11288 0.11289 0.11288 0.067028 0 0.11289-0.0459 0.11289-0.11288v-1.9191h0.34572c0.067028 0 0.11289-0.0459 0.11289-0.11289 0-0.067-0.045861-0.11288-0.11289-0.11288z"/>
    </g>
    <g aria-label="LVL CV">
     <path d="m-7.8917 174.96h0.635c0.053975 0 0.1016-0.0413 0.1016-0.1016s-0.047625-0.1016-0.1016-0.1016h-0.5334v-1.7272c0-0.0603-0.047625-0.1016-0.1016-0.1016-0.060325 0-0.1016 0.0413-0.1016 0.1016v1.8288c0 0.0603 0.041275 0.1016 0.1016 0.1016z"/>
     <path d="m-7.2068 173.06 0.508 1.8415c0.0127 0.0413 0.0508 0.073 0.098425 0.073s0.085725-0.0318 0.09525-0.073l0.508-1.8415c0.015875-0.054-0.015875-0.11112-0.06985-0.127-0.053975-0.0127-0.11112 0.0191-0.12382 0.073-0.053975 0.19367-0.10795 0.38417-0.15875 0.56832-0.085725 0.31115-0.1905 0.6858-0.25082 0.91758-0.06985-0.23178-0.16827-0.60325-0.254-0.91758-0.0508-0.18415-0.10478-0.37465-0.15875-0.56832-0.0127-0.054-0.06985-0.0857-0.12382-0.073-0.053975 0.0159-0.085725 0.073-0.06985 0.127z"/>
     <path d="m-5.5942 174.96h0.635c0.053975 0 0.1016-0.0413 0.1016-0.1016s-0.047625-0.1016-0.1016-0.1016h-0.5334v-1.7272c0-0.0603-0.047625-0.1016-0.1016-0.1016-0.060325 0-0.1016 0.0413-0.1016 0.1016v1.8288c0 0.0603 0.041275 0.1016 0.1016 0.1016z"/>
     <path d="m-3.6978 174.96c0.20955 0.0572 0.43498-0.0349 0.54292-0.22542 0.0254-0.0476 0.00953-0.11113-0.0381-0.1397-0.047625-0.0254-0.11112-0.01-0.1397 0.0381-0.0635 0.11112-0.1905 0.1651-0.31432 0.13017-0.12382-0.0349-0.20638-0.14287-0.20638-0.26987v-1.0795c0-0.127 0.08255-0.23495 0.20638-0.26988 0.12382-0.0349 0.25082 0.019 0.31432 0.13018 0.028575 0.0476 0.092075 0.0667 0.1397 0.0381s0.0635-0.0921 0.0381-0.1397c-0.11112-0.18733-0.3302-0.28575-0.54292-0.22543-0.2159 0.0603-0.35878 0.24765-0.35878 0.46673v1.0795c0 0.21907 0.14288 0.4064 0.35878 0.46672z"/>
     <path d="m-2.9219 173.06 0.508 1.8415c0.0127 0.0413 0.0508 0.073 0.098425 0.073s0.085725-0.0318 0.09525-0.073l0.508-1.8415c0.015875-0.054-0.015875-0.11112-0.06985-0.127-0.053975-0.0127-0.11112 0.0191-0.12382 0.073-0.053975 0.19367-0.10795 0.38417-0.15875 0.56832-0.085725 0.31115-0.1905 0.6858-0.25082 0.91758-0.06985-0.23178-0.16828-0.60325-0.254-0.91758-0.0508-0.18415-0.10478-0.37465-0.15875-0.56832-0.0127-0.054-0.06985-0.0857-0.12382-0.073-0.053975 0.0159-0.085725 0.073-0.06985 0.127z"/>
    </g>
    <g aria-label="PAN CV">
     <path d="m-8.8121 185.01v2.032c0 0.067 0.045861 0.11288 0.11289 0.11288 0.067028 0 0.11289-0.0459 0.11289-0.11288v-0.87489h0.31044c0.29633 0 0.53622-0.23989 0.53622-0.53623v-0.19755c0-0.29634-0.23989-0.53622-0.53622-0.53622h-0.42333c-0.067028 0-0.11289 0.0459-0.11289 0.11288zm0.84667 0.42334v0.19755c0 0.17286-0.14111 0.31045-0.31044 0.31045h-0.31044v-0.81845h0.31044c0.16933 0 0.31044 0.14111 0.31044 0.31045z"/>
     <path d="m-6.3585 187.01-0.56444-2.0461c-0.014111-0.0529-0.056445-0.0847-0.10936-0.0847-0.052917 0-0.09525 0.0317-0.10936 0.0847l-0.56444 2.0461c-0.017639 0.06 0.017639 0.11995 0.077611 0.13759 0.067028 0.0176 0.12347-0.0176 0.14111-0.0776 0.010583-0.0353 0.021167-0.0741 0.03175-0.11642 0.024694-0.0741 0.042333-0.17286 0.081139-0.29633h0.68439c0.03175 0.12347 0.056444 0.22225 0.081139 0.29633 0.010583 0.0423 0.021167 0.0811 0.03175 0.11642 0.017639 0.06 0.077611 0.0952 0.13758 0.0776 0.067028-0.0176 0.098778-0.0776 0.081139-0.13759zm-0.39511-0.57855h-0.55739c0.09525-0.34925 0.20461-0.762 0.27869-1.016 0.067028 0.254 0.18344 0.66675 0.27869 1.016z"/>
     <path d="m-4.9234 187.15c0.052917-0.0106 0.088195-0.0564 0.088195-0.10936v-2.0461c0-0.067-0.045861-0.11289-0.11289-0.11289-0.067028 0-0.11289 0.0459-0.11289 0.11289v1.5522c-0.13053-0.27164-0.32808-0.67734-0.48683-1.0054-0.09525-0.19403-0.1905-0.39511-0.28575-0.5962-0.024694-0.0459-0.074083-0.0705-0.127-0.06-0.052917 0.0106-0.088194 0.0565-0.088194 0.10936v2.0461c0 0.067 0.045861 0.11288 0.11289 0.11288s0.11289-0.0459 0.11289-0.11288v-1.5522c0.13053 0.27164 0.32456 0.67734 0.48331 1.0054 0.09525 0.19403 0.1905 0.39511 0.28928 0.59619 0.024695 0.0459 0.074083 0.0741 0.127 0.06z"/>
     <path d="m-3.3564 187.13c0.23283 0.0635 0.48331-0.0388 0.60325-0.25048 0.028222-0.0529 0.010583-0.12347-0.042333-0.15522-0.052917-0.0282-0.12347-0.0106-0.15522 0.0423-0.070556 0.12348-0.21167 0.18345-0.34925 0.14464-0.13758-0.0388-0.22931-0.15875-0.22931-0.29986v-1.1994c0-0.14111 0.091722-0.26106 0.22931-0.29986 0.13758-0.0388 0.27869 0.0212 0.34925 0.14463 0.03175 0.0529 0.10231 0.0741 0.15522 0.0423 0.052917-0.0318 0.070556-0.10231 0.042333-0.15522-0.12347-0.20814-0.36689-0.3175-0.60325-0.25048-0.23989 0.067-0.39864 0.27517-0.39864 0.51859v1.1994c0 0.24342 0.15875 0.45156 0.39864 0.51859z"/>
     <path d="m-2.4924 185.02 0.56444 2.0461c0.014111 0.0459 0.056445 0.0811 0.10936 0.0811 0.052917 0 0.09525-0.0353 0.10583-0.0811l0.56444-2.0461c0.017639-0.06-0.017639-0.12347-0.077611-0.14111-0.059972-0.0141-0.12347 0.0212-0.13758 0.0811-0.059972 0.2152-0.11994 0.42686-0.17639 0.63147-0.09525 0.34573-0.21167 0.762-0.27869 1.0195-0.077611-0.25753-0.18697-0.67028-0.28222-1.0195-0.056445-0.20461-0.11642-0.41627-0.17639-0.63147-0.014111-0.06-0.077611-0.0952-0.13758-0.0811-0.059972 0.0176-0.09525 0.0811-0.077611 0.14111z"/>
    </g>
   </g>
  </g>
  <g transform="matrix(-.20182 0 0 .20182 191.92 126.45)" enable-background="new">
   <g transform="matrix(1.435 0 0 1.435 -276.95 -296.61)">
    <g fill="#fff">
     <path transform="scale(-1,1)" d="m-855.43 631.89a19.5 19.502 0 0 1-9.2934-21.969 19.5 19.502 0 0 1 18.918-14.529 19.5 19.502 0 0 1 18.824 14.649 19.5 19.502 0 0 1-9.4334 21.909" enable-background="new" fill="none" stroke="#fff" stroke-width="1.1532px"/>
     <path d="m835.74 630.7c0.56677-0.3272 1.2916-0.13299 1.6188 0.43376 0.32724 0.56682 0.13302 1.2916-0.43377 1.6188-0.5668 0.32727-1.2916 0.13306-1.6188-0.43376-0.32726-0.56674-0.13305-1.2916 0.43376-1.6188" enable-background="new" fill="#fff"/>
     <path d="m854.34 631.73c3e-5 -0.65454 0.5307-1.1852 1.1852-1.1852 0.6546 4e-5 1.1853 0.53072 1.1853 1.1853 3e-5 0.65461-0.53064 1.1853-1.1852 1.1852-0.65455 3e-5 -1.1852-0.53065-1.1853-1.1853" enable-background="new" fill="#fff"/>
    </g>
   </g>
  </g>
  <g enable-background="new" fill="#fff" stroke-width=".28222" aria-label="CV">
   <path d="m1.9651 252.33c0.21939 0.0598 0.4554-0.0366 0.56842-0.23602 0.026593-0.0499 0.00997-0.11634-0.039889-0.14626-0.049862-0.0266-0.11634-0.01-0.14626 0.0399-0.066482 0.11635-0.19945 0.17286-0.32909 0.13629-0.12964-0.0366-0.21607-0.14958-0.21607-0.28255v-1.1302c0-0.13296 0.086427-0.24598 0.21607-0.28255 0.12964-0.0366 0.26261 0.0199 0.32909 0.13629 0.029917 0.0499 0.096399 0.0698 0.14626 0.0399 0.049862-0.0299 0.066482-0.0964 0.039889-0.14626-0.11634-0.19613-0.34571-0.29917-0.56842-0.23602-0.22604 0.0632-0.37563 0.25929-0.37563 0.48865v1.1302c0 0.22937 0.14959 0.42549 0.37563 0.48865z"/>
   <path d="m2.7811 250.34 0.53186 1.928c0.013296 0.0432 0.053186 0.0765 0.10305 0.0765 0.049862 0 0.089751-0.0332 0.099724-0.0765l0.53186-1.928c0.016621-0.0565-0.016621-0.11634-0.073131-0.13296-0.05651-0.0133-0.11634 0.0199-0.12964 0.0764-0.05651 0.20277-0.11302 0.40222-0.16621 0.59502-0.089751 0.32576-0.19945 0.71801-0.26261 0.96067-0.073131-0.24266-0.17618-0.63158-0.26593-0.96067-0.053186-0.1928-0.1097-0.39225-0.16621-0.59502-0.013297-0.0565-0.073131-0.0898-0.12964-0.0764-0.05651 0.0166-0.089751 0.0764-0.073131 0.13296z"/>
  </g>
  <g enable-background="new" fill="#fff" stroke-width=".28222" aria-label="PAN">
   <path d="m-6.9126 234.64v1.9147c0 0.0631 0.043214 0.10637 0.10637 0.10637 0.063158 0 0.10637-0.0432 0.10637-0.10637v-0.82439h0.29252c0.27923 0 0.50527-0.22604 0.50527-0.50526v-0.18615c0-0.27923-0.22604-0.50527-0.50527-0.50527h-0.39889c-0.063158 0-0.10637 0.0432-0.10637 0.10637zm0.79779 0.3989v0.18615c0 0.16288-0.13296 0.29252-0.29252 0.29252h-0.29252v-0.7712h0.29252c0.15956 0 0.29252 0.13297 0.29252 0.29253z"/>
   <path d="m-4.5989 236.52-0.53186-1.928c-0.013297-0.0499-0.053186-0.0798-0.10305-0.0798-0.049862 0-0.089751 0.0299-0.10305 0.0798l-0.53186 1.928c-0.016621 0.0565 0.016621 0.11302 0.073131 0.12964 0.063158 0.0166 0.11634-0.0166 0.13296-0.0731 0.00997-0.0332 0.019945-0.0698 0.029917-0.10969 0.023269-0.0698 0.039889-0.16289 0.076455-0.27923h0.64488c0.029917 0.11634 0.053186 0.20942 0.076455 0.27923 0.00997 0.0399 0.019945 0.0764 0.029917 0.10969 0.016621 0.0565 0.073131 0.0897 0.12964 0.0731 0.063158-0.0166 0.093075-0.0731 0.076455-0.12964zm-0.3723-0.54515h-0.52521c0.089751-0.32909 0.1928-0.71801 0.26261-0.95735 0.063158 0.23934 0.17285 0.62826 0.26261 0.95735z"/>
   <path d="m-3.2448 236.65c0.049862-0.01 0.083103-0.0532 0.083103-0.10304v-1.928c0-0.0632-0.043214-0.10638-0.10637-0.10638-0.063158 0-0.10637 0.0432-0.10637 0.10638v1.4626c-0.12299-0.25596-0.30914-0.63823-0.45873-0.94738-0.089751-0.18282-0.1795-0.3723-0.26925-0.56177-0.023269-0.0432-0.069806-0.0665-0.11967-0.0565-0.049862 0.01-0.083103 0.0532-0.083103 0.10305v1.928c0 0.0631 0.043214 0.10637 0.10637 0.10637 0.063158 0 0.10637-0.0432 0.10637-0.10637v-1.4626c0.12299 0.25596 0.30582 0.63823 0.4554 0.94738 0.089751 0.18282 0.1795 0.3723 0.27258 0.56177 0.023269 0.0432 0.069806 0.0698 0.11967 0.0565z"/>
  </g>
  <g transform="matrix(.37414 0 0 .36752 -321.43 1.4916)" stroke-width="1.2222">
   <g fill="#fff" stroke-width="1.2222">
    <path d="m844.73 594.68c0.38167-0.66101 1.227-0.88751 1.888-0.5059 0.66107 0.3817 0.88758 1.2271 0.50591 1.8881-0.38164 0.66108-1.227 0.88759-1.888 0.50588-0.66103-0.3816-0.88755-1.227-0.50591-1.888" enable-background="new" fill="#fff"/>
    <path d="m844.73 594.68c0.38167-0.66101 1.227-0.88751 1.888-0.5059 0.66107 0.3817 0.88758 1.2271 0.50591 1.8881-0.38164 0.66108-1.227 0.88759-1.888 0.50588-0.66103-0.3816-0.88755-1.227-0.50591-1.888" enable-background="new" fill="#fff"/>
    <g stroke-width="1.2222">
     <path transform="scale(-1,1)" d="m-855.43 631.89a19.5 19.502 0 0 1-9.2934-21.969 19.5 19.502 0 0 1 18.918-14.529 19.5 19.502 0 0 1 18.824 14.649 19.5 19.502 0 0 1-9.4334 21.909" enable-background="new" fill="none" stroke="#fff" stroke-width="1.278"/>
     <g fill="#fff">
      <path d="m835.52 630.33c0.77158-0.44543 1.7583-0.18106 2.2038 0.59045 0.44547 0.77165 0.1811 1.7584-0.59047 2.2038-0.77162 0.44552-1.7583 0.18116-2.2038-0.59046-0.44549-0.77155-0.18113-1.7583 0.59047-2.2038" enable-background="new"/>
      <path d="m853.91 631.73c4e-5 -0.89104 0.72244-1.6134 1.6135-1.6135 0.89112 5e-5 1.6136 0.72247 1.6135 1.6135 2e-5 0.89114-0.72237 1.6135-1.6135 1.6135-0.89105 3e-5 -1.6135-0.72238-1.6135-1.6135" enable-background="new"/>
      <path d="m844.3 594.43c0.5196-0.89984 1.6703-1.2082 2.5703-0.68867 0.89991 0.51965 1.2083 1.6704 0.68868 2.5703-0.51956 0.89994-1.6703 1.2083-2.5703 0.68865-0.89985-0.5195-1.2082-1.6703-0.68867-2.5703" enable-background="new"/>
     </g>
    </g>
   </g>
  </g>
  <g enable-background="new" fill="#fff" stroke-width=".28222" aria-label="MUTE">
   <path d="m-15.031 252.35c0.05651 0 0.10637-0.0432 0.10637-0.10638v-1.4526c0.07645 0.16953 0.15956 0.34239 0.22272 0.47535 0.03656 0.0765 0.07313 0.15291 0.10637 0.22604 0.01662 0.0399 0.04986 0.0598 0.0964 0.0598 0.04321 0 0.07313-0.0199 0.0964-0.0598 0.03324-0.0731 0.06981-0.14958 0.10637-0.22604 0.06316-0.13296 0.14294-0.30582 0.22272-0.47535v1.4526c0 0.0632 0.04321 0.10638 0.10637 0.10638 0.05651 0 0.10637-0.0432 0.10637-0.10638v-1.928c0-0.0499-0.03324-0.0931-0.0831-0.10304-0.04986-0.01-0.0964 0.0133-0.11967 0.0565-0.05651 0.12299-0.11302 0.24266-0.16953 0.359-0.0964 0.19612-0.20277 0.43214-0.26593 0.56843-0.06648-0.13629-0.17285-0.36898-0.26593-0.56843-0.05651-0.11634-0.11302-0.23601-0.16953-0.359-0.02327-0.0432-0.06981-0.0665-0.11967-0.0565-0.04986 0.01-0.0831 0.0532-0.0831 0.10304v1.928c0 0.0632 0.04321 0.10638 0.10637 0.10638z"/>
   <path d="m-13.238 251.84v-1.5291c0-0.0631-0.04986-0.10637-0.10637-0.10637-0.06316 0-0.10637 0.0432-0.10637 0.10637v1.5291c0 0.27923 0.22604 0.50527 0.50527 0.50527 0.2759 0 0.50527-0.22604 0.50527-0.50527v-1.5291c0-0.0631-0.04986-0.10637-0.10637-0.10637-0.06316 0-0.10637 0.0432-0.10637 0.10637v1.5291c0 0.16288-0.13296 0.29252-0.29252 0.29252-0.16288 0-0.29252-0.12964-0.29252-0.29252z"/>
   <path d="m-11.192 250.22h-0.86427c-0.05651 0-0.10637 0.0432-0.10637 0.10637 0 0.0632 0.04986 0.10637 0.10637 0.10637h0.32576v1.8083c0 0.0632 0.04986 0.10638 0.10637 0.10638 0.06316 0 0.10637-0.0432 0.10637-0.10638v-1.8083h0.32576c0.06316 0 0.10637-0.0432 0.10637-0.10637 0-0.0632-0.04321-0.10637-0.10637-0.10637z"/>
   <path d="m-10.778 250.33v1.9014c0 0.0632 0.04321 0.10637 0.10637 0.10637h0.66482c0.063159 0 0.10637-0.0432 0.10637-0.10637 0-0.0632-0.043214-0.10637-0.10637-0.10637h-0.55845v-0.7712h0.49197c0.06316 0 0.10637-0.0432 0.10637-0.10637 0-0.0632-0.043214-0.10637-0.10637-0.10637h-0.49197v-0.70472h0.55845c0.063159 0 0.10637-0.0432 0.10637-0.10637 0-0.0632-0.043214-0.10637-0.10637-0.10637h-0.66482c-0.06316 0-0.10637 0.0432-0.10637 0.10637z"/>
  </g>
  <path d="m-4.9907 237.09v1.2361l3.3514 2.7596" fill="none" stroke="#fff" stroke-linecap="round" stroke-width=".265"/>
  <g stroke-width=".28473">
   <g fill="#fff" aria-label="M">
    <path d="m-5.41 218.9c0.047978 0 0.090311-0.0367 0.090311-0.0903v-1.2333c0.064911 0.14393 0.13547 0.29069 0.18909 0.40358 0.031044 0.0649 0.062089 0.12982 0.090311 0.19191 0.014111 0.0339 0.042333 0.0508 0.081844 0.0508 0.036689 0 0.062089-0.0169 0.081844-0.0508 0.028222-0.0621 0.059267-0.127 0.090311-0.19191 0.053622-0.11289 0.12136-0.25965 0.18909-0.40358v1.2333c0 0.0536 0.036689 0.0903 0.090311 0.0903 0.047978 0 0.090311-0.0367 0.090311-0.0903v-1.6369c0-0.0423-0.028222-0.079-0.070556-0.0875-0.042333-8e-3 -0.081844 0.0113-0.1016 0.048-0.047978 0.10442-0.095955 0.20602-0.14393 0.3048-0.081844 0.16651-0.17216 0.36689-0.22578 0.4826-0.056444-0.11571-0.14676-0.31327-0.22578-0.4826-0.047978-0.0988-0.095955-0.20038-0.14393-0.3048-0.019756-0.0367-0.059267-0.0564-0.1016-0.048-0.042333 8e-3 -0.070556 0.0452-0.070556 0.0875v1.6369c0 0.0536 0.036689 0.0903 0.090311 0.0903z"/>
   </g>
   <g fill="#fff" aria-label="L">
    <path d="m-15.295 218.9h0.56444c0.04798 0 0.09031-0.0367 0.09031-0.0903s-0.04233-0.0903-0.09031-0.0903h-0.47413v-1.5353c0-0.0536-0.04233-0.0903-0.09031-0.0903-0.05362 0-0.09031 0.0367-0.09031 0.0903v1.6256c0 0.0536 0.03669 0.0903 0.09031 0.0903z"/>
   </g>
   <g fill="#f6f6f6" aria-label="R">
    <path d="m-18.346 174.3v-0.1778c0-0.2667-0.2159-0.4826-0.4826-0.4826h-0.381c-0.05398 0-0.1016 0.0413-0.1016 0.1016v1.8288c0 0.0603 0.04763 0.1016 0.1016 0.1016 0.06032 0 0.1016-0.0413 0.1016-0.1016v-0.7874h0.26035l0.3048 0.82233c0.02222 0.054 0.07937 0.0825 0.13018 0.0603 0.05398-0.0222 0.08255-0.0794 0.06033-0.13017l-0.2921-0.7874c0.1778-0.073 0.29845-0.24448 0.29845-0.44768zm-0.4826 0.2794h-0.2794v-0.7366h0.2794c0.15558 0 0.2794 0.127 0.2794 0.2794v0.1778c0 0.15558-0.12382 0.2794-0.2794 0.2794z"/>
   </g>
   <g fill="#fff" aria-label="L">
    <path d="m-19.185 164.33h0.635c0.05398 0 0.1016-0.0413 0.1016-0.1016s-0.04763-0.1016-0.1016-0.1016h-0.5334v-1.7272c0-0.0603-0.04763-0.1016-0.1016-0.1016-0.06032 0-0.1016 0.0413-0.1016 0.1016v1.8288c0 0.0603 0.04127 0.1016 0.1016 0.1016z"/>
   </g>
   <g fill="#fff" aria-label="(M)">
    <path d="m-18.128 162.7c0.0194-0.0265 0.01587-0.06-0.01058-0.0794-0.02646-0.0194-0.05997-0.0176-0.07937 9e-3 -0.07761 0.10054-0.13582 0.20813-0.17639 0.32808-0.04057 0.11465-0.05997 0.2346-0.05997 0.35983 0 0.12524 0.0194 0.24518 0.05997 0.35984 0.03881 0.11818 0.09701 0.22754 0.17639 0.32808 0.0194 0.0265 0.05292 0.0282 0.07937 9e-3 0.02646-0.0194 0.02999-0.0529 0.01058-0.0794-0.07056-0.09-0.12347-0.18873-0.16051-0.29457-0.03528-0.10406-0.05292-0.21166-0.05292-0.32279 0-0.11112 0.01764-0.21872 0.05292-0.32279 0.03704-0.10583 0.08996-0.20461 0.16051-0.29457z"/>
    <path d="m-17.913 163.89c0.02999 0 0.05644-0.0229 0.05644-0.0564v-0.77082c0.04057 0.09 0.08467 0.18168 0.11818 0.25224 0.0194 0.0406 0.0388 0.0811 0.05644 0.11994 0.0088 0.0212 0.02646 0.0317 0.05115 0.0317 0.02293 0 0.03881-0.0106 0.05115-0.0317 0.01764-0.0388 0.03704-0.0794 0.05644-0.11994 0.03351-0.0706 0.07585-0.16228 0.11818-0.25224v0.77082c0 0.0335 0.02293 0.0564 0.05644 0.0564 0.02999 0 0.05645-0.0229 0.05645-0.0564v-1.0231c0-0.0264-0.01764-0.0494-0.0441-0.0547-0.02646-5e-3 -0.05115 7e-3 -0.0635 0.03-0.02999 0.0653-0.05997 0.12876-0.08996 0.1905-0.05115 0.10407-0.1076 0.22931-0.14111 0.30163-0.03528-0.0723-0.09172-0.1958-0.14111-0.30163-0.02999-0.0617-0.05997-0.12524-0.08996-0.1905-0.01235-0.0229-0.03704-0.0353-0.0635-0.03-0.02646 5e-3 -0.0441 0.0282-0.0441 0.0547v1.0231c0 0.0335 0.02293 0.0564 0.05645 0.0564z"/>
    <path d="m-16.807 163.3c0-0.12523-0.0194-0.24518-0.05997-0.35983-0.04057-0.11642-0.09878-0.22578-0.17815-0.32808-0.0194-0.0265-0.05292-0.0282-0.07938-9e-3 -0.02293 0.0194-0.02822 0.0529-0.0088 0.0794 0.07055 0.09 0.12347 0.18874 0.16051 0.29457 0.03528 0.10407 0.05292 0.21167 0.05292 0.32279 0 0.11113-0.01764 0.21873-0.05292 0.3228-0.03704 0.10583-0.08996 0.20461-0.16051 0.29457-0.0194 0.0264-0.01411 0.06 0.0088 0.0794 0.02646 0.0194 0.05997 0.0176 0.07938-9e-3 0.07761-0.0988 0.13758-0.20814 0.17815-0.32808 0.04057-0.11466 0.05997-0.2346 0.05997-0.35984z"/>
   </g>
  </g>
  <g transform="matrix(.99855 0 0 1.1743 -53.742 -52.769)" fill="none" stroke="#fff">
   <g transform="translate(.43431)">
    <g stroke-linecap="round">
     <g stroke-width=".273">
      <path d="m36.375 226.47-1.3582 4e-5"/>
      <path d="m36.375 223.67h-1.3582"/>
      <path d="m36.375 220.87h-1.3582"/>
     </g>
     <path d="m36.375 218.08h-1.3582" stroke-width=".473"/>
     <path d="m36.375 215.28h-1.3582" stroke-width=".273"/>
     <path d="m36.375 212.48h-1.3582" stroke-width=".273"/>
    </g>
    <path d="m36.375 209.69h-1.3582" stroke-width=".273"/>
   </g>
   <g transform="translate(5.9157)">
    <g stroke-linecap="round">
     <g stroke-width=".273">
      <path d="m36.375 226.47-1.3582 4e-5"/>
      <path d="m36.375 223.67h-1.3582"/>
      <path d="m36.375 220.87h-1.3582"/>
     </g>
     <path d="m36.375 218.08h-1.3582" stroke-width=".473"/>
     <path d="m36.375 215.28h-1.3582" stroke-width=".273"/>
     <path d="m36.375 212.48h-1.3582" stroke-width=".273"/>
    </g>
    <path d="m36.375 209.69h-1.3582" stroke-width=".273"/>
   </g>
  </g>
  <g transform="matrix(.99855 0 0 1.1743 -43.773 -52.769)" fill="none" stroke="#fff">
   <g transform="translate(.43431)">
    <g stroke-linecap="round">
     <g stroke-width=".273">
      <path d="m36.375 226.47-1.3582 4e-5"/>
      <path d="m36.375 223.67h-1.3582"/>
      <path d="m36.375 220.87h-1.3582"/>
     </g>
     <path d="m36.375 218.08h-1.3582" stroke-width=".473"/>
     <path d="m36.375 215.28h-1.3582" stroke-width=".273"/>
     <path d="m36.375 212.48h-1.3582" stroke-width=".273"/>
    </g>
    <path d="m36.375 209.69h-1.3582" stroke-width=".273"/>
   </g>
   <g transform="translate(5.9157)">
    <g stroke-linecap="round">
     <g stroke-width=".273">
      <path d="m36.375 226.47-1.3582 4e-5"/>
      <path d="m36.375 223.67h-1.3582"/>
      <path d="m36.375 220.87h-1.3582"/>
     </g>
     <path d="m36.375 218.08h-1.3582" stroke-width=".473"/>
     <path d="m36.375 215.28h-1.3582" stroke-width=".273"/>
     <path d="m36.375 212.48h-1.3582" stroke-width=".273"/>
    </g>
    <path d="m36.375 209.69h-1.3582" stroke-width=".273"/>
   </g>
  </g>
  <g transform="matrix(.99855 0 0 1.1743 -33.742 -52.769)" fill="none" stroke="#fff">
   <g transform="translate(.43431)">
    <g stroke-linecap="round">
     <g stroke-width=".273">
      <path d="m36.375 226.47-1.3582 4e-5"/>
      <path d="m36.375 223.67h-1.3582"/>
      <path d="m36.375 220.87h-1.3582"/>
     </g>
     <path d="m36.375 218.08h-1.3582" stroke-width=".473"/>
     <path d="m36.375 215.28h-1.3582" stroke-width=".273"/>
     <path d="m36.375 212.48h-1.3582" stroke-width=".273"/>
    </g>
    <path d="m36.375 209.69h-1.3582" stroke-width=".273"/>
   </g>
   <g transform="translate(5.9157)">
    <g stroke-linecap="round">
     <g stroke-width=".273">
      <path d="m36.375 226.47-1.3582 4e-5"/>
      <path d="m36.375 223.67h-1.3582"/>
      <path d="m36.375 220.87h-1.3582"/>
     </g>
     <path d="m36.375 218.08h-1.3582" stroke-width=".473"/>
     <path d="m36.375 215.28h-1.3582" stroke-width=".273"/>
     <path d="m36.375 212.48h-1.3582" stroke-width=".273"/>
    </g>
    <path d="m36.375 209.69h-1.3582" stroke-width=".273"/>
   </g>
  </g>
  <g stroke-width=".28473">
   <g fill="#fff" aria-label="H">
    <path d="m5.3346 217.18v0.69991h-0.49671v-0.69991c0-0.0536-0.036689-0.0903-0.090311-0.0903-0.047978 0-0.090311 0.0367-0.090311 0.0903v1.6369c0 0.0536 0.042333 0.0903 0.090311 0.0903 0.053622 0 0.090311-0.0367 0.090311-0.0903v-0.75636h0.49671v0.75636c0 0.0536 0.042333 0.0903 0.090311 0.0903 0.053622 0 0.090311-0.0367 0.090311-0.0903v-1.6369c0-0.0536-0.036689-0.0903-0.090311-0.0903-0.047978 0-0.090311 0.0367-0.090311 0.0903z"/>
   </g>
   <g aria-label="R">
    <path d="m9.4338 174.43v-0.17583c0-0.26374-0.2135-0.47724-0.47724-0.47724h-0.37677c-0.053375 0-0.10047 0.0408-0.10047 0.10047v1.8085c0 0.0597 0.047096 0.10047 0.10047 0.10047 0.059655 0 0.10047-0.0408 0.10047-0.10047v-0.77865h0.25746l0.30141 0.81319c0.021978 0.0534 0.078493 0.0816 0.12873 0.0597 0.053375-0.022 0.081633-0.0785 0.059655-0.12872l-0.28885-0.77865c0.17582-0.0722 0.29513-0.24176 0.29513-0.4427zm-0.47724 0.27629h-0.2763v-0.72841h0.2763c0.15385 0 0.2763 0.12558 0.2763 0.27629v0.17583c0 0.15384-0.12245 0.27629-0.2763 0.27629z"/>
   </g>
   <g aria-label="L">
    <path d="m8.6432 164.44h0.62794c0.053375 0 0.10047-0.0408 0.10047-0.10047 0-0.0597-0.047096-0.10047-0.10047-0.10047h-0.52747v-1.708c0-0.0597-0.047096-0.10047-0.10047-0.10047-0.059655 0-0.10047 0.0408-0.10047 0.10047v1.8085c0 0.0597 0.040816 0.10047 0.10047 0.10047z"/>
   </g>
  </g>
  <g transform="matrix(.35717 0 0 .35717 -34.216 132.89)">
   <g enable-background="new" fill="#fff" stroke-width=".64997" aria-label="IN ">
    <path d="m49.26 287.31c0.15013 0 0.25285-0.10273 0.25285-0.25286v-4.583c0-0.15013-0.10272-0.25285-0.25285-0.25285-0.13433 0-0.25285 0.10272-0.25285 0.25285v4.583c0 0.15013 0.11853 0.25286 0.25285 0.25286z"/>
    <path d="m53.078 287.3c0.11852-0.0237 0.19754-0.12642 0.19754-0.24495v-4.583c0-0.15013-0.10272-0.25285-0.25285-0.25285s-0.25285 0.10272-0.25285 0.25285v3.4768c-0.29236-0.60843-0.73486-1.5171-1.0904-2.252-0.21334-0.43459-0.42669-0.88499-0.64004-1.3354-0.05531-0.10272-0.16594-0.15804-0.28446-0.13433-0.11853 0.0237-0.19754 0.12643-0.19754 0.24495v4.583c0 0.15013 0.10272 0.25286 0.25286 0.25286 0.15013 0 0.25285-0.10273 0.25285-0.25286v-3.4767c0.29236 0.60843 0.72696 1.5171 1.0825 2.252 0.21335 0.43459 0.42669 0.88499 0.64794 1.3354 0.05531 0.10272 0.16594 0.16593 0.28446 0.13432z"/>
   </g>
  </g>
  <g transform="matrix(.35717 0 0 .35717 -12.5 131.51)">
   <g enable-background="new" fill="#fff" stroke-width=".64997" aria-label="OUT">
    <path d="m48.675 291.17c0.66374 0 1.2011-0.53731 1.2011-1.201v-2.6866c0-0.66374-0.53732-1.201-1.2011-1.201s-1.2011 0.53731-1.2011 1.201v2.6866c0 0.66374 0.53732 1.201 1.2011 1.201zm0-4.583c0.37928 0 0.69535 0.31607 0.69535 0.69535v2.6866c0 0.38718-0.31607 0.69535-0.69535 0.69535-0.38718 0-0.69535-0.30817-0.69535-0.69535v-2.6866c0-0.37928 0.30817-0.69535 0.69535-0.69535z"/>
    <path d="m51.275 289.97v-3.6348c0-0.15013-0.11853-0.25285-0.25286-0.25285-0.15013 0-0.25285 0.10272-0.25285 0.25285v3.6348c0 0.66374 0.53732 1.201 1.2011 1.201 0.65584 0 1.2011-0.53731 1.2011-1.201v-3.6348c0-0.15013-0.11852-0.25285-0.25285-0.25285-0.15013 0-0.25285 0.10272-0.25285 0.25285v3.6348c0 0.38718-0.31607 0.69535-0.69535 0.69535-0.38718 0-0.69535-0.30817-0.69535-0.69535z"/>
    <path d="m56.149 286.12h-2.0544c-0.13433 0-0.25285 0.10272-0.25285 0.25286 0 0.15013 0.11853 0.25285 0.25285 0.25285h0.77437v4.2985c0 0.15013 0.11852 0.25285 0.25285 0.25285 0.15013 0 0.25285-0.10272 0.25285-0.25285v-4.2985h0.77437c0.15013 0 0.25285-0.10272 0.25285-0.25285 0-0.15014-0.10272-0.25286-0.25285-0.25286z"/>
   </g>
   <text x="69.579605" y="296.00568" font-family="Miso" font-size="29.631px" stroke-width=".74078" style="line-height:1.2" xml:space="preserve"/>
  </g>
  <g transform="matrix(.57436 0 0 .56419 -490.78 -82.323)" stroke-width=".83253">
   <g fill="#fff" stroke-width=".83253">
    <g stroke-width=".83253">
     <path transform="scale(-1,1)" d="m-855.43 631.89a19.5 19.502 0 0 1-9.9267-17.662 19.5 19.502 0 0 1 11.108-16.943" enable-background="new" fill="none" stroke="#fff" stroke-width=".87053"/>
     <path d="m835.52 630.33c0.77158-0.44543 1.7583-0.18106 2.2038 0.59045 0.44547 0.77165 0.1811 1.7584-0.59047 2.2038-0.77162 0.44552-1.7583 0.18116-2.2038-0.59046-0.44549-0.77155-0.18113-1.7583 0.59047-2.2038" enable-background="new" fill="#fff"/>
     <path d="m853.91 631.73c4e-5 -0.89104 0.72244-1.6134 1.6135-1.6135 0.89112 5e-5 1.6136 0.72247 1.6135 1.6135 2e-5 0.89114-0.72237 1.6135-1.6135 1.6135-0.89105 3e-5 -1.6135-0.72238-1.6135-1.6135" enable-background="new" fill="#fff"/>
     <path transform="scale(-1,1)" d="m-857.87 599.5a19.5 19.521 0 0 1 20.244-2.297 19.5 19.521 0 0 1 11.239 17.012 19.5 19.521 0 0 1-10.035 17.75" enable-background="new" fill="none" stroke="#fff" stroke-width=".87053"/>
     <path d="m835.52 630.33c0.77158-0.44543 1.7583-0.18106 2.2038 0.59045 0.44547 0.77165 0.1811 1.7584-0.59047 2.2038-0.77162 0.44552-1.7583 0.18116-2.2038-0.59046-0.44549-0.77155-0.18113-1.7583 0.59047-2.2038" enable-background="new" fill="#fff"/>
     <path d="m853.91 631.73c4e-5 -0.89104 0.72244-1.6134 1.6135-1.6135 0.89112 5e-5 1.6136 0.72247 1.6135 1.6135 2e-5 0.89114-0.72237 1.6135-1.6135 1.6135-0.89105 3e-5 -1.6135-0.72238-1.6135-1.6135" enable-background="new" fill="#fff"/>
    </g>
   </g>
  </g>
 </g>
 <g display="none">
  <g transform="matrix(-.26458 0 0 .31282 11.451 -23.958)" display="inline">
   <rect x="20.156" y="194.57" width="8.6812" height="82.813" rx="4.3406" ry="5.9719" display="inline" fill="#333" stroke="#000" stroke-width=".33636"/>
   <g transform="translate(-167.14 -255.25)" display="inline"></g>
  </g>
  <g transform="matrix(-.26458 0 0 .31282 21.505 -23.958)" display="inline">
   <rect x="20.156" y="194.57" width="8.6812" height="82.813" rx="4.3406" ry="5.9719" display="inline" fill="#333" stroke="#000" stroke-width=".33636"/>
   <g transform="translate(-167.14 -255.25)" display="inline"></g>
  </g>
  <g transform="matrix(-.26458 0 0 .31282 31.55 -23.958)" display="inline">
   <rect x="20.156" y="194.57" width="8.6812" height="82.813" rx="4.3406" ry="5.9719" display="inline" fill="#333" stroke="#000" stroke-width=".33636"/>
   <g transform="translate(-167.14 -255.25)" display="inline"></g>
  </g>
  <g fill="#f00" stroke-width=".26458">
   <circle cx="22.842" cy="91.244" r="3.5547" display="inline"/>
   <circle cx="7.4156" cy="91.244" r="3.5547" display="inline"/>
   <circle cx="15.042" cy="74.11" r="3.5547" display="inline"/>
  </g>
  <circle cx="4.0502" cy="69.906" r="1.029" display="inline" fill="#f0f" fill-rule="evenodd" stroke-width=".26458"/>
  <circle cx="26.05" cy="69.906" r="1.029" display="inline" fill="#f0f" fill-rule="evenodd" stroke-width=".26458"/>
  <g transform="matrix(.26718 0 0 -.28294 -31.066 124.98)" display="inline" stroke-width="1.2835">
   <g>
    <rect transform="matrix(0,-1,-1,0,0,0)" x="-177.37" y="-216.56" width="16.459" height="8.0108" fill="#232323"/>
    <rect transform="matrix(0,-1,-1,0,0,0)" x="-177.37" y="-216.56" width="16.459" height="8.0108" fill="#404040" stroke="#000" stroke-linecap="round" stroke-linejoin="round" stroke-width=".51992"/>
    <rect transform="matrix(0,-1,-1,0,0,0)" x="-168.25" y="-215.75" width="6.561" height="6.418" fill="#8c8c8c"/>
   </g>
   <g fill="none" stroke="#000" stroke-linejoin="round">
    <rect transform="matrix(0,-1,-1,0,0,0)" x="-168.25" y="-215.75" width="6.561" height="6.418" stroke-linecap="round" stroke-width=".67465"/>
    <g stroke-linecap="square" stroke-width="1.3493">
     <line x1="215.45" x2="209.59" y1="166.52" y2="166.52"/>
     <line x1="215.51" x2="209.65" y1="164.93" y2="164.93"/>
     <line x1="215.51" x2="209.65" y1="163.2" y2="163.2"/>
    </g>
   </g>
  </g>
  <g transform="matrix(.26718 0 0 -.28294 -52.448 124.98)" display="inline" stroke-width="1.2835">
   <g>
    <rect transform="matrix(0,-1,-1,0,0,0)" x="-177.37" y="-216.56" width="16.459" height="8.0108" fill="#232323"/>
    <rect transform="matrix(0,-1,-1,0,0,0)" x="-177.37" y="-216.56" width="16.459" height="8.0108" fill="#404040" stroke="#000" stroke-linecap="round" stroke-linejoin="round" stroke-width=".51992"/>
    <rect transform="matrix(0,-1,-1,0,0,0)" x="-168.25" y="-215.75" width="6.561" height="6.418" fill="#8c8c8c"/>
   </g>
   <g fill="none" stroke="#000" stroke-linejoin="round">
    <rect transform="matrix(0,-1,-1,0,0,0)" x="-168.25" y="-215.75" width="6.561" height="6.418" stroke-linecap="round" stroke-width=".67465"/>
    <g stroke-linecap="square" stroke-width="1.3493">
     <line x1="215.45" x2="209.59" y1="166.52" y2="166.52"/>
     <line x1="215.51" x2="209.65" y1="164.93" y2="164.93"/>
     <line x1="215.51" x2="209.65" y1="163.2" y2="163.2"/>
    </g>
   </g>
  </g>
  <g fill="#0f0" fill-rule="evenodd" stroke-width=".26458">
   <circle cx="5.0376" cy="14.852" r="1.029"/>
   <circle cx="15.023" cy="14.852" r="1.029" display="inline"/>
   <circle cx="5.0376" cy="26.304" r="1.029" display="inline"/>
   <circle cx="15.023" cy="26.304" r="1.029" display="inline"/>
  </g>
  <circle cx="25.069" cy="14.882" r="1.029" display="inline" fill="#00f" fill-rule="evenodd" stroke-width=".26458"/>
  <circle cx="25.069" cy="26.317" r="1.029" display="inline" fill="#00f" fill-rule="evenodd" stroke-width=".26458"/>
  <g fill="#f00" stroke-width=".26458">
   <circle cx="15.054" cy="111.33" r="3.5547"/>
   <rect x="2.7626" y="35.85" width="1.5111" height="2.3391"/>
   <rect x="3.2718" y="74.798" width="1.5111" height="2.3391" display="inline"/>
   <rect x="24.654" y="74.798" width="1.5111" height="2.3391" display="inline"/>
   <rect x="12.817" y="35.85" width="1.3727" height="2.5262"/>
   <rect x="22.861" y="35.85" width="1.3372" height="2.9939"/>
  </g>
 </g>
</svg>
