<?xml version="1.0" encoding="UTF-8"?>
<svg width="30.48mm" height="128.5mm" version="1.1" viewBox="0 0 30.48 128.5" xmlns="http://www.w3.org/2000/svg" xmlns:cc="http://creativecommons.org/ns#" xmlns:dc="http://purl.org/dc/elements/1.1/" xmlns:rdf="http://www.w3.org/1999/02/22-rdf-syntax-ns#">
 <metadata>
  <rdf:RDF>
   <cc:Work rdf:about="">
    <dc:format>image/svg+xml</dc:format>
    <dc:type rdf:resource="http://purl.org/dc/dcmitype/StillImage"/>
   </cc:Work>
  </rdf:RDF>
 </metadata>
 <g id="background">
  <g transform="matrix(.38026 0 0 .37352 -300.52 -205.45)" stroke-width="1.2222">
   <g fill="#fff" stroke-width="1.2222"></g>
  </g>
  <rect x=".11633" y=".11633" width="30.247" height="128.27" fill="#171717" fill-rule="evenodd" stroke="#000" stroke-width=".23266px"/>
  <text x="26.130953" y="133.16141" enable-background="new" fill="#000000" font-family="Ubuntu" font-size="3.3867px" letter-spacing="0px" stroke-width=".28222" word-spacing="0px" style="line-height:0%" xml:space="preserve"><tspan x="26.130953" y="133.16141" font-family="'Red October'" font-size="2.5648px" stroke-width=".28222" style="line-height:1.25"> </tspan></text>
  <g transform="matrix(.22494 0 0 .22494 -39.998 5.1831)">
   <g transform="matrix(.10651 0 0 .10651 218.82 498.27)" fill="#fff">
    <g fill="#fff">
     <polygon transform="scale(1.0667)" points="640.94 259.06 537.07 259.06 537.07 362.93 640.94 362.93 640.94 328.3 606.32 328.3 571.69 328.3 571.69 305.22 571.69 289.29 606.32 289.29 606.32 298.07 640.94 298.07"/>
     <g stroke-width="1.0667">
      <path d="m443.54 321.06v66.065h36.864v-32.247h36.933v32.247h37.001v-110.8h-66.067zm73.82 10.667-36.979-2e-3 36.979-33.687z"/>
      <path d="m111.1 276.33v-18.732h-36.979l0.1664 129.53h110.8v-110.8zm55.038 60.337h-18.485v16.068h-10.009v-16.068h-3.5157l-23.199 16.068v-16.068h-18.177v-9.3643h18.177v-16.067l23.198 16.067h3.5168v-16.067h10.009v16.067h18.485z"/>
      <path d="m702.14 276.33v110.8h110.8v-110.8zm73.731 73.865h-36.932v-36.931h36.932z"/>
     </g>
     <polygon transform="scale(1.0667)" points="294.7 259.06 190.82 259.06 190.82 289.29 253.52 289.29 231.13 310.99 254.39 332.7 190.82 332.7 190.82 362.93 294.7 362.93 294.7 332.7 272.37 311.11 294.7 289.29"/>
     <polygon transform="scale(1.0667)" points="312.34 332.86 312.34 363.05 355.54 363.29 355.54 332.56 375.97 311.11 355.54 289.27 405.68 289.41 436.56 259.18 312.34 259.18 312.34 289.41 333.84 311.11"/>
    </g>
   </g>
  </g>
  <text x="8.7062699e-07" y="83.178612" fill="#000000" font-family="Nyet" font-size="3.3867px" font-weight="bold" letter-spacing="0px" stroke-width=".28222" word-spacing="0px" style="line-height:0%" xml:space="preserve"><tspan x="8.7062699e-07" y="83.178612" font-size="3.9434px" stroke-width=".28222" style="line-height:1.25"> </tspan></text>
  <text x="23.118023" y="5.0015345" fill="#c4c4c4" font-family="Nyet" font-size="3.3867px" font-weight="bold" letter-spacing="0px" stroke-width=".28222" word-spacing="0px" style="line-height:0%" xml:space="preserve"><tspan x="23.118023" y="5.0015345" fill="#c4c4c4" font-size="4.5156px" stroke-width=".28222" style="line-height:1.25"> </tspan></text>
  <g fill="#fff">
   <rect x="14.2" y="100.56" width="14.5" height="19.65" rx="1.5968" ry="1.6478"/>
   <g enable-background="new" aria-label="STMIX">
    <path d="m15.828 4.5437q0.07112-0.0508 0.10668-0.12192t0.04572-0.15748q0.01524-0.17272-0.10668-0.3048l-0.8128-0.83312q-0.13208-0.13208-0.19304-0.3048t-0.04572-0.3556 0.1016-0.34036q0.08636-0.16256 0.23368-0.27432t0.32512-0.1524q0.18288-0.04064 0.36068-0.00508 0.1778 0.04064 0.32512 0.14732 0.1524 0.1016 0.24384 0.26416 0.0508 0.08636 0.02032 0.18288-0.0254 0.09652-0.11176 0.1524-0.08636 0.0508-0.18288 0.0254-0.09652-0.03048-0.14732-0.11684-0.08636-0.13716-0.24384-0.1778-0.16256-0.03048-0.29464 0.07112-0.13208 0.09652-0.14224 0.26416-0.01524 0.16256 0.1016 0.2794l0.80772 0.83312q0.13208 0.13716 0.19812 0.31496t0.0508 0.36576q-0.01524 0.19304-0.10668 0.3556t-0.23876 0.2794q-0.1524 0.11684-0.33528 0.15748t-0.37084 0.00508q-0.18796-0.04064-0.34036-0.14732-0.1524-0.11176-0.24384-0.27432-0.05588-0.08636-0.03048-0.18288 0.03048-0.1016 0.11684-0.1524t0.18288-0.02032q0.09652 0.0254 0.1524 0.11176 0.08636 0.14732 0.25908 0.18796 0.1778 0.03048 0.31496-0.0762z"/>
    <path d="m18.204 1.6989q0.1016 0 0.17272 0.07112t0.07112 0.17272-0.07112 0.17272-0.17272 0.07112h-0.41656v2.6822q0 0.1016-0.07112 0.17272t-0.17272 0.07112-0.17272-0.07112-0.07112-0.17272v-2.6822h-0.41656q-0.1016 0-0.17272-0.07112t-0.07112-0.17272 0.07112-0.17272 0.17272-0.07112z"/>
    <path d="m19.001 5.1127q-0.1016 0-0.17272-0.07112t-0.07112-0.17272v-2.9464q0-0.08636 0.0508-0.1524t0.13716-0.08636 0.16256 0.02032q0.0762 0.03556 0.11176 0.11684 0.1016 0.22352 0.20828 0.44196 0.08636 0.19304 0.19304 0.41148 0.10668 0.21336 0.19304 0.40132 0.08636-0.18796 0.18796-0.40132 0.10668-0.21844 0.19304-0.41148 0.1016-0.21844 0.20828-0.44196 0.04064-0.08128 0.11176-0.11684 0.0762-0.04064 0.16256-0.02032t0.13716 0.08636q0.05588 0.06604 0.05588 0.1524v2.9464q0 0.1016-0.07112 0.17272t-0.17272 0.07112-0.17272-0.07112-0.07112-0.17272v-1.8542q-0.06604 0.13716-0.127 0.26924t-0.11176 0.23368q-0.05588 0.12192-0.11176 0.23368-0.03048 0.06604-0.09144 0.10668-0.05588 0.03556-0.127 0.03556-0.15748 0-0.22352-0.14224-0.05588-0.11176-0.11176-0.23368-0.0508-0.1016-0.11176-0.23368t-0.12192-0.26924v1.8542q0 0.1016-0.07112 0.17272t-0.17272 0.07112z"/>
    <path d="m21.626 5.1127q-0.1016 0-0.17272-0.07112t-0.07112-0.17272v-2.9464q0-0.1016 0.07112-0.17272t0.17272-0.07112 0.17272 0.07112 0.07112 0.17272v2.9464q0 0.1016-0.07112 0.17272t-0.17272 0.07112z"/>
    <path d="m22.315 5.0873q-0.08636-0.04572-0.12192-0.14224-0.03048-0.09652 0.01524-0.18288l0.70612-1.4173-0.65532-1.3106q-0.04572-0.09144-0.01524-0.18796 0.03556-0.09652 0.12192-0.14224 0.09144-0.04572 0.18796-0.01016 0.09652 0.03048 0.14224 0.12192l0.49276 0.98552 0.49276-0.98552q0.04572-0.09144 0.14224-0.12192 0.09652-0.03556 0.18288 0.01016 0.09144 0.04572 0.12192 0.14224 0.03556 0.09652-0.01016 0.18796l-0.65532 1.3106 0.70612 1.4173q0.04572 0.08636 0.01016 0.18288-0.03048 0.09652-0.12192 0.14224-0.08636 0.04572-0.18288 0.01016-0.09652-0.03048-0.14224-0.11684l-0.54356-1.0922-0.54356 1.0922q-0.04572 0.08636-0.14224 0.11684-0.09652 0.03556-0.18796-0.01016z"/>
   </g>
   <g enable-background="new" stroke-width=".28222" aria-label="OUT">
    <path d="m22.342 122.86q-0.12347 0-0.23283-0.0459-0.10583-0.0459-0.18697-0.127-0.08114-0.0811-0.127-0.18697-0.04586-0.10936-0.04586-0.23284v-1.1994q0-0.12347 0.04586-0.2293 0.04586-0.10936 0.127-0.1905 0.08114-0.0811 0.18697-0.127 0.10936-0.0459 0.23283-0.0459t0.2293 0.0459q0.10936 0.0459 0.1905 0.127 0.08114 0.0811 0.127 0.1905 0.04586 0.10583 0.04586 0.2293v1.1994q0 0.12348-0.04586 0.23284-0.04586 0.10583-0.127 0.18697-0.08114 0.0811-0.1905 0.127-0.10583 0.0459-0.2293 0.0459zm0-2.0461q-0.10583 0-0.17992 0.0741-0.07408 0.0741-0.07408 0.17991v1.1994q0 0.10584 0.07408 0.17992 0.07408 0.0741 0.17992 0.0741 0.10583 0 0.17992-0.0741 0.07408-0.0741 0.07408-0.17992v-1.1994q0-0.10583-0.07408-0.17991-0.07408-0.0741-0.17992-0.0741z"/>
    <path d="m23.553 122.27q0 0.10584 0.07408 0.17992 0.07408 0.0741 0.17992 0.0741 0.10231 0 0.17639-0.0741 0.07761-0.0741 0.07761-0.17992v-1.6228q0-0.0706 0.04939-0.11994 0.04939-0.0494 0.11994-0.0494 0.07055 0 0.11994 0.0494 0.04939 0.0494 0.04939 0.11994v1.6228q0 0.12348-0.04939 0.23284-0.04586 0.10583-0.127 0.18697-0.07761 0.0811-0.18697 0.127t-0.22931 0.0459q-0.12347 0-0.23283-0.0459-0.10583-0.0459-0.18697-0.127-0.08114-0.0811-0.127-0.18697-0.04586-0.10936-0.04586-0.23284v-1.6228q0-0.0706 0.04939-0.11994 0.04939-0.0494 0.11994-0.0494 0.07055 0 0.11994 0.0494 0.04939 0.0494 0.04939 0.11994v1.6228z"/>
    <path d="m25.667 120.49q0.07056 0 0.11994 0.0494 0.04939 0.0494 0.04939 0.11994 0 0.0706-0.04939 0.11994-0.04939 0.0494-0.11994 0.0494h-0.28928v1.8627q0 0.0706-0.04939 0.11994-0.04939 0.0494-0.11994 0.0494-0.07055 0-0.11994-0.0494-0.04939-0.0494-0.04939-0.11994v-1.8627h-0.28928q-0.07056 0-0.11994-0.0494-0.04939-0.0494-0.04939-0.11994 0-0.0705 0.04939-0.11994 0.04939-0.0494 0.11994-0.0494z"/>
   </g>
  </g>
  <g>
   <g enable-background="new" aria-label="L">
    <path d="m16.417 108.38q-0.07653 0-0.1301-0.0536-0.05357-0.0536-0.05357-0.1301v-2.2041q0-0.0765 0.05357-0.1301t0.1301-0.0536q0.07653 0 0.1301 0.0536 0.05357 0.0536 0.05357 0.1301v2.0204h0.58164q0.07653 0 0.1301 0.0536 0.05357 0.0536 0.05357 0.1301t-0.05357 0.1301-0.1301 0.0536h-0.76532z" stroke-width=".28222"/>
   </g>
   <g enable-background="new" aria-label="R">
    <path d="m17.442 116.67q0 0.1875-0.09567 0.34057-0.09184 0.14923-0.24873 0.22959l0.33291 0.89542q0.03061 0.0727-0.0038 0.14159-0.03061 0.0689-0.10332 0.0957-0.0727 0.0268-0.14158-4e-3 -0.06505-0.0306-0.09567-0.10332l-0.35587-0.95282h-0.20664v0.88777q0 0.0765-0.05357 0.1301t-0.1301 0.0536q-0.07653 0-0.1301-0.0536-0.05357-0.0536-0.05357-0.1301v-2.2041q0-0.0765 0.05357-0.1301t0.1301-0.0536h0.45919q0.13393 0 0.24873 0.0498 0.11862 0.0497 0.20664 0.13776 0.08801 0.088 0.13776 0.20663 0.04975 0.1148 0.04975 0.24873v0.21429zm-0.91838 0.27551h0.27552q0.1148 0 0.19516-0.0804 0.08036-0.0804 0.08036-0.19516v-0.21429q0-0.1148-0.08036-0.19515-0.08036-0.0804-0.19516-0.0804h-0.27552z" stroke-width=".28222"/>
   </g>
   <g enable-background="new" fill="#fff" stroke-width=".28222" aria-label="AUX IN">
    <path d="m4.127 122.64q0.017639 0.0706-0.017639 0.13053-0.03175 0.06-0.098778 0.0776-0.070555 0.0176-0.13053-0.0176-0.059972-0.0318-0.077611-0.0988-0.014111-0.0423-0.028222-0.10231-0.014111-0.0494-0.035278-0.11641-0.017639-0.0706-0.038806-0.1517h-0.59972q-0.024694 0.0811-0.042333 0.1517-0.017639 0.067-0.03175 0.11641-0.014111 0.06-0.028222 0.10231-0.017639 0.067-0.077611 0.0988-0.059972 0.0353-0.13053 0.0176-0.067028-0.0176-0.10231-0.0776-0.03175-0.06-0.014111-0.13053l0.56444-2.0461q0.014111-0.0565 0.056444-0.0882 0.045861-0.0353 0.10583-0.0353 0.059972 0 0.10231 0.0353 0.045861 0.0317 0.059972 0.0882zm-0.52211-0.61735q-0.049389-0.18345-0.10231-0.37748-0.052916-0.19402-0.10231-0.36688-0.049389 0.17286-0.10231 0.36688-0.052917 0.19403-0.10231 0.37748z"/>
    <path d="m4.6392 122.27q0 0.10584 0.074083 0.17992 0.074083 0.0741 0.17992 0.0741 0.10231 0 0.17639-0.0741 0.077611-0.0741 0.077611-0.17992v-1.6228q0-0.0706 0.049389-0.11994 0.049389-0.0494 0.11994-0.0494 0.070555 0 0.11994 0.0494 0.049389 0.0494 0.049389 0.11994v1.6228q0 0.12348-0.049389 0.23284-0.045861 0.10583-0.127 0.18697-0.077611 0.0811-0.18697 0.127-0.10936 0.0459-0.22931 0.0459-0.12347 0-0.23283-0.0459-0.10583-0.0459-0.18697-0.127-0.081139-0.0811-0.127-0.18697-0.045861-0.10936-0.045861-0.23284v-1.6228q0-0.0706 0.049389-0.11994 0.049389-0.0494 0.11994-0.0494 0.070555 0 0.11994 0.0494 0.049389 0.0494 0.049389 0.11994v1.6228z"/>
    <path d="m5.7617 122.84q-0.059972-0.0318-0.084666-0.0988-0.021167-0.067 0.010583-0.127l0.49036-0.98425-0.45508-0.91016q-0.03175-0.0635-0.010583-0.13053 0.024694-0.067 0.084666-0.0988 0.0635-0.0317 0.13053-7e-3 0.067028 0.0212 0.098778 0.0847l0.34219 0.68438 0.34219-0.68438q0.03175-0.0635 0.098778-0.0847 0.067028-0.0247 0.127 7e-3 0.0635 0.0318 0.084666 0.0988 0.024694 0.067-0.00706 0.13053l-0.45508 0.91016 0.49036 0.98425q0.03175 0.06 0.00706 0.127-0.021167 0.067-0.084666 0.0988-0.059972 0.0318-0.127 7e-3 -0.067028-0.0212-0.098778-0.0811l-0.37747-0.75847-0.37747 0.75847q-0.03175 0.06-0.098778 0.0811-0.067028 0.0247-0.13053-7e-3z"/>
    <path d="m8.1091 122.86q-0.070555 0-0.11994-0.0494-0.049389-0.0494-0.049389-0.11994v-2.0461q0-0.0706 0.049389-0.11994 0.049389-0.0494 0.11994-0.0494 0.070555 0 0.11994 0.0494 0.049389 0.0494 0.049389 0.11994v2.0461q0 0.0706-0.049389 0.11994-0.049389 0.0494-0.11994 0.0494z"/>
    <path d="m9.8243 122.86q-0.059972 0.0141-0.11289-0.0141-0.052917-0.0247-0.077611-0.0776-0.10583-0.22578-0.22225-0.46214-0.098778-0.20108-0.21872-0.4445-0.11642-0.24341-0.22578-0.47272v1.3053q0 0.0706-0.049389 0.11994-0.049389 0.0494-0.11994 0.0494-0.070555 0-0.11994-0.0494-0.049389-0.0494-0.049389-0.11994v-2.0461q0-0.06 0.035278-0.10583 0.035278-0.0459 0.09525-0.06t0.10936 0.0141q0.052916 0.0247 0.081139 0.0776 0.10583 0.22577 0.22225 0.46213 0.098778 0.20109 0.21519 0.4445 0.11642 0.24342 0.2293 0.47272v-1.3053q0-0.0706 0.049389-0.11994 0.049389-0.0494 0.11994-0.0494 0.070555 0 0.11994 0.0494 0.049389 0.0494 0.049389 0.11994v2.0461q0 0.06-0.038806 0.10583-0.035278 0.0459-0.091722 0.06z"/>
   </g>
  </g>
  <g transform="matrix(.26458 0 0 .26458 93.406 75.11)" fill="#fff">
   <g enable-background="new" aria-label="L">
    <path d="m-308.3 23.419q-0.26666 0-0.45333-0.18667-0.18667-0.18667-0.18667-0.45333v-7.68q0-0.26667 0.18667-0.45333 0.18667-0.18667 0.45333-0.18667 0.26667 0 0.45333 0.18667 0.18667 0.18667 0.18667 0.45333v7.04h2.0267q0.26667 0 0.45333 0.18667 0.18667 0.18667 0.18667 0.45333t-0.18667 0.45333q-0.18666 0.18667-0.45333 0.18667h-2.6667z" fill="#fff" stroke-width="1.0667"/>
   </g>
   <g enable-background="new" stroke-width="1.0667" aria-label="(M)">
    <path d="m-302.31 22.617q0.13867 0.17067 0.10667 0.37334-0.0213 0.21333-0.192 0.352-0.17067 0.128-0.384 0.10667-0.20267-0.02133-0.33067-0.192-0.72533-0.93867-1.1093-2.0373-0.36267-1.0773-0.36267-2.2293t0.36267-2.2293q0.384-1.0987 1.1093-2.0373 0.128-0.16 0.33067-0.18133 0.21333-0.032 0.384 0.096 0.17067 0.13867 0.192 0.352 0.032 0.20267-0.10667 0.37334-0.30933 0.39467-0.544 0.82134-0.23466 0.42667-0.39467 0.90667-0.30933 0.94934-0.30933 1.8987 0 0.97067 0.30933 1.8987 0.16001 0.48 0.39467 0.90667 0.23467 0.42667 0.544 0.82134z"/>
    <path d="m-301.15 22.596q-0.21333 0-0.36267-0.14933-0.14933-0.14933-0.14933-0.36267v-6.1867q0-0.18133 0.10667-0.32 0.10666-0.13867 0.288-0.18133 0.18133-0.04267 0.34133 0.04267 0.16 0.07467 0.23467 0.24533 0.21333 0.46934 0.43733 0.928 0.18134 0.40533 0.40534 0.864 0.224 0.448 0.40533 0.84267 0.18134-0.39467 0.39467-0.84267 0.224-0.45867 0.40534-0.864 0.21333-0.45867 0.43733-0.928 0.0853-0.17067 0.23467-0.24533 0.16-0.08533 0.34133-0.04267 0.18134 0.04267 0.288 0.18133 0.11734 0.13867 0.11734 0.32v6.1867q0 0.21333-0.14934 0.36267-0.14933 0.14933-0.36266 0.14933-0.21334 0-0.36267-0.14933-0.14934-0.14933-0.14934-0.36267v-3.8933q-0.13866 0.288-0.26666 0.56534-0.128 0.27733-0.23467 0.49067-0.11733 0.256-0.23467 0.49067-0.064 0.13867-0.192 0.224-0.11733 0.07467-0.26667 0.07467-0.33066 0-0.46933-0.29867-0.11734-0.23467-0.23467-0.49067-0.10667-0.21333-0.23467-0.49067-0.128-0.27734-0.256-0.56534v3.8933q0 0.21333-0.14933 0.36267t-0.36267 0.14933z"/>
    <path d="m-294.3 18.884q0 1.1307-0.37334 2.2293-0.36266 1.088-1.0987 2.0373-0.128 0.17067-0.34133 0.192-0.20267 0.02133-0.37334-0.10667-0.17066-0.13867-0.20266-0.352-0.0213-0.20267 0.10666-0.37334 0.62934-0.8 0.94934-1.728 0.30933-0.928 0.30933-1.8987 0-0.94934-0.30933-1.8987-0.32-0.928-0.94934-1.728-0.128-0.17067-0.10666-0.37334 0.032-0.21333 0.20266-0.352 0.17067-0.128 0.37334-0.096 0.21333 0.02133 0.34133 0.18133 0.73601 0.94934 1.0987 2.0373 0.37334 1.0987 0.37334 2.2293z"/>
   </g>
  </g>
  <g enable-background="new" fill="#fff" aria-label="R">
   <path d="m12.851 94.093q0 0.17286-0.08819 0.31397-0.08467 0.13758-0.22931 0.21167l0.30692 0.8255q0.02822 0.06703-0.0035 0.13053-0.02822 0.0635-0.09525 0.08819t-0.13053-0.0035q-0.05997-0.02822-0.08819-0.09525l-0.32808-0.87842h-0.1905v0.81844q0 0.07056-0.04939 0.11994-0.04939 0.04939-0.11994 0.04939-0.07055 0-0.11994-0.04939-0.04939-0.04939-0.04939-0.11994v-2.032q0-0.07055 0.04939-0.11994 0.04939-0.04939 0.11994-0.04939h0.42333q0.12347 0 0.2293 0.04586 0.10936 0.04586 0.1905 0.127 0.08114 0.08114 0.127 0.1905 0.04586 0.10583 0.04586 0.2293v0.19756zm-0.84666 0.254h0.254q0.10583 0 0.17992-0.07408 0.07408-0.07408 0.07408-0.17992v-0.19756q0-0.10583-0.07408-0.17992-0.07408-0.07408-0.17992-0.07408h-0.254z" fill="#fff" stroke-width=".28222"/>
  </g>
  <g transform="matrix(.26458 0 0 .26458 93.406 52.532)" fill="#fff">
   <g enable-background="new" aria-label="L">
    <path d="m-308.3 23.419q-0.26666 0-0.45333-0.18667-0.18667-0.18667-0.18667-0.45333v-7.68q0-0.26667 0.18667-0.45333 0.18667-0.18667 0.45333-0.18667 0.26667 0 0.45333 0.18667 0.18667 0.18667 0.18667 0.45333v7.04h2.0267q0.26667 0 0.45333 0.18667 0.18667 0.18667 0.18667 0.45333t-0.18667 0.45333q-0.18666 0.18667-0.45333 0.18667h-2.6667z" fill="#fff" stroke-width="1.0667"/>
   </g>
   <g enable-background="new" stroke-width="1.0667" aria-label="(M)">
    <path d="m-302.31 22.617q0.13867 0.17067 0.10667 0.37334-0.0213 0.21333-0.192 0.352-0.17067 0.128-0.384 0.10667-0.20267-0.02133-0.33067-0.192-0.72533-0.93867-1.1093-2.0373-0.36267-1.0773-0.36267-2.2293t0.36267-2.2293q0.384-1.0987 1.1093-2.0373 0.128-0.16 0.33067-0.18133 0.21333-0.032 0.384 0.096 0.17067 0.13867 0.192 0.352 0.032 0.20267-0.10667 0.37334-0.30933 0.39467-0.544 0.82134-0.23466 0.42667-0.39467 0.90667-0.30933 0.94934-0.30933 1.8987 0 0.97067 0.30933 1.8987 0.16001 0.48 0.39467 0.90667 0.23467 0.42667 0.544 0.82134z"/>
    <path d="m-301.15 22.596q-0.21333 0-0.36267-0.14933-0.14933-0.14933-0.14933-0.36267v-6.1867q0-0.18133 0.10667-0.32 0.10666-0.13867 0.288-0.18133 0.18133-0.04267 0.34133 0.04267 0.16 0.07467 0.23467 0.24533 0.21333 0.46934 0.43733 0.928 0.18134 0.40533 0.40534 0.864 0.224 0.448 0.40533 0.84267 0.18134-0.39467 0.39467-0.84267 0.224-0.45867 0.40534-0.864 0.21333-0.45867 0.43733-0.928 0.0853-0.17067 0.23467-0.24533 0.16-0.08533 0.34133-0.04267 0.18134 0.04267 0.288 0.18133 0.11734 0.13867 0.11734 0.32v6.1867q0 0.21333-0.14934 0.36267-0.14933 0.14933-0.36266 0.14933-0.21334 0-0.36267-0.14933-0.14934-0.14933-0.14934-0.36267v-3.8933q-0.13866 0.288-0.26666 0.56534-0.128 0.27733-0.23467 0.49067-0.11733 0.256-0.23467 0.49067-0.064 0.13867-0.192 0.224-0.11733 0.07467-0.26667 0.07467-0.33066 0-0.46933-0.29867-0.11734-0.23467-0.23467-0.49067-0.10667-0.21333-0.23467-0.49067-0.128-0.27734-0.256-0.56534v3.8933q0 0.21333-0.14933 0.36267t-0.36267 0.14933z"/>
    <path d="m-294.3 18.884q0 1.1307-0.37334 2.2293-0.36266 1.088-1.0987 2.0373-0.128 0.17067-0.34133 0.192-0.20267 0.02133-0.37334-0.10667-0.17066-0.13867-0.20266-0.352-0.0213-0.20267 0.10666-0.37334 0.62934-0.8 0.94934-1.728 0.30933-0.928 0.30933-1.8987 0-0.94934-0.30933-1.8987-0.32-0.928-0.94934-1.728-0.128-0.17067-0.10666-0.37334 0.032-0.21333 0.20266-0.352 0.17067-0.128 0.37334-0.096 0.21333 0.02133 0.34133 0.18133 0.73601 0.94934 1.0987 2.0373 0.37334 1.0987 0.37334 2.2293z"/>
   </g>
  </g>
  <g enable-background="new" fill="#fff" aria-label="R">
   <path d="m12.851 71.516q0 0.17286-0.08819 0.31397-0.08467 0.13758-0.22931 0.21167l0.30692 0.8255q0.02822 0.06703-0.0035 0.13053-0.02822 0.0635-0.09525 0.08819t-0.13053-0.0035q-0.05997-0.02822-0.08819-0.09525l-0.32808-0.87842h-0.1905v0.81844q0 0.07055-0.04939 0.11994-0.04939 0.04939-0.11994 0.04939-0.07055 0-0.11994-0.04939-0.04939-0.04939-0.04939-0.11994v-2.032q0-0.07055 0.04939-0.11994 0.04939-0.04939 0.11994-0.04939h0.42333q0.12347 0 0.2293 0.04586 0.10936 0.04586 0.1905 0.127 0.08114 0.08114 0.127 0.1905 0.04586 0.10583 0.04586 0.2293v0.19756zm-0.84666 0.254h0.254q0.10583 0 0.17992-0.07408 0.07408-0.07408 0.07408-0.17992v-0.19756q0-0.10583-0.07408-0.17992-0.07408-0.07408-0.17992-0.07408h-0.254z" fill="#fff" stroke-width=".28222"/>
  </g>
  <g transform="matrix(.26458 0 0 .26458 93.406 29.954)" fill="#fff">
   <g enable-background="new" aria-label="L">
    <path d="m-308.3 23.419q-0.26666 0-0.45333-0.18667-0.18667-0.18667-0.18667-0.45333v-7.68q0-0.26667 0.18667-0.45333 0.18667-0.18667 0.45333-0.18667 0.26667 0 0.45333 0.18667 0.18667 0.18667 0.18667 0.45333v7.04h2.0267q0.26667 0 0.45333 0.18667 0.18667 0.18667 0.18667 0.45333t-0.18667 0.45333q-0.18666 0.18667-0.45333 0.18667h-2.6667z" fill="#fff" stroke-width="1.0667"/>
   </g>
   <g enable-background="new" stroke-width="1.0667" aria-label="(M)">
    <path d="m-302.31 22.617q0.13867 0.17067 0.10667 0.37334-0.0213 0.21333-0.192 0.352-0.17067 0.128-0.384 0.10667-0.20267-0.02133-0.33067-0.192-0.72533-0.93867-1.1093-2.0373-0.36267-1.0773-0.36267-2.2293t0.36267-2.2293q0.384-1.0987 1.1093-2.0373 0.128-0.16 0.33067-0.18133 0.21333-0.032 0.384 0.096 0.17067 0.13867 0.192 0.352 0.032 0.20267-0.10667 0.37334-0.30933 0.39467-0.544 0.82134-0.23466 0.42667-0.39467 0.90667-0.30933 0.94934-0.30933 1.8987 0 0.97067 0.30933 1.8987 0.16001 0.48 0.39467 0.90667 0.23467 0.42667 0.544 0.82134z"/>
    <path d="m-301.15 22.596q-0.21333 0-0.36267-0.14933-0.14933-0.14933-0.14933-0.36267v-6.1867q0-0.18133 0.10667-0.32 0.10666-0.13867 0.288-0.18133 0.18133-0.04267 0.34133 0.04267 0.16 0.07467 0.23467 0.24533 0.21333 0.46934 0.43733 0.928 0.18134 0.40533 0.40534 0.864 0.224 0.448 0.40533 0.84267 0.18134-0.39467 0.39467-0.84267 0.224-0.45867 0.40534-0.864 0.21333-0.45867 0.43733-0.928 0.0853-0.17067 0.23467-0.24533 0.16-0.08533 0.34133-0.04267 0.18134 0.04267 0.288 0.18133 0.11734 0.13867 0.11734 0.32v6.1867q0 0.21333-0.14934 0.36267-0.14933 0.14933-0.36266 0.14933-0.21334 0-0.36267-0.14933-0.14934-0.14933-0.14934-0.36267v-3.8933q-0.13866 0.288-0.26666 0.56534-0.128 0.27733-0.23467 0.49067-0.11733 0.256-0.23467 0.49067-0.064 0.13867-0.192 0.224-0.11733 0.07467-0.26667 0.07467-0.33066 0-0.46933-0.29867-0.11734-0.23467-0.23467-0.49067-0.10667-0.21333-0.23467-0.49067-0.128-0.27734-0.256-0.56534v3.8933q0 0.21333-0.14933 0.36267t-0.36267 0.14933z"/>
    <path d="m-294.3 18.884q0 1.1307-0.37334 2.2293-0.36266 1.088-1.0987 2.0373-0.128 0.17067-0.34133 0.192-0.20267 0.02133-0.37334-0.10667-0.17066-0.13867-0.20266-0.352-0.0213-0.20267 0.10666-0.37334 0.62934-0.8 0.94934-1.728 0.30933-0.928 0.30933-1.8987 0-0.94934-0.30933-1.8987-0.32-0.928-0.94934-1.728-0.128-0.17067-0.10666-0.37334 0.032-0.21333 0.20266-0.352 0.17067-0.128 0.37334-0.096 0.21333 0.02133 0.34133 0.18133 0.73601 0.94934 1.0987 2.0373 0.37334 1.0987 0.37334 2.2293z"/>
   </g>
  </g>
  <g enable-background="new" fill="#fff" aria-label="R">
   <path d="m12.851 48.938q0 0.17286-0.08819 0.31397-0.08467 0.13758-0.22931 0.21167l0.30692 0.8255q0.02822 0.06703-0.0035 0.13053-0.02822 0.0635-0.09525 0.08819-0.06703 0.0247-0.13053-0.0035-0.05997-0.02822-0.08819-0.09525l-0.32808-0.87842h-0.1905v0.81844q0 0.07055-0.04939 0.11994-0.04939 0.04939-0.11994 0.04939-0.07055 0-0.11994-0.04939-0.04939-0.04939-0.04939-0.11994v-2.032q0-0.07055 0.04939-0.11994 0.04939-0.04939 0.11994-0.04939h0.42333q0.12347 0 0.2293 0.04586 0.10936 0.04586 0.1905 0.127 0.08114 0.08114 0.127 0.1905 0.04586 0.10583 0.04586 0.2293v0.19756zm-0.84666 0.254h0.254q0.10583 0 0.17992-0.07408 0.07408-0.07408 0.07408-0.17992v-0.19756q0-0.10583-0.07408-0.17992-0.07408-0.07408-0.17992-0.07408h-0.254z" fill="#fff" stroke-width=".28222"/>
  </g>
  <g transform="matrix(.26458 0 0 .26458 20.028 74.498)">
   <path d="m32.707-87.304v-73.144c0-2.6671-2.1472-4.8143-4.8143-4.8143h-98.092" fill="none" stroke="#fff" stroke-linecap="round" stroke-width="1.4098"/>
   <g fill="#fff">
    <circle cx="-9.9773" cy="-98.596" r="1.4042" stroke="#fff" stroke-linecap="round" stroke-width="1.0318"/>
    <circle cx="17.679" cy="-98.596" r="1.4042" stroke="#fff" stroke-linecap="round" stroke-width="1.0318"/>
    <path d="m-11.897-86.59h31.496v-5.305z"/>
   </g>
  </g>
  <g transform="matrix(.26458 0 0 .26458 93.406 7.3766)" fill="#fff">
   <g enable-background="new" aria-label="L">
    <path d="m-308.3 23.419q-0.26666 0-0.45333-0.18667-0.18667-0.18667-0.18667-0.45333v-7.68q0-0.26667 0.18667-0.45333 0.18667-0.18667 0.45333-0.18667 0.26667 0 0.45333 0.18667 0.18667 0.18667 0.18667 0.45333v7.04h2.0267q0.26667 0 0.45333 0.18667 0.18667 0.18667 0.18667 0.45333t-0.18667 0.45333q-0.18666 0.18667-0.45333 0.18667h-2.6667z" fill="#fff" stroke-width="1.0667"/>
   </g>
   <g enable-background="new" stroke-width="1.0667" aria-label="(M)">
    <path d="m-302.31 22.617q0.13867 0.17067 0.10667 0.37334-0.0213 0.21333-0.192 0.352-0.17067 0.128-0.384 0.10667-0.20267-0.02133-0.33067-0.192-0.72533-0.93867-1.1093-2.0373-0.36267-1.0773-0.36267-2.2293t0.36267-2.2293q0.384-1.0987 1.1093-2.0373 0.128-0.16 0.33067-0.18133 0.21333-0.032 0.384 0.096 0.17067 0.13867 0.192 0.352 0.032 0.20267-0.10667 0.37334-0.30933 0.39467-0.544 0.82134-0.23466 0.42667-0.39467 0.90667-0.30933 0.94934-0.30933 1.8987 0 0.97067 0.30933 1.8987 0.16001 0.48 0.39467 0.90667 0.23467 0.42667 0.544 0.82134z"/>
    <path d="m-301.15 22.596q-0.21333 0-0.36267-0.14933-0.14933-0.14933-0.14933-0.36267v-6.1867q0-0.18133 0.10667-0.32 0.10666-0.13867 0.288-0.18133 0.18133-0.04267 0.34133 0.04267 0.16 0.07467 0.23467 0.24533 0.21333 0.46934 0.43733 0.928 0.18134 0.40533 0.40534 0.864 0.224 0.448 0.40533 0.84267 0.18134-0.39467 0.39467-0.84267 0.224-0.45867 0.40534-0.864 0.21333-0.45867 0.43733-0.928 0.0853-0.17067 0.23467-0.24533 0.16-0.08533 0.34133-0.04267 0.18134 0.04267 0.288 0.18133 0.11734 0.13867 0.11734 0.32v6.1867q0 0.21333-0.14934 0.36267-0.14933 0.14933-0.36266 0.14933-0.21334 0-0.36267-0.14933-0.14934-0.14933-0.14934-0.36267v-3.8933q-0.13866 0.288-0.26666 0.56534-0.128 0.27733-0.23467 0.49067-0.11733 0.256-0.23467 0.49067-0.064 0.13867-0.192 0.224-0.11733 0.07467-0.26667 0.07467-0.33066 0-0.46933-0.29867-0.11734-0.23467-0.23467-0.49067-0.10667-0.21333-0.23467-0.49067-0.128-0.27734-0.256-0.56534v3.8933q0 0.21333-0.14933 0.36267t-0.36267 0.14933z"/>
    <path d="m-294.3 18.884q0 1.1307-0.37334 2.2293-0.36266 1.088-1.0987 2.0373-0.128 0.17067-0.34133 0.192-0.20267 0.02133-0.37334-0.10667-0.17066-0.13867-0.20266-0.352-0.0213-0.20267 0.10666-0.37334 0.62934-0.8 0.94934-1.728 0.30933-0.928 0.30933-1.8987 0-0.94934-0.30933-1.8987-0.32-0.928-0.94934-1.728-0.128-0.17067-0.10666-0.37334 0.032-0.21333 0.20266-0.352 0.17067-0.128 0.37334-0.096 0.21333 0.02133 0.34133 0.18133 0.73601 0.94934 1.0987 2.0373 0.37334 1.0987 0.37334 2.2293z"/>
   </g>
  </g>
  <g enable-background="new" fill="#fff" aria-label="R">
   <path d="m12.851 26.36q0 0.17286-0.08819 0.31397-0.08467 0.13758-0.22931 0.21167l0.30692 0.8255q0.02822 0.06703-0.0035 0.13053-0.02822 0.0635-0.09525 0.08819t-0.13053-0.0035q-0.05997-0.02822-0.08819-0.09525l-0.32808-0.87841h-0.1905v0.81844q0 0.07056-0.04939 0.11994-0.04939 0.04939-0.11994 0.04939-0.07055 0-0.11994-0.04939-0.04939-0.04939-0.04939-0.11994v-2.032q0-0.07056 0.04939-0.11994 0.04939-0.04939 0.11994-0.04939h0.42333q0.12347 0 0.2293 0.04586 0.10936 0.04586 0.1905 0.127 0.08114 0.08114 0.127 0.1905 0.04586 0.10583 0.04586 0.2293v0.19756zm-0.84666 0.254h0.254q0.10583 0 0.17992-0.07408 0.07408-0.07408 0.07408-0.17992v-0.19756q0-0.10583-0.07408-0.17992-0.07408-0.07408-0.17992-0.07408h-0.254z" fill="#fff" stroke-width=".28222"/>
  </g>
  <g transform="matrix(.26458 0 0 .26458 20.028 51.891)">
   <path d="m32.707-87.304v-73.144c0-2.6671-2.1472-4.8143-4.8143-4.8143h-98.092" fill="none" stroke="#fff" stroke-linecap="round" stroke-width="1.4098"/>
   <g fill="#fff">
    <circle cx="-9.9773" cy="-98.596" r="1.4042" stroke="#fff" stroke-linecap="round" stroke-width="1.0318"/>
    <circle cx="17.679" cy="-98.596" r="1.4042" stroke="#fff" stroke-linecap="round" stroke-width="1.0318"/>
    <path d="m-11.897-86.59h31.496v-5.305z"/>
   </g>
  </g>
  <g transform="matrix(.26458 0 0 .26458 20.028 97.105)">
   <path d="m32.707-87.304v-73.144c0-2.6671-2.1472-4.8143-4.8143-4.8143h-98.092" fill="none" stroke="#fff" stroke-linecap="round" stroke-width="1.4098"/>
   <g fill="#fff">
    <circle cx="-9.9773" cy="-98.596" r="1.4042" stroke="#fff" stroke-linecap="round" stroke-width="1.0318"/>
    <circle cx="17.679" cy="-98.596" r="1.4042" stroke="#fff" stroke-linecap="round" stroke-width="1.0318"/>
    <path d="m-11.897-86.59h31.496v-5.305z"/>
   </g>
  </g>
  <g transform="matrix(.26458 0 0 .26458 20.028 119.71)">
   <path d="m32.707-87.304v-73.144c0-2.6671-2.1472-4.8143-4.8143-4.8143h-98.092" fill="none" stroke="#fff" stroke-linecap="round" stroke-width="1.4098"/>
   <g fill="#fff">
    <circle cx="-9.9773" cy="-98.596" r="1.4042" stroke="#fff" stroke-linecap="round" stroke-width="1.0318"/>
    <circle cx="17.679" cy="-98.596" r="1.4042" stroke="#fff" stroke-linecap="round" stroke-width="1.0318"/>
    <path d="m-11.897-86.59h31.496v-5.305z"/>
   </g>
  </g>
  <text x="7.5000315" y="81.276497" enable-background="new" fill="#ffffff" font-family="Miso" font-size="3.3867px" font-stretch="condensed" font-weight="bold" letter-spacing="-.016933px" stroke-width=".28222" text-align="center" text-anchor="middle" word-spacing="0px" style="line-height:0%" xml:space="preserve"><tspan x="7.8624024" y="81.276497" fill="#ffffff" font-size="3.9511px" stroke-width=".28222" text-align="center" text-anchor="middle" style="line-height:1.25"> </tspan></text>
 </g>
 <g id="components" display="none">
  <g transform="matrix(.32549 -.05863 .05863 .32549 -65.077 -243.43)" display="inline" fill="none">
   <title>Lienzo 1</title>
   <g>
    <title>Capa 1</title>
   </g>
  </g>
  <g fill="#f00">
   <circle cx="20.892" cy="18.141" r="4.3461"/>
   <circle cx="20.982" cy="41.451" r="4.3461"/>
   <circle cx="20.927" cy="64.318" r="4.3461"/>
   <circle cx="21" cy="87.124" r="4.3461"/>
  </g>
  <g fill="#0f0">
   <circle cx="6.3076" cy="13.108" r="2.2748"/>
   <circle cx="6.3076" cy="23.108" r="2.2748"/>
   <circle cx="6.3076" cy="36.175" r="2.2748"/>
   <circle cx="6.3133" cy="46.354" r="2.2748"/>
   <circle cx="6.3" cy="59.243" r="2.2748"/>
   <circle cx="6.3076" cy="69.237" r="2.2748"/>
   <circle cx="6.2789" cy="82.311" r="2.2748"/>
   <circle cx="6.3076" cy="92.132" r="2.2748"/>
   <circle cx="6.2867" cy="105.38" r="2.2748"/>
   <circle cx="6.2789" cy="115.38" r="2.2748"/>
  </g>
  <g>
   <circle cx="23.813" cy="105.42" r="2.2748" fill="#00f"/>
   <circle cx="23.792" cy="115.39" r="2.2748" fill="#00f"/>
   <circle cx="16.8" cy="103" r="1.25" fill="#f0f"/>
   <circle cx="16.8" cy="113" r="1.25" fill="#f0f"/>
  </g>
 </g>
</svg>
